<svg xmlns="http://www.w3.org/2000/svg" viewBox="0 0 48 48"><path fill="none" stroke="#000" stroke-width="2" d="M29.49 12.984C30.156 14.208 31.446 15 33 15c2.288 0 4-1.712 4-4 0-2.288-1.712-4-4-4-2.288 0-4 1.712-4 4 0 .732.176 1.406.49 1.984L16.33 20.697C15.631 19.65 14.436 19 13 19c-2.314 0-4 1.686-4 4 0 2.312 1.686 4 4 4 1.542 0 2.804-.75 3.474-1.932A4.152 4.152 0 0017 23c0-.876-.242-1.664-.668-2.302zm.067 19.922L16.475 25.07l13.081 7.835C30.258 31.701 31.506 31 33 31c2.234 0 4 1.766 4 4 0 2.236-1.766 4-4 4s-3.988-1.764-3.988-4c0-.74.198-1.496.544-2.094z"/></svg>