<svg xmlns="http://www.w3.org/2000/svg" width="32" height="32" viewBox="0 0 32 32">
  <g id="ch.sbb.bauprojekte.ih_strecke" transform="translate(1 1)">
    <circle id="circle106" cx="15" cy="15" r="15" fill="#fca000"/>
    <path id="path108" d="M7.812,25.035l.349.349.572-.572.815.815.932-.932-.815-.815,1.228-1.228.815.815.932-.932-.815-.815,1.228-1.228.815.815.932-.932-.815-.815,1.228-1.228.815.815.932-.932-.815-.815,1.27-1.27.815.815.932-.932-.815-.815,1.228-1.228.815.815.932-.932-.815-.815,1.228-1.228.815.815.932-.932-.815-.815,1.228-1.228.815.815.932-.932-.815-.815.593-.593-.349-.349-.593.593L21.637,5.536l.593-.593-.349-.349-.593.593-.815-.815-.932.932.815.815L19.128,7.347l-.815-.815-.932.932.815.815L16.969,9.506l-.815-.815-.932.932.815.815-1.228,1.228-.815-.815-.932.932.815.815-.371.37-.91.9-.815-.815-.932.932.815.815-1.228,1.228-.815-.815-.932.932.815.815L8.278,18.186l-.815-.815-.932.932.815.815L6.119,20.346,5.3,19.531l-.932.932.815.815-.572.572.349.349.572-.572,2.837,2.837ZM20.706,6.468,23.543,9.3l-1.228,1.228L19.478,7.7Zm-2.159,2.16,2.837,2.837L20.145,12.7,17.308,9.866Zm-2.159,2.159,2.837,2.837L18,14.852l-2.837-2.837Zm-2.159,2.159,2.837,2.837-.371.37-.91.91-2.837-2.837Zm-2.2,2.2,2.837,2.837-1.228,1.228L10.8,16.376Zm-2.159,2.16L12.7,20.145l-1.239,1.239L8.627,18.546Zm-3.4,3.4L7.7,19.478l2.837,2.837L9.3,23.543Z" fill="#fff"/>
    <rect id="Rechteck_7" data-name="Rechteck 7" width="32" height="32" transform="translate(-1 -1)" fill="none"/>
  </g>
</svg>
