<svg xmlns="http://www.w3.org/2000/svg" xmlns:xlink="http://www.w3.org/1999/xlink" width="32" height="32" viewBox="0 0 32 32">
  <defs>
    <clipPath id="clip-path">
      <path id="use11" d="M10.2,25.8l1.853-8.924h5.9L19.806,25.8Z"/>
    </clipPath>
  </defs>
  <g id="ch.sbb.bauprojekte.ih_bahnhof-strecke" transform="translate(1 1)">
    <circle id="circle4" cx="15" cy="15" r="15" fill="#fca000"/>
    <path id="path6" d="M21.193,8.9V6.627l-6.2-2.5L8.8,6.627V8.892H4.266v6.891h7.791V11.845a2.943,2.943,0,0,1,5.886,0v3.938h7.791V8.9Z" fill="#fff"/>
    <g id="g18" transform="translate(-0.011)">
      <g id="g16" clip-path="url(#clip-path)">
        <path id="path14" d="M12.629,23.459l.18-1.546h4.383l.18,1.556H12.629m.3-2.583.138-1.207h3.874l.138,1.207h-4.15m.233-2.011.106-.963h3.472l.106.963H13.158m3.864-2h-.4l.042.392H13.338l.042-.392h-.4l-.053.392h-.953l-.138.646h1l-.138.963H11.634l-.169.8h1.112l-.169,1.207H11.221l-.212,1.027h1.26l-.222,1.556H10.692l-.275,1.344h1.44l-.085.582-.053.4h.656l.116-.984h5.05l.064.582.042.4H18.3l-.138-.984h1.45l-.275-1.344H17.986l-.222-1.556h1.26l-.212-1.027H17.626l-.169-1.207h1.112l-.169-.8H17.34l-.138-.963h1l-.138-.646h-.953l-.085-.392" fill="#fff"/>
      </g>
    </g>
    <rect id="Rechteck_5" data-name="Rechteck 5" width="32" height="32" transform="translate(-1 -1)" fill="none"/>
  </g>
</svg>
