<svg xmlns="http://www.w3.org/2000/svg" width="32" height="32" viewBox="0 0 32 32">
  <g id="ch.sbb.bauprojekte.ausbau_strecke" transform="translate(1 1)">
    <circle id="circle4" cx="15" cy="15" r="15" fill="#143a85"/>
    <path id="path6" d="M7.812,25.035l.349.349.572-.572.815.815.932-.932-.815-.815,1.228-1.228.815.815.932-.932-.815-.815,1.228-1.228.815.815.932-.932-.815-.815,1.228-1.228.815.815.932-.932-.815-.815,1.27-1.27.815.815.932-.932-.815-.815,1.228-1.228.815.815.932-.932-.815-.815,1.228-1.228.815.815.932-.932-.815-.815,1.228-1.228.815.815.932-.932-.815-.815.593-.593-.349-.349-.593.593L21.637,5.536l.593-.593-.349-.349-.6.593-.815-.815-.932.932.815.815L19.118,7.347,18.3,6.531l-.932.932.815.815L16.958,9.506l-.815-.815-.932.932.815.815L14.8,11.666l-.815-.815-.932.932.815.815-.371.37-.9.9-.815-.815-.932.932.815.815-1.228,1.228-.815-.815-.932.932.815.815L8.278,18.186l-.815-.815-.932.932.815.815L6.119,20.346,5.3,19.531l-.932.932.815.815-.572.572.349.349.572-.572,2.837,2.837ZM20.706,6.468,23.543,9.3l-1.228,1.228L19.478,7.7Zm-2.159,2.16,2.837,2.837L20.145,12.7,17.308,9.866Zm-2.159,2.159,2.837,2.837L18,14.852l-2.837-2.837Zm-2.159,2.159,2.837,2.837-.371.37-.91.91-2.837-2.837Zm-2.2,2.2,2.837,2.837-1.228,1.228L10.8,16.376Zm-2.159,2.16L12.7,20.145l-1.228,1.228L8.638,18.536ZM6.468,20.7,7.7,19.467,10.533,22.3,9.3,23.532Z" fill="#fff"/>
    <rect id="Rechteck_2" data-name="Rechteck 2" width="32" height="32" transform="translate(-1 -1)" fill="none"/>
  </g>
</svg>
