<svg xmlns="http://www.w3.org/2000/svg" width="426.66" height="134.9" version="1.0"><defs><clipPath id="a"><path d="M61.717 89.456h32.394v10.33H61.717v-10.33z"/></clipPath></defs><g clip-path="url(#a)" transform="matrix(13.34573 0 0 -13.34573 -827.338 1327.394)"><path d="M0 0c-.095 0-.196.042-.196.133 0 .205.278.247.512.247h.13C.376.146.275 0 0 0m.28 1.151a1.78 1.78 0 0 1-.529-.081l-.005-.002-.061-.299.014.006c.169.069.339.104.505.104.071 0 .302-.012.302-.167A.371.371 0 0 0 .495.606H.361C-.085.606-.597.55-.597.12c0-.242.186-.392.486-.392.198 0 .342.068.493.229l-.04-.198h.356l.001.007c.016.107.053.268.089.422.05.214.101.435.101.54 0 .368-.382.423-.609.423" style="fill:#231f20;fill-opacity:1;fill-rule:nonzero;stroke:none" transform="translate(63.339 94.333)"/><path d="M0 0c-.094 0-.196.042-.196.133 0 .205.278.247.512.247h.13C.376.146.275 0 0 0m.28 1.151a1.78 1.78 0 0 1-.529-.081l-.005-.002-.061-.299.015.006c.168.069.338.104.504.104.071 0 .302-.012.302-.167A.371.371 0 0 0 .495.606H.361C-.085.606-.597.55-.597.12c0-.242.186-.392.486-.392.198 0 .342.068.493.229l-.04-.198h.357v.007c.016.107.053.268.089.422.05.214.101.435.101.54 0 .368-.382.423-.609.423" style="fill:#231f20;fill-opacity:1;fill-rule:nonzero;stroke:none" transform="translate(65.31 94.333)"/><path d="M0 0a.568.568 0 0 1-.448-.262l.049.231H-.8l-.038-.187-.279-1.174h.42l.146.609c.03.13.137.433.467.433.05 0 .106-.008.151-.021l.008-.002.088.358-.008.002A.74.74 0 0 1 0 0" style="fill:#231f20;fill-opacity:1;fill-rule:nonzero;stroke:none" transform="translate(67.8 95.484)"/><path d="M0 0c.068.157.168.299.423.299.162 0 .248-.074.248-.216L.662 0H0zm.429.572C-.103.572-.46.144-.46-.256c0-.379.275-.596.754-.596.142 0 .304.025.495.076l.005.002.055.296-.014-.006A1.284 1.284 0 0 0 .363-.58c-.288 0-.418.101-.421.324h1.089l.001.006c.027.109.04.208.04.302 0 .33-.235.52-.643.52" style="fill:#231f20;fill-opacity:1;fill-rule:nonzero;stroke:none" transform="translate(68.648 94.912)"/><path d="M0 0c-.328 0-.678-.115-.678-.436 0-.192.163-.283.308-.364.115-.064.215-.119.215-.211 0-.103-.139-.14-.269-.14a.832.832 0 0 0-.381.103l-.009.005-.092-.296.007-.003c.135-.055.29-.081.475-.081.449 0 .706.168.706.462 0 .196-.183.301-.33.384-.104.06-.193.111-.193.177 0 .119.2.128.262.128a1.1 1.1 0 0 0 .328-.062l.008-.003.092.28-.008.002A2.045 2.045 0 0 1 0 0" style="fill:#231f20;fill-opacity:1;fill-rule:nonzero;stroke:none" transform="translate(72.099 95.484)"/><path d="M0 0c.068.157.168.299.423.299.162 0 .248-.074.248-.216L.662 0H0zm.429.572C-.103.572-.46.144-.46-.256c0-.379.275-.596.754-.596.142 0 .304.025.495.076l.005.002.055.296-.014-.006A1.284 1.284 0 0 0 .363-.58c-.288 0-.418.101-.421.324h1.089l.001.006c.027.109.04.208.04.302 0 .33-.235.52-.643.52" style="fill:#231f20;fill-opacity:1;fill-rule:nonzero;stroke:none" transform="translate(73.392 94.912)"/><path d="M0 0c.068.157.168.299.423.299.162 0 .248-.074.248-.216L.662 0H0zm.429.572C-.102.572-.46.144-.46-.256c0-.379.275-.596.754-.596.142 0 .304.025.495.076l.005.002.055.296-.014-.006A1.284 1.284 0 0 0 .363-.58c-.288 0-.418.101-.421.324h1.089l.001.006c.027.109.04.208.04.302 0 .33-.235.52-.643.52" style="fill:#231f20;fill-opacity:1;fill-rule:nonzero;stroke:none" transform="translate(75.364 94.912)"/><path d="m0 0-.482-1.974h.42L.42 0H0z" style="fill:#231f20;fill-opacity:1;fill-rule:nonzero;stroke:none" transform="translate(77.323 96.066)"/><path d="M0 0c-.095 0-.196.042-.196.133 0 .205.278.247.512.247h.13C.375.146.275 0 0 0m.28 1.151a1.78 1.78 0 0 1-.529-.081l-.004-.002-.062-.299.014.006c.169.069.339.104.505.104.071 0 .302-.012.302-.167A.371.371 0 0 0 .495.606H.361C-.085.606-.597.55-.597.12c0-.242.186-.392.486-.392.198 0 .342.068.493.229l-.04-.198h.357L.7-.234c.015.107.052.268.088.422.05.214.101.435.101.54 0 .368-.382.423-.609.423" style="fill:#231f20;fill-opacity:1;fill-rule:nonzero;stroke:none" transform="translate(78.576 94.333)"/><path d="M0 0a.716.716 0 0 1-.434-.157l.026.126h-.41l-.041-.2-.288-1.161h.42l.167.682c.046.181.14.422.425.422.126 0 .211-.072.211-.18 0-.088-.019-.171-.038-.251L.031-.748l-.153-.644h.42l.164.659.006.024c.02.079.045.177.045.27C.513-.172.312 0 0 0" style="fill:#231f20;fill-opacity:1;fill-rule:nonzero;stroke:none" transform="translate(81.095 95.484)"/><path d="M0 0c0-.26-.185-.537-.461-.537-.215 0-.238.217-.238.31 0 .181.125.537.416.537C-.088.31 0 .154 0 0m.727 1.18h-.41L.124.414A.656.656 0 0 1-.35.598c-.516 0-.786-.431-.786-.856 0-.262.141-.567.54-.567.215 0 .369.069.499.221l-.037-.19h.393l.001.007c.009.068.033.185.057.297l.42 1.67h-.01z" style="fill:#231f20;fill-opacity:1;fill-rule:nonzero;stroke:none" transform="translate(83.285 94.886)"/><path d="M0 0c1.502-.712 2.21-1.279 2.21-1.279s-.921-.724-3.405-1.472c-2.158-.65-4.424-.785-4.424-.785l-.397-1.608s3.288.286 6.059 1.391C2.67-2.706 4.055-1.545 4.055-1.545S2.324-.285.164.559L0 0z" style="fill:#ef293d;fill-opacity:1;fill-rule:nonzero;stroke:none" transform="translate(84.443 95.247)"/><path d="M0 0s2.488-.178 5.88-.866a41.082 41.082 0 0 0 5.483-1.543l.107.37s-2.551.941-5.522 1.544C2.53.198.097.345.097.345L0 0z" style="fill:#ef293d;fill-opacity:1;fill-rule:nonzero;stroke:none" transform="translate(71.621 98.368)"/><path d="M0 0c.017.062.031.146.037.213h.18A1.655 1.655 0 0 0 .186.022h.005c.137.159.252.221.452.221.205 0 .356-.099.365-.283h.006a.53.53 0 0 0 .494.283c.251 0 .411-.141.411-.372 0-.05-.02-.146-.043-.238l-.165-.684h-.189l.163.669c.02.077.037.151.037.246 0 .139-.069.245-.243.245-.297 0-.448-.29-.502-.518l-.152-.642H.637L.8-.382c.02.077.037.151.037.246 0 .139-.069.245-.243.245-.297 0-.448-.29-.503-.518l-.151-.642h-.188L0 0z" style="fill:#231f20;fill-opacity:1;fill-rule:nonzero;stroke:none" transform="translate(85.436 97.194)"/><path d="M0 0c0-.315.223-.55.583-.55.502 0 .808.359.808.781 0 .327-.209.543-.58.543C.317.774 0 .424 0 0m.197-.025c0 .323.189.665.591.665.283 0 .406-.174.406-.412 0-.297-.212-.645-.589-.645-.254 0-.408.174-.408.392" style="fill:#231f20;fill-opacity:1;fill-rule:nonzero;stroke:none" transform="translate(87.787 96.663)"/><path d="M0 0h-.189l-.394-1.602c-.02-.087-.048-.169-.077-.258h.186c.023.089.054.171.063.223h.006c.042-.111.148-.253.448-.253.488 0 .742.415.742.814 0 .275-.157.511-.491.511-.24 0-.374-.08-.48-.199h-.005L0 0zm.231-.699c.252 0 .357-.166.357-.377 0-.293-.171-.68-.545-.68-.283 0-.371.186-.371.402 0 .28.202.655.559.655" style="fill:#231f20;fill-opacity:1;fill-rule:nonzero;stroke:none" transform="translate(90.287 98.002)"/><path d="M0 0h.189l-.457-1.86h-.189L0 0z" style="fill:#231f20;fill-opacity:1;fill-rule:nonzero;stroke:none" transform="translate(93.024 98.002)"/><path d="M0 0h-.214l.051.208h.214L0 0zm-.283-.337h.189l-.309-1.265h-.188l.308 1.265z" style="fill:#231f20;fill-opacity:1;fill-rule:nonzero;stroke:none" transform="translate(92.157 97.745)"/></g></svg>