<svg xmlns="http://www.w3.org/2000/svg" width="2314.667" height="960" version="1.0" viewBox="0 0 1736 720"><path d="M8915 6469c-44-3-92-10-106-16-36-16-97-70-113-102-15-28-77-181-1051-2606-117-291-275-683-350-870s-251-623-390-970c-139-346-278-692-309-769-37-90-56-153-56-180 0-50 28-99 72-126 32-19 52-20 464-20h430l52 26c29 14 67 43 85 64 35 41 31 33 369 875 110 275 203 503 207 508 4 4 351 8 772 7 510 0 777 4 804 11 54 15 101 52 127 102 22 41 22 49 22 422 0 209-3 392-7 408-11 40-73 104-114 118-26 8-190 11-600 11-475 0-563 2-563 13 0 8 20 63 44 122 41 100 185 459 703 1748 113 281 251 625 308 765 56 140 105 269 108 286 13 70-42 157-107 169-42 8-701 11-801 4zM1069 6449c-20-12-44-35-54-51-32-54-23-109 48-283 36-88 207-513 380-945 174-432 406-1010 517-1285s202-504 203-510c1-7-199-12-578-15-523-5-583-7-611-22-43-24-82-72-89-111-3-18-5-208-3-424l3-391 31-38c16-21 48-47 70-58 38-21 52-21 824-24 431-1 787-6 791-10 3-4 80-189 169-412 370-921 374-931 407-970 18-21 56-50 85-64l52-26h430c412 0 432 1 464 20 65 40 88 119 58 200-7 19-133 334-281 700-147 366-340 847-430 1070-340 845-580 1442-778 1935-544 1353-640 1592-652 1615-18 34-62 74-110 99-39 20-52 21-475 21s-436-1-471-21zM2744 6460c-53-21-95-108-79-162 4-12 347-871 762-1908 416-1037 897-2240 1071-2673 291-725 319-792 356-829 79-79 66-78 551-78 411 0 432 1 475 21 50 23 105 70 126 111 15 29 54 125 419 1033 130 325 319 795 420 1045s290 721 420 1045c130 325 288 716 350 870 397 985 538 1342 542 1374 6 50-31 119-77 143-32 17-68 18-466 18h-432l-52-27c-29-16-65-44-81-63-17-21-128-284-284-675-276-686-537-1336-819-2037-97-241-255-635-352-875-96-241-178-441-182-445s-69 147-144 335c-140 348-398 991-753 1872-108 270-312 776-452 1125s-261 647-268 661c-19 35-90 98-131 115-27 11-116 14-466 13-238 0-442-4-454-9zM11990 6328c-20-57-151-432-160-458-8-25-138-398-165-475-8-22-15-43-15-47 0-5 46-8 103-8h102l34 110 34 110h365l37-110 37-110h104c57 0 104 3 104 7 0 7-46 140-237 678-46 132-92 261-101 288l-17 47h-213l-12-32zm183-388c31-102 59-193 62-202 7-17-3-18-128-18h-135l34 108c19 59 49 158 66 220 22 78 35 108 39 95 4-10 32-101 62-203zM12877 6079c-108-25-179-95-202-196l-7-33h170l19 37c23 49 53 63 131 63 57 0 67-3 93-29 33-33 38-71 12-93-25-21-41-25-146-42-136-23-193-42-239-84-49-45-68-85-68-149 0-70 16-115 52-153 52-52 109-73 203-72 93 0 143 17 185 62l29 31 11-40 11-41h94c93 0 107 4 83 28-8 8-12 90-13 270-2 254-3 260-27 314-30 65-72 100-147 122-59 17-182 20-244 5zm212-551c-42-59-154-86-218-53-33 17-41 33-41 85 0 48 29 74 109 96 31 8 81 23 111 32l55 17 3-73c2-62 0-77-19-104zM14116 6070c-66-26-128-89-163-164-25-54-28-72-28-166 0-92 3-112 26-160 55-118 142-180 264-188 84-5 134 8 188 50l37 30v-49c0-69-16-115-49-147-24-23-41-29-95-33-76-7-115 6-151 48-23 28-27 29-114 29-104 0-106-3-70-76 47-98 147-147 304-148 174-2 274 46 333 158l27 51 3 383 3 382h-191v-72l-39 35c-22 20-57 40-78 46-59 17-152 12-207-9zm234-152c107-54 131-238 44-329-60-62-168-64-229-4-97 98-60 309 60 344 50 15 78 12 125-11zM14975 6077c-94-32-154-83-180-156-25-71-25-71 68-71h82l20 37c25 47 56 63 125 63 64 0 99-15 119-52 12-21 13-31 3-52-15-33-37-41-156-61-236-38-313-102-304-254 5-91 35-139 113-177 48-23 69-27 138-27 94 0 144 17 187 63l29 31 11-40 11-41h190l-13 23c-9 15-13 98-15 280-3 236-5 262-24 307-25 59-49 82-114 111-62 28-227 37-290 16zm228-540c-24-42-94-77-153-77-55 0-109 30-111 62-5 80 18 108 109 133 31 9 82 24 112 33l55 17 3-68c2-52-1-76-15-100zM13725 6055c-22-13-51-41-65-61l-25-38-3 57-3 57h-179v-730h189l3 218c3 202 5 220 25 258 28 52 76 83 142 91l51 6v167h-47c-33 0-61-8-88-25zM15552 5783l3-288 31-54c23-42 43-62 85-85 48-27 63-31 134-31 70 0 86 4 128 28 26 16 53 37 60 48 18 29 27 23 27-21v-41l92 3 93 3v720l-97 3-98 3v-237c0-221-1-239-21-274-11-20-34-44-49-53-36-22-118-22-149-1-46 32-51 66-51 324v240h-191l3-287zM11651 4878c0-7 75-236 167-508l168-495 96-3 96-3 53 158c28 87 105 315 171 507 65 193 118 351 118 353s-47 3-104 3c-100 0-105-1-111-22-4-13-17-57-29-98-40-129-155-512-172-575l-18-60-14 50c-12 46-198 664-207 693-3 8-34 12-110 12-78 0-105-3-104-12zM13850 4380v-510h190v246l44 43 43 43 23-39c81-134 165-270 175-281 8-9 42-12 124-10l113 3-146 219c-80 120-146 221-146 225 0 3 58 67 129 141l128 135-111 3-111 3-132-138-132-138-1 283v282h-190v-510zM15410 4380v-510h198l1 236c0 211 2 239 18 267 41 69 118 94 188 61 60-28 65-53 65-323v-241h190l1 28c6 121 3 467-4 506-24 136-111 210-247 211-64 0-82-4-122-27-25-15-55-40-67-55l-20-28-1 60c-1 33-2 119-3 190l-2 130-97 3-98 3v-511zM12723 4600c-43-14-78-35-115-69-94-86-135-193-125-330 12-172 104-293 255-337 81-24 212-16 282 17 83 39 150 115 162 184 3 19-3 20-85 21-86 1-117-9-117-37 0-5-15-18-32-29-40-24-135-27-177-5-51 26-101 104-101 158 0 4 119 7 265 7h265v43c0 60-32 177-63 230-33 56-97 114-155 139-67 30-181 33-259 8zm205-157c36-27 59-62 67-100l7-33h-331l9 30c25 87 89 134 173 127 27-2 60-13 75-24zM14839 4607c-101-29-192-106-230-194-89-207-12-446 170-532 50-23 68-26 171-26 101 0 121 3 164 24 27 14 67 42 89 64 40 40 84 123 72 135-4 4-46 7-94 7-85 1-89 0-104-26-8-15-30-35-48-44-44-23-148-17-186 11-30 22-67 82-77 127l-6 27h530v48c0 102-51 232-117 298-76 76-224 112-334 81zm171-159c43-29 68-65 76-105l7-33h-162c-175 0-172-1-150 57 34 91 153 132 229 81zM13613 4591c-24-12-55-37-72-62l-31-42v113h-190v-730h188l4 213c3 205 4 214 28 256 34 61 67 82 137 90l58 6 3 79c2 57-1 82-10 87-22 14-71 10-115-10zM16536 4600c-33-10-80-52-107-95l-19-30v125h-190v-730h199l3 223c3 208 4 224 25 257 30 48 89 80 147 80h47l-3 88-3 87-35 2c-19 1-48-2-64-7z" style="fill:#006;fill-opacity:1" transform="matrix(.1 0 0 -.1 0 720)"/></svg>