<svg xmlns="http://www.w3.org/2000/svg" width="500" height="88.85" version="1.0"><defs><clipPath id="a" clipPathUnits="userSpaceOnUse"><path d="M0 2.09h4958v7012.49H0V2.09z"/></clipPath></defs><g clip-path="url(#a)" transform="matrix(.28977 0 0 -.28977 -809.293 216.497)"><path d="M2971.48 712.633c-10.34 0-22.18-6.629-27.87-16.473l-112.37-194.226c-3.92-6.75-5.22-13.864-1.99-19.477 2.98-5.156 8.5-7.43 15.18-7.43h248.76c10.31 0 21.61 6.731 27.33 16.61 0-.067.08.101 112.36 194.191 3.93 6.789 4.75 13.07 1.52 18.684-2.97 5.156-7.35 8.121-14.02 8.121" style="fill:#fff;fill-opacity:1;fill-rule:nonzero;stroke:none"/><path d="M2837.96 495.816c-3.93-6.753-1.61-12.3 5.19-12.3h249.52c6.78 0 15.49 5.547 19.44 12.3l113.46 196.168c3.93 6.766 1.6 12.27-5.17 12.27h-249.54c-6.79 0-15.49-5.504-19.4-12.27" style="fill:#d20019;fill-opacity:1;fill-rule:nonzero;stroke:none"/><path d="M3081.23 570.375h44.29c5.61 0 9.34 1.234 9.34 6.039 0 5.656-3.73 6.879-9.34 6.879h-44.29v-12.918zm0 30.094h43.71c4.77 0 7.57 1.75 7.57 6.457 0 4.773-2.8 6.512-7.57 6.512h-43.71v-12.969zm-25.91 32.867h72.42c20.66 0 30.71-8.121 30.71-21.754 0-13.621-5.26-16.961-12.5-19.016v-.328c11.32-1.398 15.54-7.336 15.54-19.832 0-18.183-10.98-21.945-25.83-21.945h-80.34M3021.02 600.504h-46.18l3.76 6.672c1.79 3.113 4.31 6.203 7.81 6.203h27.16c6.3-.309 7.45-3.988 7.45-8.43v-4.445zm1.43 33.976h-40.82c-10.35 0-18.52-5.167-24.33-15.335l-39.73-68.684h29.08l18.64 33.074c.17-.031.34-.125.53-.125h55.2v-32.949h24.44v59.664c0 13.484-7.16 24.355-23.01 24.355" style="fill:#fff;fill-opacity:1;fill-rule:nonzero;stroke:none"/><path d="m3313.17 581.227-16.81 34.793-17.28-34.793h34.09zm-26.48 45.996h20.5l36.59-74.45h-17.2l-7.84 16.27h-45.45L3265.33 553h-16.62M3388.31 560.664c10.29.133 16.47 5.715 17.58 15.926.13 1.09.16 2.23.16 3.34-.23 10.312-6.56 16.773-16.32 17.125-12.78.406-20.19-6.746-20.34-18.383-.1-11.047 6.83-18.168 18.92-18.008m-19.78 44.188.94-8.223h.09l.52.66c3.99 5.047 12.37 8.813 21.47 8.813 16.92.015 28.44-10.938 28.96-25.039a32.26 32.26 0 0 0-.26-5.567c-1.78-13.5-12.1-23.277-27.07-24.152-8.97-.492-16.46 2.258-21.09 6.844l-2.22 2.218h-.05l.05-25.824h-14.83l-.06 46.289.06 5.871c.03 5.008-.14 10.719-.64 18.11M3468.16 560.664c10.27.133 16.44 5.715 17.58 15.926.1 1.09.16 2.23.15 3.34-.24 10.312-6.56 16.773-16.33 17.125-12.76.406-20.18-6.746-20.29-18.383-.14-11.047 6.79-18.168 18.89-18.008m-19.8 44.188.96-8.223h.07l.53.66c3.97 5.047 12.36 8.813 21.49 8.813 16.88.015 28.41-10.938 28.96-25.039.04-1.899-.05-3.708-.29-5.567-1.76-13.5-12.08-23.277-27.07-24.152-8.97-.492-16.44 2.258-21.1 6.844l-2.19 2.218h-.06l.06-25.824h-14.83l-.07 46.289.07 5.871c.03 5.008-.15 10.719-.64 18.11M3560.03 584.137l-.37 2.113c-1.25 6.898-7.43 11.645-17.36 11.422-9.17-.145-14.83-4.524-16.39-11.547l-.46-1.988h34.58zm14.24-8.914h-49.06l.3-2.559c.91-7.687 7-12.719 18.04-12.684 8.13.032 12.42 2.731 14.02 6.704l.75 1.933h14.37l-.63-2.566c-2.22-9.246-11.33-15.426-29.31-15.266-21.05.149-31.62 9.844-31.71 27.461-.14 15.492 10.53 26.856 28.24 28.356 1.45.125 2.89.199 4.31.164 2.41-.016 4.81-.243 7.14-.684 15.94-2.914 22.84-11.051 23.39-26.918M3603.02 604.77l.71-9.407 1.9 1.957c5.43 5.422 11.8 8.274 18.54 8.473 15.63.598 24.73-7.746 25.48-21.625a25.4 25.4 0 0 0 .06-1.738l-.08-29.657h-14.45l.07 29.379c.01 9.289-4.48 13.793-13.77 13.969-9.7.141-15.69-5.074-17.55-15.832-.2-1.176-.3-2.351-.3-3.551V553h-14.83l-.07 28.063.07 6.054c.01 4.883-.13 10.379-.58 17.653M3663 565.785l28.9 24.258 4.54 3.371 2.19 1.617v.11l-6.81-.411c-2.34-.125-5.02-.167-8.11-.167l-18.5-.059v10.348h49.92v-12.594l-35.67-29.461.02-.086 6.94.258c3.19.117 6.54.183 10.24.183l19.27.036v-10.321H3663M3774.22 584.137l-.39 2.113c-1.25 6.898-7.41 11.645-17.36 11.422-9.16-.145-14.83-4.524-16.4-11.547l-.46-1.988h34.61zm14.21-8.914h-49.04l.31-2.559c.86-7.687 7.01-12.719 18.02-12.684 8.12.032 12.44 2.731 14.03 6.704l.75 1.933h14.33l-.57-2.566c-2.24-9.246-11.37-15.426-29.35-15.266-21.02.149-31.64 9.844-31.71 27.461-.11 15.492 10.57 26.856 28.26 28.356 1.44.125 2.89.199 4.33.164 2.39-.016 4.8-.243 7.13-.684 15.92-2.914 22.81-11.051 23.36-26.918M3802.98 553h14.918v74.223h-14.918V553zM3836.11 553h14.902v74.223h-14.902V553zM3914.71 584.137l-.37 2.113c-1.23 6.898-7.43 11.645-17.36 11.422-9.17-.145-14.8-4.524-16.35-11.547l-.48-1.988h34.56zm14.24-8.914h-49l.25-2.559c.91-7.687 7.04-12.719 18.1-12.684 8.07.032 12.4 2.731 13.97 6.704l.71 1.933h14.4l-.61-2.566c-2.23-9.246-11.34-15.426-29.33-15.266-21.06.149-31.61 9.844-31.69 27.461-.14 15.492 10.52 26.856 28.23 28.356 1.43.125 2.91.199 4.35.164 2.38-.016 4.76-.243 7.13-.684 15.91-2.914 22.79-11.051 23.33-26.918M3957.16 604.852l.52-10.547.05-.032 1.07 1.864c3.29 5.781 7.88 8.781 13.97 9.289 2.01.191 4.04.191 6.11-.008l2.8-.309v-11.546l-5.28.21c-12.42.532-18.15-4.98-18.15-17.168l.04-23.472h-14.94v31.719c0 3.289-.12 7.73-.54 15.566-.03 1.5-.14 2.977-.24 4.434M4070.33 597.09c8.77 0 12.87 3.406 13.12 8.82.31 5.93-4 9.629-14.41 9.602l-20.99-.032v-18.39h22.28zm5.83-32.195c1.5 0 2.95.293 4.25.89 4.09 1.891 6.32 5.938 5.88 9.828-.15.992-.41 1.899-.8 2.801-1.73 3.856-5.04 6.02-12.55 6.828-1.4.153-2.83.235-4.24.235l-20.7-.082V564.91l28.16-.015zm-44.02 62.671h36.02c4.64 0 9.55-.425 14.58-1.332 10.58-1.894 16.2-8 16.4-17.211.17-7.828-3.98-13.519-13.18-16.765l-2.25-.77v-.066l3.55-1.113c10.38-3.293 14.87-8.672 15.11-17.426.25-10.004-6.29-17.543-18.82-19.508-1.79-.273-3.55-.41-5.37-.41l-46.04.051M4160.03 578.328l-13.13.051c-2.75 0-5.48-.176-8.16-.508-6.25-.683-9.53-4.082-9.44-8.402.03-4.914 3.98-8.414 11.18-8.348 11.54.035 18.41 5.996 19.1 12.918l.45 4.289zm-.41 8.516-.17 1.898c-.41 6.215-4.87 9.91-13.22 9.895-9.08-.016-12.99-2.567-14.38-7.407l-.33-1.121h-13.84l.7 2.782c2.26 8.961 8.92 13.55 25.3 14.027 19.3.582 28.21-6.141 29.61-17.652.32-2.489.46-4.996.46-7.489v-28.91h-13.04l-.58 9.363-.07.008-.92-1.117c-5.16-6.18-11.62-9.027-22.62-9.062-13.93 0-21.8 7.48-21.85 17.16-.06 8.203 5.29 13.992 18.14 16.515 2.86.567 5.39.84 10.97 1.11 1.26.039 2.52.058 3.8.058M4191.72 627.332h14.94l-.09-32.191h.09l1.39 1.629c5.45 6.347 11.83 9.148 21.12 8.878 14.69-.398 22.46-8.425 23.07-23.871.08-2.355.11-4.605.11-6.929V553h-14.46l.04 29.629c.01 8.652-5.41 13.941-15.15 13.441-9.91-.566-15.88-7.343-15.92-20.39l-.02-22.664h-15.12M4284.48 604.77l.69-9.407 1.95 1.957c5.42 5.422 11.79 8.274 18.53 8.473 15.6.598 24.7-7.746 25.47-21.625.04-.582.05-1.164.05-1.738l-.05-29.657h-14.48l.07 29.379c.02 9.289-4.45 13.793-13.76 13.969-9.68.141-15.68-5.074-17.56-15.832a22.16 22.16 0 0 1-.3-3.551V553h-14.82l-.05 28.063.05 6.054c.02 4.883-.17 10.379-.56 17.653M4394.31 584.137l-.41 2.113c-1.22 6.898-7.43 11.645-17.34 11.422-9.19-.145-14.85-4.524-16.43-11.547l-.44-1.988h34.62zm14.19-8.914h-49.03l.29-2.559c.91-7.687 7-12.719 18.03-12.684 8.11.032 12.44 2.731 14.01 6.704l.77 1.933h14.33l-.56-2.566c-2.22-9.246-11.36-15.426-29.36-15.266-21.01.149-31.62 9.844-31.69 27.461-.14 15.492 10.53 26.856 28.23 28.356 1.45.125 2.88.199 4.31.164 2.43-.016 4.82-.243 7.17-.684 15.93-2.914 22.81-11.051 23.35-26.918M4437.23 604.77l.75-9.407 1.9 1.957c5.43 5.422 11.78 8.274 18.53 8.473 15.59.598 24.71-7.746 25.49-21.625.02-.582.03-1.164.03-1.738l-.06-29.657h-14.44l.05 29.379c.03 9.289-4.45 13.793-13.74 13.969-9.7.141-15.67-5.074-17.58-15.832-.17-1.176-.31-2.351-.31-3.551V553h-14.8l-.05 28.063.05 6.054c0 4.883-.14 10.379-.6 17.653" style="fill:#646567;fill-opacity:1;fill-rule:nonzero;stroke:none"/></g></svg>