<svg xmlns="http://www.w3.org/2000/svg" width="126" height="88"><defs><linearGradient id="a" x1="100.001%" x2=".001%" y1="49.995%" y2="49.995%"><stop offset="0%" stop-color="#FFD400"/><stop offset="12.68%" stop-color="#FFD000"/><stop offset="30.2%" stop-color="#FDC400"/><stop offset="50.54%" stop-color="#F9AE00"/><stop offset="73%" stop-color="#F28D00"/><stop offset="96.94%" stop-color="#EB6000"/><stop offset="100%" stop-color="#EA5901"/></linearGradient><linearGradient id="b" x1=".001%" x2="100.002%" y1="49.999%" y2="49.999%"><stop offset="0%" stop-color="#EF7C00"/><stop offset="36.04%" stop-color="#F07E00"/><stop offset="57.14%" stop-color="#F18500"/><stop offset="74.39%" stop-color="#F39100"/><stop offset="89.46%" stop-color="#F6A100"/><stop offset="100%" stop-color="#F9B000"/></linearGradient><linearGradient id="c" x1="0%" x2="100.002%" y1="49.997%" y2="49.997%"><stop offset="0%" stop-color="#FFED00"/><stop offset="100%" stop-color="#FC0"/></linearGradient></defs><g fill="none" fill-rule="nonzero"><path fill="url(#a)" d="M0 29.702v25.72s0 2.52 5.031 2.52h109.412c5.03 0 5.03 2.52 5.03 2.52V40.307s0-2.52-5.03-2.52L5.027 32.222C1.26 32.222 0 29.702 0 29.702"/><path fill="url(#b)" d="M115.077 43.813c-2.941.623-78.346 16.68-108.79 23.165v20.609c30.444-6.48 105.849-22.538 108.79-23.165 4.397-.938 4.397-3.51 4.397-3.51v-20.61s0 2.582-4.397 3.511Z"/><path fill="url(#c)" d="M0 29.658v25.76s0-2.578 4.397-3.511l121.363-25.84V.307S6.761 25.644 4.348 26.156C0 27.076 0 29.658 0 29.658"/><path fill="#FFF" d="m14.827 72.524-2.347.498.014-1.604 6.672-1.422-.013 1.604-2.347.498.009 7.48-1.979.422zM24.93 77.991c-2.348.498-4.353-.622-4.726-3.009-.461-2.964 1.238-5.6 4.042-6.195 2.44-.52 4.384.653 4.756 3.04.47 3-1.242 5.564-4.073 6.164Zm-.484-7.618c-1.753.36-2.498 2.25-2.21 4.116.222 1.44 1.198 2.195 2.556 1.907 1.712-.365 2.458-2.187 2.165-4.08-.204-1.33-1.065-2.24-2.511-1.943ZM30.852 67.511l2.866-.609c1.895-.404 3.15.245 3.394 1.791.338 2.165-1.025 3.485-3.03 3.911l-1.264.272v3.302l-1.97.418.004-9.085Zm2.977 3.707c1.092-.231 1.589-.925 1.429-1.956-.116-.738-.621-1.009-1.522-.818l-.923.196-.004 2.796 1.02-.218ZM46.85 73.324c-2.346.498-4.352-.622-4.724-3.008-.462-2.965 1.238-5.6 4.041-6.196 2.44-.52 4.384.653 4.757 3.04.47 3-1.243 5.564-4.073 6.164Zm-.483-7.617c-1.752.36-2.498 2.249-2.21 4.115.223 1.44 1.199 2.196 2.556 1.907 1.713-.365 2.458-2.187 2.165-4.08-.208-1.329-1.065-2.24-2.51-1.942ZM52.774 62.84l5.576-1.187-.013 1.618-3.607.769.009 2.4 2.857-.609-.009 1.551-2.857.609.009 3.516-1.97.417zM63.772 60.502l5.626-1.2v1.6l-3.669.782.004 2.12 2.955-.631.009 1.498-2.955.631-.013 2.262 3.899-.831v1.6l-5.856 1.249zM71.323 64.178l.005-5.285 1.978-.422-.009 5.338c-.004 1.578.56 2.129 1.775 1.871 1.105-.236 1.522-.947 1.526-2.369l.005-5.538 1.978-.422-.008 5.742c.004 2.276-1.008 3.694-3.292 4.183-2.463.52-3.962-.48-3.958-3.098ZM80.746 56.884l3.026-.644c1.908-.404 3.15.231 3.377 1.76.24 1.524-.573 2.6-1.77 3.133l2.404 3.338-2.028.431-2.182-3.04-.874.187.004 3.502-1.957.418v-9.085Zm3.11 3.52c1.048-.222 1.544-.8 1.39-1.795-.103-.742-.617-.973-1.47-.791l-1.069.226-.008 2.605 1.158-.245ZM93.449 63.404c-2.347.498-4.353-.622-4.725-3.008-.462-2.965 1.237-5.6 4.041-6.196 2.44-.52 4.384.653 4.756 3.04.47 3-1.242 5.56-4.072 6.164Zm-.484-7.622c-1.753.36-2.498 2.25-2.21 4.116.222 1.44 1.198 2.195 2.556 1.906 1.713-.364 2.458-2.186 2.165-4.08-.204-1.328-1.065-2.235-2.511-1.942ZM99.376 52.92l2.866-.609c1.894-.404 3.15.245 3.394 1.791.337 2.165-1.025 3.485-3.03 3.911l-1.265.271v3.303l-1.97.417.005-9.084Zm2.972 3.711c1.092-.231 1.589-.924 1.429-1.955-.115-.738-.621-1.014-1.522-.818l-.923.195-.004 2.796 1.02-.218ZM107.344 51.222l5.626-1.2v1.6l-3.669.782.004 2.12 2.955-.631.009 1.498-2.955.631-.013 2.262 3.899-.831v1.6l-5.856 1.249z"/><path fill="#000" d="m18.057 39.049.018-10.249-3.181.68-.005 10.08c.01 1.489-.66 2.227-1.814 2.471-.821.173-1.42.076-1.944-.035l.005 2.493c.51.155 1.3.315 2.804-.005 2.56-.542 4.126-2.266 4.117-5.435m14.264-4.036.013-9.244-3.185.675-.005 8.916c-.004 2.293-.674 3.436-2.453 3.813-1.952.418-2.857-.475-2.849-3.013l.014-8.591-3.181.68-.005 8.507c-.009 4.213 2.4 5.826 6.367 4.982 3.664-.778 5.288-3.067 5.284-6.725M46.7 37.324V22.707l-2.853.609-.013 9.63-5.235-8.515-3.692.787-.004 14.622 2.853-.609-.01-10.404 5.768 9.177 3.186-.68Zm9.086-7.35 3.186-.68c-.16 1.964-.888 3.275-3.142 3.755-2.364.502-3.62-.782-3.953-3.187-.421-3.058.675-5.99 3.408-6.573 1.717-.365 2.861.209 3.243 1.782l3.021-.644c-.656-3.44-3.39-4.37-6.517-3.703-4.472.952-6.744 5.156-6.105 9.787.541 3.933 2.99 5.929 7.17 5.036 4.356-.93 6.144-3.907 5.763-9.285l-6.02 1.285-.054 2.426Zm17.494-10.33.017-2.6-9.086 1.934-.004 14.618 3.163-.676-.013-5.662 4.711-1.005.014-2.497-4.712 1.004-.018-3.862 5.928-1.254Zm9.911-.39c.249 1.604-.985 2.622-2.662 2.977l-2.103.449.013-4.196 1.966-.417c1.366-.294 2.6-.103 2.786 1.186m2.933-.955c-.364-2.458-2.667-3.418-5.732-2.765l-5.107 1.09-.004 14.617 3.145-.671-.009-5.485 1.504-.32 3.408 4.76 3.26-.693-3.757-5.24c1.92-.858 3.673-2.835 3.292-5.293M96 21.227l-3.674.782 1.628-6.667L96 21.227Zm1.832 5.213 3.243-.689L96.057 12.2l-4.427.942-4.104 15.494 3.354-.716.825-3.427 5.058-1.075 1.069 3.022Zm15.355-17.889-3.181.68-.004 8.916c-.005 2.293-.675 3.435-2.454 3.813-1.952.418-2.857-.476-2.848-3.013l.013-8.591-3.181.68-.004 8.506c-.01 4.214 2.4 5.827 6.366 4.982 3.674-.782 5.293-3.07 5.289-6.728l.004-9.245Z"/></g></svg>