<svg xmlns="http://www.w3.org/2000/svg" width="500" height="213.77" version="1.0"><defs><clipPath id="l" clipPathUnits="userSpaceOnUse"><path d="M-11.081 1.816H1.338v-20.769h-12.419v20.77z"/></clipPath><clipPath id="k" clipPathUnits="userSpaceOnUse"><path d="M-11.081 1.815H1.337v-20.768h-12.418V1.815z"/></clipPath><clipPath id="j" clipPathUnits="userSpaceOnUse"><path d="M-.193 1.299h1.4v-1.3h-1.4v1.3z" clip-rule="evenodd"/></clipPath><clipPath id="i" clipPathUnits="userSpaceOnUse"><path d="M0-1.898h1V1H0v-2.898z"/></clipPath><clipPath id="h" clipPathUnits="userSpaceOnUse"><path d="M-11.081-18.953H1.338v20.77h-12.42v-20.77z"/></clipPath><clipPath id="g" clipPathUnits="userSpaceOnUse"><path d="M842 36.956h841.92v595.32H842V36.956z"/></clipPath><clipPath id="f" clipPathUnits="userSpaceOnUse"><path d="M842 37h841.89v595.276H842V37z"/></clipPath><clipPath id="e" clipPathUnits="userSpaceOnUse"><path d="M1580.116 51.787h95.001v37.24h-95.001v-37.24z" clip-rule="evenodd"/></clipPath><clipPath id="d" clipPathUnits="userSpaceOnUse"><path d="M842 36.956h841.92v595.32H842V36.956z"/></clipPath><clipPath id="c" clipPathUnits="userSpaceOnUse"><path d="M0 595.32h841.92V0H0v595.32z"/></clipPath><clipPath id="b" clipPathUnits="userSpaceOnUse"><path d="M0 595.276h841.89V0H0v595.276z"/></clipPath><clipPath id="a" clipPathUnits="userSpaceOnUse"><path d="M738.116 580.489h95.001v-37.24h-95.001v37.24z" clip-rule="evenodd"/></clipPath></defs><g clip-path="url(#a)" transform="matrix(7.08034 0 0 -7.08034 -5308.968 4059.405)"><g clip-path="url(#b)"><g clip-path="url(#c)"><g clip-path="url(#d)" transform="matrix(1 0 0 -1 -842 632.275)"><g clip-path="url(#e)"><g clip-path="url(#f)"><g clip-path="url(#g)"><g clip-path="url(#h)" transform="matrix(67.7934 0 0 -28.6636 1593.231 89.016)"><g clip-path="url(#i)"><g clip-path="url(#j)"><g clip-path="url(#k)"><g clip-path="url(#l)"><path d="m.632.271.204.727H.001V.27" style="fill:#c3181e;fill-opacity:1;fill-rule:nonzero;stroke:none"/><path d="M.373.801c.014.041.025.105.08.105h.185L.604.786H.449C.443.785.435.775.43.755h.164L.56.63H.325L.373.8" style="fill:#fff;fill-opacity:1;fill-rule:nonzero;stroke:none"/><path d="M.879.581v.415L.725.45h.117L.792.27h.205V1" style="fill:#378754;fill-opacity:1;fill-rule:nonzero;stroke:none"/><path d="M.045.154C.044.164.042.181.03.181.024.181.014.171.014.127.014.099.019.073.03.073c.008 0 .013.01.015.03h.014C.056.069.047.045.03.045S0 .073 0 .127c0 .054.013.082.03.082C.05.21.058.177.06.154M.112.05H.099v.07c0 .008 0 .022-.008.022C.085.142.08.133.08.115V.05H.068v.156H.08V.15c.001.01.007.018.014.018.01 0 .017-.013.017-.039M.152.119c0 .018-.005.024-.01.024S.134.133.133.119h.02zM.165.083C.162.055.152.046.144.046.13.046.119.062.119.11c0 .014.002.059.024.059.01 0 .023-.011.023-.064V.1H.132C.132.09.133.07.144.07.147.07.15.075.152.083h.013M.244.05H.23v.07C.23.136.227.141.224.141.217.142.215.132.215.12v-.07H.202v.07c0 .01 0 .023-.008.023C.188.142.186.132.186.12V.05H.174v.115h.012V.148c.002.007.005.02.014.02.007 0 .01-.006.014-.019.001.006.005.019.013.019.01 0 .017-.013.017-.039M.255.165h.013V.049H.255v.116zm.013.013H.255v.029h.013V.178M.324.05H.31v.07c0 .008 0 .022-.008.022-.006 0-.01-.009-.01-.027V.05H.28v.116h.012V.148c.002.007.006.02.015.02.01 0 .017-.013.017-.039M.363.13c0 .007-.002.015-.009.015C.347.145.346.138.346.133c0-.018.031-.005.031-.047 0-.034-.014-.04-.021-.04-.011 0-.023.01-.024.04h.013C.345.076.348.07.356.07c.007 0 .008.008.008.012 0 .02-.03.005-.03.048 0 .017.004.039.02.039.01 0 .02-.006.022-.038M.432.071c.008 0 .011.016.011.033 0 .019-.002.038-.01.038C.423.142.42.124.42.106c0-.014.003-.035.01-.035zM.456.05H.443v.015C.44.05.434.046.429.046c-.015 0-.02.03-.02.062 0 .04.009.06.02.06C.436.168.44.158.441.15v.055h.014V.049M.496.119C.495.137.49.143.486.143.48.143.476.133.476.119h.02zM.508.083C.505.055.495.046.487.046.473.046.463.062.463.11c0 .014.002.059.023.059.01 0 .023-.011.023-.064V.1H.475C.475.09.477.07.487.07c.004 0 .007.004.008.012h.013M.557.05H.544v.093H.537v.022h.007v.009c0 .024.006.033.014.033h.007V.182H.561C.557.182.557.18.557.17V.165h.008V.143H.557M.6.119C.6.137.596.143.59.143S.582.133.58.119H.6zM.614.083C.61.055.6.046.592.046.578.046.567.062.567.11c0 .014.002.059.024.059C.6.168.614.157.614.104V.1H.58C.58.09.581.07.592.07.595.07.599.075.6.083h.013M.622.165h.012v-.02C.637.156.64.168.648.168H.65V.136H.646C.636.137.635.122.635.109V.05H.622M.703.071c.008 0 .011.016.011.033 0 .019-.002.038-.01.038C.694.142.691.124.691.106c0-.014.003-.035.01-.035zM.727.05H.714v.015C.71.05.705.046.7.046c-.015 0-.02.03-.02.062 0 .04.009.06.02.06.008 0 .012-.01.014-.018v.055h.013V.049M.782.05H.769v.016C.766.053.761.046.754.046.744.046.738.06.738.09v.076H.75V.093C.75.075.755.072.76.072c.004 0 .01.006.01.026v.067h.013M.857.094C.857.061.849.045.837.045.813.045.813.078.813.108h.013c0-.024 0-.036.008-.036.007 0 .008.01.008.022v.111h.014M.91.05H.9v.016C.894.053.89.046.883.046.874.046.867.06.867.09v.076H.88V.093C.88.075.884.072.888.072s.01.006.01.026v.067h.013M.922.165h.013v-.02C.937.156.94.168.948.168h.003V.136H.947C.937.137.935.122.935.109V.05H.922M.985.106C.983.103.98.1.975.099.972.097.968.094.968.082c0-.01.004-.014.006-.014.006 0 .012.009.012.023v.015zM.997.072C.997.058.998.055 1 .054V.049H.986L.985.063C.982.056.978.046.969.046.962.046.954.056.954.08c0 .022.006.034.015.037L.98.12C.982.12.985.124.985.13c0 .013-.006.013-.009.013C.97.143.97.134.968.127H.956c.001.036.012.04.022.04.007 0 .02-.004.02-.033V.072" style="fill:#211f1e;fill-opacity:1;fill-rule:nonzero;stroke:none"/><path d="M.045.154C.044.164.042.181.03.181.024.181.014.171.014.127.014.099.019.073.03.073c.008 0 .013.01.015.03h.014C.056.069.047.045.03.045S0 .073 0 .127c0 .054.013.082.03.082C.05.21.058.177.06.154M.112.05H.099v.07c0 .008 0 .022-.008.022C.085.142.08.133.08.115V.05H.068v.156H.08V.15c.001.01.007.018.014.018.01 0 .017-.013.017-.039M.152.119c0 .018-.005.024-.01.024S.134.133.133.119h.02zM.165.083C.162.055.152.046.144.046.13.046.119.062.119.11c0 .014.002.059.024.059.01 0 .023-.011.023-.064V.1H.132C.132.09.133.07.144.07.147.07.15.075.152.083h.013M.244.05H.23v.07C.23.136.227.141.224.141.217.142.215.132.215.12v-.07H.202v.07c0 .01 0 .023-.008.023C.188.142.186.132.186.12V.05H.174v.115h.012V.148c.002.007.005.02.014.02.007 0 .01-.006.014-.019.001.006.005.019.013.019.01 0 .017-.013.017-.039M.255.165h.013V.049H.255v.116zm.013.013H.255v.029h.013V.178M.324.05H.31v.07c0 .008 0 .022-.008.022-.006 0-.01-.009-.01-.027V.05H.28v.116h.012V.148c.002.007.006.02.015.02.01 0 .017-.013.017-.039M.363.13c0 .007-.002.015-.009.015C.347.145.346.138.346.133c0-.018.031-.005.031-.047 0-.034-.014-.04-.021-.04-.011 0-.023.01-.024.04h.013C.345.076.348.07.356.07c.007 0 .008.008.008.012 0 .02-.03.005-.03.048 0 .017.004.039.02.039.01 0 .02-.006.022-.038M.432.071c.008 0 .011.016.011.033 0 .019-.002.038-.01.038C.423.142.42.124.42.106c0-.014.003-.035.01-.035zM.456.05H.443v.015C.44.05.434.046.429.046c-.015 0-.02.03-.02.062 0 .04.009.06.02.06C.436.168.44.158.441.15v.055h.014V.049M.496.119C.495.137.49.143.486.143.48.143.476.133.476.119h.02zM.508.083C.505.055.495.046.487.046.473.046.463.062.463.11c0 .014.002.059.023.059.01 0 .023-.011.023-.064V.1H.475C.475.09.477.07.487.07c.004 0 .007.004.008.012h.013M.557.05H.544v.093H.537v.022h.007v.009c0 .024.006.033.014.033h.007V.182H.561C.557.182.557.18.557.17V.165h.008V.143H.557M.6.119C.6.137.596.143.59.143S.582.133.58.119H.6zM.614.083C.61.055.6.046.592.046.578.046.567.062.567.11c0 .014.002.059.024.059C.6.168.614.157.614.104V.1H.58C.58.09.581.07.592.07.595.07.599.075.6.083h.013M.622.165h.012v-.02C.637.156.64.168.648.168H.65V.136H.646C.636.137.635.122.635.109V.05H.622M.703.071c.008 0 .011.016.011.033 0 .019-.002.038-.01.038C.694.142.691.124.691.106c0-.014.003-.035.01-.035zM.727.05H.714v.015C.71.05.705.046.7.046c-.015 0-.02.03-.02.062 0 .04.009.06.02.06.008 0 .012-.01.014-.018v.055h.013V.049M.782.05H.769v.016C.766.053.761.046.754.046.744.046.738.06.738.09v.076H.75V.093C.75.075.755.072.76.072c.004 0 .01.006.01.026v.067h.013M.857.094C.857.061.849.045.837.045.813.045.813.078.813.108h.013c0-.024 0-.036.008-.036.007 0 .008.01.008.022v.111h.014M.91.05H.9v.016C.894.053.89.046.883.046.874.046.867.06.867.09v.076H.88V.093C.88.075.884.072.888.072s.01.006.01.026v.067h.013M.922.165h.013v-.02C.937.156.94.168.948.168h.003V.136H.947C.937.137.935.122.935.109V.05H.922M.985.106C.983.103.98.1.975.099.972.097.968.094.968.082c0-.01.004-.014.006-.014.006 0 .012.009.012.023v.015zM.997.072C.997.058.998.055 1 .054V.049H.986L.985.063C.982.056.978.046.969.046.962.046.954.056.954.08c0 .022.006.034.015.037L.98.12C.982.12.985.124.985.13c0 .013-.006.013-.009.013C.97.143.97.134.968.127H.956c.001.036.012.04.022.04.007 0 .02-.004.02-.033V.072" style="fill:#211f1e;fill-opacity:1;fill-rule:nonzero;stroke:none"/><path d="M.691.906h.074L.731.786H.657M.638.456C.608.346.571.343.532.343L.65.755h.074l-.085-.3" style="fill:#fff;fill-opacity:1;fill-rule:nonzero;stroke:none"/></g></g></g></g></g></g></g></g></g></g></g></g></svg>