<svg xmlns="http://www.w3.org/2000/svg" viewBox="0 0 255.16 180.78"><defs><style>.a{fill:#164c7b}.b{fill:#e52713}</style></defs><path d="M141.81 42.76h46a4.25 4.25 0 0 0 0-8.5h-46a4.25 4.25 0 0 0 0 8.5Z" class="a"/><path d="M41.41 175.17a4.93 4.93 0 0 1-5 4.91h-2.86a5 5 0 0 1-4.28-2.38l-16-26.1a60.83 60.83 0 0 1-4.07-8.06l-.15.06a55 55 0 0 1 .71 8.7v22.87a4.88 4.88 0 1 1-9.76 0v-40.89a4.94 4.94 0 0 1 5-4.91h2.65a4.76 4.76 0 0 1 4.28 2.45l16 26a59.91 59.91 0 0 1 4.07 8.23l.14-.07a67.12 67.12 0 0 1-.63-8.84v-22.86a4.95 4.95 0 0 1 9.89 0ZM77.21 180.71c-9.75 0-16.7-3.51-21-8.21a5 5 0 0 1-1.13-3.22 4.26 4.26 0 0 1 4.57-4.35 4.58 4.58 0 0 1 3.3 1.68 19.15 19.15 0 0 0 14.24 5.82c6.88 0 11.38-3.29 11.38-7.29 0-3.09-2-5.26-8.22-6.45-2.73-.49-7.16-1.06-10.39-1.76-9.61-2.17-13.75-7.22-13.75-14 0-8.41 8.14-14.24 21-14.24 6.6 0 12.64 1.76 16.78 4.77a5.19 5.19 0 0 1 2.46 4.28 4.21 4.21 0 0 1-4.21 4.14c-1.34 0-2.18-.49-3.72-1.54a19.45 19.45 0 0 0-10.88-3.51c-8.5 0-11.52 3.3-11.52 6 0 2.53 1.76 4.49 6.11 5.4 2.6.57 10.25 1.76 12.21 2.11 9.34 1.61 14.18 6.52 14.18 14.38 0 9.96-8.14 15.99-21.41 15.99ZM126.28 150.41v17.11c0 3.09 1.48 4.7 3.93 4.7 3.51 0 3.93-3 6.74-3a4 4 0 0 1 4.07 4.14c0 5-7.44 7.15-10.81 7.15-8.21 0-13.19-5.4-13.19-14v-16.1h-5.41a4 4 0 1 1 0-8H117v-9.19a4.63 4.63 0 0 1 9.26 0v9.19h7.93a4 4 0 0 1 0 8ZM197.6 141.92a4.18 4.18 0 0 1-4.14 4.28c-3.16 0-3.72-2.38-6.11-4.77-2.67-2.67-6-4.28-11.51-4.28-9.2 0-15.79 7.65-15.79 17.54s6.59 17.74 15.79 17.74c8.07 0 11.86-5.4 13.9-7.78a4.43 4.43 0 0 1 3.44-1.69 4.29 4.29 0 0 1 4.35 4.35 5.25 5.25 0 0 1-.91 3.09c-4.5 6.52-12 10.38-20.78 10.38a26.06 26.06 0 0 1 0-52.12c4.77 0 12.14 1.06 17.62 6.53.7.7 4.14 4.07 4.14 6.73ZM255.16 175.17a4.94 4.94 0 0 1-5 4.91 4.87 4.87 0 0 1-4.85-4.91v-21.75a57.92 57.92 0 0 1 .56-8.34l-.14-.07a46.71 46.71 0 0 1-2.73 6.73l-6.32 12.63a3.94 3.94 0 0 1-3.65 2.52 4 4 0 0 1-3.93-2.52l-6.32-12.63a47.94 47.94 0 0 1-2.74-6.73l-.14.07a58.65 58.65 0 0 1 .5 8.34v21.82a4.63 4.63 0 0 1-4.64 4.84 4.57 4.57 0 0 1-4.56-4.84v-41a4.88 4.88 0 0 1 4.91-4.91h2.32a4.53 4.53 0 0 1 4.14 2.59l8.21 17.4a54.16 54.16 0 0 1 2.25 6.1h.14a48.32 48.32 0 0 1 2.18-6.1l8-17.4a4.51 4.51 0 0 1 4.14-2.59h2.74a4.88 4.88 0 0 1 4.91 4.91Z" class="b"/><path d="M141.81 69.59h46a4.25 4.25 0 0 0 0-8.5h-46a4.25 4.25 0 0 0 0 8.5Z" class="a"/><path d="M89.94 103.85h.26a3.73 3.73 0 0 0 3.57-3.74 3.78 3.78 0 0 0-3.71-3.76 44.42 44.42 0 1 1 31.43-75.75c.79.79 1.57 1.64 2.38 2.59a1.79 1.79 0 0 0 .67.5 3.68 3.68 0 0 0 2 .61 3.73 3.73 0 0 0 3.74-3.73 3.69 3.69 0 0 0-.83-2.35 2 2 0 0 0-.22-.29l-2.54-2.74a51.92 51.92 0 1 0-36.77 88.67Z" class="b"/><path d="M113.15 71a4.18 4.18 0 0 0 4.17-4.18V37a4.18 4.18 0 1 0-8.32 0v29.85a4.18 4.18 0 0 0 4.15 4.15ZM66.3 71a4.18 4.18 0 0 0 4.17-4.18V37a4.18 4.18 0 1 0-8.35 0v29.85A4.18 4.18 0 0 0 66.3 71ZM89.72 71a4.18 4.18 0 0 0 4.18-4.18V37a4.18 4.18 0 1 0-8.35 0v29.85A4.18 4.18 0 0 0 89.72 71Z" class="b"/><path d="m125.64 85.94 2.54 2.74A51.92 51.92 0 1 0 164.83 0a3.74 3.74 0 0 0-.54 7.44 2 2 0 0 0 .54.07 44.42 44.42 0 1 1-31.44 75.75c-.78-.77-1.56-1.62-2.38-2.6a1.89 1.89 0 0 0-.57-.44 3.62 3.62 0 0 0-2.11-.67 3.74 3.74 0 0 0-3.74 3.73 3.63 3.63 0 0 0 .76 2.24 1.57 1.57 0 0 0 .29.42Z" class="a"/></svg>