<svg xmlns="http://www.w3.org/2000/svg" xml:space="preserve" id="layer" width="207.6" height="499.8" x="0" y="0" version="1.1"><style id="style2" type="text/css">.st0{fill-rule:evenodd;clip-rule:evenodd;fill:#1c47a0}</style><path id="path4" d="M68.1 205.9c-.5-.6-1-1-1.6-1.8-.2-2.1-.2-2.1.2-3.4 1.6-2.7 3.2-5.5 4.9-8.3 1-1.3 2-2.5 3.2-3.9.3-.7.7-1.5 1.1-2.1 7.3-8.9 9.1-11.6 12.9-16.1 2.5-3.4 5-7 7.3-10.4 1-.9 6.9-9.3 10.7-13.9 2.5-3.6 4.9-7 7.4-10.7 2.4-2.9 4.6-5.9 7-8.9 3.2-3.4 6.3-7.1 9.4-10.7 1.3-1.8 2.4-3.5 3.7-5.3 3.5-3.4 5.4-5.7 6.2-6.6.3-.7 1.4-1.6 3.3-3.9 1.9-1.8 9.7-11.1 10.8-11.9 1.7-2.2 3.5-3.9 4.5-5.2 2-1.8 2.1-2.3 3.2-3.2.4-.5.4-.5 15.8-15.7 2.6-2.5 5.6-5 8.4-7.5 2.1-1.4 4.3-3 6.6-4.6.4 0 .7 0 1.1-.2.1.2.3.3.5.6-.2.9-.4 1.9-.5 3-1.8 2.2-10 9.7-25.2 25.4-11.2 12.8-14.8 17.5-33.5 39.5l-2.1 2.1c-3.7 5.1-3.7 5.1-11.1 13.9-18.4 25.6-18.4 25.6-22.1 30.2-5 7.7-9.8 15.3-14.8 23.2-1.8 3.6-3.7 6.9-5.7 10.5-.5.5-1.3 1.1-1.9 1.8-.9 0-2 0-3.1.1-.7.7-1.4 1.4-2.1 2.2-3.4 1.6-3.4 1.6-4.5 1.8M3.9 280.5c-.6-.5-1.2-1-1.5-1.6-.5-.2-1.3-.4-1.9-.7v-1.3c6.9-10.7 6.9-10.7 7.3-10.9.4-1.3.4-1.3 3.7-6.9.4-.1.4-.1 3.6-5.3 2.8-3.7 5.9-7.3 9-11 1.9-3.2 4.1-6.3 6.4-9.5 1.7-2.1 3.3-4.3 5.2-6.6 4.6-7 4.9-7.1 6.5-10.2 3.7-4.7 3.7-4.7 4.6-5.6v-1c-.1-.2-.5-.6-.9-.9-4.3 0-8.4-.2-12.8-.4-.6.5-1.5 1.3-2.3 2-5.2 5.7-10.2 11.6-15.2 17.3-3.8 4.6-7.5 9.7-11.4 14.5-.3 0-.8 0-1.1.2-.2-.7.1-2.2.1-6.4 3.9-4.9 14.1-18.4 14.6-19.8 1.1-.9 2.2-2.2 3.4-3.4 1.6-2.9 1.6-2.9 2.7-4.1 0-.2 0-.5-.2-.7-.2-.1-.6-.4-.9-.5-3.9 0-7.7-.2-11.7-.4-5.9-.7-5.9-.7-6.9-1.1-.4-.7-.4-.7-.7-2.3.2-.6.6-1.3 1-2 1.8-.9 1.8-.9 4-1.4h10.2v-1.1h-3c-4.3-.7-8.4-1.4-12.7-2.1 0-.2-.2-.4-.4-.7.6-2.9.6-2.9 1.6-5.2 0-.4 0-.9-.1-1.4-1.1-.9-1.1-.9-1.5-1.6v-1.1l1.2-1.2h1.7c2 .7 3.9 1.4 5.9 2.3 7 .3 7 .3 25 .5 1.3 0 2.7-.2 4.1-.4 7.7.2 15.3.4 23.1.5 1.6.9 1.6.9 2.3 1.8 0 1.4 0 2.8-.1 4.4-1.2 1.4-1.2 1.4-3.5 3.4-5.3 1.5-5.3 1.5-7 2.3-2 0-4 0-6-.2 0 0-.1.2-.3.4 0 .2.1.4.3.7 1.3.7 2.5 1.4 4 2.3 1.4 0 2.9.2 4.1.3 2.2.4 4.5.9 6.7 1.5.1.2.2.4.4.5 0 .5 0 1.1.1 1.8-.5.4-1 .9-1.7 1.4-2.9 0-5.7 0-8.4.2-.3.4-.8.7-1.2 1-1.5 2.5-3.1 5-4.7 7.7-1.4 1.8-3 3.6-4.8 5.4 0 .7.1 1.4.3 2.3-2.5 2.9-5 5.7-7.7 8.8-2.4 3.6-4.8 7.1-7.3 10.9-3.8 4.3-3.8 4.3-5.5 7.1-2.6 3.2-5 6.6-7.5 10-7.6 11.5-7.6 11.5-9.3 14.5-.8.7-1.5 1.6-2.2 2.5 0 .1-.4.3-.7.5" class="st0"/><path id="path6" d="M50.4 184.9c-10.4-.4-21.1-.9-31.8-1.5-.7-.1-1.5-.5-2.4-.9v-1.3c2.7-3.7 2.7-3.7 4.3-5.4 4.3-.3 4.3-.3 31.6-.3.9-.8.9-.8 1.4-1.7.4-1.8.9-3.5 1.5-5.2.8-1.1 1.5-2.4 2.6-3.6 1.3-3.4 2.7-6.9 4.2-10.3 1.2-4.1 2.3-8 3.6-12.2.7-.7 1.4-1.4 2.1-2.3.4 0 .8 0 1.4.2 0 1.1 0 2.1-.2 3.4-5.9 18.9-9.5 29-10.4 32.6.4 1.1.4 1.1.5 3.9-.1.9-.5 1.8-.9 2.8-.4.4-.7.8-1.3 1.3-1.7.4-3.8.4-6.2.5" class="st0"/><path id="path8" d="M1.3 182.5c-.1-.2-.4-.4-.7-.6-.2-1.1-.2-1.1.5-5.3.1-.7.3-1.6.7-2.5 1.3-11.7 1.3-11.7 3.4-25.1.6-2.4.6-2.4 1.2-5.9 0-.2-.1-.4-.3-.6 0-.7 0-1.4.2-2.3.6-.9 1-1.9 1.8-3.2 1.1-1.1 2.2-2.2 3.1-3.2.7-.3 1.5-.7 2.5-1.2 5.9-.3 16.2-.5 17.7-.9-.2-.4-.2-.4-1.4-.7-3.4-.2-6.7-.4-10.3-.7-1.3-.2-2.4-.4-3.7-.7-2.4.4-4.9.7-7.3 1.1-.8-1.1-1.2-2.5-1.7-3.4 0-.5 0-1.1-.3-1.6.6-.9 1.3-2 1.9-3 3.6-4.5 4.7-5.4 6.5-7.7 6.6-7.2 6.6-7.2 6.9-7.9 6.8-6.5 7.1-7.2 17.3-17.2 2.1-1.8 6.2-5.6 8.6-7.3 2.1-2.2 4.4-4.3 6.9-6.6 4.7-3.8 6.6-5.5 8.7-7.3 6.5-5.9 12.7-11.9 19.1-18C91 44.3 93.2 42.3 103 35c.8-1.1 7.6-5.5 8.7-6.6 11.6-7.3 11.6-7.3 17-11.1 6.8-3.8 6.8-3.8 9.8-5.7 7-3.4 14.1-7 21.3-10.4h1.8c.3.4.7.7 1.1 1 .1 1.5.1 1.5-.3 3.1-.3.4-.6.9-1 1.5 0 .9 0 1.8-.3 2.7.3.1.4.5.6.9.9.1.9.1 1.9-.2 4.6-3.2 9.3-6.4 14.1-9.5.6-.2 1.3-.4 1.9-.5.4.2.7.4 1.1.5 1.8-.5 1.8-.5 3.8-.7 0 .3.1.7.3 1-.3 1.4-.7 2.7-1.3 4.1.5 1.1.5 1.1.5 2.5-.5 1.2-1.2 2.7-2 3.9v3.4c-.1.6-.3 1.1-.5 1.6.5 0 3.2-2 3.5-2.5 4.8-3.6 4.8-3.6 5.3-4.1 3.2-1.6 3.2-1.6 4-1.6.2.4.2.4 0 1.8-1.2 1-2.2 2.3-3.7 3.8-7 6-14.1 12.1-21.3 18.6-23.2 22.7-23.2 22.7-30.8 30.5-1.9 2.3-1.9 2.3-16.8 18.4-1.3 1.5-2.5 3.4-3.8 5.2-4.9 5.5-9.9 11.1-14.9 16.8-.6 1-1.1 2.1-1.7 3.2-2.4 3.4-4.9 7-7.6 10.5-.3.4-1.1 1.1-1.8 1.8-1.3 1.8-2.5 3.8-3.8 5.7-.9.9-2 2-2.9 3-1.3 1.8-2.5 3.8-3.7 5.5-.6.4-1.1.7-1.7 1.1H77c-.2-.2-.3-.4-.5-.5.2-1.1.3-2 .5-3 .5-1.3 1.1-2.5 1.6-3.9 3.8-5.2 7.4-9.8 7.9-10.7 1-.9 7.1-8.5 14.6-17 .8-1.4 11.9-14.1 12.9-15 .4-.7 1.5-1.6 4.5-5.4 6.6-6.9 7-7.7 7.4-8 .3-.6 6.9-7.2 8.6-9.5 2-1.8 2.1-2.3 10.8-11.2 4.3-3.8 7.7-7.6 8.9-8.4.4-.6 6.1-6.3 8.8-8.5.5-.7 1.1-1.4 1.8-2.1 16.4-13.8 16.4-13.8 16.4-14.1-2.7 1.5-3.5 2.5-6.7 4.4-1.2 1.1-2.5 2.2-3.7 3.4-.7.5-1.8 1-2.9 1.6-11.6 10-23.1 20.2-34.9 30.2-2.5 2.7-5.2 5.4-8 8-3.6 4.3-7.5 8.4-11.2 12.7-4.9 5.9-9.9 11.8-14.7 17.9-5 6.4-9.8 12.7-14.8 19.1-11.2 15.7-11.2 15.7-12.2 16.8-.5.2-.9.4-1.5.6-1.7-.9-1.7-.9-2.6-1.8-.4 0-.8 0-1.1-.2-1.3.3-2.7.7-3.9 1.3-.4.4-.9.7-1.4 1.1 0 .2 0 .3-.2.7.2.6.6 1.3 1 2 0 .4 0 .9-.2 1.4-.8.3-.8.3-4.8.9h-4.5c-.4.4-1 .7-1.4 1.1-1.6 3.5-3.1 7.5-4.6 11.2-.5.4-.5.4-2.4.7-.4.4-.7.7-1.2 1.1-1.8 2.9-3.7 5.5-5.5 8.5-.9 2.2-1.8 3.2-2.1 4.7-1 1.6-2 3.2-2.9 5-.4 0-.7 0-1.2.2-.2-2-.2-2 .5-7.5 1.1-2.5 2-5 3.2-7.3 7.6-13.1 7.6-13.1 9.1-16.1.2-.9.2-.9-.2-2-.1-.2-.3-.4-.6-.5h-1.4c-.4.3-1 .7-1.3 1.1-1.4 2.1-3 4.1-4.6 6.2-1.8 3.9-2.8 5.4-6.3 12.9-2.8 5.4-5.4 10.5-8.4 15.9-1.2 1.3-2.7 2.5-3.9 3.8-1.5-.1-1.5-.1-2.5-.7-1.6.2-3.4.4-5 .6-.4.3-.7.7-1.3 1-.5 1.1-1 2-1.5 3-1.5.7-2.9 1.4-4.3 2.3-.7-.1-1.2.1-1.8.3" class="st0"/><path id="path10" d="M163.8 499.8c-5.9-.1-13.7-6.6-14.4-13.6 0-12.2-.2-24.5-.4-36.6-.2-.2-.5-.5-1-.9-4.4 0-8.8 0-13.6.2-5.2 1.8-7.5 4-8 10.2 0 12.7-.1 25.6-.3 38.5-.2.1-.4.3-.6.7H84.4c-.6-.4-1.4-.7-2.1-1-.8.4-1.6.5-2.5.9-9.2 0-18.6 0-28.1.2-12.5-.9-18.3-6.8-18.3-20.2 0-13.6 5.5-22.5 19.9-23.4 9.6 0 19.1-.1 28.9-.3.5-.5 1-1.1 1.6-1.6 0-.8 0-2.1.2-3.4-1-1.3-1-1.3-2.5-2.1-.6 0-1.3-.2-2.1-.4H19.1c-.1.2-.3.4-.7.7 0 16.7-.2 33.7-.4 50.5-.2.2-.2.4-.4.7H.6c-.1-.1-.2-.3-.5-.5 0-33.5 0-67.3-.1-100.9.1-.2.4-.4.6-.5 22.5 0 44.7 0 67-.2.2.2.4.3.7.7v15.4c-.1.1-.3.3-.5.7-16.3 0-32.5 0-48.8.2-.1.2-.3.4-.7.5 0 5.2 0 10.2-.2 15.4.2.1.4.3.6.7 22.3 0 44.8.2 67.5.4 7.4.2 11.3 3.9 14 8.9 1.1 2.5.9 2.5 1.1 6 0 14.7.1 28.6.2 43.3.8 1.6 1.1 1.8 2.1 2.2.8 0 1.7 0 2.4-.2l1.4-.7c.4-.4.5-.7.7-1.4 0-18.9.1-37.7.4-56.7.1-.3.3-.4.6-.6 5.4 0 10.9 0 16.4-.2.2.2.4.4.7.5 0 1.5 0 2.9.3 4.3l.5.5c1.2 0 1.4-.3 2.3-1.2 3.5-3 6.1-3.6 10.7-4.1 3.3 0 6.5-.1 9.5-.3 0-.2.2-.4.4-.7 0-10.4 0-21.1.3-31.6.1-.1.3-.3.7-.5 5.3 0 11 0 16.6-.2.1.2.3.4.7.7 0 10.7 0 21.6.1 32.4.4.3.8.7 1.1 1.1 12.3 0 24.8 0 37.6.2.1.1.3.3.6.7v15.4c-.1.2-.3.4-.6.7-12.5 0-25.1 0-37.8.2-.7.5-.7.5-1 1.4 0 10.2 0 20.6.1 31.1.2 2.5 2.7 5 5.4 5.3 3.1 0 6 0 9.3.2 3.7-.2 5.4-2 6.1-5.2 0-7.7.3-15.4.4-23.1.2-.2.3-.3.7-.5 5.3 0 10.8 0 16.2-.2l.7.7v29c-.2 3-1 4.1-3.1 6.6-2.3 2.3-4.5 4.4-8 4.6-10.6.1-21.2.2-32.2.4M55.5 485.2c-2.2-.5-4.1-2.9-4.2-6.6-.2-3.8-.4-8 4.2-9.2 23.8-.4 23.8-.4 25.3-.7.4-.2.7-.5 1.3-.9h1c0 .2.2.4.4.7 0 3.9 0 7.7.2 11.8-.2 2.5-1.8 4.4-4 4.8-8-.1-16.1-.1-24.2.1m55.8-354.9c-.2-.1-.3-.4-.5-.7-.5-3.4-1.1-6.8-1.6-10.4-.1-4.1-.3-8.4-.4-12.5.1-.5.4-1.1.9-1.8.3-.4.8-.9 1.5-1.5.9 0 1.8 0 2.9-.1.9.5.9.5 1.2 1.3 0 .4 0 .9-.1 1.4-.4.5-1 1.1-1.5 1.8 0 1.3 0 2.5-.1 3.9.1 1.6.4 3.4.5 5.2 0 .2-.1.7-.4 1.3-.3.4-.7.7-1 1.3 0 1.1 0 2.2-.3 3.4.3 1.6.6 3.2 1 5-.4 1.4-.4 1.4-1 2.1-.4-.1-.7.2-1.1.3m-18.7 21.8c-.2-.2-.4-.3-.6-.7 0-1.3-.1-2.6-.4-3.9 0-7 0-13.8.2-20.5.3-.7.9-1.5 1.4-2.2 6.4-5.5 6.4-5.5 7.7-6.3.4 0 .4 0 1 .5.2.6.4 1.3.7 2-.1 1.9-1 4.3-1.3 6.4-.1.5-.4 1-.9 1.6 0 3.2.1 6.3.4 9.6.4 2.4.4 2.4.4 3.9-1.1 1.3-1.1 1.3-2 3-2 2-4 4-5.7 6.1-.2.1-.6.3-.9.5m-25.9 29.3c-.4-.3-.7-.7-1.1-1.1 0-2 0-3.9.2-6 2.1-11.4 2.1-11.4 5.5-27.5.9-.5 1.8-1.1 2.8-1.8 1.3-1.5 2.5-2.9 3.8-4.3 1.2-.7 2-1.3 3.3-2h1.9c.2.2.4.4.6.5v1.3c-.2.6-.6 1-.9 1.8.2 1.9.4 3.6.5 5.4 0 4.4 0 8.9.2 13.6 0 1.1-.2 2-.4 3-.6.9-1.3 1.8-1.9 2.7-2.3 1.6-4.9 3.4-7.4 5 0 .7-.2 1.4-.3 2.3-.9 1.5-1.9 2.5-2.8 3.9-1 1-2.1 2-3.1 3-.2 0-.5 0-.9.2" class="st0"/><path id="path12" d="m17.4 367-1.1-1.1c-.9-.2-1.8-.4-2.8-.7-1.1-.9-2.1-1.8-3.2-2.7 0-.4 0-.7-.2-1.2.5-2 .5-2 .9-4.7.4-.3.7-.9 1.1-1.4 0-1.1 0-2.1.2-3 .5-.7 1.3-1.6 2-2.5.7-2.2.7-2.2 1.4-6.8 2.1-6.8 4.1-13.8 6.3-20.7 7-16.7 7.5-16.8 9.9-22.3 1.7-3.4 4.3-9 4.6-9.1 1.4-3 2.5-6.1 4-8.9 2.3-4.1 2.3-4.1 3.7-7.4.4-.3.7-.7 1.1-1.1.6-1 1-2.3 1.5-3.5.9-1.1 1.7-2.3 2.5-3.7.2-.8.4-1.5.8-2.4 1.1-1.9 2.3-4.1 3.5-6.4.4-.4.8-.7 1.1-1.1.2-.5.4-1 .6-1.8 1.8-2.8 1.8-2.8 3.3-6.3.6-.7 1.2-1.5 1.9-2.3.5-1.3 1.3-2.7 2-4.1.5-.5 1.1-1.3 1.8-1.9 2.8-3.7 4.5-7 5.6-8.2.5-.9 1-2 1.7-3 7.6-10.6 7.6-10.6 8.7-11.6 1.2-1.8 2.5-3.8 3.8-5.9 1.2-.9 6.8-8.9 10.5-13.2 2.4-2.5 4.9-5 7.5-7.7 9.7-8.4 9.7-8.4 10.6-9.5 10.9-7.3 10.9-7.3 14.1-9.3 3.5-1.4 3.5-1.4 5.2-2.5 2.5-.9 5.2-1.8 8-2.9 4.1-1.1 8.1-2.1 12.7-3.2 2.9 0 5.9 0 9.1.1 3.4 1 7 1.8 10.6 2.9 3.5 2 3.5 2 8.9 5.5 1.8 1.6 3.8 3.2 5.5 4.8 1.9 2.5 2.9 3.4 6.7 9 1.1 2.3 2.3 4.8 3.6 7.5 1.4 4.3 2.8 8.5 4.2 13 1.4 7.7 1.4 7.7 4.2 27.9.7 8.4.7 8.4 1.3 21.3 0 2.3-.2 4.8-.4 7.1-.3 1.3-.7 2.7-1.2 4.1-1.1 1.4-1.9 3.2-2.4 3.7-1.4.4-1.4.4-2.5 1.4-1.1 0-2.4 0-3.6.2-.4-.2-.9-.5-1.4-.9-.5-.9-1-1.6-1.6-2.5-.6-.4-1.3-.9-2-1.4-.5 0-1.2 0-1.8-.2-.8.7-1.5 1.5-2.4 2.2-.8 0-1.4.1-2.3.3-1.8.7-1.8.7-2.9.9-2.1-1.2-2.1-1.2-3.2-1.4-1.4.4-1.4.4-2.9.2-.5-.2-1-.6-1.6-.9-2.7-.2-5.2-.3-8-.7-1.1 0-2.1.1-3.2.4-.5.5-1.3 1.3-2 1.9-.7.1-1.6.7-2.4 1.3-.7 1.3-1.1 2.5-1.8 3.8-.4 1.9-.4 1.9-.9 2.7-.5.5-.5.5-2.5.9-1.4 1.1-1.4 1.1-2.9 2.8-.4 0-1 0-1.6.2-1-.5-2-1-3.2-1.8-1.4-1.6-2.9-3.2-4.3-5-.6-3.2-1.1-6.4-1.6-9.8-.4-5.7-.8-11.6-1.1-17.5-.4-2.5-.8-5.2-1.4-7.9-2.8-11.1-4.5-15.7-6.5-23.6-1.9-4.6-1.9-4.6-2.8-6.1-.7-2.7-.7-2.7-1.6-4.6-.8-.9-4.1-7.8-6.1-10.7-.7-.7-1.6-1.5-2.5-2.3-.5 0-1.1 0-1.8-.2-1.1.5-2.1 1.3-3.3 1.8-1.9 2.2-1.9 2.2-6.4 5.9-7.2 8.6-14.8 17-22.2 25.5-1.3 1.8-2.6 3.6-3.8 5.6-3.8 4.3-3.8 4.3-9.4 11.8-11.1 19.5-11.1 19.5-13.9 24.7 0 .7-.2 1.4-.5 2.3-.4.9-.9 2.1-1.5 3.4-.2.9-.4 1.8-.7 2.9-1.1 1.8-3.4 8-4.3 9.4-.2 1.1-.4 2.1-.8 3.4-.4.9-.8 1.9-1.5 3-.9 2.3-1.8 4.8-2.7 7.5-.7 4-.7 4-1.4 6.3-2 3.2-2 3.2-5.4 10.5-2 2.5-2 2.5-2.8 4.5 0 1.6.2 3.2.3 5-.3 3-1 6.1-1.5 9.3-.9 1.8-.9 1.8-1.4 4.6-.6.9-1.3 2-2 3-.5 1.5-1.1 2.9-1.6 4.1-3.8 4.5-3.8 4.5-4.7 6.3-.6 2-1.4 5.7-2.8 9.6-.9 1.4-1.8 2.9-2.9 4.5-.8 0-1.3.2-1.8.6m127.9-145.6c-.4-.6-.7-1.1-1-1.6-.7-3-.7-3-2.2-6-.2-1.8-.2-1.8.2-2.4h1.1c.2.5.5 1.1.9 1.8.3 2.2.8 4.3 1.4 6.6-.1.5-.3 1.1-.4 1.6m15.9 12.8c-.8-1.8-.8-1.8-1.6-4.3 0-1.4 0-1.4.3-1.8h1c.7 3.2.7 3.2 1 5.7-.3.1-.4.3-.7.4m.7 3.3c-.3-.2-.4-.4-.7-.7 0-.4 0-.7.3-1.1h.5c0 .4.2.9.4 1.4-.2 0-.4.2-.5.4m.6 15.7c-.3-.7-.3-.7-.1-3.2h.5v2.7c0 .1-.1.3-.4.5m12.2 12.5c0-.4 0-.7-.2-1.1h.7c0 .2 0 .5.2.9-.2 0-.3 0-.7.2" class="st0"/></svg>