<svg xmlns="http://www.w3.org/2000/svg" xml:space="preserve" width="600" height="133.3"><path d="M0 49.1v83.5h43.7V82.7h56.9V49.1ZM0 34h100.7V.1H0Zm299.4 15c6.4 0 7.3-5.9 7.3-8.1 0-2.3-1.7-6.9-7-6.9h-67.8V.1h59.6c24.8 0 51.6 8.5 51.6 41.2s-29 41.4-47.6 41.4h-23v50h-40.6V49.1h67.5zm-82.8 47.2h-98.9v36.4h98.9zM161.3 0h-43.6v82.7h43.6zm208.3 48.9h23.2V55h-15.9v7.6h13.8v5.6h-13.8v13.6h-7.3zm28.3 0h24.6V55h-17.4v7.1h16v5.6h-16v8.1h17.8v6.1h-25zm29.9 0h17.8c5.9 0 9.6 4.1 9.6 9.1 0 3.9-1.6 6.8-5.2 8.3v.1c3.6.9 4.6 4.4 4.8 7.7.1 2.1.1 6 1.4 7.8h-7.3c-.9-2.1-.8-5.3-1.2-7.9-.5-3.5-1.9-5-5.5-5H435v12.9h-7.3v-33zm7.3 14.9h7.9c3.2 0 5-1.4 5-4.7 0-3.2-1.8-4.6-5-4.6h-7.9zm26.1-14.9H479c5.9 0 9.6 4.1 9.6 9.1 0 3.9-1.6 6.8-5.2 8.3v.1c3.6.9 4.6 4.4 4.8 7.7.1 2.1.1 6 1.4 7.8h-7.2c-.9-2.1-.8-5.3-1.2-7.9-.5-3.5-1.8-5-5.5-5h-7.3v12.9h-7.2zm7.2 14.9h7.9c3.2 0 5-1.4 5-4.7 0-3.2-1.8-4.6-5-4.6h-7.9zm40.9-15.7c10.2 0 16.2 7.6 16.2 17.4 0 9.5-6 17.1-16.2 17.1s-16.2-7.6-16.2-17.1c0-9.7 6-17.4 16.2-17.4m0 28.5c6.5 0 9-5.5 9-11 0-5.8-2.4-11.3-9-11.3-6.5 0-9 5.5-9 11.3 0 5.4 2.5 11 9 11m36.5 5.3h-8.2l-10.7-33h7.5l7.3 23.2h.1l7.4-23.2h7.5zm21.9 0h-7.3v-33h7.3zm7.3-33h24.6V55h-17.4v7.1h16v5.6h-16v8.1H600v6.1h-25ZM369.6 99.6h7.2v26.9h16.1v6.1h-23.3zm56.5 20.5c0 8.9-5.3 13.2-14.1 13.2-8.9 0-14-4.3-14-13.2V99.6h7.2v20.5c0 3.6.9 7.2 6.8 7.2 5.2 0 6.8-2.3 6.8-7.2V99.6h7.2v20.5zm30.2 8.7c-2.5 3.3-5.9 4.5-9 4.5-10.2 0-16.2-7.6-16.2-17.1 0-9.8 6-17.4 16.2-17.4 6.7 0 13.1 4.2 13.9 11.6h-6.9c-.8-3.7-3.6-5.5-7-5.5-6.5 0-9 5.5-9 11.3 0 5.5 2.4 11 9 11 4.7 0 7.4-2.5 7.8-7.1h-7.3v-5.3h13.9v17.8h-4.6zm20.3-29.2h7.4l12.3 32.9h-7.5l-2.5-7.3H474l-2.6 7.3h-7.3zm-.7 20.2h8.5l-4.1-12.1h-.1zm23.3-20.2h7.2l13.7 22.1h.1V99.6h6.8v33h-7.3L506 110.5h-.1v22.1h-6.8v-33zm34.2 0H558v6.1h-17.4v7.1h16v5.6h-16v8.1h17.8v6.1h-25zm34.9 22c0 4.4 3.4 6.1 7.3 6.1 2.5 0 6.4-.7 6.4-4.1 0-3.6-4.9-4.2-9.8-5.4-4.9-1.3-9.8-3.2-9.8-9.4 0-6.7 6.4-10 12.3-10 6.9 0 13.2 3 13.2 10.6h-7c-.2-4-3-5-6.5-5-2.3 0-5 1-5 3.7 0 2.5 1.6 2.9 9.8 5 2.4.6 9.8 2.1 9.8 9.6 0 6-4.8 10.6-13.7 10.6-7.3 0-14.1-3.6-14-11.7zm31.3 11h-7.2v-33h7.2z" style="fill:#fb5200;fill-opacity:1"/></svg>