<svg xmlns="http://www.w3.org/2000/svg" width="275mm" height="101mm" viewBox="0 0 275 101"><path d="M219.405 161.11h17.677V62.173h-17.677ZM265.056 120.498c.792-9.108 5.796-15.985 15.697-15.985 9.9 0 13.825 7.417 14.365 15.985zm14.617-28.91c-21.097 0-31.502 16.237-31.502 35.895 0 22.286 13.069 35.21 35.462 35.21 9.505 0 16.886-1.836 23.366-5.4v-14.365c-6.588 3.672-14.005 6.84-22.574 6.84-10.944 0-18.577-6.192-19.369-17.137h46.947c0-23.761-7.128-41.043-32.33-41.043M356.035 148.976c-11.737 0-15.554-12.384-15.554-22.033 0-9.469 4.5-21.638 15.842-21.638 11.448 0 14.617 12.53 14.617 21.638 0 9.36-3.277 22.033-14.905 22.033zm4.896-57.388c-9.253 0-15.445 3.853-20.306 10.297h-.287v-39.71H322.66v98.934h17.174v-8.316h.25c5.149 7.272 13.321 9.9 20.846 9.9 20.845 0 28.478-17.137 28.478-35.75 0-18.721-7.633-35.355-28.478-35.355" style="fill:#61ab45;fill-opacity:1;fill-rule:nonzero;stroke:none;stroke-width:9.21666145" transform="translate(-115.156 -61.693)"/><path d="M198.415 142.033h-26.812a9.072 9.072 0 0 0 0 18.142h26.812a9.072 9.072 0 0 0 0-18.142M198.415 115.677h-50.509a9.072 9.072 0 0 0 0 18.142h50.509a9.072 9.072 0 0 0 0-18.142M198.415 89.32h-74.188a9.072 9.072 0 0 0 0 18.142h74.188a9.072 9.072 0 0 0 0-18.141" style="fill:#fff;fill-opacity:1;fill-rule:nonzero;stroke:none;stroke-width:4.66291571" transform="translate(-115.156 -61.693)"/><path d="M207.486 151.104a9.072 9.072 0 0 1-9.071 9.071h-26.812a9.072 9.072 0 0 1 0-18.142h26.812a9.072 9.072 0 0 1 9.07 9.071M198.415 133.819h-50.509a9.072 9.072 0 0 1 0-18.142h50.509a9.072 9.072 0 0 1 0 18.142M207.486 98.391a9.072 9.072 0 0 1-9.071 9.071h-74.188a9.072 9.072 0 0 1 0-18.141h74.188a9.072 9.072 0 0 1 9.07 9.07" style="fill:#61ab45;fill-opacity:1;fill-rule:nonzero;stroke:none;stroke-width:4.66291571" transform="translate(-115.156 -61.693)"/></svg>