<svg xmlns="http://www.w3.org/2000/svg" width="757.14" height="327.1" version="1.0"><path d="M253.076 356.607c-.304-.217-.902-.388-1.729-.388-1.871 0-3.145 1.244-3.654 3.143-.472 1.766.19 2.801 1.543 2.801.488 0 .84-.066 1.27-.279l-.139.516c-.218.815-.758 1.378-1.78 1.378a2.66 2.66 0 0 1-1.303-.328l-.532.77c.359.22 1.016.367 1.812.367 1.44 0 2.585-.793 3-2.342l1.512-5.638zm-3.28 4.911c-1.072 0-1.27-.825-.888-2.256.399-1.487 1.069-2.387 2.161-2.387.268 0 .504.018.733.17l-1.143 4.265a1.88 1.88 0 0 1-.863.208M256.93 356.22c-1.613 0-2.746 1.27-3.214 3.022-.465 1.732-.013 2.976 1.572 2.976 1.613 0 2.749-1.283 3.213-3.011.47-1.757.025-2.988-1.57-2.988zm-1.398 5.22c-1.023 0-.905-1.166-.616-2.245.298-1.116.786-2.266 1.788-2.266 1.058 0 .892 1.215.602 2.301-.297 1.107-.762 2.21-1.774 2.21M261.69 361.38a1.032 1.032 0 0 1-.238.028c-.53 0-.634-.376-.506-.853l.938-3.505h.967l.192-.72h-.965l.443-1.653-1.289.335-.354 1.317h-.657l-.194.721h.659l-.967 3.607c-.213.796.027 1.516 1.13 1.516.287 0 .522-.054.657-.104l.185-.69M265.407 361.38c-.075.017-.15.028-.238.028-.53 0-.633-.376-.506-.853l.939-3.505h.965l.194-.72h-.965l.442-1.653-1.29.335-.352 1.317h-.658l-.194.721h.658l-.965 3.607c-.214.796.026 1.516 1.129 1.516.287 0 .522-.054.656-.104l.185-.69M272.1 357.967c.236-.877-.023-1.704-1.463-1.704-.555 0-.996.15-1.501.367l.803-3h-1.2l-2.27 8.478h1.2l1.31-4.894a2.159 2.159 0 0 1 1.065-.262c.86 0 .988.53.84 1.082l-1.092 4.074h1.2l1.109-4.141M277.848 358.175c.393-1.467-.381-1.956-1.571-1.956-.889 0-1.64.243-2.078.425l.084.63c.409-.166.978-.334 1.523-.334.705 0 1.201.225.977 1.062l-.097.362c-1.365.13-3.413.411-3.875 2.139-.289 1.077.275 1.715 1.867 1.715.898 0 1.669-.169 2.196-.409l.974-3.634zm-2.882 3.43c-.81 0-1.232-.358-1.012-1.18.343-1.277 1.517-1.437 2.6-1.565l-.687 2.563a2.256 2.256 0 0 1-.901.182M279.936 356.63l-1.469 5.478h1.2l1.331-4.971a1.727 1.727 0 0 1 1.288-.08l.446-.83c-1.383-.032-2.139.126-2.796.402M288.968 353.63h-1.199l-.742 2.772a2.81 2.81 0 0 0-.906-.128c-1.498 0-2.838 1.124-3.35 3.033-.494 1.845.197 2.911 1.886 2.911.899 0 1.592-.159 2.12-.409l2.191-8.179zm-4.049 7.865c-1.116 0-1.286-.97-.93-2.3.337-1.255 1.013-2.298 2.225-2.298.242 0 .424.026.653.1l-1.164 4.345c-.247.136-.506.153-.784.153M294.047 356.252c-.543 0-.844.09-1.328.288l.78-2.91h-1.188l-2.197 8.2c.303.215.892.388 1.762.388 1.805 0 3.13-1.191 3.656-3.154.467-1.747-.179-2.812-1.485-2.812zm-1.896 5.277c-.258 0-.495-.037-.727-.152l1.148-4.284c.312-.151.555-.196.904-.196 1.101 0 1.162 1.068.837 2.278-.377 1.41-1.059 2.354-2.162 2.354M301.243 358.175c.394-1.467-.38-1.956-1.571-1.956-.888 0-1.64.243-2.076.425l.082.63c.41-.166.978-.334 1.524-.334.705 0 1.2.225.976 1.062l-.097.362c-1.364.13-3.412.411-3.874 2.139-.29 1.077.274 1.715 1.866 1.715.898 0 1.669-.169 2.196-.409l.974-3.634zm-2.882 3.43c-.809 0-1.232-.358-1.01-1.18.341-1.277 1.515-1.437 2.597-1.565l-.686 2.563a2.256 2.256 0 0 1-.901.182M307.386 357.967c.235-.877-.024-1.704-1.464-1.704-.556 0-.996.15-1.503.367l.804-3h-1.199l-2.27 8.478h1.198l1.311-4.894c.36-.184.663-.262 1.065-.262.861 0 .988.53.84 1.082l-1.091 4.074h1.2l1.109-4.141M313.48 357.945c.242-.907-.07-1.726-1.798-1.726-.975 0-1.758.159-2.373.41l-1.468 5.479h1.2l1.338-4.998a2.66 2.66 0 0 1 1.022-.18c.905 0 1 .564.863 1.072l-1.1 4.106h1.2l1.115-4.163M192.717 346.632c.391-.313 2.987-2.373 4.792-3.53 2.28-1.455 6.013-3.239 6.26-3.357l1.263-1.473c-2.52 1.318-5.063 2.601-7.398 4.238-2.012 1.474-3.446 2.705-4.917 4.122zm31.615-20.344-.574.052-.176-.643.304-.304-.153-.868c8.963-4.333 23.921-11.275 32.776-15.512l-1.086-.859c-1.267.611-33.951 16.395-35.632 17.24l1.283 2.27-.262.785-.555 1.026 4.851-2.33-.099-.132-.677-.725zm-3.309 7.525-.13.656 8.82-4.264-.587-.678-.844-.547-.42-.278-.393.196-1.072-.418c11.379-5.512 23.086-10.872 34.472-16.36l-1.085-.858-39.712 19.255.144.91-.098 1.53.905.856zm44.298-18.531-1.223-.815-43.404 21.026-1.437 1.982-.64 1.922.614 1.512c.51-.272 3.88-2.071 6.098-3.274 3.457-1.823 8.153-4.198 9.117-4.705l-2.812-1.656c9.63-4.709 24.098-11.482 33.687-15.992zm4.358 3.107-1.22-.815c-1.327.638-40.53 19.466-44.67 21.684-7.007 3.777-10.848 6.364-13.79 8.847 2.595-1.946 8.163-5.507 15.283-8.867 17.23-8.156 42.544-19.983 44.397-20.849zm-36.277-3.51-1.081-.812-12.734 6.193.842.515-.12.362-.546.745-.097 1.563.308.514-.28.561 3.27-1.54-.66-1.33-.653-.753-.202-.268c4.004-1.93 7.955-3.801 11.953-5.75zm-54.941 22.673c1.787-1.387 3.482-2.482 5.817-3.923 5.866-3.711 9.526-5.165 15.744-8.224 5.909-2.903 9.666-4.457 15.27-7.058l.856-1.31.243-.049.177-.475.521.637c.38.325.735.673 1.108 1.007l.262.471.097.579.413.206-.038.272 1.273-.637-.457-.249-.254-.507-1.471-1.263a946.424 946.424 0 0 0 11.02-5.257l-1.083-.812c-.758.37-13.03 6.364-17.353 8.452-5.663 2.806-11.277 5.412-16.188 7.918-2.504 1.302-7.111 3.707-11.017 6.46-1.88 1.313-3.522 2.54-4.94 3.762zm4.342 3.322c.183-.141.33-.285.518-.426 1.806-1.404 3.562-2.508 5.92-3.963 5.448-3.298 20.216-10.436 22.987-11.67.093-.22.405-.883.558-1.205-4.748 2.417-9.297 4.45-13.455 6.627-2.504 1.302-7.664 4.007-11.42 6.611a39.274 39.274 0 0 0-5.147 4.099l-.008-.105.047.032zm4.968 2.904.512-.424c1.806-1.405 3.511-2.507 5.869-3.961 5.057-3.205 7.164-3.76 13.662-7.058.044-.135.067-.248.084-.34l.026-.135a.495.495 0 0 1 .038-.112c.069-.104.4-.491.632-.758l-4.253 2.104c-3.939 1.97-7.877 3.989-11.468 6.56-2.074 1.481-3.584 2.784-5.114 4.115l.012.009M226.943 348.032c.239-.894-.125-1.727-1.48-1.727-.794 0-1.456.212-2.089.678-.373-.58-1-.678-1.652-.678-.965 0-1.624.138-2.274.41l-1.467 5.48h1.198l1.34-4.997c.357-.135.59-.181.977-.181.76 0 1.086.406.92 1.027l-1.112 4.15h1.2l1.268-4.732c.351-.278.701-.434 1.155-.434.769 0 .95.504.804 1.05l-1.103 4.116h1.199l1.116-4.162M232.576 348.262c.392-1.467-.382-1.957-1.572-1.957-.888 0-1.64.243-2.077.425l.084.63c.408-.166.976-.332 1.522-.332.705 0 1.201.225.978 1.06l-.098.364c-1.365.13-3.412.411-3.875 2.137-.289 1.079.275 1.715 1.866 1.715.9 0 1.67-.169 2.198-.409l.974-3.633zm-2.883 3.43c-.81 0-1.231-.358-1.011-1.182.342-1.276 1.516-1.436 2.599-1.563l-.687 2.562a2.256 2.256 0 0 1-.9.183M235.708 351.467c-.076.017-.15.028-.237.028-.53 0-.634-.377-.507-.852l.94-3.506h.964l.194-.722h-.966l.442-1.65-1.289.333-.352 1.317h-.659l-.192.722h.657l-.966 3.606c-.213.796.026 1.517 1.13 1.517.286 0 .522-.055.656-.103l.185-.69M239.426 351.467a1.032 1.032 0 0 1-.239.028c-.53 0-.634-.377-.506-.852l.938-3.506h.967l.192-.722h-.965l.443-1.65-1.289.333-.354 1.317h-.657l-.194.722h.659l-.967 3.606c-.213.796.027 1.517 1.13 1.517.287 0 .522-.055.657-.103l.185-.69M244.207 346.305c-1.509 0-2.764 1.09-3.275 3-.528 1.967.229 3 1.851 3 .864 0 1.525-.175 1.993-.39l-.078-.707a3.93 3.93 0 0 1-1.522.297c-1.175 0-1.399-.762-1.23-1.77l3.767-.528c.56-1.939-.015-2.902-1.506-2.902zm-2.186 2.89c.22-.9.732-2.2 1.921-2.2 1.129 0 .959 1.088.767 1.805l-2.688.394M247.734 346.715l-1.467 5.48h1.199l1.332-4.972a1.727 1.727 0 0 1 1.288-.079l.445-.83c-1.383-.032-2.139.125-2.797.401M255.628 348.053c.235-.876-.025-1.703-1.464-1.703-.556 0-.996.15-1.502.368l.804-3.001h-1.199l-2.271 8.477h1.198l1.312-4.894c.36-.183.662-.262 1.065-.262.861 0 .987.53.84 1.084l-1.092 4.072h1.2l1.11-4.141M259.847 346.305c-1.613 0-2.746 1.272-3.215 3.023-.464 1.734-.011 2.976 1.572 2.976 1.614 0 2.75-1.281 3.213-3.011.47-1.756.025-2.988-1.57-2.988zm-1.399 5.223c-1.022 0-.904-1.166-.615-2.246.299-1.117.786-2.265 1.788-2.265 1.057 0 .892 1.213.601 2.3-.296 1.106-.76 2.211-1.774 2.211M263.452 346.715l-1.468 5.48h1.2l1.332-4.972a1.724 1.724 0 0 1 1.286-.079l.446-.83c-1.382-.032-2.139.125-2.796.401M271.35 348.032c.244-.907-.07-1.727-1.797-1.727-.975 0-1.756.16-2.372.41l-1.468 5.48h1.199l1.339-4.998c.373-.133.615-.18 1.021-.18.906 0 1.001.563.865 1.071l-1.1 4.106h1.199l1.115-4.162" style="fill:#fff;fill-opacity:1;fill-rule:nonzero;stroke:none" transform="matrix(5.42777 0 0 5.42777 -955.111 -1662.162)"/><path d="m225.88 352.262 1.127-4.213c.25-.932-.14-1.81-1.544-1.81-.9 0-1.58.285-2.071.648-.24-.374-.715-.648-1.67-.648-.988 0-1.661.143-2.33.428l-1.499 5.595h1.338l1.343-5.014c.293-.11.527-.164.922-.164.723 0 1.008.373.855.943l-1.134 4.235h1.339l1.275-4.762c.347-.273.69-.406 1.096-.406.712 0 .877.45.739.966l-1.125 4.202h1.338" style="fill:#ed1c24;fill-opacity:1;fill-rule:nonzero;stroke:none" transform="matrix(5.42777 0 0 5.42777 -955.111 -1662.162)"/><path d="m231.66 351.943.98-3.664c.41-1.525-.418-2.04-1.636-2.04-.932 0-1.716.263-2.15.45l.102.768c.408-.177 1.007-.363 1.577-.363.691 0 1.119.209.913.976l-.085.32c-1.847.174-3.47.624-3.888 2.182-.305 1.141.319 1.8 1.931 1.8.923 0 1.715-.177 2.255-.429zm-1.123-.483a2.2 2.2 0 0 1-.844.165c-.78 0-1.152-.328-.946-1.097.287-1.075 1.14-1.349 2.442-1.503l-.652 2.435" style="fill:#ed1c24;fill-opacity:1;fill-rule:evenodd;stroke:none" transform="matrix(5.42777 0 0 5.42777 -955.111 -1662.162)"/><path d="m235.58 352.207.223-.834a1.18 1.18 0 0 1-.332.055c-.462 0-.565-.308-.443-.768l.926-3.456h.965l.23-.855h-.966l.45-1.679-1.439.373-.348 1.306h-.659l-.229.855h.658l-.943 3.521c-.221.823.031 1.602 1.194 1.602.319 0 .577-.065.712-.12M239.297 352.207l.224-.834a1.18 1.18 0 0 1-.334.055c-.46 0-.565-.308-.441-.768l.926-3.456h.965l.229-.855h-.965l.45-1.679-1.439.373-.35 1.306h-.658l-.23.855h.66l-.945 3.521c-.22.823.033 1.602 1.195 1.602.318 0 .577-.065.713-.12" style="fill:#ed1c24;fill-opacity:1;fill-rule:nonzero;stroke:none" transform="matrix(5.42777 0 0 5.42777 -955.111 -1662.162)"/><path d="M245.764 349.267c.588-1.987.012-3.028-1.557-3.028-1.548 0-2.823 1.119-3.34 3.05-.535 1.996.237 3.083 1.916 3.083.9 0 1.586-.188 2.064-.418l-.091-.845c-.363.165-.9.33-1.58.33-.977 0-1.357-.549-1.172-1.646l3.76-.526zm-1.108-.527-2.547.373c.347-1.415 1.054-2.051 1.833-2.051.735 0 1.034.482.714 1.678" style="fill:#ed1c24;fill-opacity:1;fill-rule:evenodd;stroke:none" transform="matrix(5.42777 0 0 5.42777 -955.111 -1662.162)"/><path d="M250.642 346.25c-1.48-.045-2.27.12-2.964.417l-1.499 5.595h1.34l1.335-4.992c.355-.176.854-.197 1.263-.043l.525-.977M254.57 352.262l1.123-4.192c.244-.91-.036-1.787-1.529-1.787-.45 0-.893.099-1.4.317l.79-2.95h-1.34l-2.306 8.612h1.339l1.316-4.915a2.082 2.082 0 0 1 1.008-.242c.801 0 .916.472.775 1l-1.114 4.157h1.339" style="fill:#ed1c24;fill-opacity:1;fill-rule:nonzero;stroke:none" transform="matrix(5.42777 0 0 5.42777 -955.111 -1662.162)"/><path d="M261.482 349.31c.472-1.766.032-3.07-1.635-3.07-1.656 0-2.806 1.304-3.28 3.07-.466 1.744-.019 3.062 1.637 3.062 1.657 0 2.81-1.318 3.278-3.062zm-1.325-.01c-.3 1.118-.754 2.16-1.709 2.16-.921 0-.85-1.042-.55-2.16.303-1.13.78-2.216 1.723-2.216.955 0 .838 1.085.536 2.215" style="fill:#ed1c24;fill-opacity:1;fill-rule:evenodd;stroke:none" transform="matrix(5.42777 0 0 5.42777 -955.111 -1662.162)"/><path d="M266.36 346.25c-1.48-.045-2.27.12-2.964.417l-1.499 5.595h1.337l1.338-4.992c.355-.176.854-.197 1.262-.043l.525-.977M270.287 352.262l1.129-4.213c.256-.955-.097-1.81-1.863-1.81-.997 0-1.799.164-2.429.428l-1.498 5.595h1.337l1.344-5.014c.279-.099.526-.164.965-.164.845 0 .929.504.8.986l-1.123 4.192h1.338" style="fill:#ed1c24;fill-opacity:1;fill-rule:nonzero;stroke:none" transform="matrix(5.42777 0 0 5.42777 -955.111 -1662.162)"/><path d="m251.63 362.263 1.522-5.683c-.309-.24-.939-.428-1.805-.428-1.909 0-3.204 1.272-3.719 3.192-.479 1.789.193 2.885 1.608 2.885.505 0 .901-.087 1.166-.219l-.099.373c-.212.79-.729 1.327-1.716 1.327-.549 0-1.031-.165-1.321-.35l-.608.877c.36.252 1.061.417 1.906.417 1.47 0 2.642-.812 3.065-2.391zm-1.028-.999c-.215.11-.499.186-.806.186-.988 0-1.208-.735-.823-2.17.396-1.482 1.054-2.338 2.096-2.338.285 0 .507.033.655.132l-1.122 4.19M258.564 359.224c.474-1.766.034-3.072-1.633-3.072-1.657 0-2.808 1.306-3.28 3.072-.468 1.744-.019 3.06 1.637 3.06s2.81-1.316 3.276-3.06zm-1.323-.011c-.3 1.119-.755 2.161-1.709 2.161-.921 0-.851-1.042-.551-2.161.302-1.13.78-2.216 1.723-2.216.954 0 .84 1.086.537 2.216" style="fill:#ed1c24;fill-opacity:1;fill-rule:evenodd;stroke:none" transform="matrix(5.42777 0 0 5.42777 -955.111 -1662.162)"/><path d="m261.562 362.12.222-.833a1.163 1.163 0 0 1-.332.053c-.46 0-.565-.306-.441-.767l.925-3.455h.966l.229-.856h-.965l.45-1.679-1.439.374-.35 1.305h-.658l-.23.856h.66l-.945 3.521c-.22.823.032 1.601 1.195 1.601.318 0 .577-.066.713-.12M265.278 362.12l.224-.833a1.177 1.177 0 0 1-.333.053c-.46 0-.565-.306-.44-.767l.924-3.455h.965l.23-.856h-.965l.449-1.679-1.438.374-.35 1.305h-.658l-.229.856h.659l-.944 3.521c-.221.823.031 1.601 1.194 1.601.318 0 .577-.066.712-.12M271.043 362.174l1.123-4.19c.243-.91-.037-1.789-1.529-1.789-.449 0-.893.1-1.401.32l.791-2.952h-1.339l-2.307 8.611h1.338l1.317-4.914a2.072 2.072 0 0 1 1.008-.24c.8 0 .915.47.775.997l-1.115 4.157h1.34" style="fill:#ed1c24;fill-opacity:1;fill-rule:nonzero;stroke:none" transform="matrix(5.42777 0 0 5.42777 -955.111 -1662.162)"/><path d="m276.932 361.857.981-3.664c.409-1.525-.419-2.041-1.636-2.041-.933 0-1.716.263-2.15.45l.101.768c.409-.176 1.008-.362 1.578-.362.691 0 1.118.209.912.976l-.085.318c-1.846.176-3.47.626-3.887 2.183-.305 1.142.318 1.8 1.932 1.8.921 0 1.714-.176 2.254-.428zm-1.121-.483a2.212 2.212 0 0 1-.845.164c-.779 0-1.152-.329-.947-1.096.288-1.075 1.14-1.35 2.444-1.504l-.652 2.436" style="fill:#ed1c24;fill-opacity:1;fill-rule:evenodd;stroke:none" transform="matrix(5.42777 0 0 5.42777 -955.111 -1662.162)"/><path d="M282.843 356.163c-1.481-.044-2.271.121-2.964.417l-1.498 5.594h1.337l1.338-4.991c.353-.175.853-.198 1.262-.044l.525-.976" style="fill:#ed1c24;fill-opacity:1;fill-rule:nonzero;stroke:none" transform="matrix(5.42777 0 0 5.42777 -955.111 -1662.162)"/><path d="m286.834 361.857 2.222-8.294h-1.338l-.739 2.754a2.89 2.89 0 0 0-.858-.11c-1.535 0-2.898 1.152-3.414 3.082-.503 1.876.206 2.995 1.95 2.995.921 0 1.635-.164 2.177-.427zm-1.188-.56c-.18.098-.408.132-.727.132-1.03 0-1.223-.877-.865-2.216.335-1.251.998-2.249 2.16-2.249.21 0 .4.021.572.076l-1.14 4.257M295.597 359.082c.472-1.767-.179-2.897-1.55-2.897-.56 0-.908.11-1.228.242l.768-2.864h-1.328l-2.22 8.294c.307.241.925.427 1.837.427 1.842 0 3.188-1.217 3.721-3.202zm-1.349.076c-.375 1.404-1.044 2.304-2.097 2.304-.253 0-.493-.044-.648-.122l1.125-4.2c.253-.12.486-.176.848-.176 1.01 0 1.102.965.772 2.194M300.327 361.857l.981-3.664c.409-1.525-.419-2.041-1.636-2.041-.933 0-1.716.263-2.15.45l.101.768c.409-.176 1.008-.362 1.579-.362.69 0 1.117.209.911.976l-.085.318c-1.846.176-3.469.626-3.886 2.183-.306 1.142.319 1.8 1.931 1.8.921 0 1.714-.176 2.254-.428zm-1.121-.483a2.202 2.202 0 0 1-.845.164c-.779 0-1.152-.329-.947-1.096.29-1.075 1.142-1.35 2.444-1.504l-.652 2.436" style="fill:#ed1c24;fill-opacity:1;fill-rule:evenodd;stroke:none" transform="matrix(5.42777 0 0 5.42777 -955.111 -1662.162)"/><path d="m306.328 362.174 1.123-4.19c.243-.91-.037-1.789-1.529-1.789-.45 0-.893.1-1.401.32l.79-2.952h-1.338l-2.307 8.611h1.338l1.317-4.914a2.068 2.068 0 0 1 1.007-.24c.801 0 .916.47.775.997l-1.114 4.157h1.34M312.416 362.174l1.128-4.212c.257-.954-.096-1.81-1.862-1.81-.999 0-1.799.165-2.43.428l-1.498 5.594h1.338l1.344-5.012c.278-.099.526-.165.965-.165.845 0 .928.505.8.987l-1.123 4.19h1.338" style="fill:#ed1c24;fill-opacity:1;fill-rule:nonzero;stroke:none" transform="matrix(5.42777 0 0 5.42777 -955.111 -1662.162)"/><path d="m192.583 346.667.125.057s2.883-2.314 4.838-3.566c2.355-1.504 6.265-3.358 6.265-3.358l1.502-1.755c-1.102.603-4.861 2.407-7.717 4.412-2.055 1.503-3.509 2.756-5.013 4.21zm32.478-19.698-.702-.751-.55.05-.152-.551.301-.302-.15-.85c9.121-4.41 22.253-10.476 32.828-15.538l-1.204-.952s-35.183 16.99-35.734 17.29l1.303 2.307-.25.751-.652 1.204 5.112-2.457-.15-.2zm-5.013 6.015.903.851-.15.753 9.021-4.36-.651-.753-.853-.55-.451-.3-.4.2-.903-.352c9.623-4.661 23.305-10.976 34.432-16.339l-1.203-.951-39.795 19.295.151.952-.1 1.554zm11.729-1.704c9.221-4.51 22.704-10.826 33.679-15.988l-1.353-.902-43.452 21.05-1.454 2.004-.651 1.955.651 1.604s3.759-2.005 6.164-3.308c3.608-1.905 8.571-4.41 9.222-4.76l-2.806-1.655zm-6.466 8.02c17.892-8.47 44.506-20.9 44.506-20.9l-1.354-.903s-40.496 19.446-44.706 21.702c-7.066 3.809-10.918 6.41-13.874 8.915l.091.056c2.657-1.955 8.22-5.513 15.337-8.87zm-3.759-18.646c2.807-1.352 7.869-3.759 11.979-5.762l-1.203-.903-12.881 6.265.902.551-.1.3-.55.753-.1 1.604.3.501s-.25.501-.352.701l3.509-1.654-.702-1.403-.65-.752-.152-.2zm-1.203-1.604-.55-.3-.252-.5-1.403-1.203c2.557-1.204 7.217-3.409 11.027-5.263l-1.204-.902s-12.93 6.315-17.391 8.47c-5.663 2.806-11.277 5.412-16.188 7.918-2.506 1.303-7.117 3.71-11.026 6.465-2.155 1.504-3.999 2.898-5.553 4.302l.09.06c.2-.152.35-.302.552-.452 1.803-1.403 3.507-2.506 5.863-3.96 5.864-3.708 9.523-5.162 15.738-8.218 5.914-2.908 9.672-4.462 15.285-7.068.101-.15.852-1.302.852-1.302l.252-.05.15-.402.451.552c.701.601.15.15 1.102 1.002l.25.451.1.602.402.2-.05.351 1.503-.753zm-37.63 21.848.087.059c.2-.152.355-.305.556-.455 1.804-1.404 3.559-2.507 5.914-3.959 5.462-3.309 20.298-10.475 23.005-11.679.1-.25.651-1.402.651-1.402-4.811 2.455-9.423 4.51-13.633 6.715-2.506 1.303-7.667 4.01-11.427 6.616a39.389 39.389 0 0 0-5.154 4.105zm4.932 2.877.123.087.55-.455c1.805-1.404 3.508-2.504 5.863-3.958 5.062-3.207 7.167-3.759 13.682-7.066.1-.301.1-.501.152-.601.1-.152.801-.953.851-1.003l-4.56 2.255c-2.506 1.253-7.418 3.659-11.478 6.565-2.105 1.504-3.63 2.824-5.183 4.176" style="fill:#ed1c24;fill-opacity:1;fill-rule:evenodd;stroke:none" transform="matrix(5.42777 0 0 5.42777 -955.111 -1662.162)"/></svg>