<svg xmlns="http://www.w3.org/2000/svg" xml:space="preserve" style="enable-background:new 0 0 652 652" viewBox="0 0 652 652"><path d="M446.4 294c5.8-12.6 19.1-16.8 42.6-16.8h51.6c17.1 0 28.6.8 35.7 6.3 7.3 5.6 9.9 15.3 9 30.1h-30c.4-8.5-4.6-12-15.7-12h-42.2c-19.4 0-24.1 2.5-24 19.1v13.6c0 15.3 6.5 18.4 24 18.4H533c17 0 23.5-1.9 23.1-14.5h30.3c1.2 16.1-1.3 26.3-9.5 32.3-7.4 5.5-19.1 6.5-36.2 6.5h-51.6c-15.5 0-26.3-.7-34.8-7.3-3.4-2.6-5.9-5.8-7.8-9.3v30.5h178.6V263H446.5l-.1 31zM25.1 278.2h43.8l27.9 60.9 26.2-60.9 43.5.1v97.5h-29v-69.5L105 375.8H88l-34.3-69.5v69.5H24.9v15.3h178.6V263H25.1v15.2zm312.7 22h-72.5v16.1h72.6c5 0 7.7-2.8 7.6-8.1 0-4.8-3.1-8-7.7-8m-102-21.9 107.8.1c21.9 0 32.6 8.8 32.6 27.2 0 10.5-4.5 16.9-14.4 20.7 12.4 2 17.8 9.2 17.8 23.2 0 18.8-9.6 26.4-31.3 26.4H235.9l-.1 15.2h178.5V263H235.8v15.3zm29.5 57.8v17.6h75.3c5.2 0 8.2-3.2 8.1-9 0-5.3-3.2-8.6-8.2-8.6h-75.2z" style="fill:#009d45"/></svg>