<svg xmlns="http://www.w3.org/2000/svg" xmlns:xlink="http://www.w3.org/1999/xlink" xml:space="preserve" width="566.929" height="263.281" overflow="visible"><path fill="#002C5A" d="M155.993 3.777 93.312 129.729h-1.304L28.165 3.777H0v164.12h12.139V34.415h1.877l68.099 133.482h5.661l67.275-134.425h.942v134.425h27.686V3.777z"/><defs><path id="a" d="M0 .008h566.929v263.257H0z"/></defs><clipPath id="b"><use xlink:href="#a"/></clipPath><path fill="#002C5A" d="M267.851 95.667c-8.017-24.82 7.436-51.72 25.943-72.111-22.763 24.019-43.021 54.578-33.018 80.301 11.676 30.034 59.808 36.88 90.029 38.168.188-.26.4-.487.581-.754 2.489-3.534 4.664-7.42 6.541-11.621-45.399-.793-81.345-11.118-90.076-33.983" clip-path="url(#b)"/><path fill="#002C5A" d="M350.9 104.367c-57.508-.589-73.895-18.554-73.895-18.554.04.4-.141.306-.235.22.149.165.62.77 1.838 2.576 14.424 21.514 79.178 24.537 79.178 24.537 1.822.071 3.659.118 5.488.149a113.865 113.865 0 0 0 1.728-9.14c-9.501.487-14.102.212-14.102.212" clip-path="url(#b)"/><path fill="#002C5A" d="M395.641 62.21c-2.128-7.224-5.12-13.977-8.967-20.266-3.84-6.274-8.52-11.99-14.023-17.141-5.489-5.143-11.574-9.556-18.264-13.247-6.666-3.698-13.891-6.548-21.672-8.55C324.941 1.005 316.815 0 308.327 0c-8.487 0-16.614 1.005-24.388 3.007-7.773 2.002-15.005 4.852-21.671 8.55-6.682 3.69-12.775 8.104-18.271 13.247-5.497 5.15-10.176 10.867-14.016 17.141-3.848 6.289-6.839 13.042-8.959 20.266-2.12 7.224-3.172 14.769-3.172 22.621 0 8.009 1.052 15.711 3.172 23.092 2.12 7.381 5.111 14.298 8.959 20.737 3.839 6.438 8.519 12.312 14.016 17.62a89.669 89.669 0 0 0 18.271 13.599c6.667 3.777 13.898 6.706 21.671 8.787 7.773 2.08 15.9 3.117 24.388 3.117 8.488 0 16.614-1.037 24.388-3.117 7.781-2.081 15.006-5.01 21.672-8.787a89.27 89.27 0 0 0 18.264-13.599c5.504-5.309 10.184-11.182 14.023-17.62 3.847-6.438 6.839-13.372 8.967-20.799 2.111-7.413 3.172-15.091 3.172-23.03 0-7.853-1.061-15.398-3.172-22.622m-62.447 95.44c-7.231 3.918-15.516 5.881-24.867 5.881-9.579 0-18.004-1.963-25.275-5.881-7.263-3.934-13.324-9.383-18.2-16.379-4.876-6.988-8.535-15.304-11.016-24.922-2.466-9.611-3.706-20.132-3.706-31.518 0-11.228 1.24-21.538 3.706-30.921 2.481-9.391 6.14-17.478 11.016-24.27 4.876-6.8 10.938-12.076 18.2-15.861 7.271-3.761 15.696-5.653 25.275-5.653 9.352 0 17.636 1.893 24.867 5.653 7.216 3.785 13.293 9.061 18.192 15.861 4.908 6.792 8.646 14.879 11.197 24.27 2.544 9.383 3.824 19.693 3.824 30.921 0 6.769-.511 13.183-1.406 19.323a112.848 112.848 0 0 1-1.728 9.14c-.235 1.013-.432 2.065-.69 3.055-1.265 4.758-2.819 9.187-4.656 13.293-1.877 4.217-4.052 8.087-6.541 11.629-.181.267-.393.486-.589.754-4.804 6.611-10.653 11.832-17.603 15.625M432.976 3.777h66.098c8.716 0 16.732.974 24.042 2.944 7.287 1.963 13.553 4.711 18.79 8.244 5.214 3.534 9.272 7.781 12.186 12.728 2.905 4.955 4.366 10.412 4.366 16.379 0 4.476-.472 8.48-1.414 12.021-.941 3.525-2.56 6.808-4.836 9.831-2.277 3.031-5.34 5.896-9.188 8.605-3.847 2.709-8.684 5.434-14.486 8.182v.471c5.803.942 11.087 2.536 15.845 4.774 4.743 2.238 8.795 5.088 12.132 8.535 3.337 3.462 5.904 7.443 7.718 11.966 1.807 4.522 2.701 9.524 2.701 15.021 0 6.203-1.351 12.021-4.06 17.431-2.709 5.426-6.556 10.137-11.542 14.149-4.985 3.996-11.008 7.137-18.091 9.422-7.066 2.277-14.958 3.416-23.681 3.416h-76.58V3.777zm27.576 73.87h35.105c5.496 0 10.412-.777 14.73-2.355s7.946-3.745 10.891-6.541a27.854 27.854 0 0 0 6.721-9.838c1.531-3.769 2.293-7.899 2.293-12.375 0-4.782-.903-9.14-2.701-13.074-1.813-3.926-4.641-7.286-8.487-10.074-3.848-2.788-8.716-4.931-14.612-6.415-5.89-1.492-12.964-2.246-21.208-2.246h-22.731v62.918zm0 78.228h29.813c8.009 0 14.95-.762 20.847-2.293 5.896-1.539 10.757-3.675 14.612-6.431 3.84-2.74 6.698-6.062 8.535-9.948 1.845-3.887 2.764-8.15 2.764-12.775 0-5.19-.824-10.027-2.473-14.502-1.649-4.476-4.358-8.347-8.127-11.597-3.762-3.267-8.677-5.834-14.723-7.719-6.054-1.884-13.474-2.834-22.275-2.834h-28.974v68.099zM6.587 209.386c0 1.664.251 3.148.746 4.46.502 1.311 1.178 2.418 2.042 3.329a8.957 8.957 0 0 0 3.102 2.08c1.186.479 2.473.715 3.863.715.833 0 1.618-.165 2.387-.486a9.601 9.601 0 0 0 2.144-1.249c.66-.519 1.249-1.1 1.767-1.751a11.44 11.44 0 0 0 1.295-1.963l1.657 1.068a17.125 17.125 0 0 1-1.719 2.284c-.66.73-1.429 1.382-2.293 1.932-.872.565-1.861 1.013-2.952 1.351s-2.316.511-3.675.511c-1.295 0-2.521-.157-3.675-.448a13.49 13.49 0 0 1-3.172-1.256 11.531 11.531 0 0 1-2.583-1.939 12.106 12.106 0 0 1-1.939-2.497 12.608 12.608 0 0 1-1.217-2.921 12.824 12.824 0 0 1-.416-3.219c0-1.107.149-2.176.432-3.22a13.073 13.073 0 0 1 1.233-2.952 12.666 12.666 0 0 1 1.979-2.536 12.59 12.59 0 0 1 2.63-1.971 13.574 13.574 0 0 1 3.204-1.265c1.17-.313 2.411-.463 3.729-.463 1.256 0 2.411.173 3.463.511 1.052.337 2.026.785 2.897 1.342.872.55 1.649 1.202 2.324 1.939a15.695 15.695 0 0 1 1.751 2.285l-1.711 1.154c-.997-1.908-2.104-3.313-3.313-4.209-1.225-.879-2.623-1.334-4.208-1.334-1.366 0-2.639.251-3.824.753a8.918 8.918 0 0 0-3.094 2.128c-.887.927-1.578 2.05-2.088 3.369-.506 1.328-.766 2.811-.766 4.468M42.479 221.659c-1.209 0-2.387-.142-3.502-.44-1.115-.306-2.159-.722-3.117-1.264s-1.837-1.193-2.623-1.963a11.451 11.451 0 0 1-2.01-2.521 12.223 12.223 0 0 1-1.288-2.983 11.926 11.926 0 0 1-.463-3.321c0-1.123.157-2.207.463-3.251.298-1.036.73-2.01 1.288-2.905a11.389 11.389 0 0 1 2.01-2.474 13.486 13.486 0 0 1 2.623-1.9 13.278 13.278 0 0 1 3.117-1.225 13.913 13.913 0 0 1 3.502-.432c1.225 0 2.387.142 3.51.432a13.174 13.174 0 0 1 5.739 3.125c.785.746 1.46 1.563 2.01 2.474.557.896.981 1.869 1.288 2.905.306 1.044.455 2.128.455 3.251 0 1.146-.149 2.245-.455 3.313a12.378 12.378 0 0 1-1.288 2.991 11.938 11.938 0 0 1-2.01 2.521 12.624 12.624 0 0 1-2.63 1.963c-.958.542-1.995.958-3.109 1.264-1.124.298-2.286.44-3.51.44m0-1.178c1.343 0 2.536-.283 3.581-.849a7.659 7.659 0 0 0 2.615-2.355c.699-1.005 1.232-2.19 1.609-3.572.369-1.382.542-2.897.542-4.538 0-1.61-.173-3.094-.542-4.437-.377-1.351-.911-2.521-1.609-3.494a7.56 7.56 0 0 0-2.615-2.277c-1.044-.542-2.238-.809-3.581-.809-1.374 0-2.583.267-3.636.809-1.044.542-1.908 1.304-2.606 2.277s-1.233 2.144-1.586 3.494c-.353 1.343-.534 2.826-.534 4.437 0 1.641.181 3.156.534 4.538.354 1.382.888 2.567 1.586 3.572s1.563 1.798 2.606 2.355c1.052.566 2.261.849 3.636.849M60.396 197.522h4.052l9.171 18.099h.189l9.005-18.099h3.981v23.579h-3.981v-19.315h-.133l-9.674 19.315h-.808l-9.783-19.175h-.275v19.175h-1.744zM92.715 197.522h7.467c1.232 0 2.379.149 3.47.447 1.068.299 2.01.738 2.803 1.312a6.672 6.672 0 0 1 1.892 2.12c.463.832.691 1.782.691 2.857 0 1.076-.228 2.011-.667 2.804a6.103 6.103 0 0 1-1.759 1.979 7.564 7.564 0 0 1-2.489 1.17c-.935.251-1.876.385-2.834.385-.416 0-.84-.016-1.288-.039a29.397 29.397 0 0 1-1.304-.095 27.873 27.873 0 0 1-1.162-.125 5.221 5.221 0 0 1-.855-.149v10.922h-3.965v-23.588zm3.965 11.338c.439.134.918.243 1.429.369a8.085 8.085 0 0 0 1.57.157c.848 0 1.61-.118 2.238-.377a4.376 4.376 0 0 0 1.594-1.053 4.39 4.39 0 0 0 .95-1.555 5.829 5.829 0 0 0 .307-1.907c0-.786-.126-1.508-.409-2.16-.282-.644-.651-1.201-1.13-1.648a5.08 5.08 0 0 0-1.672-1.044 5.638 5.638 0 0 0-2.073-.377H96.68v9.595zM120.204 196.98l11.11 24.129h-4.036l-3.596-7.876h-10.113l-3.729 7.876h-1.971l11.354-24.129h.981zm-5.936 14.73h8.684l-4.287-9.328-4.397 9.328zM147.097 198.668c-1.421 0-2.732.259-3.934.762a9.144 9.144 0 0 0-3.102 2.167c-.879.941-1.555 2.072-2.042 3.407-.487 1.327-.722 2.827-.722 4.491 0 1.649.251 3.148.793 4.483.534 1.327 1.249 2.466 2.167 3.4a9.427 9.427 0 0 0 3.227 2.175c1.249.502 2.576.762 3.997.762 1.037 0 1.979-.149 2.819-.424a7.301 7.301 0 0 0 2.23-1.21v-8.283h-4.452v-1.397h8.417v10.38c-.691.369-1.382.699-2.088.981-.691.282-1.453.526-2.254.715-.809.204-1.704.345-2.677.439-.981.102-2.081.149-3.313.149-1.304 0-2.536-.149-3.714-.44a15.311 15.311 0 0 1-3.274-1.232 13.952 13.952 0 0 1-2.709-1.916 12.203 12.203 0 0 1-2.049-2.473 11.541 11.541 0 0 1-1.311-2.905 11.179 11.179 0 0 1-.456-3.204c0-1.115.149-2.19.439-3.234a12.788 12.788 0 0 1 1.256-2.969 12.548 12.548 0 0 1 4.641-4.546 13.614 13.614 0 0 1 3.204-1.304 14.47 14.47 0 0 1 3.698-.463c1.256 0 2.418.173 3.471.511 1.052.337 2.025.785 2.889 1.342a11.708 11.708 0 0 1 2.332 1.939 14.52 14.52 0 0 1 1.735 2.285l-1.704 1.154c-.998-1.908-2.097-3.306-3.322-4.2-1.208-.886-2.606-1.342-4.192-1.342M162 197.522h2.214l15.453 17.234h.157v-17.234h1.742v24.145h-.918l-16.74-19.191h-.134v18.625H162zM187.495 197.522h3.958v23.587h-3.958zM213.775 197.522v1.523h-12.429v8.425h8.307v1.531h-8.307v10.584h12.429v1.516H197.38v-23.579zM228.333 197.514h7.836c2.426 0 4.523.235 6.266.683 1.735.456 3.188 1.178 4.357 2.167 1.327 1.131 2.332 2.435 3.007 3.902.667 1.477 1.005 3.086 1.005 4.837 0 1.657-.307 3.212-.911 4.672a10.914 10.914 0 0 1-2.638 3.816c-1.162 1.083-2.591 1.947-4.287 2.575-1.704.628-3.643.942-5.834.942h-8.802v-23.594zm3.957 21.867h4.201c1.335 0 2.591-.22 3.761-.659a8.857 8.857 0 0 0 3.07-1.955c.879-.864 1.563-1.932 2.073-3.204.502-1.271.754-2.732.754-4.396 0-1.445-.244-2.772-.715-3.989-.479-1.201-1.146-2.254-1.986-3.125a9.056 9.056 0 0 0-3.046-2.05c-1.186-.494-2.474-.745-3.879-.745h-4.232v20.123zM255.288 197.522h3.957v15.303c0 1.005.173 1.947.519 2.835.345.887.84 1.664 1.484 2.332a6.899 6.899 0 0 0 2.324 1.57c.895.393 1.908.573 3.031.573 1.123 0 2.136-.181 3.046-.573.895-.385 1.672-.903 2.301-1.57a6.893 6.893 0 0 0 1.453-2.332c.337-.888.518-1.83.518-2.835v-15.303h1.743v15.303a9.87 9.87 0 0 1-.596 3.416 7.31 7.31 0 0 1-1.837 2.811c-.833.801-1.9 1.445-3.204 1.916-1.303.464-2.874.699-4.695.699-1.625 0-3.07-.235-4.319-.699-1.256-.471-2.308-1.115-3.148-1.924a7.964 7.964 0 0 1-1.924-2.85 9.226 9.226 0 0 1-.651-3.455v-15.217zM294.939 209.386c0 1.664.252 3.148.746 4.46.503 1.311 1.178 2.418 2.05 3.329a8.958 8.958 0 0 0 3.086 2.08c1.193.479 2.488.715 3.87.715.817 0 1.626-.165 2.388-.486a9.548 9.548 0 0 0 2.136-1.249c.667-.519 1.256-1.1 1.782-1.751.511-.636.942-1.296 1.288-1.963l1.648 1.068a15.791 15.791 0 0 1-1.72 2.284 11.111 11.111 0 0 1-2.285 1.932 11.956 11.956 0 0 1-2.952 1.351c-1.083.338-2.316.511-3.667.511-1.303 0-2.528-.157-3.674-.448a13.29 13.29 0 0 1-3.181-1.256 11.554 11.554 0 0 1-2.583-1.939 11.333 11.333 0 0 1-1.932-2.497 11.911 11.911 0 0 1-1.217-2.921 12.133 12.133 0 0 1-.424-3.219c0-1.107.141-2.176.432-3.22a12.36 12.36 0 0 1 1.24-2.952 12.104 12.104 0 0 1 1.971-2.536 12.57 12.57 0 0 1 2.631-1.971 13.703 13.703 0 0 1 3.203-1.265c1.17-.313 2.403-.463 3.729-.463 1.249 0 2.411.173 3.463.511 1.061.337 2.026.785 2.89 1.342.88.55 1.657 1.202 2.332 1.939.675.738 1.265 1.492 1.743 2.285l-1.712 1.154c-.989-1.908-2.097-3.313-3.313-4.209-1.217-.879-2.614-1.334-4.192-1.334-1.374 0-2.646.251-3.832.753a9.024 9.024 0 0 0-3.102 2.128c-.88.927-1.57 2.05-2.081 3.369-.501 1.328-.761 2.811-.761 4.468M322.807 209.794v11.315h-3.966v-23.587h3.966v10.749h11.847v-10.749h3.966v23.587h-3.966v-11.315zM360.942 197.522v1.523h-12.428v8.425h8.306v1.531h-8.306v10.584h12.428v1.516h-16.394v-23.579zM365.34 197.522h4.052l9.178 18.099h.181l9.006-18.099h3.981v23.579h-3.981v-19.315h-.126l-9.673 19.315h-.816l-9.785-19.175h-.274v19.175h-1.743zM397.666 197.522h3.965v23.587h-3.965zM407.552 197.522h2.214l15.461 17.234h.156v-17.234h1.735v24.145h-.91l-16.748-19.191h-.134v18.625h-1.774zM443.207 197.514h7.844c2.427 0 4.507.235 6.25.683 1.751.456 3.204 1.178 4.366 2.167 1.327 1.131 2.332 2.435 2.999 3.902.676 1.477 1.005 3.086 1.005 4.837 0 1.657-.29 3.212-.895 4.672a11.043 11.043 0 0 1-2.646 3.816c-1.162 1.083-2.583 1.947-4.279 2.575-1.704.628-3.651.942-5.834.942h-8.81v-23.594zm3.965 21.867h4.201c1.327 0 2.583-.22 3.761-.659a8.941 8.941 0 0 0 3.07-1.955c.879-.864 1.563-1.932 2.065-3.204.502-1.271.761-2.732.761-4.396 0-1.445-.243-2.772-.722-3.989-.472-1.201-1.131-2.254-1.995-3.125a8.868 8.868 0 0 0-3.038-2.05c-1.178-.494-2.474-.745-3.871-.745h-4.232v20.123zM486.981 197.522v1.523h-12.429v8.425h8.307v1.531h-8.307v10.584h12.429v1.516h-16.395v-23.579zM516.999 197.522v1.523h-11.495v8.425h8.314v1.531h-8.314v12.1h-3.966v-23.579zM536.519 197.522v1.523h-12.43v8.425h8.323v1.531h-8.323v10.584h12.43v1.516h-16.395v-23.579zM540.924 197.514h8.158c1.421 0 2.669.165 3.737.463 1.067.307 1.955.73 2.661 1.28.715.541 1.257 1.193 1.61 1.939.361.762.55 1.578.55 2.473 0 .73-.142 1.414-.425 2.058-.267.636-.667 1.201-1.17 1.72a7.465 7.465 0 0 1-1.829 1.343c-.715.377-1.5.667-2.363.871l8.598 11.448h-4.594l-8.189-11.087h-2.779v11.087h-3.965v-23.595zm3.965 11.315h2.277c.902 0 1.712-.118 2.473-.354a6.552 6.552 0 0 0 1.955-1.005 4.583 4.583 0 0 0 1.76-3.667 5.05 5.05 0 0 0-.369-1.939 4.594 4.594 0 0 0-1.037-1.523 4.633 4.633 0 0 0-1.578-.989 5.464 5.464 0 0 0-1.994-.354h-3.486v9.831zM2.968 239.128H7.02l9.17 18.099h.189l8.998-18.099h3.981v23.588h-3.981V243.4h-.133l-9.666 19.316h-.809l-9.791-19.182h-.267v19.182H2.968zM47.166 263.281a13.526 13.526 0 0 1-6.619-1.719 12.946 12.946 0 0 1-2.623-1.947c-.793-.77-1.46-1.61-2.01-2.536a12.213 12.213 0 0 1-1.288-2.984 11.833 11.833 0 0 1-.463-3.321c0-1.123.157-2.206.463-3.242a11.62 11.62 0 0 1 1.288-2.913c.55-.911 1.217-1.72 2.01-2.458a13.073 13.073 0 0 1 5.74-3.14 13.874 13.874 0 0 1 3.502-.432c1.225 0 2.387.141 3.51.432 1.115.29 2.151.698 3.109 1.232a12.636 12.636 0 0 1 2.63 1.908c.785.738 1.46 1.547 2.018 2.458.542.91.981 1.868 1.288 2.913.298 1.036.456 2.119.456 3.242 0 1.154-.157 2.254-.456 3.313a13.03 13.03 0 0 1-1.288 2.992 12.765 12.765 0 0 1-2.018 2.536 12.551 12.551 0 0 1-2.63 1.947 13.26 13.26 0 0 1-3.109 1.264 13.542 13.542 0 0 1-3.51.455m0-1.194c1.343 0 2.536-.282 3.581-.848a7.659 7.659 0 0 0 2.615-2.355c.707-1.005 1.232-2.19 1.602-3.572.377-1.383.55-2.897.55-4.539 0-1.609-.173-3.094-.55-4.437-.369-1.351-.895-2.521-1.602-3.485a7.583 7.583 0 0 0-2.615-2.285c-1.044-.534-2.238-.809-3.581-.809-1.374 0-2.591.274-3.627.809a7.391 7.391 0 0 0-2.615 2.285c-.707.965-1.233 2.135-1.586 3.485-.354 1.343-.534 2.827-.534 4.437 0 1.642.181 3.156.534 4.539.353 1.382.879 2.567 1.586 3.572.699 1.005 1.57 1.798 2.615 2.355 1.036.566 2.253.848 3.627.848M64.982 239.128h2.214l15.461 17.244h.149v-17.244h1.743v24.145h-.911l-16.74-19.182h-.142v18.625h-1.774zM109.133 239.128v1.524h-8.527v22.064h-3.965v-22.064h-8.559v-1.524zM112.667 239.128h8.166c1.421 0 2.669.157 3.729.456 1.068.306 1.963.738 2.669 1.279.707.55 1.256 1.201 1.61 1.947.361.746.542 1.578.542 2.466 0 .738-.141 1.421-.416 2.065a5.57 5.57 0 0 1-1.186 1.719 7.641 7.641 0 0 1-1.814 1.343c-.714.369-1.5.668-2.363.864l8.59 11.448h-4.585l-8.205-11.095h-2.771v11.095h-3.965v-23.587zm3.965 11.316h2.285c.895 0 1.712-.126 2.458-.354.762-.244 1.414-.581 1.955-1.005a4.65 4.65 0 0 0 1.304-1.595c.306-.62.455-1.311.455-2.08 0-.699-.11-1.343-.369-1.932a4.117 4.117 0 0 0-1.029-1.523 4.439 4.439 0 0 0-1.57-.989 5.31 5.31 0 0 0-1.995-.369h-3.494v9.847zM151.439 239.128v1.524h-12.43v8.433h8.316v1.523h-8.316v10.585h12.43v1.523h-16.395v-23.588zM155.349 239.128h3.958v15.304c0 1.013.173 1.955.526 2.843a6.908 6.908 0 0 0 1.484 2.324 6.83 6.83 0 0 0 2.316 1.578c.903.377 1.916.573 3.031.573 1.123 0 2.144-.196 3.047-.573a6.753 6.753 0 0 0 2.3-1.578 7.066 7.066 0 0 0 1.453-2.324c.338-.888.51-1.83.51-2.843v-15.304h1.743v15.304a9.966 9.966 0 0 1-.581 3.416 7.485 7.485 0 0 1-1.837 2.811c-.84.809-1.908 1.444-3.211 1.908-1.304.471-2.866.706-4.696.706-1.633 0-3.062-.235-4.318-.706-1.256-.464-2.309-1.107-3.148-1.916a8.104 8.104 0 0 1-1.924-2.843 9.248 9.248 0 0 1-.652-3.454v-15.226zM180.271 262.716h-2.081l9.941-11.636-9.061-11.944h4.711l6.839 9.054 7.718-9.054h2.097l-8.857 10.365 10.042 13.215h-4.719l-7.804-10.325zM226.605 263.281c-1.209 0-2.387-.156-3.502-.455a13.382 13.382 0 0 1-3.125-1.264 12.896 12.896 0 0 1-2.615-1.947 11.943 11.943 0 0 1-2.01-2.536 12.213 12.213 0 0 1-1.288-2.984 11.833 11.833 0 0 1-.463-3.321c0-1.123.157-2.206.463-3.242a11.62 11.62 0 0 1 1.288-2.913 11.118 11.118 0 0 1 2.01-2.458 12.975 12.975 0 0 1 2.615-1.908 13.268 13.268 0 0 1 3.125-1.232 13.874 13.874 0 0 1 3.502-.432c1.225 0 2.387.141 3.51.432 1.115.29 2.151.698 3.109 1.232.966.526 1.83 1.162 2.63 1.908.785.738 1.46 1.547 2.01 2.458.549.91.981 1.868 1.288 2.913.306 1.036.456 2.119.456 3.242 0 1.154-.149 2.254-.456 3.313a12.69 12.69 0 0 1-1.288 2.992 12.444 12.444 0 0 1-2.01 2.536 12.762 12.762 0 0 1-2.63 1.947c-.958.541-1.995.966-3.109 1.264a13.542 13.542 0 0 1-3.51.455m0-1.194c1.343 0 2.536-.282 3.581-.848a7.659 7.659 0 0 0 2.615-2.355c.699-1.005 1.232-2.19 1.609-3.572.369-1.383.542-2.897.542-4.539 0-1.609-.173-3.094-.542-4.437-.377-1.351-.911-2.521-1.609-3.485a7.583 7.583 0 0 0-2.615-2.285c-1.044-.534-2.238-.809-3.581-.809-1.374 0-2.591.274-3.635.809-1.044.542-1.908 1.312-2.607 2.285-.699.965-1.233 2.135-1.586 3.485-.354 1.343-.534 2.827-.534 4.437 0 1.642.181 3.156.534 4.539.353 1.382.887 2.567 1.586 3.572s1.563 1.798 2.607 2.355c1.044.566 2.261.848 3.635.848M244.413 239.128h9.501c1.256 0 2.41.142 3.455.425 1.052.282 1.955.675 2.701 1.186.746.502 1.334 1.114 1.751 1.829.424.707.62 1.5.62 2.348 0 .644-.063 1.225-.196 1.728a4.036 4.036 0 0 1-.691 1.421c-.322.433-.77.841-1.319 1.233a14.44 14.44 0 0 1-2.088 1.178v.07c.84.126 1.594.361 2.277.684a5.749 5.749 0 0 1 1.743 1.232c.487.486.856 1.06 1.115 1.712.259.651.385 1.366.385 2.159 0 .895-.196 1.72-.581 2.505a6.031 6.031 0 0 1-1.657 2.033c-.723.581-1.579 1.028-2.607 1.358-1.013.322-2.144.487-3.4.487h-11.008v-23.588zm3.965 10.624h5.041c.793 0 1.5-.118 2.12-.346a4.472 4.472 0 0 0 1.563-.935c.432-.4.754-.879.966-1.413.228-.55.338-1.139.338-1.782 0-.691-.134-1.319-.393-1.877-.259-.565-.667-1.044-1.225-1.452-.55-.4-1.249-.707-2.096-.919-.84-.22-1.854-.321-3.047-.321h-3.266v9.045zm0 11.237h4.287c1.154 0 2.144-.11 2.991-.33.848-.22 1.555-.526 2.104-.927.55-.393.958-.863 1.225-1.429.267-.55.4-1.162.4-1.83 0-.745-.118-1.444-.361-2.08a3.958 3.958 0 0 0-1.162-1.673c-.542-.471-1.249-.84-2.12-1.115-.864-.274-1.939-.4-3.195-.4h-4.169v9.784zM283.767 239.128v1.524h-12.438v8.433h8.316v1.523h-8.316v10.585h12.438v1.523h-16.395v-23.588zM288.101 239.128h8.158c1.421 0 2.67.157 3.729.456 1.068.306 1.963.738 2.67 1.279.707.55 1.248 1.201 1.609 1.947s.542 1.578.542 2.466c0 .738-.142 1.421-.416 2.065a5.938 5.938 0 0 1-1.17 1.719 7.996 7.996 0 0 1-1.837 1.343 9.73 9.73 0 0 1-2.356.864l8.591 11.448h-4.594l-8.189-11.095h-2.779v11.095h-3.958v-23.587zm3.958 11.316h2.284c.896 0 1.712-.126 2.474-.354.746-.244 1.397-.581 1.939-1.005a4.65 4.65 0 0 0 1.304-1.595c.306-.62.471-1.311.471-2.08 0-.699-.134-1.343-.377-1.932a4.472 4.472 0 0 0-2.606-2.512 5.35 5.35 0 0 0-2.002-.369h-3.486v9.847zM310.479 239.128h3.958v22.065h11.872v1.523h-15.83zM339.005 238.587l11.11 24.129h-4.021l-3.611-7.868h-10.105l-3.737 7.868h-1.972l11.354-24.129h.982zm-5.937 14.73h8.685l-4.287-9.328-4.398 9.328zM353.052 239.128h2.221l15.461 17.244h.157v-17.244h1.735v24.145h-.91l-16.748-19.182h-.134v18.625h-1.782zM378.452 239.128h7.845c2.426 0 4.507.229 6.25.684 1.743.447 3.203 1.178 4.365 2.159 1.327 1.139 2.324 2.435 3 3.902.675 1.484 1.005 3.086 1.005 4.845 0 1.656-.299 3.211-.896 4.672a11.052 11.052 0 0 1-2.646 3.816c-1.161 1.083-2.583 1.947-4.279 2.575-1.703.62-3.65.935-5.842.935h-8.802v-23.588zm3.966 21.861h4.192c1.335 0 2.591-.212 3.77-.66a8.65 8.65 0 0 0 3.069-1.963c.88-.855 1.563-1.916 2.058-3.188.511-1.28.762-2.74.762-4.397 0-1.452-.235-2.779-.715-3.988-.471-1.217-1.131-2.262-1.994-3.125a9.006 9.006 0 0 0-3.039-2.058c-1.178-.486-2.473-.738-3.871-.738h-4.231v20.117zM415.851 239.128h9.501c1.249 0 2.402.142 3.455.425 1.052.282 1.947.675 2.701 1.186a5.53 5.53 0 0 1 1.751 1.829c.416.707.628 1.5.628 2.348 0 .644-.07 1.225-.204 1.728a4.196 4.196 0 0 1-.691 1.421c-.329.433-.77.841-1.326 1.233-.55.385-1.249.785-2.081 1.178v.07a8.175 8.175 0 0 1 2.277.684c.69.321 1.264.729 1.743 1.232.479.486.848 1.06 1.106 1.712.268.651.393 1.366.393 2.159 0 .895-.196 1.72-.581 2.505a6.137 6.137 0 0 1-1.656 2.033c-.715.581-1.586 1.028-2.607 1.358-1.013.322-2.144.487-3.399.487h-11.009v-23.588zm3.965 10.624h5.049c.785 0 1.491-.118 2.111-.346a4.518 4.518 0 0 0 1.571-.935c.416-.4.737-.879.966-1.413.212-.55.329-1.139.329-1.782a4.4 4.4 0 0 0-.393-1.877c-.259-.565-.659-1.044-1.217-1.452-.558-.4-1.257-.707-2.104-.919-.848-.22-1.86-.321-3.055-.321h-3.258v9.045zm0 11.237h4.287c1.146 0 2.144-.11 2.991-.33.849-.22 1.547-.526 2.104-.927.542-.393.966-.863 1.217-1.429.275-.55.408-1.162.408-1.83 0-.745-.125-1.444-.369-2.08a3.83 3.83 0 0 0-1.162-1.673c-.541-.471-1.248-.84-2.111-1.115-.872-.274-1.939-.4-3.204-.4h-4.161v9.784zM455.196 239.128v1.524h-12.428v8.433h8.322v1.523h-8.322v10.585h12.428v1.523h-16.394v-23.588zM459.531 239.128h8.158c1.429 0 2.661.157 3.737.456 1.067.306 1.955.738 2.661 1.279.715.55 1.249 1.201 1.61 1.947s.55 1.578.55 2.466a5.31 5.31 0 0 1-.417 2.065 5.665 5.665 0 0 1-1.178 1.719 7.735 7.735 0 0 1-1.829 1.343c-.707.369-1.5.668-2.355.864l8.582 11.448h-4.594l-8.189-11.095h-2.771v11.095h-3.965v-23.587zm3.965 11.316h2.285c.887 0 1.712-.126 2.465-.354a6.434 6.434 0 0 0 1.947-1.005c.558-.448.99-.966 1.304-1.595.307-.62.464-1.311.464-2.08 0-.699-.126-1.343-.377-1.932a4.318 4.318 0 0 0-1.029-1.523 4.472 4.472 0 0 0-1.578-.989 5.347 5.347 0 0 0-2.002-.369h-3.479v9.847zM481.917 239.128h2.214l15.452 17.244h.157v-17.244h1.743v24.145h-.919l-16.74-19.182h-.133v18.625h-1.774zM519.292 263.281a13.47 13.47 0 0 1-6.611-1.719 12.362 12.362 0 0 1-2.631-1.947 13.09 13.09 0 0 1-2.018-2.536 13.12 13.12 0 0 1-1.288-2.984 12.129 12.129 0 0 1-.447-3.321c0-1.123.149-2.206.447-3.242a12.554 12.554 0 0 1 1.288-2.913 12.068 12.068 0 0 1 2.018-2.458 12.435 12.435 0 0 1 2.631-1.908 13.146 13.146 0 0 1 3.109-1.232 13.817 13.817 0 0 1 3.502-.432c1.225 0 2.395.141 3.51.432 1.114.29 2.151.698 3.109 1.232a12.429 12.429 0 0 1 2.63 1.908 12.101 12.101 0 0 1 2.018 2.458c.55.91.982 1.868 1.288 2.913.299 1.036.455 2.119.455 3.242 0 1.154-.156 2.254-.455 3.313a12.69 12.69 0 0 1-1.288 2.992 12.948 12.948 0 0 1-2.018 2.536 12.322 12.322 0 0 1-2.63 1.947c-.958.541-1.995.966-3.109 1.264a13.497 13.497 0 0 1-3.51.455m0-1.194c1.351 0 2.536-.282 3.572-.848 1.044-.558 1.916-1.351 2.614-2.355.715-1.005 1.249-2.19 1.618-3.572.361-1.383.541-2.897.541-4.539 0-1.609-.18-3.094-.541-4.437-.369-1.351-.903-2.521-1.618-3.485a7.37 7.37 0 0 0-2.614-2.285c-1.036-.534-2.222-.809-3.572-.809-1.382 0-2.584.274-3.628.809a7.449 7.449 0 0 0-2.614 2.285c-.699.965-1.226 2.135-1.587 3.485-.353 1.343-.525 2.827-.525 4.437 0 1.642.173 3.156.525 4.539.361 1.382.888 2.567 1.587 3.572a7.485 7.485 0 0 0 2.614 2.355c1.044.566 2.246.848 3.628.848M537.1 239.128h3.965v23.588H537.1zM553.337 261.766c.589 0 1.17-.079 1.743-.236a4.658 4.658 0 0 0 1.516-.714 3.595 3.595 0 0 0 1.076-1.154c.274-.464.416-.981.416-1.586 0-.723-.188-1.366-.565-1.924-.369-.558-.864-1.076-1.461-1.547a13.285 13.285 0 0 0-2.08-1.327c-.777-.416-1.57-.832-2.379-1.24a69.814 69.814 0 0 1-2.38-1.319 12.313 12.313 0 0 1-2.072-1.516 7.242 7.242 0 0 1-1.461-1.885c-.369-.698-.565-1.499-.565-2.395 0-.902.173-1.743.519-2.521.33-.77.824-1.437 1.484-2.002a7.182 7.182 0 0 1 2.41-1.327c.958-.33 2.049-.486 3.298-.486 2.229 0 3.996.471 5.292 1.405 1.288.942 2.222 2.293 2.803 4.06l-2.033.942c-.243-.73-.534-1.391-.911-1.987a6.301 6.301 0 0 0-1.318-1.547 5.683 5.683 0 0 0-1.775-.989c-.659-.228-1.413-.345-2.245-.345-.746 0-1.397.109-1.955.313a4.432 4.432 0 0 0-1.39.816c-.369.33-.637.707-.833 1.131a3.185 3.185 0 0 0-.274 1.296c0 .62.196 1.193.581 1.704.377.518.888.997 1.492 1.468.628.463 1.335.903 2.144 1.335.801.416 1.617.84 2.441 1.28.824.447 1.649.902 2.45 1.374.801.479 1.508.997 2.136 1.563a7.503 7.503 0 0 1 1.499 1.853c.385.676.581 1.421.581 2.238 0 .941-.18 1.821-.533 2.638a6.067 6.067 0 0 1-1.594 2.151c-.723.612-1.603 1.1-2.654 1.453-1.061.353-2.285.541-3.683.541-1.131 0-2.144-.133-3.031-.385a7.743 7.743 0 0 1-2.363-1.075 7.139 7.139 0 0 1-1.751-1.751 9.654 9.654 0 0 1-1.201-2.332l2.136-.88c.243.77.581 1.453.997 2.065a6.539 6.539 0 0 0 1.461 1.547 6.38 6.38 0 0 0 1.86.966 7.021 7.021 0 0 0 2.172.331" clip-path="url(#b)"/></svg>