<svg xmlns="http://www.w3.org/2000/svg" width="500" height="134.24" version="1.0"><path d="M0 0c-.077.489.509 2.749 2.65 2.749l7.166-.004.803 3.541h-7.81c-5.592 0-6.672-4.862-6.835-6.286H0z" style="fill:#c56c22;fill-opacity:1;fill-rule:nonzero;stroke:none" transform="matrix(6.18469 0 0 -6.18469 333.268 48.886)"/><path d="m0 0-.865-3.66h8.251c2.327 0 6.154.939 6.722 6.067.167 1.51-.579 4.965-4.308 4.965H1.599c.005-.464.506-3.432 4.317-3.638l2.625.003h.016v-.001c.973-.009 1.798-.597 1.574-1.796C9.944.941 9.31.006 7.658.006L0 0z" style="fill:#c56c22;fill-opacity:1;fill-rule:nonzero;stroke:none" transform="matrix(6.18469 0 0 -6.18469 297.805 101.604)"/><path d="m0 0 8.677 7.39-5.525.001-10.716-9.003 7.217-9.454h5.174L-.936-3.689h8.381l.83 3.656H-.044L0 0z" style="fill:#c56c22;fill-opacity:1;fill-rule:nonzero;stroke:none" transform="matrix(6.18469 0 0 -6.18469 56.781 55.711)"/><path d="M0 0h-5.175L.628-7.426h-8.421l-.829-3.657h8.256l-8.657-7.373 5.524-.001L7.217-9.455 0 0z" style="fill:#c56c22;fill-opacity:1;fill-rule:nonzero;stroke:none" transform="matrix(6.18469 0 0 -6.18469 445.365 10.003)"/><path d="m0 0 .849 3.732 4.364.001c.988-.004 1.611-.793 1.387-1.782C6.344.827 5.608.002 4.372.002h-.003L0 0zm8.032 5.766s3.154.767 3.755 4.19c.552 3.141-1.216 4.87-4.254 4.852H-.649l-1.428-6.281 4.003.004.621 2.74 4.182.001c.461.002 1.721-.269 1.399-1.96-.27-1.421-1.59-1.928-2.606-1.932-.261-.001-7.859.001-7.859.001L-4.839-3.651h9.326c1.796 0 5.158 1.186 5.952 4.689.844 3.719-2.235 4.674-2.408 4.726l.001.002z" style="fill:#c56c22;fill-opacity:1;fill-rule:nonzero;stroke:none" transform="matrix(6.18469 0 0 -6.18469 228.635 101.626)"/><path d="M0 0h-8.184l-1.427-6.28 4.189.002.625 2.741 3.993.001c.46.003 1.722-.269 1.399-1.96-.271-1.421-1.59-1.927-2.606-1.932-.261-.001-7.859.001-7.859.001l-2.499-11.029h4.185l1.676 7.38h3.982c.733 0 1.262-.117 1.386-.732.1-.49-.053-1.068-.053-1.068l-1.176-5.58h4.096l1.226 5.406s.414 1.569-.265 2.674C2.127-9.464.687-9.039.508-9.04c.198.045 3.398.819 3.981 4.135C5.041-1.763 2.75.007 0 0" style="fill:#c56c22;fill-opacity:1;fill-rule:nonzero;stroke:none" transform="matrix(6.18469 0 0 -6.18469 178.514 10.009)"/></svg>