<?xml version="1.0" encoding="utf-8"?>
<!-- Generator: Adobe Illustrator 21.0.0, SVG Export Plug-In . SVG Version: 6.00 Build 0)  -->
<svg version="1.2" baseProfile="tiny" id="Layer_1" xmlns="http://www.w3.org/2000/svg" xmlns:xlink="http://www.w3.org/1999/xlink"
	 x="0px" y="0px" viewBox="0 0 170 40.4" width="170" height="41" overflow="inherit" xml:space="preserve">
<path fill="#FF6600" d="M59.7,0H41.8l-3.1,13.8l9.2,0l1.4-6h8.7c1,0,3.8,0.6,3.1,4.3c-0.6,3.1-3.5,4.2-5.7,4.2c-0.6,0-17.2,0-17.2,0
	l-5.5,24.2h9.2l3.7-16.2h8.7c1.6,0,2.8,0.3,3,1.6c0.2,1.1-0.1,2.3-0.1,2.3l-2.6,12.2h9l2.7-11.8c0,0,0.9-3.4-0.6-5.9
	c-1.2-2-4.4-2.9-4.8-2.9c0.4-0.1,7.4-1.8,8.7-9.1C70.7,3.9,65.7,0,59.7,0"/>
<path fill="#FF6600" d="M114.5,13.8c-0.2-1.1,1.1-6,5.8-6l15.7,0l1.8-7.8h-17.1c-12.2,0-14.6,10.7-15,13.8H114.5z"/>
<path fill="#FF6600" d="M101.9,32.4l-1.9,8h18.1c5.1,0,13.5-2.1,14.7-13.3c0.4-3.3-1.3-10.9-9.4-10.9h-18c0,1,1.1,7.5,9.5,8l5.7,0h0
	h0v0c2.1,0,3.9,1.3,3.4,3.9c-0.4,2.2-1.8,4.2-5.4,4.2L101.9,32.4z"/>
<polygon fill="#FF6600" points="16.6,16.2 35.6,0 23.5,0 0,19.7 15.8,40.4 27.1,40.4 14.5,24.3 32.9,24.3 34.7,16.3 16.5,16.3 "/>
<polygon fill="#FF6600" points="154.2,0 142.9,0 155.6,16.3 137.1,16.3 135.3,24.3 153.4,24.3 134.4,40.4 146.5,40.4 170,20.7 "/>
<path fill="#FF6600" d="M95,19.8c0,0,6.9-1.7,8.2-9.2C104.5,3.8,100.6,0,93.9,0H76l-3.1,13.8l8.8,0l1.4-6h9.2c1,0,3.8,0.6,3.1,4.3
	c-0.6,3.1-3.5,4.2-5.7,4.2c-0.6,0-17.2,0-17.2,0l-5.5,24.2h20.4c3.9,0,11.3-2.6,13-10.3C102.1,22,95.4,19.9,95,19.8L95,19.8z
	 M77.4,32.4l1.9-8.2h9.6c2.2,0,3.5,1.7,3,3.9c-0.6,2.5-2.2,4.3-4.9,4.3h0L77.4,32.4z"/>
</svg>
