<svg xmlns="http://www.w3.org/2000/svg" width="2029.333" height="549.333" version="1.0" viewBox="0 0 1522 412"><path d="M0 2065V10h15210v4110H0V2065zm8437 975c88-53 83-198-9-246-95-49-211 19-211 125 0 81 61 141 143 141 27 0 58-8 77-20zm-1837-196v-206l38 39c84 87 215 70 267-33 18-36 20-62 23-312l3-273-123 3-123 3-5 204c-4 179-7 205-22 215-14 8-22 7-35-7-16-15-19-44-23-215l-5-197h-240l-3 493-2 492h250v-206zm3268-8-3-213 22 32c34 50 85 77 144 77 65-1 107-26 139-83 25-44 25-47 28-317l3-273-123 3-123 3-3 199c-2 194-7 226-36 226-38-1-41-15-46-222l-5-203h-240l-3 493-2 492h251l-3-214zm3182 2v-213l31 38c39 47 80 69 133 69 57 0 87-14 123-55 46-53 54-108 51-377l-3-235h-240l-5 203c-4 165-8 205-20 212-20 13-23 12-45-4-18-13-20-31-23-215l-4-202-122 3-121 3-3 480c-1 264 0 486 3 493 3 9 38 12 125 12h120v-212zm-5767 132c87-97-48-228-145-141-28 25-33 36-33 74 0 100 111 141 178 67zm245 20c61-38 67-117 11-164-45-38-92-35-135 8-41 41-46 89-13 130 38 49 85 57 137 26zm-2468-100v-110H2365l-119-119-119-119 76-83c43-45 77-86 77-91 0-4-70-8-156-8h-156l-64 61c-69 67-86 108-63 150 22 43 359 383 401 407l41 22h2777v-110zm907 100c121-20 196-70 237-160 30-66 30-209-1-266-21-40-78-97-104-106-10-3 13-59 79-192 50-103 92-192 92-197 0-6-57-8-137-7l-138 3-65 180-65 179-3-182-2-183-128 3-127 3-3 455c-1 250 0 461 3 468 6 15 269 17 362 2zm5855-18c137-54 205-205 149-328-20-44-76-93-107-95-13 0-7-6 16-16 48-20 97-70 111-111 28-85 7-197-48-262-70-82-156-102-408-98l-160 3-3 468-2 469 197-4c176-4 204-7 255-26zm-3762-156v-95l38-3 37-3v-190l-37-3-38-3-2-227-3-227-122-3-123-3v461h-70v200h70v190h250v-94zm-743-104c12-7 32-25 45-42l24-30-4 40-4 40h252l-2-327-3-328h-240l3 42 4 41-45-43c-52-49-101-63-165-46-51 14-93 61-123 138-21 51-23 75-23 198 0 121 3 147 22 195 49 123 159 175 259 122zm1681-4c37-12 62-25 62-34 0-10-52-126-77-173-1-1-17 9-36 23-20 16-47 26-66 26-28 0-32-3-29-22 2-17 22-32 78-60 88-44 125-81 141-140 41-152-114-296-296-274-57 6-148 37-179 59-17 12-16 18 24 98 23 46 44 85 45 87s19-8 40-22c47-32 70-39 101-32 19 5 24 12 22 28s-19 28-66 47c-110 46-162 105-162 186 0 120 79 204 210 224 59 10 111 4 188-21zm493 22c18 0 20-7 17-107l-3-107-32-8c-17-5-41-20-52-34-42-54-17-168 39-180 14-3 31-7 38-10 9-2 12-34 12-113 0-121 0-121-69-121-116 0-226 79-271 195-36 91-34 219 3 300 32 69 85 128 141 157 41 21 121 38 144 32 8-2 22-4 33-4zm1243-25c45-21 103-85 127-139 18-41 39-147 39-198v-28h-358l8-34c4-18 10-39 14-45 12-18 55-13 68 9 12 18 24 20 136 20 123 0 123 0 117-22-54-182-242-266-424-188-104 45-162 151-163 296-1 153 61 272 173 329 66 35 190 34 263 0zm1627 9c15-7 39-28 54-46l28-33-8 43-7 42h252v-660h-240v83l-44-41c-64-59-131-67-203-23-124 76-153 435-46 579 56 75 135 96 214 56zm1657-11c14-10 35-37 46-59 20-36 21-59 24-312l3-273-123 3-123 3-3 199c-2 194-7 226-36 226-38-1-41-15-46-222l-5-203h-240l-3 328-2 327h250v-82l39 40c60 61 155 73 219 25zm-5538-313v-331l-122 3-123 3-3 315c-1 173 0 320 3 327 3 10 37 13 125 13h120v-330zm-5675 298c74-33 70-139-6-178l-33-17 57-60c31-33 57-63 57-66 0-4-47-7-105-7h-105l-44 61-45 62-3-59-3-59h-160l-3 168-2 167h184c122 0 194-4 211-12zm303-50 3-57 37 16c56 23 175 15 204-15 21-20 23-32 23-120v-97h-170l-5 80-5 80-31 3c-42 4-53-13-56-93l-3-70h-170l-3 168-2 168 87-3 88-3 3-57zm766 33c32-30 35-80 6-106-25-23-25-32 1-40 26-9 49-60 40-93-4-14-20-35-35-46-25-19-44-21-222-24l-194-3v342l189-3c185-3 190-4 215-27zm1186-141v-170l-517 2-518 3-3 168-2 167h1040v-170zm-755-349c-75-74-110-102-140-110-28-8-478-11-1542-11H1120v220h3285l-100-99zm3229-557c34-33 6-104-40-104-43 0-72 71-44 105 16 20 64 19 84-1zm1602-9c21-32 7-69-30-87-34-15-76 12-76 49 0 60 74 87 106 38zm1686 8c24-21 23-58-2-83s-41-25-74 1c-30 23-33 45-10 77 18 26 60 29 86 5zm790 0c24-21 23-58-2-83-26-26-46-25-75 5-29 28-31 42-9 73 18 26 60 29 86 5zm1832-5c9-12 16-28 16-36 0-18-46-62-65-62-22 0-55 37-55 62 0 53 74 79 104 36zm-1954-13c6-3 10-22 10-41v-34h-50c-43 0-50-3-50-20 0-16 7-20 33-20 43 0 46-4 38-43-6-27-12-32-39-35l-31-3-3-142-3-142-47-3-48-3v291h-30c-28 0-30 2-30 40s2 40 30 40c27 0 30 3 30 31 0 42 16 68 53 85 31 14 114 13 137-1zm-5620-34c0-57-6-61-86-61h-74v-89l68-3 67-3v-70l-67-3-67-3-3-107-3-107h-100l-3 225c-1 123 0 230 2 237 4 10 39 13 136 13h130v-29zm4583 12c3-10 18-87 34-170 15-84 30-153 33-153s18 71 34 158c16 86 31 163 34 170 2 7 24 12 59 12 47 0 54-2 49-17-2-10-30-114-61-232s-58-218-61-223c-7-11-101-10-108 1-5 8-126 457-126 467 0 2 24 4 54 4 44 0 56-4 59-17zm-1553-43v-50h40c36 0 40-3 40-24 0-44-10-56-46-56h-35l3-102 3-103 43 3 42 2v-39c0-35-3-39-31-45-61-12-97-7-126 18-27 24-28 27-31 145l-4 120-26 3c-24 3-27 8-27 38s3 35 27 38c21 3 28 10 35 39s15 39 43 49c51 18 50 19 50-36zm4310 0v-50h81l-3-37c-3-36-5-38-41-41l-38-3 3-102 3-102 43 3 42 2v-39c0-44-12-51-87-51-30 0-50 7-70 24-27 24-28 27-31 145l-4 120-26 3c-24 3-27 8-27 38 0 31 3 35 27 38 21 3 29 10 34 30 3 15 7 31 8 36 2 8 57 33 79 35 4 1 7-21 7-49zm-7094-66c44-21 74-83 74-152v-52h-199l11-30c14-42 62-50 151-24 16 5 18 0 15-37-3-40-6-44-38-52-54-14-146-4-178 19-59 44-78 188-35 271 35 66 125 92 199 57zm230 1c5-13 8-13 27 0 12 8 36 15 54 15 33 0 33 0 33-50v-51l-32 6c-54 9-57 1-60-140l-3-130h-100l-3 170c-1 93 0 175 2 182 7 18 75 17 82-2zm248-1c5-14 8-14 28 0 12 9 37 16 55 16 33 0 33 0 33-51v-51l-30 7c-16 4-39 4-49 0-19-6-21-16-23-138l-3-132h-90l-3 170c-1 93 0 175 2 182 8 19 72 17 80-3zm402-14c43-41 57-79 57-156 0-83-19-125-74-162-29-20-44-23-96-20-114 7-156 62-151 195 3 92 20 125 79 156 51 27 149 20 185-13zm179 20c3-5 19-67 34-137l28-128 12 60c7 33 21 94 30 135l17 75 48 3c27 2 52 0 56-5 5-4-18-87-49-183l-57-175-56-3-57-3-55 170c-31 93-56 176-56 185 0 12 11 16 49 16 28 0 53-4 56-10zm370-175v-180h-100l-3 170c-1 93 0 175 3 183 3 9 20 12 52 10l48-3v-180zm315 170c42-22 52-67 48-220l-3-130-35-3c-23-2-38 2-46 12-10 15-14 15-40 1-48-25-101-19-135 14-25 25-29 37-29 83 1 84 39 118 134 118 48 0 56 3 56 19 0 41-41 49-137 24-21-5-23-2-23 36 0 37 3 41 33 50 51 15 145 13 177-4zm426 0c5-13 8-13 27 0 12 8 36 15 54 15 33 0 33 0 33-51 0-50-1-51-25-45-14 4-36 4-50 0l-25-6v-269l-47 3-48 3-3 170c-1 93 0 175 2 182 7 18 75 17 82-2zm380-16c36-33 54-79 54-139v-50h-101c-99 0-100 0-94-22 12-39 35-50 92-44 28 3 59 9 68 12 14 6 16 0 13-37-3-50-16-56-108-58-115-2-165 53-165 184 0 94 20 139 75 168 49 26 131 19 166-14zm469-154v-180l-47-3-48-3v372l48-3 47-3v-180zm303 179c18-5 22-13 22-44v-39l-54 6c-48 5-55 3-70-18-24-34-22-139 3-170 18-22 22-23 70-13l51 11v-43c0-47-11-54-88-54-56 0-104 21-126 54-38 59-37 202 2 256 36 49 119 73 190 54zm318-27c23-27 24-34 24-183v-154h-40c-26 0-43 5-46 14-5 12-10 12-39 0-99-41-174 11-162 114 8 68 40 95 122 100 65 4 66 5 63 31-3 23-7 26-43 26-22 0-57-4-77-8l-38-8v40c0 37 3 41 33 50 17 6 65 9 106 8 66-2 75-5 97-30zm1069-152v-180h-90l-3 170c-1 93 0 175 3 183 3 9 19 12 47 10l43-3v-180zm315 172c49-24 61-68 58-217l-3-135-43-3c-31-2-44 1-48 12-5 14-9 14-34 1-99-51-193 28-161 135 16 54 58 80 129 80 52 0 53 1 50 28-3 24-7 27-43 27-22 0-57-4-77-8l-38-8v34c0 38 12 53 50 60 52 9 136 6 160-6zm480-173v-185l-47 3-48 3-3 170c-1 93 0 175 2 182 3 8 23 13 51 13h45v-186zm329 152c32-31 51-84 51-145v-41h-100c-109 0-122-8-79-51 18-18 29-21 74-15 29 3 61 9 70 12 14 6 16 0 13-37-3-36-7-44-28-50-49-14-134-9-170 9-103 51-108 270-8 332 49 31 137 24 177-14zm205 18c5-14 8-14 28 0 12 9 37 16 55 16 33 0 33 0 33-51 0-50-1-51-25-45-14 4-36 4-50 0-24-6-24-7-27-138l-3-131h-90l-3 170c-1 93 0 175 2 182 8 19 72 17 80-3zm442 1c5-13 8-13 27 0 12 8 36 15 54 15 33 0 33 0 33-51 0-50-1-51-25-45-14 4-36 4-50 0l-25-6v-269l-47 3-48 3-3 170c-1 93 0 175 2 182 7 18 75 17 82-2zm360-1c44-21 74-83 74-152v-52h-199l11-30c14-42 62-50 151-24 16 5 18 0 15-37-3-40-6-44-38-52-54-14-146-4-178 19-59 44-78 187-35 272 34 65 124 91 199 56zm489-169v-180l-47-3-48-3v372l48-3 47-3v-180zm303 179c18-5 22-13 22-44v-39l-54 6c-48 5-55 3-70-18-24-34-22-139 3-170 18-22 22-23 70-13l51 11v-43c0-47-11-54-90-54-59 0-109 26-132 70-27 50-22 196 8 237 38 52 119 76 192 57zm318-27c23-27 24-34 24-183v-154h-40c-27 0-43 5-46 15-5 13-9 13-34 0-34-17-78-19-115-5-58 22-71 138-21 189 21 20 37 26 91 29 65 4 66 5 63 31-3 23-7 26-43 26-22 0-57-4-77-8l-38-8v40c0 37 3 41 33 50 17 6 65 9 106 8 66-2 75-5 97-30z" style="fill:red;fill-opacity:1" transform="matrix(.1 0 0 -.1 0 412)"/><path d="M5860 2680c0-105 1-110 21-110 50 0 89 50 89 114 0 65-35 106-90 106-19 0-20-8-20-110zM11630 2716c0-70 2-76 21-76 23 0 60 18 71 34 12 18 9 71-5 89-6 10-29 20-50 24l-37 6v-77zM11630 2355c0-47 3-85 8-85 4 0 24 5 44 10 43 12 58 34 58 84 0 41-37 76-81 76h-29v-85zM7304 2504c-22-32-25-187-6-222 17-30 52-26 69 8 19 37 17 190-3 218-20 29-40 28-60-4zM10566 2542c-3-5-10-21-15-36l-11-26h110l-13 33c-10 23-21 33-39 35-14 2-29-1-32-6zM12359 2513c-18-21-25-202-10-232 15-27 46-27 65 1 23 32 23 210 0 232-20 20-38 20-55-1zM2580 2584v-35l52 3c43 2 54 7 56 22 6 27-24 46-70 46-37 0-38-1-38-36zM3640 2606c0-24 3-26 51-26 47 0 50 2 47 23-3 19-10 22-50 25-46 3-48 2-48-22zM3640 2470c0-31 0-31 48-28 43 3 47 5 47 28s-4 25-47 28c-48 3-48 3-48-28zM6013 1408c-6-7-13-25-17-40-6-28-6-28 44-28 48 0 50 1 50 28 0 15-5 33-12 40-16 16-53 15-65 0zM6855 1406c-16-11-20-29-23-89-4-71-2-77 22-102 19-19 32-24 49-20 37 12 47 34 47 112 0 60-4 77-20 93-23 23-49 25-75 6zM7731 1276c-7-8-11-27-9-43 3-30 23-39 64-29 20 5 24 12 24 46 0 39-1 40-34 40-18 0-39-6-45-14zM8542 1407c-6-6-13-24-17-40-7-27-7-27 44-27 45 0 51 2 51 21 0 50-50 80-78 46zM9600 1269c-6-11-10-30-8-42 2-18 9-22 43-22 40 0 40 0 43 43l3 42h-35c-25 0-38-6-46-21zM11023 1282c-12-8-18-31-15-65 2-15 9-18 40-15 36 3 37 4 40 46 3 40 2 42-25 42-15 0-34-4-40-8zM11810 1394c-19-48-14-54 40-54s59 6 40 54c-14 37-66 37-80 0zM12853 1408c-6-7-13-25-17-40-6-28-6-28 44-28 48 0 50 1 50 28 0 15-5 33-12 40-16 16-53 15-65 0zM13910 1269c-7-11-9-32-6-46 6-21 11-24 44-21 36 3 37 4 40 46l3 42h-35c-26 0-38-6-46-21z" style="fill:red;fill-opacity:1" transform="matrix(.1 0 0 -.1 0 412)"/></svg>