<svg xmlns="http://www.w3.org/2000/svg" data-name="Calque 1" viewBox="0 0 353.19 169.6"><path fill="#c12a21" d="M34.86 42.15h37.83v56.86h10.14V42.15h38.11v-9.6H34.86v9.6zm145.01 39.74-37.04-49.34h-9.46v66.46h10.27V50.26l35.4 47.15-35.4 47.15h12.49l23.74-31.64 23.75 31.64h12.48l-35.39-47.15 35.39-47.15v48.75h10.28V32.55h-9.47l-37.04 49.34zm138.46-28.54c0-12.92-12.36-20.8-28-20.8h-46V99h10.27V76h25.6L300 99h13.39l-19.65-22.9c14.47-1.1 24.59-9.83 24.59-22.75zM254.62 66.5V42.15h34.52c10.78 0 18.57 3.67 18.57 11.2 0 8.74-6.79 13.15-18.57 13.15z"/></svg>