<svg xmlns="http://www.w3.org/2000/svg" xmlns:xlink="http://www.w3.org/1999/xlink" width="1024" height="680" viewBox="-20.943 -20.943 1115.13 739.991"><defs><clipPath id="d"><path d="M0 0h1488.188v1052.363H0V0zm0 0"/></clipPath><clipPath id="e"><path d="m554.188 334.254 17.957 26.129c-5.168-14.117 11.453-26.102 23.44-16.899l-16.92-24.62c4.257 14.417-13.11 25.324-24.477 15.39"/></clipPath><clipPath id="f"><path d="m534.586 332.242 47.637-32.55 32.937 47.3-47.637 32.543-32.937-47.293zm0 0"/></clipPath><clipPath id="g"><path d="m534.594 332.234 47.648-32.546 32.938 47.296-47.645 32.551-32.941-47.3zm0 0"/></clipPath><clipPath id="i"><path d="M0 0h1488.188v1052.363H0V0zm0 0"/></clipPath><clipPath id="j"><path d="M552.773 430.121c18.844-12.316 43.942.586 44.875 23.09l16.665-26.984c-20.543 9.238-43.317-7.414-40.743-29.782l-20.797 33.676zm0 0"/></clipPath><clipPath id="k"><path d="m568.535 369.57 70.55 41.414-40.554 69.09-70.554-41.418 40.558-69.086zm0 0"/></clipPath><clipPath id="l"><path d="m568.535 369.57 70.55 41.414-40.554 69.09-70.554-41.422 40.558-69.082zm0 0"/></clipPath><clipPath id="n"><path d="M0 0h1488.188v1052.363H0V0zm0 0"/></clipPath><clipPath id="o"><path d="m598.676 507.984 15.949 5.32c-7.043-13.421 1.125-29.796 16.082-32.245l-25.543-8.524c10.492 10.942 7.195 28.934-6.488 35.45"/></clipPath><clipPath id="p"><path d="m642.934 476.57-15.43 46.305-41.059-13.688 15.434-46.296 41.055 13.68zm0 0"/></clipPath><clipPath id="q"><path d="m642.934 476.57-15.43 46.305-41.059-13.688 15.43-46.296 41.059 13.68zm0 0"/></clipPath><clipPath id="s"><path d="M0 0h1488.188v1052.363H0V0zm0 0"/></clipPath><linearGradient id="c" x1="-.508" x2="1.469" y1="0" y2="0" gradientTransform="matrix(24.08255 -16.45351 16.679 23.9481 563.17 347.303)" gradientUnits="userSpaceOnUse"><stop offset=".25" style="stop-color:#9dd750;stop-opacity:1"/><stop offset=".257" style="stop-color:#9dd750;stop-opacity:1"/><stop offset=".281" style="stop-color:#9dd750;stop-opacity:1"/><stop offset=".289" style="stop-color:#9ed751;stop-opacity:1"/><stop offset=".297" style="stop-color:#9ed851;stop-opacity:1"/><stop offset=".305" style="stop-color:#9fd851;stop-opacity:1"/><stop offset=".313" style="stop-color:#a0d851;stop-opacity:1"/><stop offset=".32" style="stop-color:#a0d851;stop-opacity:1"/><stop offset=".328" style="stop-color:#a1d952;stop-opacity:1"/><stop offset=".336" style="stop-color:#a2d952;stop-opacity:1"/><stop offset=".344" style="stop-color:#a3d952;stop-opacity:1"/><stop offset=".352" style="stop-color:#a3d952;stop-opacity:1"/><stop offset=".359" style="stop-color:#a4da53;stop-opacity:1"/><stop offset=".367" style="stop-color:#a5da53;stop-opacity:1"/><stop offset=".375" style="stop-color:#a5da53;stop-opacity:1"/><stop offset=".383" style="stop-color:#a6da53;stop-opacity:1"/><stop offset=".391" style="stop-color:#a7da54;stop-opacity:1"/><stop offset=".398" style="stop-color:#a8db54;stop-opacity:1"/><stop offset=".406" style="stop-color:#a8db54;stop-opacity:1"/><stop offset=".414" style="stop-color:#a9db54;stop-opacity:1"/><stop offset=".422" style="stop-color:#aadb54;stop-opacity:1"/><stop offset=".43" style="stop-color:#aadc55;stop-opacity:1"/><stop offset=".438" style="stop-color:#abdc55;stop-opacity:1"/><stop offset=".445" style="stop-color:#acdc55;stop-opacity:1"/><stop offset=".453" style="stop-color:#addc55;stop-opacity:1"/><stop offset=".461" style="stop-color:#addd56;stop-opacity:1"/><stop offset=".469" style="stop-color:#aedd56;stop-opacity:1"/><stop offset=".477" style="stop-color:#afdd56;stop-opacity:1"/><stop offset=".484" style="stop-color:#afdd56;stop-opacity:1"/><stop offset=".492" style="stop-color:#b0de57;stop-opacity:1"/><stop offset=".5" style="stop-color:#b1de57;stop-opacity:1"/><stop offset=".508" style="stop-color:#b2de57;stop-opacity:1"/><stop offset=".516" style="stop-color:#b2de57;stop-opacity:1"/><stop offset=".523" style="stop-color:#b3df58;stop-opacity:1"/><stop offset=".531" style="stop-color:#b4df58;stop-opacity:1"/><stop offset=".539" style="stop-color:#b5df58;stop-opacity:1"/><stop offset=".547" style="stop-color:#b5df58;stop-opacity:1"/><stop offset=".555" style="stop-color:#b6df59;stop-opacity:1"/><stop offset=".563" style="stop-color:#b7e059;stop-opacity:1"/><stop offset=".57" style="stop-color:#b7e059;stop-opacity:1"/><stop offset=".578" style="stop-color:#b8e059;stop-opacity:1"/><stop offset=".586" style="stop-color:#b9e05a;stop-opacity:1"/><stop offset=".594" style="stop-color:#bae15a;stop-opacity:1"/><stop offset=".602" style="stop-color:#bae15a;stop-opacity:1"/><stop offset=".609" style="stop-color:#bbe15b;stop-opacity:1"/><stop offset=".617" style="stop-color:#bce15b;stop-opacity:1"/><stop offset=".625" style="stop-color:#bce25b;stop-opacity:1"/><stop offset=".633" style="stop-color:#bde25b;stop-opacity:1"/><stop offset=".641" style="stop-color:#bee25c;stop-opacity:1"/><stop offset=".648" style="stop-color:#bfe25c;stop-opacity:1"/><stop offset=".656" style="stop-color:#bfe35c;stop-opacity:1"/><stop offset=".664" style="stop-color:#c0e35c;stop-opacity:1"/><stop offset=".672" style="stop-color:#c1e35d;stop-opacity:1"/><stop offset=".68" style="stop-color:#c1e35d;stop-opacity:1"/><stop offset=".688" style="stop-color:#c2e45d;stop-opacity:1"/><stop offset=".695" style="stop-color:#c3e45d;stop-opacity:1"/><stop offset=".703" style="stop-color:#c4e45e;stop-opacity:1"/><stop offset=".711" style="stop-color:#c4e45e;stop-opacity:1"/><stop offset=".719" style="stop-color:#c5e55e;stop-opacity:1"/><stop offset=".727" style="stop-color:#c6e55f;stop-opacity:1"/><stop offset=".734" style="stop-color:#c6e55f;stop-opacity:1"/><stop offset=".742" style="stop-color:#c7e55f;stop-opacity:1"/><stop offset=".75" style="stop-color:#c8e55f;stop-opacity:1"/><stop offset=".758" style="stop-color:#c9e660;stop-opacity:1"/><stop offset=".766" style="stop-color:#c9e660;stop-opacity:1"/><stop offset=".781" style="stop-color:#c9e660;stop-opacity:1"/><stop offset=".813" style="stop-color:#c9e660;stop-opacity:1"/><stop offset=".875" style="stop-color:#c9e660;stop-opacity:1"/><stop offset="1" style="stop-color:#c9e660;stop-opacity:1"/></linearGradient><linearGradient id="b" x1="-.344" x2="1.277" y1="0" y2="0" gradientTransform="rotate(30.416 -478.464 1242.13) scale(50.45948)" gradientUnits="userSpaceOnUse"><stop offset=".125" style="stop-color:#9dd750;stop-opacity:1"/><stop offset=".188" style="stop-color:#9dd750;stop-opacity:1"/><stop offset=".203" style="stop-color:#9dd750;stop-opacity:1"/><stop offset=".211" style="stop-color:#9dd750;stop-opacity:1"/><stop offset=".211" style="stop-color:#9dd750;stop-opacity:1"/><stop offset=".215" style="stop-color:#9dd750;stop-opacity:1"/><stop offset=".219" style="stop-color:#9cd750;stop-opacity:1"/><stop offset=".223" style="stop-color:#9cd74f;stop-opacity:1"/><stop offset=".227" style="stop-color:#9bd74f;stop-opacity:1"/><stop offset=".23" style="stop-color:#9bd64e;stop-opacity:1"/><stop offset=".234" style="stop-color:#9bd64e;stop-opacity:1"/><stop offset=".238" style="stop-color:#9ad64d;stop-opacity:1"/><stop offset=".242" style="stop-color:#9ad64d;stop-opacity:1"/><stop offset=".246" style="stop-color:#99d64d;stop-opacity:1"/><stop offset=".25" style="stop-color:#99d64c;stop-opacity:1"/><stop offset=".254" style="stop-color:#99d64c;stop-opacity:1"/><stop offset=".258" style="stop-color:#98d54b;stop-opacity:1"/><stop offset=".262" style="stop-color:#98d54b;stop-opacity:1"/><stop offset=".266" style="stop-color:#97d54b;stop-opacity:1"/><stop offset=".27" style="stop-color:#97d54a;stop-opacity:1"/><stop offset=".273" style="stop-color:#97d54a;stop-opacity:1"/><stop offset=".277" style="stop-color:#96d549;stop-opacity:1"/><stop offset=".281" style="stop-color:#96d549;stop-opacity:1"/><stop offset=".285" style="stop-color:#96d549;stop-opacity:1"/><stop offset=".289" style="stop-color:#95d448;stop-opacity:1"/><stop offset=".293" style="stop-color:#95d448;stop-opacity:1"/><stop offset=".297" style="stop-color:#94d448;stop-opacity:1"/><stop offset=".301" style="stop-color:#94d447;stop-opacity:1"/><stop offset=".305" style="stop-color:#94d447;stop-opacity:1"/><stop offset=".309" style="stop-color:#93d447;stop-opacity:1"/><stop offset=".313" style="stop-color:#93d446;stop-opacity:1"/><stop offset=".316" style="stop-color:#93d346;stop-opacity:1"/><stop offset=".32" style="stop-color:#92d346;stop-opacity:1"/><stop offset=".328" style="stop-color:#92d345;stop-opacity:1"/><stop offset=".336" style="stop-color:#91d345;stop-opacity:1"/><stop offset=".344" style="stop-color:#91d344;stop-opacity:1"/><stop offset=".352" style="stop-color:#90d343;stop-opacity:1"/><stop offset=".359" style="stop-color:#8fd243;stop-opacity:1"/><stop offset=".367" style="stop-color:#8fd242;stop-opacity:1"/><stop offset=".375" style="stop-color:#8ed241;stop-opacity:1"/><stop offset=".383" style="stop-color:#8ed241;stop-opacity:1"/><stop offset=".391" style="stop-color:#8dd140;stop-opacity:1"/><stop offset=".398" style="stop-color:#8dd140;stop-opacity:1"/><stop offset=".406" style="stop-color:#8cd13f;stop-opacity:1"/><stop offset=".414" style="stop-color:#8bd13f;stop-opacity:1"/><stop offset=".422" style="stop-color:#8bd13e;stop-opacity:1"/><stop offset=".43" style="stop-color:#8ad03e;stop-opacity:1"/><stop offset=".438" style="stop-color:#8ad03d;stop-opacity:1"/><stop offset=".445" style="stop-color:#89d03d;stop-opacity:1"/><stop offset=".453" style="stop-color:#89d03c;stop-opacity:1"/><stop offset=".461" style="stop-color:#88d03c;stop-opacity:1"/><stop offset=".469" style="stop-color:#88d03b;stop-opacity:1"/><stop offset=".477" style="stop-color:#87cf3b;stop-opacity:1"/><stop offset=".484" style="stop-color:#87cf3b;stop-opacity:1"/><stop offset=".492" style="stop-color:#87cf3a;stop-opacity:1"/><stop offset=".5" style="stop-color:#86cf3a;stop-opacity:1"/><stop offset=".508" style="stop-color:#86cf39;stop-opacity:1"/><stop offset=".516" style="stop-color:#85cf39;stop-opacity:1"/><stop offset=".523" style="stop-color:#85cf39;stop-opacity:1"/><stop offset=".531" style="stop-color:#85ce38;stop-opacity:1"/><stop offset=".539" style="stop-color:#84ce38;stop-opacity:1"/><stop offset=".547" style="stop-color:#84ce38;stop-opacity:1"/><stop offset=".563" style="stop-color:#83ce37;stop-opacity:1"/><stop offset=".578" style="stop-color:#83ce37;stop-opacity:1"/><stop offset=".594" style="stop-color:#82ce36;stop-opacity:1"/><stop offset=".609" style="stop-color:#82cd35;stop-opacity:1"/><stop offset=".625" style="stop-color:#81cd35;stop-opacity:1"/><stop offset=".641" style="stop-color:#81cd35;stop-opacity:1"/><stop offset=".656" style="stop-color:#80cd34;stop-opacity:1"/><stop offset=".672" style="stop-color:#80cd34;stop-opacity:1"/><stop offset=".688" style="stop-color:#7fcd33;stop-opacity:1"/><stop offset=".719" style="stop-color:#7fcc33;stop-opacity:1"/><stop offset=".75" style="stop-color:#7fcc33;stop-opacity:1"/><stop offset="1" style="stop-color:#7ecc32;stop-opacity:1"/></linearGradient><linearGradient id="a" x1="-.227" x2="1.145" y1="0" y2="0" gradientTransform="rotate(108.434 137.11 461.104) scale(35.57738)" gradientUnits="userSpaceOnUse"><stop offset=".125" style="stop-color:#7ecc32;stop-opacity:1"/><stop offset=".156" style="stop-color:#7ecc32;stop-opacity:1"/><stop offset=".167" style="stop-color:#7ecc32;stop-opacity:1"/><stop offset=".172" style="stop-color:#7ecc32;stop-opacity:1"/><stop offset=".18" style="stop-color:#7dcc32;stop-opacity:1"/><stop offset=".188" style="stop-color:#7ccb32;stop-opacity:1"/><stop offset=".195" style="stop-color:#7bcb32;stop-opacity:1"/><stop offset=".203" style="stop-color:#7acb32;stop-opacity:1"/><stop offset=".211" style="stop-color:#7acb32;stop-opacity:1"/><stop offset=".219" style="stop-color:#79ca32;stop-opacity:1"/><stop offset=".227" style="stop-color:#78ca32;stop-opacity:1"/><stop offset=".234" style="stop-color:#77ca32;stop-opacity:1"/><stop offset=".242" style="stop-color:#76ca32;stop-opacity:1"/><stop offset=".25" style="stop-color:#75c932;stop-opacity:1"/><stop offset=".258" style="stop-color:#75c932;stop-opacity:1"/><stop offset=".266" style="stop-color:#74c932;stop-opacity:1"/><stop offset=".273" style="stop-color:#73c932;stop-opacity:1"/><stop offset=".281" style="stop-color:#72c832;stop-opacity:1"/><stop offset=".289" style="stop-color:#71c832;stop-opacity:1"/><stop offset=".297" style="stop-color:#71c833;stop-opacity:1"/><stop offset=".305" style="stop-color:#70c833;stop-opacity:1"/><stop offset=".313" style="stop-color:#6fc733;stop-opacity:1"/><stop offset=".32" style="stop-color:#6ec733;stop-opacity:1"/><stop offset=".328" style="stop-color:#6ec733;stop-opacity:1"/><stop offset=".336" style="stop-color:#6dc733;stop-opacity:1"/><stop offset=".344" style="stop-color:#6cc633;stop-opacity:1"/><stop offset=".352" style="stop-color:#6bc633;stop-opacity:1"/><stop offset=".359" style="stop-color:#6bc633;stop-opacity:1"/><stop offset=".367" style="stop-color:#6ac633;stop-opacity:1"/><stop offset=".375" style="stop-color:#69c533;stop-opacity:1"/><stop offset=".383" style="stop-color:#68c533;stop-opacity:1"/><stop offset=".391" style="stop-color:#68c533;stop-opacity:1"/><stop offset=".398" style="stop-color:#67c533;stop-opacity:1"/><stop offset=".406" style="stop-color:#66c533;stop-opacity:1"/><stop offset=".414" style="stop-color:#65c433;stop-opacity:1"/><stop offset=".422" style="stop-color:#65c433;stop-opacity:1"/><stop offset=".43" style="stop-color:#64c433;stop-opacity:1"/><stop offset=".438" style="stop-color:#63c433;stop-opacity:1"/><stop offset=".445" style="stop-color:#63c433;stop-opacity:1"/><stop offset=".453" style="stop-color:#62c333;stop-opacity:1"/><stop offset=".461" style="stop-color:#62c333;stop-opacity:1"/><stop offset=".469" style="stop-color:#61c333;stop-opacity:1"/><stop offset=".477" style="stop-color:#60c333;stop-opacity:1"/><stop offset=".484" style="stop-color:#60c333;stop-opacity:1"/><stop offset=".492" style="stop-color:#5fc233;stop-opacity:1"/><stop offset=".5" style="stop-color:#5fc233;stop-opacity:1"/><stop offset=".508" style="stop-color:#5ec233;stop-opacity:1"/><stop offset=".516" style="stop-color:#5dc233;stop-opacity:1"/><stop offset=".531" style="stop-color:#5dc233;stop-opacity:1"/><stop offset=".547" style="stop-color:#5cc133;stop-opacity:1"/><stop offset=".563" style="stop-color:#5bc133;stop-opacity:1"/><stop offset=".625" style="stop-color:#5bc133;stop-opacity:1"/><stop offset=".75" style="stop-color:#5bc133;stop-opacity:1"/><stop offset="1" style="stop-color:#5bc133;stop-opacity:1"/></linearGradient><linearGradient xlink:href="#c" id="h" x1="-.508" x2="1.469" y1="0" y2="0" gradientTransform="matrix(24.08255 -16.45351 16.679 23.9481 563.17 347.303)" gradientUnits="userSpaceOnUse"/><linearGradient xlink:href="#b" id="m" x1="-.344" x2="1.277" y1="0" y2="0" gradientTransform="rotate(30.416 -478.464 1242.13) scale(50.45948)" gradientUnits="userSpaceOnUse"/><linearGradient xlink:href="#a" id="r" x1="-.227" x2="1.145" y1="0" y2="0" gradientTransform="rotate(108.434 137.11 461.104) scale(35.57738)" gradientUnits="userSpaceOnUse"/></defs><g clip-path="url(#d)" transform="matrix(1.25 0 0 1.25 -562.45 -322.306)"><path d="M574.352 394.691c-7.344 33.957-40.813 55.543-74.778 48.2-33.945-7.34-55.515-40.825-48.183-74.77 7.343-33.957 40.828-55.535 74.765-48.191 33.961 7.34 55.532 40.82 48.196 74.761" style="fill:#9cd74f;fill-opacity:1;fill-rule:nonzero;stroke:none"/></g><g clip-path="url(#e)" transform="matrix(1.25 0 0 1.25 -562.45 -322.306)"><g clip-path="url(#f)"><g clip-path="url(#g)"><path d="m534.602 332.25 32.937 47.297 47.64-32.55-32.937-47.294-47.64 32.547zm0 0" style="fill:url(#h);fill-rule:nonzero;stroke:none"/></g></g></g><g clip-path="url(#i)" transform="matrix(1.25 0 0 1.25 -562.45 -322.306)"><path d="M670.75 315.508c-5.559 25.695-30.89 42.023-56.59 36.46-25.691-5.554-42.02-30.882-36.465-56.577 5.555-25.7 30.89-42.016 56.582-36.461 25.7 5.547 42.028 30.879 36.473 56.578" style="fill:#c7e65e;fill-opacity:1;fill-rule:nonzero;stroke:none"/></g><g clip-path="url(#j)" transform="matrix(1.25 0 0 1.25 -562.45 -322.306)"><g clip-path="url(#k)"><g clip-path="url(#l)"><path d="m568.547 369.574-40.559 69.09 70.551 41.418 40.559-69.086-70.551-41.422zm0 0" style="fill:url(#m);fill-rule:nonzero;stroke:none"/></g></g></g><g clip-path="url(#n)" transform="matrix(1.25 0 0 1.25 -562.45 -322.306)"><path d="M616.39 425.484c-15.042 5.313-22.945 21.805-17.636 36.864 5.316 15.05 21.816 22.945 36.867 17.636 15.05-5.312 22.953-21.812 17.645-36.867-5.313-15.05-21.813-22.941-36.875-17.633" style="fill:#7dcc30;fill-opacity:1;fill-rule:nonzero;stroke:none"/></g><g clip-path="url(#o)" transform="matrix(1.25 0 0 1.25 -562.45 -322.306)"><g clip-path="url(#p)"><g clip-path="url(#q)"><path d="m642.938 476.61-41.06-13.684-15.433 46.3 41.059 13.688 15.434-46.305zm0 0" style="fill:url(#r);fill-rule:nonzero;stroke:none"/></g></g></g><g clip-path="url(#s)" transform="matrix(1.25 0 0 1.25 -562.45 -322.306)"><path d="M599.762 507.535c-6.293 2.27-9.559 9.23-7.282 15.531 2.278 6.293 9.239 9.551 15.524 7.27 6.3-2.273 9.559-9.227 7.285-15.523-2.277-6.297-9.234-9.555-15.527-7.278" style="fill:#59bf33;fill-opacity:1;fill-rule:nonzero;stroke:none"/><path d="M1044.328 700.164c17.867 0 33.188-14.039 33.188-31.906V517.633c0-17.871-15.32-31.914-33.188-31.914H776.27V397.64c0-17.868-14.043-31.907-31.915-31.907-17.867 0-33.183 14.04-33.183 31.907v88.078h-34.469c-17.871 0-31.906 14.043-31.906 31.914 0 17.87 14.035 31.906 31.906 31.906h34.469v118.719c0 17.867 15.316 31.906 33.183 31.906 17.872 0 31.915-14.039 31.915-31.906V549.539h231.039s5.109 0 6.382 5.11v75.312s0 6.383-6.382 6.383H894.98c-16.59 0-30.636 11.488-31.91 28.078v119.992c0 17.871 14.04 31.914 31.91 31.914 17.872 0 31.915-14.043 31.915-31.914v-84.25h117.433zm231.04 0c17.87 0 33.187-14.039 33.187-31.906 0-17.871-15.317-31.914-33.188-31.914h-113.61c-3.823-1.274-3.823-6.383-3.823-6.383V555.93c0-6.39 5.105-6.39 5.105-6.39h112.328c17.871 0 33.188-14.036 33.188-31.907 0-17.871-15.317-31.914-33.188-31.914H1126.02c-17.87 0-33.183 14.043-33.183 31.914v150.625c0 17.867 15.312 31.906 33.183 31.906h149.348zm0 0" style="fill:#4a3097;fill-opacity:1;fill-rule:nonzero;stroke:none"/></g></svg>