<svg xmlns="http://www.w3.org/2000/svg" width="800" height="600" version="1.0"><path d="M439.367 71.756c-15.539 1.148-29.101 7.063-40.537 17.67-13.07 12.122-19.85 31.643-20.442 58.9v7.623h-24.254v35.687h24.254v146.559h48.506v-146.56h35.687V155.95h-36.033c-.566-9.927.288-19.87 3.118-29.797 2.83-9.926 10.891-15.174 23.907-15.938 2.972.017 5.538.342 7.969.693l13.166-34.994c-3.594-1.179-7.694-2.306-12.474-3.118-4.779-.811-10.237-1.005-16.284-1.04-2.303-.028-4.363-.163-6.583 0zm-338.852 36.726L52.7 122.687v33.262H28.795v35.687H52.7v84.193c-.31 7.2.306 15.805 2.08 25.986 1.773 10.181 6.613 19.444 14.205 27.371 7.591 7.927 19.93 12.037 37.072 12.473 7.098-.013 13.473-.636 19.057-1.385 5.583-.75 9.832-1.796 13.166-3.119l-.347-36.726c-2.372.498-4.903.746-7.276 1.04-2.373.293-5.307.34-8.662.346-7.343.075-12.746-2.32-16.284-7.276-3.538-4.957-5.218-12.672-5.197-23.56v-79.343h40.191v-35.687h-40.191v-47.467zm113.297 43.31-43.31 11.78.347 261.588 48.507-13.86v-90.776h.346c3.988 6.184 9.94 11.311 17.324 15.245 7.384 3.934 15.943 6.107 25.986 6.237 19.3.17 36.353-7.635 51.278-23.214 14.924-15.579 22.748-40.08 23.56-73.453-.396-28.368-7-50.851-19.749-67.562-12.75-16.71-29.188-25.25-49.546-25.64-11.822.035-22.407 2.375-31.53 7.277-9.121 4.902-16.588 12.12-22.52 21.481h-.693v-29.104zm38.805 39.15c11.965.308 20.91 5.692 27.025 15.939 6.116 10.247 9.335 23.685 9.355 40.19-.02 16.69-3.422 30.066-9.701 40.538-6.28 10.473-15.426 15.958-27.718 16.285-8.509.02-15.793-3.218-22.174-9.702-6.382-6.483-9.721-16.217-10.048-29.45v-33.954c.225-11.243 3.116-20.627 9.355-28.065 6.238-7.438 14.354-11.5 23.906-11.78z" style="font-size:29.51691055px;font-style:normal;font-variant:normal;font-weight:700;font-stretch:normal;text-align:start;line-height:100%;writing-mode:lr-tb;text-anchor:start;opacity:1;fill:#000;fill-opacity:1;stroke:none;stroke-width:1px;stroke-linecap:butt;stroke-linejoin:miter;stroke-opacity:1;font-family:Kozuka Gothic Pro B;-inkscape-font-specification:Kozuka Gothic Pro B Bold"/><path d="M297.857 450.536a5.893 5.893 0 1 1-11.786 0 5.893 5.893 0 1 1 11.786 0z" style="opacity:1;fill:#903;fill-opacity:1;fill-rule:evenodd;stroke:none;stroke-width:6;stroke-linecap:round;stroke-linejoin:miter;stroke-miterlimit:4;stroke-dasharray:none;stroke-dashoffset:0;stroke-opacity:1" transform="translate(-2915.745 -4538.19) scale(11.08719)"/><path d="M297.857 450.536a5.893 5.893 0 1 1-11.786 0 5.893 5.893 0 1 1 11.786 0z" style="opacity:1;fill:#903;fill-opacity:1;fill-rule:evenodd;stroke:none;stroke-width:6;stroke-linecap:round;stroke-linejoin:miter;stroke-miterlimit:4;stroke-dasharray:none;stroke-dashoffset:0;stroke-opacity:1" transform="translate(-2535.613 -4538.19) scale(11.08719)"/><path d="M297.857 450.536a5.893 5.893 0 1 1-11.786 0 5.893 5.893 0 1 1 11.786 0z" style="opacity:1;fill:#903;fill-opacity:1;fill-rule:evenodd;stroke:none;stroke-width:6;stroke-linecap:round;stroke-linejoin:miter;stroke-miterlimit:4;stroke-dasharray:none;stroke-dashoffset:0;stroke-opacity:1" transform="translate(-2725.68 -4538.19) scale(11.08719)"/></svg>