<svg xmlns="http://www.w3.org/2000/svg" xml:space="preserve" width="3221.31" height="1448.875"><path fill="#FFF" d="M2144.281 1448.875H.001L0 0h3221.309v1448.874H2144.282m-790.116-391.497c.27.196.54.392.814 1.662l-.22 3.25h14.466l17.547-71.296h-14.613c-1.133 4.163-2.304 8.198-3.321 12.26-2.28 9.103-4.295 18.258-6.768 27.321-2.51 9.197-7.561 17.118-18.194 21.056-12.874 4.768-22.027-1.292-19.856-13.075 1.31-7.12 3.279-14.152 4.983-21.218 2.074-8.599 4.18-17.192 6.364-26.165h-14.616c-3.074 12.39-6.127 24.413-9.013 36.465-1.145 4.784-2.33 9.603-2.791 14.456-1.506 15.867 12.439 25.749 30.313 21.212 5.027-1.276 9.443-4.323 14.905-5.928m-111.151-61.78c-.245-.174-.49-.35-.782-1.509.518-1.49.598-2.929-1.778-2.998-3.987-.117-7.982-.032-12.34-.032-8.28 33.553-16.394 66.442-24.62 99.782h14.792l9.61-37.62c10.721 12.047 23.71 13.301 37.477 8.946 5.845-1.85 11.664-5.387 15.724-9.458 12.768-12.804 16.976-27.96 12.514-44.386-3.974-14.629-20.328-22.437-37.088-17.987-4.538 1.205-8.559 3.846-13.51 5.262m184.15.017c-.238-.176-.476-.351-.71-1.64l8.31-33.286h-14.798l-25.208 101.606h14.342l3.334-7.76c10.743 8.09 14.808 9.75 24.047 9.755 14.564.01 25.38-5.912 33.152-16.075 8.024-10.494 11.026-22.241 9.54-34.626-2.174-18.098-20.17-28.611-39.312-23.062-4.26 1.235-8.025 3.733-12.697 5.088m1116.501-186.749 18.11 38.595c1.74.122 2.81.261 3.882.262 24.437.01 48.876.11 73.311-.082 5.653-.044 11.43-.62 16.918-1.766 20.44-4.27 35.148-14.156 41.022-32.2 1.093-3.36 2.265-6.71 3.122-10.117 15.177-60.286 30.37-120.568 45.437-180.874 17.17-68.726 34.22-137.474 51.321-206.212l8.868-35.65c-2.281-.18-3.872-.412-5.463-.412-19.821-.01-39.644-.105-59.462.1-6.487.067-13 .709-19.436 1.483-16.014 1.925-28.618 8.803-36.81 20.72-3.941 5.73-7.2 12.073-9.132 18.501-4.601 15.317-8.2 30.855-12.256 46.293-16.886 64.26-32.797 128.693-46.527 193.512-1.466 6.917-3.17 13.796-4.764 20.693-42.727-101.695-92.002-200.775-137.381-300.98-1.901-.157-2.966-.321-4.03-.321-24.166-.007-48.338-.261-72.494.158-8.044.14-16.189 1.525-24.038 3.201-13.938 2.978-24.351 10.29-30.367 21.495-3.381 6.296-6.345 12.936-8.042 19.691-15.546 61.884-30.728 123.835-46.106 185.75-16.115 64.874-32.34 129.729-48.491 194.597-3.45 13.858-6.79 27.736-10.383 42.437h8.591c22.265 0 44.53.01 66.795-.01 2.985 0 5.977-.053 8.953-.237 23.69-1.457 37.246-11.144 43.187-30.984 1.483-4.954 2.539-10.002 3.796-15.006 9.608-38.222 19.266-76.435 28.812-114.669 12.223-48.954 22.107-98.27 30.892-147.756.323-1.82 1.069-3.585 2.049-6.78 1.29 3.556 1.97 5.551 2.735 7.522 11.75 30.246 22.3 60.886 35.524 90.65 26.382 59.378 54.233 118.275 81.857 178.395M934.993 775.769c2.87 19.379 12.36 36.079 28.034 50.133 19.047 17.08 42.667 27.048 69.476 31.338 32.809 5.252 65.465 3.352 97.65-3.633 40.847-8.864 72.168-28.597 90.722-61.597 5.268-9.37 9.711-19.324 12.537-29.421 13.363-47.753 26.144-95.628 38.886-143.508 3.74-14.056 7.449-28.146 6.83-42.784-1.604-37.884-23.737-64.012-62.195-77.1-14.49-4.932-29.57-7.662-45.045-8.9-32.01-2.563-63.506-.65-93.833 9.075-41.415 13.28-70.012 37.388-83.15 74.134-.594 1.66-.736 3.44-1.194 5.684 7.66.823 14.615 2.144 21.584 2.197 13.941.108 24.156-5.712 31.332-15.904 13.468-19.128 33.342-30.95 58.283-36.565 21.85-4.919 44.033-4.94 66.275-2.302 10.262 1.217 20.21 3.478 29.524 7.495 16.361 7.057 26.374 18.213 29.76 33.747 3.386 15.53.802 30.608-4.516 45.464-2.276 6.356-7.25 10.963-14.362 13.505-4.723 1.688-9.671 3.145-14.683 3.966-37.562 6.151-75.203 11.953-112.744 18.198-28.272 4.703-56.077 10.894-82.294 21.487-48.55 19.615-72.253 54.412-66.877 105.291m751.187 3.761c11.23-44.827 22.552-89.636 33.643-134.488 4.443-17.969 10.404-35.747 11.148-54.254 1.069-26.623-8.267-50.004-30.371-69.172-15.07-13.068-33.335-21.54-53.754-26.522-36.341-8.868-73.13-8.557-109.521-1.133-65.485 13.36-107.244 47.912-121.682 104.97-19.683 77.782-38.801 155.67-58.146 233.515-1.21 4.871-2.29 9.767-3.539 15.118 10.185 0 19.405.396 28.558-.108 9.817-.54 17.614-4.817 22.395-12.23 2.59-4.018 4.715-8.463 5.844-12.94 15.493-61.417 30.737-122.88 46.138-184.315 4.161-16.6 7.86-33.306 15.97-48.99 14.263-27.586 37.457-46.435 71.722-54.564 20.146-4.78 40.739-5.43 61.39-3.9 15.225 1.127 30.014 4.13 43.34 11 20.019 10.32 30.652 25.601 30.49 45.578-.084 10.404-1.422 20.978-3.929 31.161-14.465 58.748-29.462 117.4-44.249 176.09-4.41 17.504-8.722 35.027-13.286 53.372 9.15 0 17.786.202 26.403-.048 12.198-.355 21.326-5.346 26.432-14.84 2.47-4.593 3.914-9.657 5.242-14.622 3.336-12.474 6.342-25.013 9.762-38.678m410.906-44.568c-3.828-17.028-13.575-31.274-27.76-43.42-16.21-13.881-35.727-23.434-56.428-31.305-25.292-9.618-50.854-18.718-76.042-28.529-9.327-3.633-18.283-8.196-26.76-13.152-9.732-5.69-16.252-13.82-18.254-23.944-3.998-20.22 2.702-37.293 21.37-50.53 8.046-5.706 17.166-9.796 27.02-12.62 29.051-8.326 58.203-7.822 87.204.019 21.374 5.778 37.674 17.201 48.502 34.126 2.867 4.48 5.413 9.127 7.793 13.815 1.823 3.592 4.41 6.49 8.597 8.008 12.946 4.69 25.734 3.01 38.88-.327-8.96-40.952-34.107-70.37-78.375-86.419-42.043-15.242-85.356-16.86-128.948-5.235-25.146 6.705-46.854 18.354-62.954 36.714-25.407 28.973-33.8 78.692 14.16 112.807 12.214 8.688 25.644 15.59 40.139 21.059 25.573 9.649 51.284 19.048 76.578 29.21 11.48 4.613 22.717 10.07 32.983 16.427 22.085 13.678 28.338 32.724 22.192 55.013-5.171 18.754-19.352 31.488-38.575 40.265-30.321 13.844-62.523 15.923-95.722 10.095-32.84-5.765-56.36-21.875-70.887-47.697-2.707-4.813-5-9.809-7.236-14.802-3.052-6.814-8.636-11.233-16.708-13.189-10.65-2.58-21.301-2.265-32.054.3 0 1.731-.276 3.141.047 4.441 1.585 6.37 2.94 12.808 5.081 19.044 14.443 42.05 44.823 71.284 94.201 84.498 34.07 9.117 68.808 10.17 103.778 3.998 25.08-4.428 48.357-12.52 68.214-26.64 33.308-23.686 46.23-54.216 39.964-92.03M534.5 610.677l20.684-82.134h8.673c17.373 0 34.748.115 52.118-.07 5.388-.058 10.84-.605 16.129-1.507 9.776-1.668 17.644-6.075 22.478-13.711 4.463-7.049 5.256-14.96 7.303-23.57h-97.422l35.811-130.886c-10.35 0-19.814-.606-29.13.139-14.783 1.182-24.225 8.537-28.391 20.77-1.293 3.793-2.546 7.609-3.516 11.47a138113.282 138113.282 0 0 0-40.52 161.757 838813.303 838813.303 0 0 0-64.583 258.727c-2.935 11.762-5.8 23.536-8.889 36.078 8.882 0 16.976.115 25.063-.026 13.907-.242 25.574-7.401 30.44-18.719 1.306-3.037 2.143-6.25 2.89-9.434 6.644-28.286 12.96-56.63 19.877-84.867 10.04-40.989 20.5-81.903 30.985-124.018m133.227 237.051c8.412-.083 16.848.145 25.232-.32 13.504-.752 23.042-6.395 27.039-17.87 1.862-5.346 3.649-10.732 5.008-16.185C739.7 754.416 754.23 695.45 768.964 636.52c5.08-20.317 12.056-40.101 23.959-58.395 15.146-23.278 37.73-37.96 68.013-44.023 15.69-3.141 31.573-4.257 47.634-4.334 5.399-.025 10.86-.395 16.175-1.188 11.291-1.684 19.3-7.124 23.275-16.495 2.224-5.244 4.237-10.558 6.166-15.888.513-1.418.367-3.012.51-4.389-1.055-.359-1.538-.64-2.048-.68-34.506-2.768-68.881-2.32-102.848 4.097-36.749 6.943-67.747 22.077-90.575 48.35-15.988 18.4-26.283 39.125-32.404 61.275-8.445 30.563-16.125 61.283-24.028 91.955-12.468 48.394-24.87 96.8-37.18 145.223-.443 1.742.374 3.72 2.114 5.7m130.785 214.86 2.584-9.305c9.176 10.437 20.247 12.51 32.871 10.192 10.046-1.845 17.72-6.86 23.496-13.97 8.728-10.744 12.093-22.842 10.615-35.753-1.569-13.699-11.23-22.692-25.581-24.384-8.74-1.031-16.626.997-23.585 5.697-.731.495-1.791.631-3.004 1.035l-.741-4.787h-13.975l-24.496 99.394h14.812c2.331-9.265 4.557-18.112 7.004-28.12m1342.392-80.49-19.954 80.202h14.806c.696-2.633 1.378-5.101 2-7.581 2.677-10.688 5.308-21.384 8.013-32.067 1.529-6.036 4.632-11.43 9.6-15.922 4.656-4.208 10.252-6.847 17.24-6.714 8.322.158 12.436 3.673 12.433 10.885 0 2.534-.435 5.104-1.028 7.595-2.062 8.659-4.307 17.286-6.43 25.934-1.43 5.824-2.771 11.664-4.229 17.82h14.602c3.875-16.079 7.76-31.77 11.363-47.511.722-3.155.673-6.508.45-9.743-.54-7.794-5.659-12.994-14.407-14.978-9.51-2.156-18.254-.459-26.39 4.037-1.985 1.097-3.898 2.291-6.97 4.107 2.361-13.302 6.962-25.14 8.765-37.688h-14.39c-1.772 6.907-3.51 13.684-5.474 21.624M585.26 1013.398c-.865 3.516-4.31 3.86-7.494 4.35-4.807.738-9.733 1.01-14.457 2.008-8.124 1.716-16.54 3.058-24.086 5.981-10.153 3.934-14.278 13.177-11.98 23.047 2.105 9.051 9.622 14.58 21.207 15.47 10.124.777 19.49-.803 27.357-7.286.996 1.413 1.601 2.685 2.613 3.64 4.899 4.618 11.356 3.95 17.493 3.188 4.874-.605 3.303-4.706 4.159-7.419.108-.345-.302-.812-.474-1.221-9.407-1.313-9.859-1.727-7.994-9.786 1.743-7.536 3.96-14.99 5.672-22.531 1.24-5.469 2.583-10.999 2.829-16.536.353-7.953-3.827-12.848-12.597-15.19-12.337-3.293-24.724-2.994-36.564 1.628-9.256 3.612-14.654 9.87-15.648 19.37l12.71 1.443c4.97-10.61 8.964-13.329 19.74-13.734 2.434-.092 4.905-.093 7.32.151 9.034.911 11.808 4.21 10.194 13.427m1670.455-13.626c1.893.12 3.826.074 5.672.393 6.513 1.13 9.585 4.024 9.564 8.794-.026 5.884-2.197 7.895-9.734 8.974-7.225 1.034-14.523 1.784-21.658 3.16-5.25 1.012-10.577 2.337-15.364 4.391-10.318 4.427-14.763 13.617-12.191 23.644 2.31 9.007 9.849 14.29 21.526 15.163 10.178.76 19.405-1.151 27.056-7.298 4.574 6.414 13.011 9.208 20.346 6.76 1.277-.426 2.612-1.745 3-2.884.639-1.871.526-3.931.726-5.878-9.885-1.06-10.28-1.361-8.438-9.232 2.296-9.813 5.022-19.553 7.297-29.37.84-3.625 1.287-7.38 1.279-11.075-.015-6.78-3.962-11.662-11.418-13.827-13.411-3.893-26.842-3.551-39.523 2.006-8.394 3.68-13.267 9.824-13.706 18.588l12.84 1.557c2.538-10.083 10.143-14.12 22.726-13.866m-352.496-10.33c-10.68 1.258-19.75 5.239-26.405 12.523-11.6 12.698-15.228 27.123-10.79 42.78 2.145 7.57 7.554 13.302 15.948 16.75 14.693 6.036 43.434 3.93 55.365-15.6l-9.393-5.676c-13.46 12.666-26.736 16.343-38.375 11.044-8.557-3.896-12.399-12.426-9.464-21.906h60.34c2.821-11.436 1.221-21.666-6.608-30.866-3.816-4.483-9.158-7.369-15.511-8.34-4.494-.687-9.142-.632-15.107-.71m521.228 17.123c-4.787-11.034-14.213-16.811-27.733-17.387-13.503-.575-25.3 3.202-33.971 12.287-12.133 12.713-15.768 27.365-11.305 43.313 1.985 7.091 6.92 12.615 14.512 16.122 15.565 7.188 45.275 4.26 56.737-15.025l-9.739-5.885c-5.104 6.045-10.543 10.607-18.249 12.337-8.462 1.9-16.82 1.934-23.734-3.57-6.532-5.2-7.651-11.786-6.196-19.471h60.777c2.641-7.627 1.662-14.659-1.1-22.72m-1475.863 46.058c11.056-11.157 14.473-24.236 12.755-38.461-1.708-14.14-12.705-23.728-28.93-24.888-15.03-1.075-27.842 3.224-37.234 13.606-9.411 10.403-12.988 22.503-11.518 35.44 1.938 17.05 15.18 26.543 35.229 26.057 11.402-.276 21.043-3.924 29.698-11.754m1550.435 8.849c19.553 6.508 38.98 2.01 50.58-12.017 9.237-11.172 12.16-23.822 9.55-37.17-2.697-13.79-13.46-22.141-29.193-23.056-14.721-.856-27.224 3.41-36.506 13.492-9.154 9.943-12.516 21.528-11.78 33.998.614 10.365 5.398 18.866 17.349 24.753m-707.064-18.993c1.691-6.829 2.768-13.829 5.27-20.43 1.97-5.19 4.917-10.438 8.902-14.628 3.034-3.19 8.064-5.688 12.76-6.865 11.16-2.795 18.081 2.508 17.281 12.426-.13 1.614-.539 3.22-.932 4.81-3.207 12.972-6.465 25.936-9.639 38.914-.423 1.73-.455 3.53-.692 5.497h14.152c3.894-16.143 7.74-31.847 11.416-47.581.58-2.484.556-5.102.523-7.655-.13-10.085-6.13-16.075-17.839-17.543-10.29-1.29-19.249 1.504-27.121 7.178-.478.345-1.284.354-2.421.642v-5.986h-14.043c-5.87 23.835-11.623 47.19-17.5 71.045h14.782a2489.117 2489.117 0 0 1 5.101-19.824m-1168.644-25.98-11.254 45.733h14.685c.425-1.553.754-2.676 1.04-3.807 3.038-12.058 5.862-24.159 9.17-36.161 2.532-9.187 7.755-17.009 18.46-20.87 13.286-4.793 22.28 1.193 20.493 13.416-.168 1.151-.517 2.284-.798 3.422-1.571 6.376-3.155 12.749-4.72 19.126-2 8.144-3.984 16.292-6.098 24.944h14.567c3.35-13.5 6.642-26.677 9.878-39.864.726-2.96 1.419-5.94 1.834-8.94.35-2.534.487-5.12.35-7.67-.471-8.778-5.915-14.177-15.983-16.076-9.002-1.698-17.211.061-24.838 4.247-1.98 1.086-3.868 2.297-6.364 3.788v-6.645h-14.168c-2.023 8.303-3.963 16.26-6.254 25.357m1409.564-19.133.818-6.116h-14.3c-3.03 12.296-5.999 24.114-8.84 35.954-1.781 7.421-4.632 14.368-11.07 19.844-5.087 4.325-11.109 6.666-18.384 5.831-5.996-.688-9.328-3.596-9.605-8.771-.172-3.223.204-6.52.837-9.71.955-4.813 2.378-9.556 3.551-14.337 2.333-9.506 4.63-19.018 7.04-28.926h-14.798c-3.772 15.995-7.57 31.693-11.1 47.435-.655 2.927-.54 6.055-.245 9.051.882 8.953 7.657 15.17 17.928 16.433 7.812.96 15.131-.417 21.674-4.322 1.92-1.146 3.704-2.462 6.162-4.11v6.68h14.22c5.288-21.464 10.5-42.621 16.112-64.936m-889.773 61.5c.629-.443 1.307-.843 1.878-1.334 13.92-11.995 10.229-27.846-7.94-34.041-2.261-.771-4.587-1.406-6.897-2.071-4.105-1.182-8.338-2.103-12.304-3.56-5.816-2.136-8.05-5.367-7.361-9.676.67-4.189 4.105-7.205 9.813-8.116 8.912-1.424 16.66.49 22.767 6.474 1.518 1.487 2.983 3.013 4.575 4.625l9.472-5.996c-7.57-17.496-40.261-21.303-54.898-8.314-2.523 2.239-4.51 5.34-5.517 8.345-3.379 10.083 1.427 18.392 13.042 22.6 6.721 2.435 13.82 4.092 20.657 6.307 4.889 1.584 8.374 4.368 8.251 9.3-.113 4.562-4.024 8.236-10.1 9.668-11.24 2.65-21.928-.528-28.766-8.568-1.06-1.247-2.07-2.527-3.335-4.076l-10.262 5.926c4.153 8.09 9.504 12.758 18.436 15.54 12.862 4.006 25.491 3.727 38.49-3.034m569.746-6.538c7.313-14.709 2.527-24.239-14.907-29.536-3.829-1.163-7.749-2.105-11.616-3.18-1.803-.5-3.639-.96-5.358-1.631-5.75-2.244-8.103-5.298-7.573-9.612.539-4.386 4.335-7.569 10.4-8.405 8.632-1.19 16.134.686 22.036 6.455 1.531 1.497 3.018 3.029 4.615 4.635 2.69-1.58 4.941-2.86 7.133-4.213.862-.532 1.588-1.227 2.305-1.79-6.415-17.131-41.406-22.064-56.241-6.907-9.05 9.246-5.883 22.884 6.569 28.615 3.55 1.634 7.503 2.642 11.312 3.842 4.068 1.282 8.283 2.252 12.255 3.716 5.969 2.2 7.983 4.983 7.572 9.57-.381 4.26-3.56 7.487-8.872 9.005-10.56 3.017-22.45-.095-29.19-7.675-1.29-1.451-2.457-2.983-3.802-4.626-2.804 1.487-5.355 2.798-7.849 4.184-.882.49-1.626 1.165-2.352 1.696 8.525 21.784 51.254 23.514 63.563 5.857m945.2-62.165c-10.475-2.11-20.39-1.116-29.749 3.674-13.049 6.679-15.62 26.855 2.392 33.524 2.978 1.102 6.036 2.054 9.088 3.001 4.578 1.422 9.294 2.561 13.75 4.217 5.363 1.993 7.555 5.034 7.146 9.113-.442 4.398-3.363 7.232-8.008 8.85-9.82 3.424-22.845.544-29.506-6.566-1.506-1.608-2.785-3.371-4.399-5.344-2.005 1.011-3.902 1.85-5.645 2.88-1.707 1.01-3.258 2.214-4.737 3.236 8.97 19.683 42.939 22.162 58.03 11.306 14.133-10.165 11.292-27.753-5.615-34.011-3.468-1.285-7.16-2.124-10.748-3.172-3.332-.973-6.755-1.767-9.971-2.968-5.931-2.213-8.008-5.074-7.451-9.598.516-4.188 3.944-7.305 9.62-8.221 8.542-1.379 16.168.186 22.229 5.869 1.765 1.655 3.424 3.393 5.263 5.225l9.621-6.123c-4.003-8.122-11.28-12.123-21.31-14.892M737.982 1019.29c-1.262-.423-2.563-.776-3.78-1.278-6.336-2.614-8.416-5.438-7.608-10.22.71-4.196 4.764-7.181 10.954-7.912 8.7-1.027 16.067 1.129 21.823 6.957 1.35 1.368 2.7 2.739 4.273 4.336l9.668-6.074c-7.692-16.266-36.493-20.932-53.021-10.054-11.015 7.25-13.135 25.599 4.272 32.338 2.955 1.144 6.057 2.015 9.113 2.96 4.584 1.417 9.243 2.668 13.768 4.21 4.735 1.614 7.41 4.591 7.08 9.17-.325 4.502-3.45 7.217-8.005 8.834-9.776 3.472-22.78.52-29.495-6.656-1.508-1.612-2.783-3.385-4.318-5.271-2.061 1.042-3.97 1.897-5.734 2.932-1.705 1-3.262 2.185-4.754 3.2 9.388 19.356 40.82 21.71 56.209 12.51 8.378-5.008 11.509-12.103 10.573-20.625-.844-7.676-6.662-11.973-14.38-14.629-5.018-1.726-10.258-2.978-16.638-4.728m1359.464-14.919 7.338 9.803 11.164-5.304c-2.873-9.855-9.798-15.993-20.493-18.484-14.09-3.282-27.253-.982-37.616 8.044-15.627 13.611-19.288 30.238-14.06 48.43 1.528 5.316 5.442 9.58 10.75 12.775 14.633 8.804 45.178 6.262 55.336-13.106l-8.836-5.431c-4.592 3.683-7.891 7.247-12.122 9.552-13.329 7.262-28.756 2.196-31.88-10.642-2.98-12.24-.014-23.7 9.711-33.32 8.196-8.107 19.075-9.052 30.708-2.317m-491.871 49.243c-13.039-.622-18.718-4.64-20.887-15.589-2.254-11.38 1.21-21.683 9.482-30.725 1.638-1.79 3.821-3.335 6.067-4.574 10.993-6.063 23.576-3.082 29.534 6.87.836 1.396 1.633 2.81 2.753 4.742l11.674-5.515c-3.288-10.014-10.375-16.11-21.444-18.63-16.369-3.728-32.927 1.6-42.684 13.974-9.57 12.136-12.625 25.654-9.082 39.949 2.517 10.151 9.893 16.917 21.959 19.329 9.806 1.96 19.426 1.325 28.514-2.53 7.18-3.046 12.941-7.455 16.726-14.257l-9.838-5.927c-5.415 6.685-11.45 12.295-22.774 12.883m712.6 10.737c1.627 0 3.255.047 4.88 0 11-.306 11.009-.31 12.47-9.685.051-.33-.435-.724-.82-1.317-2.27.093-4.673.265-7.077.275-7.742.03-9.372-1.449-7.876-7.83 2.62-11.168 5.502-22.29 8.277-33.43.946-3.798 1.9-7.595 2.948-11.785h18.059l2.289-9.42-17.715-.964c2.27-9.634 4.332-18.378 6.608-28.032l-15.16 2.708-6.915 25.868h-15.712l-2.214 9.332 15.268.92c-.287 2.185-.345 3.794-.725 5.345-3.288 13.424-6.692 26.827-9.918 40.261-.706 2.94-1.064 5.974-1.183 8.977-.157 3.985 2.337 6.605 6.712 7.753 2.046.536 4.234.675 7.805 1.023m-1273.396-2.36c4.835 2.793 10.333 2.458 15.736 2.366 10.865-.185 10.904-.252 12.772-9.477.07-.35-.37-.778-.608-1.24-2.636 0-5.307.033-7.976-.01-6.906-.098-8.214-1.338-7.487-7.05.118-.925.258-1.853.485-2.761 3.234-12.958 6.452-25.92 9.776-38.86.385-1.5 1.387-2.881 2.226-4.565h16.929l2.35-9.779h-17.718l6.518-28.483-15.153 2.765-6.816 25.835h-15.83c-.792 3.231-1.49 6.074-2.292 9.35l15.528.931c-.515 2.839-.806 5.112-1.353 7.34-3.294 13.421-6.713 26.82-9.945 40.253-1.041 4.33-1.998 8.776 2.858 13.382m-611.146-59.058c-3.093 12.762-6.256 25.51-9.244 38.29-1.064 4.55-2.149 9.155-2.42 13.77-.287 4.896 2.076 7.427 7.604 8.538 3.642.732 7.523.846 11.291.81 11.7-.11 11.752-.232 12.757-10.7-2.677 0-5.345.015-8.012 0-7.227-.05-8.846-1.521-7.638-7.487 1.114-5.502 2.513-10.964 3.887-16.425 2.393-9.516 4.863-19.017 7.487-29.25h18.159l1.997-10.177h-17.61l6.577-28.05-15.047 2.46-7.018 26.1h-15.733l-2.178 8.964c5.546.703 10.235 1.298 15.141 3.16m1092.494-29.111 2.978-13.222h-14.701l-25.081 101.668h14.77c7.211-29.121 14.42-58.227 22.034-88.446m919.454 61.394-6.68 27.043h14.721l25.198-101.57h-14.885c-6.11 24.713-12.123 49.035-18.354 74.527m-1459.788-30.563-14.183 57.524h14.873c3.052-12.252 5.933-24.052 8.94-35.829 4.114-16.113 15.36-24.242 34.428-25.058.457-.019.89-.446 1.69-.872l2.63-10.666c-12.636-2.262-21.396 3.442-30.85 8.828v-7.48H989.34c-1.15 4.295-2.233 8.345-3.544 13.553m-457.872-15.48c-10.97-.696-19.525 4.08-28.265 10.248l.475-8.33h-14.228l-17.507 71.163h14.846c2.984-11.995 5.946-23.581 8.723-35.2 1.508-6.307 4.507-11.923 9.414-16.79 6.89-6.834 15.757-9.569 26.406-8.916.636-4.187 4.467-7.684.136-12.175m2048.204 47.64-6.187 25.539h14.864l17.58-71.25h-14.857c-3.775 15.04-7.478 29.79-11.4 45.71m-1036.182-18.093-10.578 43.551h14.88c5.674-23.92 12.09-47.333 17.227-71.05h-14.581c-2.313 9.087-4.508 17.712-6.948 27.5m699.942-40.915c.11.607.163 1.731.34 1.746 6.74.56 13.51 1.324 18.197-4.534 1.405-1.754 3.608-3.038 5.972-4.969 4.341 7.403 9.411 12.4 19.928 8.74-2.792-4.488-5.448-8.957-8.335-13.314-1.512-2.283-2.172-5.604-6.535-5.255-4.877.39-10.196-1.505-14.272 2.815-4.584 4.857-9.703 9.342-15.295 14.771m354.031-12.323-2.427 10.304h14.812c1.231-5.314 2.35-10.14 3.601-15.545-4.287 0-7.504.135-10.7-.036-3.613-.194-4.685 1.618-5.286 5.277m-1034.72-5.248c-2.066.12-4.437-.38-5.071 2.248-1.06 4.391-2.23 8.762-3.437 13.466h14.858l3.907-15.715h-10.257z" style="fill:none;stroke-width:.754777"/><path fill="#82bc01" d="M2755.645 844.444c-33.674-85.244-67.86-169.472-100.242-254.387-16.232-42.565-29.182-86.382-43.604-129.636-.94-2.819-1.774-5.672-3.358-10.758-1.203 4.57-2.118 7.094-2.515 9.696-10.783 70.768-22.916 141.295-37.919 211.303-11.717 54.677-23.572 109.325-35.364 163.985-1.544 7.156-2.84 14.375-4.66 21.46-7.292 28.374-23.93 42.226-53.01 44.31-3.653.262-7.325.334-10.989.338-27.329.026-54.658.014-81.988.013h-10.545c4.411-21.023 8.51-40.87 12.745-60.688 19.824-92.766 39.74-185.513 59.52-278.288 18.876-88.543 37.51-177.138 56.593-265.636 2.083-9.66 5.721-19.157 9.87-28.16 7.385-16.023 20.167-26.481 37.275-30.739 9.635-2.397 19.632-4.378 29.506-4.578 29.65-.6 59.32-.237 88.982-.227 1.307 0 2.613.235 4.947.46 55.7 143.3 116.183 284.993 168.629 430.424 1.956-9.863 4.048-19.7 5.847-29.592 16.854-92.697 36.383-184.84 57.11-276.737 4.979-22.078 9.395-44.299 15.044-66.203 2.37-9.192 6.37-18.263 11.207-26.458 10.057-17.041 25.527-26.877 45.184-29.631 7.9-1.107 15.894-2.025 23.856-2.12 24.326-.293 48.658-.157 72.987-.144 1.953.001 3.905.333 6.706.589l-10.885 50.983c-20.992 98.3-41.919 196.616-62.995 294.898-18.494 86.242-37.142 172.45-55.77 258.664-1.053 4.871-2.49 9.662-3.833 14.467-7.21 25.805-25.264 39.944-50.353 46.05-6.736 1.639-13.827 2.462-20.765 2.525-29.994.273-59.99.129-89.986.116-1.315 0-2.63-.2-4.765-.374a21580.77 21580.77 0 0 1-22.462-55.925z"/><path fill="#83bd03" d="M781.2 796.96c-6.485-71.876 22.608-121.637 82.2-149.69 32.181-15.147 66.31-24 101.013-30.726 46.08-8.93 92.282-17.228 138.388-26.026 6.152-1.174 12.225-3.257 18.022-5.671 8.731-3.636 14.835-10.223 17.629-19.313 6.528-21.245 9.7-42.807 5.544-65.017-4.157-22.214-16.447-38.17-36.53-48.261-11.432-5.745-23.643-8.978-36.24-10.719-27.3-3.772-54.528-3.742-81.348 3.293-30.615 8.03-55.008 24.936-71.54 52.291-8.808 14.575-21.346 22.898-38.458 22.744-8.554-.077-17.092-1.965-26.494-3.142.563-3.21.737-5.755 1.466-8.129 16.126-52.55 51.228-87.025 102.062-106.018 37.225-13.908 75.885-16.642 115.176-12.978 18.996 1.771 37.505 5.676 55.29 12.728 47.206 18.718 74.374 56.082 76.341 110.259.76 20.933-3.791 41.084-8.383 61.185-15.64 68.472-31.328 136.936-47.73 205.227-3.469 14.44-8.923 28.674-15.389 42.074-22.774 47.192-61.22 75.412-111.356 88.089-39.507 9.988-79.59 12.705-119.862 5.196-32.906-6.136-61.898-20.392-85.277-44.816-19.24-20.099-30.889-43.982-34.525-72.58M1118.4 656.162l4.551-20.301c-9.071 2.531-16.521 5.178-24.196 6.657-42.14 8.118-84.355 15.854-126.507 23.913-26.839 5.131-53.369 11.32-78.115 23.545-32.307 15.958-51.57 41.116-55.685 77.344-3.842 33.82 8.438 64.305 40.038 81.519 8.962 4.881 18.766 8.723 28.635 11.334 25.228 6.672 50.793 5.466 76.288 1.058 21.945-3.794 42.415-11.351 60.608-24.407 27.293-19.587 43.01-46.881 50.855-78.874 8.16-33.276 15.462-66.763 23.528-101.788z"/><path fill="#82bd03" d="M1703.185 804.047c-4.025 18.718-7.715 36.65-11.81 54.489-1.63 7.1-3.403 14.343-6.434 20.91-6.266 13.578-17.471 20.716-32.443 21.222-10.577.358-21.177.07-32.409.07 5.602-26.235 10.895-51.294 16.309-76.326 18.149-83.931 36.557-167.807 54.313-251.822a224.498 224.498 0 0 0 4.823-44.563c.198-28.568-12.854-50.422-37.425-65.18-16.358-9.824-34.51-14.12-53.198-15.731-25.349-2.187-50.626-1.257-75.354 5.578-42.058 11.625-70.527 38.58-88.035 78.03-9.954 22.429-14.494 46.322-19.602 70.06-18.904 87.856-37.615 175.754-56.633 263.585-1.386 6.401-3.993 12.758-7.173 18.503-5.868 10.602-15.438 16.72-27.488 17.492-11.235.72-22.553.153-35.054.153 1.534-7.652 2.858-14.653 4.344-21.62 23.745-111.324 47.212-222.709 71.371-333.943 17.722-81.597 68.979-131.01 149.36-150.116 44.668-10.617 89.823-11.062 134.43 1.62 25.064 7.127 47.483 19.241 65.98 37.93 27.132 27.41 38.592 60.848 37.28 98.92-.913 26.467-8.23 51.891-13.684 77.588-13.613 64.141-27.511 128.222-41.468 193.15z"/><path fill="#83bd03" d="M2207.853 740.346c7.563 53.218-8.298 96.878-49.182 130.75-24.373 20.194-52.945 31.767-83.73 38.098-42.923 8.828-85.562 7.32-127.38-5.717-60.61-18.896-97.9-60.704-115.628-120.838-2.63-8.917-4.291-18.125-6.236-27.234-.398-1.86-.058-3.876-.058-6.353 13.198-3.666 26.272-4.116 39.344-.427 9.908 2.796 16.762 9.117 20.508 18.861 2.745 7.14 5.559 14.285 8.882 21.167 17.832 36.928 46.702 59.967 87.01 68.211 40.75 8.335 80.277 5.362 117.494-14.436 23.596-12.552 41.002-30.762 47.35-57.582 7.543-31.875-.132-59.113-27.24-78.673-12.602-9.092-26.394-16.895-40.485-23.491-31.047-14.534-62.607-27.975-93.996-41.774-17.792-7.822-34.277-17.691-49.27-30.115-58.868-48.787-48.565-119.89-17.38-161.323 19.762-26.257 46.408-42.915 77.274-52.504 53.506-16.624 106.671-14.31 158.277 7.487 54.336 22.95 85.204 65.021 96.2 123.586-16.135 4.772-31.831 7.174-47.722.466-5.139-2.17-8.315-6.315-10.553-11.451-2.921-6.704-6.046-13.35-9.565-19.757-13.29-24.203-33.299-40.54-59.534-48.803-35.597-11.213-71.38-11.933-107.04-.026-12.093 4.038-23.288 9.886-33.165 18.047-22.914 18.93-31.137 43.345-26.23 72.262 2.458 14.48 10.46 26.103 22.407 34.241 10.405 7.088 21.397 13.613 32.846 18.809 30.917 14.03 62.293 27.044 93.337 40.798 25.41 11.257 49.367 24.918 69.264 44.769 17.41 17.37 29.374 37.742 34.2 62.952zM289.603 562.586c-12.745 59.392-25.584 117.902-37.908 176.52-8.49 40.38-16.243 80.915-24.397 121.365-.918 4.555-1.945 9.148-3.548 13.492-5.973 16.185-20.294 26.424-37.364 26.77-9.927.2-19.862.037-30.763.037 3.79-17.936 7.308-34.774 10.91-51.594 26.413-123.336 52.826-246.671 79.273-370a224801.952 224801.952 0 0 1 49.736-231.325c1.19-5.521 2.73-10.977 4.315-16.403 5.115-17.494 16.704-28.011 34.85-29.702 11.435-1.065 23.05-.199 35.755-.199l-43.957 187.177h119.581c-2.512 12.314-3.485 23.627-8.963 33.707-5.935 10.92-15.592 17.222-27.591 19.608-6.492 1.29-13.185 2.072-19.798 2.154-21.321.266-42.647.1-63.972.1h-10.646c-8.542 39.516-16.965 78.487-25.513 118.294zM452.33 900.673c-1.208-2.752-2.211-5.58-1.668-8.072A76259.077 76259.077 0 0 1 496.3 684.92c9.7-43.863 19.127-87.795 29.493-131.502 7.513-31.676 20.15-61.313 39.775-87.629 28.02-37.572 66.068-59.214 111.175-69.143 41.694-9.177 83.888-9.817 126.242-5.86.625.059 1.219.46 2.514.973-.175 1.969 0 4.248-.627 6.277-2.368 7.622-4.838 15.222-7.568 22.722-4.878 13.4-14.71 21.18-28.569 23.588-6.524 1.134-13.227 1.663-19.853 1.7-19.714.11-39.21 1.704-58.469 6.197-37.172 8.67-64.892 29.666-83.483 62.956-14.61 26.161-23.172 54.454-29.408 83.51-18.086 84.273-35.921 168.599-53.956 252.883-1.669 7.798-3.862 15.5-6.148 23.146-4.906 16.41-16.614 24.48-33.19 25.553-10.29.667-20.644.34-31.897.38z"/><path fill="#86be0a" d="M1386.262 1113.043c4.9-2.74 9.52-6.313 14.75-8.08 23.498-7.935 45.586 7.1 48.253 32.982 1.826 17.71-1.859 34.51-11.708 49.517-9.54 14.535-22.817 23.002-40.693 22.989-11.34-.01-16.33-2.382-29.517-13.95l-4.092 11.097h-17.604l30.941-145.304h18.165c-3.451 16.105-6.826 31.853-10.469 48.908-.144 1.881-.02 2.455.102 3.03l1.872-1.19m42.703 51.12c2.638-10.117 3.891-20.26.42-30.453-3.328-9.775-10.667-15.04-21.043-15.213-10.186-.171-17.983 4.523-23.77 12.427-9.933 13.565-13.18 29.037-10.56 45.422 2.533 15.84 17.778 23.489 32.74 16.452 4.914-2.31 9.618-6.178 12.936-10.477 3.768-4.882 5.876-11.047 9.277-18.158zM613.654 1208.847c-2.868 13.482-5.6 26.134-8.462 39.384h-18.18c10.032-47.428 20.023-94.66 30.068-142.141h17.152l.91 6.847c1.488-.579 2.79-.774 3.688-1.48 8.54-6.723 18.22-9.623 28.949-8.149 17.614 2.42 29.473 15.281 31.399 34.872 1.814 18.463-2.316 35.765-13.03 51.13-7.089 10.168-16.508 17.338-28.84 19.977-15.495 3.315-29.084.35-40.347-14.576-1.291 5.417-2.232 9.362-3.307 14.136m39.608-14.57c20.33-8.485 32.423-34.334 26.82-57.336-3.717-15.264-16.62-22.573-31.19-16.69-5.284 2.134-10.552 6.032-14.067 10.508-10.624 13.53-13.574 29.437-10.802 46.188 1.93 11.665 9.71 17.67 21.619 17.962 1.985.049 3.978-.207 7.62-.633zM1160.243 1113.026c5.227-2.834 10.162-6.611 15.733-8.335 20.571-6.363 40.645 4.803 45.523 25.723 5.477 23.49.311 45.165-15.36 63.475-4.983 5.822-12.127 10.881-19.3 13.526-16.9 6.228-32.842 4.434-46.003-12.794l-11.795 53.8h-18.157l30.221-142.697c5.35 0 10.253-.12 15.147.046 2.915.1 2.818 2.158 1.945 5.507-.108 1.792.02 2.365.15 2.94l1.896-1.19m-13.026 57.911c.826 3.872 1.12 7.96 2.59 11.57 3.151 7.74 9.16 11.83 17.664 12.42 8.46.585 16.078-1.511 21.817-7.674 14.142-15.183 19.194-33.133 13.893-53.33-2.676-10.193-11.097-15.606-21.793-15.434-11.432.183-19.362 6.32-25.158 15.482-6.76 10.684-9.542 22.532-9.013 36.966zM2261.648 1092.079c2.272-10.524 4.405-20.215 6.58-30.093h17.664c-2.214 17.945-7.86 34.874-10.759 53.897 3.771-2.596 6.118-4.305 8.555-5.874 9.986-6.428 20.72-8.856 32.393-5.773 10.738 2.837 17.02 10.274 17.683 21.42.274 4.626.335 9.42-.551 13.933-4.422 22.51-9.192 44.95-13.948 67.945h-17.923c1.79-8.804 3.436-17.155 5.19-25.484 2.607-12.368 5.363-24.705 7.893-37.088.728-3.562 1.26-7.238 1.262-10.861 0-10.314-5.047-15.341-15.261-15.567-8.577-.19-15.446 3.583-21.16 9.602-6.1 6.423-9.908 14.137-11.785 22.77-3.32 15.277-6.55 30.573-9.837 45.857-.762 3.547-1.6 7.077-2.453 10.841h-18.174c8.273-38.74 16.383-76.717 24.63-115.525z"/><path fill="#86be0b" d="M352.272 1136.908c1.743-12.415-1.662-17.134-12.751-18.437-2.964-.348-5.997-.346-8.985-.215-13.227.579-18.128 4.466-24.23 19.64l-15.6-2.064c1.22-13.584 7.846-22.534 19.207-27.7 14.534-6.61 29.737-7.038 44.88-2.328 10.766 3.348 15.896 10.35 15.463 21.722-.302 7.919-1.95 15.828-3.473 23.648-2.1 10.783-4.822 21.445-6.962 32.221-2.288 11.525-1.734 12.117 9.813 13.994.21.586.714 1.253.58 1.747-1.049 3.88.879 9.745-5.104 10.61-7.532 1.09-15.458 2.045-21.47-4.56-1.244-1.365-1.987-3.184-3.208-5.204-9.657 9.27-21.153 11.53-33.58 10.419-14.22-1.272-23.447-9.18-26.032-22.123-2.819-14.115 2.243-27.334 14.707-32.96 9.26-4.18 19.592-6.099 29.563-8.552 5.799-1.427 11.846-1.816 17.745-2.874 3.908-.7 8.138-1.191 9.437-6.984m-4.889 23.157c-1.009-.788-2.16-2.386-3.005-2.238-9.478 1.666-18.95 3.42-28.332 5.555-3.501.797-6.985 2.272-10.087 4.098-6.217 3.66-7.678 9.59-6.765 16.38.863 6.419 4.949 9.967 10.723 11.794 14.311 4.528 29.67-3.948 33.627-18.567 1.386-5.12 2.408-10.338 3.84-17.022zM2401.568 1118.186c-14.577-.362-23.913 5.41-27.028 19.83l-15.76-2.226c.54-12.534 6.52-21.32 16.824-26.582 15.564-7.948 32.05-8.437 48.512-2.869 9.153 3.096 13.997 10.077 14.015 19.774.01 5.284-.539 10.653-1.57 15.838-2.792 14.039-6.138 27.967-8.956 42-2.261 11.256-1.776 11.686 10.357 13.203-.246 2.784-.107 5.73-.891 8.406-.477 1.628-2.115 3.515-3.683 4.125-9.003 3.5-19.36-.496-24.973-9.668-9.391 8.79-20.717 11.523-33.21 10.436-14.333-1.248-23.587-8.803-26.423-21.684-3.156-14.339 2.3-27.482 14.965-33.812 5.875-2.938 12.414-4.833 18.859-6.28 8.757-1.967 17.715-3.04 26.584-4.52 9.251-1.542 11.915-4.418 11.947-12.832.026-6.822-3.745-10.961-11.74-12.576-2.266-.457-4.638-.39-7.829-.563m-32.992 54.45c-3.583 11.967-1.204 18.885 7.715 22.43 12.387 4.926 28.738-1.435 33.513-13.86 2.776-7.225 3.923-15.077 6.251-24.449-13.301 2.857-24.692 4.91-35.828 7.909-3.914 1.054-7.202 4.432-11.651 7.97zM1970.615 1103.27c6.471.254 12.176.176 17.692 1.158 7.799 1.388 14.355 5.515 19.039 11.927 9.61 13.157 11.574 27.786 8.112 44.14h-74.066c-3.602 13.557 1.114 25.756 11.617 31.327 14.286 7.578 30.582 2.32 47.104-15.794l11.53 8.12c-14.646 27.927-49.923 30.94-67.958 22.307-10.304-4.931-16.943-13.127-19.577-23.955-5.446-22.389-.993-43.019 13.246-61.177 8.168-10.417 19.301-16.11 33.261-18.052m-5.82 16.305c-13.115 6.174-20.057 15.233-20.178 26.16h53.239c.58-20.35-8.459-29.116-27.617-27.456-1.316.113-2.613.453-5.444 1.296zM2609.75 1128.66c3.185 10.77 4.387 20.826 1.145 31.732h-74.601c-1.786 10.991-.412 20.41 7.605 27.846 8.486 7.871 18.746 7.823 29.133 5.106 9.459-2.474 16.134-9 22.4-17.643l11.954 8.415c-14.069 27.578-50.537 31.766-69.642 21.486-9.32-5.014-15.377-12.914-17.813-23.055-5.478-22.807-1.016-43.76 13.876-61.94 10.642-12.993 25.123-18.395 41.698-17.572 16.595.823 28.166 9.086 34.246 25.625m-68.26 9.408-2.342 7.843h54.214c1.69-20.155-9.9-31.02-28.858-27.404-10.619 2.024-17.434 8.995-23.014 19.56zM797.504 1194.284c-10.133 10.681-21.966 15.898-35.961 16.293-24.61.695-40.864-12.882-43.242-37.263-1.805-18.502 2.585-35.805 14.137-50.683 11.528-14.847 27.254-20.994 45.703-19.457 19.916 1.659 33.414 15.371 35.51 35.59 2.11 20.345-2.085 39.047-16.147 55.52m-26.635-.326c4.552-3.238 10.066-5.688 13.48-9.858 11.474-14.014 14.135-30.602 10.679-47.957-1.893-9.507-8.318-15.82-18.233-17.551-9.357-1.634-17.8.595-25.042 6.92-13.216 11.542-19.913 37.916-13.594 54.272 3.71 9.6 10.776 14.991 21.187 15.38 3.287.123 6.602-.513 11.523-1.206z"/><path fill="#86be0a" d="M2700.396 1206.09c-13.988-8.087-19.86-20.244-20.612-35.066-.904-17.833 3.222-34.401 14.459-48.62 11.393-14.417 26.739-20.519 44.81-19.295 19.311 1.309 32.521 13.252 35.832 32.972 3.204 19.089-.385 37.179-11.723 53.156-14.238 20.06-38.084 26.491-62.766 16.852m24.073-86.893c-7.183 2.44-12.86 6.867-17.067 13.142-8.325 12.418-11.431 26.224-9.344 40.862 2.73 19.141 21.353 28.16 38.447 18.824 3.693-2.017 7.214-4.947 9.825-8.24 10.792-13.611 13.554-29.489 10.714-46.16-2.159-12.679-11.16-19.353-24.044-19.429-2.314-.014-4.63.371-8.53 1.001z"/><path fill="#86be0b" d="M1294.886 1199.666c-5.764 3.196-11.185 7.553-17.355 9.377-21.94 6.489-39.056-7.643-37.208-30.334.566-6.94 2.02-13.832 3.426-20.673 3.543-17.236 7.29-34.43 11.063-52.147h17.94c-2.68 12.831-5.266 25.12-7.811 37.417-2.092 10.105-4.507 20.16-6.117 30.343-2.664 16.851 8.57 25.518 24.372 18.699 13.052-5.632 19.252-16.96 22.333-30.112 3.036-12.961 5.51-26.053 8.307-39.07 1.249-5.81 2.686-11.58 4.076-17.535h17.938l-21.539 101.96h-17.755a77.68 77.68 0 0 1 .534-5.946c.133-1.89 0-2.484-.128-3.077l-2.076 1.098zM1832.977 1180.075a7446.627 7446.627 0 0 0-6.046 27.536h-18.144l21.48-101.6h17.237v8.56c1.396-.411 2.385-.425 2.972-.917 9.663-8.115 20.658-12.11 33.29-10.266 14.372 2.1 21.735 10.666 21.896 25.089.041 3.65.07 7.394-.642 10.946-4.512 22.5-9.233 44.96-14.013 68.044h-17.37c.29-2.812.33-5.387.849-7.86 3.895-18.56 7.894-37.1 11.831-55.65.482-2.274.985-4.57 1.145-6.879.981-14.184-7.514-21.767-21.213-17.77-5.764 1.682-11.938 5.256-15.662 9.818-4.892 5.992-8.51 13.495-10.925 20.918-3.073 9.44-4.394 19.451-6.685 30.031z"/><path fill="#86be0a" d="M398.954 1141.294c2.597-12.195 4.978-23.576 7.461-35.449h17.39v9.504c3.064-2.134 5.382-3.865 7.812-5.419 9.362-5.985 19.439-8.502 30.487-6.073 12.358 2.717 19.04 10.438 19.62 22.991.168 3.645 0 7.344-.43 10.968-.51 4.291-1.36 8.551-2.252 12.785-3.972 18.858-8.012 37.703-12.124 57.009h-17.88c2.594-12.374 5.03-24.025 7.484-35.673 1.92-9.12 3.865-18.234 5.794-27.351.344-1.628.773-3.248.98-4.894 2.193-17.48-8.847-26.04-25.154-19.187-13.14 5.523-19.552 16.708-22.66 29.847-4.06 17.164-7.526 34.47-11.256 51.712-.35 1.618-.754 3.225-1.276 5.445h-18.025c4.67-22.114 9.242-43.758 14.03-66.215zM2128.664 1115.574c-6.643 31.083-13.04 61.34-19.531 92.035h-17.454v-9.554c-3.018 2.359-5.207 4.24-7.564 5.88-8.031 5.584-17.016 7.553-26.605 6.179-12.607-1.807-20.922-10.696-22.004-23.5-.362-4.284-.504-8.758.301-12.943 4.332-22.513 8.994-44.962 13.623-67.835h18.165c-2.958 14.168-5.778 27.771-8.642 41.365-1.44 6.838-3.187 13.62-4.358 20.503-.778 4.562-1.24 9.277-1.028 13.887.34 7.4 4.43 11.559 11.79 12.543 8.93 1.194 16.322-2.154 22.564-8.34 7.903-7.83 11.403-17.765 13.589-28.378 3.488-16.932 7.132-33.832 10.851-51.416h17.552c-.352 3.07-.678 5.908-1.25 9.574z"/><path fill="#87bf0c" d="M1036.17 1203.132c-15.368 9.23-30.87 9.63-46.657 3.9-10.964-3.978-17.532-10.652-22.629-22.222l12.596-8.475c1.553 2.215 2.792 4.045 4.094 5.83 8.393 11.496 21.512 16.042 35.308 12.252 7.458-2.049 12.259-7.303 12.398-13.827.15-7.053-4.127-11.034-10.128-13.299-8.393-3.167-17.105-5.538-25.356-9.02-14.256-6.017-20.155-17.9-16.008-32.32 1.237-4.297 3.675-8.731 6.772-11.933 17.966-18.575 58.093-13.131 67.385 11.89-3.497 2.578-7.19 5.302-11.626 8.575-1.955-2.306-3.753-4.488-5.616-6.614-7.496-8.558-17.006-11.295-27.946-9.26-7.006 1.304-11.223 5.617-12.045 11.607-.846 6.162 1.897 10.783 9.035 13.837 4.87 2.084 10.064 3.402 15.103 5.092 2.835.95 5.69 1.858 8.467 2.961 22.3 8.86 26.831 31.528 9.745 48.681-.7.703-1.534 1.275-2.891 2.345zM1735.717 1194.008c-14.733 24.587-67.18 22.112-77.644-9.04.89-.76 1.804-1.723 2.887-2.425 3.061-1.982 6.192-3.857 9.634-5.983 1.651 2.35 3.084 4.54 4.667 6.615 8.272 10.84 22.868 15.29 35.83 10.975 6.518-2.17 10.42-6.785 10.889-12.876.504-6.56-1.968-10.54-9.295-13.687-4.875-2.094-10.049-3.481-15.041-5.314-4.676-1.716-9.527-3.158-13.886-5.495-15.285-8.196-19.17-27.7-8.063-40.92 18.21-21.676 61.16-14.622 69.033 9.876-.88.806-1.772 1.799-2.83 2.56-2.689 1.934-5.453 3.765-8.754 6.025-1.961-2.297-3.785-4.487-5.665-6.628-7.245-8.25-16.453-10.932-27.048-9.23-7.445 1.194-12.105 5.746-12.766 12.018-.65 6.17 2.239 10.537 9.296 13.746 2.11.96 4.363 1.618 6.577 2.334 4.746 1.535 9.558 2.883 14.258 4.547 21.399 7.575 27.273 21.204 17.921 42.902z"/><path fill="#86be0b" d="M2897.073 1104.607c11.519 3.797 20.45 9.518 25.364 21.133l-11.81 8.756c-2.257-2.619-4.293-5.106-6.46-7.472-7.44-8.127-16.8-10.364-27.285-8.393-6.967 1.31-11.174 5.768-11.808 11.757-.684 6.47 1.866 10.56 9.146 13.726 3.948 1.717 8.15 2.853 12.239 4.244 4.403 1.5 8.935 2.7 13.193 4.536 20.752 8.95 24.239 34.102 6.893 48.639-18.525 15.524-60.22 11.98-71.23-16.17 1.815-1.46 3.718-3.183 5.814-4.626 2.14-1.474 4.468-2.673 6.93-4.119 1.98 2.821 3.55 5.343 5.398 7.642 8.176 10.168 24.164 14.287 36.218 9.391 5.701-2.315 9.286-6.368 9.829-12.657.503-5.833-2.189-10.183-8.77-13.032-5.471-2.368-11.26-3.998-16.879-6.03-3.746-1.355-7.5-2.716-11.155-4.293-22.11-9.537-18.953-38.39-2.936-47.942 11.487-6.85 23.658-8.27 37.309-5.09z"/><path fill="#87bf0c" d="M540.254 1146.303c7.07 2.298 13.502 4.088 19.66 6.558 9.475 3.798 16.616 9.943 17.651 20.92 1.15 12.187-2.693 22.333-12.977 29.496-18.888 13.156-57.47 9.789-68.993-17.89 1.831-1.453 3.742-3.148 5.835-4.578 2.166-1.48 4.508-2.702 7.038-4.193 1.884 2.698 3.45 5.234 5.3 7.539 8.243 10.263 24.204 14.483 36.204 9.519 5.591-2.313 9.427-6.196 9.825-12.634.405-6.548-2.878-10.806-8.69-13.114-5.554-2.205-11.272-3.994-16.9-6.02-3.75-1.351-7.558-2.598-11.186-4.234-21.365-9.637-18.764-35.877-5.243-46.245 20.288-15.557 55.639-8.884 65.08 14.378l-11.866 8.686c-1.932-2.284-3.587-4.244-5.246-6.201-7.064-8.335-16.107-11.418-26.785-9.949-7.6 1.045-12.575 5.315-13.446 11.315-.992 6.839 1.561 10.877 9.337 14.615 1.495.718 3.091 1.224 5.402 2.032z"/><path fill="#87bf0d" d="M2207.627 1124.223c-13.738-9.09-27.09-7.739-37.151 3.855-11.937 13.757-15.578 30.145-11.921 47.65 3.835 18.358 22.772 25.603 39.132 15.219 5.193-3.297 9.242-8.394 14.879-13.662l10.846 7.768c-12.469 27.697-49.96 31.333-67.922 18.743-6.516-4.569-11.32-10.668-13.195-18.27-6.418-26.015-1.923-49.794 17.258-69.258 12.72-12.908 28.877-16.197 46.17-11.504 13.129 3.563 21.63 12.34 25.155 26.434l-13.703 7.585c-3.327-5.18-6.167-9.6-9.548-14.56z"/><path fill="#87bf0c" d="M1605.278 1195.122c13.042-.778 20.45-8.801 27.097-18.362l12.075 8.478c-4.646 9.726-11.717 16.032-20.53 20.388-11.155 5.512-22.963 6.42-35 3.617-14.81-3.448-23.864-13.124-26.953-27.641-4.35-20.443-.599-39.776 11.147-57.13 11.977-17.695 32.301-25.316 52.393-19.985 13.587 3.605 22.285 12.323 26.322 26.643l-14.33 7.888c-1.375-2.763-2.353-4.786-3.379-6.783-7.313-14.232-22.758-18.494-36.251-9.824-2.757 1.771-5.437 3.98-7.448 6.542-10.152 12.93-14.405 27.663-11.638 43.939 2.662 15.658 9.633 21.403 26.495 22.23z"/><path fill="#86be0a" d="M2478.215 1210.52c-3.495-.478-6.18-.676-8.692-1.443-5.37-1.641-8.43-5.388-8.238-11.087.146-4.294.585-8.634 1.452-12.838 3.96-19.212 8.138-38.38 12.174-57.576.466-2.218.538-4.52.89-7.644l-18.741-1.315 2.717-13.346h19.286l8.488-36.994 18.607-3.872-8.11 40.089 21.744 1.377-2.81 13.472h-22.165c-1.288 5.993-2.459 11.422-3.62 16.853-3.406 15.932-6.944 31.837-10.159 47.808-1.836 9.125.164 11.241 9.667 11.197 2.951-.014 5.901-.26 8.688-.393.471.849 1.068 1.41 1.005 1.884-1.793 13.405-1.804 13.413-15.306 13.85-1.994.065-3.992 0-6.877-.023z"/><path fill="#87bf0c" d="M915.43 1206.644c-5.317-6.065-4.144-12.423-2.865-18.615 3.967-19.21 8.163-38.372 12.207-57.565.671-3.186 1.027-6.437 1.66-10.496-6.512-.455-12.298-.86-19.06-1.331l2.814-13.372h19.43l8.366-36.946c5.556-1.18 11.277-2.397 18.6-3.954l-8.001 40.733h21.75l-2.886 13.984h-20.78c-1.03 2.409-2.26 4.385-2.732 6.528-4.08 18.507-8.03 37.042-12 55.573-.277 1.3-.45 2.626-.594 3.948-.893 8.17.713 9.942 9.189 10.084 3.276.055 6.555.01 9.79.01.293.66.834 1.27.747 1.772-2.293 13.193-2.34 13.288-15.677 13.553-6.632.132-13.381.611-19.958-3.905z"/><path fill="#86be0b" d="M165.788 1121.803c-5.889-1.757-11.644-2.607-18.452-3.613l2.673-12.818h19.312l8.614-37.326 18.47-3.518-8.073 40.114h21.615l-2.452 14.552h-22.289c-3.22 14.636-6.252 28.223-9.19 41.83-1.686 7.81-3.404 15.621-4.77 23.49-1.483 8.532.505 10.636 9.375 10.707 3.274.026 6.549 0 9.834 0-1.234 14.97-1.297 15.146-15.658 15.302-4.626.05-9.389-.112-13.86-1.158-6.785-1.589-9.685-5.21-9.332-12.21.332-6.6 1.663-13.184 2.97-19.692 3.667-18.276 7.549-36.508 11.213-55.664z"/><path fill="#86be0a" d="M1506.654 1081.874c-9.097 42.42-17.945 84.043-26.797 125.69h-18.128l30.785-145.395h18.045c-1.29 6.675-2.473 12.792-3.905 19.705zM2635.621 1168.04c7.515-35.62 14.896-70.402 22.396-105.742h18.27l-30.929 145.251h-18.068c2.84-13.402 5.52-26.037 8.331-39.51z"/><path fill="#87bf0c" d="M843.81 1124.337c1.469-6.62 2.799-12.41 4.21-18.554h17.166v10.698c11.603-7.703 22.356-15.86 37.866-12.624l-3.228 15.252c-.982.609-1.514 1.22-2.075 1.248-23.405 1.166-37.209 12.79-42.259 35.834-3.691 16.841-7.226 33.717-10.972 51.239H826.26a68193.408 68193.408 0 0 0 17.548-83.093m20.256-6.938 1.039.455c-.096-.402-.191-.804-1.04-.455z"/><path fill="#87bf0d" d="M282.423 1103.199c4.548 6.251-.154 11.253-.935 17.24-13.072-.934-23.956 2.977-32.413 12.75-6.023 6.96-9.704 14.993-11.554 24.01-3.41 16.617-7.045 33.187-10.707 50.34H208.59c7.18-34.004 14.29-67.676 21.49-101.767h17.464l-.583 11.91c10.728-8.82 21.23-15.65 35.462-14.483zM2795.859 1170.32c4.68-21.93 9.225-43.026 13.859-64.534h18.236l-21.579 101.893h-18.245c2.622-12.61 5.109-24.567 7.729-37.359zM1524.012 1144.45c2.846-13.165 5.54-25.5 8.378-38.495h17.897c-6.306 33.918-14.18 67.4-21.143 101.608h-18.266c4.364-20.936 8.674-41.609 13.134-63.112z"/><path fill="#8ac012" d="M2383.44 1086.212c6.43-7.205 12.713-13.62 18.34-20.565 5.003-6.177 11.532-3.467 17.518-4.025 5.356-.5 6.166 4.25 8.022 7.514 3.543 6.231 6.803 12.623 10.231 19.041-12.91 5.234-19.132-1.912-24.46-12.499-2.903 2.76-5.607 4.597-7.331 7.106-5.754 8.377-14.064 7.285-22.336 6.483-.218-.02-.282-1.628.015-3.055z"/><path fill="#86be0a" d="M2817.688 1068.356c.612-4.44 1.928-7.032 6.363-6.755 3.922.245 7.871.051 13.133.051l-4.42 22.23h-18.181a2533.21 2533.21 0 0 0 3.105-15.526z"/><path fill="#86be0b" d="M1548.318 1061.643h11.767l-4.797 22.472h-18.236c1.48-6.727 2.917-12.977 4.217-19.256.779-3.76 3.69-3.045 7.049-3.216z"/><path fill="#FEFFFD" d="M1118.205 656.977c-7.871 34.21-15.172 67.697-23.333 100.973-7.845 31.993-23.562 59.287-50.856 78.874-18.192 13.056-38.662 20.613-60.607 24.407-25.495 4.408-51.06 5.614-76.288-1.058-9.87-2.61-19.673-6.453-28.635-11.334-31.6-17.214-43.88-47.698-40.038-81.519 4.115-36.228 23.378-61.386 55.685-77.344 24.746-12.224 51.276-18.414 78.115-23.545 42.152-8.059 84.366-15.795 126.507-23.913 7.675-1.479 15.125-4.126 24.196-6.657a12935.5 12935.5 0 0 1-4.746 21.116z" style="fill:none"/><path fill="#FCFEFA" d="M1428.68 1164.914c-3.116 6.359-5.224 12.524-8.992 17.406-3.318 4.3-8.023 8.166-12.936 10.477-14.962 7.037-30.207-.612-32.74-16.452-2.62-16.385.627-31.857 10.56-45.422 5.787-7.904 13.584-12.598 23.77-12.427 10.376.174 17.715 5.438 21.044 15.213 3.47 10.193 2.217 20.336-.707 31.205z" style="fill:none"/><path fill="#fff" d="M1385.845 1112.642c-.207.797-.831 1.193-1.455 1.59-.123-.575-.246-1.149-.103-2.234.557-.26.849-.01 1.558.644z"/><path fill="#FCFEFA" d="M652.435 1194.431c-2.815.271-4.808.526-6.793.478-11.91-.291-19.689-6.298-21.619-17.962-2.772-16.75.177-32.659 10.802-46.188 3.515-4.476 8.783-8.374 14.068-10.508 14.568-5.883 27.472 1.426 31.19 16.69 5.602 23.002-6.49 48.851-27.648 57.49zM1147.18 1170.03c-.492-13.527 2.29-25.375 9.05-36.058 5.796-9.161 13.726-15.299 25.158-15.482 10.696-.172 19.117 5.24 21.793 15.434 5.3 20.197.249 38.146-13.893 53.33-5.74 6.162-13.357 8.259-21.817 7.673-8.504-.59-14.513-4.68-17.664-12.42-1.47-3.609-1.764-7.697-2.628-12.478z" style="fill:none"/><path fill="#fff" d="M1159.818 1112.622c-.207.801-.84 1.198-1.472 1.594-.129-.574-.257-1.148-.12-2.235.566-.264.867-.014 1.592.64z"/><path fill="#FBFDF7" d="M347.262 1160.82c-1.31 5.93-2.332 11.148-3.718 16.268-3.956 14.618-19.316 23.094-33.627 18.566-5.774-1.827-9.86-5.375-10.723-11.794-.913-6.79.548-12.72 6.765-16.38 3.102-1.826 6.586-3.3 10.087-4.098 9.382-2.134 18.854-3.89 28.332-5.555.844-.148 1.996 1.45 2.884 2.993zM2369.013 1172.025c4.012-2.927 7.3-6.305 11.214-7.36 11.136-2.999 22.527-5.05 35.828-7.908-2.328 9.372-3.475 17.224-6.251 24.45-4.775 12.424-21.126 18.785-33.513 13.86-8.919-3.546-11.298-10.464-7.278-23.042zM1965.558 1119.272c2.068-.538 3.365-.878 4.68-.992 19.16-1.66 28.198 7.107 27.618 27.456h-53.24c.122-10.927 7.064-19.986 20.942-26.464zM2541.794 1137.349c5.277-9.847 12.092-16.818 22.71-18.842 18.96-3.616 30.55 7.249 28.86 27.404h-54.215c.895-2.997 1.618-5.42 2.645-8.562z" style="fill:none"/><path fill="#FCFEFA" d="M770.06 1194.16c-4.112.491-7.427 1.127-10.714 1.004-10.411-.389-17.478-5.78-21.187-15.38-6.319-16.356.378-42.73 13.594-54.273 7.241-6.324 15.685-8.553 25.042-6.92 9.915 1.732 16.34 8.045 18.233 17.552 3.456 17.354.795 33.943-10.678 47.957-3.415 4.17-8.93 6.62-14.29 10.06zM2725.262 1118.982c3.108-.416 5.424-.8 7.738-.787 12.883.076 21.885 6.75 24.044 19.43 2.84 16.67.077 32.548-10.714 46.159-2.611 3.293-6.132 6.223-9.825 8.24-17.094 9.336-35.718.317-38.447-18.824-2.087-14.638 1.02-28.444 9.344-40.862 4.206-6.275 9.884-10.701 17.86-13.356z" style="fill:none"/><path fill="#fff" d="M1295.356 1200.116c.222-.816.914-1.182 1.605-1.548.131.593.262 1.186.127 2.309-.598.25-.93-.03-1.732-.76zM864.44 1117.024c.473.026.568.428.664.83-.346-.152-.693-.303-.663-.83z"/></svg>