<svg xmlns="http://www.w3.org/2000/svg" width="1024" height="109" viewBox="-0.287 -0.287 94.995 10.154"><path d="m57.22.689-1.779 7.843h11.894L69.454.624zM25.703.854l-1.779 7.813h11.894L37.938.79zm15.728.07-1.78 7.844 11.895-.01L53.665.849z" style="fill:#fcf5e5;fill-opacity:1;stroke:none"/><path d="M49.064 3.377c.08-.361-.09-.602-.436-.602h-5.419l-.274 1.205h5.419c.372 0 .621-.211.71-.603M57.379 0l-.521 2.296c.648-.94 1.708-1.25 3.457-1.25h3.854c1.276 0 2.126.06 2.565.473.447.421.474 1.145.152 2.25h-2.241c.175-.633-.137-.894-.971-.894h-3.151c-1.447 0-1.842.19-2.125 1.436l-.23 1.015c-.262 1.146.178 1.378 1.485 1.378h2.658c1.277 0 1.79-.142 1.974-1.085h2.261c-.182 1.205-.547 1.968-1.263 2.421-.647.411-1.539.492-2.815.492h-3.853c-1.156 0-1.959-.05-2.48-.542-.207-.2-.34-.433-.411-.704l-.521 2.293h13.328l1.917-8.435H90.79L78.744 9.579h1.995L94.42 0H57.379zm-31.74 1.136h3.269l1.046 4.563 3-4.563h3.245l-1.66 7.305h-2.16l1.182-5.205-3.611 5.205h-1.269l-1.376-5.205-1.182 5.205H3.631L15.676.007h-1.995L0 9.579h37.05L39.225 0H25.898l-.259 1.136zm16.659 5.648h5.62c.392 0 .668-.242.766-.673.09-.392-.09-.644-.468-.644h-5.62l-.298 1.317zm-.918-5.648h8.053c1.637 0 2.281.664 1.967 2.04-.177.784-.629 1.266-1.426 1.548.89.151 1.169.693.931 1.738-.32 1.407-1.172 1.979-2.79 1.979H39.72l-.259 1.138H52.79L54.966 0H41.638l-.258 1.136z" style="fill:#009534;fill-opacity:1;fill-rule:nonzero;stroke:none"/></svg>