<svg xmlns="http://www.w3.org/2000/svg" xml:space="preserve" width="961.223" height="268.9"><defs><clipPath id="a"><path d="M0 0h841v595.502H0V0z"/></clipPath><clipPath id="b"><path d="M0 596h841V0H0v596z"/></clipPath></defs><g clip-path="url(#a)" transform="matrix(1.25 0 0 -1.25 -143.785 526.88)"><text transform="matrix(.99996 0 0 -1 44.505 419.778)"><tspan x="0 4.7306628 9.4613256" y="0" style="font-size:10.80060005px;font-variant:normal;font-weight:700;font-stretch:condensed;writing-mode:lr-tb;fill:#fff;fill-opacity:1;fill-rule:nonzero;stroke:none;font-family:Tw Cen MT Condensed;-inkscape-font-specification:TwCenMT-CondensedBold">602</tspan><tspan x="601.71222 606.44287 611.17352" y="394.578" style="font-size:10.80060005px;font-variant:normal;font-weight:700;font-stretch:condensed;writing-mode:lr-tb;fill:#fff;fill-opacity:1;fill-rule:nonzero;stroke:none;font-family:Tw Cen MT Condensed;-inkscape-font-specification:TwCenMT-CondensedBold">602</tspan></text></g><g clip-path="url(#b)" transform="matrix(10 0 0 -10 -569.91 457.705)"><path d="M0 0c-.428-3.416 1.995-6.176 5.406-6.176.129 0 .255.002.389.011l6.723.017V6.156H6.937C3.531 6.156.431 3.407 0 0" style="fill:#fff;fill-opacity:1;fill-rule:nonzero;stroke:none" transform="translate(57.04 39.614)"/><path d="M0 0c-.427-3.4 1.978-6.142 5.368-6.165.126 0 .252.003.386.011h5.194l1.499.002V6.156l-5.554-.012C3.507 6.131.428 3.388 0 0" style="fill:#fdfffd;fill-opacity:1;fill-rule:nonzero;stroke:none" transform="translate(57.11 39.614)"/><path d="M0 0c-.424-3.385 1.962-6.125 5.329-6.152.127 0 .252 0 .386.006l4.854-.008.315.002 1.494.004V6.156L6.85 6.134C3.483 6.105.426 3.376 0 0" style="fill:#fbfbfa;fill-opacity:1;fill-rule:nonzero;stroke:none" transform="translate(57.18 39.614)"/><path d="M0 0c-.421-3.371 1.947-6.089 5.291-6.142.126-.001.249 0 .382.005l4.828-.017.318.002 1.489.004V6.156l-5.501-.035C3.459 6.08.425 3.36 0 0" style="fill:#fbfbfa;fill-opacity:1;fill-rule:nonzero;stroke:none" transform="translate(57.25 39.614)"/><path d="M0 0c-.422-3.357 1.929-6.089 5.251-6.132.126 0 .249 0 .381.005l4.804-.027h.316l1.485.002V6.156l-5.473-.048C3.436 6.055.422 3.346 0 0" style="fill:#f8f7f5;fill-opacity:1;fill-rule:nonzero;stroke:none" transform="translate(57.321 39.614)"/><path d="M0 0c-.419-3.342 1.913-6.054 5.215-6.119.124-.003.246-.003.377 0l4.779-.035h.316l1.481.002V6.156L6.72 6.098C3.414 6.029.421 3.33 0 0" style="fill:#f7f5f4;fill-opacity:1;fill-rule:nonzero;stroke:none" transform="translate(57.39 39.614)"/><path d="M0 0c-.417-3.329 1.897-6.035 5.175-6.108.126-.004.247-.006.376 0l4.751-.046h.321l1.474.002V6.156l-5.418-.07C3.389 6.004.418 3.316 0 0" style="fill:#f4f3f3;fill-opacity:1;fill-rule:nonzero;stroke:none" transform="translate(57.46 39.614)"/><path d="M0 0c-.415-3.313 1.881-6.005 5.138-6.1.123-.002.243-.004.373 0l4.725-.054h.321l1.47.002V6.156l-5.392-.084C3.366 5.979.417 3.3 0 0" style="fill:#f3f2f2;fill-opacity:1;fill-rule:nonzero;stroke:none" transform="translate(57.53 39.614)"/><path d="M0 0c-.414-3.299 1.865-5.967 5.101-6.086.12-.005.241-.007.37-.005l4.699-.063h.32l1.468.002V6.156c-.123 0-5.263-.035-5.367-.093C3.342 5.953.413 3.284 0 0" style="fill:#f2f2f1;fill-opacity:1;fill-rule:nonzero;stroke:none" transform="translate(57.6 39.614)"/><path d="M0 0c-.412-3.286 1.848-5.949 5.061-6.076.122-.005.242-.007.369-.005.091-.054 4.555-.073 4.674-.073h.322l1.461.002V6.156c-.136 0-5.221-.04-5.338-.106C3.319 5.927.412 3.269 0 0" style="fill:#eff0f0;fill-opacity:1;fill-rule:nonzero;stroke:none" transform="translate(57.67 39.614)"/><path d="M0 0c-.41-3.271 1.832-5.916 5.023-6.066.12-.004.239-.007.367-.007.1-.059 4.514-.081 4.647-.081h.324l1.457.002V6.156c-.152 0-5.183-.043-5.312-.119C3.294 5.901.41 3.255 0 0" style="fill:#eee;fill-opacity:1;fill-rule:nonzero;stroke:none" transform="translate(57.74 39.614)"/><path d="M0 0c-.407-3.255 1.815-5.897 4.984-6.054.121-.007.239-.009.366-.009.111-.064 4.475-.091 4.622-.091h.323l1.453.002V6.156c-.166 0-5.143-.048-5.285-.13C3.271 5.875.409 3.238 0 0" style="fill:#ecebeb;fill-opacity:1;fill-rule:nonzero;stroke:none" transform="translate(57.81 39.614)"/><path d="M0 0c-.406-3.242 1.798-5.883 4.946-6.042a4.34 4.34 0 0 1 .364-.012c.121-.071 4.435-.1 4.595-.1h.326l1.447.002V6.156c-.182 0-5.102-.053-5.258-.142C3.248 5.848.407 3.223 0 0" style="fill:#ebeaea;fill-opacity:1;fill-rule:nonzero;stroke:none" transform="translate(57.88 39.614)"/><path d="M0 0c-.405-3.228 1.782-5.845 4.908-6.033.119-.007.235-.013.361-.013.131-.076 4.397-.112 4.569-.112l.328.004 1.441.002V6.156c-.195 0-5.061-.058-5.229-.155C3.225 5.822.405 3.208 0 0" style="fill:#eaeae9;fill-opacity:1;fill-rule:nonzero;stroke:none" transform="translate(57.951 39.614)"/><path d="M0 0c-.402-3.213 1.766-5.829 4.869-6.022.119-.008.235-.013.359-.013.141-.081 4.358-.119 4.543-.119h.329l1.438.002V6.156c-.212 0-5.024-.06-5.205-.168C3.2 5.797.403 3.192 0 0" style="fill:#e9e7e8;fill-opacity:1;fill-rule:nonzero;stroke:none" transform="translate(58.02 39.614)"/><path d="M0 0c-.4-3.199 1.75-5.794 4.831-6.01.118-.011.232-.014.357-.018.15-.086 4.318-.126 4.517-.126h.329l1.433.002V6.156c-.227 0-4.983-.066-5.176-.177C3.177 5.771.399 3.177 0 0" style="fill:#e8e7e8;fill-opacity:1;fill-rule:nonzero;stroke:none" transform="translate(58.09 39.614)"/><path d="M0 0c-.399-3.184 1.73-5.794 4.792-6 .117-.008.231-.015.354-.018.163-.094 4.28-.14 4.492-.14l.33.004 1.428.002V6.156c-.242 0-4.942-.07-5.146-.19C3.153 5.746.397 3.162 0 0" style="fill:#e7e6e6;fill-opacity:1;fill-rule:nonzero;stroke:none" transform="translate(58.162 39.614)"/><path d="M0 0c-.395-3.169 1.716-5.761 4.756-5.989.115-.008.23-.016.351-.021.172-.098 4.241-.148 4.466-.148l.331.004h1.424v12.31c-.257 0-4.904-.076-5.121-.203C3.131 5.721.397 3.147 0 0" style="fill:#e5e4e4;fill-opacity:1;fill-rule:nonzero;stroke:none" transform="translate(58.23 39.614)"/><path d="M0 0c-.394-3.153 1.7-5.725 4.716-5.977.115-.008.229-.018.349-.023.183-.104 4.202-.158 4.44-.158l.333.004 1.419.002V6.156c-.272 0-4.862-.079-5.094-.214C3.106 5.695.393 3.131 0 0" style="fill:#e4e3e3;fill-opacity:1;fill-rule:nonzero;stroke:none" transform="translate(58.3 39.614)"/><path d="M0 0c-.393-3.141 1.683-5.711 4.677-5.967.115-.01.228-.018.349-.022.191-.113 4.162-.169 4.412-.169l.334.004 1.416.002V6.156c-.288 0-4.825-.084-5.068-.226C3.083 5.67.392 3.116 0 0" style="fill:#e4e2e2;fill-opacity:1;fill-rule:nonzero;stroke:none" transform="translate(58.37 39.614)"/><path d="M0 0c-.39-3.125 1.667-5.671 4.641-5.956.113-.011.224-.021.344-.023.203-.117 4.123-.179 4.388-.179l.334.004h1.411v12.31c-.303 0-4.784-.086-5.039-.239C3.061 5.644.39 3.101 0 0" style="fill:#e3e1e1;fill-opacity:1;fill-rule:nonzero;stroke:none" transform="translate(58.44 39.614)"/><path d="M0 0c-.389-3.112 1.65-5.654 4.602-5.946.112-.01.225-.021.341-.026.215-.121 4.084-.186 4.363-.186l.336.004h1.405v12.31c-.318 0-4.744-.092-5.013-.252C3.036 5.618.388 3.085 0 0" style="fill:#e2e0e0;fill-opacity:1;fill-rule:nonzero;stroke:none" transform="translate(58.51 39.614)"/><path d="M0 0c-.386-3.097 1.636-5.62 4.564-5.934.112-.012.222-.022.34-.028.224-.129 4.045-.196 4.336-.196l.338.004h1.4v12.31c-.334 0-4.704-.096-4.986-.262C3.014 5.594.386 3.07 0 0" style="fill:#e0dfdf;fill-opacity:1;fill-rule:nonzero;stroke:none" transform="translate(58.58 39.614)"/><path d="M0 0c-.386-3.082 1.617-5.601 4.525-5.924l.338-.03c.233-.135 4.006-.204 4.31-.204h.34l1.394.004v12.31c-.348 0-4.663-.101-4.958-.275C2.989 5.567.383 3.055 0 0" style="fill:#e0dfde;fill-opacity:1;fill-rule:nonzero;stroke:none" transform="translate(58.65 39.614)"/><path d="M0 0c-.384-3.069 1.601-5.59 4.486-5.913l.336-.03c.244-.14 3.967-.215 4.285-.215h.34l1.391.004v12.31c-.365 0-4.624-.104-4.932-.286C2.965 5.543.382 3.041 0 0" style="fill:#dedddc;fill-opacity:1;fill-rule:nonzero;stroke:none" transform="translate(58.72 39.614)"/><path d="M0 0c-.381-3.054 1.587-5.536 4.447-5.9l.334-.037c.254-.144 3.928-.221 4.259-.221h.341l1.387.004v12.31c-.38 0-4.584-.109-4.905-.298C2.942 5.517.38 3.024 0 0" style="fill:#dddbdc;fill-opacity:1;fill-rule:nonzero;stroke:none" transform="translate(58.79 39.614)"/><path d="M0 0c-.38-3.038 1.568-5.533 4.411-5.891l.331-.035c.263-.153 3.888-.232 4.232-.232h.342l1.382.004v12.31c-.395 0-4.543-.114-4.878-.31C2.918 5.491.377 3.009 0 0" style="fill:#dadadb;fill-opacity:1;fill-rule:nonzero;stroke:none" transform="translate(58.86 39.614)"/><path d="M0 0c-.378-3.025 1.553-5.5 4.373-5.88l.329-.036c.274-.16 3.848-.242 4.206-.242h.343l1.378.004v12.31c-.41 0-4.504-.119-4.852-.323C2.895 5.466.376 2.993 0 0" style="fill:#dad9d9;fill-opacity:1;fill-rule:nonzero;stroke:none" transform="translate(58.93 39.614)"/><path d="M0 0c-.375-3.011 1.536-5.484 4.333-5.87l.326-.038c.284-.162 3.812-.25 4.182-.25h.344l1.373.004v12.31c-.424 0-4.463-.122-4.824-.334C2.871 5.44.373 2.979 0 0" style="fill:#d9dad9;fill-opacity:1;fill-rule:nonzero;stroke:none" transform="translate(59 39.614)"/><path d="M0 0c-.375-2.994 1.521-5.449 4.295-5.856l.325-.041c.294-.171 3.771-.261 4.154-.261h.346l1.369.004v12.31c-.44 0-4.425-.127-4.797-.346C2.848 5.414.372 2.963 0 0" style="fill:#d8d8d8;fill-opacity:1;fill-rule:nonzero;stroke:none" transform="translate(59.07 39.614)"/><path d="M0 0c-.372-2.982 1.502-5.429 4.257-5.847l.322-.041c.304-.175 3.73-.27 4.129-.27h.346l1.363.004v12.31c-.455 0-4.384-.132-4.77-.359C2.823 5.387.367 2.947 0 0" style="fill:#d7d7d7;fill-opacity:1;fill-rule:nonzero;stroke:none" transform="translate(59.142 39.614)"/><path d="M0 0c-.371-2.967 1.489-5.396 4.219-5.834l.321-.046c.313-.181 3.692-.278 4.103-.278h.347l1.358.004v12.31c-.47 0-4.343-.137-4.742-.372C2.801 5.361.369 2.934 0 0" style="fill:#d5d6d6;fill-opacity:1;fill-rule:nonzero;stroke:none" transform="translate(59.21 39.614)"/><path d="M0 0c-.368-2.952 1.472-5.38 4.182-5.822l.317-.048c.324-.188 3.653-.288 4.076-.288h.35l1.354.004v12.31c-.485 0-4.304-.139-4.716-.382C2.778 5.335.365 2.917 0 0" style="fill:#d5d5d4;fill-opacity:1;fill-rule:nonzero;stroke:none" transform="translate(59.28 39.614)"/><path d="M0 0c-.366-2.938 1.455-5.359 4.143-5.813l.315-.049c.334-.194 3.615-.296 4.05-.296h1.7V6.156c-.5 0-4.263-.144-4.687-.393C2.753 5.31.363 2.901 0 0" style="fill:#d3d4d3;fill-opacity:1;fill-rule:nonzero;stroke:none" transform="translate(59.35 39.614)"/><path d="M0 0c-.365-2.924 1.44-5.328 4.104-5.804l.313-.049c.345-.197 3.576-.305 4.025-.305h.351l1.346.004v12.31c-.515 0-4.224-.15-4.662-.408C2.73 5.284.361 2.889 0 0" style="fill:#d3d3d2;fill-opacity:1;fill-rule:nonzero;stroke:none" transform="translate(59.42 39.614)"/><path d="M0 0c-.363-2.908 1.423-5.296 4.065-5.791l.313-.051c.354-.206 3.534-.316 3.997-.316h1.694V6.156c-.531 0-4.184-.155-4.633-.418C2.707 5.259.359 2.871 0 0" style="fill:#d2d1d1;fill-opacity:1;fill-rule:nonzero;stroke:none" transform="translate(59.49 39.614)"/><path d="M0 0c-.359-2.896 1.407-5.274 4.028-5.78l.309-.054c.366-.212 3.497-.324 3.974-.324h1.688V6.156c-.546 0-4.145-.157-4.606-.43C2.684 5.233.357 2.855 0 0" style="fill:#d0d0d0;fill-opacity:1;fill-rule:nonzero;stroke:none" transform="translate(59.56 39.614)"/><path d="M0 0c-.359-2.881 1.394-5.242 3.99-5.771l.305-.051c.375-.218 3.458-.338 3.947-.338l.355.002h1.331V6.156c-.56 0-4.104-.163-4.579-.443C2.659 5.209.354 2.843 0 0" style="fill:#cecfcf;fill-opacity:1;fill-rule:nonzero;stroke:none" transform="translate(59.63 39.614)"/><path d="M0 0c-.356-2.865 1.375-5.224 3.951-5.758l.305-.058c.386-.221 3.417-.344 3.921-.344l.356.002h1.326V6.156c-.576 0-4.065-.168-4.553-.452C2.636 5.183.353 2.828 0 0" style="fill:#cdcecd;fill-opacity:1;fill-rule:nonzero;stroke:none" transform="translate(59.7 39.614)"/><path d="M0 0c-.354-2.85 1.357-5.209 3.913-5.747l.301-.06c.396-.228 3.379-.353 3.896-.353l.356.002h1.322V6.156c-.591-.002-4.024-.173-4.525-.466C2.612 5.158.351 2.81 0 0" style="fill:#cdcdcc;fill-opacity:1;fill-rule:nonzero;stroke:none" transform="translate(59.77 39.614)"/><path d="M0 0c-.354-2.837 1.34-5.188 3.875-5.737l.299-.059c.406-.234 3.34-.364 3.869-.364l.359.002h1.316V6.156c-.607 0-3.984-.176-4.498-.479C2.589 5.132.348 2.797 0 0" style="fill:#cccccb;fill-opacity:1;fill-rule:nonzero;stroke:none" transform="translate(59.84 39.614)"/><path d="M0 0c-.351-2.821 1.325-5.161 3.836-5.728l.297-.059c.416-.241 3.3-.373 3.843-.373h.36l1.312.002V6.156c-.622 0-3.945-.179-4.471-.492C2.565 5.108.347 2.782 0 0" style="fill:#cbcbcb;fill-opacity:1;fill-rule:nonzero;stroke:none" transform="translate(59.91 39.614)"/><path d="M0 0c-.349-2.809 1.311-5.123 3.798-5.713l.295-.064c.426-.247 3.262-.383 3.819-.383h.359l1.308.002V6.156c-.638-.002-3.904-.185-4.445-.502C2.542 5.08.345 2.769 0 0" style="fill:#cacbca;fill-opacity:1;fill-rule:nonzero;stroke:none" transform="translate(59.98 39.614)"/><path d="M0 0c-.348-2.794 1.287-5.128 3.758-5.704l.294-.067c.436-.251 3.223-.389 3.792-.389h.363l1.302.002V6.156c-.653-.002-3.865-.19-4.418-.514C2.518 5.056.343 2.751 0 0" style="fill:#c8c9ca;fill-opacity:1;fill-rule:nonzero;stroke:none" transform="translate(60.05 39.614)"/><path d="M0 0c-.346-2.777 1.275-5.087 3.722-5.694l.291-.067c.445-.257 3.182-.399 3.764-.399h.364l1.297.002V6.156c-.667-.002-3.823-.193-4.39-.527C2.494 5.029.341 2.736 0 0" style="fill:#c7c8c8;fill-opacity:1;fill-rule:nonzero;stroke:none" transform="translate(60.12 39.614)"/><path d="M0 0c-.345-2.766 1.255-5.074 3.683-5.684l.288-.069c.457-.262 3.145-.407 3.74-.407h.364l1.293.002V6.156c-.683 0-3.784-.199-4.364-.538C2.471 5.004.338 2.721 0 0" style="fill:#c6c7c7;fill-opacity:1;fill-rule:nonzero;stroke:none" transform="translate(60.19 39.614)"/><path d="M0 0c-.342-2.75 1.243-5.039 3.646-5.671l.285-.071c.468-.27 3.106-.418 3.714-.418h.367l1.287.002V6.156c-.696 0-3.744-.203-4.336-.551C2.448 4.979.337 2.705 0 0" style="fill:#c5c6c6;fill-opacity:1;fill-rule:nonzero;stroke:none" transform="translate(60.259 39.614)"/><path d="M0 0c-.34-2.734 1.227-5.021 3.608-5.659l.284-.073c.477-.276 3.066-.428 3.688-.428h.365l1.284.002V6.156c-.712-.002-3.704-.209-4.309-.562C2.425 4.951.336 2.69 0 0" style="fill:#c4c5c5;fill-opacity:1;fill-rule:nonzero;stroke:none" transform="translate(60.33 39.614)"/><path d="M0 0c-.338-2.721 1.21-4.985 3.568-5.65l.283-.075c.485-.28 3.026-.435 3.66-.435h.368l1.28.002V6.156c-.728-.002-3.665-.211-4.283-.576C2.4 4.926.333 2.676 0 0" style="fill:#c3c4c5;fill-opacity:1;fill-rule:nonzero;stroke:none" transform="translate(60.399 39.614)"/><path d="M0 0c-.336-2.707 1.197-4.958 3.531-5.637l.28-.076c.497-.289 2.986-.447 3.634-.447h1.644V6.156c-.743-.002-3.624-.216-4.255-.586C2.377 4.9.331 2.661 0 0" style="fill:#c2c3c4;fill-opacity:1;fill-rule:nonzero;stroke:none" transform="translate(60.469 39.614)"/><path d="M0 0c-.335-2.691 1.174-4.948 3.493-5.628l.277-.076c.505-.293 2.947-.456 3.608-.456h1.641V6.156c-.759-.002-3.584-.221-4.228-.598C2.354 4.875.327 2.645 0 0" style="fill:#c2c2c3;fill-opacity:1;fill-rule:nonzero;stroke:none" transform="translate(60.54 39.614)"/><path d="M0 0c-.333-2.679 1.165-4.906 3.454-5.617l.274-.078c.518-.3 2.91-.465 3.586-.465h1.634V6.156c-.772-.002-3.544-.226-4.2-.611C2.331 4.849.327 2.63 0 0" style="fill:#c0c1c1;fill-opacity:1;fill-rule:nonzero;stroke:none" transform="translate(60.61 39.614)"/><path d="M0 0c-.332-2.663 1.146-4.889 3.416-5.604l.272-.083c.528-.304 2.868-.473 3.559-.473h1.632V6.156c-.79-.002-3.506-.229-4.174-.622C2.305 4.824.324 2.614 0 0" style="fill:#bfc0c0;fill-opacity:1;fill-rule:nonzero;stroke:none" transform="translate(60.68 39.614)"/><path d="M0 0c-.329-2.648 1.128-4.87 3.376-5.595l.272-.081c.536-.309 2.83-.484 3.531-.484h1.629V6.156c-.804-.002-3.466-.233-4.146-.635C2.282 4.798.322 2.599 0 0" style="fill:#bebfbf;fill-opacity:1;fill-rule:nonzero;stroke:none" transform="translate(60.75 39.614)"/><path d="M0 0c-.327-2.636 1.111-4.851 3.339-5.584l.269-.085c.548-.314 2.791-.491 3.506-.491H8.74V6.156c-.82-.002-3.425-.239-4.12-.647C2.258 4.772.321 2.584 0 0" style="fill:#bebfbf;fill-opacity:1;fill-rule:nonzero;stroke:none" transform="translate(60.818 39.614)"/><path d="M0 0c-.326-2.62 1.096-4.819 3.3-5.571l.266-.086c.559-.322 2.753-.503 3.48-.503h1.623V6.156c-.834-.002-3.386-.244-4.093-.66C2.235 4.747.317 2.568 0 0" style="fill:#bdbebe;fill-opacity:1;fill-rule:nonzero;stroke:none" transform="translate(60.89 39.614)"/><path d="M0 0c-.323-2.604 1.083-4.787 3.262-5.562l.265-.088c.569-.329 2.713-.51 3.453-.51H8.6V6.156c-.849-.002-3.345-.247-4.066-.669C2.213 4.723.316 2.554 0 0" style="fill:#bcbdbd;fill-opacity:1;fill-rule:nonzero;stroke:none" transform="translate(60.958 39.614)"/><path d="M0 0c-.323-2.59 1.064-4.767 3.225-5.55l.26-.091c.578-.334 2.674-.521 3.428-.521l.378.002h1.238V6.156c-.865-.002-3.306-.252-4.038-.682C2.188 4.696.314 2.538 0 0" style="fill:#bbbcbc;fill-opacity:1;fill-rule:nonzero;stroke:none" transform="translate(61.029 39.614)"/><path d="M0 0c-.32-2.577 1.045-4.756 3.186-5.541l.259-.092c.589-.339 2.635-.529 3.404-.529h.378l1.231.002V6.156c-.877-.002-3.264-.257-4.009-.696C2.164 4.672.312 2.522 0 0" style="fill:#bbbcbc;fill-opacity:1;fill-rule:nonzero;stroke:none" transform="translate(61.1 39.614)"/><path d="M0 0c-.317-2.561 1.032-4.721 3.148-5.528l.256-.094c.598-.348 2.597-.54 3.377-.54l.381.002H8.39V6.156c-.895-.002-3.225-.26-3.984-.706C2.143 4.646.311 2.507 0 0" style="fill:#babbbb;fill-opacity:1;fill-rule:nonzero;stroke:none" transform="translate(61.169 39.614)"/><path d="M0 0c-.316-2.549 1.012-4.703 3.109-5.518l.256-.094c.608-.352 2.554-.55 3.349-.55h.383l1.222.002V6.156c-.909-.002-3.185-.265-3.957-.718C2.118 4.618.308 2.492 0 0" style="fill:#b8baba;fill-opacity:1;fill-rule:nonzero;stroke:none" transform="translate(61.24 39.614)"/><path d="M0 0c-.314-2.533 1-4.669 3.07-5.508l.255-.096c.617-.358 2.516-.558 3.323-.558h.383l1.218.002V6.156c-.925-.002-3.145-.27-3.929-.731C2.094 4.592.306 2.477 0 0" style="fill:#b7b9b9;fill-opacity:1;fill-rule:nonzero;stroke:none" transform="translate(61.31 39.614)"/><path d="M0 0c-.312-2.519.986-4.639 3.033-5.494l.252-.101c.627-.364 2.476-.567 3.296-.567H8.18V6.156c-.941-.002-3.107-.275-3.903-.742C2.071 4.566.304 2.462 0 0" style="fill:#b6b7b9;fill-opacity:1;fill-rule:nonzero;stroke:none" transform="translate(61.378 39.614)"/><path d="M0 0c-.311-2.505.968-4.62 2.995-5.484l.248-.1c.639-.37 2.44-.578 3.272-.578h1.594V6.156c-.956-.002-3.066-.278-3.875-.755C2.047 4.541.302 2.446 0 0" style="fill:#b5b7b8;fill-opacity:1;fill-rule:nonzero;stroke:none" transform="translate(61.449 39.614)"/><path d="M0 0c-.308-2.49.948-4.604 2.957-5.475l.245-.101c.65-.375 2.399-.586 3.246-.586h1.591V6.156c-.971-.002-3.026-.282-3.849-.767C2.024 4.516.3 2.43 0 0" style="fill:#b4b6b6;fill-opacity:1;fill-rule:nonzero;stroke:none" transform="translate(61.52 39.614)"/><path d="M0 0c-.307-2.475.929-4.587 2.917-5.465l.244-.101c.659-.383 2.359-.596 3.222-.596h1.585V6.156c-.985-.002-2.985-.286-3.821-.778C2 4.489.297 2.416 0 0" style="fill:#b3b4b6;fill-opacity:1;fill-rule:nonzero;stroke:none" transform="translate(61.59 39.614)"/><path d="M0 0c-.304-2.46.917-4.555 2.879-5.452l.244-.107c.668-.387 2.319-.603 3.194-.603h1.582V6.156c-.999-.002-2.946-.293-3.794-.79C1.977 4.464.296 2.4 0 0" style="fill:#b2b3b4;fill-opacity:1;fill-rule:nonzero;stroke:none" transform="translate(61.659 39.614)"/><path d="M0 0c-.302-2.447.897-4.537 2.84-5.44l.239-.107c.68-.394 2.282-.615 3.17-.615h1.58V6.156c-1.016-.002-2.907-.296-3.767-.802C1.954 4.438.294 2.385 0 0" style="fill:#b2b3b3;fill-opacity:1;fill-rule:nonzero;stroke:none" transform="translate(61.73 39.614)"/><path d="M0 0c-.3-2.432.882-4.506 2.802-5.432l.238-.109c.689-.397 2.242-.621 3.144-.621h1.575V6.156c-1.03-.002-2.865-.301-3.739-.815C1.929 4.413.291 2.37 0 0" style="fill:#b1b2b3;fill-opacity:1;fill-rule:nonzero;stroke:none" transform="translate(61.799 39.614)"/><path d="M0 0c-.299-2.419.864-4.486 2.765-5.419l.234-.111c.699-.407 2.204-.632 3.117-.632h1.572V6.156c-1.046-.002-2.825-.305-3.712-.826C1.905 4.388.29 2.354 0 0" style="fill:#b0b1b2;fill-opacity:1;fill-rule:nonzero;stroke:none" transform="translate(61.87 39.614)"/><path d="M0 0c-.296-2.404.851-4.458 2.728-5.408l.233-.113c.71-.408 2.164-.641 3.089-.641h1.57V6.156c-1.062-.002-2.786-.31-3.686-.839C1.883 4.362.288 2.339 0 0" style="fill:#afb0b1;fill-opacity:1;fill-rule:nonzero;stroke:none" transform="translate(61.938 39.614)"/><path d="M0 0c-.296-2.389.832-4.44 2.688-5.398l.231-.115c.719-.414 2.126-.649 3.065-.649H7.55V6.156c-1.077-.002-2.746-.313-3.659-.851C1.859 4.337.285 2.324 0 0" style="fill:#adafb0;fill-opacity:1;fill-rule:nonzero;stroke:none" transform="translate(62.008 39.614)"/><path d="M0 0c-.294-2.376.812-4.422 2.65-5.387l.229-.116c.729-.423 2.085-.659 3.038-.659H7.479V6.156c-1.091-.002-2.705-.318-3.63-.864C1.836 4.312.283 2.309 0 0" style="fill:#adaeaf;fill-opacity:1;fill-rule:nonzero;stroke:none" transform="translate(62.08 39.614)"/><path d="M0 0c-.292-2.36.8-4.389 2.611-5.375l.226-.116c.741-.43 2.047-.671 3.013-.671H7.409V6.156c-1.107-.002-2.666-.323-3.604-.874C1.812 4.285.281 2.292 0 0" style="fill:#abadae;fill-opacity:1;fill-rule:nonzero;stroke:none" transform="translate(62.15 39.614)"/><path d="M0 0c-.29-2.346.779-4.374 2.573-5.365l.224-.119c.75-.434 2.008-.678 2.987-.678H7.339V6.156c-1.122-.002-2.627-.328-3.578-.885C1.789 4.26.279 2.279 0 0" style="fill:#aaadad;fill-opacity:1;fill-rule:nonzero;stroke:none" transform="translate(62.22 39.614)"/><path d="M0 0c-.288-2.333.769-4.338 2.536-5.354l.221-.121c.76-.441 1.968-.687 2.961-.687H7.269V6.156c-1.137-.002-2.586-.331-3.549-.899C1.765 4.235.277 2.263 0 0" style="fill:#aaacac;fill-opacity:1;fill-rule:nonzero;stroke:none" transform="translate(62.29 39.614)"/><path d="M0 0c-.285-2.317.745-4.323 2.497-5.342l.218-.125c.771-.446 1.93-.698 2.936-.698h.401l1.148.003V6.156c-1.154-.002-2.547-.337-3.523-.912C1.742 4.207.274 2.247 0 0" style="fill:#a9abac;fill-opacity:1;fill-rule:nonzero;stroke:none" transform="translate(62.358 39.614)"/><path d="M0 0c-.285-2.302.732-4.295 2.458-5.33l.217-.127c.78-.451 1.89-.705 2.909-.705h1.545V6.156c-1.168-.002-2.506-.34-3.496-.923C1.717 4.183.272 2.232 0 0" style="fill:#a6a9ab;fill-opacity:1;fill-rule:nonzero;stroke:none" transform="translate(62.43 39.614)"/><path d="M0 0c-.282-2.287.712-4.274 2.42-5.321l.215-.128c.791-.456 1.85-.716 2.883-.716H7.06V6.156c-1.184-.002-2.467-.346-3.47-.935C1.693 4.155.271 2.217 0 0" style="fill:#a5a9aa;fill-opacity:1;fill-rule:nonzero;stroke:none" transform="translate(62.498 39.614)"/><path d="M0 0c-.281-2.274.695-4.251 2.382-5.312l.211-.126c.802-.465 1.813-.727 2.858-.727H6.99V6.156a6.958 6.958 0 0 1-3.443-.947C1.67 4.131.269 2.2 0 0" style="fill:#a5a8a9;fill-opacity:1;fill-rule:nonzero;stroke:none" transform="translate(62.57 39.614)"/><path d="M0 0c-3.405-.01-6.504-2.76-6.919-6.156-.421-3.416 1.984-6.165 5.385-6.165H0V0" style="fill:#a4a7a8;fill-opacity:1;fill-rule:nonzero;stroke:none" transform="translate(69.558 45.77)"/><path d="M0 0c-.42-3.415 1.999-6.172 5.405-6.172 1.174 0 2.3.318 3.303.881v9.704H.553L0 0" style="fill:#fff;fill-opacity:1;fill-rule:nonzero;stroke:none" transform="translate(69.511 25.053)"/><path d="M0 0c-.421-3.415 1.999-6.172 5.404-6.172 1.156 0 2.266.313 3.256.868v9.717H.553L0 0" style="fill:#fdfffd;fill-opacity:1;fill-rule:nonzero;stroke:none" transform="translate(69.56 25.053)"/><path d="M0 0c-.42-3.415 2-6.172 5.406-6.172 1.136 0 2.232.308 3.207.856v9.729H.553L0 0" style="fill:#fbfbfa;fill-opacity:1;fill-rule:nonzero;stroke:none" transform="translate(69.608 25.053)"/><path d="M0 0c-.42-3.415 1.999-6.172 5.404-6.172 1.121 0 2.2.303 3.159.841v9.744H.554L0 0" style="fill:#f8f7f5;fill-opacity:1;fill-rule:nonzero;stroke:none" transform="translate(69.657 25.053)"/><path d="M0 0c-.42-3.415 2-6.172 5.406-6.172 1.104 0 2.165.297 3.109.828v9.757H.555L0 0" style="fill:#f7f5f4;fill-opacity:1;fill-rule:nonzero;stroke:none" transform="translate(69.704 25.053)"/><path d="M0 0c-.42-3.415 1.999-6.172 5.404-6.172 1.088 0 2.131.292 3.062.815v9.77H.553L0 0" style="fill:#f4f3f3;fill-opacity:1;fill-rule:nonzero;stroke:none" transform="translate(69.753 25.053)"/><path d="M0 0c-.42-3.415 2-6.172 5.406-6.172 1.069 0 2.096.289 3.013.802v9.783H.553L0 0" style="fill:#f2f2f2;fill-opacity:1;fill-rule:nonzero;stroke:none" transform="translate(69.802 25.053)"/><path d="M0 0c-.421-3.415 1.999-6.172 5.404-6.172 1.053 0 2.064.284 2.966.789v9.796H.553L0 0" style="fill:#f1f0f0;fill-opacity:1;fill-rule:nonzero;stroke:none" transform="translate(69.85 25.053)"/><path d="M0 0c-.419-3.415 2-6.172 5.406-6.172 1.035 0 2.029.279 2.916.775v9.81H.554L0 0" style="fill:#efeeef;fill-opacity:1;fill-rule:nonzero;stroke:none" transform="translate(69.897 25.053)"/><path d="M0 0c-.421-3.415 1.999-6.172 5.404-6.172 1.02 0 1.996.275 2.868.762v9.823H.554L0 0" style="fill:#ecebeb;fill-opacity:1;fill-rule:nonzero;stroke:none" transform="translate(69.947 25.053)"/><path d="M0 0c-.421-3.415 1.999-6.172 5.404-6.172 1.002 0 1.962.27 2.821.749v9.836H.553L0 0" style="fill:#ebeaea;fill-opacity:1;fill-rule:nonzero;stroke:none" transform="translate(69.996 25.053)"/><path d="M0 0c-.422-3.415 1.998-6.172 5.404-6.172.985 0 1.928.266 2.771.736v9.849H.552L0 0" style="fill:#eae9e9;fill-opacity:1;fill-rule:nonzero;stroke:none" transform="translate(70.045 25.053)"/><path d="M0 0c-.421-3.415 1.999-6.172 5.404-6.172.967 0 1.895.259 2.723.725v9.86H.553L0 0" style="fill:#e9e8e7;fill-opacity:1;fill-rule:nonzero;stroke:none" transform="translate(70.092 25.053)"/><path d="M0 0c-.421-3.415 1.999-6.172 5.404-6.172.95 0 1.861.255 2.675.708v9.877H.554L0 0" style="fill:#e7e6e6;fill-opacity:1;fill-rule:nonzero;stroke:none" transform="translate(70.14 25.053)"/><path d="M0 0c-.422-3.415 1.999-6.172 5.404-6.172.933 0 1.827.249 2.627.695v9.89H.553L0 0" style="fill:#e5e4e4;fill-opacity:1;fill-rule:nonzero;stroke:none" transform="translate(70.189 25.053)"/><path d="M0 0c-.421-3.415 1.999-6.172 5.404-6.172.916 0 1.795.246 2.577.683v9.902H.552L0 0" style="fill:#e4e3e3;fill-opacity:1;fill-rule:nonzero;stroke:none" transform="translate(70.238 25.053)"/><path d="M0 0c-.422-3.415 2-6.172 5.405-6.172.898 0 1.76.242 2.529.671v9.914H.553L0 0" style="fill:#e3e2e2;fill-opacity:1;fill-rule:nonzero;stroke:none" transform="translate(70.285 25.053)"/><path d="M0 0c-.421-3.415 1.999-6.172 5.404-6.172a5.12 5.12 0 0 1 2.481.654v9.931H.553L0 0" style="fill:#e1e1e1;fill-opacity:1;fill-rule:nonzero;stroke:none" transform="translate(70.335 25.053)"/><path d="M0 0c-.421-3.415 1.999-6.172 5.404-6.172.866 0 1.692.233 2.432.642v9.943H.554L0 0" style="fill:#e0e0df;fill-opacity:1;fill-rule:nonzero;stroke:none" transform="translate(70.383 25.053)"/><path d="M0 0c-.421-3.415 1.999-6.172 5.404-6.172.847 0 1.659.226 2.386.629v9.956H.552L0 0" style="fill:#e0dfde;fill-opacity:1;fill-rule:nonzero;stroke:none" transform="translate(70.431 25.053)"/><path d="M0 0c-.422-3.415 1.999-6.172 5.404-6.172.83 0 1.625.222 2.336.617v9.968H.553L0 0" style="fill:#dddddc;fill-opacity:1;fill-rule:nonzero;stroke:none" transform="translate(70.48 25.053)"/><path d="M0 0c-.421-3.415 2-6.172 5.404-6.172.813 0 1.591.216 2.288.601v9.984H.553L0 0" style="fill:#dcdcdb;fill-opacity:1;fill-rule:nonzero;stroke:none" transform="translate(70.527 25.053)"/><path d="M0 0c-.421-3.415 2-6.172 5.404-6.172.796 0 1.558.211 2.24.588v9.997H.552L0 0" style="fill:#dadada;fill-opacity:1;fill-rule:nonzero;stroke:none" transform="translate(70.576 25.053)"/><path d="M0 0c-.422-3.415 1.999-6.172 5.404-6.172.779 0 1.524.209 2.191.575v10.01H.553L0 0" style="fill:#d9dad9;fill-opacity:1;fill-rule:nonzero;stroke:none" transform="translate(70.624 25.053)"/><path d="M0 0c-.422-3.415 1.999-6.172 5.404-6.172.762 0 1.491.203 2.143.564V4.413H.552L0 0" style="fill:#d8d8d8;fill-opacity:1;fill-rule:nonzero;stroke:none" transform="translate(70.674 25.053)"/><path d="M0 0c-.422-3.415 2-6.172 5.404-6.172.744 0 1.456.198 2.093.547V4.413H.552L0 0" style="fill:#d6d7d7;fill-opacity:1;fill-rule:nonzero;stroke:none" transform="translate(70.722 25.053)"/><path d="M0 0c-.421-3.415 2-6.172 5.404-6.172a4.25 4.25 0 0 1 2.046.534V4.413H.553L0 0" style="fill:#d5d6d5;fill-opacity:1;fill-rule:nonzero;stroke:none" transform="translate(70.77 25.053)"/><path d="M0 0c-.421-3.415 2-6.172 5.404-6.172.71 0 1.388.188 1.997.522V4.413H.552L0 0" style="fill:#d3d4d3;fill-opacity:1;fill-rule:nonzero;stroke:none" transform="translate(70.818 25.053)"/><path d="M0 0c-.421-3.415 2-6.172 5.404-6.172.693 0 1.355.184 1.949.509V4.413H.552L0 0" style="fill:#d3d3d2;fill-opacity:1;fill-rule:nonzero;stroke:none" transform="translate(70.867 25.053)"/><path d="M0 0c-.422-3.415 1.998-6.172 5.404-6.172.674 0 1.32.18 1.9.494V4.413H.551L0 0" style="fill:#d2d1d1;fill-opacity:1;fill-rule:nonzero;stroke:none" transform="translate(70.915 25.053)"/><path d="M0 0c-.421-3.415 2-6.172 5.404-6.172.659 0 1.287.173 1.854.482V4.413H.553L0 0" style="fill:#d0d0d0;fill-opacity:1;fill-rule:nonzero;stroke:none" transform="translate(70.963 25.053)"/><path d="M0 0c-.421-3.415 2-6.172 5.404-6.172a3.73 3.73 0 0 1 1.802.468V4.413H.552L0 0" style="fill:#cdcecd;fill-opacity:1;fill-rule:nonzero;stroke:none" transform="translate(71.012 25.053)"/><path d="M0 0c-.422-3.415 2-6.172 5.404-6.172.624 0 1.22.165 1.755.455v10.13H.552L0 0" style="fill:#cdcdcc;fill-opacity:1;fill-rule:nonzero;stroke:none" transform="translate(71.06 25.053)"/><path d="M0 0c-.422-3.415 2-6.172 5.404-6.172.607 0 1.186.16 1.707.44V4.413H.552L0 0" style="fill:#cccccb;fill-opacity:1;fill-rule:nonzero;stroke:none" transform="translate(71.108 25.053)"/><path d="M0 0c-.423-3.415 2-6.172 5.403-6.172.59 0 1.152.154 1.66.427V4.413H.551L0 0" style="fill:#cacbcb;fill-opacity:1;fill-rule:nonzero;stroke:none" transform="translate(71.158 25.053)"/><path d="M0 0c-.422-3.415 1.998-6.172 5.403-6.172.574 0 1.117.151 1.611.415v10.17H.552L0 0" style="fill:#c9caca;fill-opacity:1;fill-rule:nonzero;stroke:none" transform="translate(71.207 25.053)"/><path d="M0 0c-.421-3.415 2-6.172 5.404-6.172.554 0 1.084.145 1.561.401V4.413H.552L0 0" style="fill:#c8c9c8;fill-opacity:1;fill-rule:nonzero;stroke:none" transform="translate(71.254 25.053)"/><path d="M0 0c-.423-3.415 2-6.172 5.404-6.172.538 0 1.05.14 1.514.387V4.413H.552L0 0" style="fill:#c7c7c7;fill-opacity:1;fill-rule:nonzero;stroke:none" transform="translate(71.303 25.053)"/><path d="M0 0c-.423-3.415 2-6.172 5.403-6.172.522 0 1.017.134 1.465.374V4.413H.552L0 0" style="fill:#c5c6c6;fill-opacity:1;fill-rule:nonzero;stroke:none" transform="translate(71.351 25.053)"/><path d="M0 0c-.423-3.415 2-6.172 5.404-6.172.504 0 .983.13 1.416.361V4.413H.552L0 0" style="fill:#c4c5c5;fill-opacity:1;fill-rule:nonzero;stroke:none" transform="translate(71.4 25.053)"/><path d="M0 0c-.421-3.415 2-6.172 5.404-6.172.488 0 .949.126 1.368.349V4.413H.553L0 0" style="fill:#c3c4c4;fill-opacity:1;fill-rule:nonzero;stroke:none" transform="translate(71.447 25.053)"/><path d="M0 0c-.422-3.415 2-6.172 5.404-6.172.469 0 .917.119 1.32.333V4.413H.552L0 0" style="fill:#c2c2c3;fill-opacity:1;fill-rule:nonzero;stroke:none" transform="translate(71.496 25.053)"/><path d="M0 0c-.424-3.415 2-6.172 5.403-6.172.452 0 .882.117 1.272.32V4.413H.551L0 0" style="fill:#c0c1c1;fill-opacity:1;fill-rule:nonzero;stroke:none" transform="translate(71.544 25.053)"/><path d="M0 0c-.423-3.415 2-6.172 5.402-6.172.438 0 .85.112 1.225.308V4.413H.552L0 0" style="fill:#bfc0c0;fill-opacity:1;fill-rule:nonzero;stroke:none" transform="translate(71.594 25.053)"/><path d="M0 0c-.423-3.415 2-6.172 5.404-6.172.417 0 .814.107 1.175.295v10.29H.552L0 0" style="fill:#bebfbf;fill-opacity:1;fill-rule:nonzero;stroke:none" transform="translate(71.642 25.053)"/><path d="M0 0c-.423-3.415 2-6.172 5.404-6.172.401 0 .781.102 1.126.279V4.413H.552L0 0" style="fill:#bdbebe;fill-opacity:1;fill-rule:nonzero;stroke:none" transform="translate(71.69 25.053)"/><path d="M0 0c-.422-3.415 2-6.172 5.403-6.172.384 0 .747.097 1.078.267V4.413H.552L0 0" style="fill:#bcbdbd;fill-opacity:1;fill-rule:nonzero;stroke:none" transform="translate(71.738 25.053)"/><path d="M0 0c-.423-3.415 2-6.172 5.403-6.172.367 0 .715.092 1.03.255v10.33H.552L0 0" style="fill:#bbbcbc;fill-opacity:1;fill-rule:nonzero;stroke:none" transform="translate(71.787 25.053)"/><path d="M0 0c-.422-3.415 2-6.172 5.404-6.172.348 0 .678.086.982.242V4.413H.552L0 0" style="fill:#babbbb;fill-opacity:1;fill-rule:nonzero;stroke:none" transform="translate(71.835 25.053)"/><path d="M0 0c-.422-3.415 2-6.172 5.404-6.172.331 0 .645.081.932.226V4.413H.551L0 0" style="fill:#b9babb;fill-opacity:1;fill-rule:nonzero;stroke:none" transform="translate(71.883 25.053)"/><path d="M0 0c-.423-3.415 2-6.172 5.403-6.172.315 0 .611.075.885.213V4.413H.552L0 0" style="fill:#b8baba;fill-opacity:1;fill-rule:nonzero;stroke:none" transform="translate(71.932 25.053)"/><path d="M0 0c-.423-3.415 2-6.172 5.403-6.172.299 0 .578.074.836.2V4.413H.55L0 0" style="fill:#b7b9b9;fill-opacity:1;fill-rule:nonzero;stroke:none" transform="translate(71.98 25.053)"/><path d="M0 0c-.422-3.415 2-6.172 5.403-6.172.282 0 .546.069.788.188V4.413H.55L0 0" style="fill:#b5b7b8;fill-opacity:1;fill-rule:nonzero;stroke:none" transform="translate(72.03 25.053)"/><path d="M0 0c-.423-3.415 2-6.172 5.402-6.172.265 0 .511.063.739.173V4.413H.551L0 0" style="fill:#b4b6b6;fill-opacity:1;fill-rule:nonzero;stroke:none" transform="translate(72.078 25.053)"/><path d="M0 0c-.422-3.415 2-6.172 5.403-6.172.246 0 .478.059.692.16V4.413H.551L0 0" style="fill:#b3b5b5;fill-opacity:1;fill-rule:nonzero;stroke:none" transform="translate(72.126 25.053)"/><path d="M0 0c-.423-3.415 2-6.172 5.403-6.172.229 0 .442.054.642.148V4.413H.55L0 0" style="fill:#b2b3b3;fill-opacity:1;fill-rule:nonzero;stroke:none" transform="translate(72.174 25.053)"/><path d="M0 0c-.423-3.415 2-6.172 5.403-6.172.213 0 .41.048.594.134V4.413H.55L0 0" style="fill:#b1b2b3;fill-opacity:1;fill-rule:nonzero;stroke:none" transform="translate(72.223 25.053)"/><path d="M0 0c-.424-3.415 2-6.172 5.403-6.172.196 0 .375.043.545.119V4.413H.55L0 0" style="fill:#b0b1b2;fill-opacity:1;fill-rule:nonzero;stroke:none" transform="translate(72.271 25.053)"/><path d="M0 0c-.422-3.415 2-6.172 5.403-6.172.178 0 .342.038.497.107V4.413H.551L0 0" style="fill:#afb1b1;fill-opacity:1;fill-rule:nonzero;stroke:none" transform="translate(72.319 25.053)"/><path d="M0 0c-.422-3.415 2-6.172 5.403-6.172.162 0 .308.033.449.094V4.413H.55L0 0" style="fill:#adaeaf;fill-opacity:1;fill-rule:nonzero;stroke:none" transform="translate(72.367 25.053)"/><path d="M0 0c-.423-3.415 2-6.172 5.402-6.172.145 0 .274.03.401.081V4.413H.55L0 0" style="fill:#abadae;fill-opacity:1;fill-rule:nonzero;stroke:none" transform="translate(72.416 25.053)"/><path d="M0 0c-.424-3.415 2-6.172 5.403-6.172.126 0 .24.026.352.067V4.413H.55L0 0" style="fill:#aaadad;fill-opacity:1;fill-rule:nonzero;stroke:none" transform="translate(72.465 25.053)"/><path d="M0 0c-.424-3.415 2-6.172 5.403-6.172l.305.054V4.413H.551L0 0" style="fill:#a9abac;fill-opacity:1;fill-rule:nonzero;stroke:none" transform="translate(72.513 25.053)"/><path d="M0 0c-.424-3.415 2-6.172 5.403-6.172l.256.04V4.413H.551L0 0" style="fill:#a8abab;fill-opacity:1;fill-rule:nonzero;stroke:none" transform="translate(72.561 25.053)"/><path d="M0 0c-.422-3.415 2-6.172 5.403-6.172l.206.027V4.413H.55L0 0" style="fill:#a6a9aa;fill-opacity:1;fill-rule:nonzero;stroke:none" transform="translate(72.61 25.053)"/><path d="M0 0c-.424-3.415 2-6.172 5.403-6.172l.158.013V4.413H.55L0 0" style="fill:#a5a8a9;fill-opacity:1;fill-rule:nonzero;stroke:none" transform="translate(72.658 25.053)"/><path d="M0 0c-.424-3.415 1.999-6.172 5.402-6.172h.11V4.413H.55L0 0" style="fill:#a4a7a8;fill-opacity:1;fill-rule:nonzero;stroke:none" transform="translate(72.707 25.053)"/><path d="M0 0h-18.623c-3.403 0-6.51-2.749-6.936-6.156-.421-3.416 2.002-6.165 5.416-6.165H-14.492l-1.048-8.397c-.424-3.415 1.999-6.172 5.402-6.172 3.409 0 6.471 2.615 6.925 6.022C-3.184-20.637 0 0 0 0" style="fill:#bd2332;fill-opacity:1;fill-rule:nonzero;stroke:none" transform="translate(88.247 45.77)"/><path d="m0 0 2.615 2.62-5.278 5.283c-.726.726-1.9.726-2.625 0a1.854 1.854 0 0 1 0-2.625l.082-.079 2.573-2.571-2.651-2.643a1.846 1.846 0 0 1 0-2.615 1.845 1.845 0 0 1 2.621-.001l.08.083L-.019.021 0 0" style="fill:#fff;fill-opacity:1;fill-rule:nonzero;stroke:none" transform="translate(75.889 30.72)"/><path d="M0 0h3.513l.253 1.661H.377l.867 3.63-2.443-.915-.566-2.715h-1.394L-3.523 0h1.409l-1.425-6.783a4.121 4.121 0 0 1-.09-.767c0-.915.229-1.631.701-2.15.475-.529 1.113-.855 1.968-.888 1.402-.054 2.292.192 2.914.401l.295 1.979c-.625-.23-1.51-.5-1.934-.5-1.13 0-1.701.566-1.701 1.7 0 .261.05.617.147 1.07L0 0" style="fill:#c3c5c4;fill-opacity:1;fill-rule:nonzero;stroke:none" transform="translate(83.476 37.623)"/><path d="M0 0s-1.062.352-2.243.027c-1.062-.293-1.902-1.133-1.902-1.133l.156 1.07h-2.154L-7.83-10.568h2.178l.864 5.849s.391 2.203 1.905 2.8c1.45.592 2.27-.388 2.27-.388L0 0" style="fill:#676a6a;fill-opacity:1;fill-rule:nonzero;stroke:none" transform="translate(98.752 37.805)"/><path d="M0 0a700.795 700.795 0 0 0 1.293 6.172s-1.602 1.358-4.506.904C-6.197 6.602-8.036 4.232-8.488.608c-.514-4.129 2.664-4.495 3.702-4.413 1.573.113 2.652.92 2.652.92s.058-.178.139-.377c.077-.188.169-.375.169-.375H.55S-.291-1.534 0 0m-1.799 2.41c-.349-1.547-.54-2.451-1.456-3.568-.675-.835-2.769-1.137-2.863.708-.113 2.243.756 4.117 1.883 5.034 1.26 1.02 2.976.37 2.976.37s-.192-1.017-.54-2.544" style="fill:#676a6a;fill-opacity:1;fill-rule:nonzero;stroke:none" transform="translate(110.118 30.873)"/><path d="m0 0-1.541 5.451h-3.167l3.243-10.733h1.436L6.745 5.451H3.22L0 0z" style="fill:#676a6a;fill-opacity:1;fill-rule:nonzero;stroke:none" transform="translate(120.32 32.43)"/><path d="M0 0h3.342l1.129-5.953L7.322 0h3.683L5.78-10.708s-.938-2.326-2.746-3.218c-1.666-.818-3.893-.759-3.893-.759v3.144s1.686 0 2.505.441c.92.496 1.229 1.722 1.229 1.722s-1.04.621-1.385 2.098C1.212-6.083 0 0 0 0" style="fill:#676a6a;fill-opacity:1;fill-rule:nonzero;stroke:none" transform="translate(130.466 37.88)"/><path d="M0 0s1.399-1.542 2.573-1.411c1.047.116 1.143.848.733 1.121C2.9-.018.034 1.246-.199 2.627c-.258 1.583.365 3.635 3.078 4.3 2.289.557 5.141-.911 5.141-.911L6.396 2.793S5.271 3.995 4.238 4.06c-.856.043-1.508-.411-.33-1.023C5.081 2.434 6.474 1.842 6.883.669c.414-1.181.178-5.085-4.743-5.085-2.075 0-3.96 1.259-3.96 1.259L0 0" style="fill:#676a6a;fill-opacity:1;fill-rule:nonzero;stroke:none" transform="translate(145.093 31.225)"/></g></svg>