<svg xmlns="http://www.w3.org/2000/svg" width="1024" height="156" version="1.0" viewBox="-0.895 -0.895 207.197 31.634"><path d="M517.917 983.155c-8.236 0-14.906 6.692-14.906 14.937 0 8.248 6.67 14.906 14.906 14.906 5.093 0 9.58-2.522 12.282-6.406-.08.005-.17 0-.25 0-1.64 0-2.744-.601-3.47-1.469v1.25h-3.093v-14.75h3.094v5.313c.752-1.013 1.87-1.594 3.469-1.594 1.007 0 2.006.323 2.812.938-.887-7.39-7.211-13.125-14.844-13.125zm-4.968 12.375h9.25v2.187l-5.625 6.188h5.625v2.468h-9.438v-2.156l5.594-6.187h-5.406v-2.5zm16.53 2.468c-1.598 0-2.905 1.263-2.905 2.938 0 1.675 1.307 2.937 2.906 2.937 1.599 0 2.906-1.262 2.906-2.937 0-1.675-1.307-2.938-2.906-2.938z" style="fill:#ed1c24;fill-opacity:1;fill-rule:nonzero;stroke:none" transform="translate(-503.011 -983.155)"/><path d="M557.667 991.655v2.718h3.22v-2.718h-3.22zm89.938 0v14.625h3.062v-14.625h-3.062zm6.219 0v14.625h3.03v-1.407c.713.862 1.732 1.594 3.345 1.594 2.552 0 4.875-1.946 4.875-5.531v-.031c0-3.587-2.363-5.563-4.875-5.563-1.573 0-2.618.75-3.344 1.75v-5.437h-3.031zm25.937 0v14.625h3.031v-5.97c0-1.444.782-2.187 1.938-2.187 1.169 0 1.812.743 1.812 2.188v5.969h3.063v-6.938c0-2.467-1.359-4-3.656-4-1.533 0-2.444.845-3.157 1.75v-5.437h-3.03zm-137.281.625v14h5.469c4.393 0 7.468-3.05 7.468-7v-.032c0-3.943-3.075-6.968-7.468-6.968h-5.47zm36.906 0v2.687h7.469l-7.719 8.969v2.344h11.688v-2.688h-7.72l7.72-8.969v-2.343h-11.438zm39.656.53v2.75h-1.28v2.595h1.28v5.093c0 2.483 1.258 3.22 3.125 3.22 1.022 0 1.762-.247 2.407-.626v-2.437c-.444.24-.935.375-1.5.375-.685 0-.97-.33-.97-1.032v-4.593h2.5v-2.594h-2.5v-2.75h-3.062zm-73.468 2.25h2.375c2.512 0 4.218 1.74 4.218 4.22v.03c0 2.485-1.706 4.188-4.218 4.188h-2.375v-8.437zm23.187.282c-3.117 0-5.312 2.531-5.312 5.594v.031c0 3.283 2.382 5.563 5.593 5.563 1.948 0 3.4-.76 4.407-2l-1.75-1.563c-.833.781-1.604 1.125-2.625 1.125-1.358 0-2.317-.742-2.625-2.125h7.5c.013-.279.03-.451.03-.75v-.031c0-3.045-1.63-5.844-5.218-5.844zm29.219 0c-3.118 0-5.281 2.531-5.281 5.594v.031c0 3.283 2.368 5.563 5.593 5.563 1.935 0 3.368-.76 4.375-2l-1.718-1.563c-.848.781-1.592 1.125-2.625 1.125-1.358 0-2.317-.742-2.625-2.125h7.468c.014-.279.032-.451.032-.75v-.031c0-3.045-1.632-5.844-5.22-5.844zm13.969 0c-1.545 0-2.428.845-3.125 1.75v-1.531h-3.032v10.719h3.032v-5.97c0-1.444.737-2.187 1.906-2.187 1.155 0 1.844.743 1.844 2.188v5.969h3.03v-6.938c0-2.467-1.358-4-3.655-4zm21.656 0c-1.8-.079-2.788.893-3.406 2.375v-2.156h-3.032v10.719h3.032v-3.97c0-2.563 1.235-3.78 3.25-3.78h.156v-3.188zm65.125 0c-1.545 0-2.458.845-3.156 1.75v-1.531h-3.032v10.719h3.032v-5.97c0-1.444.75-2.187 1.906-2.187 1.169 0 1.844.743 1.844 2.188v5.969h3.062v-6.938c0-2.467-1.359-4-3.656-4zm-58.969.094c-1.827 0-2.987.325-4.156.844l.75 2.343c.981-.357 1.799-.593 2.969-.593 1.517 0 2.312.712 2.312 1.968v.188a7.614 7.614 0 0 0-2.625-.438c-2.54 0-4.344 1.06-4.344 3.407v.03c0 2.122 1.672 3.282 3.688 3.282 1.477 0 2.497-.521 3.25-1.344v1.157h2.937v-6.22c0-2.91-1.462-4.624-4.78-4.624zm32.313 0c-1.828 0-2.974.325-4.157.844l.75 2.343c.98-.357 1.8-.593 2.97-.593 1.518 0 2.28.712 2.28 1.968v.188a7.604 7.604 0 0 0-2.625-.438c-2.538 0-4.312 1.06-4.312 3.407v.03c0 2.122 1.672 3.282 3.687 3.282 1.48 0 2.498-.521 3.25-1.344v1.157h2.938v-6.22c0-2.91-1.463-4.624-4.781-4.624zm-114.313.125v10.719h3.031v-10.72h-3.03zm11 2.25c1.276 0 2.075.915 2.25 2.281h-4.594c.242-1.382 1.082-2.281 2.344-2.281zm29.219 0c1.29 0 2.094.915 2.281 2.281h-4.594c.23-1.382 1.05-2.281 2.313-2.281zm61.437.125c1.425 0 2.625 1.187 2.625 2.969v.03c0 1.805-1.2 2.97-2.625 2.97-1.41 0-2.593-1.182-2.593-2.97v-.03c0-1.782 1.183-2.97 2.593-2.97zm-19.687 3.625c.752 0 1.427.169 1.937.406v.531c0 1.097-.95 1.875-2.375 1.875-.98 0-1.656-.458-1.656-1.28v-.063c0-.958.804-1.47 2.094-1.47zm32.312 0c.74 0 1.414.169 1.938.406v.531c0 1.097-.983 1.875-2.406 1.875-.982 0-1.657-.458-1.657-1.28v-.063c0-.958.822-1.47 2.125-1.47zm33.157 1.531v3.188h3.218v-3.188H705.2z" style="fill:#2f3a44;fill-opacity:1;fill-rule:nonzero;stroke:none" transform="translate(-503.011 -983.155)"/></svg>