<svg xmlns="http://www.w3.org/2000/svg" id="Ebene_2" width="2380.4" height="1683.111" data-name="Ebene 2" viewBox="0 0 2380.4 1683.111"><g id="energie"><path id="Rechteck_52" d="M2377.043 1679.89h3.356v3.221h-3.356z" data-name="Rechteck 52" style="fill:#fffffd;isolation:isolate;opacity:.99"/><path id="Rechteck_52-2" d="M2064.783 0h314.782v94.586h-314.782z" data-name="Rechteck 52" style="fill:#fffffd;isolation:isolate;opacity:.99"/><path id="Rechteck_titel" d="M0 0h300.783v145.284H0z" data-name="Rechteck Titel" style="fill:#fffffd;isolation:isolate;opacity:.99"/><path id="Rechteck_34" d="M0 0h236.783v345.284H0z" data-name="Rechteck 34" style="fill:#fffffd;isolation:isolate;opacity:.99"/><path id="Rechteck_verantwortlich" d="M0 134.783h636.783v50.284H0z" data-name="Rechteck Verantwortlich" style="fill:#fffffd;isolation:isolate;opacity:.99"/><g id="title"><text id="text2308" style="font-family:Arial-BoldMT,Arial;font-size:24.65136px;font-weight:700;isolation:isolate" transform="translate(54.03 75.036)"><tspan x="0" y="0">Netzkarte Energie</tspan></text><text id="text2317" style="font-family:Arial-BoldMT,Arial;font-size:24.65136px;font-weight:700;isolation:isolate;letter-spacing:-.01em" transform="translate(54.03 108.114)"><tspan x="0" y="0">Réseau énergétique</tspan></text><text id="text2320" style="font-family:ArialMT,Arial;font-size:15.73491px;isolation:isolate" transform="translate(212.191 151.605)"><tspan x="0" y="0">Verantwortlich/Responsable</tspan></text><text id="text2323" style="font-family:ArialMT,Arial;font-size:15.73491px;isolation:isolate" transform="translate(212.191 171.78)"><tspan x="0" y="0">***publisher***</tspan></text><text id="text2347" style="font-family:ArialMT,Arial;font-size:15.73491px;isolation:isolate" transform="translate(53.982 151.605)"><tspan x="0" y="0">Stand/Etat</tspan></text><text id="text2350" style="font-family:ArialMT,Arial;font-size:15.73491px;isolation:isolate" transform="translate(53.982 171.78)"><tspan x="0" y="0">***publishedAt***</tspan></text></g><g id="sbb"><path id="path2879" d="M2070.967 78.905h80.936v-26.98h-80.936v26.98Z" style="fill:#e42328"/><path id="path2881" d="M2118.609 63.35h8.75v-6.928h4.123v6.928h8.75l-7.04-6.928h5.225l8.992 8.993-8.992 8.993h-5.229l7.04-6.928h-8.746v6.928h-4.123V67.48h-8.75l7.04 6.928h-5.222l-8.992-8.992 8.992-8.993h5.222" style="fill:#fff"/><path id="path2883" d="M2160.255 69.036c-.052 4.656 3.861 6.719 8.039 6.719 5.131 0 7.856-2.59 7.856-6.057 0-4.282-4.231-5.155-5.608-5.496-4.734-1.219-5.631-1.404-5.631-2.857 0-1.587 1.532-2.141 2.857-2.141 1.984 0 3.597.58 3.728 2.857h4.02c0-4.364-3.623-6.081-7.562-6.081-3.412 0-7.061 1.85-7.061 5.713 0 3.544 2.828 4.629 5.634 5.367 2.776.74 5.604 1.085 5.604 3.12 0 1.931-2.222 2.354-3.676 2.354-2.222 0-4.177-.98-4.177-3.492" style="fill:#221e20"/><path id="path2885" d="M2182.863 59.65h3.887c1.48 0 2.856.37 2.856 2.168 0 1.587-1.084 2.248-2.538 2.248h-4.205v-4.415Zm-4.152 15.655h9.15c3.41 0 6.665-1.639 6.665-5.474 0-2.353-1.165-4.125-3.466-4.787a4.14 4.14 0 0 0 2.568-3.941c0-3.517-2.434-4.68-6.031-4.68h-8.885v18.882Zm4.152-8.41h4.52c1.771 0 2.988.769 2.988 2.698 0 1.956-1.428 2.486-3.067 2.486h-4.441" style="fill:#221e20;fill-rule:evenodd"/><path id="path2887" d="M2201.446 59.65h3.887c1.48 0 2.857.37 2.857 2.168 0 1.587-1.085 2.248-2.539 2.248h-4.205v-4.415Zm-4.152 15.655h9.15c3.41 0 6.663-1.639 6.663-5.474 0-2.353-1.163-4.125-3.464-4.787a4.141 4.141 0 0 0 2.564-3.941c0-3.517-2.431-4.68-6.028-4.68h-8.885v18.882Zm4.154-8.41h4.52c1.772 0 2.989.769 2.989 2.698 0 1.956-1.428 2.486-3.067 2.486h-4.441" style="fill:#221e20;fill-rule:evenodd"/><path id="path2889" d="M2239.48 62.77c-.502-4.364-3.992-6.795-8.144-6.795-5.846 0-9.281 4.363-9.281 9.968 0 5.448 3.435 9.812 9.281 9.812 4.629 0 7.88-3.015 8.303-7.723h-4.021c-.317 2.486-1.744 4.23-4.282 4.23-3.729 0-5.132-3.173-5.132-6.32 0-3.305 1.404-6.479 5.132-6.479 2.06 0 3.861 1.428 4.125 3.305" style="fill:#221e20"/><path id="path2891" d="M2242.195 75.305h4.151v-7.801h7.909v-3.226h-7.909v-4.363h9.124v-3.49h-13.276" style="fill:#221e20"/><path id="path2893" d="M2257.994 75.305h4.14v-7.801h7.898v-3.226h-7.901v-4.363h9.113v-3.49h-13.25" style="fill:#221e20"/><path id="path2895" d="M2280.237 75.305h4.162v-7.801h7.898v-3.226h-7.898v-4.363h9.112v-3.49h-13.274" style="fill:#221e20"/><path id="path2897" d="M2296.534 75.305h4.14v-7.801h7.898v-3.226h-7.898v-4.363h9.135v-3.49h-13.275" style="fill:#221e20"/><path id="path2899" d="M2311.331 69.036c-.047 4.656 3.854 6.719 8.042 6.719 5.138 0 7.85-2.59 7.85-6.057 0-4.282-4.234-5.155-5.59-5.496-4.734-1.219-5.639-1.404-5.639-2.857 0-1.587 1.523-2.141 2.857-2.141 1.974 0 3.593.58 3.735 2.857h3.997c0-4.364-3.616-6.081-7.542-6.081-3.426 0-7.066 1.85-7.066 5.713 0 3.544 2.831 4.629 5.639 5.367 2.76.74 5.59 1.085 5.59 3.12 0 1.931-2.212 2.354-3.663 2.354-2.237 0-4.187-.98-4.187-3.492" style="fill:#221e20"/></g><g id="ref-pub"><path id="rect2966" d="M2312.349 937.325h21.911v588.727h-21.911z" style="fill:#fffffd"/><text id="text1948" style="font-family:Arial-BoldMT,Arial;font-size:14.00816px;font-weight:700;isolation:isolate" transform="rotate(-90 1983.617 -343.475)"><tspan x="0" y="0">SBB-Netzkarte-Energie-***year***</tspan></text><text id="text1951" style="font-family:ArialMT,Arial;font-size:12.00699px;isolation:isolate" transform="rotate(-90 1869.144 -457.948)"><tspan x="0" y="0" xml:space="preserve">Quelle: OpenStreetMap contributors © SBB/CFF/FFS www.traﬁmage.ch www.geops.ch</tspan></text></g><g id="legende-pub"><path id="Rechteck_34-2" d="M0 342.682h187.057v370.762H0z" data-name="Rechteck 34" style="fill:#fffffd;isolation:isolate;opacity:.99"/><path id="rect2197" d="M0 710.238h340.826v50.783H0z" style="fill:#fffffd"/><path id="rect2197-2" d="M0 760.02h314.217v65.478H0z" data-name="rect2197" style="fill:#fffffd"/><g id="Gruppe_15" data-name="Gruppe 15" style="opacity:.99"><path id="Linie_1" d="M59.414 790.743h63.638" data-name="Linie 1" style="fill:none;stroke:#000;stroke-miterlimit:5.24497;stroke-width:.9906px"/><path id="Linie_2" d="M127.404 790.743h62.94" data-name="Linie 2" style="fill:none;stroke:#000;stroke-miterlimit:5.24497;stroke-width:.9906px"/><path id="Linie_3" d="M195.239 790.743h63.059" data-name="Linie 3" style="fill:none;stroke:#000;stroke-miterlimit:5.24497;stroke-width:.9906px"/><g id="_0" data-name="0"><text id="text2332" style="font-family:ArialMT,Arial;font-size:15.73491px;isolation:isolate" transform="translate(55.188 810.137)"><tspan x="0" y="0">0</tspan></text></g><g id="_10" data-name="10"><text id="text2335" style="font-family:ArialMT,Arial;font-size:15.73491px;isolation:isolate;letter-spacing:-.04999em" transform="translate(117.54 810.136)"><tspan x="0" y="0">10</tspan></text></g><g id="_20" data-name="20"><text id="text2340" style="font-family:ArialMT,Arial;font-size:15.73491px;isolation:isolate" transform="translate(183.026 810.136)"><tspan x="0" y="0">20</tspan></text></g><g id="_30_km" data-name="30 km"><text id="text2343" style="font-family:ArialMT,Arial;font-size:15.73491px;isolation:isolate" transform="translate(248.214 810.136)"><tspan x="0" y="0">30 km</tspan></text></g></g><text id="text2489" style="font-family:ArialMT,Arial;font-size:15.73491px;isolation:isolate" transform="translate(55.188 293.387)"><tspan x="0" y="0">Übertragungsleitungen /</tspan><tspan x="0" y="19.842">Lignes de transmission</tspan><tspan x="0" y="54.709" xml:space="preserve" style="letter-spacing:.92217em"> </tspan><tspan x="47.764" y="54.709" xml:space="preserve"> Los 1</tspan><tspan x="0" y="89.575" xml:space="preserve"> </tspan><tspan x="17.486" y="89.575" style="letter-spacing:-.18914em"> </tspan><tspan x="18.882" y="89.575" style="letter-spacing:.92217em"> </tspan><tspan x="47.764" y="89.575" xml:space="preserve"> Los 2</tspan><tspan x="0" y="124.441" xml:space="preserve"> </tspan><tspan x="17.486" y="124.441" style="letter-spacing:-.18914em"> </tspan><tspan x="18.882" y="124.441" style="letter-spacing:.92217em"> </tspan><tspan x="47.764" y="124.441" xml:space="preserve"> Los 3</tspan><tspan x="0" y="159.307" xml:space="preserve"> </tspan><tspan x="17.486" y="159.307" style="letter-spacing:-.18914em"> </tspan><tspan x="18.882" y="159.307" style="letter-spacing:.92217em"> </tspan><tspan x="47.764" y="159.307" xml:space="preserve"> Los 4</tspan><tspan x="0" y="194.173" xml:space="preserve"> </tspan><tspan x="17.486" y="194.173" style="letter-spacing:-.18914em"> </tspan><tspan x="18.882" y="194.173" style="letter-spacing:.92217em"> </tspan><tspan x="47.764" y="194.173" xml:space="preserve"> Los 5</tspan><tspan x="0" y="229.039" xml:space="preserve"> </tspan><tspan x="17.486" y="229.039" style="letter-spacing:-.18914em"> </tspan><tspan x="18.882" y="229.039" style="letter-spacing:.92217em"> </tspan><tspan x="47.764" y="229.039" xml:space="preserve"> Los 6</tspan><tspan x="0" y="263.905" xml:space="preserve"> </tspan><tspan x="17.486" y="263.905" style="letter-spacing:-.18914em"> </tspan><tspan x="18.882" y="263.905" style="letter-spacing:.92217em"> </tspan><tspan x="47.764" y="263.905" xml:space="preserve"> Los 7</tspan><tspan x="0" y="298.771" xml:space="preserve"> </tspan><tspan x="17.486" y="298.771" style="letter-spacing:-.18914em"> </tspan><tspan x="18.882" y="298.771" style="letter-spacing:.92217em"> </tspan><tspan x="47.764" y="298.771" xml:space="preserve"> Los 8</tspan><tspan x="0" y="333.638" xml:space="preserve"> </tspan><tspan x="17.486" y="333.638" style="letter-spacing:-.18914em"> </tspan><tspan x="18.882" y="333.638" style="letter-spacing:.92217em"> </tspan><tspan x="47.764" y="333.638" xml:space="preserve"> Los 9</tspan><tspan x="0" y="368.504" xml:space="preserve"> </tspan><tspan x="17.486" y="368.504" style="letter-spacing:-.18914em"> </tspan><tspan x="18.882" y="368.504" style="letter-spacing:.92217em"> </tspan><tspan x="47.764" y="368.504" xml:space="preserve"> Los 10</tspan><tspan x="0" y="403.37" xml:space="preserve"> </tspan><tspan x="17.486" y="403.37" style="letter-spacing:-.18914em"> </tspan><tspan x="18.882" y="403.37" style="letter-spacing:.92217em"> </tspan><tspan x="47.764" y="403.37" xml:space="preserve"> Los 11</tspan><tspan x="0" y="438.236" xml:space="preserve"> </tspan><tspan x="17.486" y="438.236" style="letter-spacing:-.18914em"> </tspan><tspan x="18.882" y="438.236" style="letter-spacing:.92217em"> </tspan><tspan x="47.764" y="438.236" xml:space="preserve"> ausserhalb der Loseinteilung /</tspan><tspan x="0" y="458.079" xml:space="preserve" style="letter-spacing:.92217em"> </tspan><tspan x="47.764" y="458.079" xml:space="preserve"> exclus de la division des lots</tspan></text><path d="M54.729 377.762h37.553" style="fill:none;stroke:#da1720;stroke-miterlimit:10;stroke-width:7.08661px"/><path d="M54.729 412.842h37.553" style="fill:none;stroke:#71c520;stroke-miterlimit:10;stroke-width:7.08661px"/><path d="M54.729 342.682h37.553" style="fill:none;stroke:#12919a;stroke-miterlimit:10;stroke-width:7.08661px"/><path d="M54.729 447.923h37.553" style="fill:none;stroke:#f057b3;stroke-miterlimit:10;stroke-width:7.08661px"/><path d="M54.729 483.003h37.553" style="fill:none;stroke:#f27211;stroke-miterlimit:10;stroke-width:7.08661px"/><path d="M54.729 518.084h37.553" style="fill:none;stroke:#1486da;stroke-miterlimit:10;stroke-width:7.08661px"/><path d="M54.729 553.164h37.553" style="fill:none;stroke:#7346bc;stroke-miterlimit:10;stroke-width:7.08661px"/><path d="M54.729 588.244h37.553" style="fill:none;stroke:#1abebc;stroke-miterlimit:10;stroke-width:7.08661px"/><path d="M54.729 623.325h37.553" style="fill:none;stroke:#f9b914;stroke-miterlimit:10;stroke-width:7.08661px"/><path d="M54.729 658.405h37.553" style="fill:none;stroke:#128939;stroke-miterlimit:10;stroke-width:7.08661px"/><path d="M54.729 693.485h37.553" style="fill:none;stroke:#a3005b;stroke-miterlimit:10;stroke-width:7.08661px"/><path d="M54.729 728.566h37.553" style="fill:none;stroke:#000;stroke-miterlimit:10;stroke-width:7.08661px"/><g id="los"><text id="text2489-2" data-name="text2489" style="font-family:ArialMT,Arial;font-size:15.73491px;isolation:isolate" transform="translate(55.188 231.276)"><tspan x="47.764" y="0" xml:space="preserve">Unterwerke /</tspan><tspan x="0" y="19.842" xml:space="preserve" style="letter-spacing:.92217em"> </tspan><tspan x="47.764" y="19.842" xml:space="preserve"> Sous-stations</tspan></text></g><path d="M60.32 218.035h22.943v22.943H60.32z"/><path d="M81.477 219.82v19.373H62.105V219.82h19.372m3.572-3.572H58.534v26.515h26.515V216.25Z" style="fill:#fff"/></g></g></svg>