<svg xmlns="http://www.w3.org/2000/svg" height="32" width="32" viewBox="0 0 89.87 89.87"><g data-name="Ebene 2"><g data-name="Ebene 1"><circle cx="44.93" cy="44.93" r="44.93" style="fill:#996717;opacity:.4"/><circle cx="44.93" cy="44.93" r="39.51" style="fill:#2d327d"/><path d="M37.58 66.48A2.45 2.45 0 0 0 40 68.93h9.8a2.45 2.45 0 0 0 2.45-2.45V64H37.58Zm7.35-45.55a17.05 17.05 0 0 0-17.15 17.15 16.74 16.74 0 0 0 7.35 14v5.63a2.45 2.45 0 0 0 2.45 2.45h14.7a2.45 2.45 0 0 0 2.45-2.45v-5.66a17.41 17.41 0 0 0 7.35-14 17 17 0 0 0-17.15-17.12Z" style="fill:#fff"/></g></g></svg>