<svg xmlns="http://www.w3.org/2000/svg" height="28" width="28" viewBox="0 0 79.02 79.02"><g data-name="Ebene 2"><g data-name="Ebene 1"><circle cx="39.51" cy="39.51" r="39.51" style="fill:#2d327d"/><path d="M32.16 61.06a2.45 2.45 0 0 0 2.45 2.45h9.8a2.45 2.45 0 0 0 2.45-2.45v-2.45h-14.7Zm7.35-45.55a17.05 17.05 0 0 0-17.15 17.15 16.74 16.74 0 0 0 7.35 14v5.63a2.45 2.45 0 0 0 2.45 2.45h14.7a2.45 2.45 0 0 0 2.45-2.45v-5.66a17.41 17.41 0 0 0 7.35-14 17 17 0 0 0-17.15-17.12Z" style="fill:#fff"/></g></g></svg>