<svg xmlns="http://www.w3.org/2000/svg" height="44" width="44" viewBox="0 0 121.55 121.55"><g data-name="Ebene 2"><g data-name="Ebene 1"><circle cx="60.78" cy="60.78" r="60.78" style="opacity:.4;fill:#eace28"/><circle cx="60.78" cy="60.78" r="55.35" style="fill:#eaaf0a;opacity:.4"/><circle cx="60.78" cy="60.78" r="49.93" style="fill:#cc8912;opacity:.4"/><circle cx="60.78" cy="60.78" r="44.93" style="fill:#996717;opacity:.4"/><circle cx="60.78" cy="60.78" r="39.51" style="fill:#2d327d"/><path d="M53.43 82.33a2.46 2.46 0 0 0 2.45 2.45h9.8a2.46 2.46 0 0 0 2.45-2.45v-2.45h-14.7Zm7.35-45.55a17 17 0 0 0-17.15 17.15 16.72 16.72 0 0 0 7.35 14v5.64A2.46 2.46 0 0 0 53.43 76h14.7a2.46 2.46 0 0 0 2.45-2.45v-5.66a17.4 17.4 0 0 0 7.35-14 17 17 0 0 0-17.15-17.11Z" style="fill:#fff"/></g></g></svg>