<svg xmlns="http://www.w3.org/2000/svg" height="36" width="36" viewBox="0 0 99.85 99.85"><g data-name="Ebene 2"><g data-name="Ebene 1"><circle cx="49.93" cy="49.93" r="49.93" style="opacity:.4;fill:#cc8912"/><circle cx="49.93" cy="49.93" r="44.93" style="fill:#996717;opacity:.4"/><circle cx="49.93" cy="49.93" r="39.51" style="fill:#2d327d"/><path d="M42.58 71.48A2.46 2.46 0 0 0 45 73.93h9.8a2.46 2.46 0 0 0 2.45-2.45V69H42.58Zm7.35-45.55a17 17 0 0 0-17.15 17.15 16.72 16.72 0 0 0 7.35 14v5.64a2.46 2.46 0 0 0 2.45 2.45h14.7a2.46 2.46 0 0 0 2.45-2.45V57a17.4 17.4 0 0 0 7.35-14 17 17 0 0 0-17.15-17.07Z" style="fill:#fff"/></g></g></svg>