<svg xmlns="http://www.w3.org/2000/svg" height="40" width="40" viewBox="0 0 110.7 110.7"><g data-name="Ebene 2"><g data-name="Ebene 1"><circle cx="55.35" cy="55.35" r="55.35" style="opacity:.4;fill:#eaaf0a"/><circle cx="55.35" cy="55.35" r="49.93" style="fill:#cc8912;opacity:.4"/><circle cx="55.35" cy="55.35" r="44.93" style="fill:#996717;opacity:.4"/><circle cx="55.35" cy="55.35" r="39.51" style="fill:#2d327d"/><path d="M48 76.9a2.45 2.45 0 0 0 2.45 2.45h9.8a2.45 2.45 0 0 0 2.45-2.45v-2.45H48Zm7.35-45.55A17.05 17.05 0 0 0 38.2 48.5a16.74 16.74 0 0 0 7.35 14v5.6A2.45 2.45 0 0 0 48 70.55h14.7a2.45 2.45 0 0 0 2.45-2.45v-5.63a17.41 17.41 0 0 0 7.35-14 17 17 0 0 0-17.15-17.12Z" style="fill:#fff"/></g></g></svg>