<svg xmlns="http://www.w3.org/2000/svg" id="svg8" width="2380.4" height="1683.111" version="1.1" viewBox="0 0 629.814 445.323"><defs id="defs2"><clipPath id="clip-path"><path id="rect2286" d="M3948.481 99.001h488.578v51.438h-488.578z" style="fill:none"/></clipPath><clipPath id="clip-path-2"><path id="rect2289" d="M101.708 3090.76h74.539v36.066h-74.539z" style="fill:none"/></clipPath><clipPath id="clip-path-77"><path id="path1545" d="M3910.071 19.321h708.661v74.608h-708.661z" class="cls-1"/></clipPath><clipPath id="clip-path-2-6"><path id="path1548" d="M12.701 3161.651h57.046v28.745H12.701Z" class="cls-1"/></clipPath><clipPath id="clip-path-7"><path id="path1545-6" d="M3910.071 19.321h708.661v74.608h-708.661z" class="cls-1" style="fill:none"/></clipPath><clipPath id="clip-path-2-7"><path id="path1548-3" d="M12.701 3161.651h57.046v28.745H12.701Z" class="cls-1" style="fill:none"/></clipPath><clipPath id="clip-path-8"><path id="path1545-0" d="M3910.071 19.321h708.661v74.608h-708.661z" class="cls-1" style="fill:none"/></clipPath><clipPath id="clip-path-2-4"><path id="path1548-2" d="M12.701 3161.651h57.046v28.745H12.701Z" class="cls-1" style="fill:none"/></clipPath><clipPath id="clip-path-8-0"><path id="path1545-0-4" d="M3910.071 19.321h708.661v74.608h-708.661z" class="cls-1" style="fill:none"/></clipPath><clipPath id="clip-path-2-4-0"><path id="path1548-2-9" d="M12.701 3161.651h57.046v28.745H12.701Z" class="cls-1" style="fill:none"/></clipPath><clipPath id="clip-path-8-0-0"><path id="path1545-0-4-9" d="M3910.071 19.321h708.661v74.608h-708.661z" class="cls-1" style="fill:none"/></clipPath><clipPath id="clip-path-2-4-0-1"><path id="path1548-2-9-7" d="M12.701 3161.651h57.046v28.745H12.701Z" class="cls-1" style="fill:none"/></clipPath><filter id="a" style="color-interpolation-filters:sRGB"><feFlood id="feFlood1298" flood-color="#9CBFDB" flood-opacity="1" result="result1"/><feImage id="feImage1300" result="result2"/><feBlend id="feBlend1302" in2="result1" mode="multiply" result="result4"/><feMerge id="feMerge1308" result="result3"><feMergeNode id="feMergeNode1304" in="result1"/><feMergeNode id="feMergeNode1306" in="SourceGraphic"/></feMerge></filter><filter id="b" style="color-interpolation-filters:sRGB"><feFlood id="feFlood1311" flood-color="#9CBFDB" flood-opacity="1" result="result1"/><feImage id="feImage1313" result="result2"/><feBlend id="feBlend1315" in2="result1" mode="multiply" result="result4"/><feMerge id="feMerge1321" result="result3"><feMergeNode id="feMergeNode1317" in="result1"/><feMergeNode id="feMergeNode1319" in="SourceGraphic"/></feMerge></filter><filter id="c" style="color-interpolation-filters:sRGB"><feFlood id="feFlood1324" flood-color="#9CBFDB" flood-opacity="1" result="result1"/><feImage id="feImage1326" result="result2"/><feBlend id="feBlend1328" in2="result1" mode="multiply" result="result4"/><feMerge id="feMerge1334" result="result3"><feMergeNode id="feMergeNode1330" in="result1"/><feMergeNode id="feMergeNode1332" in="SourceGraphic"/></feMerge></filter><filter id="filter2830" style="color-interpolation-filters:sRGB"><feFlood id="feFlood2818" flood-color="#C83737" flood-opacity="1" result="result1"/><feImage id="feImage2820" result="result2"/><feMerge id="feMerge2828" result="fbSourceGraphic"><feMergeNode id="feMergeNode2824" in="result1"/><feMergeNode id="feMergeNode2826" in="SourceGraphic"/></feMerge><feBlend id="feBlend2822" in2="result1" mode="multiply" result="result4"/><feColorMatrix id="feColorMatrix1690" in="fbSourceGraphic" result="fbSourceGraphicAlpha" values="0 0 0 -1 0 0 0 0 -1 0 0 0 0 -1 0 0 0 0 1 0"/><feFlood id="feFlood1692" flood-color="#C83737" flood-opacity="1" result="result1"/><feImage id="feImage1694" result="result2"/><feBlend id="feBlend1696" in2="result1" mode="multiply" result="result4"/><feMerge id="feMerge1698" result="result3"><feMergeNode id="feMergeNode1700" in="result1"/><feMergeNode id="feMergeNode1702" in="fbSourceGraphic"/></feMerge></filter><filter id="a-2" style="color-interpolation-filters:sRGB"><feFlood id="feFlood1298-7" flood-color="#9CBFDB" flood-opacity="1" result="result1"/><feImage id="feImage1300-6" result="result2"/><feBlend id="feBlend1302-1" in2="result1" mode="multiply" result="result4"/><feMerge id="feMerge1308-3" result="result3"><feMergeNode id="feMergeNode1304-2" in="result1"/><feMergeNode id="feMergeNode1306-1" in="SourceGraphic"/></feMerge></filter><filter id="b-5" style="color-interpolation-filters:sRGB"><feFlood id="feFlood1311-9" flood-color="#9CBFDB" flood-opacity="1" result="result1"/><feImage id="feImage1313-9" result="result2"/><feBlend id="feBlend1315-1" in2="result1" mode="multiply" result="result4"/><feMerge id="feMerge1321-4" result="result3"><feMergeNode id="feMergeNode1317-9" in="result1"/><feMergeNode id="feMergeNode1319-1" in="SourceGraphic"/></feMerge></filter><filter id="c-0" style="color-interpolation-filters:sRGB"><feFlood id="feFlood1324-7" flood-color="#9CBFDB" flood-opacity="1" result="result1"/><feImage id="feImage1326-5" result="result2"/><feBlend id="feBlend1328-8" in2="result1" mode="multiply" result="result4"/><feMerge id="feMerge1334-7" result="result3"><feMergeNode id="feMergeNode1330-0" in="result1"/><feMergeNode id="feMergeNode1332-4" in="SourceGraphic"/></feMerge></filter><filter id="filter2830-6" style="color-interpolation-filters:sRGB"><feFlood id="feFlood2818-1" flood-color="#C83737" flood-opacity="1" result="result1"/><feImage id="feImage2820-0" result="result2"/><feMerge id="feMerge2828-4" result="fbSourceGraphic"><feMergeNode id="feMergeNode2824-2" in="result1"/><feMergeNode id="feMergeNode2826-2" in="SourceGraphic"/></feMerge><feBlend id="feBlend2822-2" in2="result1" mode="multiply" result="result4"/><feColorMatrix id="feColorMatrix1690-0" in="fbSourceGraphic" result="fbSourceGraphicAlpha" values="0 0 0 -1 0 0 0 0 -1 0 0 0 0 -1 0 0 0 0 1 0"/><feFlood id="feFlood1692-5" flood-color="#C83737" flood-opacity="1" result="result1"/><feImage id="feImage1694-5" result="result2"/><feBlend id="feBlend1696-2" in2="result1" mode="multiply" result="result4"/><feMerge id="feMerge1698-9" result="result3"><feMergeNode id="feMergeNode1700-0" in="result1"/><feMergeNode id="feMergeNode1702-2" in="fbSourceGraphic"/></feMerge></filter><style id="style1551">.cls-1{fill:none}</style></defs><path id="rect2966" d="M611.809 169.892h5.721v192.314h-5.721z" style="display:inline;opacity:1;fill:#9cbfdb;fill-opacity:1;stroke:none;stroke-width:.4;stroke-miterlimit:4;stroke-dasharray:none;stroke-dashoffset:0;stroke-opacity:1"/><path id="rect2498" d="M60.824 364.612h27.454v34.131H60.824z" style="opacity:1;fill:#9cbfdb;fill-opacity:1;stroke:none;stroke-width:.39999995;stroke-miterlimit:4;stroke-dasharray:none;stroke-dashoffset:0;stroke-opacity:1"/><path id="rect2210" d="M60.824 345.76h12.547v18.853H60.824Z" style="opacity:1;fill:#9cbfdb;fill-opacity:1;stroke:none;stroke-width:.411338;stroke-miterlimit:4;stroke-dasharray:none;stroke-dashoffset:0;stroke-opacity:1"/><path id="rect2206" d="M12.728 345.76h48.473v89.679H12.728Z" style="opacity:1;fill:#9cbfdb;fill-opacity:1;stroke:none;stroke-width:.402308;stroke-miterlimit:4;stroke-dasharray:none;stroke-dashoffset:0;stroke-opacity:1"/><path id="rect2204" d="M12.659 109.225h91.691v27.12H12.659z" style="opacity:1;fill:#9cbfdb;fill-opacity:1;stroke:none;stroke-width:.858693;stroke-miterlimit:4;stroke-dasharray:none;stroke-dashoffset:0;stroke-opacity:1"/><path id="rect2202" d="M46.001 99.921h34.774v24.871H46.001z" style="opacity:1;fill:#9cbfdb;fill-opacity:1;stroke:none;stroke-width:.40000001;stroke-miterlimit:4;stroke-dasharray:none;stroke-dashoffset:0;stroke-opacity:1"/><path id="rect2197" d="M12.659 53.224h54.64v71.682h-54.64z" style="opacity:1;fill:#9cbfdb;fill-opacity:1;stroke:none;stroke-width:.39999998;stroke-miterlimit:4;stroke-dasharray:none;stroke-dashoffset:0;stroke-opacity:1"/><path id="rect2208" d="M60.824 346.785h7.232v34.131h-7.232z" style="opacity:1;fill:#9cbfdb;fill-opacity:1;stroke:none;stroke-width:.39999995;stroke-miterlimit:4;stroke-dasharray:none;stroke-dashoffset:0;stroke-opacity:1"/><path id="rect2212" d="M60.588 392.043h23.131v43.396H60.588z" style="opacity:1;fill:#9cbfdb;fill-opacity:1;stroke:none;stroke-width:.39999992;stroke-miterlimit:4;stroke-dasharray:none;stroke-dashoffset:0;stroke-opacity:1"/><path id="rect2214" d="M83.601 392.043H99.27v25.222H83.601z" style="opacity:1;fill:#9cbfdb;fill-opacity:1;stroke:none;stroke-width:.39999998;stroke-miterlimit:4;stroke-dasharray:none;stroke-dashoffset:0;stroke-opacity:1"/><path id="rect2216" d="M92.042 407.651h15.502v9.758H92.042z" style="opacity:1;fill:#9cbfdb;fill-opacity:1;stroke:none;stroke-width:.39999992;stroke-miterlimit:4;stroke-dasharray:none;stroke-dashoffset:0;stroke-opacity:1"/><path id="rect2200" d="M55.676 70.359h15.045v30.659H55.676z" style="opacity:1;fill:#9cbfdb;fill-opacity:1;stroke:none;stroke-width:.347312;stroke-miterlimit:4;stroke-dasharray:none;stroke-dashoffset:0;stroke-opacity:1"/><g id="layer1" style="display:inline" transform="translate(881.619 210.478)"><g id="layer1-9" style="stroke-width:1.88866" transform="translate(-881.689 -210.693) scale(.52947)"><g id="g3541" style="stroke-width:1.88866" transform="translate(.132 .406) scale(.2621)"><path id="Rechteck_52" d="M3941.537 91.885h502.6v65.497h-502.6z" data-name="Rechteck 52" style="opacity:.99;fill:#9cbfdb;stroke-width:1.88866"/><path id="Rechteck_43" d="M91.721 2563.064h436.905v50H91.721Z" data-name="Rechteck 43" style="opacity:.99;fill:#9cbfdb;stroke-width:1.91339"/><path id="Rechteck_34" d="M91.221 92.001h1653.487v133.063H91.221Z" data-name="Rechteck 34" style="opacity:.99;fill:#9cbfdb;stroke-width:1.97167"/><path id="Rechteck_33" d="M91.221 250.395h268.581v97.095H91.221Z" data-name="Rechteck 33" style="opacity:.99;fill:#9cbfdb;stroke-width:2.70615"/><path id="Rechteck_32" d="M551.893-347.49h335v97.095h-335z" data-name="Rechteck 32" style="opacity:.99;fill:#9cbfdb;stroke-width:2.18165" transform="scale(1 -1)"/><path id="Rechteck_31" d="M91.221 396.073h393.167v50H91.221Z" data-name="Rechteck 31" style="opacity:.99;fill:#9cbfdb;stroke-width:1.88866"/><g id="Tarif-_und_Verkehrsverbunde_Schweiz_gültig_ab" data-name="Tarif- und Verkehrsverbunde Schweiz gültig ab" style="stroke-width:1.88866"><text id="text2308" style="font-weight:700;font-size:47px;font-family:Arial-BoldMT,Arial;isolation:isolate;stroke-width:1.88866" transform="translate(103.012 143.064)">Tarif- und Verkehrsverbunde Schweiz gültig ab ***dateDe***</text></g><g id="Communautés_tarifaires_et_de_trafic_Suisse_valable_dès_le" data-name="Communautés tarifaires et de trafic Suisse valable dès le" style="stroke-width:1.88866"><text id="text2317" style="font-weight:700;font-size:47px;font-family:Arial-BoldMT,Arial;letter-spacing:-.0100046em;isolation:isolate;stroke-width:1.88866" transform="translate(103.012 206.128)">Communautés tarifaires et de trafic Suisse valable dès le ***dateFr***</text></g><g id="Name_Nom" data-name="Name Nom" style="opacity:1;stroke-width:1.88866" transform="translate(0 2.019)"><text id="text2320" style="font-size:30px;font-family:ArialMT,Arial;isolation:isolate;stroke-width:1.88866" transform="translate(561.731 287.03)">Name/Nom</text></g><g id="tobias.hauser_sbb.ch" data-name="tobias.hauser sbb.ch" style="stroke-width:1.88866" transform="translate(0 6.057)"><g id="g2325" style="opacity:1;isolation:isolate;stroke-width:1.88866"><text id="text2323" style="font-size:30px;font-family:ArialMT,Arial;isolation:isolate;stroke-width:1.88866" transform="translate(561.731 321.456)">***publisher***</text></g></g><g id="Gruppe_15" data-name="Gruppe 15" style="opacity:.99;stroke-width:1.88866" transform="translate(0 80.077)"><path id="Rechteck_42" d="M91.221 988.963h473.98v66.001H91.221Z" data-name="Rechteck 42" style="fill:#9cbfdb;stroke-width:1.88866"/><path id="Linie_1" d="M113.277 1001.755H234.61" data-name="Linie 1" style="fill:none;stroke:#000;stroke-width:1.88866;stroke-miterlimit:10"/><path id="Linie_2" d="M242.907 1001.755h120" data-name="Linie 2" style="fill:none;stroke:#000;stroke-width:1.88866;stroke-miterlimit:10"/><path id="Linie_3" d="M372.24 1001.755h120.228" data-name="Linie 3" style="fill:none;stroke:#000;stroke-width:1.88866;stroke-miterlimit:10"/><g id="_0" data-name="0" style="stroke-width:1.88866"><text id="text2332" style="font-size:30px;font-family:ArialMT,Arial;isolation:isolate;stroke-width:1.88866" transform="translate(105.221 1038.732)">0</text></g><g id="_10" data-name="10" style="stroke-width:1.88866"><text id="text2335" style="font-size:30px;font-family:ArialMT,Arial;letter-spacing:-.05em;isolation:isolate;stroke-width:1.88866" transform="translate(224.1 1038.73)">10</text></g><g id="_20" data-name="20" style="stroke-width:1.88866"><text id="text2340" style="font-size:30px;font-family:ArialMT,Arial;isolation:isolate;stroke-width:1.88866" transform="translate(348.956 1038.73)">20</text></g><g id="_30_km" data-name="30 km" style="stroke-width:1.88866"><text id="text2343" style="font-size:30px;font-family:ArialMT,Arial;isolation:isolate;stroke-width:1.88866" transform="translate(473.241 1038.73)">30 km</text></g></g><g id="Stand_Etat" data-name="Stand Etat" style="opacity:1;stroke-width:1.88866" transform="translate(0 2.019)"><text id="text2347" style="font-size:30px;font-family:ArialMT,Arial;isolation:isolate;stroke-width:1.88866" transform="translate(102.922 287.03)">Stand/Etat</text></g><g id="_12.2020" data-name="12.202" style="opacity:1;stroke-width:1.88866" transform="translate(0 6.057)"><text id="text2350" style="font-size:30px;font-family:ArialMT,Arial;isolation:isolate;stroke-width:1.88866" transform="translate(102.922 321.457)">***publishedAt***</text></g><g id="layer1-4" style="stroke-width:1.88866"><g id="q10" style="stroke-width:1.88866"><g id="g2871" style="stroke-width:1.88866"><g id="q11" style="stroke-width:1.88866"><g id="g2366" clip-path="url(#clip-path)" style="stroke-width:1.88866"><g id="Gruppe_16" data-name="Gruppe 16" style="stroke-width:1.88866"><g id="g2877" style="stroke-width:1.88866"><path id="path2879" d="M3948.48 150.438h154.313V99.001H3948.48Z" style="fill:#e42328;stroke-width:1.88866"/><path id="path2881" d="M4039.314 120.783h16.684v-13.21h7.86v13.21h16.684l-13.423-13.21h9.96l17.147 17.147-17.146 17.145h-9.968l13.423-13.209h-16.677v13.21h-7.86v-13.21h-16.684l13.422 13.21h-9.954l-17.146-17.146 17.146-17.145h9.956" style="fill:#fff;stroke-width:1.88866"/><path id="path2883" d="M4118.717 131.624c-.1 8.876 7.362 12.81 15.327 12.81 9.783 0 14.978-4.94 14.978-11.549 0-8.164-8.067-9.829-10.691-10.48-9.026-2.322-10.737-2.676-10.737-5.446 0-3.025 2.92-4.082 5.446-4.082 3.783 0 6.86 1.107 7.109 5.447h7.666c0-8.32-6.909-11.594-14.42-11.594-6.505 0-13.463 3.53-13.463 10.893 0 6.757 5.394 8.825 10.742 10.234 5.294 1.41 10.686 2.068 10.686 5.946 0 3.683-4.236 4.49-7.008 4.49-4.237 0-7.965-1.869-7.965-6.658" style="fill:#221e20;stroke-width:1.88866"/><path id="path2885" d="M4161.82 113.73h7.412c2.82 0 5.446.702 5.446 4.132 0 3.025-2.068 4.286-4.84 4.286h-8.018zm-7.915 29.846h17.443c6.505 0 12.71-3.126 12.71-10.438 0-4.486-2.223-7.865-6.61-9.126a7.894 7.894 0 0 0 4.896-7.515c0-6.704-4.64-8.922-11.499-8.922h-16.94zm7.915-16.035h8.618c3.378 0 5.697 1.465 5.697 5.144 0 3.729-2.721 4.74-5.846 4.74h-8.469" style="fill:#221e20;fill-rule:evenodd;stroke-width:1.88866"/><path id="path2887" d="M4197.25 113.73h7.412c2.82 0 5.446.702 5.446 4.132 0 3.025-2.068 4.286-4.84 4.286h-8.018zm-7.914 29.846h17.442c6.505 0 12.705-3.126 12.705-10.438 0-4.486-2.217-7.865-6.604-9.126a7.896 7.896 0 0 0 4.89-7.515c0-6.704-4.636-8.922-11.494-8.922h-16.94zm7.92-16.035h8.617c3.378 0 5.698 1.465 5.698 5.144 0 3.729-2.721 4.74-5.847 4.74h-8.468" style="fill:#221e20;fill-rule:evenodd;stroke-width:1.88866"/><path id="path2889" d="M4269.766 119.676c-.957-8.32-7.612-12.955-15.527-12.955-11.145 0-17.695 8.319-17.695 19.006 0 10.387 6.55 18.706 17.695 18.706 8.824 0 15.023-5.747 15.83-14.724h-7.667c-.603 4.74-3.325 8.066-8.164 8.066-7.108 0-9.784-6.05-9.784-12.052 0-6.3 2.677-12.35 9.784-12.35 3.93 0 7.362 2.721 7.865 6.3" style="fill:#221e20;stroke-width:1.88866"/><path id="path2891" d="M4274.943 143.576h7.915v-14.874h15.077v-6.15h-15.077v-8.32h17.394v-6.653h-25.31" style="fill:#221e20;stroke-width:1.88866"/><path id="path2893" d="M4305.065 143.576h7.893v-14.874h15.059v-6.15h-15.065v-8.32h17.374v-6.653h-25.261" style="fill:#221e20;stroke-width:1.88866"/><path id="path2895" d="M4347.472 143.576h7.935v-14.874h15.06v-6.15h-15.06v-8.32h17.374v-6.653h-25.309" style="fill:#221e20;stroke-width:1.88866"/><path id="path2897" d="M4378.545 143.576h7.893v-14.874h15.058v-6.15h-15.059v-8.32h17.418v-6.653h-25.31" style="fill:#221e20;stroke-width:1.88866"/><path id="path2899" d="M4406.757 131.624c-.09 8.876 7.348 12.81 15.331 12.81 9.798 0 14.969-4.94 14.969-11.549 0-8.164-8.074-9.829-10.66-10.48-9.026-2.322-10.75-2.676-10.75-5.446 0-3.025 2.903-4.082 5.447-4.082 3.764 0 6.85 1.107 7.12 5.447h7.621c0-8.32-6.894-11.594-14.379-11.594-6.531 0-13.471 3.53-13.471 10.893 0 6.757 5.397 8.825 10.75 10.234 5.262 1.41 10.66 2.068 10.66 5.946 0 3.683-4.22 4.49-6.986 4.49-4.264 0-7.983-1.869-7.983-6.658" style="fill:#221e20;stroke-width:1.88866"/></g></g></g></g></g></g></g><g id="Gruppe_17" data-name="Gruppe 17" style="stroke-width:1.88866"><path id="Rechteck_7" d="M101.721 2569.521h73.599v37.086h-73.599z" data-name="Rechteck 7" style="fill:#b2ddc2;stroke:#fff;stroke-width:1.88866;stroke-miterlimit:10"/><g id="Tarifverbund_OSTWIND" data-name="Tarifverbund OSTWIND" style="stroke-width:1.88866"><text id="text2377" style="font-size:30px;font-family:ArialMT,Arial;isolation:isolate;stroke-width:1.88866" transform="translate(203.272 2598.043)">Tarifverbund OSTWIND</text></g></g><g id="Gruppe_18" data-name="Gruppe 18" style="opacity:.99;stroke-width:1.88866"><path id="Rechteck_44" d="M91.721 2627.064h894.018v50H91.721Z" data-name="Rechteck 44" style="fill:#9cbfdb;stroke-width:2.20647"/><path id="Rechteck_8" d="M101.721 2634.963h74.636v37.609h-74.636z" data-name="Rechteck 8" style="fill:#f49ec3;stroke:#fff;stroke-width:1.88866;stroke-miterlimit:10"/><g id="Tarifverbund_Luzern_Obwalden_Nidwalden_Passepartout_" data-name="Tarifverbund Luzern Obwalden Nidwalden Passepartout" style="stroke-width:1.88866"><text id="text2387" style="font-size:30px;font-family:ArialMT,Arial;isolation:isolate;stroke-width:1.88866" transform="translate(203.272 2663.372)">Tarifverbund Luzern, Obwalden, Nidwalden (Passepartout)</text></g></g><g id="Gruppe_19" data-name="Gruppe 19" style="opacity:.99;stroke-width:1.88866"><path id="Rechteck_45" d="M91.721 2693.064h398.311v50H91.721Z" data-name="Rechteck 45" style="fill:#9cbfdb;stroke-width:1.88866"/><path id="Rechteck_9" d="M101.721 2699.691h74.636v37.609h-74.636z" data-name="Rechteck 9" style="fill:#89b5e4;stroke:#fff;stroke-width:1.88866;stroke-miterlimit:10"/><g id="Tarifverbund_Schwyz" data-name="Tarifverbund Schwyz" style="stroke-width:1.88866"><text id="text2397" style="font-size:30px;font-family:ArialMT,Arial;isolation:isolate;stroke-width:1.88866" transform="translate(204.272 2728.04)">Tarifverbund Schwyz</text></g></g><g id="Gruppe_20" data-name="Gruppe 20" style="opacity:.99;stroke-width:1.88866"><path id="Rechteck_46" d="M91.721 2756.064h347.104v50H91.721Z" data-name="Rechteck 46" style="fill:#9cbfdb;stroke-width:1.88866"/><path id="Rechteck_10" d="M101.721 2764.03h74.636v37.609h-74.636z" data-name="Rechteck 10" style="fill:#d59241;stroke:#fff;stroke-width:1.88866;stroke-miterlimit:10"/><g id="Tarifverbund_Zug" data-name="Tarifverbund Zug" style="stroke-width:1.88866"><text id="text2407" style="font-size:30px;font-family:ArialMT,Arial;isolation:isolate;stroke-width:1.88866" transform="translate(204.272 2792.483)">Tarifverbund Zug</text></g></g><g id="Gruppe_21" data-name="Gruppe 21" style="opacity:.99;stroke-width:1.88866"><path id="Rechteck_47" d="M91.721 2825.064h623.416v50H91.721Z" data-name="Rechteck 47" style="fill:#9cbfdb;stroke-width:1.88866"/><path id="Rechteck_11" d="M101.721 2830.183h74.636v37.609h-74.636z" data-name="Rechteck 11" style="fill:#2b8fd9;fill-opacity:1;stroke:#fff;stroke-width:1.88866;stroke-miterlimit:10"/><g id="Tarifverbund_Nordwestschweiz_TNW_" data-name="Tarifverbund Nordwestschweiz TNW" style="stroke-width:1.88866"><text id="text2417" style="font-style:normal;font-variant:normal;font-weight:400;font-stretch:normal;font-size:30px;font-family:ArialMT,Arial;-inkscape-font-specification:&quot;ArialMT, Arial, Normal&quot;;font-variant-ligatures:normal;font-variant-caps:normal;font-variant-numeric:normal;font-variant-east-asian:normal;isolation:isolate;stroke-width:1.88866" transform="translate(204.272 2858.928)"><tspan id="tspan1531" x="0" y="0">Léman Pass</tspan></text></g></g><g id="Gruppe_22" data-name="Gruppe 22" style="opacity:.99;stroke-width:1.88866"><path id="Rechteck_48" d="M91.721 2889.064h683.241v50H91.721Z" data-name="Rechteck 48" style="fill:#9cbfdb;stroke-width:1.88866"/><path id="Rechteck_12" d="M101.721 2896.486h74.636v37.609h-74.636z" data-name="Rechteck 12" style="fill:#8fcc93;stroke:#fff;stroke-width:1.88866;stroke-miterlimit:10"/><g id="Communauté_tarifaire_genevoise_unireso_" data-name="Communauté tarifaire genevoise unireso" style="stroke-width:1.88866"><g id="g2425" style="isolation:isolate;stroke-width:1.88866"><text id="text2423" style="font-size:30px;font-family:ArialMT,Arial;isolation:isolate;stroke-width:1.88866" transform="translate(204.272 2922.594)">Communauté tarifaire genevoise (unireso)</text></g></g></g><g id="Gruppe_23" data-name="Gruppe 23" style="opacity:.99;stroke-width:1.88866"><path id="Rechteck_49" d="M91.721 2958.064h735.461v50H91.721Z" data-name="Rechteck 49" style="fill:#9cbfdb;stroke-width:1.88866"/><path id="Rechteck_13" d="M101.721 2961.516h74.636v37.609h-74.636z" data-name="Rechteck 13" style="fill:#4ac4f5;stroke:#fff;stroke-width:1.4165px;stroke-miterlimit:10"/><g id="Communauté_tarifaire_jurassienne_Vagabond_" data-name="Communauté tarifaire jurassienne Vagabond" style="stroke-width:1.88866"><g id="g2437" style="isolation:isolate;stroke-width:1.88866"><text id="text2435" style="font-size:30px;font-family:ArialMT,Arial;isolation:isolate;stroke-width:1.88866" transform="translate(204.272 2990.261)">Communauté tarifaire jurassienne (Vagabond)</text></g></g></g><g id="Gruppe_24" data-name="Gruppe 24" style="opacity:.99;stroke-width:1.88866"><path id="Rechteck_50" d="M91.721 3019.064h510.718v50H91.721Z" data-name="Rechteck 50" style="fill:#9cbfdb;stroke-width:1.92555"/><path id="Rechteck_14" d="M101.721 3026.016h74.636v37.609h-74.636z" data-name="Rechteck 14" style="fill:#fbd80c;stroke:#fff;stroke-width:1.88866;stroke-miterlimit:10"/><g id="Zürcher_Verkehrsbund_ZVV_" data-name="Zürcher Verkehrsbund ZVV" style="stroke-width:1.88866"><text id="text2447" style="font-size:30px;font-family:ArialMT,Arial;isolation:isolate;stroke-width:1.88866" transform="translate(204.272 3054.761)">Zürcher Verkehrsbund (ZVV)</text></g></g><g id="Gruppe_27" data-name="Gruppe 27" style="opacity:.99;stroke-width:1.88866"><path id="Rechteck_51" d="M91.721 3079.064h1003.153v68.819H91.721Z" data-name="Rechteck 51" style="fill:#9cbfdb;stroke-width:1.88866"/><g id="g2456" clip-path="url(#clip-path-2)" style="stroke-width:1.88866"><g id="Gruppe_25" data-name="Gruppe 25" style="stroke-width:1.88866"><path id="Rechteck_15" d="m141.64 3080.923 2.308-2.389 42.221 37.61-2.309 2.39z" data-name="Rechteck 15" style="fill:#e83835;fill-opacity:1;stroke-width:1.88866"/><path id="Rechteck_16" d="m114.677 3090.197 2.309-2.39 45.51 40.541-2.308 2.39z" data-name="Rechteck 16" style="fill:#e83835;fill-opacity:1;stroke-width:1.88866"/><path id="Rechteck_17" d="m89.325 3100.936 2.309-2.39 45.51 40.542-2.308 2.389z" data-name="Rechteck 17" style="fill:#e83835;fill-opacity:1;stroke-width:1.88866"/></g></g><path id="Rechteck_19" d="M101.708 3090.253h74.539v36.066h-74.539z" data-name="Rechteck 19" style="fill:none;stroke:#fff;stroke-width:1.88866;stroke-miterlimit:10"/></g><g id="Gruppe_28" data-name="Gruppe 28" style="stroke-width:1.88866"><path id="Rechteck_20" d="M104.345 402.588h71.599v36.078h-71.599z" data-name="Rechteck 20" style="fill:#8cd5dc;stroke:#fff;stroke-width:1.88866;stroke-miterlimit:10"/><g id="Tarifverbund_A-Welle" data-name="Tarifverbund A-Welle" style="opacity:1;stroke-width:1.88866"><text id="text2473" style="font-size:30px;font-family:ArialMT,Arial;isolation:isolate;stroke-width:1.88866" transform="translate(201.39 431.466)">Tarifverbund A-Welle</text></g></g><g id="Gruppe_29" data-name="Gruppe 29" style="opacity:.99;stroke-width:1.88866"><path id="Rechteck_35" d="M91.221 462.734H902.61v50H91.221Z" data-name="Rechteck 35" style="fill:#9cbfdb;stroke-width:1.88866"/><path id="Rechteck_21" d="M104.345 469.359h72.932v36.75h-72.932z" data-name="Rechteck 21" style="fill:#f89e5f;stroke:#fff;stroke-width:1.88866;stroke-miterlimit:10"/><g id="Communità_tariffale_Ticino_e_Moesano_Aecobaleno_" data-name="Communità tariffale Ticino e Moesano Aecobaleno" style="stroke-width:1.88866"><g id="g2491" style="isolation:isolate;stroke-width:1.88866"><text id="text2489" style="font-size:30px;font-family:ArialMT,Arial;isolation:isolate;stroke-width:1.88866" transform="translate(201.39 497.79)">Communità tarriffale Ticino e Moesano (Arcobaleno)</text></g></g></g><g id="Gruppe_30" data-name="Gruppe 30" style="opacity:.99;stroke-width:1.88866"><path id="Rechteck_36" d="M91.221 527.406h309.611v50H91.221Z" data-name="Rechteck 36" style="fill:#9cbfdb;stroke-width:1.88866"/><path id="Rechteck_22" d="M103.678 534.531h72.932v36.75h-72.932z" data-name="Rechteck 22" style="fill:#f0ea60;stroke:#fff;stroke-width:1.88866;stroke-miterlimit:10"/><g id="Engadin_Mobil" data-name="Engadin Mobil" style="stroke-width:1.88866"><text id="text2499" style="font-size:30px;font-family:ArialMT,Arial;isolation:isolate;stroke-width:1.88866" transform="translate(201.39 563.13)">Engadin Mobil</text></g></g><g id="Gruppe_31" data-name="Gruppe 31" style="opacity:.99;stroke-width:1.88866"><path id="Rechteck_37" d="M91.221 592.403h392.345v50H91.221Z" data-name="Rechteck 37" style="fill:#9cbfdb;stroke-width:1.58104"/><path id="Rechteck_23" d="M103.678 599.028h72.932v36.75h-72.932z" data-name="Rechteck 23" style="fill:#ca68a3;stroke:#fff;stroke-width:1.88866;stroke-miterlimit:10"/><g id="Tarifgemeinschaft_Davos_Klosters" data-name="Tarifgemeinschaft Davos Klosters" style="stroke-width:1.88866"><text id="text2509" style="font-style:normal;font-variant:normal;font-weight:400;font-stretch:normal;font-size:30px;font-family:ArialMT,Arial;-inkscape-font-specification:&quot;ArialMT, Arial, Normal&quot;;font-variant-ligatures:normal;font-variant-caps:normal;font-variant-numeric:normal;font-variant-east-asian:normal;isolation:isolate;stroke-width:1.88866" transform="translate(201.39 627.57)"><tspan id="tspan1107" x="0" y="0">Tarifverbund Davos</tspan></text></g></g><g id="Gruppe_31-1" data-name="Gruppe 31" style="display:inline;opacity:.99;stroke-width:1.88866" transform="translate(0 67.16)"><path id="Rechteck_37-1" d="M91.221 592.403h406.317v50H91.221Z" data-name="Rechteck 37" style="fill:#9cbfdb;stroke-width:1.60895"/><path id="Rechteck_23-0" d="M103.678 599.028h72.932v36.75h-72.932z" data-name="Rechteck 23" style="fill:#a78fef;fill-opacity:1;stroke:#fff;stroke-width:1.88866;stroke-miterlimit:10"/><g id="Tarifgemeinschaft_Davos_Klosters-8" data-name="Tarifgemeinschaft Davos Klosters" style="stroke-width:1.88866"><text id="text2509-5" style="font-style:normal;font-variant:normal;font-weight:400;font-stretch:normal;font-size:30px;font-family:ArialMT,Arial;-inkscape-font-specification:&quot;ArialMT, Arial, Normal&quot;;font-variant-ligatures:normal;font-variant-caps:normal;font-variant-numeric:normal;font-variant-east-asian:normal;isolation:isolate;stroke-width:1.88866" transform="translate(201.39 627.57)"><tspan id="tspan1107-0" x="0" y="0">Tarifverbund Klosters</tspan></text></g></g><g id="Gruppe_32" data-name="Gruppe 32" style="opacity:.99;stroke-width:1.88866" transform="translate(0 72.45)"><path id="Rechteck_38" d="M91.221 644.739h740.278v76H91.221Z" data-name="Rechteck 38" style="fill:#9cbfdb;stroke-width:1.88866"/><path id="Rechteck_24" d="M103.678 663.563h72.932v36.75h-72.932z" data-name="Rechteck 24" style="fill:#92c0d8;stroke:#fff;stroke-width:1.88866;stroke-miterlimit:10"/><g id="Communautés_tarifaire_fribourgeoise_Frimobil_" data-name="Communautés tarifaire fribourgeoise Frimobil" style="stroke-width:1.88866"><g id="g2517" style="isolation:isolate;stroke-width:1.88866"><text id="text2515" style="font-size:30px;font-family:ArialMT,Arial;isolation:isolate;stroke-width:1.88866" transform="translate(201.39 678.38)">Communauté tarifaire fribourgeoise (Frimobil)</text></g></g><g id="Tarifverbund_Freiburg_Frimobil_" data-name="Tarifverbund Freiburg Frimobil" style="stroke-width:1.88866"><text id="text2524" style="font-size:30px;font-family:ArialMT,Arial;isolation:isolate;stroke-width:1.88866" transform="translate(201.39 707.481)">Tarifverbund Freiburg (Frimobil)</text></g></g><g id="Gruppe_33" data-name="Gruppe 33" style="opacity:.99;stroke-width:1.88866" transform="translate(0 72.45)"><path id="Rechteck_39" d="M91.243 722.073h490.822v50H91.243Z" data-name="Rechteck 39" style="fill:#9cbfdb;stroke-width:1.88866"/><path id="Rechteck_25" d="M102.011 728.53h73.599v37.086h-73.599z" data-name="Rechteck 25" style="fill:#ffc439;stroke:#fff;stroke-width:1.88866;stroke-miterlimit:10"/><g id="Libero-Tarifverbund_Libero_" data-name="Libero-Tarifverbund Libero" style="stroke-width:1.88866"><text id="text2534" style="font-size:30px;font-family:ArialMT,Arial;isolation:isolate;stroke-width:1.88866" transform="translate(200.39 756.467)">Libero-Tarifverbund (Libero)</text></g></g><g id="Gruppe_34" data-name="Gruppe 34" style="opacity:.99;stroke-width:1.88866" transform="translate(0 72.45)"><path id="Rechteck_40" d="M91.221 787.073h660.722v50H91.221Z" data-name="Rechteck 40" style="fill:#9cbfdb;stroke-width:1.88866"/><path id="Rechteck_26" d="M103.011 793.53h73.599v37.086h-73.599z" data-name="Rechteck 26" style="fill:#d1b673;stroke:#fff;stroke-width:1.88866;stroke-miterlimit:10"/><g id="Communauté_tarifaire_vaudoise_Mobilis_" data-name="Communauté tarifaire vaudoise Mobilis" style="stroke-width:1.88866"><g id="g2542" style="isolation:isolate;stroke-width:1.88866"><text id="text2540" style="font-size:30px;font-family:ArialMT,Arial;isolation:isolate;stroke-width:1.88866" transform="translate(201.39 822.13)">Communauté tarifaire vaudoise (Mobilis)</text></g></g></g><g id="Gruppe_35" data-name="Gruppe 35" style="opacity:.99;stroke-width:1.88866" transform="translate(0 72.45)"><path id="Rechteck_41" d="M91.221 850.073h779.833v59.98H91.221Z" data-name="Rechteck 41" style="fill:#9cbfdb;stroke-width:1.88866"/><path id="Rechteck_27" d="M103.011 856.53h73.599v37.086h-73.599z" data-name="Rechteck 27" style="fill:#bf9394;stroke:#fff;stroke-width:1.88866;stroke-miterlimit:10"/><g id="Communauté_tarifaire_neuchâteloise_Onde_Verte_" data-name="Communauté tarifaire neuchâteloise Onde Verte" style="stroke-width:1.88866"><g id="g2554" style="isolation:isolate;stroke-width:1.88866"><text id="text2552" style="font-size:30px;font-family:ArialMT,Arial;isolation:isolate;stroke-width:1.88866" transform="translate(201.39 886.396)">Communauté tarifaire neuchâteloise (Onde Verte)</text></g></g></g><g id="Zürcher_Verkehrsbund_ZVV_2" data-name="Zürcher Verkehrsbund ZVV" style="stroke-width:1.88866"><text id="text2562" style="font-size:30px;font-family:ArialMT,Arial;isolation:isolate;stroke-width:1.88866" transform="translate(204.272 3120.064)">Tarifverbund für den Wirtschafts- und Lebensraum Zürich (Z-Pass)</text></g><path id="rect2565" d="M0 0h4538.443v3209H0Z" style="fill:none;stroke-width:1.88866"/><path id="Rechteck_43-2" d="M91.721 2427.174h638.032v66.372H91.72Z" data-name="Rechteck 43" style="opacity:.99;fill:#9cbfdb;stroke-width:2.37447"/><g id="Gruppe_17-3" data-name="Gruppe 17" style="stroke-width:1.88866" transform="translate(0 -64.133)"><path id="Rechteck_7-4" d="M101.721 2569.521h73.599v37.086h-73.599z" data-name="Rechteck 7" style="fill:#e16153;fill-opacity:1;stroke:#fff;stroke-width:1.88866;stroke-miterlimit:10"/><g id="Tarifverbund_transreno-5" data-name="Tarifverbund transreno" style="stroke-width:1.88866"><text id="text2377-1" style="font-size:30px;font-family:ArialMT,Arial;isolation:isolate;stroke-width:1.88866" transform="translate(203.272 2598.043)">Tarifverbund Transreno</text></g></g><g id="Gruppe_17-3-0" data-name="Gruppe 17" style="display:inline;stroke-width:1.88866" transform="translate(0 -127.911)"><path id="Rechteck_7-4-9" d="M101.721 2569.521h73.599v37.086h-73.599z" data-name="Rechteck 7" style="fill:#cad320;fill-opacity:1;stroke:#fff;stroke-width:1.88866;stroke-miterlimit:10"/><g id="Tarifverbund_transreno-5-2" data-name="Tarifverbund transreno" style="stroke-width:1.88866"><text id="text2377-1-5" style="font-style:normal;font-variant:normal;font-weight:400;font-stretch:normal;font-size:30px;font-family:ArialMT,Arial;-inkscape-font-specification:&quot;ArialMT, Arial, Normal&quot;;font-variant-ligatures:normal;font-variant-caps:normal;font-variant-numeric:normal;font-variant-east-asian:normal;isolation:isolate;stroke-width:1.88866" transform="translate(203.272 2598.043)"><tspan id="tspan1282" x="0" y="0">Tarifverbund Nordwestschweiz (TNW)</tspan></text></g></g></g><g id="Gruppe_360" data-name="Gruppe 360" transform="rotate(-90 991.5 -171.5)"><text id="text1948" style="font-weight:700;font-size:7px;font-family:Arial-BoldMT,Arial">SBB-Personenverkehr-Verbund-S-***year***</text></g><g id="Gruppe_361" data-name="Gruppe 361" transform="rotate(-90 921.488 -241.512)"><text id="text1951" style="font-size:6px;font-family:ArialMT,Arial">Quelle: Bundesamt für Statistik (BFS), GEOSTAT Generalisierte Gemeindegrenzen © SBB/CFF/FFS www.traﬁmage.ch www.geops.ch</text></g></g></g></svg>