<?xml version="1.0" encoding="UTF-8"?>
<svg id="a4" xmlns="http://www.w3.org/2000/svg" width="297mm" height="210mm" viewBox="0 0 841.88976 595.27559">
  <rect width="841.88976" height="595.27559" style="fill: none; stroke-width: 0px;"/>
  <g id="rand">
    <path id="rect1034" d="M17.00789,549.40027h660.3364c1.09587,0,1.98425.88838,1.98425,1.98425v24.89894c0,1.09587-.88838,1.98425-1.98425,1.98425H17.00789v-28.86744Z" style="fill: #fff; stroke-width: 0px;"/>
    <text transform="translate(69.63961 566.3068) scale(1.1178 1)" style="font-family: SBBWeb-Roman,'SBB Web',Arial, &apos;SBB Web&apos;; font-size: 5px; isolation: isolate;"><tspan x="0" y="0" style="letter-spacing: -.00585em;">A</tspan><tspan x="3.21065" y="0" style="letter-spacing: -.00009em;">uf g</tspan><tspan x="11.72607" y="0" style="letter-spacing: -.01415em;">e</tspan><tspan x="14.34089" y="0" style="letter-spacing: -.00734em;">w</tspan><tspan x="18.0932" y="0">i</tspan><tspan x="19.20404" y="0" style="letter-spacing: .00489em;">s</tspan><tspan x="21.72844" y="0">sen </tspan><tspan x="31.08388" y="0" style="letter-spacing: -.00585em;">A</tspan><tspan x="34.29452" y="0" style="letter-spacing: -.00009em;">u</tspan><tspan x="37.0749" y="0" style="letter-spacing: -.02245em;">t</tspan><tspan x="38.53738" y="0">obuslinien i</tspan><tspan x="63.73289" y="0" style="letter-spacing: -.00542em;">s</tspan><tspan x="66.20574" y="0">t ein Zus</tspan><tspan x="85.47094" y="0" style="letter-spacing: -.00341em;">c</tspan><tspan x="88.13949" y="0">hl</tspan><tspan x="92.03115" y="0" style="letter-spacing: -.00393em;">a</tspan><tspan x="94.69708" y="0" style="letter-spacing: -.00009em;">g und/oder eine </tspan><tspan x="131.37403" y="0" style="letter-spacing: -.01564em;">P</tspan><tspan x="134.53576" y="0">l</tspan><tspan x="135.6466" y="0" style="letter-spacing: -.00882em;">a</tspan><tspan x="138.28807" y="0" style="letter-spacing: .01022em;">t</tspan><tspan x="139.91392" y="0">z</tspan><tspan x="142.31382" y="0" style="letter-spacing: -.01415em;">r</tspan><tspan x="143.90823" y="0" style="letter-spacing: .00437em;">e</tspan><tspan x="146.61566" y="0">se</tspan><tspan x="151.80118" y="0" style="letter-spacing: .02778em;">r</tspan><tspan x="153.60526" y="0" style="letter-spacing: -.00585em;">v</tspan><tspan x="156.07593" y="0">ie</tspan><tspan x="159.87236" y="0" style="letter-spacing: .00489em;">r</tspan><tspan x="161.56199" y="0">u</tspan><tspan x="164.3428" y="0" style="letter-spacing: -.00245em;">n</tspan><tspan x="167.11138" y="0" style="letter-spacing: -.00009em;">g e</tspan><tspan x="174.05687" y="0" style="letter-spacing: .03023em;">r</tspan><tspan x="175.87318" y="0" style="letter-spacing: -.01852em;">f</tspan><tspan x="177.26009" y="0">o</tspan><tspan x="180.13133" y="0" style="letter-spacing: -.00978em;">r</tspan><tspan x="181.74757" y="0">de</tspan><tspan x="187.397" y="0" style="letter-spacing: .00192em;">r</tspan><tspan x="189.07178" y="0" style="letter-spacing: -.00009em;">li</tspan><tspan x="191.29302" y="0" style="letter-spacing: -.00341em;">c</tspan><tspan x="193.96157" y="0">h. Bi</tspan><tspan x="204.05699" y="0" style="letter-spacing: .01608em;">t</tspan><tspan x="205.71211" y="0" style="letter-spacing: -.02053em;">t</tspan><tspan x="207.1842" y="0">e b</tspan><tspan x="214.22273" y="0" style="letter-spacing: .00245em;">e</tspan><tspan x="216.92055" y="0">a</tspan><tspan x="219.60613" y="0" style="letter-spacing: -.00341em;">c</tspan><tspan x="222.27468" y="0">h</tspan><tspan x="225.0555" y="0" style="letter-spacing: -.02053em;">t</tspan><tspan x="226.52759" y="0">en </tspan><tspan x="233.38309" y="0" style="letter-spacing: -.00201em;">S</tspan><tspan x="236.61296" y="0">ie </tspan><tspan x="241.79848" y="0" style="letter-spacing: -.01162em;">z</tspan><tspan x="244.13985" y="0" style="letter-spacing: -.00009em;">udem, </tspan><tspan x="259.61343" y="0" style="letter-spacing: -.00594em;">d</tspan><tspan x="262.548" y="0">a</tspan><tspan x="265.23359" y="0" style="letter-spacing: .00472em;">s</tspan><tspan x="267.75755" y="0">s </tspan><tspan x="271.64702" y="0" style="letter-spacing: -.02306em;">v</tspan><tspan x="274.03207" y="0">om 21. Mä</tspan><tspan x="297.93851" y="0" style="letter-spacing: .01555em;">r</tspan><tspan x="299.68144" y="0">z bis </tspan><tspan x="311.43459" y="0" style="letter-spacing: -.01171em;">z</tspan><tspan x="313.77596" y="0">um 31. O</tspan><tspan x="334.34945" y="0" style="letter-spacing: .01992em;">k</tspan><tspan x="337.04464" y="0" style="letter-spacing: -.02237em;">t</tspan><tspan x="338.50713" y="0">ober für </tspan><tspan x="357.39098" y="0" style="letter-spacing: -.04386em;">V</tspan><tspan x="360.22596" y="0" style="letter-spacing: .00245em;">e</tspan><tspan x="362.92378" y="0">los in In</tspan><tspan x="380.15032" y="0" style="letter-spacing: -.02044em;">t</tspan><tspan x="381.62241" y="0">erCi</tspan><tspan x="390.69435" y="0" style="letter-spacing: .01573em;">t</tspan><tspan x="392.34729" y="0" style="letter-spacing: -.00017em;">y (IC)</tspan><tspan x="403.72914" y="0" style="letter-spacing: -.04438em;">-</tspan><tspan x="405.45285" y="0">Zü</tspan><tspan x="411.28793" y="0" style="letter-spacing: -.00105em;">g</tspan><tspan x="414.15349" y="0">en eine </tspan><tspan x="431.66134" y="0" style="letter-spacing: -.04403em;">V</tspan><tspan x="434.49545" y="0" style="letter-spacing: .00245em;">e</tspan><tspan x="437.19327" y="0">lopl</tspan><tspan x="445.25003" y="0" style="letter-spacing: -.00891em;">a</tspan><tspan x="447.89106" y="0" style="letter-spacing: .01048em;">t</tspan><tspan x="449.51779" y="0" style="letter-spacing: -.00017em;">z</tspan><tspan x="451.91682" y="0" style="letter-spacing: -.01415em;">r</tspan><tspan x="453.51122" y="0" style="letter-spacing: .00437em;">e</tspan><tspan x="456.21865" y="0">se</tspan><tspan x="461.40461" y="0" style="letter-spacing: .02778em;">r</tspan><tspan x="463.20869" y="0" style="letter-spacing: -.02114em;">v</tspan><tspan x="465.60335" y="0" style="letter-spacing: -.00874em;">a</tspan><tspan x="468.24526" y="0" style="letter-spacing: -.01258em;">t</tspan><tspan x="469.75666" y="0">ion obl</tspan><tspan x="484.85414" y="0" style="letter-spacing: -.0014em;">i</tspan><tspan x="485.95755" y="0" style="letter-spacing: -.00384em;">g</tspan><tspan x="488.80913" y="0" style="letter-spacing: -.00874em;">a</tspan><tspan x="491.45103" y="0" style="letter-spacing: -.02237em;">t</tspan><tspan x="492.91352" y="0">o</tspan><tspan x="495.78432" y="0" style="letter-spacing: .00192em;">r</tspan><tspan x="497.4591" y="0">is</tspan><tspan x="501.06987" y="0" style="letter-spacing: -.00349em;">c</tspan><tspan x="503.73799" y="0">h i</tspan><tspan x="509.01918" y="0" style="letter-spacing: -.00542em;">s</tspan><tspan x="511.49247" y="0" style="letter-spacing: -.00926em;">t</tspan><tspan x="513.02047" y="0">.</tspan><tspan x="0" y="7.5">Bi</tspan><tspan x="4.53597" y="7.5" style="letter-spacing: .01616em;">t</tspan><tspan x="6.19153" y="7.5" style="letter-spacing: -.02053em;">t</tspan><tspan x="7.66362" y="7.5">e b</tspan><tspan x="14.70215" y="7.5" style="letter-spacing: .00245em;">e</tspan><tspan x="17.39996" y="7.5">a</tspan><tspan x="20.08555" y="7.5" style="letter-spacing: -.00349em;">c</tspan><tspan x="22.75367" y="7.5">h</tspan><tspan x="25.53448" y="7.5" style="letter-spacing: -.02053em;">t</tspan><tspan x="27.00657" y="7.5">en </tspan><tspan x="33.86207" y="7.5" style="letter-spacing: -.00192em;">S</tspan><tspan x="37.09237" y="7.5" style="letter-spacing: -.00009em;">ie die Hi</tspan><tspan x="55.14888" y="7.5" style="letter-spacing: -.01861em;">n</tspan><tspan x="57.83665" y="7.5" style="letter-spacing: -.01704em;">w</tspan><tspan x="61.54048" y="7.5" style="letter-spacing: -.00009em;">eise </tspan><tspan x="71.91152" y="7.5" style="letter-spacing: -.00105em;">f</tspan><tspan x="73.3858" y="7.5">ür die </tspan><tspan x="87.37025" y="7.5" style="letter-spacing: -.00105em;">g</tspan><tspan x="90.23624" y="7.5" style="letter-spacing: -.01415em;">e</tspan><tspan x="92.85106" y="7.5" style="letter-spacing: -.00384em;">w</tspan><tspan x="96.62084" y="7.5">üns</tspan><tspan x="104.68241" y="7.5" style="letter-spacing: -.00349em;">c</tspan><tspan x="107.35052" y="7.5">h</tspan><tspan x="110.13134" y="7.5" style="letter-spacing: -.02053em;">t</tspan><tspan x="111.60343" y="7.5">e </tspan><tspan x="115.67811" y="7.5" style="letter-spacing: -.04394em;">V</tspan><tspan x="118.51266" y="7.5">e</tspan><tspan x="121.19825" y="7.5" style="letter-spacing: .00245em;">r</tspan><tspan x="122.87564" y="7.5">bindu</tspan><tspan x="135.4758" y="7.5" style="letter-spacing: -.00245em;">n</tspan><tspan x="138.24438" y="7.5" style="letter-spacing: -.00009em;">g im (Onlin</tspan><tspan x="162.14558" y="7.5" style="letter-spacing: .00778em;">e</tspan><tspan x="164.87005" y="7.5">-)</tspan><tspan x="168.10996" y="7.5" style="letter-spacing: -.02691em;">F</tspan><tspan x="170.84666" y="7.5">ah</tspan><tspan x="176.31306" y="7.5" style="letter-spacing: .00288em;">r</tspan><tspan x="177.99264" y="7.5">plan. </tspan><tspan x="190.31192" y="7.5" style="letter-spacing: -.00594em;">A</tspan><tspan x="193.52213" y="7.5">us </tspan><tspan x="200.19198" y="7.5" style="letter-spacing: -.01564em;">P</tspan><tspan x="203.3537" y="7.5">l</tspan><tspan x="204.46454" y="7.5" style="letter-spacing: -.00882em;">a</tspan><tspan x="207.10601" y="7.5" style="letter-spacing: .01031em;">t</tspan><tspan x="208.7323" y="7.5">zg</tspan><tspan x="214.00563" y="7.5" style="letter-spacing: .00481em;">r</tspan><tspan x="215.69482" y="7.5">ünden sin</tspan><tspan x="237.46738" y="7.5" style="letter-spacing: -.01118em;">d</tspan><tspan x="240.37531" y="7.5">, je na</tspan><tspan x="253.80543" y="7.5" style="letter-spacing: -.00349em;">c</tspan><tspan x="256.47354" y="7.5">h </tspan><tspan x="260.64345" y="7.5" style="letter-spacing: -.01276em;">Z</tspan><tspan x="263.63394" y="7.5" style="letter-spacing: .00017em;">oom</tspan><tspan x="273.64155" y="7.5" style="letter-spacing: -.00542em;">s</tspan><tspan x="276.11485" y="7.5" style="letter-spacing: -.00978em;">t</tspan><tspan x="277.64023" y="7.5">u</tspan><tspan x="280.42105" y="7.5" style="letter-spacing: -.01887em;">f</tspan><tspan x="281.80577" y="7.5" style="letter-spacing: -.00839em;">e</tspan><tspan x="284.44943" y="7.5">, ni</tspan><tspan x="291.11971" y="7.5" style="letter-spacing: -.00349em;">c</tspan><tspan x="293.78782" y="7.5">ht alle Linien a</tspan><tspan x="325.83839" y="7.5" style="letter-spacing: -.00245em;">n</tspan><tspan x="328.60697" y="7.5" style="letter-spacing: -.00087em;">g</tspan><tspan x="331.4734" y="7.5" style="letter-spacing: .00629em;">e</tspan><tspan x="334.19044" y="7.5" style="letter-spacing: -.00087em;">g</tspan><tspan x="337.05687" y="7.5" style="letter-spacing: .00297em;">e</tspan><tspan x="339.75731" y="7.5" style="letter-spacing: -.00017em;">ben. Alle A</tspan><tspan x="363.74151" y="7.5" style="letter-spacing: -.00245em;">n</tspan><tspan x="366.51009" y="7.5" style="letter-spacing: -.00384em;">g</tspan><tspan x="369.36167" y="7.5">aben ohne </tspan><tspan x="394.37327" y="7.5" style="letter-spacing: .00349em;">G</tspan><tspan x="398.18499" y="7.5" style="letter-spacing: .00629em;">e</tspan><tspan x="400.90203" y="7.5" style="letter-spacing: -.00384em;">g</tspan><tspan x="403.75361" y="7.5">äh</tspan><tspan x="409.22001" y="7.5" style="letter-spacing: -.06849em;">r</tspan><tspan x="410.54271" y="7.5">. Ände</tspan><tspan x="424.99106" y="7.5" style="letter-spacing: .00489em;">r</tspan><tspan x="426.68069" y="7.5">u</tspan><tspan x="429.4615" y="7.5" style="letter-spacing: -.00245em;">n</tspan><tspan x="432.23009" y="7.5" style="letter-spacing: -.00087em;">gen </tspan><tspan x="441.95202" y="7.5" style="letter-spacing: -.02306em;">v</tspan><tspan x="444.33707" y="7.5">o</tspan><tspan x="447.20787" y="7.5" style="letter-spacing: .00437em;">r</tspan><tspan x="448.89488" y="7.5">h</tspan><tspan x="451.67569" y="7.5" style="letter-spacing: .00489em;">e</tspan><tspan x="454.38574" y="7.5">hal</tspan><tspan x="460.96255" y="7.5" style="letter-spacing: -.02044em;">t</tspan><tspan x="462.43464" y="7.5">en. </tspan><tspan x="470.67923" y="7.5" style="letter-spacing: -.00332em;">E</tspan><tspan x="473.7169" y="7.5" style="letter-spacing: -.00017em;">s gilt der A</tspan><tspan x="497.60587" y="7.5" style="letter-spacing: -.01852em;">n</tspan><tspan x="500.29408" y="7.5" style="letter-spacing: -.01712em;">w</tspan><tspan x="503.99746" y="7.5">endu</tspan><tspan x="515.20808" y="7.5" style="letter-spacing: -.00245em;">n</tspan><tspan x="517.97666" y="7.5" style="letter-spacing: -.00087em;">gsbe</tspan><tspan x="528.99246" y="7.5" style="letter-spacing: -.01415em;">r</tspan><tspan x="530.58687" y="7.5">ei</tspan><tspan x="534.38286" y="7.5" style="letter-spacing: -.00332em;">c</tspan><tspan x="537.05184" y="7.5" style="letter-spacing: -.00017em;">h.</tspan></text>
    <text transform="translate(69.58907 557.12963)" style="font-family: SBBWeb-Roman,'SBB Web',Arial, &apos;SBB Web&apos;; font-size: 5px; isolation: isolate;"><tspan x="0" y="0" style="letter-spacing: .00684em;">Q</tspan><tspan x="3.83301" y="0" style="letter-spacing: -.0002em;">u</tspan><tspan x="6.61328" y="0" style="letter-spacing: .00254em;">e</tspan><tspan x="9.31152" y="0" style="letter-spacing: -.0002em;">ll</tspan><tspan x="11.5332" y="0" style="letter-spacing: .01992em;">e</tspan><tspan x="14.31836" y="0" style="letter-spacing: .0002em;">: OpenS</tspan><tspan x="32.56641" y="0" style="letter-spacing: -.0082em;">t</tspan><tspan x="34.09961" y="0" style="letter-spacing: -.01426em;">r</tspan><tspan x="35.69336" y="0">e</tspan><tspan x="38.37891" y="0" style="letter-spacing: -.00781em;">e</tspan><tspan x="41.02539" y="0" style="letter-spacing: -.0002em;">tMap con</tspan><tspan x="62.32617" y="0" style="letter-spacing: -.0082em;">t</tspan><tspan x="63.85938" y="0" style="letter-spacing: .00215em;">r</tspan><tspan x="65.53516" y="0">ibu</tspan><tspan x="72.39062" y="0" style="letter-spacing: -.02246em;">t</tspan><tspan x="73.85254" y="0">o</tspan><tspan x="76.72363" y="0" style="letter-spacing: .00586em;">r</tspan><tspan x="78.41797" y="0" xml:space="preserve">s  © SBB/CFF</tspan><tspan x="110.19336" y="0" style="letter-spacing: .04629em;">/</tspan><tspan x="112.08984" y="0">F</tspan><tspan x="114.96094" y="0" style="letter-spacing: -.01758em;">F</tspan><tspan x="117.74414" y="0" style="letter-spacing: .0002em;">S ww</tspan><tspan x="129.95117" y="0" style="letter-spacing: -.05234em;">w</tspan><tspan x="133.47852" y="0" style="letter-spacing: .0002em;">.</tspan><tspan x="134.86816" y="0" style="letter-spacing: -.0082em;">t</tspan><tspan x="136.40137" y="0" style="letter-spacing: -.00352em;">r</tspan><tspan x="138.04883" y="0">aﬁm</tspan><tspan x="147.58984" y="0" style="letter-spacing: -.00391em;">a</tspan><tspan x="150.25586" y="0" style="letter-spacing: -.00078em;">g</tspan><tspan x="153.12305" y="0" style="letter-spacing: -.00781em;">e</tspan><tspan x="155.76953" y="0">.</tspan><tspan x="157.1582" y="0" style="letter-spacing: -.00352em;">c</tspan><tspan x="159.82617" y="0">h ww</tspan><tspan x="171.57422" y="0" style="letter-spacing: -.05215em;">w</tspan><tspan x="175.10254" y="0" style="letter-spacing: .0002em;">.</tspan><tspan x="176.49219" y="0" style="letter-spacing: -.00117em;">g</tspan><tspan x="179.35742" y="0">eop</tspan><tspan x="187.87891" y="0" style="letter-spacing: -.00254em;">s</tspan><tspan x="190.36621" y="0">.</tspan><tspan x="191.75586" y="0" style="letter-spacing: -.00352em;">c</tspan><tspan x="194.42383" y="0">h</tspan></text>
    <g id="qr-code">
      <rect id="rect23865" x="17.00789" y="527.2441" width="51.02362" height="51.02362" style="fill: #fff; stroke-width: 0px;"/>
      <path id="path23867" d="M18.46571,528.70191h1.45782v1.45782h-1.45782v-1.45782ZM19.92352,528.70191h1.45782v1.45782h-1.45782v-1.45782ZM21.38134,528.70191h1.45782v1.45782h-1.45782v-1.45782ZM22.83916,528.70191h1.45782v1.45782h-1.45782v-1.45782ZM24.29698,528.70191h1.45782v1.45782h-1.45782v-1.45782ZM25.75479,528.70191h1.45782v1.45782h-1.45782v-1.45782ZM27.21261,528.70191h1.45782v1.45782h-1.45782v-1.45782ZM33.04388,528.70191h1.45782v1.45782h-1.45782v-1.45782ZM35.95952,528.70191h1.45782v1.45782h-1.45782v-1.45782ZM41.79079,528.70191h1.45782v1.45782h-1.45782v-1.45782ZM46.16424,528.70191h1.45782v1.45782h-1.45782v-1.45782ZM47.62206,528.70191h1.45782v1.45782h-1.45782v-1.45782ZM49.07988,528.70191h1.45782v1.45782h-1.45782v-1.45782ZM50.5377,528.70191h1.45782v1.45782h-1.45782v-1.45782ZM51.99551,528.70191h1.45782v1.45782h-1.45782v-1.45782ZM56.36897,528.70191h1.45782v1.45782h-1.45782v-1.45782ZM57.82678,528.70191h1.45782v1.45782h-1.45782v-1.45782ZM59.2846,528.70191h1.45782v1.45782h-1.45782v-1.45782ZM60.74242,528.70191h1.45782v1.45782h-1.45782v-1.45782ZM62.20024,528.70191h1.45782v1.45782h-1.45782v-1.45782ZM63.65806,528.70191h1.45782v1.45782h-1.45782v-1.45782ZM65.11587,528.70191h1.45782v1.45782h-1.45782v-1.45782ZM18.46571,530.15973h1.45782v1.45782h-1.45782v-1.45782ZM27.21261,530.15973h1.45782v1.45782h-1.45782v-1.45782ZM30.12825,530.15973h1.45782v1.45782h-1.45782v-1.45782ZM33.04388,530.15973h1.45782v1.45782h-1.45782v-1.45782ZM37.41734,530.15973h1.45782v1.45782h-1.45782v-1.45782ZM40.33297,530.15973h1.45782v1.45782h-1.45782v-1.45782ZM41.79079,530.15973h1.45782v1.45782h-1.45782v-1.45782ZM43.24861,530.15973h1.45782v1.45782h-1.45782v-1.45782ZM44.70642,530.15973h1.45782v1.45782h-1.45782v-1.45782ZM47.62206,530.15973h1.45782v1.45782h-1.45782v-1.45782ZM49.07988,530.15973h1.45782v1.45782h-1.45782v-1.45782ZM50.5377,530.15973h1.45782v1.45782h-1.45782v-1.45782ZM56.36897,530.15973h1.45782v1.45782h-1.45782v-1.45782ZM65.11587,530.15973h1.45782v1.45782h-1.45782v-1.45782ZM18.46571,531.61755h1.45782v1.45782h-1.45782v-1.45782ZM21.38134,531.61755h1.45782v1.45782h-1.45782v-1.45782ZM22.83916,531.61755h1.45782v1.45782h-1.45782v-1.45782ZM24.29698,531.61755h1.45782v1.45782h-1.45782v-1.45782ZM27.21261,531.61755h1.45782v1.45782h-1.45782v-1.45782ZM35.95952,531.61755h1.45782v1.45782h-1.45782v-1.45782ZM46.16424,531.61755h1.45782v1.45782h-1.45782v-1.45782ZM47.62206,531.61755h1.45782v1.45782h-1.45782v-1.45782ZM49.07988,531.61755h1.45782v1.45782h-1.45782v-1.45782ZM56.36897,531.61755h1.45782v1.45782h-1.45782v-1.45782ZM59.2846,531.61755h1.45782v1.45782h-1.45782v-1.45782ZM60.74242,531.61755h1.45782v1.45782h-1.45782v-1.45782ZM62.20024,531.61755h1.45782v1.45782h-1.45782v-1.45782ZM65.11587,531.61755h1.45782v1.45782h-1.45782v-1.45782ZM18.46571,533.07537h1.45782v1.45782h-1.45782v-1.45782ZM21.38134,533.07537h1.45782v1.45782h-1.45782v-1.45782ZM22.83916,533.07537h1.45782v1.45782h-1.45782v-1.45782ZM24.29698,533.07537h1.45782v1.45782h-1.45782v-1.45782ZM27.21261,533.07537h1.45782v1.45782h-1.45782v-1.45782ZM30.12825,533.07537h1.45782v1.45782h-1.45782v-1.45782ZM31.58607,533.07537h1.45782v1.45782h-1.45782v-1.45782ZM33.04388,533.07537h1.45782v1.45782h-1.45782v-1.45782ZM35.95952,533.07537h1.45782v1.45782h-1.45782v-1.45782ZM37.41734,533.07537h1.45782v1.45782h-1.45782v-1.45782ZM38.87515,533.07537h1.45782v1.45782h-1.45782v-1.45782ZM40.33297,533.07537h1.45782v1.45782h-1.45782v-1.45782ZM41.79079,533.07537h1.45782v1.45782h-1.45782v-1.45782ZM43.24861,533.07537h1.45782v1.45782h-1.45782v-1.45782ZM44.70642,533.07537h1.45782v1.45782h-1.45782v-1.45782ZM46.16424,533.07537h1.45782v1.45782h-1.45782v-1.45782ZM50.5377,533.07537h1.45782v1.45782h-1.45782v-1.45782ZM53.45333,533.07537h1.45782v1.45782h-1.45782v-1.45782ZM56.36897,533.07537h1.45782v1.45782h-1.45782v-1.45782ZM59.2846,533.07537h1.45782v1.45782h-1.45782v-1.45782ZM60.74242,533.07537h1.45782v1.45782h-1.45782v-1.45782ZM62.20024,533.07537h1.45782v1.45782h-1.45782v-1.45782ZM65.11587,533.07537h1.45782v1.45782h-1.45782v-1.45782ZM18.46571,534.53319h1.45782v1.45782h-1.45782v-1.45782ZM21.38134,534.53319h1.45782v1.45782h-1.45782v-1.45782ZM22.83916,534.53319h1.45782v1.45782h-1.45782v-1.45782ZM24.29698,534.53319h1.45782v1.45782h-1.45782v-1.45782ZM27.21261,534.53319h1.45782v1.45782h-1.45782v-1.45782ZM31.58607,534.53319h1.45782v1.45782h-1.45782v-1.45782ZM41.79079,534.53319h1.45782v1.45782h-1.45782v-1.45782ZM43.24861,534.53319h1.45782v1.45782h-1.45782v-1.45782ZM44.70642,534.53319h1.45782v1.45782h-1.45782v-1.45782ZM46.16424,534.53319h1.45782v1.45782h-1.45782v-1.45782ZM47.62206,534.53319h1.45782v1.45782h-1.45782v-1.45782ZM49.07988,534.53319h1.45782v1.45782h-1.45782v-1.45782ZM50.5377,534.53319h1.45782v1.45782h-1.45782v-1.45782ZM51.99551,534.53319h1.45782v1.45782h-1.45782v-1.45782ZM56.36897,534.53319h1.45782v1.45782h-1.45782v-1.45782ZM59.2846,534.53319h1.45782v1.45782h-1.45782v-1.45782ZM60.74242,534.53319h1.45782v1.45782h-1.45782v-1.45782ZM62.20024,534.53319h1.45782v1.45782h-1.45782v-1.45782ZM65.11587,534.53319h1.45782v1.45782h-1.45782v-1.45782ZM18.46571,535.991h1.45782v1.45782h-1.45782v-1.45782ZM27.21261,535.991h1.45782v1.45782h-1.45782v-1.45782ZM30.12825,535.991h1.45782v1.45782h-1.45782v-1.45782ZM31.58607,535.991h1.45782v1.45782h-1.45782v-1.45782ZM34.5017,535.991h1.45782v1.45782h-1.45782v-1.45782ZM35.95952,535.991h1.45782v1.45782h-1.45782v-1.45782ZM38.87515,535.991h1.45782v1.45782h-1.45782v-1.45782ZM40.33297,535.991h1.45782v1.45782h-1.45782v-1.45782ZM41.79079,535.991h1.45782v1.45782h-1.45782v-1.45782ZM43.24861,535.991h1.45782v1.45782h-1.45782v-1.45782ZM49.07988,535.991h1.45782v1.45782h-1.45782v-1.45782ZM50.5377,535.991h1.45782v1.45782h-1.45782v-1.45782ZM53.45333,535.991h1.45782v1.45782h-1.45782v-1.45782ZM56.36897,535.991h1.45782v1.45782h-1.45782v-1.45782ZM65.11587,535.991h1.45782v1.45782h-1.45782v-1.45782ZM18.46571,537.44882h1.45782v1.45782h-1.45782v-1.45782ZM19.92352,537.44882h1.45782v1.45782h-1.45782v-1.45782ZM21.38134,537.44882h1.45782v1.45782h-1.45782v-1.45782ZM22.83916,537.44882h1.45782v1.45782h-1.45782v-1.45782ZM24.29698,537.44882h1.45782v1.45782h-1.45782v-1.45782ZM25.75479,537.44882h1.45782v1.45782h-1.45782v-1.45782ZM27.21261,537.44882h1.45782v1.45782h-1.45782v-1.45782ZM30.12825,537.44882h1.45782v1.45782h-1.45782v-1.45782ZM33.04388,537.44882h1.45782v1.45782h-1.45782v-1.45782ZM35.95952,537.44882h1.45782v1.45782h-1.45782v-1.45782ZM38.87515,537.44882h1.45782v1.45782h-1.45782v-1.45782ZM41.79079,537.44882h1.45782v1.45782h-1.45782v-1.45782ZM44.70642,537.44882h1.45782v1.45782h-1.45782v-1.45782ZM47.62206,537.44882h1.45782v1.45782h-1.45782v-1.45782ZM50.5377,537.44882h1.45782v1.45782h-1.45782v-1.45782ZM53.45333,537.44882h1.45782v1.45782h-1.45782v-1.45782ZM56.36897,537.44882h1.45782v1.45782h-1.45782v-1.45782ZM57.82678,537.44882h1.45782v1.45782h-1.45782v-1.45782ZM59.2846,537.44882h1.45782v1.45782h-1.45782v-1.45782ZM60.74242,537.44882h1.45782v1.45782h-1.45782v-1.45782ZM62.20024,537.44882h1.45782v1.45782h-1.45782v-1.45782ZM63.65806,537.44882h1.45782v1.45782h-1.45782v-1.45782ZM65.11587,537.44882h1.45782v1.45782h-1.45782v-1.45782ZM31.58607,538.90664h1.45782v1.45782h-1.45782v-1.45782ZM33.04388,538.90664h1.45782v1.45782h-1.45782v-1.45782ZM34.5017,538.90664h1.45782v1.45782h-1.45782v-1.45782ZM38.87515,538.90664h1.45782v1.45782h-1.45782v-1.45782ZM41.79079,538.90664h1.45782v1.45782h-1.45782v-1.45782ZM46.16424,538.90664h1.45782v1.45782h-1.45782v-1.45782ZM49.07988,538.90664h1.45782v1.45782h-1.45782v-1.45782ZM18.46571,540.36446h1.45782v1.45782h-1.45782v-1.45782ZM19.92352,540.36446h1.45782v1.45782h-1.45782v-1.45782ZM21.38134,540.36446h1.45782v1.45782h-1.45782v-1.45782ZM22.83916,540.36446h1.45782v1.45782h-1.45782v-1.45782ZM24.29698,540.36446h1.45782v1.45782h-1.45782v-1.45782ZM27.21261,540.36446h1.45782v1.45782h-1.45782v-1.45782ZM28.67043,540.36446h1.45782v1.45782h-1.45782v-1.45782ZM30.12825,540.36446h1.45782v1.45782h-1.45782v-1.45782ZM31.58607,540.36446h1.45782v1.45782h-1.45782v-1.45782ZM34.5017,540.36446h1.45782v1.45782h-1.45782v-1.45782ZM37.41734,540.36446h1.45782v1.45782h-1.45782v-1.45782ZM38.87515,540.36446h1.45782v1.45782h-1.45782v-1.45782ZM40.33297,540.36446h1.45782v1.45782h-1.45782v-1.45782ZM43.24861,540.36446h1.45782v1.45782h-1.45782v-1.45782ZM50.5377,540.36446h1.45782v1.45782h-1.45782v-1.45782ZM51.99551,540.36446h1.45782v1.45782h-1.45782v-1.45782ZM53.45333,540.36446h1.45782v1.45782h-1.45782v-1.45782ZM54.91115,540.36446h1.45782v1.45782h-1.45782v-1.45782ZM57.82678,540.36446h1.45782v1.45782h-1.45782v-1.45782ZM60.74242,540.36446h1.45782v1.45782h-1.45782v-1.45782ZM63.65806,540.36446h1.45782v1.45782h-1.45782v-1.45782ZM18.46571,541.82227h1.45782v1.45782h-1.45782v-1.45782ZM22.83916,541.82227h1.45782v1.45782h-1.45782v-1.45782ZM25.75479,541.82227h1.45782v1.45782h-1.45782v-1.45782ZM30.12825,541.82227h1.45782v1.45782h-1.45782v-1.45782ZM33.04388,541.82227h1.45782v1.45782h-1.45782v-1.45782ZM35.95952,541.82227h1.45782v1.45782h-1.45782v-1.45782ZM38.87515,541.82227h1.45782v1.45782h-1.45782v-1.45782ZM41.79079,541.82227h1.45782v1.45782h-1.45782v-1.45782ZM44.70642,541.82227h1.45782v1.45782h-1.45782v-1.45782ZM46.16424,541.82227h1.45782v1.45782h-1.45782v-1.45782ZM47.62206,541.82227h1.45782v1.45782h-1.45782v-1.45782ZM49.07988,541.82227h1.45782v1.45782h-1.45782v-1.45782ZM51.99551,541.82227h1.45782v1.45782h-1.45782v-1.45782ZM56.36897,541.82227h1.45782v1.45782h-1.45782v-1.45782ZM57.82678,541.82227h1.45782v1.45782h-1.45782v-1.45782ZM62.20024,541.82227h1.45782v1.45782h-1.45782v-1.45782ZM63.65806,541.82227h1.45782v1.45782h-1.45782v-1.45782ZM65.11587,541.82227h1.45782v1.45782h-1.45782v-1.45782ZM18.46571,543.28009h1.45782v1.45782h-1.45782v-1.45782ZM27.21261,543.28009h1.45782v1.45782h-1.45782v-1.45782ZM28.67043,543.28009h1.45782v1.45782h-1.45782v-1.45782ZM33.04388,543.28009h1.45782v1.45782h-1.45782v-1.45782ZM37.41734,543.28009h1.45782v1.45782h-1.45782v-1.45782ZM40.33297,543.28009h1.45782v1.45782h-1.45782v-1.45782ZM43.24861,543.28009h1.45782v1.45782h-1.45782v-1.45782ZM47.62206,543.28009h1.45782v1.45782h-1.45782v-1.45782ZM49.07988,543.28009h1.45782v1.45782h-1.45782v-1.45782ZM50.5377,543.28009h1.45782v1.45782h-1.45782v-1.45782ZM53.45333,543.28009h1.45782v1.45782h-1.45782v-1.45782ZM54.91115,543.28009h1.45782v1.45782h-1.45782v-1.45782ZM56.36897,543.28009h1.45782v1.45782h-1.45782v-1.45782ZM57.82678,543.28009h1.45782v1.45782h-1.45782v-1.45782ZM59.2846,543.28009h1.45782v1.45782h-1.45782v-1.45782ZM60.74242,543.28009h1.45782v1.45782h-1.45782v-1.45782ZM63.65806,543.28009h1.45782v1.45782h-1.45782v-1.45782ZM19.92352,544.73791h1.45782v1.45782h-1.45782v-1.45782ZM22.83916,544.73791h1.45782v1.45782h-1.45782v-1.45782ZM25.75479,544.73791h1.45782v1.45782h-1.45782v-1.45782ZM28.67043,544.73791h1.45782v1.45782h-1.45782v-1.45782ZM35.95952,544.73791h1.45782v1.45782h-1.45782v-1.45782ZM41.79079,544.73791h1.45782v1.45782h-1.45782v-1.45782ZM49.07988,544.73791h1.45782v1.45782h-1.45782v-1.45782ZM50.5377,544.73791h1.45782v1.45782h-1.45782v-1.45782ZM56.36897,544.73791h1.45782v1.45782h-1.45782v-1.45782ZM57.82678,544.73791h1.45782v1.45782h-1.45782v-1.45782ZM62.20024,544.73791h1.45782v1.45782h-1.45782v-1.45782ZM18.46571,546.19573h1.45782v1.45782h-1.45782v-1.45782ZM19.92352,546.19573h1.45782v1.45782h-1.45782v-1.45782ZM21.38134,546.19573h1.45782v1.45782h-1.45782v-1.45782ZM22.83916,546.19573h1.45782v1.45782h-1.45782v-1.45782ZM27.21261,546.19573h1.45782v1.45782h-1.45782v-1.45782ZM30.12825,546.19573h1.45782v1.45782h-1.45782v-1.45782ZM31.58607,546.19573h1.45782v1.45782h-1.45782v-1.45782ZM33.04388,546.19573h1.45782v1.45782h-1.45782v-1.45782ZM35.95952,546.19573h1.45782v1.45782h-1.45782v-1.45782ZM37.41734,546.19573h1.45782v1.45782h-1.45782v-1.45782ZM38.87515,546.19573h1.45782v1.45782h-1.45782v-1.45782ZM43.24861,546.19573h1.45782v1.45782h-1.45782v-1.45782ZM51.99551,546.19573h1.45782v1.45782h-1.45782v-1.45782ZM53.45333,546.19573h1.45782v1.45782h-1.45782v-1.45782ZM54.91115,546.19573h1.45782v1.45782h-1.45782v-1.45782ZM57.82678,546.19573h1.45782v1.45782h-1.45782v-1.45782ZM59.2846,546.19573h1.45782v1.45782h-1.45782v-1.45782ZM60.74242,546.19573h1.45782v1.45782h-1.45782v-1.45782ZM19.92352,547.65354h1.45782v1.45782h-1.45782v-1.45782ZM21.38134,547.65354h1.45782v1.45782h-1.45782v-1.45782ZM24.29698,547.65354h1.45782v1.45782h-1.45782v-1.45782ZM28.67043,547.65354h1.45782v1.45782h-1.45782v-1.45782ZM30.12825,547.65354h1.45782v1.45782h-1.45782v-1.45782ZM41.79079,547.65354h1.45782v1.45782h-1.45782v-1.45782ZM44.70642,547.65354h1.45782v1.45782h-1.45782v-1.45782ZM46.16424,547.65354h1.45782v1.45782h-1.45782v-1.45782ZM47.62206,547.65354h1.45782v1.45782h-1.45782v-1.45782ZM51.99551,547.65354h1.45782v1.45782h-1.45782v-1.45782ZM56.36897,547.65354h1.45782v1.45782h-1.45782v-1.45782ZM63.65806,547.65354h1.45782v1.45782h-1.45782v-1.45782ZM65.11587,547.65354h1.45782v1.45782h-1.45782v-1.45782ZM19.92352,549.11136h1.45782v1.45782h-1.45782v-1.45782ZM21.38134,549.11136h1.45782v1.45782h-1.45782v-1.45782ZM22.83916,549.11136h1.45782v1.45782h-1.45782v-1.45782ZM24.29698,549.11136h1.45782v1.45782h-1.45782v-1.45782ZM27.21261,549.11136h1.45782v1.45782h-1.45782v-1.45782ZM28.67043,549.11136h1.45782v1.45782h-1.45782v-1.45782ZM33.04388,549.11136h1.45782v1.45782h-1.45782v-1.45782ZM34.5017,549.11136h1.45782v1.45782h-1.45782v-1.45782ZM35.95952,549.11136h1.45782v1.45782h-1.45782v-1.45782ZM38.87515,549.11136h1.45782v1.45782h-1.45782v-1.45782ZM40.33297,549.11136h1.45782v1.45782h-1.45782v-1.45782ZM41.79079,549.11136h1.45782v1.45782h-1.45782v-1.45782ZM44.70642,549.11136h1.45782v1.45782h-1.45782v-1.45782ZM47.62206,549.11136h1.45782v1.45782h-1.45782v-1.45782ZM49.07988,549.11136h1.45782v1.45782h-1.45782v-1.45782ZM50.5377,549.11136h1.45782v1.45782h-1.45782v-1.45782ZM57.82678,549.11136h1.45782v1.45782h-1.45782v-1.45782ZM59.2846,549.11136h1.45782v1.45782h-1.45782v-1.45782ZM63.65806,549.11136h1.45782v1.45782h-1.45782v-1.45782ZM18.46571,550.56918h1.45782v1.45782h-1.45782v-1.45782ZM25.75479,550.56918h1.45782v1.45782h-1.45782v-1.45782ZM33.04388,550.56918h1.45782v1.45782h-1.45782v-1.45782ZM34.5017,550.56918h1.45782v1.45782h-1.45782v-1.45782ZM38.87515,550.56918h1.45782v1.45782h-1.45782v-1.45782ZM40.33297,550.56918h1.45782v1.45782h-1.45782v-1.45782ZM41.79079,550.56918h1.45782v1.45782h-1.45782v-1.45782ZM46.16424,550.56918h1.45782v1.45782h-1.45782v-1.45782ZM47.62206,550.56918h1.45782v1.45782h-1.45782v-1.45782ZM49.07988,550.56918h1.45782v1.45782h-1.45782v-1.45782ZM50.5377,550.56918h1.45782v1.45782h-1.45782v-1.45782ZM53.45333,550.56918h1.45782v1.45782h-1.45782v-1.45782ZM54.91115,550.56918h1.45782v1.45782h-1.45782v-1.45782ZM56.36897,550.56918h1.45782v1.45782h-1.45782v-1.45782ZM57.82678,550.56918h1.45782v1.45782h-1.45782v-1.45782ZM62.20024,550.56918h1.45782v1.45782h-1.45782v-1.45782ZM18.46571,552.027h1.45782v1.45782h-1.45782v-1.45782ZM19.92352,552.027h1.45782v1.45782h-1.45782v-1.45782ZM21.38134,552.027h1.45782v1.45782h-1.45782v-1.45782ZM25.75479,552.027h1.45782v1.45782h-1.45782v-1.45782ZM27.21261,552.027h1.45782v1.45782h-1.45782v-1.45782ZM30.12825,552.027h1.45782v1.45782h-1.45782v-1.45782ZM33.04388,552.027h1.45782v1.45782h-1.45782v-1.45782ZM34.5017,552.027h1.45782v1.45782h-1.45782v-1.45782ZM35.95952,552.027h1.45782v1.45782h-1.45782v-1.45782ZM37.41734,552.027h1.45782v1.45782h-1.45782v-1.45782ZM38.87515,552.027h1.45782v1.45782h-1.45782v-1.45782ZM40.33297,552.027h1.45782v1.45782h-1.45782v-1.45782ZM41.79079,552.027h1.45782v1.45782h-1.45782v-1.45782ZM43.24861,552.027h1.45782v1.45782h-1.45782v-1.45782ZM44.70642,552.027h1.45782v1.45782h-1.45782v-1.45782ZM46.16424,552.027h1.45782v1.45782h-1.45782v-1.45782ZM50.5377,552.027h1.45782v1.45782h-1.45782v-1.45782ZM51.99551,552.027h1.45782v1.45782h-1.45782v-1.45782ZM53.45333,552.027h1.45782v1.45782h-1.45782v-1.45782ZM54.91115,552.027h1.45782v1.45782h-1.45782v-1.45782ZM57.82678,552.027h1.45782v1.45782h-1.45782v-1.45782ZM59.2846,552.027h1.45782v1.45782h-1.45782v-1.45782ZM63.65806,552.027h1.45782v1.45782h-1.45782v-1.45782ZM19.92352,553.48482h1.45782v1.45782h-1.45782v-1.45782ZM21.38134,553.48482h1.45782v1.45782h-1.45782v-1.45782ZM22.83916,553.48482h1.45782v1.45782h-1.45782v-1.45782ZM24.29698,553.48482h1.45782v1.45782h-1.45782v-1.45782ZM28.67043,553.48482h1.45782v1.45782h-1.45782v-1.45782ZM30.12825,553.48482h1.45782v1.45782h-1.45782v-1.45782ZM35.95952,553.48482h1.45782v1.45782h-1.45782v-1.45782ZM37.41734,553.48482h1.45782v1.45782h-1.45782v-1.45782ZM41.79079,553.48482h1.45782v1.45782h-1.45782v-1.45782ZM43.24861,553.48482h1.45782v1.45782h-1.45782v-1.45782ZM44.70642,553.48482h1.45782v1.45782h-1.45782v-1.45782ZM46.16424,553.48482h1.45782v1.45782h-1.45782v-1.45782ZM49.07988,553.48482h1.45782v1.45782h-1.45782v-1.45782ZM51.99551,553.48482h1.45782v1.45782h-1.45782v-1.45782ZM56.36897,553.48482h1.45782v1.45782h-1.45782v-1.45782ZM60.74242,553.48482h1.45782v1.45782h-1.45782v-1.45782ZM63.65806,553.48482h1.45782v1.45782h-1.45782v-1.45782ZM65.11587,553.48482h1.45782v1.45782h-1.45782v-1.45782ZM22.83916,554.94263h1.45782v1.45782h-1.45782v-1.45782ZM25.75479,554.94263h1.45782v1.45782h-1.45782v-1.45782ZM27.21261,554.94263h1.45782v1.45782h-1.45782v-1.45782ZM28.67043,554.94263h1.45782v1.45782h-1.45782v-1.45782ZM35.95952,554.94263h1.45782v1.45782h-1.45782v-1.45782ZM40.33297,554.94263h1.45782v1.45782h-1.45782v-1.45782ZM43.24861,554.94263h1.45782v1.45782h-1.45782v-1.45782ZM47.62206,554.94263h1.45782v1.45782h-1.45782v-1.45782ZM49.07988,554.94263h1.45782v1.45782h-1.45782v-1.45782ZM53.45333,554.94263h1.45782v1.45782h-1.45782v-1.45782ZM56.36897,554.94263h1.45782v1.45782h-1.45782v-1.45782ZM59.2846,554.94263h1.45782v1.45782h-1.45782v-1.45782ZM60.74242,554.94263h1.45782v1.45782h-1.45782v-1.45782ZM63.65806,554.94263h1.45782v1.45782h-1.45782v-1.45782ZM18.46571,556.40045h1.45782v1.45782h-1.45782v-1.45782ZM19.92352,556.40045h1.45782v1.45782h-1.45782v-1.45782ZM21.38134,556.40045h1.45782v1.45782h-1.45782v-1.45782ZM25.75479,556.40045h1.45782v1.45782h-1.45782v-1.45782ZM38.87515,556.40045h1.45782v1.45782h-1.45782v-1.45782ZM40.33297,556.40045h1.45782v1.45782h-1.45782v-1.45782ZM41.79079,556.40045h1.45782v1.45782h-1.45782v-1.45782ZM47.62206,556.40045h1.45782v1.45782h-1.45782v-1.45782ZM49.07988,556.40045h1.45782v1.45782h-1.45782v-1.45782ZM50.5377,556.40045h1.45782v1.45782h-1.45782v-1.45782ZM51.99551,556.40045h1.45782v1.45782h-1.45782v-1.45782ZM53.45333,556.40045h1.45782v1.45782h-1.45782v-1.45782ZM57.82678,556.40045h1.45782v1.45782h-1.45782v-1.45782ZM62.20024,556.40045h1.45782v1.45782h-1.45782v-1.45782ZM18.46571,557.85827h1.45782v1.45782h-1.45782v-1.45782ZM19.92352,557.85827h1.45782v1.45782h-1.45782v-1.45782ZM21.38134,557.85827h1.45782v1.45782h-1.45782v-1.45782ZM24.29698,557.85827h1.45782v1.45782h-1.45782v-1.45782ZM25.75479,557.85827h1.45782v1.45782h-1.45782v-1.45782ZM27.21261,557.85827h1.45782v1.45782h-1.45782v-1.45782ZM33.04388,557.85827h1.45782v1.45782h-1.45782v-1.45782ZM34.5017,557.85827h1.45782v1.45782h-1.45782v-1.45782ZM35.95952,557.85827h1.45782v1.45782h-1.45782v-1.45782ZM37.41734,557.85827h1.45782v1.45782h-1.45782v-1.45782ZM38.87515,557.85827h1.45782v1.45782h-1.45782v-1.45782ZM40.33297,557.85827h1.45782v1.45782h-1.45782v-1.45782ZM41.79079,557.85827h1.45782v1.45782h-1.45782v-1.45782ZM43.24861,557.85827h1.45782v1.45782h-1.45782v-1.45782ZM50.5377,557.85827h1.45782v1.45782h-1.45782v-1.45782ZM53.45333,557.85827h1.45782v1.45782h-1.45782v-1.45782ZM59.2846,557.85827h1.45782v1.45782h-1.45782v-1.45782ZM63.65806,557.85827h1.45782v1.45782h-1.45782v-1.45782ZM18.46571,559.31609h1.45782v1.45782h-1.45782v-1.45782ZM19.92352,559.31609h1.45782v1.45782h-1.45782v-1.45782ZM22.83916,559.31609h1.45782v1.45782h-1.45782v-1.45782ZM24.29698,559.31609h1.45782v1.45782h-1.45782v-1.45782ZM25.75479,559.31609h1.45782v1.45782h-1.45782v-1.45782ZM28.67043,559.31609h1.45782v1.45782h-1.45782v-1.45782ZM30.12825,559.31609h1.45782v1.45782h-1.45782v-1.45782ZM33.04388,559.31609h1.45782v1.45782h-1.45782v-1.45782ZM34.5017,559.31609h1.45782v1.45782h-1.45782v-1.45782ZM41.79079,559.31609h1.45782v1.45782h-1.45782v-1.45782ZM44.70642,559.31609h1.45782v1.45782h-1.45782v-1.45782ZM46.16424,559.31609h1.45782v1.45782h-1.45782v-1.45782ZM47.62206,559.31609h1.45782v1.45782h-1.45782v-1.45782ZM51.99551,559.31609h1.45782v1.45782h-1.45782v-1.45782ZM56.36897,559.31609h1.45782v1.45782h-1.45782v-1.45782ZM60.74242,559.31609h1.45782v1.45782h-1.45782v-1.45782ZM63.65806,559.31609h1.45782v1.45782h-1.45782v-1.45782ZM65.11587,559.31609h1.45782v1.45782h-1.45782v-1.45782ZM18.46571,560.7739h1.45782v1.45782h-1.45782v-1.45782ZM22.83916,560.7739h1.45782v1.45782h-1.45782v-1.45782ZM24.29698,560.7739h1.45782v1.45782h-1.45782v-1.45782ZM25.75479,560.7739h1.45782v1.45782h-1.45782v-1.45782ZM27.21261,560.7739h1.45782v1.45782h-1.45782v-1.45782ZM28.67043,560.7739h1.45782v1.45782h-1.45782v-1.45782ZM30.12825,560.7739h1.45782v1.45782h-1.45782v-1.45782ZM37.41734,560.7739h1.45782v1.45782h-1.45782v-1.45782ZM40.33297,560.7739h1.45782v1.45782h-1.45782v-1.45782ZM43.24861,560.7739h1.45782v1.45782h-1.45782v-1.45782ZM50.5377,560.7739h1.45782v1.45782h-1.45782v-1.45782ZM54.91115,560.7739h1.45782v1.45782h-1.45782v-1.45782ZM56.36897,560.7739h1.45782v1.45782h-1.45782v-1.45782ZM57.82678,560.7739h1.45782v1.45782h-1.45782v-1.45782ZM59.2846,560.7739h1.45782v1.45782h-1.45782v-1.45782ZM60.74242,560.7739h1.45782v1.45782h-1.45782v-1.45782ZM63.65806,560.7739h1.45782v1.45782h-1.45782v-1.45782ZM18.46571,562.23172h1.45782v1.45782h-1.45782v-1.45782ZM24.29698,562.23172h1.45782v1.45782h-1.45782v-1.45782ZM28.67043,562.23172h1.45782v1.45782h-1.45782v-1.45782ZM33.04388,562.23172h1.45782v1.45782h-1.45782v-1.45782ZM38.87515,562.23172h1.45782v1.45782h-1.45782v-1.45782ZM40.33297,562.23172h1.45782v1.45782h-1.45782v-1.45782ZM41.79079,562.23172h1.45782v1.45782h-1.45782v-1.45782ZM47.62206,562.23172h1.45782v1.45782h-1.45782v-1.45782ZM49.07988,562.23172h1.45782v1.45782h-1.45782v-1.45782ZM51.99551,562.23172h1.45782v1.45782h-1.45782v-1.45782ZM54.91115,562.23172h1.45782v1.45782h-1.45782v-1.45782ZM56.36897,562.23172h1.45782v1.45782h-1.45782v-1.45782ZM59.2846,562.23172h1.45782v1.45782h-1.45782v-1.45782ZM60.74242,562.23172h1.45782v1.45782h-1.45782v-1.45782ZM62.20024,562.23172h1.45782v1.45782h-1.45782v-1.45782ZM18.46571,563.68954h1.45782v1.45782h-1.45782v-1.45782ZM22.83916,563.68954h1.45782v1.45782h-1.45782v-1.45782ZM24.29698,563.68954h1.45782v1.45782h-1.45782v-1.45782ZM25.75479,563.68954h1.45782v1.45782h-1.45782v-1.45782ZM27.21261,563.68954h1.45782v1.45782h-1.45782v-1.45782ZM28.67043,563.68954h1.45782v1.45782h-1.45782v-1.45782ZM33.04388,563.68954h1.45782v1.45782h-1.45782v-1.45782ZM34.5017,563.68954h1.45782v1.45782h-1.45782v-1.45782ZM35.95952,563.68954h1.45782v1.45782h-1.45782v-1.45782ZM37.41734,563.68954h1.45782v1.45782h-1.45782v-1.45782ZM38.87515,563.68954h1.45782v1.45782h-1.45782v-1.45782ZM43.24861,563.68954h1.45782v1.45782h-1.45782v-1.45782ZM47.62206,563.68954h1.45782v1.45782h-1.45782v-1.45782ZM50.5377,563.68954h1.45782v1.45782h-1.45782v-1.45782ZM51.99551,563.68954h1.45782v1.45782h-1.45782v-1.45782ZM53.45333,563.68954h1.45782v1.45782h-1.45782v-1.45782ZM54.91115,563.68954h1.45782v1.45782h-1.45782v-1.45782ZM56.36897,563.68954h1.45782v1.45782h-1.45782v-1.45782ZM57.82678,563.68954h1.45782v1.45782h-1.45782v-1.45782ZM59.2846,563.68954h1.45782v1.45782h-1.45782v-1.45782ZM60.74242,563.68954h1.45782v1.45782h-1.45782v-1.45782ZM65.11587,563.68954h1.45782v1.45782h-1.45782v-1.45782ZM30.12825,565.14736h1.45782v1.45782h-1.45782v-1.45782ZM33.04388,565.14736h1.45782v1.45782h-1.45782v-1.45782ZM34.5017,565.14736h1.45782v1.45782h-1.45782v-1.45782ZM37.41734,565.14736h1.45782v1.45782h-1.45782v-1.45782ZM41.79079,565.14736h1.45782v1.45782h-1.45782v-1.45782ZM44.70642,565.14736h1.45782v1.45782h-1.45782v-1.45782ZM46.16424,565.14736h1.45782v1.45782h-1.45782v-1.45782ZM47.62206,565.14736h1.45782v1.45782h-1.45782v-1.45782ZM49.07988,565.14736h1.45782v1.45782h-1.45782v-1.45782ZM53.45333,565.14736h1.45782v1.45782h-1.45782v-1.45782ZM59.2846,565.14736h1.45782v1.45782h-1.45782v-1.45782ZM60.74242,565.14736h1.45782v1.45782h-1.45782v-1.45782ZM62.20024,565.14736h1.45782v1.45782h-1.45782v-1.45782ZM65.11587,565.14736h1.45782v1.45782h-1.45782v-1.45782ZM18.46571,566.60517h1.45782v1.45782h-1.45782v-1.45782ZM19.92352,566.60517h1.45782v1.45782h-1.45782v-1.45782ZM21.38134,566.60517h1.45782v1.45782h-1.45782v-1.45782ZM22.83916,566.60517h1.45782v1.45782h-1.45782v-1.45782ZM24.29698,566.60517h1.45782v1.45782h-1.45782v-1.45782ZM25.75479,566.60517h1.45782v1.45782h-1.45782v-1.45782ZM27.21261,566.60517h1.45782v1.45782h-1.45782v-1.45782ZM30.12825,566.60517h1.45782v1.45782h-1.45782v-1.45782ZM31.58607,566.60517h1.45782v1.45782h-1.45782v-1.45782ZM35.95952,566.60517h1.45782v1.45782h-1.45782v-1.45782ZM40.33297,566.60517h1.45782v1.45782h-1.45782v-1.45782ZM41.79079,566.60517h1.45782v1.45782h-1.45782v-1.45782ZM44.70642,566.60517h1.45782v1.45782h-1.45782v-1.45782ZM47.62206,566.60517h1.45782v1.45782h-1.45782v-1.45782ZM50.5377,566.60517h1.45782v1.45782h-1.45782v-1.45782ZM51.99551,566.60517h1.45782v1.45782h-1.45782v-1.45782ZM53.45333,566.60517h1.45782v1.45782h-1.45782v-1.45782ZM56.36897,566.60517h1.45782v1.45782h-1.45782v-1.45782ZM59.2846,566.60517h1.45782v1.45782h-1.45782v-1.45782ZM60.74242,566.60517h1.45782v1.45782h-1.45782v-1.45782ZM63.65806,566.60517h1.45782v1.45782h-1.45782v-1.45782ZM18.46571,568.06299h1.45782v1.45782h-1.45782v-1.45782ZM27.21261,568.06299h1.45782v1.45782h-1.45782v-1.45782ZM31.58607,568.06299h1.45782v1.45782h-1.45782v-1.45782ZM33.04388,568.06299h1.45782v1.45782h-1.45782v-1.45782ZM40.33297,568.06299h1.45782v1.45782h-1.45782v-1.45782ZM41.79079,568.06299h1.45782v1.45782h-1.45782v-1.45782ZM46.16424,568.06299h1.45782v1.45782h-1.45782v-1.45782ZM47.62206,568.06299h1.45782v1.45782h-1.45782v-1.45782ZM49.07988,568.06299h1.45782v1.45782h-1.45782v-1.45782ZM50.5377,568.06299h1.45782v1.45782h-1.45782v-1.45782ZM53.45333,568.06299h1.45782v1.45782h-1.45782v-1.45782ZM59.2846,568.06299h1.45782v1.45782h-1.45782v-1.45782ZM60.74242,568.06299h1.45782v1.45782h-1.45782v-1.45782ZM62.20024,568.06299h1.45782v1.45782h-1.45782v-1.45782ZM63.65806,568.06299h1.45782v1.45782h-1.45782v-1.45782ZM65.11587,568.06299h1.45782v1.45782h-1.45782v-1.45782ZM18.46571,569.52081h1.45782v1.45782h-1.45782v-1.45782ZM21.38134,569.52081h1.45782v1.45782h-1.45782v-1.45782ZM22.83916,569.52081h1.45782v1.45782h-1.45782v-1.45782ZM24.29698,569.52081h1.45782v1.45782h-1.45782v-1.45782ZM27.21261,569.52081h1.45782v1.45782h-1.45782v-1.45782ZM30.12825,569.52081h1.45782v1.45782h-1.45782v-1.45782ZM31.58607,569.52081h1.45782v1.45782h-1.45782v-1.45782ZM33.04388,569.52081h1.45782v1.45782h-1.45782v-1.45782ZM37.41734,569.52081h1.45782v1.45782h-1.45782v-1.45782ZM40.33297,569.52081h1.45782v1.45782h-1.45782v-1.45782ZM43.24861,569.52081h1.45782v1.45782h-1.45782v-1.45782ZM44.70642,569.52081h1.45782v1.45782h-1.45782v-1.45782ZM46.16424,569.52081h1.45782v1.45782h-1.45782v-1.45782ZM50.5377,569.52081h1.45782v1.45782h-1.45782v-1.45782ZM53.45333,569.52081h1.45782v1.45782h-1.45782v-1.45782ZM54.91115,569.52081h1.45782v1.45782h-1.45782v-1.45782ZM56.36897,569.52081h1.45782v1.45782h-1.45782v-1.45782ZM57.82678,569.52081h1.45782v1.45782h-1.45782v-1.45782ZM59.2846,569.52081h1.45782v1.45782h-1.45782v-1.45782ZM60.74242,569.52081h1.45782v1.45782h-1.45782v-1.45782ZM63.65806,569.52081h1.45782v1.45782h-1.45782v-1.45782ZM18.46571,570.97863h1.45782v1.45782h-1.45782v-1.45782ZM21.38134,570.97863h1.45782v1.45782h-1.45782v-1.45782ZM22.83916,570.97863h1.45782v1.45782h-1.45782v-1.45782ZM24.29698,570.97863h1.45782v1.45782h-1.45782v-1.45782ZM27.21261,570.97863h1.45782v1.45782h-1.45782v-1.45782ZM30.12825,570.97863h1.45782v1.45782h-1.45782v-1.45782ZM34.5017,570.97863h1.45782v1.45782h-1.45782v-1.45782ZM37.41734,570.97863h1.45782v1.45782h-1.45782v-1.45782ZM41.79079,570.97863h1.45782v1.45782h-1.45782v-1.45782ZM43.24861,570.97863h1.45782v1.45782h-1.45782v-1.45782ZM44.70642,570.97863h1.45782v1.45782h-1.45782v-1.45782ZM46.16424,570.97863h1.45782v1.45782h-1.45782v-1.45782ZM47.62206,570.97863h1.45782v1.45782h-1.45782v-1.45782ZM49.07988,570.97863h1.45782v1.45782h-1.45782v-1.45782ZM51.99551,570.97863h1.45782v1.45782h-1.45782v-1.45782ZM53.45333,570.97863h1.45782v1.45782h-1.45782v-1.45782ZM54.91115,570.97863h1.45782v1.45782h-1.45782v-1.45782ZM57.82678,570.97863h1.45782v1.45782h-1.45782v-1.45782ZM59.2846,570.97863h1.45782v1.45782h-1.45782v-1.45782ZM60.74242,570.97863h1.45782v1.45782h-1.45782v-1.45782ZM62.20024,570.97863h1.45782v1.45782h-1.45782v-1.45782ZM18.46571,572.43645h1.45782v1.45782h-1.45782v-1.45782ZM21.38134,572.43645h1.45782v1.45782h-1.45782v-1.45782ZM22.83916,572.43645h1.45782v1.45782h-1.45782v-1.45782ZM24.29698,572.43645h1.45782v1.45782h-1.45782v-1.45782ZM27.21261,572.43645h1.45782v1.45782h-1.45782v-1.45782ZM30.12825,572.43645h1.45782v1.45782h-1.45782v-1.45782ZM33.04388,572.43645h1.45782v1.45782h-1.45782v-1.45782ZM35.95952,572.43645h1.45782v1.45782h-1.45782v-1.45782ZM37.41734,572.43645h1.45782v1.45782h-1.45782v-1.45782ZM38.87515,572.43645h1.45782v1.45782h-1.45782v-1.45782ZM40.33297,572.43645h1.45782v1.45782h-1.45782v-1.45782ZM41.79079,572.43645h1.45782v1.45782h-1.45782v-1.45782ZM49.07988,572.43645h1.45782v1.45782h-1.45782v-1.45782ZM50.5377,572.43645h1.45782v1.45782h-1.45782v-1.45782ZM51.99551,572.43645h1.45782v1.45782h-1.45782v-1.45782ZM53.45333,572.43645h1.45782v1.45782h-1.45782v-1.45782ZM56.36897,572.43645h1.45782v1.45782h-1.45782v-1.45782ZM57.82678,572.43645h1.45782v1.45782h-1.45782v-1.45782ZM60.74242,572.43645h1.45782v1.45782h-1.45782v-1.45782ZM63.65806,572.43645h1.45782v1.45782h-1.45782v-1.45782ZM18.46571,573.89426h1.45782v1.45782h-1.45782v-1.45782ZM27.21261,573.89426h1.45782v1.45782h-1.45782v-1.45782ZM30.12825,573.89426h1.45782v1.45782h-1.45782v-1.45782ZM31.58607,573.89426h1.45782v1.45782h-1.45782v-1.45782ZM33.04388,573.89426h1.45782v1.45782h-1.45782v-1.45782ZM35.95952,573.89426h1.45782v1.45782h-1.45782v-1.45782ZM41.79079,573.89426h1.45782v1.45782h-1.45782v-1.45782ZM46.16424,573.89426h1.45782v1.45782h-1.45782v-1.45782ZM49.07988,573.89426h1.45782v1.45782h-1.45782v-1.45782ZM50.5377,573.89426h1.45782v1.45782h-1.45782v-1.45782ZM54.91115,573.89426h1.45782v1.45782h-1.45782v-1.45782ZM59.2846,573.89426h1.45782v1.45782h-1.45782v-1.45782ZM60.74242,573.89426h1.45782v1.45782h-1.45782v-1.45782ZM62.20024,573.89426h1.45782v1.45782h-1.45782v-1.45782ZM18.46571,575.35208h1.45782v1.45782h-1.45782v-1.45782ZM19.92352,575.35208h1.45782v1.45782h-1.45782v-1.45782ZM21.38134,575.35208h1.45782v1.45782h-1.45782v-1.45782ZM22.83916,575.35208h1.45782v1.45782h-1.45782v-1.45782ZM24.29698,575.35208h1.45782v1.45782h-1.45782v-1.45782ZM25.75479,575.35208h1.45782v1.45782h-1.45782v-1.45782ZM27.21261,575.35208h1.45782v1.45782h-1.45782v-1.45782ZM30.12825,575.35208h1.45782v1.45782h-1.45782v-1.45782ZM34.5017,575.35208h1.45782v1.45782h-1.45782v-1.45782ZM35.95952,575.35208h1.45782v1.45782h-1.45782v-1.45782ZM37.41734,575.35208h1.45782v1.45782h-1.45782v-1.45782ZM38.87515,575.35208h1.45782v1.45782h-1.45782v-1.45782ZM40.33297,575.35208h1.45782v1.45782h-1.45782v-1.45782ZM43.24861,575.35208h1.45782v1.45782h-1.45782v-1.45782ZM50.5377,575.35208h1.45782v1.45782h-1.45782v-1.45782ZM51.99551,575.35208h1.45782v1.45782h-1.45782v-1.45782ZM53.45333,575.35208h1.45782v1.45782h-1.45782v-1.45782ZM60.74242,575.35208h1.45782v1.45782h-1.45782v-1.45782ZM63.65806,575.35208h1.45782v1.45782h-1.45782v-1.45782Z" style="stroke-width: 0px;"/>
    </g>
  </g>
  <g id="sbb">
    <rect id="rect22814" x="628.83766" y="17.00787" width="196.04423" height="22.94025" style="fill: #fff; stroke-width: 0px;"/>
    <rect id="rect397399" x="630.28877" y="18.25772" width="192.10691" height="20.65906" style="fill: #fff; stroke-width: 0px;"/>
    <path id="path2879" d="M630.28877,38.70432h60.7022v-20.23415h-60.7022v20.23415Z" style="fill: #e42328; stroke-width: 0px;"/>
    <path id="path2881" d="M666.02033,27.03866h6.56305v-5.19604h3.09174v5.19604h6.56305l-5.28039-5.19604h3.91846l6.74469,6.74462-6.74469,6.74463h-3.9212l5.28039-5.19605h-6.56049v5.19604h-3.09174v-5.19577h-6.56323l5.27985,5.19603h-3.91571l-6.74469-6.74462,6.74469-6.74463h3.91644" style="fill: #fff; stroke-width: 0px;"/>
    <path id="path2883" d="M697.25519,31.30311c-.039,3.49178,2.896,5.03902,6.02911,5.03902,3.84869,0,5.89197-1.9432,5.89197-4.5427,0-3.21163-3.17303-3.86659-4.20557-4.12234-3.5506-.9137-4.22369-1.05282-4.22369-2.14253,0-1.19005,1.14899-1.60582,2.14252-1.60582,1.48791,0,2.69806.43528,2.79602,2.14253h3.01556c0-3.27237-2.71747-4.5606-5.67224-4.5606-2.5589,0-5.29578,1.38831-5.29578,4.28506,0,2.65782,2.12164,3.47144,4.22552,4.02551,2.08228.55489,4.20355.81362,4.20355,2.33915,0,1.44879-1.66663,1.76636-2.75684,1.76636-1.66663,0-3.1333-.73524-3.1333-2.61931" style="fill: #221e20; stroke-width: 0px;"/>
    <path id="path2885" d="M714.21076,24.26395h2.91559c1.10962,0,2.14252.27663,2.14252,1.62561,0,1.19005-.81372,1.68609-1.90393,1.68609h-3.15417v-3.3117ZM711.09742,36.00474h6.86151c2.5589,0,4.99969-1.22938,4.99969-4.10578,0-1.76474-.87433-3.09392-2.59973-3.58996,1.19348-.48972,1.96014-1.66644,1.92554-2.95615,0-2.63721-1.8252-3.50967-4.52325-3.50967h-6.66376v14.16156ZM714.21076,29.6973h3.3902c1.3288,0,2.24103.57631,2.24103,2.02347,0,1.46669-1.07043,1.86455-2.2998,1.86455h-3.33105" style="fill: #221e20; fill-rule: evenodd; stroke-width: 0px;"/>
    <path id="path2887" d="M728.1482,24.26395h2.91559c1.10962,0,2.14233.27663,2.14233,1.62561,0,1.19005-.81354,1.68609-1.90393,1.68609h-3.15399v-3.3117ZM725.03467,36.00474h6.86151c2.5589,0,4.99786-1.22938,4.99786-4.10578,0-1.76474-.87231-3.09392-2.5979-3.58996,1.19257-.49063,1.95795-1.66707,1.92334-2.95615,0-2.63721-1.82355-3.50967-4.52124-3.50967h-6.66357v14.16156ZM728.15003,29.6973h3.3902c1.32898,0,2.24139.57631,2.24139,2.02347,0,1.46669-1.07043,1.86455-2.2998,1.86455h-3.33105" style="fill: #221e20; fill-rule: evenodd; stroke-width: 0px;"/>
    <path id="path2889" d="M756.67365,26.6031c-.37646-3.27237-2.99414-5.09596-6.10785-5.09596-4.38409,0-6.96075,3.27237-6.96075,7.47634,0,4.08599,2.57648,7.35837,6.96075,7.35837,3.47131,0,5.90955-2.26077,6.22705-5.79188h-3.01575c-.23749,1.86455-1.30811,3.17311-3.21149,3.17311-2.7962,0-3.84869-2.38037-3.84869-4.74096,0-2.47828,1.05286-4.85866,3.84869-4.85866,1.54578,0,2.896,1.07072,3.09393,2.47828" style="fill: #221e20; stroke-width: 0px;"/>
    <path id="path2891" d="M758.71033,36.00473h3.11334v-5.851h5.93115v-2.41943h-5.93115v-3.27237h6.84247v-2.61741h-9.95654" style="fill: #221e20; stroke-width: 0px;"/>
    <path id="path2893" d="M770.55926,36.00473h3.10492v-5.851h5.92383v-2.41943h-5.92584v-3.27237h6.83441v-2.61741h-9.93732" style="fill: #221e20; stroke-width: 0px;"/>
    <path id="path2895" d="M787.24127,36.00473h3.12158v-5.851h5.92383v-2.41943h-5.92383v-3.27237h6.83441v-2.61741h-9.95581" style="fill: #221e20; stroke-width: 0px;"/>
    <path id="path2897" d="M799.46447,36.00473h3.10474v-5.851h5.92364v-2.41943h-5.92383v-3.27237h6.85181v-2.61741h-9.95654" style="fill: #221e20; stroke-width: 0px;"/>
    <path id="path2899" d="M810.56231,31.30311c-.03534,3.49178,2.8905,5.03902,6.03094,5.03902,3.854,0,5.88812-1.9432,5.88812-4.5427,0-3.21163-3.17615-3.86659-4.19311-4.12234-3.55041-.9137-4.22864-1.05282-4.22864-2.14253,0-1.19005,1.14166-1.60582,2.14252-1.60582,1.48059,0,2.6944.43528,2.80115,2.14253h2.9978c0-3.27237-2.71216-4.5606-5.65631-4.5606-2.56934,0-5.29944,1.38831-5.29944,4.28506,0,2.65782,2.12311,3.47144,4.229,4.02551,2.06982.55489,4.19311.81362,4.19311,2.33915,0,1.44879-1.65948,1.76636-2.74786,1.76636-1.67743,0-3.14026-.73524-3.14026-2.61931" style="fill: #221e20; stroke-width: 0px;"/>
  </g>
  <g id="title">
    <path d="M1.98425,17.0387h392.16098v53.86566H1.98425c-1.09514,0-1.98425-.88911-1.98425-1.98425V19.02295c0-1.09514.88911-1.98425,1.98425-1.98425Z" transform="translate(394.14523 87.94305) rotate(180)" style="fill: #fff; stroke-width: 0px;"/>
    <text transform="translate(17.15658 32.43072)" style="font-family: SBBWeb-Light,'SBB Web',Arial, &apos;SBB Web&apos;; font-size: 12px; font-weight: 300; isolation: isolate;"><tspan x="0" y="0" style="letter-spacing: .00146em;">G</tspan><tspan x="8.91211" y="0">ene</tspan><tspan x="27.81445" y="0" style="letter-spacing: -.00928em;">r</tspan><tspan x="31.48242" y="0">al</tspan><tspan x="39.93164" y="0" style="letter-spacing: -.00879em;">-</tspan><tspan x="44.26758" y="0" style="letter-spacing: .00781em;">A</tspan><tspan x="51.91992" y="0">b</tspan><tspan x="58.81055" y="0" style="letter-spacing: -.0293em;">o</tspan><tspan x="65.13281" y="0">, </tspan><tspan x="71.80078" y="0" style="letter-spacing: .00928em;">G</tspan><tspan x="80.80664" y="0">A N</tspan><tspan x="100.14844" y="0" style="letter-spacing: -.00098em;">i</tspan><tspan x="102.35742" y="0" style="letter-spacing: .00146em;">g</tspan><tspan x="109.04883" y="0">h</tspan><tspan x="115.49414" y="0" style="letter-spacing: -.03027em;">t</tspan><tspan x="118.68164" y="0">, </tspan><tspan x="125.34961" y="0" style="letter-spacing: .00928em;">G</tspan><tspan x="134.35547" y="0" style="letter-spacing: -.00879em;">A</tspan><tspan x="141.80859" y="0">-Mon</tspan><tspan x="169.36523" y="0" style="letter-spacing: -.01123em;">a</tspan><tspan x="175.45898" y="0" style="letter-spacing: -.01367em;">t</tspan><tspan x="178.8457" y="0" style="letter-spacing: -.00488em;">s</tspan><tspan x="184.55859" y="0">ka</tspan><tspan x="196.78711" y="0" style="letter-spacing: .03076em;">r</tspan><tspan x="200.93555" y="0" style="letter-spacing: -.02832em;">t</tspan><tspan x="204.14648" y="0" style="letter-spacing: -.02197em;">e</tspan><tspan x="210.11133" y="0">, </tspan><tspan x="216.7793" y="0" style="letter-spacing: -.01025em;">A</tspan><tspan x="224.21484" y="0">u</tspan><tspan x="230.66016" y="0" style="letter-spacing: -.01221em;">s</tspan><tspan x="236.28516" y="0" style="letter-spacing: .00977em;">f</tspan><tspan x="239.50781" y="0">l</tspan><tspan x="241.72852" y="0" style="letter-spacing: .00098em;">u</tspan><tspan x="248.18555" y="0" style="letter-spacing: -.00146em;">g</tspan><tspan x="254.8418" y="0" style="letter-spacing: -.01709em;">s</tspan><tspan x="260.4082" y="0" style="letter-spacing: -.00879em;">-</tspan><tspan x="264.74414" y="0" style="letter-spacing: .00781em;">A</tspan><tspan x="272.396" y="0">b</tspan><tspan x="279.28662" y="0" style="letter-spacing: -.0293em;">o</tspan><tspan x="285.60889" y="0">,</tspan><tspan x="0" y="14.3999" style="letter-spacing: -.09229em;">T</tspan><tspan x="5.56641" y="14.3999" style="letter-spacing: -.00781em;">a</tspan><tspan x="11.70117" y="14.3999" style="letter-spacing: .00146em;">g</tspan><tspan x="18.39258" y="14.3999" style="letter-spacing: .00098em;">e</tspan><tspan x="24.63281" y="14.3999" style="letter-spacing: -.00488em;">s</tspan><tspan x="30.3457" y="14.3999">ka</tspan><tspan x="42.57422" y="14.3999" style="letter-spacing: .03076em;">r</tspan><tspan x="46.72266" y="14.3999" style="letter-spacing: -.02832em;">t</tspan><tspan x="49.93359" y="14.3999">e </tspan><tspan x="59.49609" y="14.3999" style="letter-spacing: -.01123em;">z</tspan><tspan x="64.91602" y="14.3999">um </tspan><tspan x="84.69141" y="14.3999" style="letter-spacing: -.00293em;">H</tspan><tspan x="93.10547" y="14.3999">alb</tspan><tspan x="108.44531" y="14.3999" style="letter-spacing: -.00488em;">t</tspan><tspan x="111.9375" y="14.3999" style="letter-spacing: .0293em;">a</tspan><tspan x="118.51758" y="14.3999">x s</tspan><tspan x="133.39453" y="14.3999" style="letter-spacing: -.01758em;">o</tspan><tspan x="139.85742" y="14.3999" style="letter-spacing: -.00049em;">w</tspan><tspan x="148.74609" y="14.3999">ie </tspan><tspan x="160.5293" y="14.3999" style="letter-spacing: .00439em;">f</tspan><tspan x="163.6875" y="14.3999">ür Spa</tspan><tspan x="197.92383" y="14.3999" style="letter-spacing: .03076em;">r</tspan><tspan x="202.07227" y="14.3999" style="letter-spacing: -.00488em;">t</tspan><tspan x="205.56445" y="14.3999" style="letter-spacing: -.00781em;">a</tspan><tspan x="211.69922" y="14.3999" style="letter-spacing: .00146em;">g</tspan><tspan x="218.39062" y="14.3999" style="letter-spacing: .00098em;">e</tspan><tspan x="224.63086" y="14.3999" style="letter-spacing: -.00488em;">s</tspan><tspan x="230.34375" y="14.3999">ka</tspan><tspan x="242.57227" y="14.3999" style="letter-spacing: .03076em;">r</tspan><tspan x="246.7207" y="14.3999" style="letter-spacing: -.02832em;">t</tspan><tspan x="249.93164" y="14.3999">e / A</tspan><tspan x="274.38232" y="14.3999" style="letter-spacing: .02441em;">k</tspan><tspan x="280.67529" y="14.3999" style="letter-spacing: -.01172em;">t</tspan><tspan x="284.08545" y="14.3999">ion</tspan><tspan x="299.42529" y="14.3999" style="letter-spacing: -.0083em;">s</tspan><tspan x="305.09717" y="14.3999" style="letter-spacing: -.00488em;">t</tspan><tspan x="308.58936" y="14.3999" style="letter-spacing: -.00781em;">a</tspan><tspan x="314.72412" y="14.3999" style="letter-spacing: .00146em;">g</tspan><tspan x="321.41553" y="14.3999" style="letter-spacing: .00098em;">e</tspan><tspan x="327.65576" y="14.3999" style="letter-spacing: -.00488em;">s</tspan><tspan x="333.36865" y="14.3999">ka</tspan><tspan x="345.59717" y="14.3999" style="letter-spacing: .03076em;">r</tspan><tspan x="349.74561" y="14.3999" style="letter-spacing: -.02832em;">t</tspan><tspan x="352.95654" y="14.3999">e /</tspan><tspan x="0" y="28.7998">(Spa</tspan><tspan x="23.57227" y="28.7998" style="letter-spacing: -.06885em;">r</tspan><tspan x="26.52539" y="28.7998">-)</tspan><tspan x="33.86133" y="28.7998" style="letter-spacing: -.09229em;">T</tspan><tspan x="39.42773" y="28.7998" style="letter-spacing: -.00781em;">a</tspan><tspan x="45.5625" y="28.7998" style="letter-spacing: .00146em;">g</tspan><tspan x="52.25391" y="28.7998" style="letter-spacing: .00098em;">e</tspan><tspan x="58.49414" y="28.7998" style="letter-spacing: -.00488em;">s</tspan><tspan x="64.20703" y="28.7998">ka</tspan><tspan x="76.43555" y="28.7998" style="letter-spacing: .03076em;">r</tspan><tspan x="80.58398" y="28.7998" style="letter-spacing: -.02832em;">t</tspan><tspan x="83.79492" y="28.7998">e </tspan><tspan x="93.35742" y="28.7998" style="letter-spacing: .00146em;">G</tspan><tspan x="102.26953" y="28.7998">emeinde </tspan><tspan x="149.8418" y="28.7998" style="letter-spacing: -.01123em;">z</tspan><tspan x="155.26172" y="28.7998">u</tspan><tspan x="161.70703" y="28.7998" style="letter-spacing: .00195em;">s</tspan><tspan x="167.50195" y="28.7998">ammen mit </tspan><tspan x="228.83203" y="28.7998" style="letter-spacing: -.00293em;">H</tspan><tspan x="237.24609" y="28.7998">alb</tspan><tspan x="252.58594" y="28.7998" style="letter-spacing: -.00488em;">t</tspan><tspan x="256.07812" y="28.7998" style="letter-spacing: .0293em;">a</tspan><tspan x="262.6582" y="28.7998" style="letter-spacing: -.06051em;">x</tspan><tspan x="267.70312" y="28.7998" style="letter-spacing: -.00883em;">-</tspan><tspan x="272.03857" y="28.7998" style="letter-spacing: .00781em;">A</tspan><tspan x="279.69092" y="28.7998">bo</tspan></text>
  </g>
  <g id="legend">
    <rect id="rect426128-0-8-3-9-2" x="9.4567" y="77.63168" width="172.58924" height="111.4831" rx="1.98425" ry="1.98425" style="fill: #fff; stroke-width: 0px;"/>
    <g id="scaleline">
      <text transform="translate(62.55941 178.11909)" style="font-family: SBBWeb-Roman,'SBB Web',Arial, &apos;SBB Web&apos;; font-size: 6px; isolation: isolate;"><tspan x="0" y="0">50 </tspan><tspan x="8.34082" y="0" style="letter-spacing: .00342em;">k</tspan><tspan x="11.47559" y="0">m</tspan></text>
      <path id="path1881" d="M125.03925,172.29786v9.43987l-107.43307.05203v-9.49333" style="fill: none; stroke: #000; stroke-miterlimit: 3; stroke-width: .9031px;"/>
    </g>
    <g>
      <text transform="translate(17.07455 114.12088)" style="font-family: SBBWeb-Roman,'SBB Web',Arial, &apos;SBB Web&apos;; font-size: 6px; isolation: isolate;"><tspan x="0" y="0">Bahnen</tspan></text>
      <g>
        <line x1="18.28986" y1="100.56431" x2="45.9533" y2="100.56431" style="fill: none; stroke: #eb0000; stroke-linecap: square; stroke-miterlimit: 3; stroke-width: 1.41732px;"/>
        <g>
          <line x1="18.28988" y1="104.32557" x2="18.28988" y2="104.32557" style="fill: none; stroke: #eb0000; stroke-linecap: round; stroke-miterlimit: 3; stroke-width: 1.41732px;"/>
          <line x1="21.05624" y1="104.32557" x2="44.57015" y2="104.32557" style="fill: none; stroke: #eb0000; stroke-dasharray: 0 0 0 2.76634; stroke-linecap: round; stroke-miterlimit: 3; stroke-width: 1.41732px;"/>
          <line x1="45.95333" y1="104.32557" x2="45.95333" y2="104.32557" style="fill: none; stroke: #eb0000; stroke-linecap: round; stroke-miterlimit: 3; stroke-width: 1.41732px;"/>
        </g>
      </g>
    </g>
    <g>
      <text transform="translate(102.43783 114.22537)" style="font-family: SBBWeb-Roman,'SBB Web',Arial, &apos;SBB Web&apos;; font-size: 6px; isolation: isolate;"><tspan x="0" y="0">Seilbahnen</tspan></text>
      <g>
        <line x1="103.35795" y1="100.56431" x2="131.02139" y2="100.56431" style="fill: none; stroke: #000; stroke-linecap: square; stroke-miterlimit: 3; stroke-width: 1.41732px;"/>
        <g>
          <line x1="103.358" y1="104.32557" x2="103.358" y2="104.32557" style="fill: none; stroke: #000; stroke-linecap: round; stroke-miterlimit: 3; stroke-width: 1.41732px;"/>
          <line x1="106.12435" y1="104.32557" x2="129.63827" y2="104.32557" style="fill: none; stroke: #000; stroke-dasharray: 0 0 0 2.76634; stroke-linecap: round; stroke-miterlimit: 3; stroke-width: 1.41732px;"/>
          <line x1="131.02145" y1="104.32557" x2="131.02145" y2="104.32557" style="fill: none; stroke: #000; stroke-linecap: round; stroke-miterlimit: 3; stroke-width: 1.41732px;"/>
        </g>
      </g>
    </g>
    <g>
      <g id="text402292-9-5-9-7-1" style="isolation: isolate;">
        <text transform="translate(145.11947 146.9324)" style="font-family: SBBWeb-Roman,'SBB Web',Arial, &apos;SBB Web&apos;; font-size: 6px; isolation: isolate;"><tspan x="0" y="0">Gül</tspan><tspan x="9.22266" y="0" style="letter-spacing: -.0127em;">t</tspan><tspan x="11.03613" y="0" style="letter-spacing: -.00146em;">i</tspan><tspan x="12.36035" y="0" style="letter-spacing: -.00293em;">g</tspan><tspan x="15.78809" y="0" style="letter-spacing: -.0249em;">k</tspan><tspan x="18.75293" y="0">eit</tspan></text>
        <text transform="translate(145.11947 154.13259)" style="font-family: SBBWeb-Roman,'SBB Web',Arial, &apos;SBB Web&apos;; font-size: 6px;"><tspan x="0" y="0" style="letter-spacing: -.02301em;">v</tspan><tspan x="2.86192" y="0">or O</tspan><tspan x="14.53151" y="0" style="letter-spacing: .03123em;">r</tspan><tspan x="16.71691" y="0">t</tspan><tspan x="0" y="7.19971">anf</tspan><tspan x="8.33528" y="7.19971" style="letter-spacing: -.00345em;">ra</tspan><tspan x="13.51179" y="7.19971" style="letter-spacing: -.00099em;">ge</tspan><tspan x="20.1735" y="7.19971">n</tspan></text>
      </g>
      <g>
        <line x1="145.89254" y1="137.15077" x2="145.89254" y2="137.15077" style="fill: none; stroke: #999; stroke-linecap: round; stroke-miterlimit: 3; stroke-width: 1.41732px;"/>
        <line x1="148.6589" y1="137.15077" x2="172.17281" y2="137.15077" style="fill: none; stroke: #999; stroke-dasharray: 0 0 0 2.76634; stroke-linecap: round; stroke-miterlimit: 3; stroke-width: 1.41732px;"/>
        <line x1="173.55599" y1="137.15077" x2="173.55599" y2="137.15077" style="fill: none; stroke: #999; stroke-linecap: round; stroke-miterlimit: 3; stroke-width: 1.41732px;"/>
      </g>
    </g>
    <g>
      <text transform="translate(145.11947 114.22537)" style="font-family: SBBWeb-Roman,'SBB Web',Arial, &apos;SBB Web&apos;; font-size: 6px; isolation: isolate;"><tspan x="0" y="0" style="letter-spacing: .00049em;">S</tspan><tspan x="3.89062" y="0" style="letter-spacing: -.00342em;">c</tspan><tspan x="7.09277" y="0">hi</tspan><tspan x="11.7627" y="0" style="letter-spacing: .02344em;">f</tspan><tspan x="13.67871" y="0" style="letter-spacing: -.01904em;">f</tspan><tspan x="15.33984" y="0">e</tspan></text>
      <g>
        <line x1="145.8925" y1="100.56431" x2="173.55594" y2="100.56431" style="fill: none; stroke: #2a6698; stroke-linecap: square; stroke-miterlimit: 3; stroke-width: 1.41732px;"/>
        <g>
          <line x1="145.89254" y1="104.32557" x2="145.89254" y2="104.32557" style="fill: none; stroke: #2a6698; stroke-linecap: round; stroke-miterlimit: 3; stroke-width: 1.41732px;"/>
          <line x1="148.6589" y1="104.32557" x2="172.17281" y2="104.32557" style="fill: none; stroke: #2a6698; stroke-dasharray: 0 0 0 2.76634; stroke-linecap: round; stroke-miterlimit: 3; stroke-width: 1.41732px;"/>
          <line x1="173.55599" y1="104.32557" x2="173.55599" y2="104.32557" style="fill: none; stroke: #2a6698; stroke-linecap: round; stroke-miterlimit: 3; stroke-width: 1.41732px;"/>
        </g>
      </g>
    </g>
    <g>
      <text transform="translate(59.80599 114.21414)" style="font-family: SBBWeb-Roman,'SBB Web',Arial, &apos;SBB Web&apos;; font-size: 6px; isolation: isolate;"><tspan x="0" y="0" style="letter-spacing: -.00586em;">A</tspan><tspan x="3.85254" y="0">u</tspan><tspan x="7.18945" y="0" style="letter-spacing: -.02246em;">t</tspan><tspan x="8.94434" y="0">obu</tspan><tspan x="19.2832" y="0" style="letter-spacing: .00488em;">s</tspan><tspan x="22.3125" y="0">se</tspan></text>
      <g>
        <line x1="61.07005" y1="100.56431" x2="88.24278" y2="100.56431" style="fill: none; stroke: #3b3b3b; stroke-linecap: square; stroke-miterlimit: 3; stroke-width: 1.98425px;"/>
        <g>
          <line x1="60.82406" y1="104.32557" x2="60.82406" y2="104.32557" style="fill: none; stroke: #3b3b3b; stroke-linecap: round; stroke-miterlimit: 3; stroke-width: 1.98425px;"/>
          <line x1="63.59042" y1="104.32557" x2="87.10433" y2="104.32557" style="fill: none; stroke: #3b3b3b; stroke-dasharray: 0 0 0 2.76634; stroke-linecap: round; stroke-miterlimit: 3; stroke-width: 1.98425px;"/>
          <line x1="88.48751" y1="104.32557" x2="88.48751" y2="104.32557" style="fill: none; stroke: #3b3b3b; stroke-linecap: round; stroke-miterlimit: 3; stroke-width: 1.98425px;"/>
        </g>
        <line x1="60.82412" y1="100.56431" x2="88.48756" y2="100.56431" style="fill: none; stroke: #fbd700; stroke-linecap: square; stroke-miterlimit: 3; stroke-width: 1.41732px;"/>
        <g>
          <line x1="60.82406" y1="104.32557" x2="60.82406" y2="104.32557" style="fill: none; stroke: #fbd700; stroke-linecap: round; stroke-miterlimit: 3; stroke-width: 1.41732px;"/>
          <line x1="63.59042" y1="104.32557" x2="87.10433" y2="104.32557" style="fill: none; stroke: #fbd700; stroke-dasharray: 0 0 0 2.76634; stroke-linecap: round; stroke-miterlimit: 3; stroke-width: 1.41732px;"/>
          <line x1="88.48751" y1="104.32557" x2="88.48751" y2="104.32557" style="fill: none; stroke: #fbd700; stroke-linecap: round; stroke-miterlimit: 3; stroke-width: 1.41732px;"/>
        </g>
      </g>
    </g>
    <g>
      <g id="text402292-9-5-9" style="isolation: isolate;">
        <text transform="translate(17.07455 146.93289)" style="font-family: SBBWeb-Roman,'SBB Web',Arial, &apos;SBB Web&apos;; font-size: 6px; isolation: isolate;"><tspan x="0" y="0" style="letter-spacing: -.02832em;">F</tspan><tspan x="3.27539" y="0" style="letter-spacing: -.01416em;">r</tspan><tspan x="5.18848" y="0">eie </tspan><tspan x="14.63379" y="0" style="letter-spacing: -.02686em;">F</tspan><tspan x="17.91797" y="0">ah</tspan><tspan x="24.47754" y="0" style="letter-spacing: .03125em;">r</tspan><tspan x="26.66309" y="0">t</tspan></text>
      </g>
      <g>
        <line x1="18.16719" y1="125.78279" x2="45.83062" y2="125.78279" style="fill: none; stroke: #eb0000; stroke-linecap: square; stroke-miterlimit: 3; stroke-width: 1.41732px;"/>
        <line x1="18.16719" y1="133.36145" x2="45.83062" y2="133.36145" style="fill: none; stroke: #000; stroke-linecap: square; stroke-miterlimit: 3; stroke-width: 1.41732px;"/>
        <line x1="18.16776" y1="137.15079" x2="45.8312" y2="137.15079" style="fill: none; stroke: #2a6698; stroke-linecap: square; stroke-miterlimit: 3; stroke-width: 1.41732px;"/>
        <g>
          <line x1="18.41312" y1="129.57212" x2="45.58584" y2="129.57212" style="fill: none; stroke: #3b3b3b; stroke-linecap: square; stroke-miterlimit: 3; stroke-width: 1.98425px;"/>
          <line x1="18.16719" y1="129.57212" x2="45.83062" y2="129.57212" style="fill: none; stroke: #fbd700; stroke-linecap: square; stroke-miterlimit: 3; stroke-width: 1.41732px;"/>
        </g>
      </g>
    </g>
    <g>
      <text transform="translate(59.75619 146.93289)" style="font-family: SBBWeb-Roman,'SBB Web',Arial, &apos;SBB Web&apos;; font-size: 6px; isolation: isolate;"><tspan x="0" y="0" style="letter-spacing: -.02686em;">F</tspan><tspan x="3.28418" y="0">ah</tspan><tspan x="9.84375" y="0" style="letter-spacing: .03125em;">r</tspan><tspan x="12.0293" y="0">t </tspan><tspan x="15.58594" y="0" style="letter-spacing: -.01172em;">z</tspan><tspan x="18.39551" y="0">um</tspan><tspan x="0" y="7.2002">e</tspan><tspan x="3.22266" y="7.2002" style="letter-spacing: .00439em;">r</tspan><tspan x="5.24707" y="7.2002">mä</tspan><tspan x="13.58789" y="7.2002" style="letter-spacing: .00488em;">s</tspan><tspan x="16.61719" y="7.2002">s</tspan><tspan x="19.61719" y="7.2002" style="letter-spacing: -.00146em;">i</tspan><tspan x="20.94141" y="7.2002" style="letter-spacing: -.00049em;">g</tspan><tspan x="24.38379" y="7.2002" style="letter-spacing: -.02051em;">t</tspan><tspan x="26.15039" y="7.2002">en</tspan><tspan x="0" y="14.3999">P</tspan><tspan x="3.8877" y="14.3999" style="letter-spacing: -.01416em;">r</tspan><tspan x="5.80078" y="14.3999">eis</tspan></text>
      <g>
        <line x1="60.82516" y1="125.78278" x2="60.82516" y2="125.78278" style="fill: none; stroke: #eb0000; stroke-linecap: round; stroke-miterlimit: 3; stroke-width: 1.41732px;"/>
        <line x1="63.59152" y1="125.78278" x2="87.10543" y2="125.78278" style="fill: none; stroke: #eb0000; stroke-dasharray: 0 0 0 2.76634; stroke-linecap: round; stroke-miterlimit: 3; stroke-width: 1.41732px;"/>
        <line x1="88.48861" y1="125.78278" x2="88.48861" y2="125.78278" style="fill: none; stroke: #eb0000; stroke-linecap: round; stroke-miterlimit: 3; stroke-width: 1.41732px;"/>
      </g>
      <g>
        <line x1="60.82516" y1="133.36146" x2="60.82516" y2="133.36146" style="fill: none; stroke: #000; stroke-linecap: round; stroke-miterlimit: 3; stroke-width: 1.41732px;"/>
        <line x1="63.59152" y1="133.36146" x2="87.10543" y2="133.36146" style="fill: none; stroke: #000; stroke-dasharray: 0 0 0 2.76634; stroke-linecap: round; stroke-miterlimit: 3; stroke-width: 1.41732px;"/>
        <line x1="88.48861" y1="133.36146" x2="88.48861" y2="133.36146" style="fill: none; stroke: #000; stroke-linecap: round; stroke-miterlimit: 3; stroke-width: 1.41732px;"/>
      </g>
      <g>
        <line x1="60.82516" y1="137.15077" x2="60.82516" y2="137.15077" style="fill: none; stroke: #2a6698; stroke-linecap: round; stroke-miterlimit: 3; stroke-width: 1.41732px;"/>
        <line x1="63.59152" y1="137.15077" x2="87.10543" y2="137.15077" style="fill: none; stroke: #2a6698; stroke-dasharray: 0 0 0 2.76634; stroke-linecap: round; stroke-miterlimit: 3; stroke-width: 1.41732px;"/>
        <line x1="88.48861" y1="137.15077" x2="88.48861" y2="137.15077" style="fill: none; stroke: #2a6698; stroke-linecap: round; stroke-miterlimit: 3; stroke-width: 1.41732px;"/>
      </g>
      <g>
        <g>
          <line x1="60.82516" y1="129.57209" x2="60.82516" y2="129.57209" style="fill: none; stroke: #3b3b3b; stroke-linecap: round; stroke-miterlimit: 3; stroke-width: 1.98425px;"/>
          <line x1="63.59152" y1="129.57209" x2="87.10543" y2="129.57209" style="fill: none; stroke: #3b3b3b; stroke-dasharray: 0 0 0 2.76634; stroke-linecap: round; stroke-miterlimit: 3; stroke-width: 1.98425px;"/>
          <line x1="88.48861" y1="129.57209" x2="88.48861" y2="129.57209" style="fill: none; stroke: #3b3b3b; stroke-linecap: round; stroke-miterlimit: 3; stroke-width: 1.98425px;"/>
        </g>
        <g>
          <line x1="60.82516" y1="129.57209" x2="60.82516" y2="129.57209" style="fill: none; stroke: #fbd700; stroke-linecap: round; stroke-miterlimit: 3; stroke-width: 1.41732px;"/>
          <line x1="63.59152" y1="129.57209" x2="87.10543" y2="129.57209" style="fill: none; stroke: #fbd700; stroke-dasharray: 0 0 0 2.76634; stroke-linecap: round; stroke-miterlimit: 3; stroke-width: 1.41732px;"/>
          <line x1="88.48861" y1="129.57209" x2="88.48861" y2="129.57209" style="fill: none; stroke: #fbd700; stroke-linecap: round; stroke-miterlimit: 3; stroke-width: 1.41732px;"/>
        </g>
      </g>
    </g>
    <g>
      <g id="text402292-9-5-9-7" style="isolation: isolate;">
        <text transform="translate(102.43783 146.93289)" style="font-family: SBBWeb-Roman,'SBB Web',Arial, &apos;SBB Web&apos;; font-size: 6px; isolation: isolate;"><tspan x="0" y="0" style="letter-spacing: -.02588em;">K</tspan><tspan x="3.84668" y="0">eine</tspan><tspan x="0" y="7.2002">E</tspan><tspan x="3.66504" y="7.2002" style="letter-spacing: .00439em;">r</tspan><tspan x="5.68945" y="7.2002">mä</tspan><tspan x="14.03027" y="7.2002" style="letter-spacing: .00488em;">s</tspan><tspan x="17.05957" y="7.2002">s</tspan><tspan x="20.05957" y="7.2002" style="letter-spacing: -.00146em;">i</tspan><tspan x="21.38379" y="7.2002">gu</tspan><tspan x="28.16602" y="7.2002" style="letter-spacing: -.00244em;">n</tspan><tspan x="31.48828" y="7.2002">g</tspan></text>
      </g>
      <line x1="103.35837" y1="137.15079" x2="131.02181" y2="137.15079" style="fill: none; stroke: #999; stroke-linecap: square; stroke-miterlimit: 3; stroke-width: 1.41732px;"/>
    </g>
    <g id="state-publisher">
      <g id="text2350" style="isolation: isolate;">
        <text transform="translate(41.78646 88.50125)" style="font-family: SBBWeb-Roman,'SBB Web',Arial, &apos;SBB Web&apos;; font-size: 6px; isolation: isolate;"><tspan x="0" y="0">***publishedAt</tspan><tspan x="38.25879" y="0">***</tspan></text>
      </g>
      <g id="text2347" style="isolation: isolate;">
        <text transform="translate(17.07455 88.50125)" style="font-family: SBBWeb-Roman,'SBB Web',Arial, &apos;SBB Web&apos;; font-size: 6px; isolation: isolate;"><tspan x="0" y="0">Stand:</tspan></text>
      </g>
    </g>
  </g>
</svg>