<svg xmlns="http://www.w3.org/2000/svg" width="1588" height="1122.667" viewBox="0 0 420.158 297.039"><path d="M2312.349 1040.636h21.911v485.416h-21.911z" style="fill:#fffffd;stroke-width:.90803" transform="matrix(.26458 0 0 .26458 -205.448 -114.73)"/><text x="-1522.568" y="2326.415" style="font-size:12.007px;font-family:ArialMT,Arial;isolation:isolate" transform="matrix(0 -.26458 .26458 0 -205.448 -114.73)"><tspan xml:space="preserve" x="-1522.568" y="2326.415">Quelle: OpenStreetMap contributors  © SBB/CFF/FFS www.traﬁmage.ch www.geops.ch</tspan></text><g style="stroke:none"><path d="M-883.626 457.431H566.746v39.794H-883.626z" style="fill:#fffffa;stroke-width:3.57566;stroke-dasharray:3.57566,3.57566" transform="matrix(.26458 0 0 .26458 241.793 157.482)"/><text xml:space="preserve" x="-832.993" y="500.156" style="font-style:italic;font-variant:normal;font-weight:400;font-stretch:normal;font-size:13.3333px;line-height:1.25;font-family:sans-serif;-inkscape-font-specification:&quot;sans-serif, Italic&quot;;font-variant-ligatures:normal;font-variant-caps:normal;font-variant-numeric:normal;font-variant-east-asian:normal;fill:#000;fill-opacity:1;stroke:none;stroke-width:1.05725" transform="matrix(.27973 0 0 .25025 241.793 157.482)"><tspan x="-832.993" y="500.156">Auf gewissen Autobuslinien ist ein Zuschlag und/oder eine Platzreservierung erforderlich. Bitte beachten Sie zudem, dass vom 21. März bis zum 31. Oktober für Velos in InterCity (IC)-Zügen eine Veloplatzreservation obligatorisch ist.</tspan><tspan x="-832.993" y="516.822">Bitte beachten Sie die Hinweise für die gewünschte Verbindung im (Online-)Fahrplan.</tspan></text></g><g style="stroke:none"><path d="M0 0h255v255H0z" style="fill:#fff;fill-opacity:1" transform="translate(7.435 248.941) scale(.10656)"/><path d="M0 0h245v245H0z" style="fill:#fff;fill-opacity:1" transform="translate(7.968 249.474) scale(.10656)"/><path d="M7 7h7v7H7Zm7 0h7v7h-7zm7 0h7v7h-7zm7 0h7v7h-7zm7 0h7v7h-7zm7 0h7v7h-7zm7 0h7v7h-7zm28 0h7v7h-7zm14 0h7v7h-7zm28 0h7v7h-7zm21 0h7v7h-7zm7 0h7v7h-7zm7 0h7v7h-7zm7 0h7v7h-7zm7 0h7v7h-7zm21 0h7v7h-7zm7 0h7v7h-7zm7 0h7v7h-7zm7 0h7v7h-7zm7 0h7v7h-7zm7 0h7v7h-7zm7 0h7v7h-7zM7 14h7v7H7Zm42 0h7v7h-7zm14 0h7v7h-7zm14 0h7v7h-7zm21 0h7v7h-7zm14 0h7v7h-7zm7 0h7v7h-7zm7 0h7v7h-7zm7 0h7v7h-7zm14 0h7v7h-7zm7 0h7v7h-7zm7 0h7v7h-7zm28 0h7v7h-7zm42 0h7v7h-7zM7 21h7v7H7Zm14 0h7v7h-7zm7 0h7v7h-7zm7 0h7v7h-7zm14 0h7v7h-7zm42 0h7v7h-7zm49 0h7v7h-7zm7 0h7v7h-7zm7 0h7v7h-7zm35 0h7v7h-7zm14 0h7v7h-7zm7 0h7v7h-7zm7 0h7v7h-7zm14 0h7v7h-7zM7 28h7v7H7Zm14 0h7v7h-7zm7 0h7v7h-7zm7 0h7v7h-7zm14 0h7v7h-7zm14 0h7v7h-7zm7 0h7v7h-7zm7 0h7v7h-7zm14 0h7v7h-7zm7 0h7v7h-7zm7 0h7v7h-7zm7 0h7v7h-7zm7 0h7v7h-7zm7 0h7v7h-7zm7 0h7v7h-7zm7 0h7v7h-7zm21 0h7v7h-7zm14 0h7v7h-7zm14 0h7v7h-7zm14 0h7v7h-7zm7 0h7v7h-7zm7 0h7v7h-7zm14 0h7v7h-7zM7 35h7v7H7Zm14 0h7v7h-7zm7 0h7v7h-7zm7 0h7v7h-7zm14 0h7v7h-7zm21 0h7v7h-7zm49 0h7v7h-7zm7 0h7v7h-7zm7 0h7v7h-7zm7 0h7v7h-7zm7 0h7v7h-7zm7 0h7v7h-7zm7 0h7v7h-7zm7 0h7v7h-7zm21 0h7v7h-7zm14 0h7v7h-7zm7 0h7v7h-7zm7 0h7v7h-7zm14 0h7v7h-7zM7 42h7v7H7Zm42 0h7v7h-7zm14 0h7v7h-7zm7 0h7v7h-7zm14 0h7v7h-7zm7 0h7v7h-7zm14 0h7v7h-7zm7 0h7v7h-7zm7 0h7v7h-7zm7 0h7v7h-7zm28 0h7v7h-7zm7 0h7v7h-7zm14 0h7v7h-7zm14 0h7v7h-7zm42 0h7v7h-7zM7 49h7v7H7Zm7 0h7v7h-7zm7 0h7v7h-7zm7 0h7v7h-7zm7 0h7v7h-7zm7 0h7v7h-7zm7 0h7v7h-7zm14 0h7v7h-7zm14 0h7v7h-7zm14 0h7v7h-7zm14 0h7v7h-7zm14 0h7v7h-7zm14 0h7v7h-7zm14 0h7v7h-7zm14 0h7v7h-7zm14 0h7v7h-7zm14 0h7v7h-7zm7 0h7v7h-7zm7 0h7v7h-7zm7 0h7v7h-7zm7 0h7v7h-7zm7 0h7v7h-7zm7 0h7v7h-7zM70 56h7v7h-7zm7 0h7v7h-7zm7 0h7v7h-7zm21 0h7v7h-7zm14 0h7v7h-7zm21 0h7v7h-7zm14 0h7v7h-7zM7 63h7v7H7Zm7 0h7v7h-7zm7 0h7v7h-7zm7 0h7v7h-7zm7 0h7v7h-7zm14 0h7v7h-7zm7 0h7v7h-7zm7 0h7v7h-7zm7 0h7v7h-7zm14 0h7v7h-7zm14 0h7v7h-7zm7 0h7v7h-7zm7 0h7v7h-7zm14 0h7v7h-7zm35 0h7v7h-7zm7 0h7v7h-7zm7 0h7v7h-7zm7 0h7v7h-7zm14 0h7v7h-7zm14 0h7v7h-7zm14 0h7v7h-7zM7 70h7v7H7Zm21 0h7v7h-7zm14 0h7v7h-7zm21 0h7v7h-7zm14 0h7v7h-7zm14 0h7v7h-7zm14 0h7v7h-7zm14 0h7v7h-7zm14 0h7v7h-7zm7 0h7v7h-7zm7 0h7v7h-7zm7 0h7v7h-7zm14 0h7v7h-7zm21 0h7v7h-7zm7 0h7v7h-7zm21 0h7v7h-7zm7 0h7v7h-7zm7 0h7v7h-7zM7 77h7v7H7Zm42 0h7v7h-7zm7 0h7v7h-7zm21 0h7v7h-7zm21 0h7v7h-7zm14 0h7v7h-7zm14 0h7v7h-7zm21 0h7v7h-7zm7 0h7v7h-7zm7 0h7v7h-7zm14 0h7v7h-7zm7 0h7v7h-7zm7 0h7v7h-7zm7 0h7v7h-7zm7 0h7v7h-7zm7 0h7v7h-7zm14 0h7v7h-7zM14 84h7v7h-7zm14 0h7v7h-7zm14 0h7v7h-7zm14 0h7v7h-7zm35 0h7v7h-7zm28 0h7v7h-7zm35 0h7v7h-7zm7 0h7v7h-7zm28 0h7v7h-7zm7 0h7v7h-7zm21 0h7v7h-7zM7 91h7v7H7Zm7 0h7v7h-7zm7 0h7v7h-7zm7 0h7v7h-7zm21 0h7v7h-7zm14 0h7v7h-7zm7 0h7v7h-7zm7 0h7v7h-7zm14 0h7v7h-7zm7 0h7v7h-7zm7 0h7v7h-7zm21 0h7v7h-7zm42 0h7v7h-7zm7 0h7v7h-7zm7 0h7v7h-7zm14 0h7v7h-7zm7 0h7v7h-7zm7 0h7v7h-7zM14 98h7v7h-7zm7 0h7v7h-7zm14 0h7v7h-7zm21 0h7v7h-7zm7 0h7v7h-7zm56 0h7v7h-7zm14 0h7v7h-7zm7 0h7v7h-7zm7 0h7v7h-7zm21 0h7v7h-7zm21 0h7v7h-7zm35 0h7v7h-7zm7 0h7v7h-7zm-217 7h7v7h-7zm7 0h7v7h-7zm7 0h7v7h-7zm7 0h7v7h-7zm14 0h7v7h-7zm7 0h7v7h-7zm21 0h7v7h-7zm7 0h7v7h-7zm7 0h7v7h-7zm14 0h7v7h-7zm7 0h7v7h-7zm7 0h7v7h-7zm14 0h7v7h-7zm14 0h7v7h-7zm7 0h7v7h-7zm7 0h7v7h-7zm35 0h7v7h-7zm7 0h7v7h-7zm21 0h7v7h-7zM7 112h7v7H7Zm35 0h7v7h-7zm35 0h7v7h-7zm7 0h7v7h-7zm21 0h7v7h-7zm7 0h7v7h-7zm7 0h7v7h-7zm21 0h7v7h-7zm7 0h7v7h-7zm7 0h7v7h-7zm7 0h7v7h-7zm14 0h7v7h-7zm7 0h7v7h-7zm7 0h7v7h-7zm7 0h7v7h-7zm21 0h7v7h-7zM7 119h7v7H7Zm7 0h7v7h-7zm7 0h7v7h-7zm21 0h7v7h-7zm7 0h7v7h-7zm14 0h7v7h-7zm14 0h7v7h-7zm7 0h7v7h-7zm7 0h7v7h-7zm7 0h7v7h-7zm7 0h7v7h-7zm7 0h7v7h-7zm7 0h7v7h-7zm7 0h7v7h-7zm7 0h7v7h-7zm7 0h7v7h-7zm21 0h7v7h-7zm7 0h7v7h-7zm7 0h7v7h-7zm7 0h7v7h-7zm14 0h7v7h-7zm7 0h7v7h-7zm21 0h7v7h-7zm-210 7h7v7h-7zm7 0h7v7h-7zm7 0h7v7h-7zm7 0h7v7h-7zm21 0h7v7h-7zm7 0h7v7h-7zm28 0h7v7h-7zm7 0h7v7h-7zm21 0h7v7h-7zm7 0h7v7h-7zm7 0h7v7h-7zm7 0h7v7h-7zm14 0h7v7h-7zm14 0h7v7h-7zm21 0h7v7h-7zm21 0h7v7h-7zm14 0h7v7h-7zm7 0h7v7h-7zm-203 7h7v7h-7zm14 0h7v7h-7zm7 0h7v7h-7zm7 0h7v7h-7zm35 0h7v7h-7zm21 0h7v7h-7zm14 0h7v7h-7zm21 0h7v7h-7zm7 0h7v7h-7zm21 0h7v7h-7zm14 0h7v7h-7zm14 0h7v7h-7zm7 0h7v7h-7zm14 0h7v7h-7zM7 140h7v7H7Zm7 0h7v7h-7zm7 0h7v7h-7zm21 0h7v7h-7zm63 0h7v7h-7zm7 0h7v7h-7zm7 0h7v7h-7zm28 0h7v7h-7zm7 0h7v7h-7zm7 0h7v7h-7zm7 0h7v7h-7zm7 0h7v7h-7zm21 0h7v7h-7zm21 0h7v7h-7zM7 147h7v7H7Zm7 0h7v7h-7zm7 0h7v7h-7zm14 0h7v7h-7zm7 0h7v7h-7zm7 0h7v7h-7zm28 0h7v7h-7zm7 0h7v7h-7zm7 0h7v7h-7zm7 0h7v7h-7zm7 0h7v7h-7zm7 0h7v7h-7zm7 0h7v7h-7zm7 0h7v7h-7zm35 0h7v7h-7zm14 0h7v7h-7zm28 0h7v7h-7zm21 0h7v7h-7zM7 154h7v7H7Zm7 0h7v7h-7zm14 0h7v7h-7zm7 0h7v7h-7zm7 0h7v7h-7zm14 0h7v7h-7zm7 0h7v7h-7zm14 0h7v7h-7zm7 0h7v7h-7zm35 0h7v7h-7zm14 0h7v7h-7zm7 0h7v7h-7zm7 0h7v7h-7zm21 0h7v7h-7zm21 0h7v7h-7zm21 0h7v7h-7zm14 0h7v7h-7zm7 0h7v7h-7zM7 161h7v7H7Zm21 0h7v7h-7zm7 0h7v7h-7zm7 0h7v7h-7zm7 0h7v7h-7zm7 0h7v7h-7zm7 0h7v7h-7zm35 0h7v7h-7zm14 0h7v7h-7zm14 0h7v7h-7zm35 0h7v7h-7zm21 0h7v7h-7zm7 0h7v7h-7zm7 0h7v7h-7zm7 0h7v7h-7zm7 0h7v7h-7zm14 0h7v7h-7zM7 168h7v7H7Zm28 0h7v7h-7zm21 0h7v7h-7zm21 0h7v7h-7zm28 0h7v7h-7zm7 0h7v7h-7zm7 0h7v7h-7zm28 0h7v7h-7zm7 0h7v7h-7zm14 0h7v7h-7zm14 0h7v7h-7zm7 0h7v7h-7zm14 0h7v7h-7zm7 0h7v7h-7zm7 0h7v7h-7zM7 175h7v7H7Zm21 0h7v7h-7zm7 0h7v7h-7zm7 0h7v7h-7zm7 0h7v7h-7zm7 0h7v7h-7zm21 0h7v7h-7zm7 0h7v7h-7zm7 0h7v7h-7zm7 0h7v7h-7zm7 0h7v7h-7zm21 0h7v7h-7zm21 0h7v7h-7zm14 0h7v7h-7zm7 0h7v7h-7zm7 0h7v7h-7zm7 0h7v7h-7zm7 0h7v7h-7zm7 0h7v7h-7zm7 0h7v7h-7zm7 0h7v7h-7zm21 0h7v7h-7zm-168 7h7v7h-7zm14 0h7v7h-7zm7 0h7v7h-7zm14 0h7v7h-7zm21 0h7v7h-7zm14 0h7v7h-7zm7 0h7v7h-7zm7 0h7v7h-7zm7 0h7v7h-7zm21 0h7v7h-7zm28 0h7v7h-7zm7 0h7v7h-7zm7 0h7v7h-7zm14 0h7v7h-7zM7 189h7v7H7Zm7 0h7v7h-7zm7 0h7v7h-7zm7 0h7v7h-7zm7 0h7v7h-7zm7 0h7v7h-7zm7 0h7v7h-7zm14 0h7v7h-7zm7 0h7v7h-7zm21 0h7v7h-7zm21 0h7v7h-7zm7 0h7v7h-7zm14 0h7v7h-7zm14 0h7v7h-7zm14 0h7v7h-7zm7 0h7v7h-7zm7 0h7v7h-7zm14 0h7v7h-7zm14 0h7v7h-7zm7 0h7v7h-7zm14 0h7v7h-7zM7 196h7v7H7Zm42 0h7v7h-7zm21 0h7v7h-7zm7 0h7v7h-7zm35 0h7v7h-7zm7 0h7v7h-7zm21 0h7v7h-7zm7 0h7v7h-7zm7 0h7v7h-7zm7 0h7v7h-7zm14 0h7v7h-7zm28 0h7v7h-7zm7 0h7v7h-7zm7 0h7v7h-7zm7 0h7v7h-7zm7 0h7v7h-7zM7 203h7v7H7Zm14 0h7v7h-7zm7 0h7v7h-7zm7 0h7v7h-7zm14 0h7v7h-7zm14 0h7v7h-7zm7 0h7v7h-7zm7 0h7v7h-7zm21 0h7v7h-7zm14 0h7v7h-7zm14 0h7v7h-7zm7 0h7v7h-7zm7 0h7v7h-7zm21 0h7v7h-7zm14 0h7v7h-7zm7 0h7v7h-7zm7 0h7v7h-7zm7 0h7v7h-7zm7 0h7v7h-7zm7 0h7v7h-7zm14 0h7v7h-7zM7 210h7v7H7Zm14 0h7v7h-7zm7 0h7v7h-7zm7 0h7v7h-7zm14 0h7v7h-7zm14 0h7v7h-7zm21 0h7v7h-7zm14 0h7v7h-7zm21 0h7v7h-7zm7 0h7v7h-7zm7 0h7v7h-7zm7 0h7v7h-7zm7 0h7v7h-7zm7 0h7v7h-7zm14 0h7v7h-7zm7 0h7v7h-7zm7 0h7v7h-7zm14 0h7v7h-7zm7 0h7v7h-7zm7 0h7v7h-7zm7 0h7v7h-7zM7 217h7v7H7Zm14 0h7v7h-7zm7 0h7v7h-7zm7 0h7v7h-7zm14 0h7v7h-7zm14 0h7v7h-7zm14 0h7v7h-7zm14 0h7v7h-7zm7 0h7v7h-7zm7 0h7v7h-7zm7 0h7v7h-7zm7 0h7v7h-7zm35 0h7v7h-7zm7 0h7v7h-7zm7 0h7v7h-7zm7 0h7v7h-7zm14 0h7v7h-7zm7 0h7v7h-7zm14 0h7v7h-7zm14 0h7v7h-7zM7 224h7v7H7Zm42 0h7v7h-7zm14 0h7v7h-7zm7 0h7v7h-7zm7 0h7v7h-7zm14 0h7v7h-7zm28 0h7v7h-7zm21 0h7v7h-7zm14 0h7v7h-7zm7 0h7v7h-7zm21 0h7v7h-7zm21 0h7v7h-7zm7 0h7v7h-7zm7 0h7v7h-7zM7 231h7v7H7Zm7 0h7v7h-7zm7 0h7v7h-7zm7 0h7v7h-7zm7 0h7v7h-7zm7 0h7v7h-7zm7 0h7v7h-7zm14 0h7v7h-7zm21 0h7v7h-7zm7 0h7v7h-7zm7 0h7v7h-7zm7 0h7v7h-7zm7 0h7v7h-7zm14 0h7v7h-7zm35 0h7v7h-7zm7 0h7v7h-7zm7 0h7v7h-7zm35 0h7v7h-7zm14 0h7v7h-7z" style="fill:#000" transform="translate(7.968 249.474) scale(.10656)"/></g><path d="M-894.753 241.347h164.841v211.427h-164.841z" style="fill:#fff;fill-opacity:1;stroke:none;stroke-width:19.0617;stroke-miterlimit:4;stroke-dasharray:19.0617,19.0617;stroke-dashoffset:0;stroke-opacity:1" transform="matrix(.26458 0 0 .26458 244.172 10.798)"/><path d="M-891.091 300.798h156.397v25.757h-156.397z" style="fill:#fff;fill-opacity:1;stroke:none;stroke-width:6.48054;stroke-miterlimit:4;stroke-dasharray:6.48054,6.48054;stroke-dashoffset:0;stroke-opacity:1" transform="matrix(.26458 0 0 .26458 244.198 29.462)"/><path d="M-890.91 311.074h55.996v2.47h-55.996z" style="fill:#b4b4b4;fill-opacity:1;stroke:#b4b4b4;stroke-width:.553564;stroke-miterlimit:4;stroke-dasharray:none;stroke-dashoffset:0;stroke-opacity:1" transform="matrix(.26458 0 0 .26458 244.198 29.462)"/><text xml:space="preserve" x="-819.907" y="318.406" style="font-style:normal;font-weight:400;font-size:16px;line-height:1.25;font-family:sans-serif;fill:#000;fill-opacity:1;stroke:none;stroke-width:.264583" transform="matrix(.26458 0 0 .26458 244.198 29.462)"><tspan x="-819.907" y="318.406" style="font-size:16px;stroke-width:.264583">Freie Fahrt</tspan></text><path d="M-899.583 292.246h211.958v42.227h-211.958z" style="fill:#fff;fill-opacity:1;stroke:none;stroke-width:9.65978;stroke-miterlimit:4;stroke-dasharray:9.65978,9.65978;stroke-dashoffset:0;stroke-opacity:1" transform="matrix(.26458 0 0 .26458 245.45 42.098)"/><text xml:space="preserve" x="-823.088" y="304.099" style="font-style:normal;font-variant:normal;font-weight:400;font-stretch:normal;font-size:16px;line-height:1.25;font-family:sans-serif;-inkscape-font-specification:&quot;sans-serif, Normal&quot;;font-variant-ligatures:normal;font-variant-caps:normal;font-variant-numeric:normal;font-variant-east-asian:normal;fill:#000;fill-opacity:1;stroke:none;stroke-width:.264583" transform="matrix(.26458 0 0 .26458 245.45 42.098)"><tspan x="-823.088" y="304.099">Gültigkeit</tspan><tspan x="-823.088" y="324.099">vor Ort anfragen</tspan></text><path d="M-895.92 309.575h55.997" style="fill:none;stroke:#b4b4b4;stroke-width:3.02362;stroke-linecap:butt;stroke-linejoin:miter;stroke-miterlimit:4;stroke-dasharray:3.02362,3.02362;stroke-dashoffset:0;stroke-opacity:1" transform="matrix(.26458 0 0 .26458 245.45 42.098)"/><path d="M-112.334 187.343h212.865v40.768h-212.865z" style="fill:#fff;fill-opacity:1;stroke:none;stroke-width:9.51171;stroke-miterlimit:4;stroke-dasharray:9.51171,9.51171;stroke-dashoffset:0;stroke-opacity:1" transform="matrix(.26458 0 0 .26458 38.126 45.638)"/><path d="M-112.334 219.171h55.997" style="fill:none;stroke:#eb0000;stroke-width:3.02362;stroke-linecap:butt;stroke-linejoin:miter;stroke-miterlimit:4;stroke-dasharray:3.02362,3.02362;stroke-dashoffset:0;stroke-opacity:1" transform="matrix(.26458 0 0 .26458 38.126 45.638)"/><path d="M-112.334 212.148h55.997" style="fill:none;stroke:#000;stroke-width:3.02362;stroke-linecap:butt;stroke-linejoin:miter;stroke-miterlimit:4;stroke-dasharray:3.02362,3.02362;stroke-dashoffset:0;stroke-opacity:1" transform="matrix(.26458 0 0 .26458 38.126 45.638)"/><path d="M-112.334 197.704h55.997" style="fill:none;stroke:#2a6698;stroke-width:3.02362;stroke-linecap:butt;stroke-linejoin:miter;stroke-miterlimit:4;stroke-dasharray:3.02362,3.02362;stroke-dashoffset:0;stroke-opacity:1" transform="matrix(.26458 0 0 .26458 38.126 45.638)"/><text xml:space="preserve" x="-41.15" y="203.045" style="font-style:normal;font-variant:normal;font-weight:400;font-stretch:normal;font-size:16px;line-height:1.25;font-family:sans-serif;-inkscape-font-specification:&quot;sans-serif, Normal&quot;;font-variant-ligatures:normal;font-variant-caps:normal;font-variant-numeric:normal;font-variant-east-asian:normal;fill:#000;fill-opacity:1;stroke:none;stroke-width:.264583" transform="matrix(.26458 0 0 .26458 38.126 45.638)"><tspan x="-41.15" y="203.045">Fahrt zum</tspan><tspan x="-41.15" y="223.045">ermässigten Preis</tspan></text><g style="fill:#fff200;fill-opacity:1;stroke:#4a4a4a;stroke-width:.39685;stroke-miterlimit:4;stroke-dasharray:none;stroke-opacity:1"><path d="M-112.533 53.021v3.024h3.023V53.02zm6.047 0v3.024h3.023V53.02zm6.047 0v3.024h3.023V53.02zm6.048 0v3.024h3.024V53.02zm6.047 0v3.024h3.024V53.02zm6.047 0v3.024h3.024V53.02zm6.047 0v3.024h3.023V53.02zm6.047 0v3.024h3.023V53.02zm6.049 0v3.024h3.023V53.02zm6.047 0v3.024h1.738V53.02z" style="color:#000;fill:#fff200;fill-opacity:1;stroke:#4a4a4a;stroke-width:.39685;stroke-miterlimit:4;stroke-dasharray:none;stroke-opacity:1" transform="matrix(.26458 0 0 .26458 38.157 85.43)"/></g><path d="M-891.091 293.249h156.397v40.768h-156.397z" style="fill:#fff;fill-opacity:1;stroke:none;stroke-width:8.15307;stroke-miterlimit:4;stroke-dasharray:8.15307,8.15307;stroke-dashoffset:0;stroke-opacity:1" transform="matrix(.26458 0 0 .26458 244.198 5.243)"/><path d="M-890.821 324.402h55.996v2.47h-55.996z" style="fill:#2a6698;fill-opacity:1;stroke:#2a6698;stroke-width:.553564;stroke-miterlimit:4;stroke-dasharray:none;stroke-dashoffset:0;stroke-opacity:1" transform="matrix(.26458 0 0 .26458 244.198 5.243)"/><path d="M-890.821 317.378h55.996v2.47h-55.996z" style="fill:#000;fill-opacity:1;stroke:#000;stroke-width:.553564;stroke-miterlimit:4;stroke-dasharray:none;stroke-dashoffset:0;stroke-opacity:1" transform="matrix(.26458 0 0 .26458 244.198 5.243)"/><path d="M-890.821 303.324h55.996v2.47h-55.996z" style="fill:#eb0000;fill-opacity:1;stroke:#eb0000;stroke-width:.553564;stroke-miterlimit:4;stroke-dasharray:none;stroke-dashoffset:0;stroke-opacity:1" transform="matrix(.26458 0 0 .26458 244.198 5.243)"/><text xml:space="preserve" x="-820.1" y="320.454" style="font-style:normal;font-weight:400;font-size:16px;line-height:1.25;font-family:sans-serif;fill:#000;fill-opacity:1;stroke:none;stroke-width:.264583" transform="matrix(.26458 0 0 .26458 244.198 5.243)"><tspan x="-820.1" y="320.454" style="font-size:16px;stroke-width:.264583">Freie Fahrt</tspan></text><g style="fill:#fff200;fill-opacity:1;stroke:#000;stroke-width:.566707;stroke-miterlimit:4;stroke-dasharray:.566707,.566707;stroke-dashoffset:0;stroke-opacity:1"><path d="M-112.279 47.736h55.794v4.622h-55.794z" style="color:#000;fill:#fff200;fill-opacity:1;stroke:#4a4a4a;stroke-width:.562954;stroke-miterlimit:4;stroke-dasharray:none;stroke-dashoffset:0;stroke-opacity:.996067" transform="matrix(.2652 0 0 .15462 38.287 79.946)"/></g><path d="M-894.815 155.584h164.841v103.518h-164.841z" style="fill:#fff;fill-opacity:1;stroke:none;stroke-width:13.3379;stroke-miterlimit:4;stroke-dasharray:13.3379,13.3379;stroke-dashoffset:0;stroke-opacity:1" transform="matrix(.26458 0 0 .26458 244.189 6.725)"/><path d="M-112.621 46.14H20.298v17.737h-132.919z" style="fill:#fff;fill-opacity:1;stroke:none;stroke-width:4.95768;stroke-miterlimit:4;stroke-dasharray:4.95768,4.95768;stroke-dashoffset:0;stroke-opacity:1" transform="matrix(.26458 0 0 .26458 38.248 35.964)"/><text xml:space="preserve" x="-39.937" y="62.15" style="font-style:normal;font-weight:400;font-size:16px;line-height:1.25;font-family:sans-serif;fill:#000;fill-opacity:1;stroke:none;stroke-width:.264583" transform="matrix(.26458 0 0 .26458 38.248 35.964)"><tspan x="-39.937" y="62.15" style="font-size:16px;stroke-width:.264583">Bahnen</tspan></text><path d="M-112.658 51.01h55.996v2.47h-55.996z" style="fill:#eb0000;fill-opacity:1;stroke:#eb0000;stroke-width:.553564;stroke-miterlimit:4;stroke-dasharray:none;stroke-dashoffset:0;stroke-opacity:1" transform="matrix(.26458 0 0 .26458 38.248 35.964)"/><path d="M-112.935 60.798h56.55" style="fill:none;stroke:#eb0000;stroke-width:3.02362;stroke-linecap:butt;stroke-linejoin:miter;stroke-miterlimit:4;stroke-dasharray:3.02362,3.02362;stroke-dashoffset:0;stroke-opacity:1" transform="matrix(.26458 0 0 .26458 38.248 35.964)"/><path d="M-112.733 47.281H43.173v17.737h-155.906z" style="fill:#fff;fill-opacity:1;stroke:none;stroke-width:5.36928;stroke-miterlimit:4;stroke-dasharray:5.36928,5.36928;stroke-dashoffset:0;stroke-opacity:1" transform="matrix(.26458 0 0 .26458 38.248 43.303)"/><text xml:space="preserve" x="-39.135" y="62.15" style="font-style:normal;font-weight:400;font-size:16px;line-height:1.25;font-family:sans-serif;fill:#000;fill-opacity:1;stroke:none;stroke-width:.264583" transform="matrix(.26458 0 0 .26458 38.248 43.303)"><tspan x="-39.135" y="62.15" style="font-size:16px;stroke-width:.264583">Autobusse</tspan></text><g style="fill:#fff200;fill-opacity:1;stroke:#000;stroke-width:.566707;stroke-miterlimit:4;stroke-dasharray:.566707,.566707;stroke-dashoffset:0;stroke-opacity:1"><path d="M-112.279 47.736h55.794v4.622h-55.794z" style="color:#000;fill:#fff200;fill-opacity:1;stroke:#4a4a4a;stroke-width:.562954;stroke-miterlimit:4;stroke-dasharray:none;stroke-dashoffset:0;stroke-opacity:.996067" transform="matrix(.2652 0 0 .15462 38.035 49.372)"/></g><g style="fill:#fff200;fill-opacity:1;stroke:#4a4a4a;stroke-width:.39685;stroke-miterlimit:4;stroke-dasharray:none;stroke-opacity:1"><path d="M-112.533 53.021v3.024h3.023V53.02zm6.047 0v3.024h3.023V53.02zm6.047 0v3.024h3.023V53.02zm6.048 0v3.024h3.024V53.02zm6.047 0v3.024h3.024V53.02zm6.047 0v3.024h3.024V53.02zm6.047 0v3.024h3.023V53.02zm6.047 0v3.024h3.023V53.02zm6.049 0v3.024h3.023V53.02zm6.047 0v3.024h1.738V53.02z" style="color:#000;fill:#fff200;fill-opacity:1;stroke:#4a4a4a;stroke-width:.39685;stroke-miterlimit:4;stroke-dasharray:none;stroke-opacity:1" transform="matrix(.26458 0 0 .26458 37.993 44.908)"/></g><path d="M-112.733 47.281H44.659v17.737h-157.392z" style="fill:#fff;fill-opacity:1;stroke:none;stroke-width:5.39481;stroke-miterlimit:4;stroke-dasharray:5.39481,5.39481;stroke-dashoffset:0;stroke-opacity:1" transform="matrix(.26458 0 0 .26458 38.248 50.642)"/><path d="M-113.408 50.85h55.996v3.024h-55.996z" style="fill:#050000;fill-opacity:1;stroke:none;stroke-width:.610521;stroke-miterlimit:4;stroke-dasharray:none;stroke-dashoffset:0;stroke-opacity:1" transform="matrix(.26458 0 0 .26458 38.248 50.642)"/><text xml:space="preserve" x="-39.951" y="62.733" style="font-style:normal;font-weight:400;font-size:16px;line-height:1.25;font-family:sans-serif;fill:#000;fill-opacity:1;stroke:none;stroke-width:.264583" transform="matrix(.26458 0 0 .26458 38.248 50.642)"><tspan x="-39.951" y="62.733" style="font-size:16px;stroke-width:.264583">Seilbahnen</tspan></text><path d="M-113.132 61.381h55.997" style="fill:none;stroke:#000;stroke-width:3.02362;stroke-linecap:butt;stroke-linejoin:miter;stroke-miterlimit:4;stroke-dasharray:3.02362,3.02362;stroke-dashoffset:0;stroke-opacity:1" transform="matrix(.26458 0 0 .26458 38.248 50.642)"/><path d="M-112.733 47.281H10.67v17.737h-123.403z" style="fill:#fff;fill-opacity:1;stroke:none;stroke-width:4.77691;stroke-miterlimit:4;stroke-dasharray:4.77691,4.77691;stroke-dashoffset:0;stroke-opacity:1" transform="matrix(.26458 0 0 .26458 38.248 57.451)"/><text xml:space="preserve" x="-40.973" y="62.813" style="font-style:normal;font-weight:400;font-size:16px;line-height:1.25;font-family:sans-serif;fill:#000;fill-opacity:1;stroke:none;stroke-width:.264583" transform="matrix(.26458 0 0 .26458 38.248 57.451)"><tspan x="-40.973" y="62.813" style="font-size:16px;stroke-width:.264583">Schiffe</tspan></text><path d="M-112.43 50.85h55.996v2.47h-55.996z" style="fill:#2a6698;fill-opacity:1;stroke:#2a6698;stroke-width:.553564;stroke-miterlimit:4;stroke-dasharray:none;stroke-dashoffset:0;stroke-opacity:1" transform="matrix(.26458 0 0 .26458 38.248 57.451)"/><path d="M-112.154 61.461h55.997" style="fill:none;stroke:#2a6698;stroke-width:3.02362;stroke-linecap:butt;stroke-linejoin:miter;stroke-miterlimit:4;stroke-dasharray:3.02362,3.02362;stroke-dashoffset:0;stroke-opacity:1" transform="matrix(.26458 0 0 .26458 38.248 57.451)"/><path d="M51.113 228.638h119.051v24.859H51.113z" style="fill:#fff;stroke-width:.51305;stroke-opacity:.25" transform="matrix(.26458 0 0 .26458 -6.088 -20.24)"/><text x="110.139" y="244.113" style="font-size:16px;font-family:ArialMT,Arial;isolation:isolate" transform="matrix(.26458 0 0 .26458 -6.088 -20.24)"><tspan x="110.139" y="244.113" style="font-size:16px">***publishedAt***</tspan></text><text x="53.982" y="245.605" style="font-size:16px;font-family:ArialMT,Arial;isolation:isolate" transform="matrix(.26458 0 0 .26458 -6.088 -20.24)"><tspan x="53.982" y="245.605" style="font-size:16px">Stand:</tspan></text><path d="M2069.032 49.976h261.392v30.587h-261.392z" style="fill:#fffffa;fill-opacity:1;stroke:none;stroke-width:3.23533;stroke-miterlimit:4;stroke-dasharray:3.23533,3.23533;stroke-dashoffset:0;stroke-opacity:1" transform="matrix(.26458 0 0 .26458 -205.451 -5.721)"/><path d="M2070.967 51.642h256.143v27.545h-256.143z" style="fill:#fff;stroke-width:1.06205;stroke-opacity:.25" transform="matrix(.26458 0 0 .26458 -205.451 -5.721)"/><path d="M2070.967 78.905h80.936v-26.98h-80.936z" style="fill:#e42328" transform="matrix(.26458 0 0 .26458 -205.451 -5.721)"/><path d="M2118.609 63.35h8.75v-6.928h4.123v6.928h8.75l-7.04-6.928h5.224l8.993 8.993-8.993 8.993h-5.228l7.04-6.928h-8.746v6.928h-4.123V67.48h-8.75l7.04 6.928h-5.222l-8.992-8.992 8.992-8.993h5.222" style="fill:#fff" transform="matrix(.26458 0 0 .26458 -205.451 -5.721)"/><path d="M2160.255 69.036c-.052 4.656 3.861 6.719 8.039 6.719 5.131 0 7.856-2.59 7.856-6.057 0-4.282-4.231-5.155-5.608-5.496-4.734-1.219-5.631-1.404-5.631-2.857 0-1.587 1.532-2.141 2.857-2.141 1.984 0 3.597.58 3.728 2.857h4.02c0-4.364-3.623-6.081-7.563-6.081-3.411 0-7.06 1.85-7.06 5.713 0 3.544 2.828 4.629 5.633 5.367 2.777.74 5.605 1.085 5.605 3.12 0 1.931-2.222 2.354-3.676 2.354-2.222 0-4.177-.98-4.177-3.492" style="fill:#221e20" transform="matrix(.26458 0 0 .26458 -205.451 -5.721)"/><path d="M2182.863 59.65h3.887c1.48 0 2.857.37 2.857 2.168 0 1.587-1.085 2.248-2.539 2.248h-4.205zm-4.152 15.655h9.15c3.41 0 6.665-1.639 6.665-5.474 0-2.353-1.165-4.125-3.466-4.787a4.14 4.14 0 0 0 2.568-3.941c0-3.517-2.434-4.68-6.031-4.68h-8.885zm4.152-8.41h4.52c1.771 0 2.988.769 2.988 2.698 0 1.956-1.428 2.486-3.067 2.486h-4.441M2201.446 59.65h3.887c1.48 0 2.857.37 2.857 2.168 0 1.587-1.085 2.248-2.539 2.248h-4.205zm-4.152 15.655h9.15c3.41 0 6.663-1.639 6.663-5.474 0-2.353-1.163-4.125-3.464-4.787a4.141 4.141 0 0 0 2.564-3.941c0-3.517-2.431-4.68-6.028-4.68h-8.885zm4.154-8.41h4.52c1.772 0 2.989.769 2.989 2.698 0 1.956-1.428 2.486-3.067 2.486h-4.441" style="fill:#221e20;fill-rule:evenodd" transform="matrix(.26458 0 0 .26458 -205.451 -5.721)"/><path d="M2239.48 62.77c-.502-4.364-3.992-6.795-8.144-6.795-5.845 0-9.281 4.363-9.281 9.968 0 5.448 3.435 9.812 9.281 9.812 4.629 0 7.88-3.015 8.303-7.723h-4.021c-.317 2.486-1.744 4.23-4.282 4.23-3.729 0-5.132-3.173-5.132-6.32 0-3.305 1.404-6.479 5.132-6.479 2.06 0 3.861 1.428 4.125 3.305M2242.195 75.305h4.151v-7.801h7.909v-3.226h-7.909v-4.363h9.124v-3.49h-13.275M2257.994 75.305h4.14v-7.801h7.898v-3.226h-7.901v-4.363h9.113v-3.49h-13.25M2280.237 75.305h4.162v-7.801h7.898v-3.226h-7.898v-4.363h9.112v-3.49h-13.274M2296.534 75.305h4.14v-7.801h7.898v-3.226h-7.898v-4.363h9.135v-3.49h-13.275M2311.331 69.036c-.047 4.656 3.854 6.719 8.042 6.719 5.138 0 7.85-2.59 7.85-6.057 0-4.282-4.235-5.155-5.59-5.496-4.734-1.219-5.639-1.404-5.639-2.857 0-1.587 1.523-2.141 2.857-2.141 1.974 0 3.593.58 3.735 2.857h3.997c0-4.364-3.616-6.081-7.542-6.081-3.426 0-7.066 1.85-7.066 5.713 0 3.544 2.831 4.629 5.639 5.367 2.76.74 5.59 1.085 5.59 3.12 0 1.931-2.212 2.354-3.663 2.354-2.237 0-4.187-.98-4.187-3.492" style="fill:#221e20" transform="matrix(.26458 0 0 .26458 -205.451 -5.721)"/><path d="M37.958 99.968h591.149v32.717H37.958z" style="opacity:1;fill:#fff;stroke-width:.449766;stroke-opacity:.25" transform="matrix(.26458 0 0 .26458 -2.608 -3.964)"/><path d="M37.958 71.547h747.288v28.421H37.958z" style="fill:#fff;stroke-width:.471321;stroke-opacity:.25" transform="matrix(.26458 0 0 .26458 -2.608 -3.964)"/><path d="M37.993 43.335h585.268v28.421H37.993z" style="fill:#fff;stroke-width:.417109;stroke-opacity:.25" transform="matrix(.26458 0 0 .26458 -2.608 -3.964)"/><g aria-label="General-Abo, GA Night, GA-Monatskarte, Ausflugs-Abo,Tageskarte zum Halbtax sowie für Spartageskarte / Aktionstageskarte /(Spar-)TageskarteGemeinde zusammen mit Halbtax-Abo" style="font-weight:300;font-size:24px;font-family:&quot;SBB Web&quot;;-inkscape-font-specification:&quot;SBB Web, weight=280&quot;"><path d="M54.352 55.261v8.707h-1.078l-.34-3.199q-.773 1.711-2.355 2.66-1.582.938-3.68.938-2.508 0-4.406-1.23-1.875-1.22-2.848-3.481-.797-1.852-.797-4.09 0-4.066 2.32-6.68 2.192-2.449 5.825-2.449 3.387 0 5.426 2.156 1.383 1.453 1.699 3.516h-1.582q-.352-1.922-1.875-3.094-1.512-1.172-3.656-1.172-3.2 0-5.028 2.438-1.5 2.015-1.5 5.261 0 3.094 1.512 5.063 1.816 2.355 5.016 2.355 2.543 0 4.183-1.593 1.711-1.664 1.723-4.77H47.04v-1.336ZM67.524 59.761q-.234 1.219-.738 2.086-1.477 2.496-4.523 2.496-2.801 0-4.336-2.039-1.36-1.804-1.36-4.582 0-3.035 1.617-4.98 1.57-1.887 4.032-1.887 1.968 0 3.375 1.254 1.09.973 1.582 2.379.504 1.406.492 3.504l-9.574-.012q.035 1.289.304 2.133.938 2.918 3.88 2.918 1.5 0 2.46-.832.961-.832 1.336-2.438zm-1.394-3.094q-.082-1.605-.727-2.66-1.113-1.84-3.223-1.84-1.43 0-2.472.88-1.313 1.113-1.606 3.62zM71.052 51.242v2.355q.539-.972 1.02-1.441 1.288-1.301 3.362-1.301 1.664 0 2.79.832.843.621 1.171 1.512.328.89.328 2.578v8.191h-1.511v-7.687q0-2.121-.54-2.883-.796-1.16-2.577-1.16-1.676 0-2.754 1.09-.657.68-.926 1.629-.27.949-.27 2.648v6.363h-1.511V51.242ZM92.872 59.761q-.234 1.219-.738 2.086-1.477 2.496-4.524 2.496-2.8 0-4.336-2.039-1.36-1.804-1.36-4.582 0-3.035 1.618-4.98 1.57-1.887 4.031-1.887 1.969 0 3.375 1.254 1.09.973 1.582 2.379.504 1.406.493 3.504l-9.575-.012q.035 1.289.305 2.133.937 2.918 3.879 2.918 1.5 0 2.46-.832.962-.832 1.337-2.438zm-1.395-3.094q-.082-1.605-.726-2.66-1.113-1.84-3.223-1.84-1.43 0-2.473.88-1.312 1.113-1.605 3.62zM101.169 51.03v1.606q-.281-.011-.387-.011-1.969 0-3.164 1.43-.633.76-.867 1.757-.223.984-.223 3v5.156h-1.512V51.242h1.418v3q.715-1.664 1.84-2.461 1.114-.739 2.895-.75zM113.192 62.632v1.23q-.562.2-1.219.2-.878 0-1.242-.527-.351-.528-.351-1.805-.586.96-1.23 1.488-1.395 1.125-3.458 1.125-1.793 0-2.824-.855-1.207-.985-1.207-2.754 0-2.496 2.332-3.434.68-.27 1.277-.363.61-.105 3.07-.352 1.126-.117 1.548-.468.421-.352.421-1.172 0-1.465-.785-2.11-.832-.668-2.437-.668-1.606 0-2.426.727-.809.715-.961 2.273h-1.453q.094-2.074 1.394-3.187 1.301-1.125 3.61-1.125 2.531 0 3.762 1.3.468.481.62 1.114.153.633.153 2.04l-.012 3.714q.012 2.332.024 2.754.023.422.093.61.153.34.727.34.246 0 .574-.095zm-2.883-5.566q-.398.34-.914.469-.504.129-2.496.41-1.992.27-2.824.867-.879.61-.879 1.781 0 1.114.774 1.77.785.68 2.097.68 1.852 0 3.047-1.126 1.195-1.125 1.195-2.882zM116.356 46.835v17.133h-1.511V46.835ZM125.11 56.937v1.371h-5.707v-1.371zM135 46.777l6.845 17.191h-1.829l-2.062-5.39h-7.84l-2.11 5.39h-1.745l6.925-17.191zm2.45 10.476-3.398-8.753-3.446 8.753zM144.74 46.835v6.657q.386-.88 1.065-1.477 1.313-1.172 3.34-1.172 2.532 0 4.067 1.864 1.465 1.77 1.465 4.851 0 3.164-1.582 5.027-1.5 1.758-4.008 1.758-3.293 0-4.442-2.847v2.472h-1.418V46.835Zm4.148 5.32q-1.805 0-2.954 1.36-1.23 1.453-1.23 4.055 0 2.601 1.219 4.078 1.148 1.383 3.035 1.383 1.887 0 3-1.418 1.195-1.535 1.195-4.008 0-2.414-1.043-3.867-1.137-1.582-3.222-1.582zM162.352 50.855q2.684 0 4.301 2.004 1.453 1.77 1.453 4.781 0 3.188-1.676 4.992-1.593 1.711-4.16 1.711-2.836 0-4.418-1.992-1.464-1.84-1.464-4.746 0-2.836 1.382-4.64 1.618-2.11 4.582-2.11zm-.14 1.312q-1.864 0-3.047 1.43-1.23 1.465-1.23 3.985 0 2.554 1.195 4.02 1.172 1.429 3.164 1.429 1.898 0 3.023-1.336 1.266-1.488 1.266-4.067 0-2.472-1.137-3.949-1.16-1.512-3.234-1.512zM172.571 61.484v1.77q0 1.792-.48 2.695-.48.914-1.641 1.336v-.996q1.043-.47 1.102-2.32h-.95v-2.485zM197.954 55.261v8.707h-1.078l-.34-3.199q-.773 1.711-2.356 2.66-1.582.938-3.68.938-2.507 0-4.405-1.23-1.875-1.22-2.848-3.481-.797-1.852-.797-4.09 0-4.066 2.32-6.68 2.192-2.449 5.825-2.449 3.386 0 5.425 2.156 1.383 1.453 1.7 3.516h-1.582q-.352-1.922-1.875-3.094-1.512-1.172-3.657-1.172-3.199 0-5.027 2.438-1.5 2.015-1.5 5.261 0 3.094 1.512 5.063 1.816 2.355 5.015 2.355 2.543 0 4.184-1.593 1.71-1.664 1.723-4.77h-5.872v-1.336ZM208.079 46.777l6.844 17.191h-1.828l-2.063-5.39h-7.84l-2.11 5.39h-1.745l6.926-17.191zm2.45 10.476-3.4-8.753-3.445 8.753zM236.555 46.835v17.133h-1.816l-10.125-14.613v14.613h-1.559V46.835h1.805l10.137 14.707V46.835ZM241.231 46.835v2.215h-1.511v-2.215zm0 4.63v12.503h-1.511V51.464ZM254.602 51.23v11.496q0 1.453-.175 2.332-.164.89-.575 1.606-1.324 2.285-4.816 2.285-2.273 0-3.61-1.008-1.324-1.008-1.453-2.848h1.512q.363 2.578 3.574 2.578 2.121 0 3.082-1.09.961-1.078.973-3.468l.012-2.016q-.387.762-.75 1.195-1.29 1.5-3.54 1.5-2.554 0-4.019-1.863-1.347-1.722-1.347-4.476 0-3.012 1.5-4.793 1.535-1.817 3.996-1.817 2.824 0 4.218 2.73V51.23zm-5.636.926q-1.97 0-3.059 1.652-.914 1.383-.914 3.504 0 2.613 1.266 3.984 1.078 1.184 2.742 1.184 2.05 0 3.199-1.688.902-1.335.902-3.62 0-1.208-.351-2.239-.34-1.031-.961-1.664-1.078-1.113-2.824-1.113zM258.962 46.835v6.739q.504-1.278 1.629-2.004 1.136-.727 2.636-.727 2.59 0 3.727 1.887.61 1.031.61 3.023v8.215h-1.524v-8.004q0-1.77-.55-2.53-.856-1.208-2.638-1.208-1.101 0-1.968.527-.856.516-1.336 1.477-.34.668-.47 1.418-.116.738-.116 2.121v6.2h-1.512V46.834ZM275.321 51.23v1.312h-2.566v8.028q0 1.23.187 1.57.305.54 1.371.54.469 0 1.008-.083v1.36q-.715.105-1.348.105-1.863 0-2.425-1.031-.2-.364-.258-.95-.047-.585-.047-2.296v-7.243h-2.156V51.23h2.156v-3.105h1.512v3.105zM279.669 61.484v1.77q0 1.792-.48 2.695-.481.914-1.641 1.336v-.996q1.043-.47 1.101-2.32h-.949v-2.485zM305.052 55.261v8.707h-1.079l-.34-3.199q-.773 1.711-2.355 2.66-1.582.938-3.68.938-2.507 0-4.406-1.23-1.875-1.22-2.847-3.481-.797-1.852-.797-4.09 0-4.066 2.32-6.68 2.191-2.449 5.824-2.449 3.387 0 5.426 2.156 1.383 1.453 1.7 3.516h-1.583q-.351-1.922-1.875-3.094-1.512-1.172-3.656-1.172-3.2 0-5.027 2.438-1.5 2.015-1.5 5.261 0 3.094 1.511 5.063 1.817 2.355 5.016 2.355 2.543 0 4.184-1.593 1.71-1.664 1.722-4.77h-5.87v-1.336ZM315.177 46.777l6.843 17.191h-1.828l-2.062-5.39h-7.84l-2.11 5.39h-1.746l6.926-17.191zm2.449 10.476-3.399-8.753-3.445 8.753zM328.864 56.937v1.371h-5.707v-1.371zM348.798 46.835v17.133h-1.559V48.98l-5.988 14.988h-1.477l-6.094-14.777v14.777h-1.558V46.835h2.238l6.164 15.106 6.024-15.106zM357.223 50.855q2.684 0 4.301 2.004 1.453 1.77 1.453 4.781 0 3.188-1.675 4.992-1.594 1.711-4.16 1.711-2.837 0-4.419-1.992-1.464-1.84-1.464-4.746 0-2.836 1.382-4.64 1.618-2.11 4.582-2.11zm-.14 1.312q-1.863 0-3.047 1.43-1.23 1.465-1.23 3.985 0 2.554 1.195 4.02 1.172 1.429 3.164 1.429 1.898 0 3.023-1.336 1.266-1.488 1.266-4.067 0-2.472-1.137-3.949-1.16-1.512-3.234-1.512zM366.61 51.242v2.355q.54-.972 1.02-1.441 1.289-1.301 3.363-1.301 1.664 0 2.789.832.844.621 1.172 1.512.328.89.328 2.578v8.191h-1.512v-7.687q0-2.121-.539-2.883-.797-1.16-2.578-1.16-1.676 0-2.754 1.09-.656.68-.926 1.629t-.27 2.648v6.363h-1.51V51.242ZM388.958 62.632v1.23q-.563.2-1.219.2-.879 0-1.242-.527-.352-.528-.352-1.805-.586.96-1.23 1.488-1.395 1.125-3.457 1.125-1.793 0-2.824-.855-1.207-.985-1.207-2.754 0-2.496 2.332-3.434.68-.27 1.277-.363.61-.105 3.07-.352 1.125-.117 1.547-.468.422-.352.422-1.172 0-1.465-.785-2.11-.832-.668-2.438-.668-1.605 0-2.425.727-.809.715-.961 2.273h-1.453q.093-2.074 1.394-3.187 1.3-1.125 3.61-1.125 2.53 0 3.761 1.3.469.481.621 1.114.153.633.153 2.04l-.012 3.714q.012 2.332.023 2.754.024.422.094.61.152.34.727.34.246 0 .574-.095zm-2.883-5.566q-.398.34-.914.469-.504.129-2.496.41-1.992.27-2.824.867-.88.61-.88 1.781 0 1.114.774 1.77.785.68 2.098.68 1.851 0 3.047-1.126 1.195-1.125 1.195-2.882zM395.25 51.23v1.312h-2.566v8.028q0 1.23.188 1.57.305.54 1.371.54.469 0 1.008-.083v1.36q-.715.105-1.348.105-1.863 0-2.426-1.031-.199-.364-.257-.95-.047-.585-.047-2.296v-7.243h-2.157V51.23h2.157v-3.105h1.511v3.105zM405.997 54.921h-1.488q-.106-1.007-.47-1.558-.773-1.196-2.859-1.196-1.289 0-2.039.493-.878.574-.878 1.664 0 .691.363 1.09.351.386.96.632.622.246 2.227.621 2.32.54 3.317 1.208.61.421.949 1.101.351.68.351 1.477 0 .879-.41 1.664-.41.785-1.148 1.3-1.313.926-3.363.926-2.836 0-4.184-1.71-.855-1.067-.902-2.837h1.465q.093 1.278.574 1.946.914 1.289 3.07 1.289 1.606 0 2.484-.68.926-.715.926-1.805 0-.937-.726-1.464-.727-.528-2.684-1.008-1.629-.399-2.25-.598-.621-.2-1.102-.469-.667-.375-1.042-1.043-.364-.68-.364-1.511 0-1.97 1.664-2.942 1.114-.656 2.848-.656 2.602 0 3.832 1.488.762.914.879 2.578zM418.923 51.23l-5.297 4.64 5.66 8.098h-1.887l-4.933-7.008-2.461 2.192v4.816h-1.512V46.835h1.512V57.43l6.902-6.199zM431.345 62.632v1.23q-.563.2-1.22.2-.878 0-1.241-.527-.352-.528-.352-1.805-.586.96-1.23 1.488-1.395 1.125-3.457 1.125-1.793 0-2.825-.855-1.207-.985-1.207-2.754 0-2.496 2.332-3.434.68-.27 1.278-.363.609-.105 3.07-.352 1.125-.117 1.547-.468.422-.352.422-1.172 0-1.465-.785-2.11-.832-.668-2.438-.668-1.605 0-2.426.727-.808.715-.96 2.273h-1.454q.094-2.074 1.395-3.187 1.3-1.125 3.61-1.125 2.53 0 3.76 1.3.47.481.622 1.114.152.633.152 2.04l-.011 3.714q.011 2.332.023 2.754.023.422.094.61.152.34.726.34.246 0 .574-.095zm-2.883-5.566q-.399.34-.914.469-.504.129-2.496.41-1.993.27-2.825.867-.879.61-.879 1.781 0 1.114.774 1.77.785.68 2.098.68 1.851 0 3.046-1.126 1.196-1.125 1.196-2.882zM439.114 51.03v1.606q-.281-.011-.387-.011-1.968 0-3.164 1.43-.633.76-.867 1.757-.223.984-.223 3v5.156h-1.511V51.242h1.418v3q.715-1.664 1.84-2.461 1.113-.739 2.894-.75zM446.204 51.23v1.312h-2.566v8.028q0 1.23.187 1.57.305.54 1.371.54.469 0 1.008-.083v1.36q-.715.105-1.348.105-1.863 0-2.426-1.031-.199-.364-.257-.95-.047-.585-.047-2.296v-7.243h-2.156V51.23h2.156v-3.105h1.511v3.105zM457.993 59.761q-.234 1.219-.738 2.086-1.477 2.496-4.524 2.496-2.8 0-4.336-2.039-1.359-1.804-1.359-4.582 0-3.035 1.617-4.98 1.57-1.887 4.031-1.887 1.97 0 3.375 1.254 1.09.973 1.582 2.379.504 1.406.493 3.504l-9.575-.012q.036 1.289.305 2.133.938 2.918 3.879 2.918 1.5 0 2.46-.832.962-.832 1.337-2.438zm-1.395-3.094q-.082-1.605-.726-2.66-1.113-1.84-3.223-1.84-1.43 0-2.472.88-1.313 1.113-1.606 3.62zM462.528 61.484v1.77q0 1.792-.48 2.695-.48.914-1.641 1.336v-.996q1.043-.47 1.102-2.32h-.95v-2.485zM480.024 46.777l6.844 17.191h-1.828l-2.063-5.39h-7.84l-2.109 5.39h-1.746l6.926-17.191zm2.45 10.476-3.399-8.753-3.445 8.753zM497.86 51.23v12.738h-1.418v-2.343q-1.406 2.718-4.336 2.718-1.054 0-1.98-.41-.914-.41-1.477-1.137-.844-1.09-.844-3.351V51.23h1.512v7.523q0 1.793.305 2.567.305.75 1.055 1.183.785.457 1.757.457 1.008 0 1.84-.468.832-.47 1.348-1.325.726-1.207.726-3.445V51.23ZM509.626 54.921h-1.488q-.106-1.007-.47-1.558-.773-1.196-2.859-1.196-1.289 0-2.039.493-.879.574-.879 1.664 0 .691.364 1.09.351.386.96.632.622.246 2.227.621 2.32.54 3.317 1.208.609.421.949 1.101.351.68.351 1.477 0 .879-.41 1.664-.41.785-1.148 1.3-1.313.926-3.363.926-2.836 0-4.184-1.71-.856-1.067-.902-2.837h1.464q.094 1.278.575 1.946.914 1.289 3.07 1.289 1.605 0 2.484-.68.926-.715.926-1.805 0-.937-.726-1.464-.727-.528-2.684-1.008-1.629-.399-2.25-.598-.621-.2-1.102-.469-.668-.375-1.043-1.043-.363-.68-.363-1.511 0-1.97 1.664-2.942 1.113-.656 2.848-.656 2.601 0 3.832 1.488.762.914.879 2.578zM517.079 46.519v1.348q-.598-.094-1.02-.094-1.195 0-1.558.668-.223.398-.223 1.758v1.031h2.496v1.312h-2.496v11.426h-1.512V52.542h-2.109V51.23h2.11v-.844q0-1.172.081-1.71.094-.551.34-.973.774-1.278 2.707-1.278.528 0 1.184.094zM519.95 46.835v17.133h-1.512V46.835ZM532.888 51.23v12.738h-1.418v-2.343q-1.407 2.718-4.336 2.718-1.055 0-1.98-.41-.915-.41-1.477-1.137-.844-1.09-.844-3.351V51.23h1.512v7.523q0 1.793.304 2.567.305.75 1.055 1.183.785.457 1.758.457 1.008 0 1.84-.468.832-.47 1.347-1.325.727-1.207.727-3.445V51.23ZM546.259 51.23v11.496q0 1.453-.176 2.332-.164.89-.574 1.606-1.325 2.285-4.817 2.285-2.273 0-3.61-1.008-1.323-1.008-1.452-2.848h1.511q.364 2.578 3.575 2.578 2.12 0 3.082-1.09.96-1.078.972-3.468l.012-2.016q-.387.762-.75 1.195-1.289 1.5-3.539 1.5-2.555 0-4.02-1.863-1.347-1.722-1.347-4.476 0-3.012 1.5-4.793 1.535-1.817 3.996-1.817 2.824 0 4.219 2.73V51.23zm-5.637.926q-1.969 0-3.059 1.652-.914 1.383-.914 3.504 0 2.613 1.266 3.984 1.078 1.184 2.742 1.184 2.05 0 3.2-1.688.902-1.335.902-3.62 0-1.208-.352-2.239-.34-1.031-.96-1.664-1.079-1.113-2.825-1.113zM557.99 54.921h-1.49q-.105-1.007-.468-1.558-.773-1.196-2.86-1.196-1.288 0-2.038.493-.88.574-.88 1.664 0 .691.364 1.09.352.386.96.632.622.246 2.227.621 2.32.54 3.317 1.208.61.421.95 1.101.35.68.35 1.477 0 .879-.41 1.664-.41.785-1.148 1.3-1.312.926-3.363.926-2.836 0-4.184-1.71-.855-1.067-.902-2.837h1.465q.093 1.278.574 1.946.914 1.289 3.07 1.289 1.606 0 2.485-.68.925-.715.925-1.805 0-.937-.726-1.464-.727-.528-2.684-1.008-1.629-.399-2.25-.598-.62-.2-1.101-.469-.668-.375-1.043-1.043-.364-.68-.364-1.511 0-1.97 1.664-2.942 1.114-.656 2.848-.656 2.602 0 3.832 1.488.762.914.88 2.578zM566.063 56.937v1.371h-5.707v-1.371zM575.954 46.777l6.844 17.191h-1.828l-2.063-5.39h-7.84l-2.11 5.39h-1.745l6.926-17.191zm2.45 10.476-3.4-8.753-3.445 8.753zM585.692 46.835v6.657q.387-.88 1.067-1.477 1.312-1.172 3.34-1.172 2.53 0 4.066 1.864 1.465 1.77 1.465 4.851 0 3.164-1.582 5.027-1.5 1.758-4.008 1.758-3.293 0-4.442-2.847v2.472h-1.418V46.835Zm4.149 5.32q-1.805 0-2.953 1.36-1.231 1.453-1.231 4.055 0 2.601 1.219 4.078 1.148 1.383 3.035 1.383 1.887 0 3-1.418 1.195-1.535 1.195-4.008 0-2.414-1.043-3.867-1.136-1.582-3.222-1.582zM603.305 50.855q2.684 0 4.301 2.004 1.453 1.77 1.453 4.781 0 3.188-1.675 4.992-1.594 1.711-4.16 1.711-2.836 0-4.419-1.992-1.464-1.84-1.464-4.746 0-2.836 1.382-4.64 1.618-2.11 4.582-2.11zm-.14 1.312q-1.863 0-3.047 1.43-1.23 1.465-1.23 3.985 0 2.554 1.195 4.02 1.172 1.429 3.164 1.429 1.898 0 3.023-1.336 1.266-1.488 1.266-4.067 0-2.472-1.137-3.949-1.16-1.512-3.234-1.512zM613.524 61.484v1.77q0 1.792-.48 2.695-.48.914-1.64 1.336v-.996q1.042-.47 1.1-2.32h-.949v-2.485zM51.47 76.835v1.407h-6.012v15.726h-1.63V78.242h-6.034v-1.407zM61.36 92.632v1.23q-.562.2-1.219.2-.878 0-1.242-.527-.351-.528-.351-1.805-.586.96-1.23 1.488-1.395 1.125-3.458 1.125-1.793 0-2.824-.855-1.207-.985-1.207-2.754 0-2.496 2.332-3.434.68-.27 1.277-.363.61-.105 3.07-.352 1.126-.117 1.547-.468.422-.352.422-1.172 0-1.465-.785-2.11-.832-.668-2.437-.668-1.606 0-2.426.727-.809.715-.961 2.273h-1.453q.094-2.074 1.394-3.187 1.301-1.125 3.61-1.125 2.531 0 3.761 1.3.47.481.622 1.114.152.633.152 2.04l-.012 3.714q.012 2.332.024 2.754.023.422.093.61.153.34.727.34.246 0 .574-.095zm-2.883-5.566q-.398.34-.914.469-.504.129-2.496.41-1.992.27-2.824.867-.879.61-.879 1.781 0 1.114.774 1.77.785.68 2.097.68 1.852 0 3.047-1.126 1.195-1.125 1.195-2.882zM73.29 81.23v11.496q0 1.453-.176 2.332-.164.89-.574 1.606-1.324 2.285-4.817 2.285-2.273 0-3.609-1.008-1.324-1.008-1.453-2.848h1.512q.363 2.578 3.574 2.578 2.121 0 3.082-1.09.96-1.078.973-3.468l.011-2.016q-.386.762-.75 1.195-1.289 1.5-3.539 1.5-2.554 0-4.02-1.863-1.347-1.722-1.347-4.476 0-3.012 1.5-4.793 1.535-1.817 3.996-1.817 2.824 0 4.219 2.73V81.23zm-5.637.926q-1.969 0-3.058 1.652-.915 1.383-.915 3.504 0 2.613 1.266 3.984 1.078 1.184 2.742 1.184 2.051 0 3.2-1.688.902-1.335.902-3.62 0-1.208-.352-2.239-.34-1.031-.96-1.664-1.079-1.113-2.825-1.113zM86.485 89.761q-.234 1.219-.738 2.086-1.477 2.496-4.524 2.496-2.8 0-4.335-2.039-1.36-1.804-1.36-4.582 0-3.035 1.617-4.98 1.57-1.887 4.032-1.887 1.968 0 3.375 1.254 1.09.973 1.582 2.379.504 1.406.492 3.504l-9.574-.012q.035 1.289.304 2.133.938 2.918 3.88 2.918 1.5 0 2.46-.832.961-.832 1.336-2.438zm-1.394-3.094q-.082-1.605-.727-2.66-1.113-1.84-3.223-1.84-1.43 0-2.472.88-1.313 1.113-1.606 3.62zM97.571 84.921h-1.488q-.106-1.007-.469-1.558-.773-1.196-2.86-1.196-1.288 0-2.038.493-.88.574-.88 1.664 0 .691.364 1.09.352.386.961.632.621.246 2.227.621 2.32.54 3.316 1.208.61.421.95 1.101.35.68.35 1.477 0 .879-.41 1.664-.41.785-1.148 1.3-1.312.926-3.363.926-2.836 0-4.184-1.71-.855-1.067-.902-2.837h1.465q.093 1.278.574 1.946.914 1.289 3.07 1.289 1.606 0 2.485-.68.925-.715.925-1.805 0-.937-.726-1.464-.727-.528-2.684-1.008-1.629-.399-2.25-.598-.62-.2-1.101-.469-.668-.375-1.043-1.043-.364-.68-.364-1.511 0-1.97 1.665-2.942 1.113-.656 2.847-.656 2.602 0 3.832 1.488.762.914.88 2.578zM110.497 81.23l-5.297 4.64 5.66 8.098h-1.887l-4.933-7.008-2.461 2.192v4.816h-1.512V76.835h1.512V87.43l6.902-6.199zM122.919 92.632v1.23q-.563.2-1.219.2-.879 0-1.242-.527-.352-.528-.352-1.805-.586.96-1.23 1.488-1.395 1.125-3.457 1.125-1.793 0-2.824-.855-1.207-.985-1.207-2.754 0-2.496 2.332-3.434.68-.27 1.277-.363.61-.105 3.07-.352 1.125-.117 1.547-.468.422-.352.422-1.172 0-1.465-.785-2.11-.832-.668-2.438-.668-1.605 0-2.425.727-.81.715-.961 2.273h-1.454q.094-2.074 1.395-3.187 1.3-1.125 3.61-1.125 2.53 0 3.761 1.3.469.481.621 1.114.153.633.153 2.04l-.012 3.714q.012 2.332.023 2.754.024.422.094.61.152.34.726.34.247 0 .575-.095zm-2.883-5.566q-.398.34-.914.469-.504.129-2.496.41-1.992.27-2.824.867-.88.61-.88 1.781 0 1.114.774 1.77.785.68 2.098.68 1.851 0 3.047-1.126 1.195-1.125 1.195-2.882zM130.688 81.03v1.606q-.28-.011-.386-.011-1.97 0-3.164 1.43-.633.76-.868 1.757-.222.984-.222 3v5.156h-1.512V81.242h1.418v3q.715-1.664 1.84-2.461 1.113-.739 2.894-.75zM137.778 81.23v1.312h-2.566v8.028q0 1.23.187 1.57.305.54 1.371.54.47 0 1.008-.083v1.36q-.715.105-1.348.105-1.863 0-2.425-1.031-.2-.364-.258-.95-.047-.585-.047-2.296v-7.243h-2.156V81.23h2.156v-3.105h1.512v3.105zM149.567 89.761q-.234 1.219-.738 2.086-1.477 2.496-4.524 2.496-2.8 0-4.335-2.039-1.36-1.804-1.36-4.582 0-3.035 1.617-4.98 1.57-1.887 4.032-1.887 1.968 0 3.375 1.254 1.09.973 1.582 2.379.504 1.406.492 3.504l-9.574-.012q.035 1.289.304 2.133.938 2.918 3.88 2.918 1.5 0 2.46-.832.961-.832 1.336-2.438zm-1.394-3.094q-.082-1.605-.727-2.66-1.113-1.84-3.223-1.84-1.43 0-2.472.88-1.313 1.113-1.606 3.62zM167.321 81.23v1.09l-8.168 10.336h8.52v1.312h-10.371V92.68l8.039-10.16h-7.489V81.23ZM179.263 81.23v12.738h-1.418v-2.343q-1.407 2.718-4.336 2.718-1.055 0-1.98-.41-.915-.41-1.477-1.137-.844-1.09-.844-3.351V81.23h1.512v7.523q0 1.793.304 2.567.305.75 1.055 1.183.785.457 1.758.457 1.008 0 1.84-.468.832-.47 1.347-1.325.727-1.207.727-3.445V81.23ZM183.505 81.242v2.18q.668-1.09 1.324-1.618 1.184-.949 2.789-.949 2.684 0 3.574 2.473.551-.985 1.172-1.489 1.207-.984 2.93-.984 2.156 0 3.246 1.465.387.539.55 1.195.165.645.165 1.688v8.765h-1.512v-8.332q0-1.511-.375-2.18-.703-1.218-2.473-1.218-2.097 0-2.976 1.746-.469.926-.469 2.695v7.29h-1.512v-8.286q0-1.465-.34-2.156-.293-.598-.937-.938-.633-.351-1.453-.351-1.02 0-1.852.515-.832.504-1.265 1.407-.493 1.007-.493 2.836v6.972h-1.511V81.242ZM222.552 76.835v17.133h-1.63v-8.273h-10.265v8.273h-1.629V76.835h1.63v7.454h10.265v-7.454zM236.438 92.632v1.23q-.562.2-1.218.2-.88 0-1.243-.527-.351-.528-.351-1.805-.586.96-1.23 1.488-1.395 1.125-3.458 1.125-1.793 0-2.824-.855-1.207-.985-1.207-2.754 0-2.496 2.332-3.434.68-.27 1.277-.363.61-.105 3.07-.352 1.126-.117 1.548-.468.421-.352.421-1.172 0-1.465-.785-2.11-.832-.668-2.437-.668-1.606 0-2.426.727-.809.715-.96 2.273h-1.454q.094-2.074 1.395-3.187 1.3-1.125 3.609-1.125 2.531 0 3.762 1.3.468.481.62 1.114.153.633.153 2.04l-.012 3.714q.012 2.332.024 2.754.023.422.093.61.153.34.727.34.246 0 .574-.095zm-2.883-5.566q-.398.34-.914.469-.503.129-2.496.41-1.992.27-2.824.867-.879.61-.879 1.781 0 1.114.774 1.77.785.68 2.097.68 1.852 0 3.047-1.126 1.195-1.125 1.195-2.882zM239.602 76.835v17.133h-1.511V76.835ZM244.009 76.835v6.657q.386-.88 1.066-1.477 1.313-1.172 3.34-1.172 2.531 0 4.066 1.864 1.465 1.77 1.465 4.851 0 3.164-1.582 5.027-1.5 1.758-4.008 1.758-3.293 0-4.441-2.847v2.472h-1.418V76.835Zm4.148 5.32q-1.805 0-2.953 1.36-1.23 1.453-1.23 4.055 0 2.601 1.218 4.078 1.149 1.383 3.035 1.383 1.887 0 3-1.418 1.196-1.535 1.196-4.008 0-2.414-1.043-3.867-1.137-1.582-3.223-1.582zM261.223 81.23v1.312h-2.566v8.028q0 1.23.188 1.57.304.54 1.37.54.47 0 1.008-.083v1.36q-.714.105-1.347.105-1.863 0-2.426-1.031-.2-.364-.258-.95-.047-.585-.047-2.296v-7.243h-2.156V81.23h2.156v-3.105h1.512v3.105zM274.102 92.632v1.23q-.562.2-1.218.2-.88 0-1.243-.527-.351-.528-.351-1.805-.586.96-1.23 1.488-1.395 1.125-3.458 1.125-1.793 0-2.824-.855-1.207-.985-1.207-2.754 0-2.496 2.332-3.434.68-.27 1.277-.363.61-.105 3.07-.352 1.126-.117 1.548-.468.422-.352.422-1.172 0-1.465-.786-2.11-.832-.668-2.437-.668-1.606 0-2.426.727-.808.715-.96 2.273h-1.454q.094-2.074 1.395-3.187 1.3-1.125 3.609-1.125 2.531 0 3.762 1.3.468.481.62 1.114.153.633.153 2.04l-.012 3.714q.012 2.332.024 2.754.023.422.094.61.152.34.726.34.246 0 .574-.095zm-2.882-5.566q-.399.34-.915.469-.503.129-2.496.41-1.992.27-2.824.867-.879.61-.879 1.781 0 1.114.774 1.77.785.68 2.097.68 1.852 0 3.047-1.126 1.196-1.125 1.196-2.882zM286.055 81.23l-4.406 5.93 4.899 6.808h-1.922l-3.938-5.554-3.89 5.554h-1.805l4.793-6.703-4.43-6.035h1.91l3.47 4.77 3.515-4.77zM303.552 84.921h-1.489q-.105-1.007-.468-1.558-.774-1.196-2.86-1.196-1.289 0-2.039.493-.879.574-.879 1.664 0 .691.363 1.09.352.386.961.632.622.246 2.227.621 2.32.54 3.316 1.208.61.421.95 1.101.351.68.351 1.477 0 .879-.41 1.664-.41.785-1.148 1.3-1.313.926-3.364.926-2.836 0-4.183-1.71-.856-1.067-.903-2.837h1.465q.094 1.278.574 1.946.914 1.289 3.07 1.289 1.606 0 2.485-.68.926-.715.926-1.805 0-.937-.727-1.464-.726-.528-2.683-1.008-1.63-.399-2.25-.598-.621-.2-1.102-.469-.668-.375-1.043-1.043-.363-.68-.363-1.511 0-1.97 1.664-2.942 1.113-.656 2.848-.656 2.601 0 3.832 1.488.761.914.879 2.578zM311.52 80.855q2.684 0 4.301 2.004 1.453 1.77 1.453 4.781 0 3.188-1.676 4.992-1.593 1.711-4.16 1.711-2.836 0-4.418-1.992-1.465-1.84-1.465-4.746 0-2.836 1.383-4.64 1.617-2.11 4.582-2.11zm-.14 1.312q-1.864 0-3.047 1.43-1.23 1.465-1.23 3.985 0 2.554 1.195 4.02 1.172 1.429 3.164 1.429 1.898 0 3.023-1.336 1.266-1.488 1.266-4.067 0-2.472-1.137-3.949-1.16-1.512-3.234-1.512zM335.298 81.23l-4.02 12.738h-1.64l-3.083-10.488-3.023 10.488h-1.676l-4.031-12.738h1.652l3.2 10.535 3.046-10.535h1.735l3.07 10.523 3.2-10.523zM338.427 76.835v2.215h-1.512v-2.215zm0 4.63v12.503h-1.512V81.464ZM351.634 89.761q-.235 1.219-.739 2.086-1.476 2.496-4.523 2.496-2.8 0-4.336-2.039-1.36-1.804-1.36-4.582 0-3.035 1.618-4.98 1.57-1.887 4.031-1.887 1.969 0 3.375 1.254 1.09.973 1.582 2.379.504 1.406.492 3.504l-9.574-.012q.035 1.289.305 2.133.937 2.918 3.879 2.918 1.5 0 2.46-.832.961-.832 1.336-2.438zm-1.395-3.094q-.082-1.605-.726-2.66-1.114-1.84-3.223-1.84-1.43 0-2.473.88-1.312 1.113-1.605 3.62zM365.567 76.519v1.348q-.597-.094-1.02-.094-1.195 0-1.558.668-.223.398-.223 1.758v1.031h2.497v1.312h-2.497v11.426h-1.511V82.542h-2.11V81.23h2.11v-.844q0-1.172.082-1.71.093-.551.34-.973.773-1.278 2.707-1.278.527 0 1.183.094zM376.805 81.23v12.738h-1.417v-2.343q-1.407 2.718-4.336 2.718-1.055 0-1.98-.41-.915-.41-1.477-1.137-.844-1.09-.844-3.351V81.23h1.512v7.523q0 1.793.304 2.567.305.75 1.055 1.183.785.457 1.758.457 1.008 0 1.84-.468.832-.47 1.347-1.325.727-1.207.727-3.445V81.23Zm-6.468-4.395v2.45h-1.512v-2.45zm4.394 0v2.45h-1.511v-2.45zM385.805 81.03v1.606q-.28-.011-.386-.011-1.969 0-3.164 1.43-.633.76-.867 1.757-.223.984-.223 3v5.156h-1.512V81.242h1.418v3q.715-1.664 1.84-2.461 1.113-.739 2.894-.75zM406.09 81.769h-1.57q-.175-1.98-1.3-2.906-1.266-1.067-3.47-1.067-1.862 0-2.964.739-1.3.89-1.3 2.543 0 1.453 1.042 2.086.856.527 3.574 1.16 2.368.562 3.047.773.692.211 1.383.61 2.11 1.207 2.11 3.597 0 2.426-1.946 3.867-1.629 1.196-4.512 1.196-3.21 0-5.004-1.547-.878-.762-1.359-1.899-.48-1.136-.48-2.437v-.188h1.57q.059 1.957.95 3.024 1.394 1.676 4.44 1.676 2.426 0 3.622-1.043 1.136-.985 1.136-2.496 0-1.875-2.004-2.72-.902-.374-3.773-1.042-1.71-.399-2.496-.68-.785-.281-1.406-.715-1.489-1.031-1.489-3.129 0-2.191 1.606-3.457 1.605-1.277 4.383-1.277 2.86 0 4.488 1.395 1.629 1.394 1.723 3.937zM410.427 81.23v2.309q1.37-2.696 4.406-2.696 2.531 0 4.043 1.828 1.57 1.887 1.57 4.97 0 2.882-1.418 4.722-1.523 1.992-4.125 1.992-1.558 0-2.672-.691-1.113-.692-1.71-2.028v7.16h-1.512V81.23Zm4.183.926q-1.957 0-3.094 1.547-1.054 1.441-1.054 3.914 0 2.53 1.136 3.949 1.184 1.476 3.13 1.476 2.027 0 3.152-1.628 1.043-1.489 1.043-3.75 0-2.497-1.137-4.008-1.125-1.5-3.176-1.5zM433.618 92.632v1.23q-.563.2-1.219.2-.879 0-1.242-.527-.352-.528-.352-1.805-.585.96-1.23 1.488-1.395 1.125-3.457 1.125-1.793 0-2.824-.855-1.207-.985-1.207-2.754 0-2.496 2.332-3.434.68-.27 1.277-.363.61-.105 3.07-.352 1.125-.117 1.547-.468.422-.352.422-1.172 0-1.465-.785-2.11-.832-.668-2.437-.668-1.606 0-2.426.727-.809.715-.961 2.273h-1.453q.093-2.074 1.394-3.187 1.301-1.125 3.61-1.125 2.53 0 3.761 1.3.469.481.621 1.114.153.633.153 2.04l-.012 3.714q.012 2.332.023 2.754.024.422.094.61.152.34.727.34.246 0 .574-.095zm-2.883-5.566q-.398.34-.914.469-.504.129-2.496.41-1.992.27-2.824.867-.88.61-.88 1.781 0 1.114.774 1.77.785.68 2.098.68 1.852 0 3.047-1.126 1.195-1.125 1.195-2.882zM441.388 81.03v1.606q-.282-.011-.387-.011-1.969 0-3.164 1.43-.633.76-.867 1.757-.223.984-.223 3v5.156h-1.512V81.242h1.418v3q.715-1.664 1.84-2.461 1.113-.739 2.895-.75zM448.477 81.23v1.312h-2.566v8.028q0 1.23.187 1.57.305.54 1.372.54.468 0 1.007-.083v1.36q-.714.105-1.347.105-1.864 0-2.426-1.031-.2-.364-.258-.95-.047-.585-.047-2.296v-7.243h-2.156V81.23h2.156v-3.105h1.512v3.105zM461.356 92.632v1.23q-.562.2-1.218.2-.88 0-1.243-.527-.351-.528-.351-1.805-.586.96-1.23 1.488-1.395 1.125-3.458 1.125-1.793 0-2.824-.855-1.207-.985-1.207-2.754 0-2.496 2.332-3.434.68-.27 1.277-.363.61-.105 3.07-.352 1.126-.117 1.548-.468.421-.352.421-1.172 0-1.465-.785-2.11-.832-.668-2.437-.668-1.606 0-2.426.727-.809.715-.96 2.273h-1.454q.094-2.074 1.394-3.187 1.301-1.125 3.61-1.125 2.531 0 3.762 1.3.468.481.62 1.114.153.633.153 2.04l-.012 3.714q.012 2.332.024 2.754.023.422.093.61.153.34.727.34.246 0 .574-.095zm-2.883-5.566q-.398.34-.914.469-.504.129-2.496.41-1.992.27-2.824.867-.879.61-.879 1.781 0 1.114.774 1.77.785.68 2.097.68 1.852 0 3.047-1.126 1.195-1.125 1.195-2.882zM473.286 81.23v11.496q0 1.453-.176 2.332-.164.89-.574 1.606-1.324 2.285-4.816 2.285-2.274 0-3.61-1.008-1.324-1.008-1.453-2.848h1.512q.363 2.578 3.574 2.578 2.121 0 3.082-1.09.961-1.078.973-3.468l.011-2.016q-.386.762-.75 1.195-1.289 1.5-3.539 1.5-2.554 0-4.02-1.863-1.347-1.722-1.347-4.476 0-3.012 1.5-4.793 1.535-1.817 3.996-1.817 2.824 0 4.219 2.73V81.23zm-5.637.926q-1.969 0-3.058 1.652-.914 1.383-.914 3.504 0 2.613 1.265 3.984 1.078 1.184 2.742 1.184 2.051 0 3.2-1.688.902-1.335.902-3.62 0-1.208-.352-2.239-.34-1.031-.96-1.664-1.079-1.113-2.825-1.113zM486.481 89.761q-.234 1.219-.738 2.086-1.477 2.496-4.523 2.496-2.801 0-4.336-2.039-1.36-1.804-1.36-4.582 0-3.035 1.617-4.98 1.57-1.887 4.032-1.887 1.968 0 3.375 1.254 1.09.973 1.582 2.379.504 1.406.492 3.504l-9.574-.012q.035 1.289.304 2.133.938 2.918 3.88 2.918 1.5 0 2.46-.832.961-.832 1.336-2.438zm-1.394-3.094q-.082-1.605-.727-2.66-1.113-1.84-3.222-1.84-1.43 0-2.473.88-1.313 1.113-1.606 3.62zM497.567 84.921h-1.488q-.106-1.007-.469-1.558-.773-1.196-2.86-1.196-1.288 0-2.038.493-.88.574-.88 1.664 0 .691.364 1.09.352.386.961.632.621.246 2.227.621 2.32.54 3.316 1.208.61.421.95 1.101.35.68.35 1.477 0 .879-.41 1.664-.41.785-1.148 1.3-1.312.926-3.363.926-2.836 0-4.184-1.71-.855-1.067-.902-2.837h1.465q.094 1.278.574 1.946.914 1.289 3.07 1.289 1.606 0 2.485-.68.926-.715.926-1.805 0-.937-.727-1.464-.727-.528-2.684-1.008-1.629-.399-2.25-.598-.62-.2-1.101-.469-.668-.375-1.043-1.043-.363-.68-.363-1.511 0-1.97 1.664-2.942 1.113-.656 2.847-.656 2.602 0 3.832 1.488.762.914.88 2.578zM510.493 81.23l-5.297 4.64 5.66 8.098h-1.886l-4.934-7.008-2.461 2.192v4.816h-1.512V76.835h1.512V87.43l6.902-6.199zM522.915 92.632v1.23q-.563.2-1.219.2-.879 0-1.242-.527-.352-.528-.352-1.805-.586.96-1.23 1.488-1.395 1.125-3.457 1.125-1.793 0-2.824-.855-1.207-.985-1.207-2.754 0-2.496 2.332-3.434.68-.27 1.277-.363.61-.105 3.07-.352 1.125-.117 1.547-.468.422-.352.422-1.172 0-1.465-.785-2.11-.832-.668-2.438-.668-1.605 0-2.425.727-.809.715-.961 2.273h-1.453q.093-2.074 1.394-3.187 1.3-1.125 3.61-1.125 2.53 0 3.761 1.3.469.481.621 1.114.153.633.153 2.04l-.012 3.714q.012 2.332.023 2.754.024.422.094.61.152.34.727.34.246 0 .574-.095zm-2.883-5.566q-.398.34-.914.469-.504.129-2.496.41-1.992.27-2.824.867-.88.61-.88 1.781 0 1.114.774 1.77.785.68 2.098.68 1.851 0 3.047-1.126 1.195-1.125 1.195-2.882zM530.684 81.03v1.606q-.28-.011-.386-.011-1.97 0-3.164 1.43-.633.76-.868 1.757-.222.984-.222 3v5.156h-1.512V81.242h1.418v3q.715-1.664 1.84-2.461 1.113-.739 2.894-.75zM537.774 81.23v1.312h-2.566v8.028q0 1.23.187 1.57.305.54 1.371.54.47 0 1.008-.083v1.36q-.715.105-1.347.105-1.864 0-2.426-1.031-.2-.364-.258-.95-.047-.585-.047-2.296v-7.243h-2.156V81.23h2.156v-3.105h1.512v3.105zM549.563 89.761q-.234 1.219-.738 2.086-1.477 2.496-4.523 2.496-2.801 0-4.336-2.039-1.36-1.804-1.36-4.582 0-3.035 1.617-4.98 1.57-1.887 4.032-1.887 1.968 0 3.375 1.254 1.09.973 1.582 2.379.504 1.406.492 3.504l-9.574-.012q.035 1.289.304 2.133.938 2.918 3.88 2.918 1.5 0 2.46-.832.961-.832 1.336-2.438zm-1.394-3.094q-.082-1.605-.727-2.66-1.113-1.84-3.222-1.84-1.43 0-2.473.88-1.313 1.113-1.606 3.62zM566.005 76.835l-8.848 21.727h-1.289l8.906-21.727zM580.114 76.777l6.844 17.191h-1.828l-2.063-5.39h-7.84l-2.109 5.39h-1.746l6.926-17.191zm2.45 10.476-3.4-8.753-3.444 8.753zM598.571 81.23l-5.297 4.64 5.66 8.098h-1.886l-4.934-7.008-2.46 2.192v4.816h-1.513V76.835h1.512V87.43l6.902-6.199zM605.684 81.23v1.312h-2.566v8.028q0 1.23.187 1.57.305.54 1.372.54.468 0 1.007-.083v1.36q-.714.105-1.347.105-1.864 0-2.426-1.031-.2-.364-.258-.95-.047-.585-.047-2.296v-7.243h-2.156V81.23h2.156v-3.105h1.512v3.105zM609.106 76.835v2.215h-1.511v-2.215zm0 4.63v12.503h-1.511V81.464ZM617.345 80.855q2.683 0 4.3 2.004 1.453 1.77 1.453 4.781 0 3.188-1.675 4.992-1.594 1.711-4.16 1.711-2.836 0-4.418-1.992-1.465-1.84-1.465-4.746 0-2.836 1.383-4.64 1.617-2.11 4.582-2.11zm-.141 1.312q-1.863 0-3.047 1.43-1.23 1.465-1.23 3.985 0 2.554 1.195 4.02 1.172 1.429 3.164 1.429 1.898 0 3.023-1.336 1.266-1.488 1.266-4.067 0-2.472-1.137-3.949-1.16-1.512-3.234-1.512zM626.731 81.242v2.355q.54-.972 1.02-1.441 1.289-1.301 3.363-1.301 1.664 0 2.79.832.843.621 1.171 1.512.328.89.328 2.578v8.191h-1.512v-7.687q0-2.121-.539-2.883-.797-1.16-2.578-1.16-1.676 0-2.754 1.09-.656.68-.925 1.629-.27.949-.27 2.648v6.363h-1.512V81.242ZM647.157 84.921h-1.488q-.106-1.007-.469-1.558-.773-1.196-2.86-1.196-1.288 0-2.038.493-.88.574-.88 1.664 0 .691.364 1.09.352.386.96.632.622.246 2.227.621 2.32.54 3.317 1.208.61.421.95 1.101.35.68.35 1.477 0 .879-.41 1.664-.41.785-1.148 1.3-1.312.926-3.363.926-2.836 0-4.184-1.71-.855-1.067-.902-2.837h1.465q.093 1.278.574 1.946.914 1.289 3.07 1.289 1.606 0 2.485-.68.925-.715.925-1.805 0-.937-.726-1.464-.727-.528-2.684-1.008-1.629-.399-2.25-.598-.62-.2-1.101-.469-.668-.375-1.043-1.043-.364-.68-.364-1.511 0-1.97 1.664-2.942 1.114-.656 2.848-.656 2.602 0 3.832 1.488.762.914.88 2.578zM654.528 81.23v1.312h-2.566v8.028q0 1.23.187 1.57.305.54 1.371.54.47 0 1.008-.083v1.36q-.715.105-1.348.105-1.863 0-2.425-1.031-.2-.364-.258-.95-.047-.585-.047-2.296v-7.243h-2.156V81.23h2.156v-3.105h1.512v3.105zM667.407 92.632v1.23q-.562.2-1.219.2-.879 0-1.242-.527-.351-.528-.351-1.805-.586.96-1.23 1.488-1.395 1.125-3.458 1.125-1.793 0-2.824-.855-1.207-.985-1.207-2.754 0-2.496 2.332-3.434.68-.27 1.277-.363.61-.105 3.07-.352 1.125-.117 1.547-.468.422-.352.422-1.172 0-1.465-.785-2.11-.832-.668-2.437-.668-1.606 0-2.426.727-.809.715-.961 2.273h-1.453q.093-2.074 1.394-3.187 1.301-1.125 3.61-1.125 2.53 0 3.761 1.3.47.481.621 1.114.153.633.153 2.04l-.012 3.714q.012 2.332.023 2.754.024.422.094.61.153.34.727.34.246 0 .574-.095zm-2.883-5.566q-.398.34-.914.469-.504.129-2.496.41-1.992.27-2.824.867-.879.61-.879 1.781 0 1.114.773 1.77.786.68 2.098.68 1.852 0 3.047-1.126 1.195-1.125 1.195-2.882zM679.337 81.23v11.496q0 1.453-.176 2.332-.164.89-.574 1.606-1.324 2.285-4.817 2.285-2.273 0-3.61-1.008-1.323-1.008-1.452-2.848h1.512q.363 2.578 3.574 2.578 2.12 0 3.082-1.09.96-1.078.972-3.468l.012-2.016q-.387.762-.75 1.195-1.289 1.5-3.539 1.5-2.555 0-4.02-1.863-1.347-1.722-1.347-4.476 0-3.012 1.5-4.793 1.535-1.817 3.996-1.817 2.824 0 4.219 2.73V81.23zm-5.637.926q-1.969 0-3.059 1.652-.914 1.383-.914 3.504 0 2.613 1.266 3.984 1.078 1.184 2.742 1.184 2.051 0 3.2-1.688.902-1.335.902-3.62 0-1.208-.352-2.239-.34-1.031-.96-1.664-1.079-1.113-2.825-1.113zM692.532 89.761q-.234 1.219-.738 2.086-1.477 2.496-4.524 2.496-2.8 0-4.336-2.039-1.359-1.804-1.359-4.582 0-3.035 1.617-4.98 1.57-1.887 4.031-1.887 1.97 0 3.375 1.254 1.09.973 1.582 2.379.504 1.406.493 3.504l-9.575-.012q.036 1.289.305 2.133.938 2.918 3.879 2.918 1.5 0 2.461-.832.96-.832 1.336-2.438zm-1.394-3.094q-.082-1.605-.727-2.66-1.113-1.84-3.223-1.84-1.43 0-2.472.88-1.313 1.113-1.606 3.62zM703.618 84.921h-1.488q-.106-1.007-.47-1.558-.772-1.196-2.858-1.196-1.29 0-2.04.493-.878.574-.878 1.664 0 .691.363 1.09.351.386.96.632.622.246 2.227.621 2.32.54 3.317 1.208.61.421.949 1.101.352.68.352 1.477 0 .879-.41 1.664-.41.785-1.149 1.3-1.313.926-3.363.926-2.836 0-4.184-1.71-.855-1.067-.902-2.837h1.465q.093 1.278.574 1.946.914 1.289 3.07 1.289 1.606 0 2.485-.68.925-.715.925-1.805 0-.937-.726-1.464-.727-.528-2.684-1.008-1.629-.399-2.25-.598-.621-.2-1.101-.469-.668-.375-1.043-1.043-.364-.68-.364-1.511 0-1.97 1.664-2.942 1.114-.656 2.848-.656 2.602 0 3.832 1.488.762.914.879 2.578zM716.544 81.23l-5.297 4.64 5.66 8.098h-1.887l-4.933-7.008-2.461 2.192v4.816h-1.512V76.835h1.512V87.43l6.902-6.199zM728.966 92.632v1.23q-.563.2-1.22.2-.878 0-1.241-.527-.352-.528-.352-1.805-.586.96-1.23 1.488-1.395 1.125-3.457 1.125-1.793 0-2.825-.855-1.207-.985-1.207-2.754 0-2.496 2.332-3.434.68-.27 1.278-.363.61-.105 3.07-.352 1.125-.117 1.547-.468.422-.352.422-1.172 0-1.465-.785-2.11-.832-.668-2.438-.668-1.605 0-2.426.727-.808.715-.96 2.273h-1.454q.094-2.074 1.395-3.187 1.3-1.125 3.61-1.125 2.53 0 3.76 1.3.47.481.622 1.114.152.633.152 2.04l-.011 3.714q.011 2.332.023 2.754.023.422.094.61.152.34.726.34.246 0 .575-.095zm-2.883-5.566q-.399.34-.914.469-.504.129-2.496.41-1.993.27-2.825.867-.878.61-.878 1.781 0 1.114.773 1.77.785.68 2.098.68 1.851 0 3.047-1.126 1.195-1.125 1.195-2.882zM736.735 81.03v1.606q-.281-.011-.387-.011-1.968 0-3.164 1.43-.632.76-.867 1.757-.222.984-.222 3v5.156h-1.512V81.242H732v3q.715-1.664 1.84-2.461 1.113-.739 2.894-.75zM743.825 81.23v1.312h-2.566v8.028q0 1.23.187 1.57.305.54 1.371.54.469 0 1.008-.083v1.36q-.715.105-1.348.105-1.863 0-2.425-1.031-.2-.364-.258-.95-.047-.585-.047-2.296v-7.243h-2.156V81.23h2.156v-3.105h1.512v3.105zM755.614 89.761q-.234 1.219-.738 2.086-1.477 2.496-4.524 2.496-2.8 0-4.336-2.039-1.359-1.804-1.359-4.582 0-3.035 1.617-4.98 1.57-1.887 4.031-1.887 1.97 0 3.375 1.254 1.09.973 1.583 2.379.503 1.406.492 3.504l-9.575-.012q.036 1.289.305 2.133.938 2.918 3.88 2.918 1.5 0 2.46-.832t1.336-2.438zm-1.394-3.094q-.082-1.605-.727-2.66-1.113-1.84-3.223-1.84-1.43 0-2.472.88-1.313 1.113-1.606 3.62zM772.055 76.835l-8.847 21.727h-1.29l8.907-21.727zM43.77 106.835q-1.476 2.356-2.273 5.192-.797 2.836-.797 5.754 0 5.683 3.07 10.781h-1.183q-1.524-2.52-2.239-4.441-1.171-3.164-1.171-6.387 0-3.399 1.242-6.703.914-2.403 2.168-4.196zM57.388 111.769h-1.57q-.177-1.98-1.302-2.906-1.265-1.067-3.468-1.067-1.864 0-2.965.739-1.301.89-1.301 2.543 0 1.453 1.043 2.086.855.527 3.574 1.16 2.367.562 3.047.773.692.211 1.383.61 2.11 1.207 2.11 3.597 0 2.426-1.946 3.867-1.629 1.196-4.512 1.196-3.21 0-5.004-1.547-.879-.762-1.359-1.899-.48-1.136-.48-2.437v-.188h1.57q.058 1.957.949 3.024 1.395 1.676 4.441 1.676 2.426 0 3.622-1.043 1.136-.985 1.136-2.496 0-1.875-2.004-2.72-.902-.374-3.773-1.042-1.711-.399-2.496-.68-.785-.281-1.406-.715-1.489-1.031-1.489-3.129 0-2.191 1.606-3.457 1.605-1.277 4.383-1.277 2.859 0 4.488 1.395 1.629 1.394 1.723 3.937zM61.723 111.23v2.309q1.372-2.696 4.407-2.696 2.531 0 4.043 1.828 1.57 1.887 1.57 4.97 0 2.882-1.418 4.722-1.523 1.992-4.125 1.992-1.559 0-2.672-.691-1.113-.692-1.71-2.028v7.16h-1.513V111.23zm4.184.926q-1.957 0-3.094 1.547-1.054 1.441-1.054 3.914 0 2.531 1.136 3.949 1.184 1.476 3.13 1.476 2.027 0 3.152-1.628 1.043-1.489 1.043-3.75 0-2.497-1.137-4.008-1.125-1.5-3.176-1.5zM84.915 122.632v1.23q-.563.2-1.219.2-.879 0-1.242-.527-.352-.528-.352-1.805-.586.96-1.23 1.488-1.395 1.125-3.457 1.125-1.793 0-2.824-.855-1.207-.985-1.207-2.754 0-2.496 2.332-3.434.68-.27 1.277-.363.61-.105 3.07-.352 1.125-.117 1.547-.468.422-.352.422-1.172 0-1.465-.785-2.11-.832-.668-2.438-.668-1.605 0-2.425.727-.809.715-.961 2.273H73.97q.093-2.074 1.394-3.187 1.3-1.125 3.61-1.125 2.53 0 3.761 1.3.469.481.621 1.114.153.633.153 2.04l-.012 3.714q.012 2.332.023 2.754.024.422.094.61.152.34.727.34.246 0 .574-.095zm-2.883-5.566q-.398.34-.914.469-.504.129-2.496.41-1.992.27-2.824.867-.88.61-.88 1.781 0 1.114.774 1.77.785.68 2.098.68 1.851 0 3.047-1.126 1.195-1.125 1.195-2.882zM92.684 111.03v1.606q-.28-.011-.386-.011-1.97 0-3.164 1.43-.633.76-.868 1.757-.222.984-.222 3v5.156h-1.512v-12.726h1.418v3q.715-1.664 1.84-2.461 1.113-.739 2.894-.75zM98.298 116.937v1.371H92.59v-1.371zM99.868 128.562q1.465-2.297 2.262-5.156.808-2.871.808-5.79 0-2.777-.797-5.566-.796-2.789-2.273-5.215h1.184q1.535 2.532 2.238 4.43 1.172 3.164 1.172 6.399 0 3.398-1.242 6.703-.926 2.437-2.168 4.195zM119.192 106.835v1.407h-6.012v15.726h-1.628v-15.726h-6.036v-1.407zM129.083 122.632v1.23q-.563.2-1.219.2-.879 0-1.242-.527-.352-.528-.352-1.805-.586.96-1.23 1.488-1.395 1.125-3.457 1.125-1.793 0-2.824-.855-1.207-.985-1.207-2.754 0-2.496 2.332-3.434.68-.27 1.277-.363.61-.105 3.07-.352 1.125-.117 1.547-.468.422-.352.422-1.172 0-1.465-.785-2.11-.832-.668-2.438-.668-1.605 0-2.425.727-.809.715-.961 2.273h-1.453q.093-2.074 1.394-3.187 1.3-1.125 3.61-1.125 2.53 0 3.761 1.3.469.481.621 1.114.153.633.153 2.04l-.012 3.714q.012 2.332.023 2.754.024.422.094.61.152.34.727.34.246 0 .574-.095zm-2.883-5.566q-.398.34-.914.469-.504.129-2.496.41-1.992.27-2.824.867-.88.61-.88 1.781 0 1.114.774 1.77.785.68 2.098.68 1.851 0 3.047-1.126 1.195-1.125 1.195-2.882zM141.013 111.23v11.496q0 1.453-.176 2.332-.164.89-.574 1.606-1.325 2.285-4.817 2.285-2.273 0-3.61-1.008-1.323-1.008-1.452-2.848h1.511q.364 2.578 3.575 2.578 2.12 0 3.082-1.09.96-1.078.972-3.468l.012-2.016q-.387.762-.75 1.195-1.29 1.5-3.54 1.5-2.554 0-4.019-1.863-1.347-1.722-1.347-4.476 0-3.012 1.5-4.793 1.535-1.817 3.996-1.817 2.824 0 4.219 2.73v-2.343zm-5.637.926q-1.969 0-3.059 1.652-.914 1.383-.914 3.504 0 2.613 1.266 3.984 1.078 1.184 2.742 1.184 2.05 0 3.2-1.688.902-1.335.902-3.62 0-1.208-.352-2.239-.34-1.031-.961-1.664-1.078-1.113-2.824-1.113zM154.208 119.761q-.235 1.219-.738 2.086-1.477 2.496-4.524 2.496-2.8 0-4.336-2.039-1.36-1.804-1.36-4.582 0-3.035 1.618-4.98 1.57-1.887 4.031-1.887 1.969 0 3.375 1.254 1.09.973 1.582 2.379.504 1.406.492 3.504l-9.574-.012q.035 1.29.305 2.133.937 2.918 3.879 2.918 1.5 0 2.46-.832.962-.832 1.337-2.438zm-1.395-3.094q-.082-1.605-.726-2.66-1.114-1.84-3.223-1.84-1.43 0-2.473.88-1.312 1.113-1.605 3.62zM165.294 114.921h-1.489q-.105-1.007-.468-1.558-.774-1.196-2.86-1.196-1.289 0-2.039.493-.879.574-.879 1.664 0 .691.364 1.09.351.386.96.632.622.246 2.227.621 2.32.54 3.317 1.208.609.421.949 1.101.351.68.351 1.477 0 .879-.41 1.664-.41.785-1.148 1.3-1.313.926-3.364.926-2.835 0-4.183-1.71-.856-1.067-.902-2.837h1.464q.094 1.278.575 1.946.914 1.289 3.07 1.289 1.605 0 2.484-.68.926-.715.926-1.805 0-.937-.726-1.464-.727-.528-2.684-1.008-1.629-.399-2.25-.598-.621-.2-1.102-.469-.668-.375-1.043-1.043-.363-.68-.363-1.511 0-1.97 1.664-2.942 1.113-.656 2.848-.656 2.601 0 3.832 1.488.762.914.879 2.578zM178.22 111.23l-5.297 4.64 5.66 8.098h-1.887l-4.933-7.008-2.461 2.192v4.816h-1.512v-17.133h1.512v10.594l6.902-6.199zM190.641 122.632v1.23q-.562.2-1.218.2-.88 0-1.243-.527-.351-.528-.351-1.805-.586.96-1.23 1.488-1.395 1.125-3.458 1.125-1.793 0-2.824-.855-1.207-.985-1.207-2.754 0-2.496 2.332-3.434.68-.27 1.278-.363.609-.105 3.07-.352 1.125-.117 1.547-.468.422-.352.422-1.172 0-1.465-.786-2.11-.832-.668-2.437-.668-1.606 0-2.426.727-.808.715-.96 2.273h-1.454q.094-2.074 1.395-3.187 1.3-1.125 3.609-1.125 2.531 0 3.762 1.3.468.481.62 1.114.153.633.153 2.04l-.012 3.714q.012 2.332.024 2.754.023.422.094.61.152.34.726.34.246 0 .574-.095zm-2.882-5.566q-.399.34-.914.469-.504.129-2.497.41-1.992.27-2.824.867-.879.61-.879 1.781 0 1.114.774 1.77.785.68 2.097.68 1.852 0 3.047-1.126 1.196-1.125 1.196-2.882zM198.411 111.03v1.606q-.281-.011-.387-.011-1.969 0-3.164 1.43-.633.76-.867 1.757-.223.984-.223 3v5.156h-1.511v-12.726h1.418v3q.714-1.664 1.84-2.461 1.113-.739 2.894-.75zM205.5 111.23v1.312h-2.566v8.028q0 1.23.188 1.57.305.54 1.371.54.469 0 1.008-.083v1.36q-.715.105-1.348.105-1.863 0-2.426-1.031-.199-.363-.257-.95-.047-.585-.047-2.296v-7.242h-2.157v-1.313h2.157v-3.105h1.511v3.105zM217.29 119.761q-.235 1.219-.738 2.086-1.477 2.496-4.524 2.496-2.8 0-4.336-2.039-1.36-1.804-1.36-4.582 0-3.035 1.618-4.98 1.57-1.887 4.031-1.887 1.969 0 3.375 1.254 1.09.973 1.582 2.379.504 1.406.492 3.504l-9.574-.012q.035 1.29.305 2.133.937 2.918 3.879 2.918 1.5 0 2.46-.832.962-.832 1.337-2.438zm-1.395-3.094q-.082-1.605-.726-2.66-1.114-1.84-3.223-1.84-1.43 0-2.473.88-1.312 1.113-1.605 3.62zM234.4 115.261v8.707h-1.079l-.34-3.199q-.773 1.711-2.355 2.66-1.582.938-3.68.938-2.508 0-4.406-1.23-1.875-1.22-2.848-3.481-.797-1.852-.797-4.09 0-4.066 2.32-6.68 2.192-2.449 5.825-2.449 3.387 0 5.426 2.156 1.382 1.453 1.699 3.516h-1.582q-.352-1.922-1.875-3.094-1.512-1.172-3.656-1.172-3.2 0-5.028 2.438-1.5 2.015-1.5 5.261 0 3.094 1.512 5.063 1.816 2.355 5.016 2.355 2.543 0 4.183-1.593 1.711-1.664 1.723-4.77h-5.871v-1.336zM247.571 119.761q-.234 1.219-.738 2.086-1.477 2.496-4.524 2.496-2.8 0-4.336-2.039-1.359-1.804-1.359-4.582 0-3.035 1.617-4.98 1.57-1.887 4.032-1.887 1.968 0 3.375 1.254 1.09.973 1.582 2.379.503 1.406.492 3.504l-9.574-.012q.035 1.29.304 2.133.938 2.918 3.88 2.918 1.5 0 2.46-.832.961-.832 1.336-2.438zm-1.394-3.094q-.082-1.605-.727-2.66-1.113-1.84-3.223-1.84-1.43 0-2.472.88-1.313 1.113-1.606 3.62zM251.11 111.242v2.18q.668-1.09 1.324-1.618 1.184-.949 2.79-.949 2.683 0 3.574 2.473.55-.985 1.172-1.489 1.207-.984 2.93-.984 2.155 0 3.245 1.465.387.539.551 1.195.164.645.164 1.688v8.765h-1.512v-8.332q0-1.511-.375-2.18-.703-1.218-2.472-1.218-2.098 0-2.977 1.746-.469.926-.469 2.695v7.29h-1.511v-8.286q0-1.465-.34-2.156-.293-.598-.938-.938-.632-.351-1.453-.351-1.02 0-1.851.515-.832.504-1.266 1.407-.492 1.007-.492 2.836v6.972h-1.512v-12.726ZM280.02 119.761q-.234 1.219-.738 2.086-1.477 2.496-4.523 2.496-2.801 0-4.336-2.039-1.36-1.804-1.36-4.582 0-3.035 1.617-4.98 1.57-1.887 4.032-1.887 1.968 0 3.375 1.254 1.09.973 1.582 2.379.504 1.406.492 3.504l-9.574-.012q.035 1.29.304 2.133.938 2.918 3.88 2.918 1.5 0 2.46-.832.961-.832 1.336-2.438zm-1.394-3.094q-.082-1.605-.727-2.66-1.113-1.84-3.222-1.84-1.43 0-2.473.88-1.313 1.113-1.606 3.62zM283.712 106.835v2.215H282.2v-2.215zm0 4.63v12.503H282.2v-12.504zM287.99 111.242v2.355q.538-.972 1.019-1.441 1.289-1.301 3.363-1.301 1.664 0 2.789.832.844.621 1.172 1.512.328.89.328 2.578v8.191h-1.512v-7.687q0-2.121-.539-2.883-.797-1.16-2.578-1.16-1.676 0-2.754 1.09-.656.68-.926 1.629t-.27 2.648v6.363h-1.51v-12.726ZM310.419 106.835v17.133H309v-2.508q-.41.961-.996 1.547-1.371 1.336-3.446 1.336-2.66 0-4.183-1.945-1.43-1.84-1.43-4.805 0-3.164 1.547-4.957 1.547-1.793 4.02-1.793 3.128 0 4.394 2.614v-6.622zm-5.801 5.32q-1.816 0-2.953 1.384-1.195 1.464-1.195 4.02 0 2.331 1.03 3.831 1.114 1.64 3.188 1.64 2.004 0 3.153-1.523 1.101-1.453 1.101-3.902 0-2.59-1.172-3.996-1.195-1.453-3.152-1.453zM323.59 119.761q-.234 1.219-.738 2.086-1.476 2.496-4.523 2.496-2.8 0-4.336-2.039-1.36-1.804-1.36-4.582 0-3.035 1.618-4.98 1.57-1.887 4.031-1.887 1.969 0 3.375 1.254 1.09.973 1.582 2.379.504 1.406.492 3.504l-9.574-.012q.035 1.29.305 2.133.937 2.918 3.879 2.918 1.5 0 2.46-.832.962-.832 1.337-2.438zm-1.394-3.094q-.082-1.605-.726-2.66-1.114-1.84-3.223-1.84-1.43 0-2.473.88-1.312 1.113-1.605 3.62zM341.345 111.23v1.09l-8.168 10.336h8.52v1.312h-10.372v-1.289l8.04-10.16h-7.49v-1.289zM353.286 111.23v12.738h-1.418v-2.343q-1.406 2.718-4.336 2.718-1.055 0-1.98-.41-.914-.41-1.477-1.137-.844-1.09-.844-3.351v-8.215h1.512v7.523q0 1.793.305 2.567.304.75 1.054 1.183.786.457 1.758.457 1.008 0 1.84-.468.832-.469 1.348-1.325.726-1.207.726-3.445v-6.492zM365.052 114.921h-1.489q-.105-1.007-.468-1.558-.774-1.196-2.86-1.196-1.289 0-2.039.493-.879.574-.879 1.664 0 .691.363 1.09.352.386.961.632.622.246 2.227.621 2.32.54 3.316 1.208.61.421.95 1.101.351.68.351 1.477 0 .879-.41 1.664-.41.785-1.148 1.3-1.313.926-3.364.926-2.836 0-4.183-1.71-.856-1.067-.903-2.837h1.465q.094 1.278.574 1.946.914 1.289 3.07 1.289 1.606 0 2.485-.68.926-.715.926-1.805 0-.937-.727-1.464-.726-.528-2.683-1.008-1.63-.399-2.25-.598-.621-.2-1.102-.469-.668-.375-1.043-1.043-.363-.68-.363-1.511 0-1.97 1.664-2.942 1.113-.656 2.848-.656 2.601 0 3.832 1.488.761.914.879 2.578zM378.563 122.632v1.23q-.562.2-1.218.2-.88 0-1.243-.527-.351-.528-.351-1.805-.586.96-1.23 1.488-1.395 1.125-3.458 1.125-1.793 0-2.824-.855-1.207-.985-1.207-2.754 0-2.496 2.332-3.434.68-.27 1.277-.363.61-.105 3.07-.352 1.126-.117 1.548-.468.421-.352.421-1.172 0-1.465-.785-2.11-.832-.668-2.437-.668-1.606 0-2.426.727-.809.715-.96 2.273h-1.454q.094-2.074 1.395-3.187 1.3-1.125 3.609-1.125 2.531 0 3.762 1.3.468.481.62 1.114.153.633.153 2.04l-.012 3.714q.012 2.332.024 2.754.023.422.093.61.153.34.727.34.246 0 .574-.095zm-2.883-5.566q-.398.34-.914.469-.503.129-2.496.41-1.992.27-2.824.867-.879.61-.879 1.781 0 1.114.774 1.77.785.68 2.097.68 1.852 0 3.047-1.126 1.195-1.125 1.195-2.882zM381.575 111.242v2.18q.668-1.09 1.324-1.618 1.184-.949 2.79-.949 2.683 0 3.574 2.473.55-.985 1.171-1.489 1.207-.984 2.93-.984 2.156 0 3.246 1.465.387.539.55 1.195.165.645.165 1.688v8.765h-1.512v-8.332q0-1.511-.375-2.18-.703-1.218-2.472-1.218-2.098 0-2.977 1.746-.469.926-.469 2.695v7.29h-1.511v-8.286q0-1.465-.34-2.156-.293-.598-.938-.938-.633-.351-1.453-.351-1.02 0-1.851.515-.832.504-1.266 1.407-.492 1.007-.492 2.836v6.972h-1.512v-12.726ZM401.567 111.242v2.18q.668-1.09 1.324-1.618 1.184-.949 2.79-.949 2.683 0 3.574 2.473.55-.985 1.172-1.489 1.207-.984 2.93-.984 2.156 0 3.245 1.465.387.539.551 1.195.164.645.164 1.688v8.765h-1.512v-8.332q0-1.511-.375-2.18-.703-1.218-2.472-1.218-2.098 0-2.977 1.746-.468.926-.468 2.695v7.29H408v-8.286q0-1.465-.34-2.156-.293-.598-.938-.938-.632-.351-1.453-.351-1.02 0-1.851.515-.832.504-1.266 1.407-.492 1.007-.492 2.836v6.972h-1.512v-12.726ZM430.477 119.761q-.234 1.219-.738 2.086-1.476 2.496-4.523 2.496-2.801 0-4.336-2.039-1.36-1.804-1.36-4.582 0-3.035 1.618-4.98 1.57-1.887 4.03-1.887 1.97 0 3.376 1.254 1.09.973 1.582 2.379.504 1.406.492 3.504l-9.574-.012q.035 1.29.304 2.133.938 2.918 3.88 2.918 1.5 0 2.46-.832.961-.832 1.336-2.438zm-1.394-3.094q-.082-1.605-.727-2.66-1.113-1.84-3.222-1.84-1.43 0-2.473.88-1.313 1.113-1.606 3.62zM434.005 111.242v2.355q.539-.972 1.02-1.441 1.288-1.301 3.363-1.301 1.664 0 2.789.832.843.621 1.171 1.512.329.89.329 2.578v8.191h-1.512v-7.687q0-2.121-.54-2.883-.796-1.16-2.577-1.16-1.676 0-2.754 1.09-.656.68-.926 1.629t-.27 2.648v6.363h-1.511v-12.726ZM453.575 111.242v2.18q.668-1.09 1.324-1.618 1.184-.949 2.79-.949 2.683 0 3.574 2.473.55-.985 1.171-1.489 1.207-.984 2.93-.984 2.156 0 3.246 1.465.387.539.55 1.195.165.645.165 1.688v8.765h-1.512v-8.332q0-1.511-.375-2.18-.703-1.218-2.472-1.218-2.098 0-2.977 1.746-.469.926-.469 2.695v7.29h-1.511v-8.286q0-1.465-.34-2.156-.293-.598-.938-.938-.633-.351-1.453-.351-1.02 0-1.851.515-.832.504-1.266 1.407-.492 1.007-.492 2.836v6.972h-1.512v-12.726ZM473.72 106.835v2.215h-1.512v-2.215zm0 4.63v12.503h-1.512v-12.504zM481.56 111.23v1.312h-2.567v8.028q0 1.23.187 1.57.305.54 1.372.54.468 0 1.007-.083v1.36q-.714.105-1.347.105-1.864 0-2.426-1.031-.2-.363-.258-.95-.047-.585-.047-2.296v-7.242h-2.156v-1.313h2.156v-3.105h1.512v3.105zM504.165 106.835v17.133h-1.63v-8.273H492.27v8.273h-1.629v-17.133h1.63v7.454h10.265v-7.454zM518.052 122.632v1.23q-.563.2-1.22.2-.878 0-1.241-.527-.352-.528-.352-1.805-.586.96-1.23 1.488-1.395 1.125-3.457 1.125-1.793 0-2.825-.855-1.207-.985-1.207-2.754 0-2.496 2.332-3.434.68-.27 1.278-.363.61-.105 3.07-.352 1.125-.117 1.547-.468.422-.352.422-1.172 0-1.465-.785-2.11-.832-.668-2.438-.668-1.605 0-2.426.727-.808.715-.96 2.273h-1.454q.094-2.074 1.395-3.187 1.3-1.125 3.61-1.125 2.53 0 3.76 1.3.47.481.622 1.114.152.633.152 2.04l-.011 3.714q.011 2.332.023 2.754.023.422.094.61.152.34.726.34.246 0 .575-.095zm-2.883-5.566q-.399.34-.914.469-.504.129-2.496.41-1.993.27-2.825.867-.879.61-.879 1.781 0 1.114.774 1.77.785.68 2.098.68 1.851 0 3.046-1.126 1.196-1.125 1.196-2.882zM521.216 106.835v17.133h-1.512v-17.133zM525.622 106.835v6.657q.387-.88 1.066-1.477 1.313-1.172 3.34-1.172 2.531 0 4.067 1.864 1.464 1.77 1.464 4.851 0 3.164-1.582 5.027-1.5 1.758-4.007 1.758-3.293 0-4.442-2.847v2.472h-1.418v-17.133zm4.148 5.32q-1.804 0-2.953 1.36-1.23 1.453-1.23 4.055 0 2.601 1.218 4.078 1.149 1.383 3.036 1.383 1.886 0 3-1.418 1.195-1.535 1.195-4.008 0-2.414-1.043-3.867-1.137-1.582-3.223-1.582zM542.837 111.23v1.312h-2.567v8.028q0 1.23.188 1.57.305.54 1.37.54.47 0 1.009-.083v1.36q-.715.105-1.348.105-1.863 0-2.426-1.031-.199-.363-.258-.95-.046-.585-.046-2.296v-7.242h-2.157v-1.313h2.157v-3.105h1.511v3.105zM555.716 122.632v1.23q-.563.2-1.22.2-.878 0-1.241-.527-.352-.528-.352-1.805-.586.96-1.23 1.488-1.395 1.125-3.457 1.125-1.793 0-2.825-.855-1.207-.985-1.207-2.754 0-2.496 2.332-3.434.68-.27 1.278-.363.61-.105 3.07-.352 1.125-.117 1.547-.468.422-.352.422-1.172 0-1.465-.785-2.11-.832-.668-2.438-.668-1.605 0-2.426.727-.808.715-.96 2.273h-1.454q.094-2.074 1.395-3.187 1.3-1.125 3.61-1.125 2.53 0 3.76 1.3.47.481.622 1.114.152.633.152 2.04l-.011 3.714q.011 2.332.023 2.754.023.422.094.61.152.34.726.34.246 0 .575-.095zm-2.883-5.566q-.399.34-.914.469-.504.129-2.496.41-1.993.27-2.825.867-.878.61-.878 1.781 0 1.114.773 1.77.785.68 2.098.68 1.851 0 3.047-1.126 1.195-1.125 1.195-2.882zM567.669 111.23l-4.406 5.93 4.898 6.808h-1.922l-3.937-5.554-3.891 5.554h-1.805l4.793-6.703-4.43-6.035h1.91l3.47 4.77 3.515-4.77zM573.985 116.937v1.371h-5.707v-1.371zM583.876 106.777l6.844 17.191h-1.829l-2.062-5.39h-7.84l-2.11 5.39h-1.745l6.925-17.191zm2.449 10.476-3.398-8.753-3.446 8.753zM593.614 106.835v6.657q.387-.88 1.066-1.477 1.313-1.172 3.34-1.172 2.532 0 4.067 1.864 1.465 1.77 1.465 4.851 0 3.164-1.582 5.027-1.5 1.758-4.008 1.758-3.293 0-4.442-2.847v2.472h-1.418v-17.133zm4.149 5.32q-1.805 0-2.954 1.36-1.23 1.453-1.23 4.055 0 2.601 1.219 4.078 1.148 1.383 3.035 1.383 1.887 0 3-1.418 1.195-1.535 1.195-4.008 0-2.414-1.043-3.867-1.137-1.582-3.222-1.582zM611.227 110.855q2.684 0 4.301 2.004 1.453 1.77 1.453 4.781 0 3.188-1.676 4.992-1.593 1.711-4.16 1.711-2.836 0-4.418-1.992-1.464-1.84-1.464-4.746 0-2.836 1.382-4.64 1.618-2.11 4.582-2.11zm-.14 1.312q-1.864 0-3.047 1.43-1.23 1.465-1.23 3.985 0 2.554 1.195 4.02 1.172 1.429 3.164 1.429 1.898 0 3.023-1.336 1.266-1.488 1.266-4.067 0-2.472-1.137-3.949-1.16-1.512-3.234-1.512z" style="-inkscape-font-specification:&quot;SBB Web, Light&quot;" transform="matrix(.26458 0 0 .26458 -1.718 -4.082)"/></g></svg>