<svg xmlns="http://www.w3.org/2000/svg" width="1588" height="1122.667" viewBox="0 0 420.158 297.039"><path d="M2312.349 1052.019h21.91v474.033h-21.91z" style="fill:#fffffd;stroke-width:.897319" transform="matrix(.26458 0 0 .26458 -205.448 -138.012)"/><text x="-1522.568" y="2326.415" style="font-style:normal;font-variant:normal;font-weight:300;font-stretch:normal;font-size:12.007px;font-family:&quot;SBB Web&quot;;-inkscape-font-specification:&quot;SBB Web, Light&quot;;font-variant-ligatures:normal;font-variant-caps:normal;font-variant-numeric:normal;font-variant-east-asian:normal;isolation:isolate" transform="matrix(0 -.26458 .26458 0 -205.448 -138.012)"><tspan xml:space="preserve" x="-1522.568" y="2326.415" style="font-style:normal;font-variant:normal;font-weight:300;font-stretch:normal;font-size:12.007px;font-family:&quot;SBB Web&quot;;-inkscape-font-specification:&quot;SBB Web, Light&quot;;font-variant-ligatures:normal;font-variant-caps:normal;font-variant-numeric:normal;font-variant-east-asian:normal">Quelle: OpenStreetMap contributors  © SBB/CFF/FFS www.traﬁmage.ch www.geops.ch</tspan></text><g style="stroke:none"><path d="M-883.626 457.431H582.338v39.794H-883.626z" style="fill:#fffffa;stroke-width:3.59483;stroke-dasharray:3.59483,3.59483" transform="matrix(.26458 0 0 .26458 241.793 157.482)"/><text xml:space="preserve" x="-832.993" y="500.156" style="font-style:italic;font-variant:normal;font-weight:400;font-stretch:normal;font-size:13.3333px;line-height:1.25;font-family:&quot;SBB Web&quot;;-inkscape-font-specification:&quot;SBB Web, Italic&quot;;font-variant-ligatures:normal;font-variant-caps:normal;font-variant-numeric:normal;font-variant-east-asian:normal;fill:#000;fill-opacity:1;stroke:none;stroke-width:1.05725" transform="matrix(.27973 0 0 .25025 241.793 157.482)"><tspan x="-832.993" y="500.156">Auf gewissen Autobuslinien ist ein Zuschlag und/oder eine Platzreservierung erforderlich. Bitte beachten Sie zudem, dass vom 21. März bis zum 31. Oktober für Velos in InterCity (IC)-Zügen eine Veloplatzreservation obligatorisch ist.</tspan><tspan x="-832.993" y="516.822">Bitte beachten Sie die Hinweise für die gewünschte Verbindung im (Online-)Fahrplan.</tspan></text></g><g style="stroke:none"><path d="M0 0h255v255H0z" style="fill:#fff;fill-opacity:1" transform="translate(7.435 248.941) scale(.10656)"/><path d="M0 0h245v245H0z" style="fill:#fff;fill-opacity:1" transform="translate(7.968 249.474) scale(.10656)"/><path d="M7 7h7v7H7Zm7 0h7v7h-7zm7 0h7v7h-7zm7 0h7v7h-7zm7 0h7v7h-7zm7 0h7v7h-7zm7 0h7v7h-7zm28 0h7v7h-7zm14 0h7v7h-7zm28 0h7v7h-7zm21 0h7v7h-7zm7 0h7v7h-7zm7 0h7v7h-7zm7 0h7v7h-7zm7 0h7v7h-7zm21 0h7v7h-7zm7 0h7v7h-7zm7 0h7v7h-7zm7 0h7v7h-7zm7 0h7v7h-7zm7 0h7v7h-7zm7 0h7v7h-7zM7 14h7v7H7Zm42 0h7v7h-7zm14 0h7v7h-7zm14 0h7v7h-7zm21 0h7v7h-7zm14 0h7v7h-7zm7 0h7v7h-7zm7 0h7v7h-7zm7 0h7v7h-7zm14 0h7v7h-7zm7 0h7v7h-7zm7 0h7v7h-7zm28 0h7v7h-7zm42 0h7v7h-7zM7 21h7v7H7Zm14 0h7v7h-7zm7 0h7v7h-7zm7 0h7v7h-7zm14 0h7v7h-7zm42 0h7v7h-7zm49 0h7v7h-7zm7 0h7v7h-7zm7 0h7v7h-7zm35 0h7v7h-7zm14 0h7v7h-7zm7 0h7v7h-7zm7 0h7v7h-7zm14 0h7v7h-7zM7 28h7v7H7Zm14 0h7v7h-7zm7 0h7v7h-7zm7 0h7v7h-7zm14 0h7v7h-7zm14 0h7v7h-7zm7 0h7v7h-7zm7 0h7v7h-7zm14 0h7v7h-7zm7 0h7v7h-7zm7 0h7v7h-7zm7 0h7v7h-7zm7 0h7v7h-7zm7 0h7v7h-7zm7 0h7v7h-7zm7 0h7v7h-7zm21 0h7v7h-7zm14 0h7v7h-7zm14 0h7v7h-7zm14 0h7v7h-7zm7 0h7v7h-7zm7 0h7v7h-7zm14 0h7v7h-7zM7 35h7v7H7Zm14 0h7v7h-7zm7 0h7v7h-7zm7 0h7v7h-7zm14 0h7v7h-7zm21 0h7v7h-7zm49 0h7v7h-7zm7 0h7v7h-7zm7 0h7v7h-7zm7 0h7v7h-7zm7 0h7v7h-7zm7 0h7v7h-7zm7 0h7v7h-7zm7 0h7v7h-7zm21 0h7v7h-7zm14 0h7v7h-7zm7 0h7v7h-7zm7 0h7v7h-7zm14 0h7v7h-7zM7 42h7v7H7Zm42 0h7v7h-7zm14 0h7v7h-7zm7 0h7v7h-7zm14 0h7v7h-7zm7 0h7v7h-7zm14 0h7v7h-7zm7 0h7v7h-7zm7 0h7v7h-7zm7 0h7v7h-7zm28 0h7v7h-7zm7 0h7v7h-7zm14 0h7v7h-7zm14 0h7v7h-7zm42 0h7v7h-7zM7 49h7v7H7Zm7 0h7v7h-7zm7 0h7v7h-7zm7 0h7v7h-7zm7 0h7v7h-7zm7 0h7v7h-7zm7 0h7v7h-7zm14 0h7v7h-7zm14 0h7v7h-7zm14 0h7v7h-7zm14 0h7v7h-7zm14 0h7v7h-7zm14 0h7v7h-7zm14 0h7v7h-7zm14 0h7v7h-7zm14 0h7v7h-7zm14 0h7v7h-7zm7 0h7v7h-7zm7 0h7v7h-7zm7 0h7v7h-7zm7 0h7v7h-7zm7 0h7v7h-7zm7 0h7v7h-7zM70 56h7v7h-7zm7 0h7v7h-7zm7 0h7v7h-7zm21 0h7v7h-7zm14 0h7v7h-7zm21 0h7v7h-7zm14 0h7v7h-7zM7 63h7v7H7Zm7 0h7v7h-7zm7 0h7v7h-7zm7 0h7v7h-7zm7 0h7v7h-7zm14 0h7v7h-7zm7 0h7v7h-7zm7 0h7v7h-7zm7 0h7v7h-7zm14 0h7v7h-7zm14 0h7v7h-7zm7 0h7v7h-7zm7 0h7v7h-7zm14 0h7v7h-7zm35 0h7v7h-7zm7 0h7v7h-7zm7 0h7v7h-7zm7 0h7v7h-7zm14 0h7v7h-7zm14 0h7v7h-7zm14 0h7v7h-7zM7 70h7v7H7Zm21 0h7v7h-7zm14 0h7v7h-7zm21 0h7v7h-7zm14 0h7v7h-7zm14 0h7v7h-7zm14 0h7v7h-7zm14 0h7v7h-7zm14 0h7v7h-7zm7 0h7v7h-7zm7 0h7v7h-7zm7 0h7v7h-7zm14 0h7v7h-7zm21 0h7v7h-7zm7 0h7v7h-7zm21 0h7v7h-7zm7 0h7v7h-7zm7 0h7v7h-7zM7 77h7v7H7Zm42 0h7v7h-7zm7 0h7v7h-7zm21 0h7v7h-7zm21 0h7v7h-7zm14 0h7v7h-7zm14 0h7v7h-7zm21 0h7v7h-7zm7 0h7v7h-7zm7 0h7v7h-7zm14 0h7v7h-7zm7 0h7v7h-7zm7 0h7v7h-7zm7 0h7v7h-7zm7 0h7v7h-7zm7 0h7v7h-7zm14 0h7v7h-7zM14 84h7v7h-7zm14 0h7v7h-7zm14 0h7v7h-7zm14 0h7v7h-7zm35 0h7v7h-7zm28 0h7v7h-7zm35 0h7v7h-7zm7 0h7v7h-7zm28 0h7v7h-7zm7 0h7v7h-7zm21 0h7v7h-7zM7 91h7v7H7Zm7 0h7v7h-7zm7 0h7v7h-7zm7 0h7v7h-7zm21 0h7v7h-7zm14 0h7v7h-7zm7 0h7v7h-7zm7 0h7v7h-7zm14 0h7v7h-7zm7 0h7v7h-7zm7 0h7v7h-7zm21 0h7v7h-7zm42 0h7v7h-7zm7 0h7v7h-7zm7 0h7v7h-7zm14 0h7v7h-7zm7 0h7v7h-7zm7 0h7v7h-7zM14 98h7v7h-7zm7 0h7v7h-7zm14 0h7v7h-7zm21 0h7v7h-7zm7 0h7v7h-7zm56 0h7v7h-7zm14 0h7v7h-7zm7 0h7v7h-7zm7 0h7v7h-7zm21 0h7v7h-7zm21 0h7v7h-7zm35 0h7v7h-7zm7 0h7v7h-7zm-217 7h7v7h-7zm7 0h7v7h-7zm7 0h7v7h-7zm7 0h7v7h-7zm14 0h7v7h-7zm7 0h7v7h-7zm21 0h7v7h-7zm7 0h7v7h-7zm7 0h7v7h-7zm14 0h7v7h-7zm7 0h7v7h-7zm7 0h7v7h-7zm14 0h7v7h-7zm14 0h7v7h-7zm7 0h7v7h-7zm7 0h7v7h-7zm35 0h7v7h-7zm7 0h7v7h-7zm21 0h7v7h-7zM7 112h7v7H7Zm35 0h7v7h-7zm35 0h7v7h-7zm7 0h7v7h-7zm21 0h7v7h-7zm7 0h7v7h-7zm7 0h7v7h-7zm21 0h7v7h-7zm7 0h7v7h-7zm7 0h7v7h-7zm7 0h7v7h-7zm14 0h7v7h-7zm7 0h7v7h-7zm7 0h7v7h-7zm7 0h7v7h-7zm21 0h7v7h-7zM7 119h7v7H7Zm7 0h7v7h-7zm7 0h7v7h-7zm21 0h7v7h-7zm7 0h7v7h-7zm14 0h7v7h-7zm14 0h7v7h-7zm7 0h7v7h-7zm7 0h7v7h-7zm7 0h7v7h-7zm7 0h7v7h-7zm7 0h7v7h-7zm7 0h7v7h-7zm7 0h7v7h-7zm7 0h7v7h-7zm7 0h7v7h-7zm21 0h7v7h-7zm7 0h7v7h-7zm7 0h7v7h-7zm7 0h7v7h-7zm14 0h7v7h-7zm7 0h7v7h-7zm21 0h7v7h-7zm-210 7h7v7h-7zm7 0h7v7h-7zm7 0h7v7h-7zm7 0h7v7h-7zm21 0h7v7h-7zm7 0h7v7h-7zm28 0h7v7h-7zm7 0h7v7h-7zm21 0h7v7h-7zm7 0h7v7h-7zm7 0h7v7h-7zm7 0h7v7h-7zm14 0h7v7h-7zm14 0h7v7h-7zm21 0h7v7h-7zm21 0h7v7h-7zm14 0h7v7h-7zm7 0h7v7h-7zm-203 7h7v7h-7zm14 0h7v7h-7zm7 0h7v7h-7zm7 0h7v7h-7zm35 0h7v7h-7zm21 0h7v7h-7zm14 0h7v7h-7zm21 0h7v7h-7zm7 0h7v7h-7zm21 0h7v7h-7zm14 0h7v7h-7zm14 0h7v7h-7zm7 0h7v7h-7zm14 0h7v7h-7zM7 140h7v7H7Zm7 0h7v7h-7zm7 0h7v7h-7zm21 0h7v7h-7zm63 0h7v7h-7zm7 0h7v7h-7zm7 0h7v7h-7zm28 0h7v7h-7zm7 0h7v7h-7zm7 0h7v7h-7zm7 0h7v7h-7zm7 0h7v7h-7zm21 0h7v7h-7zm21 0h7v7h-7zM7 147h7v7H7Zm7 0h7v7h-7zm7 0h7v7h-7zm14 0h7v7h-7zm7 0h7v7h-7zm7 0h7v7h-7zm28 0h7v7h-7zm7 0h7v7h-7zm7 0h7v7h-7zm7 0h7v7h-7zm7 0h7v7h-7zm7 0h7v7h-7zm7 0h7v7h-7zm7 0h7v7h-7zm35 0h7v7h-7zm14 0h7v7h-7zm28 0h7v7h-7zm21 0h7v7h-7zM7 154h7v7H7Zm7 0h7v7h-7zm14 0h7v7h-7zm7 0h7v7h-7zm7 0h7v7h-7zm14 0h7v7h-7zm7 0h7v7h-7zm14 0h7v7h-7zm7 0h7v7h-7zm35 0h7v7h-7zm14 0h7v7h-7zm7 0h7v7h-7zm7 0h7v7h-7zm21 0h7v7h-7zm21 0h7v7h-7zm21 0h7v7h-7zm14 0h7v7h-7zm7 0h7v7h-7zM7 161h7v7H7Zm21 0h7v7h-7zm7 0h7v7h-7zm7 0h7v7h-7zm7 0h7v7h-7zm7 0h7v7h-7zm7 0h7v7h-7zm35 0h7v7h-7zm14 0h7v7h-7zm14 0h7v7h-7zm35 0h7v7h-7zm21 0h7v7h-7zm7 0h7v7h-7zm7 0h7v7h-7zm7 0h7v7h-7zm7 0h7v7h-7zm14 0h7v7h-7zM7 168h7v7H7Zm28 0h7v7h-7zm21 0h7v7h-7zm21 0h7v7h-7zm28 0h7v7h-7zm7 0h7v7h-7zm7 0h7v7h-7zm28 0h7v7h-7zm7 0h7v7h-7zm14 0h7v7h-7zm14 0h7v7h-7zm7 0h7v7h-7zm14 0h7v7h-7zm7 0h7v7h-7zm7 0h7v7h-7zM7 175h7v7H7Zm21 0h7v7h-7zm7 0h7v7h-7zm7 0h7v7h-7zm7 0h7v7h-7zm7 0h7v7h-7zm21 0h7v7h-7zm7 0h7v7h-7zm7 0h7v7h-7zm7 0h7v7h-7zm7 0h7v7h-7zm21 0h7v7h-7zm21 0h7v7h-7zm14 0h7v7h-7zm7 0h7v7h-7zm7 0h7v7h-7zm7 0h7v7h-7zm7 0h7v7h-7zm7 0h7v7h-7zm7 0h7v7h-7zm7 0h7v7h-7zm21 0h7v7h-7zm-168 7h7v7h-7zm14 0h7v7h-7zm7 0h7v7h-7zm14 0h7v7h-7zm21 0h7v7h-7zm14 0h7v7h-7zm7 0h7v7h-7zm7 0h7v7h-7zm7 0h7v7h-7zm21 0h7v7h-7zm28 0h7v7h-7zm7 0h7v7h-7zm7 0h7v7h-7zm14 0h7v7h-7zM7 189h7v7H7Zm7 0h7v7h-7zm7 0h7v7h-7zm7 0h7v7h-7zm7 0h7v7h-7zm7 0h7v7h-7zm7 0h7v7h-7zm14 0h7v7h-7zm7 0h7v7h-7zm21 0h7v7h-7zm21 0h7v7h-7zm7 0h7v7h-7zm14 0h7v7h-7zm14 0h7v7h-7zm14 0h7v7h-7zm7 0h7v7h-7zm7 0h7v7h-7zm14 0h7v7h-7zm14 0h7v7h-7zm7 0h7v7h-7zm14 0h7v7h-7zM7 196h7v7H7Zm42 0h7v7h-7zm21 0h7v7h-7zm7 0h7v7h-7zm35 0h7v7h-7zm7 0h7v7h-7zm21 0h7v7h-7zm7 0h7v7h-7zm7 0h7v7h-7zm7 0h7v7h-7zm14 0h7v7h-7zm28 0h7v7h-7zm7 0h7v7h-7zm7 0h7v7h-7zm7 0h7v7h-7zm7 0h7v7h-7zM7 203h7v7H7Zm14 0h7v7h-7zm7 0h7v7h-7zm7 0h7v7h-7zm14 0h7v7h-7zm14 0h7v7h-7zm7 0h7v7h-7zm7 0h7v7h-7zm21 0h7v7h-7zm14 0h7v7h-7zm14 0h7v7h-7zm7 0h7v7h-7zm7 0h7v7h-7zm21 0h7v7h-7zm14 0h7v7h-7zm7 0h7v7h-7zm7 0h7v7h-7zm7 0h7v7h-7zm7 0h7v7h-7zm7 0h7v7h-7zm14 0h7v7h-7zM7 210h7v7H7Zm14 0h7v7h-7zm7 0h7v7h-7zm7 0h7v7h-7zm14 0h7v7h-7zm14 0h7v7h-7zm21 0h7v7h-7zm14 0h7v7h-7zm21 0h7v7h-7zm7 0h7v7h-7zm7 0h7v7h-7zm7 0h7v7h-7zm7 0h7v7h-7zm7 0h7v7h-7zm14 0h7v7h-7zm7 0h7v7h-7zm7 0h7v7h-7zm14 0h7v7h-7zm7 0h7v7h-7zm7 0h7v7h-7zm7 0h7v7h-7zM7 217h7v7H7Zm14 0h7v7h-7zm7 0h7v7h-7zm7 0h7v7h-7zm14 0h7v7h-7zm14 0h7v7h-7zm14 0h7v7h-7zm14 0h7v7h-7zm7 0h7v7h-7zm7 0h7v7h-7zm7 0h7v7h-7zm7 0h7v7h-7zm35 0h7v7h-7zm7 0h7v7h-7zm7 0h7v7h-7zm7 0h7v7h-7zm14 0h7v7h-7zm7 0h7v7h-7zm14 0h7v7h-7zm14 0h7v7h-7zM7 224h7v7H7Zm42 0h7v7h-7zm14 0h7v7h-7zm7 0h7v7h-7zm7 0h7v7h-7zm14 0h7v7h-7zm28 0h7v7h-7zm21 0h7v7h-7zm14 0h7v7h-7zm7 0h7v7h-7zm21 0h7v7h-7zm21 0h7v7h-7zm7 0h7v7h-7zm7 0h7v7h-7zM7 231h7v7H7Zm7 0h7v7h-7zm7 0h7v7h-7zm7 0h7v7h-7zm7 0h7v7h-7zm7 0h7v7h-7zm7 0h7v7h-7zm14 0h7v7h-7zm21 0h7v7h-7zm7 0h7v7h-7zm7 0h7v7h-7zm7 0h7v7h-7zm7 0h7v7h-7zm14 0h7v7h-7zm35 0h7v7h-7zm7 0h7v7h-7zm7 0h7v7h-7zm35 0h7v7h-7zm14 0h7v7h-7z" style="fill:#000" transform="translate(7.968 249.474) scale(.10656)"/></g><path d="M-894.753 241.347h217.733v211.427h-217.733z" style="fill:#fff;fill-opacity:1;stroke:none;stroke-width:21.9074;stroke-miterlimit:4;stroke-dasharray:21.9074,21.9074;stroke-dashoffset:0;stroke-opacity:1" transform="matrix(.26458 0 0 .26458 244.172 4.448)"/><path d="M-891.091 300.798h156.397v25.757h-156.397z" style="fill:#fff;fill-opacity:1;stroke:none;stroke-width:6.48054;stroke-miterlimit:4;stroke-dasharray:6.48054,6.48054;stroke-dashoffset:0;stroke-opacity:1" transform="matrix(.26458 0 0 .26458 244.198 23.112)"/><path d="M-890.91 311.074h55.996v2.47h-55.996z" style="fill:#b4b4b4;fill-opacity:1;stroke:#b4b4b4;stroke-width:.553564;stroke-miterlimit:4;stroke-dasharray:none;stroke-dashoffset:0;stroke-opacity:1" transform="matrix(.26458 0 0 .26458 244.198 23.112)"/><text xml:space="preserve" x="-819.907" y="318.406" style="font-style:normal;font-variant:normal;font-weight:300;font-stretch:normal;font-size:16px;line-height:1.25;font-family:&quot;SBB Web&quot;;-inkscape-font-specification:&quot;SBB Web, Light&quot;;font-variant-ligatures:normal;font-variant-caps:normal;font-variant-numeric:normal;font-variant-east-asian:normal;fill:#000;fill-opacity:1;stroke:none;stroke-width:.264583" transform="matrix(.26458 0 0 .26458 244.198 23.112)"><tspan x="-819.907" y="318.406" style="font-style:normal;font-variant:normal;font-weight:300;font-stretch:normal;font-size:16px;font-family:&quot;SBB Web&quot;;-inkscape-font-specification:&quot;SBB Web, Light&quot;;font-variant-ligatures:normal;font-variant-caps:normal;font-variant-numeric:normal;font-variant-east-asian:normal;stroke-width:.264583">Keine Ermässigung</tspan></text><path d="M-899.583 292.246h211.958v42.227h-211.958z" style="fill:#fff;fill-opacity:1;stroke:none;stroke-width:9.65978;stroke-miterlimit:4;stroke-dasharray:9.65978,9.65978;stroke-dashoffset:0;stroke-opacity:1" transform="matrix(.26458 0 0 .26458 245.45 35.748)"/><text xml:space="preserve" x="-823.088" y="304.099" style="font-style:normal;font-variant:normal;font-weight:300;font-stretch:normal;font-size:16px;line-height:1.25;font-family:&quot;SBB Web&quot;;-inkscape-font-specification:&quot;SBB Web, Light&quot;;font-variant-ligatures:normal;font-variant-caps:normal;font-variant-numeric:normal;font-variant-east-asian:normal;fill:#000;fill-opacity:1;stroke:none;stroke-width:.264583" transform="matrix(.26458 0 0 .26458 245.45 35.748)"><tspan x="-823.088" y="304.099" style="font-style:normal;font-variant:normal;font-weight:300;font-stretch:normal;font-size:16px;font-family:&quot;SBB Web&quot;;-inkscape-font-specification:&quot;SBB Web, Light&quot;;font-variant-ligatures:normal;font-variant-caps:normal;font-variant-numeric:normal;font-variant-east-asian:normal">Gültigkeit</tspan><tspan x="-823.088" y="324.099" style="font-style:normal;font-variant:normal;font-weight:300;font-stretch:normal;font-size:16px;font-family:&quot;SBB Web&quot;;-inkscape-font-specification:&quot;SBB Web, Light&quot;;font-variant-ligatures:normal;font-variant-caps:normal;font-variant-numeric:normal;font-variant-east-asian:normal">vor Ort anfragen</tspan></text><path d="M-895.92 309.575h55.997" style="fill:none;stroke:#b4b4b4;stroke-width:3.02362;stroke-linecap:butt;stroke-linejoin:miter;stroke-miterlimit:4;stroke-dasharray:3.02362,3.02362;stroke-dashoffset:0;stroke-opacity:1" transform="matrix(.26458 0 0 .26458 245.45 35.748)"/><path d="M-112.334 187.343H94.6v40.768h-206.934z" style="fill:#fff;fill-opacity:1;stroke:none;stroke-width:9.37824;stroke-miterlimit:4;stroke-dasharray:9.37824,9.37824;stroke-dashoffset:0;stroke-opacity:1" transform="matrix(.26458 0 0 .26458 38.126 39.288)"/><path d="M-112.334 219.171h55.997" style="fill:none;stroke:#eb0000;stroke-width:3.02362;stroke-linecap:butt;stroke-linejoin:miter;stroke-miterlimit:4;stroke-dasharray:3.02362,3.02362;stroke-dashoffset:0;stroke-opacity:1" transform="matrix(.26458 0 0 .26458 38.126 39.288)"/><path d="M-112.334 212.148h55.997" style="fill:none;stroke:#000;stroke-width:3.02362;stroke-linecap:butt;stroke-linejoin:miter;stroke-miterlimit:4;stroke-dasharray:3.02362,3.02362;stroke-dashoffset:0;stroke-opacity:1" transform="matrix(.26458 0 0 .26458 38.126 39.288)"/><path d="M-112.334 197.704h55.997" style="fill:none;stroke:#2a6698;stroke-width:3.02362;stroke-linecap:butt;stroke-linejoin:miter;stroke-miterlimit:4;stroke-dasharray:3.02362,3.02362;stroke-dashoffset:0;stroke-opacity:1" transform="matrix(.26458 0 0 .26458 38.126 39.288)"/><text xml:space="preserve" x="-41.15" y="203.045" style="font-style:normal;font-variant:normal;font-weight:300;font-stretch:normal;font-size:16px;line-height:1.25;font-family:&quot;SBB Web&quot;;-inkscape-font-specification:&quot;SBB Web, Light&quot;;font-variant-ligatures:normal;font-variant-caps:normal;font-variant-numeric:normal;font-variant-east-asian:normal;fill:#000;fill-opacity:1;stroke:none;stroke-width:.264583" transform="matrix(.26458 0 0 .26458 38.126 39.288)"><tspan x="-41.15" y="203.045" style="font-style:normal;font-variant:normal;font-weight:300;font-stretch:normal;font-size:16px;font-family:&quot;SBB Web&quot;;-inkscape-font-specification:&quot;SBB Web, Light&quot;;font-variant-ligatures:normal;font-variant-caps:normal;font-variant-numeric:normal;font-variant-east-asian:normal">Fahrt zum</tspan><tspan x="-41.15" y="223.045" style="font-style:normal;font-variant:normal;font-weight:300;font-stretch:normal;font-size:16px;font-family:&quot;SBB Web&quot;;-inkscape-font-specification:&quot;SBB Web, Light&quot;;font-variant-ligatures:normal;font-variant-caps:normal;font-variant-numeric:normal;font-variant-east-asian:normal">ermässigten Preis</tspan></text><g style="fill:#fff200;fill-opacity:1;stroke:#4a4a4a;stroke-width:.39685;stroke-miterlimit:4;stroke-dasharray:none;stroke-opacity:1"><path d="M-112.533 53.021v3.024h3.023V53.02zm6.047 0v3.024h3.023V53.02zm6.047 0v3.024h3.023V53.02zm6.048 0v3.024h3.024V53.02zm6.047 0v3.024h3.024V53.02zm6.047 0v3.024h3.024V53.02zm6.047 0v3.024h3.023V53.02zm6.047 0v3.024h3.023V53.02zm6.049 0v3.024h3.023V53.02zm6.047 0v3.024h1.738V53.02z" style="color:#000;fill:#fff200;fill-opacity:1;stroke:#4a4a4a;stroke-width:.39685;stroke-miterlimit:4;stroke-dasharray:none;stroke-opacity:1" transform="matrix(.26458 0 0 .26458 38.157 79.08)"/></g><path d="M-891.091 293.249h156.397v40.768h-156.397z" style="fill:#fff;fill-opacity:1;stroke:none;stroke-width:8.15307;stroke-miterlimit:4;stroke-dasharray:8.15307,8.15307;stroke-dashoffset:0;stroke-opacity:1" transform="matrix(.26458 0 0 .26458 244.198 -1.107)"/><path d="M-890.821 324.402h55.996v2.47h-55.996z" style="fill:#2a6698;fill-opacity:1;stroke:#2a6698;stroke-width:.553564;stroke-miterlimit:4;stroke-dasharray:none;stroke-dashoffset:0;stroke-opacity:1" transform="matrix(.26458 0 0 .26458 244.198 -1.107)"/><path d="M-890.821 317.378h55.996v2.47h-55.996z" style="fill:#000;fill-opacity:1;stroke:#000;stroke-width:.553564;stroke-miterlimit:4;stroke-dasharray:none;stroke-dashoffset:0;stroke-opacity:1" transform="matrix(.26458 0 0 .26458 244.198 -1.107)"/><path d="M-890.821 303.324h55.996v2.47h-55.996z" style="fill:#eb0000;fill-opacity:1;stroke:#eb0000;stroke-width:.553564;stroke-miterlimit:4;stroke-dasharray:none;stroke-dashoffset:0;stroke-opacity:1" transform="matrix(.26458 0 0 .26458 244.198 -1.107)"/><text xml:space="preserve" x="-820.1" y="320.454" style="font-style:normal;font-variant:normal;font-weight:300;font-stretch:normal;font-size:16px;line-height:1.25;font-family:&quot;SBB Web&quot;;-inkscape-font-specification:&quot;SBB Web, Light&quot;;font-variant-ligatures:normal;font-variant-caps:normal;font-variant-numeric:normal;font-variant-east-asian:normal;fill:#000;fill-opacity:1;stroke:none;stroke-width:.264583" transform="matrix(.26458 0 0 .26458 244.198 -1.107)"><tspan x="-820.1" y="320.454" style="font-style:normal;font-variant:normal;font-weight:300;font-stretch:normal;font-size:16px;font-family:&quot;SBB Web&quot;;-inkscape-font-specification:&quot;SBB Web, Light&quot;;font-variant-ligatures:normal;font-variant-caps:normal;font-variant-numeric:normal;font-variant-east-asian:normal;stroke-width:.264583">Freie Fahrt</tspan></text><g style="fill:#fff200;fill-opacity:1;stroke:#000;stroke-width:.566707;stroke-miterlimit:4;stroke-dasharray:.566707,.566707;stroke-dashoffset:0;stroke-opacity:1"><path d="M-112.279 47.736h55.794v4.622h-55.794z" style="color:#000;fill:#fff200;fill-opacity:1;stroke:#4a4a4a;stroke-width:.562954;stroke-miterlimit:4;stroke-dasharray:none;stroke-dashoffset:0;stroke-opacity:.996067" transform="matrix(.2652 0 0 .15462 38.287 73.596)"/></g><path d="M-894.815 155.584h217.733v103.518h-217.733z" style="fill:#fff;fill-opacity:1;stroke:none;stroke-width:15.3291;stroke-miterlimit:4;stroke-dasharray:15.3291,15.3291;stroke-dashoffset:0;stroke-opacity:1" transform="matrix(.26458 0 0 .26458 244.189 .375)"/><path d="M-112.621 46.14H20.298v17.737h-132.919z" style="fill:#fff;fill-opacity:1;stroke:none;stroke-width:4.95768;stroke-miterlimit:4;stroke-dasharray:4.95768,4.95768;stroke-dashoffset:0;stroke-opacity:1" transform="matrix(.26458 0 0 .26458 38.248 29.614)"/><text xml:space="preserve" x="-39.937" y="62.15" style="font-style:normal;font-variant:normal;font-weight:300;font-stretch:normal;font-size:16px;line-height:1.25;font-family:&quot;SBB Web&quot;;-inkscape-font-specification:&quot;SBB Web, Light&quot;;font-variant-ligatures:normal;font-variant-caps:normal;font-variant-numeric:normal;font-variant-east-asian:normal;fill:#000;fill-opacity:1;stroke:none;stroke-width:.264583" transform="matrix(.26458 0 0 .26458 38.248 29.614)"><tspan x="-39.937" y="62.15" style="font-style:normal;font-variant:normal;font-weight:300;font-stretch:normal;font-size:16px;font-family:&quot;SBB Web&quot;;-inkscape-font-specification:&quot;SBB Web, Light&quot;;font-variant-ligatures:normal;font-variant-caps:normal;font-variant-numeric:normal;font-variant-east-asian:normal;stroke-width:.264583">Bahnen</tspan></text><path d="M-112.658 51.01h55.996v2.47h-55.996z" style="fill:#eb0000;fill-opacity:1;stroke:#eb0000;stroke-width:.553564;stroke-miterlimit:4;stroke-dasharray:none;stroke-dashoffset:0;stroke-opacity:1" transform="matrix(.26458 0 0 .26458 38.248 29.614)"/><path d="M-112.935 60.798h56.55" style="fill:none;stroke:#eb0000;stroke-width:3.02362;stroke-linecap:butt;stroke-linejoin:miter;stroke-miterlimit:4;stroke-dasharray:3.02362,3.02362;stroke-dashoffset:0;stroke-opacity:1" transform="matrix(.26458 0 0 .26458 38.248 29.614)"/><path d="M-112.733 47.281H43.173v17.737h-155.906z" style="fill:#fff;fill-opacity:1;stroke:none;stroke-width:5.36928;stroke-miterlimit:4;stroke-dasharray:5.36928,5.36928;stroke-dashoffset:0;stroke-opacity:1" transform="matrix(.26458 0 0 .26458 38.248 36.953)"/><text xml:space="preserve" x="-39.135" y="62.15" style="font-style:normal;font-variant:normal;font-weight:300;font-stretch:normal;font-size:16px;line-height:1.25;font-family:&quot;SBB Web&quot;;-inkscape-font-specification:&quot;SBB Web, Light&quot;;font-variant-ligatures:normal;font-variant-caps:normal;font-variant-numeric:normal;font-variant-east-asian:normal;fill:#000;fill-opacity:1;stroke:none;stroke-width:.264583" transform="matrix(.26458 0 0 .26458 38.248 36.953)"><tspan x="-39.135" y="62.15" style="font-style:normal;font-variant:normal;font-weight:300;font-stretch:normal;font-size:16px;font-family:&quot;SBB Web&quot;;-inkscape-font-specification:&quot;SBB Web, Light&quot;;font-variant-ligatures:normal;font-variant-caps:normal;font-variant-numeric:normal;font-variant-east-asian:normal;stroke-width:.264583">Autobusse</tspan></text><g style="fill:#fff200;fill-opacity:1;stroke:#000;stroke-width:.566707;stroke-miterlimit:4;stroke-dasharray:.566707,.566707;stroke-dashoffset:0;stroke-opacity:1"><path d="M-112.279 47.736h55.794v4.622h-55.794z" style="color:#000;fill:#fff200;fill-opacity:1;stroke:#4a4a4a;stroke-width:.562954;stroke-miterlimit:4;stroke-dasharray:none;stroke-dashoffset:0;stroke-opacity:.996067" transform="matrix(.2652 0 0 .15462 38.035 43.022)"/></g><g style="fill:#fff200;fill-opacity:1;stroke:#4a4a4a;stroke-width:.39685;stroke-miterlimit:4;stroke-dasharray:none;stroke-opacity:1"><path d="M-112.533 53.021v3.024h3.023V53.02zm6.047 0v3.024h3.023V53.02zm6.047 0v3.024h3.023V53.02zm6.048 0v3.024h3.024V53.02zm6.047 0v3.024h3.024V53.02zm6.047 0v3.024h3.024V53.02zm6.047 0v3.024h3.023V53.02zm6.047 0v3.024h3.023V53.02zm6.049 0v3.024h3.023V53.02zm6.047 0v3.024h1.738V53.02z" style="color:#000;fill:#fff200;fill-opacity:1;stroke:#4a4a4a;stroke-width:.39685;stroke-miterlimit:4;stroke-dasharray:none;stroke-opacity:1" transform="matrix(.26458 0 0 .26458 37.993 38.558)"/></g><path d="M-112.733 47.281H44.659v17.737h-157.392z" style="fill:#fff;fill-opacity:1;stroke:none;stroke-width:5.39481;stroke-miterlimit:4;stroke-dasharray:5.39481,5.39481;stroke-dashoffset:0;stroke-opacity:1" transform="matrix(.26458 0 0 .26458 38.248 44.292)"/><path d="M-113.408 50.85h55.996v3.024h-55.996z" style="fill:#050000;fill-opacity:1;stroke:none;stroke-width:.610521;stroke-miterlimit:4;stroke-dasharray:none;stroke-dashoffset:0;stroke-opacity:1" transform="matrix(.26458 0 0 .26458 38.248 44.292)"/><text xml:space="preserve" x="-39.951" y="62.733" style="font-style:normal;font-variant:normal;font-weight:300;font-stretch:normal;font-size:16px;line-height:1.25;font-family:&quot;SBB Web&quot;;-inkscape-font-specification:&quot;SBB Web, Light&quot;;font-variant-ligatures:normal;font-variant-caps:normal;font-variant-numeric:normal;font-variant-east-asian:normal;fill:#000;fill-opacity:1;stroke:none;stroke-width:.264583" transform="matrix(.26458 0 0 .26458 38.248 44.292)"><tspan x="-39.951" y="62.733" style="font-style:normal;font-variant:normal;font-weight:300;font-stretch:normal;font-size:16px;font-family:&quot;SBB Web&quot;;-inkscape-font-specification:&quot;SBB Web, Light&quot;;font-variant-ligatures:normal;font-variant-caps:normal;font-variant-numeric:normal;font-variant-east-asian:normal;stroke-width:.264583">Seilbahnen</tspan></text><path d="M-113.132 61.381h55.997" style="fill:none;stroke:#000;stroke-width:3.02362;stroke-linecap:butt;stroke-linejoin:miter;stroke-miterlimit:4;stroke-dasharray:3.02362,3.02362;stroke-dashoffset:0;stroke-opacity:1" transform="matrix(.26458 0 0 .26458 38.248 44.292)"/><path d="M-112.733 47.281H10.67v17.737h-123.403z" style="fill:#fff;fill-opacity:1;stroke:none;stroke-width:4.77691;stroke-miterlimit:4;stroke-dasharray:4.77691,4.77691;stroke-dashoffset:0;stroke-opacity:1" transform="matrix(.26458 0 0 .26458 38.248 51.63)"/><text xml:space="preserve" x="-40.973" y="62.813" style="font-style:normal;font-variant:normal;font-weight:300;font-stretch:normal;font-size:16px;line-height:1.25;font-family:&quot;SBB Web&quot;;-inkscape-font-specification:&quot;SBB Web, Light&quot;;font-variant-ligatures:normal;font-variant-caps:normal;font-variant-numeric:normal;font-variant-east-asian:normal;fill:#000;fill-opacity:1;stroke:none;stroke-width:.264583" transform="matrix(.26458 0 0 .26458 38.248 51.63)"><tspan x="-40.973" y="62.813" style="font-style:normal;font-variant:normal;font-weight:300;font-stretch:normal;font-size:16px;font-family:&quot;SBB Web&quot;;-inkscape-font-specification:&quot;SBB Web, Light&quot;;font-variant-ligatures:normal;font-variant-caps:normal;font-variant-numeric:normal;font-variant-east-asian:normal;stroke-width:.264583">Schiffe</tspan></text><path d="M-112.43 50.85h55.996v2.47h-55.996z" style="fill:#2a6698;fill-opacity:1;stroke:#2a6698;stroke-width:.553564;stroke-miterlimit:4;stroke-dasharray:none;stroke-dashoffset:0;stroke-opacity:1" transform="matrix(.26458 0 0 .26458 38.248 51.63)"/><path d="M-112.154 61.461h55.997" style="fill:none;stroke:#2a6698;stroke-width:3.02362;stroke-linecap:butt;stroke-linejoin:miter;stroke-miterlimit:4;stroke-dasharray:3.02362,3.02362;stroke-dashoffset:0;stroke-opacity:1" transform="matrix(.26458 0 0 .26458 38.248 51.63)"/><path d="M51.113 228.638h119.051v24.859H51.113z" style="fill:#fff;stroke-width:.51305;stroke-opacity:.25" transform="matrix(.26458 0 0 .26458 -6.088 -27.119)"/><text x="110.139" y="244.113" style="font-style:normal;font-variant:normal;font-weight:300;font-stretch:normal;font-size:16px;font-family:&quot;SBB Web&quot;;-inkscape-font-specification:&quot;SBB Web, Light&quot;;font-variant-ligatures:normal;font-variant-caps:normal;font-variant-numeric:normal;font-variant-east-asian:normal;isolation:isolate" transform="matrix(.26458 0 0 .26458 -6.088 -27.119)"><tspan x="110.139" y="244.113" style="font-style:normal;font-variant:normal;font-weight:300;font-stretch:normal;font-size:16px;font-family:&quot;SBB Web&quot;;-inkscape-font-specification:&quot;SBB Web, Light&quot;;font-variant-ligatures:normal;font-variant-caps:normal;font-variant-numeric:normal;font-variant-east-asian:normal">***publishedAt***</tspan></text><text x="53.982" y="245.605" style="font-style:normal;font-variant:normal;font-weight:300;font-stretch:normal;font-size:16px;font-family:&quot;SBB Web&quot;;-inkscape-font-specification:&quot;SBB Web, Light&quot;;font-variant-ligatures:normal;font-variant-caps:normal;font-variant-numeric:normal;font-variant-east-asian:normal;isolation:isolate" transform="matrix(.26458 0 0 .26458 -6.088 -27.119)"><tspan x="53.982" y="245.605" style="font-style:normal;font-variant:normal;font-weight:300;font-stretch:normal;font-size:16px;font-family:&quot;SBB Web&quot;;-inkscape-font-specification:&quot;SBB Web, Light&quot;;font-variant-ligatures:normal;font-variant-caps:normal;font-variant-numeric:normal;font-variant-east-asian:normal">Stand:</tspan></text><path d="M2069.032 49.976h261.392v30.587h-261.392z" style="fill:#fffffa;fill-opacity:1;stroke:none;stroke-width:3.23533;stroke-miterlimit:4;stroke-dasharray:3.23533,3.23533;stroke-dashoffset:0;stroke-opacity:1" transform="matrix(.26458 0 0 .26458 -205.451 -5.721)"/><path d="M2070.967 51.642h256.143v27.545h-256.143z" style="fill:#fff;stroke-width:1.06205;stroke-opacity:.25" transform="matrix(.26458 0 0 .26458 -205.451 -5.721)"/><path d="M2070.967 78.905h80.936v-26.98h-80.936z" style="fill:#e42328" transform="matrix(.26458 0 0 .26458 -205.451 -5.721)"/><path d="M2118.609 63.35h8.75v-6.928h4.123v6.928h8.75l-7.04-6.928h5.224l8.993 8.993-8.993 8.993h-5.228l7.04-6.928h-8.746v6.928h-4.123V67.48h-8.75l7.04 6.928h-5.222l-8.992-8.992 8.992-8.993h5.222" style="fill:#fff" transform="matrix(.26458 0 0 .26458 -205.451 -5.721)"/><path d="M2160.255 69.036c-.052 4.656 3.861 6.719 8.039 6.719 5.131 0 7.856-2.59 7.856-6.057 0-4.282-4.231-5.155-5.608-5.496-4.734-1.219-5.631-1.404-5.631-2.857 0-1.587 1.532-2.141 2.857-2.141 1.984 0 3.597.58 3.728 2.857h4.02c0-4.364-3.623-6.081-7.563-6.081-3.411 0-7.06 1.85-7.06 5.713 0 3.544 2.828 4.629 5.633 5.367 2.777.74 5.605 1.085 5.605 3.12 0 1.931-2.222 2.354-3.676 2.354-2.222 0-4.177-.98-4.177-3.492" style="fill:#221e20" transform="matrix(.26458 0 0 .26458 -205.451 -5.721)"/><path d="M2182.863 59.65h3.887c1.48 0 2.857.37 2.857 2.168 0 1.587-1.085 2.248-2.539 2.248h-4.205zm-4.152 15.655h9.15c3.41 0 6.665-1.639 6.665-5.474 0-2.353-1.165-4.125-3.466-4.787a4.14 4.14 0 0 0 2.568-3.941c0-3.517-2.434-4.68-6.031-4.68h-8.885zm4.152-8.41h4.52c1.771 0 2.988.769 2.988 2.698 0 1.956-1.428 2.486-3.067 2.486h-4.441M2201.446 59.65h3.887c1.48 0 2.857.37 2.857 2.168 0 1.587-1.085 2.248-2.539 2.248h-4.205zm-4.152 15.655h9.15c3.41 0 6.663-1.639 6.663-5.474 0-2.353-1.163-4.125-3.464-4.787a4.141 4.141 0 0 0 2.564-3.941c0-3.517-2.431-4.68-6.028-4.68h-8.885zm4.154-8.41h4.52c1.772 0 2.989.769 2.989 2.698 0 1.956-1.428 2.486-3.067 2.486h-4.441" style="fill:#221e20;fill-rule:evenodd" transform="matrix(.26458 0 0 .26458 -205.451 -5.721)"/><path d="M2239.48 62.77c-.502-4.364-3.992-6.795-8.144-6.795-5.845 0-9.281 4.363-9.281 9.968 0 5.448 3.435 9.812 9.281 9.812 4.629 0 7.88-3.015 8.303-7.723h-4.021c-.317 2.486-1.744 4.23-4.282 4.23-3.729 0-5.132-3.173-5.132-6.32 0-3.305 1.404-6.479 5.132-6.479 2.06 0 3.861 1.428 4.125 3.305M2242.195 75.305h4.151v-7.801h7.909v-3.226h-7.909v-4.363h9.124v-3.49h-13.275M2257.994 75.305h4.14v-7.801h7.898v-3.226h-7.901v-4.363h9.113v-3.49h-13.25M2280.237 75.305h4.162v-7.801h7.898v-3.226h-7.898v-4.363h9.112v-3.49h-13.274M2296.534 75.305h4.14v-7.801h7.898v-3.226h-7.898v-4.363h9.135v-3.49h-13.275M2311.331 69.036c-.047 4.656 3.854 6.719 8.042 6.719 5.138 0 7.85-2.59 7.85-6.057 0-4.282-4.235-5.155-5.59-5.496-4.734-1.219-5.639-1.404-5.639-2.857 0-1.587 1.523-2.141 2.857-2.141 1.974 0 3.593.58 3.735 2.857h3.997c0-4.364-3.616-6.081-7.542-6.081-3.426 0-7.066 1.85-7.066 5.713 0 3.544 2.831 4.629 5.639 5.367 2.76.74 5.59 1.085 5.59 3.12 0 1.931-2.212 2.354-3.663 2.354-2.237 0-4.187-.98-4.187-3.492" style="fill:#221e20" transform="matrix(.26458 0 0 .26458 -205.451 -5.721)"/><path d="M37.958 96.888H639.37v35.798H37.958z" style="opacity:1;fill:#fff;stroke-width:.474531;stroke-opacity:.25" transform="matrix(.26458 0 0 .26458 -2.608 -3.964)"/><path d="M37.958 71.547h749.081v28.421H37.958z" style="fill:#fff;stroke-width:.471886;stroke-opacity:.25" transform="matrix(.26458 0 0 .26458 -2.608 -3.964)"/><path d="M37.993 43.335h595.681v28.421H37.993z" style="fill:#fff;stroke-width:.420803;stroke-opacity:.25" transform="matrix(.26458 0 0 .26458 -2.608 -3.964)"/><text xml:space="preserve" x="37.958" y="63.968" style="font-style:normal;font-variant:normal;font-weight:300;font-stretch:normal;font-size:24px;line-height:1.25;font-family:&quot;SBB Web&quot;;-inkscape-font-specification:&quot;SBB Web, Light&quot;;font-variant-ligatures:normal;font-variant-caps:normal;font-variant-numeric:normal;font-variant-east-asian:normal;fill:#000;fill-opacity:1;stroke:none" transform="matrix(.26458 0 0 .26458 -1.718 -4.082)"><tspan x="37.958" y="63.968">General-Abo, GA Night, GA-Monatskarte, Ausflugs-Abo,</tspan><tspan x="37.958" y="93.968">Tageskarte zum Halbtax sowie für Spartageskarte / Aktionstageskarte /</tspan><tspan x="37.958" y="123.968">(Spar-)Tageskarte Gemeinde zusammen mit Halbtax-Abo</tspan></text></svg>