<svg id="Ebene_2" xmlns="http://www.w3.org/2000/svg" width="1165.43621" height="801.3192" viewBox="0 0 1165.43621 801.3192"><g id="svg5"><g id="geltungsbereiche"><g id="note"><path id="rect1034" d="M22.67719,772.24433h717.72569c1.40898,0,2.55118,1.1422,2.55118,2.55118v23.76508c0,1.40898-1.1422,2.55118-2.55118,2.55118H22.67719v-28.86744Z" style="fill:#fffffa; stroke-width:0px;"/><text transform="translate(75.3088 789.35828) scale(1.1178 1)" style="font-family:SBBWeb-Roman, &apos;SBB Web&apos;; font-size:5.5px; isolation:isolate;"><tspan x="0" y="0" style="letter-spacing:-.00588em;">A</tspan><tspan x="3.53128" y="0" style="letter-spacing:.00008em;">uf </tspan><tspan x="9.74595" y="0" style="letter-spacing:-.00103em;">g</tspan><tspan x="12.8985" y="0" style="letter-spacing:-.01414em;">e</tspan><tspan x="15.77498" y="0" style="letter-spacing:-.00739em;">w</tspan><tspan x="19.90252" y="0">i</tspan><tspan x="21.12432" y="0" style="letter-spacing:.00492em;">s</tspan><tspan x="23.9012" y="0" style="letter-spacing:.00008em;">sen </tspan><tspan x="34.19231" y="0" style="letter-spacing:-.0058em;">A</tspan><tspan x="37.72402" y="0">u</tspan><tspan x="40.78265" y="0" style="letter-spacing:-.0224em;">t</tspan><tspan x="42.39147" y="0" style="letter-spacing:-.00008em;">obuslinien i</tspan><tspan x="70.10613" y="0" style="letter-spacing:-.0054em;">s</tspan><tspan x="72.82623" y="0" style="letter-spacing:.00008em;">t ein Zus</tspan><tspan x="94.01782" y="0" style="letter-spacing:-.00342em;">c</tspan><tspan x="96.95327" y="0" style="letter-spacing:.00008em;">hl</tspan><tspan x="101.23413" y="0" style="letter-spacing:-.00397em;">a</tspan><tspan x="104.16652" y="0">g und/oder eine </tspan><tspan x="144.51148" y="0" style="letter-spacing:-.01557em;">P</tspan><tspan x="147.98946" y="0">l</tspan><tspan x="149.21126" y="0" style="letter-spacing:-.00882em;">a</tspan><tspan x="152.117" y="0" style="letter-spacing:.01025em;">t</tspan><tspan x="153.90536" y="0" style="letter-spacing:.00008em;">z</tspan><tspan x="156.54551" y="0" style="letter-spacing:-.01422em;">r</tspan><tspan x="158.29892" y="0" style="letter-spacing:.00437em;">e</tspan><tspan x="161.27718" y="0" style="letter-spacing:.00008em;">se</tspan><tspan x="166.98121" y="0" style="letter-spacing:.02788em;">r</tspan><tspan x="168.96613" y="0" style="letter-spacing:-.00588em;">v</tspan><tspan x="171.68361" y="0" style="letter-spacing:.00008em;">ie</tspan><tspan x="175.85963" y="0" style="letter-spacing:.00492em;">r</tspan><tspan x="177.71832" y="0">u</tspan><tspan x="180.77695" y="0" style="letter-spacing:-.00238em;">n</tspan><tspan x="183.82248" y="0">g e</tspan><tspan x="191.46295" y="0" style="letter-spacing:.03026em;">r</tspan><tspan x="193.46097" y="0" style="letter-spacing:-.01858em;">f</tspan><tspan x="194.98636" y="0">o</tspan><tspan x="198.14459" y="0" style="letter-spacing:-.00985em;">r</tspan><tspan x="199.92202" y="0">de</tspan><tspan x="206.1367" y="0" style="letter-spacing:.00191em;">r</tspan><tspan x="207.97878" y="0">li</tspan><tspan x="210.42281" y="0" style="letter-spacing:-.00349em;">c</tspan><tspan x="213.35782" y="0" style="letter-spacing:.00008em;">h. Bi</tspan><tspan x="224.46273" y="0" style="letter-spacing:.01612em;">t</tspan><tspan x="226.28341" y="0" style="letter-spacing:-.02049em;">t</tspan><tspan x="227.90271" y="0">e b</tspan><tspan x="235.64496" y="0" style="letter-spacing:.00246em;">e</tspan><tspan x="238.61273" y="0">a</tspan><tspan x="241.56696" y="0" style="letter-spacing:-.00342em;">c</tspan><tspan x="244.50198" y="0">h</tspan><tspan x="247.56061" y="0" style="letter-spacing:-.02049em;">t</tspan><tspan x="249.18035" y="0">en </tspan><tspan x="256.72166" y="0" style="letter-spacing:-.00206em;">S</tspan><tspan x="260.2739" y="0">ie </tspan><tspan x="265.97793" y="0" style="letter-spacing:-.01175em;">z</tspan><tspan x="268.55344" y="0" style="letter-spacing:.00016em;">udem, </tspan><tspan x="285.57468" y="0" style="letter-spacing:-.00588em;">d</tspan><tspan x="288.8028" y="0">a</tspan><tspan x="291.7566" y="0" style="letter-spacing:.00492em;">s</tspan><tspan x="294.53392" y="0" style="letter-spacing:-.00016em;">s </tspan><tspan x="298.81216" y="0" style="letter-spacing:-.02303em;">v</tspan><tspan x="301.43572" y="0">om 21. Mä</tspan><tspan x="327.73245" y="0" style="letter-spacing:.01573em;">r</tspan><tspan x="329.65011" y="0" style="letter-spacing:-.00016em;">z bis </tspan><tspan x="342.57831" y="0" style="letter-spacing:-.01175em;">z</tspan><tspan x="345.15382" y="0">um 31. O</tspan><tspan x="367.78474" y="0" style="letter-spacing:.01986em;">k</tspan><tspan x="370.74902" y="0" style="letter-spacing:-.0224em;">t</tspan><tspan x="372.35828" y="0">ober </tspan><tspan x="385.08991" y="0" style="letter-spacing:-.00095em;">f</tspan><tspan x="386.71227" y="0">ür </tspan><tspan x="393.13008" y="0" style="letter-spacing:-.044em;">V</tspan><tspan x="396.24812" y="0" style="letter-spacing:.00254em;">e</tspan><tspan x="399.21589" y="0">los in In</tspan><tspan x="418.16527" y="0" style="letter-spacing:-.02065em;">t</tspan><tspan x="419.78413" y="0" style="letter-spacing:.00016em;">erCi</tspan><tspan x="429.76379" y="0" style="letter-spacing:.01557em;">t</tspan><tspan x="431.58184" y="0">y (IC)</tspan><tspan x="444.10206" y="0" style="letter-spacing:-.04448em;">-</tspan><tspan x="445.99787" y="0" style="letter-spacing:.00016em;">Zü</tspan><tspan x="452.41655" y="0" style="letter-spacing:-.00095em;">g</tspan><tspan x="455.56953" y="0">en eine </tspan><tspan x="474.8273" y="0" style="letter-spacing:-.044em;">V</tspan><tspan x="477.94535" y="0" style="letter-spacing:.00238em;">e</tspan><tspan x="480.91225" y="0">lopl</tspan><tspan x="489.77451" y="0" style="letter-spacing:-.00874em;">a</tspan><tspan x="492.68025" y="0" style="letter-spacing:.01032em;">t</tspan><tspan x="494.46948" y="0" style="letter-spacing:-.00016em;">z</tspan><tspan x="497.10876" y="0" style="letter-spacing:-.01398em;">r</tspan><tspan x="498.86304" y="0" style="letter-spacing:.00445em;">e</tspan><tspan x="501.8413" y="0" style="letter-spacing:-.00016em;">se</tspan><tspan x="507.54534" y="0" style="letter-spacing:.0278em;">r</tspan><tspan x="509.52938" y="0" style="letter-spacing:-.02097em;">v</tspan><tspan x="512.1643" y="0" style="letter-spacing:-.00874em;">a</tspan><tspan x="515.07005" y="0" style="letter-spacing:-.01271em;">t</tspan><tspan x="516.73259" y="0" style="letter-spacing:-.00016em;">ion obl</tspan><tspan x="533.33972" y="0" style="letter-spacing:-.00159em;">i</tspan><tspan x="534.55322" y="0" style="letter-spacing:-.00381em;">g</tspan><tspan x="537.69048" y="0" style="letter-spacing:-.00874em;">a</tspan><tspan x="540.59623" y="0" style="letter-spacing:-.02256em;">t</tspan><tspan x="542.20461" y="0">o</tspan><tspan x="545.36284" y="0" style="letter-spacing:.00206em;">r</tspan><tspan x="547.20535" y="0" style="letter-spacing:-.00016em;">is</tspan><tspan x="551.17695" y="0" style="letter-spacing:-.00334em;">c</tspan><tspan x="554.1124" y="0">h i</tspan><tspan x="559.92127" y="0" style="letter-spacing:-.00556em;">s</tspan><tspan x="562.64093" y="0" style="letter-spacing:-.00921em;">t</tspan><tspan x="564.32269" y="0">.</tspan><tspan x="0" y="7.5">Bi</tspan><tspan x="4.98983" y="7.5" style="letter-spacing:.01612em;">t</tspan><tspan x="6.8105" y="7.5" style="letter-spacing:-.02049em;">t</tspan><tspan x="8.42981" y="7.5">e b</tspan><tspan x="16.17249" y="7.5" style="letter-spacing:.00238em;">e</tspan><tspan x="19.13983" y="7.5">a</tspan><tspan x="22.09406" y="7.5" style="letter-spacing:-.00349em;">c</tspan><tspan x="25.02908" y="7.5" style="letter-spacing:.00008em;">h</tspan><tspan x="28.08815" y="7.5" style="letter-spacing:-.02049em;">t</tspan><tspan x="29.70745" y="7.5">en </tspan><tspan x="37.24832" y="7.5" style="letter-spacing:-.00191em;">S</tspan><tspan x="40.80144" y="7.5">ie die Hi</tspan><tspan x="60.66377" y="7.5" style="letter-spacing:-.01851em;">n</tspan><tspan x="63.62063" y="7.5" style="letter-spacing:-.01716em;">w</tspan><tspan x="67.69444" y="7.5">eise </tspan><tspan x="79.1025" y="7.5" style="letter-spacing:-.00095em;">f</tspan><tspan x="80.72486" y="7.5">ür die </tspan><tspan x="96.10758" y="7.5" style="letter-spacing:-.00103em;">g</tspan><tspan x="99.26013" y="7.5" style="letter-spacing:-.01414em;">e</tspan><tspan x="102.13661" y="7.5" style="letter-spacing:-.00397em;">w</tspan><tspan x="106.28293" y="7.5">üns</tspan><tspan x="115.15043" y="7.5" style="letter-spacing:-.00342em;">c</tspan><tspan x="118.08588" y="7.5">h</tspan><tspan x="121.14452" y="7.5" style="letter-spacing:-.02041em;">t</tspan><tspan x="122.76426" y="7.5" style="letter-spacing:-.00008em;">e </tspan><tspan x="127.24606" y="7.5" style="letter-spacing:-.04392em;">V</tspan><tspan x="130.3641" y="7.5">e</tspan><tspan x="133.31833" y="7.5" style="letter-spacing:.00238em;">r</tspan><tspan x="135.16303" y="7.5">bindu</tspan><tspan x="149.02342" y="7.5" style="letter-spacing:-.00246em;">n</tspan><tspan x="152.06852" y="7.5">g im (Onlin</tspan><tspan x="178.36001" y="7.5" style="letter-spacing:.00778em;">e</tspan><tspan x="181.35705" y="7.5">-)</tspan><tspan x="184.92065" y="7.5" style="letter-spacing:-.02684em;">F</tspan><tspan x="187.93123" y="7.5">ah</tspan><tspan x="193.9441" y="7.5" style="letter-spacing:.00294em;">r</tspan><tspan x="195.79186" y="7.5">plan. </tspan><tspan x="209.34298" y="7.5" style="letter-spacing:-.0058em;">A</tspan><tspan x="212.87469" y="7.5">us </tspan><tspan x="220.21157" y="7.5" style="letter-spacing:-.01565em;">P</tspan><tspan x="223.68912" y="7.5" style="letter-spacing:.00008em;">l</tspan><tspan x="224.91135" y="7.5" style="letter-spacing:-.00882em;">a</tspan><tspan x="227.81709" y="7.5" style="letter-spacing:.01025em;">t</tspan><tspan x="229.60544" y="7.5" style="letter-spacing:.00008em;">zg</tspan><tspan x="235.40645" y="7.5" style="letter-spacing:.00484em;">r</tspan><tspan x="237.2647" y="7.5">ünden sin</tspan><tspan x="261.21394" y="7.5" style="letter-spacing:-.01128em;">d</tspan><tspan x="264.41236" y="7.5">, je na</tspan><tspan x="279.18571" y="7.5" style="letter-spacing:-.00334em;">c</tspan><tspan x="282.12116" y="7.5">h </tspan><tspan x="286.7078" y="7.5" style="letter-spacing:-.01271em;">Z</tspan><tspan x="289.99795" y="7.5">oom</tspan><tspan x="301.00588" y="7.5" style="letter-spacing:-.0054em;">s</tspan><tspan x="303.72642" y="7.5" style="letter-spacing:-.00985em;">t</tspan><tspan x="305.40469" y="7.5">u</tspan><tspan x="308.46332" y="7.5" style="letter-spacing:-.01906em;">f</tspan><tspan x="309.98609" y="7.5" style="letter-spacing:-.00826em;">e</tspan><tspan x="312.89446" y="7.5">, ni</tspan><tspan x="320.23133" y="7.5" style="letter-spacing:-.00334em;">c</tspan><tspan x="323.16678" y="7.5">ht alle Linien a</tspan><tspan x="358.42275" y="7.5" style="letter-spacing:-.00238em;">n</tspan><tspan x="361.46828" y="7.5" style="letter-spacing:-.00095em;">g</tspan><tspan x="364.62127" y="7.5" style="letter-spacing:.00635em;">e</tspan><tspan x="367.61001" y="7.5" style="letter-spacing:-.00095em;">g</tspan><tspan x="370.763" y="7.5" style="letter-spacing:.00286em;">e</tspan><tspan x="373.73252" y="7.5">ben. Alle A</tspan><tspan x="400.11575" y="7.5" style="letter-spacing:-.00238em;">n</tspan><tspan x="403.16127" y="7.5" style="letter-spacing:-.00397em;">g</tspan><tspan x="406.29766" y="7.5">aben ohne </tspan><tspan x="433.81139" y="7.5" style="letter-spacing:.00334em;">G</tspan><tspan x="438.00314" y="7.5" style="letter-spacing:.00635em;">e</tspan><tspan x="440.99188" y="7.5" style="letter-spacing:-.00381em;">g</tspan><tspan x="444.12914" y="7.5">äh</tspan><tspan x="450.14157" y="7.5" style="letter-spacing:-.0683em;">r</tspan><tspan x="451.59707" y="7.5" style="letter-spacing:.00016em;">. Ände</tspan><tspan x="467.49043" y="7.5" style="letter-spacing:.00492em;">r</tspan><tspan x="469.34867" y="7.5">u</tspan><tspan x="472.40731" y="7.5" style="letter-spacing:-.00238em;">n</tspan><tspan x="475.45283" y="7.5" style="letter-spacing:-.00095em;">g</tspan><tspan x="478.60582" y="7.5">en </tspan><tspan x="486.14713" y="7.5" style="letter-spacing:-.02303em;">v</tspan><tspan x="488.77069" y="7.5">o</tspan><tspan x="491.92892" y="7.5" style="letter-spacing:.00445em;">r</tspan><tspan x="493.78454" y="7.5">h</tspan><tspan x="496.84318" y="7.5" style="letter-spacing:.00492em;">e</tspan><tspan x="499.82405" y="7.5" style="letter-spacing:.00016em;">hal</tspan><tspan x="507.05959" y="7.5" style="letter-spacing:-.02065em;">t</tspan><tspan x="508.67845" y="7.5">en. </tspan><tspan x="517.74777" y="7.5" style="letter-spacing:-.00349em;">E</tspan><tspan x="521.08859" y="7.5">s gilt der A</tspan><tspan x="547.36611" y="7.5" style="letter-spacing:-.01843em;">n</tspan><tspan x="550.3234" y="7.5" style="letter-spacing:-.01716em;">w</tspan><tspan x="554.39721" y="7.5">endu</tspan><tspan x="566.72959" y="7.5" style="letter-spacing:-.00238em;">n</tspan><tspan x="569.77512" y="7.5" style="letter-spacing:-.00111em;">g</tspan><tspan x="572.92723" y="7.5">sbe</tspan><tspan x="581.89171" y="7.5" style="letter-spacing:-.01414em;">r</tspan><tspan x="583.64512" y="7.5" style="letter-spacing:.00016em;">ei</tspan><tspan x="587.82114" y="7.5" style="letter-spacing:-.00334em;">c</tspan><tspan x="590.75659" y="7.5">h.</tspan></text><text transform="translate(75.25779 780.18112)" style="font-family:SBBWeb-Roman, &apos;SBB Web&apos;; font-size:5.5px; isolation:isolate;"><tspan x="0" y="0" style="letter-spacing:.00692em;">Q</tspan><tspan x="4.2168" y="0">u</tspan><tspan x="7.27539" y="0" style="letter-spacing:.00231em;">e</tspan><tspan x="10.24219" y="0" style="letter-spacing:.00018em;">ll</tspan><tspan x="12.68652" y="0" style="letter-spacing:.02006em;">e</tspan><tspan x="15.75098" y="0">: OpenS</tspan><tspan x="35.82227" y="0" style="letter-spacing:-.00835em;">t</tspan><tspan x="37.50879" y="0" style="letter-spacing:-.0142em;">r</tspan><tspan x="39.2627" y="0">e</tspan><tspan x="42.2168" y="0" style="letter-spacing:-.00781em;">e</tspan><tspan x="45.12793" y="0">tMap </tspan><tspan x="59.39355" y="0" style="letter-spacing:-.00107em;">c</tspan><tspan x="62.3418" y="0">on</tspan><tspan x="68.55957" y="0" style="letter-spacing:-.00835em;">t</tspan><tspan x="70.24609" y="0" style="letter-spacing:.00178em;">r</tspan><tspan x="72.08789" y="0" style="letter-spacing:.00018em;">ibu</tspan><tspan x="79.62891" y="0" style="letter-spacing:-.02237em;">t</tspan><tspan x="81.23828" y="0">o</tspan><tspan x="84.39648" y="0" style="letter-spacing:.00568em;">r</tspan><tspan x="86.25977" y="0" xml:space="preserve">s  © SBB/CFF</tspan><tspan x="121.21191" y="0" style="letter-spacing:.04652em;">/</tspan><tspan x="123.29883" y="0">F</tspan><tspan x="126.45703" y="0" style="letter-spacing:-.01758em;">F</tspan><tspan x="129.51855" y="0">S ww</tspan><tspan x="142.94629" y="0" style="letter-spacing:-.0522em;">w</tspan><tspan x="146.82715" y="0">.</tspan><tspan x="148.35547" y="0" style="letter-spacing:-.00852em;">t</tspan><tspan x="150.04102" y="0" style="letter-spacing:-.0032em;">r</tspan><tspan x="151.85449" y="0">aﬁm</tspan><tspan x="162.34961" y="0" style="letter-spacing:-.00391em;">a</tspan><tspan x="165.28223" y="0" style="letter-spacing:-.00107em;">g</tspan><tspan x="168.43457" y="0" style="letter-spacing:-.00781em;">e</tspan><tspan x="171.3457" y="0">.</tspan><tspan x="172.87402" y="0" style="letter-spacing:-.00337em;">c</tspan><tspan x="175.80957" y="0">h ww</tspan><tspan x="188.73242" y="0" style="letter-spacing:-.0522em;">w</tspan><tspan x="192.61328" y="0" style="letter-spacing:-.00018em;">.geop</tspan><tspan x="206.66602" y="0" style="letter-spacing:-.00249em;">s</tspan><tspan x="209.40234" y="0">.</tspan><tspan x="210.93066" y="0" style="letter-spacing:-.00337em;">c</tspan><tspan x="213.86621" y="0">h</tspan></text></g><g id="qr-code"><g id="g23879"><rect id="rect23865" x="22.6772" y="750.29558" width="51.02362" height="51.02362" style="fill:#fff; stroke-width:0px;"/><g id="elements-1"><path id="path23867" d="M24.13502,751.7534h1.45782v1.45782h-1.45782v-1.45782ZM25.59284,751.7534h1.45782v1.45782h-1.45782v-1.45782ZM27.05065,751.7534h1.45782v1.45782h-1.45782v-1.45782ZM28.50847,751.7534h1.45782v1.45782h-1.45782v-1.45782ZM29.96629,751.7534h1.45782v1.45782h-1.45782v-1.45782ZM31.42411,751.7534h1.45782v1.45782h-1.45782v-1.45782ZM32.88192,751.7534h1.45782v1.45782h-1.45782v-1.45782ZM38.7132,751.7534h1.45782v1.45782h-1.45782v-1.45782ZM41.62883,751.7534h1.45782v1.45782h-1.45782v-1.45782ZM47.4601,751.7534h1.45782v1.45782h-1.45782v-1.45782ZM51.83356,751.7534h1.45782v1.45782h-1.45782v-1.45782ZM53.29137,751.7534h1.45782v1.45782h-1.45782v-1.45782ZM54.74919,751.7534h1.45782v1.45782h-1.45782v-1.45782ZM56.20701,751.7534h1.45782v1.45782h-1.45782v-1.45782ZM57.66483,751.7534h1.45782v1.45782h-1.45782v-1.45782ZM62.03828,751.7534h1.45782v1.45782h-1.45782v-1.45782ZM63.4961,751.7534h1.45782v1.45782h-1.45782v-1.45782ZM64.95391,751.7534h1.45782v1.45782h-1.45782v-1.45782ZM66.41173,751.7534h1.45782v1.45782h-1.45782v-1.45782ZM67.86955,751.7534h1.45782v1.45782h-1.45782v-1.45782ZM69.32737,751.7534h1.45782v1.45782h-1.45782v-1.45782ZM70.78519,751.7534h1.45782v1.45782h-1.45782v-1.45782ZM24.13502,753.21122h1.45782v1.45782h-1.45782v-1.45782ZM32.88192,753.21122h1.45782v1.45782h-1.45782v-1.45782ZM35.79756,753.21122h1.45782v1.45782h-1.45782v-1.45782ZM38.7132,753.21122h1.45782v1.45782h-1.45782v-1.45782ZM43.08665,753.21122h1.45782v1.45782h-1.45782v-1.45782ZM46.00228,753.21122h1.45782v1.45782h-1.45782v-1.45782ZM47.4601,753.21122h1.45782v1.45782h-1.45782v-1.45782ZM48.91792,753.21122h1.45782v1.45782h-1.45782v-1.45782ZM50.37574,753.21122h1.45782v1.45782h-1.45782v-1.45782ZM53.29137,753.21122h1.45782v1.45782h-1.45782v-1.45782ZM54.74919,753.21122h1.45782v1.45782h-1.45782v-1.45782ZM56.20701,753.21122h1.45782v1.45782h-1.45782v-1.45782ZM62.03828,753.21122h1.45782v1.45782h-1.45782v-1.45782ZM70.78519,753.21122h1.45782v1.45782h-1.45782v-1.45782ZM24.13502,754.66904h1.45782v1.45782h-1.45782v-1.45782ZM27.05065,754.66904h1.45782v1.45782h-1.45782v-1.45782ZM28.50847,754.66904h1.45782v1.45782h-1.45782v-1.45782ZM29.96629,754.66904h1.45782v1.45782h-1.45782v-1.45782ZM32.88192,754.66904h1.45782v1.45782h-1.45782v-1.45782ZM41.62883,754.66904h1.45782v1.45782h-1.45782v-1.45782ZM51.83356,754.66904h1.45782v1.45782h-1.45782v-1.45782ZM53.29137,754.66904h1.45782v1.45782h-1.45782v-1.45782ZM54.74919,754.66904h1.45782v1.45782h-1.45782v-1.45782ZM62.03828,754.66904h1.45782v1.45782h-1.45782v-1.45782ZM64.95391,754.66904h1.45782v1.45782h-1.45782v-1.45782ZM66.41173,754.66904h1.45782v1.45782h-1.45782v-1.45782ZM67.86955,754.66904h1.45782v1.45782h-1.45782v-1.45782ZM70.78519,754.66904h1.45782v1.45782h-1.45782v-1.45782ZM24.13502,756.12685h1.45782v1.45782h-1.45782v-1.45782ZM27.05065,756.12685h1.45782v1.45782h-1.45782v-1.45782ZM28.50847,756.12685h1.45782v1.45782h-1.45782v-1.45782ZM29.96629,756.12685h1.45782v1.45782h-1.45782v-1.45782ZM32.88192,756.12685h1.45782v1.45782h-1.45782v-1.45782ZM35.79756,756.12685h1.45782v1.45782h-1.45782v-1.45782ZM37.25538,756.12685h1.45782v1.45782h-1.45782v-1.45782ZM38.7132,756.12685h1.45782v1.45782h-1.45782v-1.45782ZM41.62883,756.12685h1.45782v1.45782h-1.45782v-1.45782ZM43.08665,756.12685h1.45782v1.45782h-1.45782v-1.45782ZM44.54447,756.12685h1.45782v1.45782h-1.45782v-1.45782ZM46.00228,756.12685h1.45782v1.45782h-1.45782v-1.45782ZM47.4601,756.12685h1.45782v1.45782h-1.45782v-1.45782ZM48.91792,756.12685h1.45782v1.45782h-1.45782v-1.45782ZM50.37574,756.12685h1.45782v1.45782h-1.45782v-1.45782ZM51.83356,756.12685h1.45782v1.45782h-1.45782v-1.45782ZM56.20701,756.12685h1.45782v1.45782h-1.45782v-1.45782ZM59.12264,756.12685h1.45782v1.45782h-1.45782v-1.45782ZM62.03828,756.12685h1.45782v1.45782h-1.45782v-1.45782ZM64.95391,756.12685h1.45782v1.45782h-1.45782v-1.45782ZM66.41173,756.12685h1.45782v1.45782h-1.45782v-1.45782ZM67.86955,756.12685h1.45782v1.45782h-1.45782v-1.45782ZM70.78519,756.12685h1.45782v1.45782h-1.45782v-1.45782ZM24.13502,757.58467h1.45782v1.45782h-1.45782v-1.45782ZM27.05065,757.58467h1.45782v1.45782h-1.45782v-1.45782ZM28.50847,757.58467h1.45782v1.45782h-1.45782v-1.45782ZM29.96629,757.58467h1.45782v1.45782h-1.45782v-1.45782ZM32.88192,757.58467h1.45782v1.45782h-1.45782v-1.45782ZM37.25538,757.58467h1.45782v1.45782h-1.45782v-1.45782ZM47.4601,757.58467h1.45782v1.45782h-1.45782v-1.45782ZM48.91792,757.58467h1.45782v1.45782h-1.45782v-1.45782ZM50.37574,757.58467h1.45782v1.45782h-1.45782v-1.45782ZM51.83356,757.58467h1.45782v1.45782h-1.45782v-1.45782ZM53.29137,757.58467h1.45782v1.45782h-1.45782v-1.45782ZM54.74919,757.58467h1.45782v1.45782h-1.45782v-1.45782ZM56.20701,757.58467h1.45782v1.45782h-1.45782v-1.45782ZM57.66483,757.58467h1.45782v1.45782h-1.45782v-1.45782ZM62.03828,757.58467h1.45782v1.45782h-1.45782v-1.45782ZM64.95391,757.58467h1.45782v1.45782h-1.45782v-1.45782ZM66.41173,757.58467h1.45782v1.45782h-1.45782v-1.45782ZM67.86955,757.58467h1.45782v1.45782h-1.45782v-1.45782ZM70.78519,757.58467h1.45782v1.45782h-1.45782v-1.45782ZM24.13502,759.04249h1.45782v1.45782h-1.45782v-1.45782ZM32.88192,759.04249h1.45782v1.45782h-1.45782v-1.45782ZM35.79756,759.04249h1.45782v1.45782h-1.45782v-1.45782ZM37.25538,759.04249h1.45782v1.45782h-1.45782v-1.45782ZM40.17101,759.04249h1.45782v1.45782h-1.45782v-1.45782ZM41.62883,759.04249h1.45782v1.45782h-1.45782v-1.45782ZM44.54447,759.04249h1.45782v1.45782h-1.45782v-1.45782ZM46.00228,759.04249h1.45782v1.45782h-1.45782v-1.45782ZM47.4601,759.04249h1.45782v1.45782h-1.45782v-1.45782ZM48.91792,759.04249h1.45782v1.45782h-1.45782v-1.45782ZM54.74919,759.04249h1.45782v1.45782h-1.45782v-1.45782ZM56.20701,759.04249h1.45782v1.45782h-1.45782v-1.45782ZM59.12264,759.04249h1.45782v1.45782h-1.45782v-1.45782ZM62.03828,759.04249h1.45782v1.45782h-1.45782v-1.45782ZM70.78519,759.04249h1.45782v1.45782h-1.45782v-1.45782ZM24.13502,760.50031h1.45782v1.45782h-1.45782v-1.45782ZM25.59284,760.50031h1.45782v1.45782h-1.45782v-1.45782ZM27.05065,760.50031h1.45782v1.45782h-1.45782v-1.45782ZM28.50847,760.50031h1.45782v1.45782h-1.45782v-1.45782ZM29.96629,760.50031h1.45782v1.45782h-1.45782v-1.45782ZM31.42411,760.50031h1.45782v1.45782h-1.45782v-1.45782ZM32.88192,760.50031h1.45782v1.45782h-1.45782v-1.45782ZM35.79756,760.50031h1.45782v1.45782h-1.45782v-1.45782ZM38.7132,760.50031h1.45782v1.45782h-1.45782v-1.45782ZM41.62883,760.50031h1.45782v1.45782h-1.45782v-1.45782ZM44.54447,760.50031h1.45782v1.45782h-1.45782v-1.45782ZM47.4601,760.50031h1.45782v1.45782h-1.45782v-1.45782ZM50.37574,760.50031h1.45782v1.45782h-1.45782v-1.45782ZM53.29137,760.50031h1.45782v1.45782h-1.45782v-1.45782ZM56.20701,760.50031h1.45782v1.45782h-1.45782v-1.45782ZM59.12264,760.50031h1.45782v1.45782h-1.45782v-1.45782ZM62.03828,760.50031h1.45782v1.45782h-1.45782v-1.45782ZM63.4961,760.50031h1.45782v1.45782h-1.45782v-1.45782ZM64.95391,760.50031h1.45782v1.45782h-1.45782v-1.45782ZM66.41173,760.50031h1.45782v1.45782h-1.45782v-1.45782ZM67.86955,760.50031h1.45782v1.45782h-1.45782v-1.45782ZM69.32737,760.50031h1.45782v1.45782h-1.45782v-1.45782ZM70.78519,760.50031h1.45782v1.45782h-1.45782v-1.45782ZM37.25538,761.95812h1.45782v1.45782h-1.45782v-1.45782ZM38.7132,761.95812h1.45782v1.45782h-1.45782v-1.45782ZM40.17101,761.95812h1.45782v1.45782h-1.45782v-1.45782ZM44.54447,761.95812h1.45782v1.45782h-1.45782v-1.45782ZM47.4601,761.95812h1.45782v1.45782h-1.45782v-1.45782ZM51.83356,761.95812h1.45782v1.45782h-1.45782v-1.45782ZM54.74919,761.95812h1.45782v1.45782h-1.45782v-1.45782ZM24.13502,763.41594h1.45782v1.45782h-1.45782v-1.45782ZM25.59284,763.41594h1.45782v1.45782h-1.45782v-1.45782ZM27.05065,763.41594h1.45782v1.45782h-1.45782v-1.45782ZM28.50847,763.41594h1.45782v1.45782h-1.45782v-1.45782ZM29.96629,763.41594h1.45782v1.45782h-1.45782v-1.45782ZM32.88192,763.41594h1.45782v1.45782h-1.45782v-1.45782ZM34.33974,763.41594h1.45782v1.45782h-1.45782v-1.45782ZM35.79756,763.41594h1.45782v1.45782h-1.45782v-1.45782ZM37.25538,763.41594h1.45782v1.45782h-1.45782v-1.45782ZM40.17101,763.41594h1.45782v1.45782h-1.45782v-1.45782ZM43.08665,763.41594h1.45782v1.45782h-1.45782v-1.45782ZM44.54447,763.41594h1.45782v1.45782h-1.45782v-1.45782ZM46.00228,763.41594h1.45782v1.45782h-1.45782v-1.45782ZM48.91792,763.41594h1.45782v1.45782h-1.45782v-1.45782ZM56.20701,763.41594h1.45782v1.45782h-1.45782v-1.45782ZM57.66483,763.41594h1.45782v1.45782h-1.45782v-1.45782ZM59.12264,763.41594h1.45782v1.45782h-1.45782v-1.45782ZM60.58046,763.41594h1.45782v1.45782h-1.45782v-1.45782ZM63.4961,763.41594h1.45782v1.45782h-1.45782v-1.45782ZM66.41173,763.41594h1.45782v1.45782h-1.45782v-1.45782ZM69.32737,763.41594h1.45782v1.45782h-1.45782v-1.45782ZM24.13502,764.87376h1.45782v1.45782h-1.45782v-1.45782ZM28.50847,764.87376h1.45782v1.45782h-1.45782v-1.45782ZM31.42411,764.87376h1.45782v1.45782h-1.45782v-1.45782ZM35.79756,764.87376h1.45782v1.45782h-1.45782v-1.45782ZM38.7132,764.87376h1.45782v1.45782h-1.45782v-1.45782ZM41.62883,764.87376h1.45782v1.45782h-1.45782v-1.45782ZM44.54447,764.87376h1.45782v1.45782h-1.45782v-1.45782ZM47.4601,764.87376h1.45782v1.45782h-1.45782v-1.45782ZM50.37574,764.87376h1.45782v1.45782h-1.45782v-1.45782ZM51.83356,764.87376h1.45782v1.45782h-1.45782v-1.45782ZM53.29137,764.87376h1.45782v1.45782h-1.45782v-1.45782ZM54.74919,764.87376h1.45782v1.45782h-1.45782v-1.45782ZM57.66483,764.87376h1.45782v1.45782h-1.45782v-1.45782ZM62.03828,764.87376h1.45782v1.45782h-1.45782v-1.45782ZM63.4961,764.87376h1.45782v1.45782h-1.45782v-1.45782ZM67.86955,764.87376h1.45782v1.45782h-1.45782v-1.45782ZM69.32737,764.87376h1.45782v1.45782h-1.45782v-1.45782ZM70.78519,764.87376h1.45782v1.45782h-1.45782v-1.45782ZM24.13502,766.33158h1.45782v1.45782h-1.45782v-1.45782ZM32.88192,766.33158h1.45782v1.45782h-1.45782v-1.45782ZM34.33974,766.33158h1.45782v1.45782h-1.45782v-1.45782ZM38.7132,766.33158h1.45782v1.45782h-1.45782v-1.45782ZM43.08665,766.33158h1.45782v1.45782h-1.45782v-1.45782ZM46.00228,766.33158h1.45782v1.45782h-1.45782v-1.45782ZM48.91792,766.33158h1.45782v1.45782h-1.45782v-1.45782ZM53.29137,766.33158h1.45782v1.45782h-1.45782v-1.45782ZM54.74919,766.33158h1.45782v1.45782h-1.45782v-1.45782ZM56.20701,766.33158h1.45782v1.45782h-1.45782v-1.45782ZM59.12264,766.33158h1.45782v1.45782h-1.45782v-1.45782ZM60.58046,766.33158h1.45782v1.45782h-1.45782v-1.45782ZM62.03828,766.33158h1.45782v1.45782h-1.45782v-1.45782ZM63.4961,766.33158h1.45782v1.45782h-1.45782v-1.45782ZM64.95391,766.33158h1.45782v1.45782h-1.45782v-1.45782ZM66.41173,766.33158h1.45782v1.45782h-1.45782v-1.45782ZM69.32737,766.33158h1.45782v1.45782h-1.45782v-1.45782ZM25.59284,767.7894h1.45782v1.45782h-1.45782v-1.45782ZM28.50847,767.7894h1.45782v1.45782h-1.45782v-1.45782ZM31.42411,767.7894h1.45782v1.45782h-1.45782v-1.45782ZM34.33974,767.7894h1.45782v1.45782h-1.45782v-1.45782ZM41.62883,767.7894h1.45782v1.45782h-1.45782v-1.45782ZM47.4601,767.7894h1.45782v1.45782h-1.45782v-1.45782ZM54.74919,767.7894h1.45782v1.45782h-1.45782v-1.45782ZM56.20701,767.7894h1.45782v1.45782h-1.45782v-1.45782ZM62.03828,767.7894h1.45782v1.45782h-1.45782v-1.45782ZM63.4961,767.7894h1.45782v1.45782h-1.45782v-1.45782ZM67.86955,767.7894h1.45782v1.45782h-1.45782v-1.45782ZM24.13502,769.24721h1.45782v1.45782h-1.45782v-1.45782ZM25.59284,769.24721h1.45782v1.45782h-1.45782v-1.45782ZM27.05065,769.24721h1.45782v1.45782h-1.45782v-1.45782ZM28.50847,769.24721h1.45782v1.45782h-1.45782v-1.45782ZM32.88192,769.24721h1.45782v1.45782h-1.45782v-1.45782ZM35.79756,769.24721h1.45782v1.45782h-1.45782v-1.45782ZM37.25538,769.24721h1.45782v1.45782h-1.45782v-1.45782ZM38.7132,769.24721h1.45782v1.45782h-1.45782v-1.45782ZM41.62883,769.24721h1.45782v1.45782h-1.45782v-1.45782ZM43.08665,769.24721h1.45782v1.45782h-1.45782v-1.45782ZM44.54447,769.24721h1.45782v1.45782h-1.45782v-1.45782ZM48.91792,769.24721h1.45782v1.45782h-1.45782v-1.45782ZM57.66483,769.24721h1.45782v1.45782h-1.45782v-1.45782ZM59.12264,769.24721h1.45782v1.45782h-1.45782v-1.45782ZM60.58046,769.24721h1.45782v1.45782h-1.45782v-1.45782ZM63.4961,769.24721h1.45782v1.45782h-1.45782v-1.45782ZM64.95391,769.24721h1.45782v1.45782h-1.45782v-1.45782ZM66.41173,769.24721h1.45782v1.45782h-1.45782v-1.45782ZM25.59284,770.70503h1.45782v1.45782h-1.45782v-1.45782ZM27.05065,770.70503h1.45782v1.45782h-1.45782v-1.45782ZM29.96629,770.70503h1.45782v1.45782h-1.45782v-1.45782ZM34.33974,770.70503h1.45782v1.45782h-1.45782v-1.45782ZM35.79756,770.70503h1.45782v1.45782h-1.45782v-1.45782ZM47.4601,770.70503h1.45782v1.45782h-1.45782v-1.45782ZM50.37574,770.70503h1.45782v1.45782h-1.45782v-1.45782ZM51.83356,770.70503h1.45782v1.45782h-1.45782v-1.45782ZM53.29137,770.70503h1.45782v1.45782h-1.45782v-1.45782ZM57.66483,770.70503h1.45782v1.45782h-1.45782v-1.45782ZM62.03828,770.70503h1.45782v1.45782h-1.45782v-1.45782ZM69.32737,770.70503h1.45782v1.45782h-1.45782v-1.45782ZM70.78519,770.70503h1.45782v1.45782h-1.45782v-1.45782ZM25.59284,772.16285h1.45782v1.45782h-1.45782v-1.45782ZM27.05065,772.16285h1.45782v1.45782h-1.45782v-1.45782ZM28.50847,772.16285h1.45782v1.45782h-1.45782v-1.45782ZM29.96629,772.16285h1.45782v1.45782h-1.45782v-1.45782ZM32.88192,772.16285h1.45782v1.45782h-1.45782v-1.45782ZM34.33974,772.16285h1.45782v1.45782h-1.45782v-1.45782ZM38.7132,772.16285h1.45782v1.45782h-1.45782v-1.45782ZM40.17101,772.16285h1.45782v1.45782h-1.45782v-1.45782ZM41.62883,772.16285h1.45782v1.45782h-1.45782v-1.45782ZM44.54447,772.16285h1.45782v1.45782h-1.45782v-1.45782ZM46.00228,772.16285h1.45782v1.45782h-1.45782v-1.45782ZM47.4601,772.16285h1.45782v1.45782h-1.45782v-1.45782ZM50.37574,772.16285h1.45782v1.45782h-1.45782v-1.45782ZM53.29137,772.16285h1.45782v1.45782h-1.45782v-1.45782ZM54.74919,772.16285h1.45782v1.45782h-1.45782v-1.45782ZM56.20701,772.16285h1.45782v1.45782h-1.45782v-1.45782ZM63.4961,772.16285h1.45782v1.45782h-1.45782v-1.45782ZM64.95391,772.16285h1.45782v1.45782h-1.45782v-1.45782ZM69.32737,772.16285h1.45782v1.45782h-1.45782v-1.45782ZM24.13502,773.62067h1.45782v1.45782h-1.45782v-1.45782ZM31.42411,773.62067h1.45782v1.45782h-1.45782v-1.45782ZM38.7132,773.62067h1.45782v1.45782h-1.45782v-1.45782ZM40.17101,773.62067h1.45782v1.45782h-1.45782v-1.45782ZM44.54447,773.62067h1.45782v1.45782h-1.45782v-1.45782ZM46.00228,773.62067h1.45782v1.45782h-1.45782v-1.45782ZM47.4601,773.62067h1.45782v1.45782h-1.45782v-1.45782ZM51.83356,773.62067h1.45782v1.45782h-1.45782v-1.45782ZM53.29137,773.62067h1.45782v1.45782h-1.45782v-1.45782ZM54.74919,773.62067h1.45782v1.45782h-1.45782v-1.45782ZM56.20701,773.62067h1.45782v1.45782h-1.45782v-1.45782ZM59.12264,773.62067h1.45782v1.45782h-1.45782v-1.45782ZM60.58046,773.62067h1.45782v1.45782h-1.45782v-1.45782ZM62.03828,773.62067h1.45782v1.45782h-1.45782v-1.45782ZM63.4961,773.62067h1.45782v1.45782h-1.45782v-1.45782ZM67.86955,773.62067h1.45782v1.45782h-1.45782v-1.45782ZM24.13502,775.07848h1.45782v1.45782h-1.45782v-1.45782ZM25.59284,775.07848h1.45782v1.45782h-1.45782v-1.45782ZM27.05065,775.07848h1.45782v1.45782h-1.45782v-1.45782ZM31.42411,775.07848h1.45782v1.45782h-1.45782v-1.45782ZM32.88192,775.07848h1.45782v1.45782h-1.45782v-1.45782ZM35.79756,775.07848h1.45782v1.45782h-1.45782v-1.45782ZM38.7132,775.07848h1.45782v1.45782h-1.45782v-1.45782ZM40.17101,775.07848h1.45782v1.45782h-1.45782v-1.45782ZM41.62883,775.07848h1.45782v1.45782h-1.45782v-1.45782ZM43.08665,775.07848h1.45782v1.45782h-1.45782v-1.45782ZM44.54447,775.07848h1.45782v1.45782h-1.45782v-1.45782ZM46.00228,775.07848h1.45782v1.45782h-1.45782v-1.45782ZM47.4601,775.07848h1.45782v1.45782h-1.45782v-1.45782ZM48.91792,775.07848h1.45782v1.45782h-1.45782v-1.45782ZM50.37574,775.07848h1.45782v1.45782h-1.45782v-1.45782ZM51.83356,775.07848h1.45782v1.45782h-1.45782v-1.45782ZM56.20701,775.07848h1.45782v1.45782h-1.45782v-1.45782ZM57.66483,775.07848h1.45782v1.45782h-1.45782v-1.45782ZM59.12264,775.07848h1.45782v1.45782h-1.45782v-1.45782ZM60.58046,775.07848h1.45782v1.45782h-1.45782v-1.45782ZM63.4961,775.07848h1.45782v1.45782h-1.45782v-1.45782ZM64.95391,775.07848h1.45782v1.45782h-1.45782v-1.45782ZM69.32737,775.07848h1.45782v1.45782h-1.45782v-1.45782ZM25.59284,776.5363h1.45782v1.45782h-1.45782v-1.45782ZM27.05065,776.5363h1.45782v1.45782h-1.45782v-1.45782ZM28.50847,776.5363h1.45782v1.45782h-1.45782v-1.45782ZM29.96629,776.5363h1.45782v1.45782h-1.45782v-1.45782ZM34.33974,776.5363h1.45782v1.45782h-1.45782v-1.45782ZM35.79756,776.5363h1.45782v1.45782h-1.45782v-1.45782ZM41.62883,776.5363h1.45782v1.45782h-1.45782v-1.45782ZM43.08665,776.5363h1.45782v1.45782h-1.45782v-1.45782ZM47.4601,776.5363h1.45782v1.45782h-1.45782v-1.45782ZM48.91792,776.5363h1.45782v1.45782h-1.45782v-1.45782ZM50.37574,776.5363h1.45782v1.45782h-1.45782v-1.45782ZM51.83356,776.5363h1.45782v1.45782h-1.45782v-1.45782ZM54.74919,776.5363h1.45782v1.45782h-1.45782v-1.45782ZM57.66483,776.5363h1.45782v1.45782h-1.45782v-1.45782ZM62.03828,776.5363h1.45782v1.45782h-1.45782v-1.45782ZM66.41173,776.5363h1.45782v1.45782h-1.45782v-1.45782ZM69.32737,776.5363h1.45782v1.45782h-1.45782v-1.45782ZM70.78519,776.5363h1.45782v1.45782h-1.45782v-1.45782ZM28.50847,777.99412h1.45782v1.45782h-1.45782v-1.45782ZM31.42411,777.99412h1.45782v1.45782h-1.45782v-1.45782ZM32.88192,777.99412h1.45782v1.45782h-1.45782v-1.45782ZM34.33974,777.99412h1.45782v1.45782h-1.45782v-1.45782ZM41.62883,777.99412h1.45782v1.45782h-1.45782v-1.45782ZM46.00228,777.99412h1.45782v1.45782h-1.45782v-1.45782ZM48.91792,777.99412h1.45782v1.45782h-1.45782v-1.45782ZM53.29137,777.99412h1.45782v1.45782h-1.45782v-1.45782ZM54.74919,777.99412h1.45782v1.45782h-1.45782v-1.45782ZM59.12264,777.99412h1.45782v1.45782h-1.45782v-1.45782ZM62.03828,777.99412h1.45782v1.45782h-1.45782v-1.45782ZM64.95391,777.99412h1.45782v1.45782h-1.45782v-1.45782ZM66.41173,777.99412h1.45782v1.45782h-1.45782v-1.45782ZM69.32737,777.99412h1.45782v1.45782h-1.45782v-1.45782ZM24.13502,779.45194h1.45782v1.45782h-1.45782v-1.45782ZM25.59284,779.45194h1.45782v1.45782h-1.45782v-1.45782ZM27.05065,779.45194h1.45782v1.45782h-1.45782v-1.45782ZM31.42411,779.45194h1.45782v1.45782h-1.45782v-1.45782ZM44.54447,779.45194h1.45782v1.45782h-1.45782v-1.45782ZM46.00228,779.45194h1.45782v1.45782h-1.45782v-1.45782ZM47.4601,779.45194h1.45782v1.45782h-1.45782v-1.45782ZM53.29137,779.45194h1.45782v1.45782h-1.45782v-1.45782ZM54.74919,779.45194h1.45782v1.45782h-1.45782v-1.45782ZM56.20701,779.45194h1.45782v1.45782h-1.45782v-1.45782ZM57.66483,779.45194h1.45782v1.45782h-1.45782v-1.45782ZM59.12264,779.45194h1.45782v1.45782h-1.45782v-1.45782ZM63.4961,779.45194h1.45782v1.45782h-1.45782v-1.45782ZM67.86955,779.45194h1.45782v1.45782h-1.45782v-1.45782ZM24.13502,780.90975h1.45782v1.45782h-1.45782v-1.45782ZM25.59284,780.90975h1.45782v1.45782h-1.45782v-1.45782ZM27.05065,780.90975h1.45782v1.45782h-1.45782v-1.45782ZM29.96629,780.90975h1.45782v1.45782h-1.45782v-1.45782ZM31.42411,780.90975h1.45782v1.45782h-1.45782v-1.45782ZM32.88192,780.90975h1.45782v1.45782h-1.45782v-1.45782ZM38.7132,780.90975h1.45782v1.45782h-1.45782v-1.45782ZM40.17101,780.90975h1.45782v1.45782h-1.45782v-1.45782ZM41.62883,780.90975h1.45782v1.45782h-1.45782v-1.45782ZM43.08665,780.90975h1.45782v1.45782h-1.45782v-1.45782ZM44.54447,780.90975h1.45782v1.45782h-1.45782v-1.45782ZM46.00228,780.90975h1.45782v1.45782h-1.45782v-1.45782ZM47.4601,780.90975h1.45782v1.45782h-1.45782v-1.45782ZM48.91792,780.90975h1.45782v1.45782h-1.45782v-1.45782ZM56.20701,780.90975h1.45782v1.45782h-1.45782v-1.45782ZM59.12264,780.90975h1.45782v1.45782h-1.45782v-1.45782ZM64.95391,780.90975h1.45782v1.45782h-1.45782v-1.45782ZM69.32737,780.90975h1.45782v1.45782h-1.45782v-1.45782ZM24.13502,782.36757h1.45782v1.45782h-1.45782v-1.45782ZM25.59284,782.36757h1.45782v1.45782h-1.45782v-1.45782ZM28.50847,782.36757h1.45782v1.45782h-1.45782v-1.45782ZM29.96629,782.36757h1.45782v1.45782h-1.45782v-1.45782ZM31.42411,782.36757h1.45782v1.45782h-1.45782v-1.45782ZM34.33974,782.36757h1.45782v1.45782h-1.45782v-1.45782ZM35.79756,782.36757h1.45782v1.45782h-1.45782v-1.45782ZM38.7132,782.36757h1.45782v1.45782h-1.45782v-1.45782ZM40.17101,782.36757h1.45782v1.45782h-1.45782v-1.45782ZM47.4601,782.36757h1.45782v1.45782h-1.45782v-1.45782ZM50.37574,782.36757h1.45782v1.45782h-1.45782v-1.45782ZM51.83356,782.36757h1.45782v1.45782h-1.45782v-1.45782ZM53.29137,782.36757h1.45782v1.45782h-1.45782v-1.45782ZM57.66483,782.36757h1.45782v1.45782h-1.45782v-1.45782ZM62.03828,782.36757h1.45782v1.45782h-1.45782v-1.45782ZM66.41173,782.36757h1.45782v1.45782h-1.45782v-1.45782ZM69.32737,782.36757h1.45782v1.45782h-1.45782v-1.45782ZM70.78519,782.36757h1.45782v1.45782h-1.45782v-1.45782ZM24.13502,783.82539h1.45782v1.45782h-1.45782v-1.45782ZM28.50847,783.82539h1.45782v1.45782h-1.45782v-1.45782ZM29.96629,783.82539h1.45782v1.45782h-1.45782v-1.45782ZM31.42411,783.82539h1.45782v1.45782h-1.45782v-1.45782ZM32.88192,783.82539h1.45782v1.45782h-1.45782v-1.45782ZM34.33974,783.82539h1.45782v1.45782h-1.45782v-1.45782ZM35.79756,783.82539h1.45782v1.45782h-1.45782v-1.45782ZM43.08665,783.82539h1.45782v1.45782h-1.45782v-1.45782ZM46.00228,783.82539h1.45782v1.45782h-1.45782v-1.45782ZM48.91792,783.82539h1.45782v1.45782h-1.45782v-1.45782ZM56.20701,783.82539h1.45782v1.45782h-1.45782v-1.45782ZM60.58046,783.82539h1.45782v1.45782h-1.45782v-1.45782ZM62.03828,783.82539h1.45782v1.45782h-1.45782v-1.45782ZM63.4961,783.82539h1.45782v1.45782h-1.45782v-1.45782ZM64.95391,783.82539h1.45782v1.45782h-1.45782v-1.45782ZM66.41173,783.82539h1.45782v1.45782h-1.45782v-1.45782ZM69.32737,783.82539h1.45782v1.45782h-1.45782v-1.45782ZM24.13502,785.28321h1.45782v1.45782h-1.45782v-1.45782ZM29.96629,785.28321h1.45782v1.45782h-1.45782v-1.45782ZM34.33974,785.28321h1.45782v1.45782h-1.45782v-1.45782ZM38.7132,785.28321h1.45782v1.45782h-1.45782v-1.45782ZM44.54447,785.28321h1.45782v1.45782h-1.45782v-1.45782ZM46.00228,785.28321h1.45782v1.45782h-1.45782v-1.45782ZM47.4601,785.28321h1.45782v1.45782h-1.45782v-1.45782ZM53.29137,785.28321h1.45782v1.45782h-1.45782v-1.45782ZM54.74919,785.28321h1.45782v1.45782h-1.45782v-1.45782ZM57.66483,785.28321h1.45782v1.45782h-1.45782v-1.45782ZM60.58046,785.28321h1.45782v1.45782h-1.45782v-1.45782ZM62.03828,785.28321h1.45782v1.45782h-1.45782v-1.45782ZM64.95391,785.28321h1.45782v1.45782h-1.45782v-1.45782ZM66.41173,785.28321h1.45782v1.45782h-1.45782v-1.45782ZM67.86955,785.28321h1.45782v1.45782h-1.45782v-1.45782ZM24.13502,786.74103h1.45782v1.45782h-1.45782v-1.45782ZM28.50847,786.74103h1.45782v1.45782h-1.45782v-1.45782ZM29.96629,786.74103h1.45782v1.45782h-1.45782v-1.45782ZM31.42411,786.74103h1.45782v1.45782h-1.45782v-1.45782ZM32.88192,786.74103h1.45782v1.45782h-1.45782v-1.45782ZM34.33974,786.74103h1.45782v1.45782h-1.45782v-1.45782ZM38.7132,786.74103h1.45782v1.45782h-1.45782v-1.45782ZM40.17101,786.74103h1.45782v1.45782h-1.45782v-1.45782ZM41.62883,786.74103h1.45782v1.45782h-1.45782v-1.45782ZM43.08665,786.74103h1.45782v1.45782h-1.45782v-1.45782ZM44.54447,786.74103h1.45782v1.45782h-1.45782v-1.45782ZM48.91792,786.74103h1.45782v1.45782h-1.45782v-1.45782ZM53.29137,786.74103h1.45782v1.45782h-1.45782v-1.45782ZM56.20701,786.74103h1.45782v1.45782h-1.45782v-1.45782ZM57.66483,786.74103h1.45782v1.45782h-1.45782v-1.45782ZM59.12264,786.74103h1.45782v1.45782h-1.45782v-1.45782ZM60.58046,786.74103h1.45782v1.45782h-1.45782v-1.45782ZM62.03828,786.74103h1.45782v1.45782h-1.45782v-1.45782ZM63.4961,786.74103h1.45782v1.45782h-1.45782v-1.45782ZM64.95391,786.74103h1.45782v1.45782h-1.45782v-1.45782ZM66.41173,786.74103h1.45782v1.45782h-1.45782v-1.45782ZM70.78519,786.74103h1.45782v1.45782h-1.45782v-1.45782ZM35.79756,788.19884h1.45782v1.45782h-1.45782v-1.45782ZM38.7132,788.19884h1.45782v1.45782h-1.45782v-1.45782ZM40.17101,788.19884h1.45782v1.45782h-1.45782v-1.45782ZM43.08665,788.19884h1.45782v1.45782h-1.45782v-1.45782ZM47.4601,788.19884h1.45782v1.45782h-1.45782v-1.45782ZM50.37574,788.19884h1.45782v1.45782h-1.45782v-1.45782ZM51.83356,788.19884h1.45782v1.45782h-1.45782v-1.45782ZM53.29137,788.19884h1.45782v1.45782h-1.45782v-1.45782ZM54.74919,788.19884h1.45782v1.45782h-1.45782v-1.45782ZM59.12264,788.19884h1.45782v1.45782h-1.45782v-1.45782ZM64.95391,788.19884h1.45782v1.45782h-1.45782v-1.45782ZM66.41173,788.19884h1.45782v1.45782h-1.45782v-1.45782ZM67.86955,788.19884h1.45782v1.45782h-1.45782v-1.45782ZM70.78519,788.19884h1.45782v1.45782h-1.45782v-1.45782ZM24.13502,789.65666h1.45782v1.45782h-1.45782v-1.45782ZM25.59284,789.65666h1.45782v1.45782h-1.45782v-1.45782ZM27.05065,789.65666h1.45782v1.45782h-1.45782v-1.45782ZM28.50847,789.65666h1.45782v1.45782h-1.45782v-1.45782ZM29.96629,789.65666h1.45782v1.45782h-1.45782v-1.45782ZM31.42411,789.65666h1.45782v1.45782h-1.45782v-1.45782ZM32.88192,789.65666h1.45782v1.45782h-1.45782v-1.45782ZM35.79756,789.65666h1.45782v1.45782h-1.45782v-1.45782ZM37.25538,789.65666h1.45782v1.45782h-1.45782v-1.45782ZM41.62883,789.65666h1.45782v1.45782h-1.45782v-1.45782ZM46.00228,789.65666h1.45782v1.45782h-1.45782v-1.45782ZM47.4601,789.65666h1.45782v1.45782h-1.45782v-1.45782ZM50.37574,789.65666h1.45782v1.45782h-1.45782v-1.45782ZM53.29137,789.65666h1.45782v1.45782h-1.45782v-1.45782ZM56.20701,789.65666h1.45782v1.45782h-1.45782v-1.45782ZM57.66483,789.65666h1.45782v1.45782h-1.45782v-1.45782ZM59.12264,789.65666h1.45782v1.45782h-1.45782v-1.45782ZM62.03828,789.65666h1.45782v1.45782h-1.45782v-1.45782ZM64.95391,789.65666h1.45782v1.45782h-1.45782v-1.45782ZM66.41173,789.65666h1.45782v1.45782h-1.45782v-1.45782ZM69.32737,789.65666h1.45782v1.45782h-1.45782v-1.45782ZM24.13502,791.11448h1.45782v1.45782h-1.45782v-1.45782ZM32.88192,791.11448h1.45782v1.45782h-1.45782v-1.45782ZM37.25538,791.11448h1.45782v1.45782h-1.45782v-1.45782ZM38.7132,791.11448h1.45782v1.45782h-1.45782v-1.45782ZM46.00228,791.11448h1.45782v1.45782h-1.45782v-1.45782ZM47.4601,791.11448h1.45782v1.45782h-1.45782v-1.45782ZM51.83356,791.11448h1.45782v1.45782h-1.45782v-1.45782ZM53.29137,791.11448h1.45782v1.45782h-1.45782v-1.45782ZM54.74919,791.11448h1.45782v1.45782h-1.45782v-1.45782ZM56.20701,791.11448h1.45782v1.45782h-1.45782v-1.45782ZM59.12264,791.11448h1.45782v1.45782h-1.45782v-1.45782ZM64.95391,791.11448h1.45782v1.45782h-1.45782v-1.45782ZM66.41173,791.11448h1.45782v1.45782h-1.45782v-1.45782ZM67.86955,791.11448h1.45782v1.45782h-1.45782v-1.45782ZM69.32737,791.11448h1.45782v1.45782h-1.45782v-1.45782ZM70.78519,791.11448h1.45782v1.45782h-1.45782v-1.45782ZM24.13502,792.5723h1.45782v1.45782h-1.45782v-1.45782ZM27.05065,792.5723h1.45782v1.45782h-1.45782v-1.45782ZM28.50847,792.5723h1.45782v1.45782h-1.45782v-1.45782ZM29.96629,792.5723h1.45782v1.45782h-1.45782v-1.45782ZM32.88192,792.5723h1.45782v1.45782h-1.45782v-1.45782ZM35.79756,792.5723h1.45782v1.45782h-1.45782v-1.45782ZM37.25538,792.5723h1.45782v1.45782h-1.45782v-1.45782ZM38.7132,792.5723h1.45782v1.45782h-1.45782v-1.45782ZM43.08665,792.5723h1.45782v1.45782h-1.45782v-1.45782ZM46.00228,792.5723h1.45782v1.45782h-1.45782v-1.45782ZM48.91792,792.5723h1.45782v1.45782h-1.45782v-1.45782ZM50.37574,792.5723h1.45782v1.45782h-1.45782v-1.45782ZM51.83356,792.5723h1.45782v1.45782h-1.45782v-1.45782ZM56.20701,792.5723h1.45782v1.45782h-1.45782v-1.45782ZM59.12264,792.5723h1.45782v1.45782h-1.45782v-1.45782ZM60.58046,792.5723h1.45782v1.45782h-1.45782v-1.45782ZM62.03828,792.5723h1.45782v1.45782h-1.45782v-1.45782ZM63.4961,792.5723h1.45782v1.45782h-1.45782v-1.45782ZM64.95391,792.5723h1.45782v1.45782h-1.45782v-1.45782ZM66.41173,792.5723h1.45782v1.45782h-1.45782v-1.45782ZM69.32737,792.5723h1.45782v1.45782h-1.45782v-1.45782ZM24.13502,794.03011h1.45782v1.45782h-1.45782v-1.45782ZM27.05065,794.03011h1.45782v1.45782h-1.45782v-1.45782ZM28.50847,794.03011h1.45782v1.45782h-1.45782v-1.45782ZM29.96629,794.03011h1.45782v1.45782h-1.45782v-1.45782ZM32.88192,794.03011h1.45782v1.45782h-1.45782v-1.45782ZM35.79756,794.03011h1.45782v1.45782h-1.45782v-1.45782ZM40.17101,794.03011h1.45782v1.45782h-1.45782v-1.45782ZM43.08665,794.03011h1.45782v1.45782h-1.45782v-1.45782ZM47.4601,794.03011h1.45782v1.45782h-1.45782v-1.45782ZM48.91792,794.03011h1.45782v1.45782h-1.45782v-1.45782ZM50.37574,794.03011h1.45782v1.45782h-1.45782v-1.45782ZM51.83356,794.03011h1.45782v1.45782h-1.45782v-1.45782ZM53.29137,794.03011h1.45782v1.45782h-1.45782v-1.45782ZM54.74919,794.03011h1.45782v1.45782h-1.45782v-1.45782ZM57.66483,794.03011h1.45782v1.45782h-1.45782v-1.45782ZM59.12264,794.03011h1.45782v1.45782h-1.45782v-1.45782ZM60.58046,794.03011h1.45782v1.45782h-1.45782v-1.45782ZM63.4961,794.03011h1.45782v1.45782h-1.45782v-1.45782ZM64.95391,794.03011h1.45782v1.45782h-1.45782v-1.45782ZM66.41173,794.03011h1.45782v1.45782h-1.45782v-1.45782ZM67.86955,794.03011h1.45782v1.45782h-1.45782v-1.45782ZM24.13502,795.48793h1.45782v1.45782h-1.45782v-1.45782ZM27.05065,795.48793h1.45782v1.45782h-1.45782v-1.45782ZM28.50847,795.48793h1.45782v1.45782h-1.45782v-1.45782ZM29.96629,795.48793h1.45782v1.45782h-1.45782v-1.45782ZM32.88192,795.48793h1.45782v1.45782h-1.45782v-1.45782ZM35.79756,795.48793h1.45782v1.45782h-1.45782v-1.45782ZM38.7132,795.48793h1.45782v1.45782h-1.45782v-1.45782ZM41.62883,795.48793h1.45782v1.45782h-1.45782v-1.45782ZM43.08665,795.48793h1.45782v1.45782h-1.45782v-1.45782ZM44.54447,795.48793h1.45782v1.45782h-1.45782v-1.45782ZM46.00228,795.48793h1.45782v1.45782h-1.45782v-1.45782ZM47.4601,795.48793h1.45782v1.45782h-1.45782v-1.45782ZM54.74919,795.48793h1.45782v1.45782h-1.45782v-1.45782ZM56.20701,795.48793h1.45782v1.45782h-1.45782v-1.45782ZM57.66483,795.48793h1.45782v1.45782h-1.45782v-1.45782ZM59.12264,795.48793h1.45782v1.45782h-1.45782v-1.45782ZM62.03828,795.48793h1.45782v1.45782h-1.45782v-1.45782ZM63.4961,795.48793h1.45782v1.45782h-1.45782v-1.45782ZM66.41173,795.48793h1.45782v1.45782h-1.45782v-1.45782ZM69.32737,795.48793h1.45782v1.45782h-1.45782v-1.45782ZM24.13502,796.94575h1.45782v1.45782h-1.45782v-1.45782ZM32.88192,796.94575h1.45782v1.45782h-1.45782v-1.45782ZM35.79756,796.94575h1.45782v1.45782h-1.45782v-1.45782ZM37.25538,796.94575h1.45782v1.45782h-1.45782v-1.45782ZM38.7132,796.94575h1.45782v1.45782h-1.45782v-1.45782ZM41.62883,796.94575h1.45782v1.45782h-1.45782v-1.45782ZM47.4601,796.94575h1.45782v1.45782h-1.45782v-1.45782ZM51.83356,796.94575h1.45782v1.45782h-1.45782v-1.45782ZM54.74919,796.94575h1.45782v1.45782h-1.45782v-1.45782ZM56.20701,796.94575h1.45782v1.45782h-1.45782v-1.45782ZM60.58046,796.94575h1.45782v1.45782h-1.45782v-1.45782ZM64.95391,796.94575h1.45782v1.45782h-1.45782v-1.45782ZM66.41173,796.94575h1.45782v1.45782h-1.45782v-1.45782ZM67.86955,796.94575h1.45782v1.45782h-1.45782v-1.45782ZM24.13502,798.40357h1.45782v1.45782h-1.45782v-1.45782ZM25.59284,798.40357h1.45782v1.45782h-1.45782v-1.45782ZM27.05065,798.40357h1.45782v1.45782h-1.45782v-1.45782ZM28.50847,798.40357h1.45782v1.45782h-1.45782v-1.45782ZM29.96629,798.40357h1.45782v1.45782h-1.45782v-1.45782ZM31.42411,798.40357h1.45782v1.45782h-1.45782v-1.45782ZM32.88192,798.40357h1.45782v1.45782h-1.45782v-1.45782ZM35.79756,798.40357h1.45782v1.45782h-1.45782v-1.45782ZM40.17101,798.40357h1.45782v1.45782h-1.45782v-1.45782ZM41.62883,798.40357h1.45782v1.45782h-1.45782v-1.45782ZM43.08665,798.40357h1.45782v1.45782h-1.45782v-1.45782ZM44.54447,798.40357h1.45782v1.45782h-1.45782v-1.45782ZM46.00228,798.40357h1.45782v1.45782h-1.45782v-1.45782ZM48.91792,798.40357h1.45782v1.45782h-1.45782v-1.45782ZM56.20701,798.40357h1.45782v1.45782h-1.45782v-1.45782ZM57.66483,798.40357h1.45782v1.45782h-1.45782v-1.45782ZM59.12264,798.40357h1.45782v1.45782h-1.45782v-1.45782ZM66.41173,798.40357h1.45782v1.45782h-1.45782v-1.45782ZM69.32737,798.40357h1.45782v1.45782h-1.45782v-1.45782Z" style="stroke-width:0px;"/></g></g></g><g id="sbb"><rect id="rect22814" x="969.39198" y="3.05384" width="196.04423" height="22.94025" style="fill:#fff; stroke-width:0px;"/><rect id="rect397399" x="970.84309" y="4.30368" width="192.10691" height="20.65906" style="fill:#fff; stroke-width:0px;"/><path id="path2879" d="M970.84309,24.75029h60.7022V4.51614h-60.7022v20.23415Z" style="fill:#e42328; stroke-width:0px;"/><path id="path2881" d="M1006.57465,13.08462h6.56305v-5.19604h3.09174v5.19604h6.56305l-5.28039-5.19604h3.91846l6.74469,6.74462-6.74469,6.74463h-3.9212l5.28039-5.19605h-6.56049v5.19604h-3.09174v-5.19577h-6.56323l5.27985,5.19603h-3.91571l-6.74469-6.74462,6.74469-6.74463h3.91644" style="fill:#fff; stroke-width:0px;"/><path id="path2883" d="M1037.80951,17.34907c-.039,3.49178,2.896,5.03902,6.02911,5.03902,3.84869,0,5.89197-1.9432,5.89197-4.5427,0-3.21163-3.17303-3.86659-4.20557-4.12234-3.5506-.9137-4.22369-1.05282-4.22369-2.14253,0-1.19005,1.14899-1.60582,2.14252-1.60582,1.48791,0,2.69806.43528,2.79602,2.14253h3.01556c0-3.27237-2.71747-4.5606-5.67224-4.5606-2.5589,0-5.29578,1.38831-5.29578,4.28506,0,2.65782,2.12164,3.47144,4.22552,4.02551,2.08228.55489,4.20355.81362,4.20355,2.33915,0,1.44879-1.66663,1.76636-2.75684,1.76636-1.66663,0-3.1333-.73524-3.1333-2.61931" style="fill:#221e20; stroke-width:0px;"/><path id="path2885" d="M1054.76508,10.30991h2.91559c1.10962,0,2.14252.27663,2.14252,1.62561,0,1.19005-.81372,1.68609-1.90393,1.68609h-3.15417v-3.3117ZM1051.65173,22.05071h6.86151c2.5589,0,4.99969-1.22938,4.99969-4.10578,0-1.76474-.87433-3.09392-2.59973-3.58996,1.19348-.48972,1.96014-1.66644,1.92554-2.95615,0-2.63721-1.8252-3.50967-4.52325-3.50967h-6.66376v14.16156ZM1054.76508,15.74327h3.3902c1.3288,0,2.24103.57631,2.24103,2.02347,0,1.46669-1.07043,1.86455-2.2998,1.86455h-3.33105" style="fill:#221e20; fill-rule:evenodd; stroke-width:0px;"/><path id="path2887" d="M1068.70251,10.30991h2.91559c1.10962,0,2.14233.27663,2.14233,1.62561,0,1.19005-.81354,1.68609-1.90393,1.68609h-3.15399v-3.3117ZM1065.58899,22.05071h6.86151c2.5589,0,4.99786-1.22938,4.99786-4.10578,0-1.76474-.87231-3.09392-2.5979-3.58996,1.19257-.49063,1.95795-1.66707,1.92334-2.95615,0-2.63721-1.82355-3.50967-4.52124-3.50967h-6.66357v14.16156ZM1068.70435,15.74327h3.3902c1.32898,0,2.24139.57631,2.24139,2.02347,0,1.46669-1.07043,1.86455-2.2998,1.86455h-3.33105" style="fill:#221e20; fill-rule:evenodd; stroke-width:0px;"/><path id="path2889" d="M1097.22796,12.64906c-.37646-3.27237-2.99414-5.09596-6.10785-5.09596-4.38409,0-6.96075,3.27237-6.96075,7.47634,0,4.08599,2.57648,7.35837,6.96075,7.35837,3.47131,0,5.90955-2.26077,6.22705-5.79188h-3.01575c-.23749,1.86455-1.30811,3.17311-3.21149,3.17311-2.7962,0-3.84869-2.38037-3.84869-4.74096,0-2.47828,1.05286-4.85866,3.84869-4.85866,1.54578,0,2.896,1.07072,3.09393,2.47828" style="fill:#221e20; stroke-width:0px;"/><path id="path2891" d="M1099.26464,22.05069h3.11334v-5.851h5.93115v-2.41943h-5.93115v-3.27237h6.84247v-2.61741h-9.95654" style="fill:#221e20; stroke-width:0px;"/><path id="path2893" d="M1111.11358,22.05069h3.10492v-5.851h5.92383v-2.41943h-5.92584v-3.27237h6.83441v-2.61741h-9.93732" style="fill:#221e20; stroke-width:0px;"/><path id="path2895" d="M1127.79559,22.05069h3.12158v-5.851h5.92383v-2.41943h-5.92383v-3.27237h6.83441v-2.61741h-9.95581" style="fill:#221e20; stroke-width:0px;"/><path id="path2897" d="M1140.01879,22.05069h3.10474v-5.851h5.92364v-2.41943h-5.92383v-3.27237h6.85181v-2.61741h-9.95654" style="fill:#221e20; stroke-width:0px;"/><path id="path2899" d="M1151.11663,17.34907c-.03534,3.49178,2.8905,5.03902,6.03094,5.03902,3.854,0,5.88812-1.9432,5.88812-4.5427,0-3.21163-3.17615-3.86659-4.19311-4.12234-3.55041-.9137-4.22864-1.05282-4.22864-2.14253,0-1.19005,1.14166-1.60582,2.14252-1.60582,1.48059,0,2.6944.43528,2.80115,2.14253h2.9978c0-3.27237-2.71216-4.5606-5.65631-4.5606-2.56934,0-5.29944,1.38831-5.29944,4.28506,0,2.65782,2.12311,3.47144,4.229,4.02551,2.06982.55489,4.19311.81362,4.19311,2.33915,0,1.44879-1.65948,1.76636-2.74786,1.76636-1.67743,0-3.14026-.73524-3.14026-2.61931" style="fill:#221e20; stroke-width:0px;"/></g><g id="title"><g id="g332270"><path id="rect332103-2-0" d="M0,0l588.26869,1.25459c1.40685.003,2.54574,1.14432,2.54574,2.55118v80.60534c0,1.4111-1.14552,2.55418-2.55662,2.55118L0,85.70772V0Z" style="fill:#fff; stroke-width:0px;"/></g><g id="text262899" style="isolation:isolate;"><text transform="translate(28.85593 25.642)" style="font-family:SBBWeb-Light, &apos;SBB Web&apos;; font-size:18px; font-weight:300; isolation:isolate;"><tspan x="0" y="0" style="letter-spacing:.00146em;">G</tspan><tspan x="13.36816" y="0">ene</tspan><tspan x="41.72168" y="0" style="letter-spacing:-.00928em;">r</tspan><tspan x="47.22363" y="0">al</tspan><tspan x="59.89746" y="0" style="letter-spacing:-.00879em;">-</tspan><tspan x="66.40137" y="0" style="letter-spacing:.00781em;">A</tspan><tspan x="77.87988" y="0">b</tspan><tspan x="88.21582" y="0" style="letter-spacing:-.0293em;">o</tspan><tspan x="97.69922" y="0">, </tspan><tspan x="107.70117" y="0" style="letter-spacing:.00928em;">G</tspan><tspan x="121.20996" y="0">A N</tspan><tspan x="150.22266" y="0" style="letter-spacing:-.00098em;">i</tspan><tspan x="153.53613" y="0" style="letter-spacing:.00146em;">g</tspan><tspan x="163.57324" y="0">h</tspan><tspan x="173.24121" y="0" style="letter-spacing:-.03027em;">t</tspan><tspan x="178.02246" y="0">, </tspan><tspan x="188.02441" y="0" style="letter-spacing:.00928em;">G</tspan><tspan x="201.5332" y="0" style="letter-spacing:-.00879em;">A</tspan><tspan x="212.71289" y="0">-Mon</tspan><tspan x="254.04785" y="0" style="letter-spacing:-.01123em;">a</tspan><tspan x="263.18848" y="0" style="letter-spacing:-.0137em;">t</tspan><tspan x="268.26855" y="0" style="letter-spacing:-.00491em;">s</tspan><tspan x="276.8374" y="0">ka</tspan><tspan x="295.18115" y="0" style="letter-spacing:.03076em;">r</tspan><tspan x="301.40381" y="0" style="letter-spacing:-.02832em;">t</tspan><tspan x="306.22021" y="0" style="letter-spacing:-.02197em;">e</tspan><tspan x="315.16748" y="0" style="letter-spacing:-.00005em;">, </tspan><tspan x="325.16943" y="0" style="letter-spacing:-.01031em;">A</tspan><tspan x="336.32178" y="0">u</tspan><tspan x="345.98975" y="0" style="letter-spacing:-.01221em;">s</tspan><tspan x="354.42725" y="0" style="letter-spacing:.00977em;">f</tspan><tspan x="359.26123" y="0" style="letter-spacing:.00005em;">l</tspan><tspan x="362.59326" y="0" style="letter-spacing:.00098em;">u</tspan><tspan x="372.27881" y="0" style="letter-spacing:-.00146em;">g</tspan><tspan x="382.26318" y="0" style="letter-spacing:-.01709em;">s</tspan><tspan x="390.61279" y="0" style="letter-spacing:-.00879em;">-</tspan><tspan x="397.1167" y="0" style="letter-spacing:.00781em;">A</tspan><tspan x="408.59521" y="0">b</tspan><tspan x="418.93115" y="0" style="letter-spacing:-.02935em;">o</tspan><tspan x="428.41357" y="0" style="letter-spacing:.00005em;">,</tspan></text><text transform="translate(28.85593 48.142)" style="font-family:SBBWeb-Light, &apos;SBB Web&apos;; font-size:18px; font-weight:300; isolation:isolate;"><tspan x="0" y="0" style="letter-spacing:-.09229em;">T</tspan><tspan x="8.34961" y="0" style="letter-spacing:-.00781em;">a</tspan><tspan x="17.55176" y="0" style="letter-spacing:.00146em;">g</tspan><tspan x="27.58887" y="0" style="letter-spacing:.00098em;">e</tspan><tspan x="36.94922" y="0" style="letter-spacing:-.00488em;">s</tspan><tspan x="45.51855" y="0">ka</tspan><tspan x="63.86133" y="0" style="letter-spacing:.03076em;">r</tspan><tspan x="70.08398" y="0" style="letter-spacing:-.02832em;">t</tspan><tspan x="74.90039" y="0">e </tspan><tspan x="89.24414" y="0" style="letter-spacing:-.01123em;">z</tspan><tspan x="97.37402" y="0">um </tspan><tspan x="127.03711" y="0" style="letter-spacing:-.00293em;">H</tspan><tspan x="139.6582" y="0">alb</tspan><tspan x="162.66797" y="0" style="letter-spacing:-.00488em;">t</tspan><tspan x="167.90625" y="0" style="letter-spacing:.0293em;">a</tspan><tspan x="177.77637" y="0">x s</tspan><tspan x="200.0918" y="0" style="letter-spacing:-.01758em;">o</tspan><tspan x="209.78613" y="0" style="letter-spacing:-.00049em;">w</tspan><tspan x="223.11914" y="0">ie </tspan><tspan x="240.79395" y="0" style="letter-spacing:.00439em;">f</tspan><tspan x="245.53125" y="0">ür Spa</tspan><tspan x="296.88623" y="0" style="letter-spacing:.03076em;">r</tspan><tspan x="303.10889" y="0" style="letter-spacing:-.00488em;">t</tspan><tspan x="308.34717" y="0" style="letter-spacing:-.00787em;">a</tspan><tspan x="317.54834" y="0" style="letter-spacing:.00146em;">g</tspan><tspan x="327.58545" y="0" style="letter-spacing:.00103em;">e</tspan><tspan x="336.94678" y="0" style="letter-spacing:-.00494em;">s</tspan><tspan x="345.51514" y="0">ka</tspan><tspan x="363.85889" y="0" style="letter-spacing:.03076em;">r</tspan><tspan x="370.08154" y="0" style="letter-spacing:-.02832em;">t</tspan><tspan x="374.89795" y="0" style="letter-spacing:-.00005em;">e / A</tspan><tspan x="411.57373" y="0" style="letter-spacing:.02441em;">k</tspan><tspan x="421.01318" y="0" style="letter-spacing:-.01172em;">t</tspan><tspan x="426.12842" y="0" style="letter-spacing:.00005em;">ion</tspan><tspan x="449.13818" y="0" style="letter-spacing:-.0083em;">s</tspan><tspan x="457.646" y="0" style="letter-spacing:-.00488em;">t</tspan><tspan x="462.88428" y="0" style="letter-spacing:-.00776em;">a</tspan><tspan x="472.0874" y="0" style="letter-spacing:.00146em;">g</tspan><tspan x="482.12451" y="0" style="letter-spacing:.00092em;">e</tspan><tspan x="491.48389" y="0" style="letter-spacing:-.00483em;">s</tspan><tspan x="500.0542" y="0">ka</tspan><tspan x="518.396" y="0" style="letter-spacing:.03076em;">r</tspan><tspan x="524.61865" y="0" style="letter-spacing:-.02832em;">t</tspan><tspan x="529.43506" y="0" style="letter-spacing:.00005em;">e /</tspan></text><text transform="translate(28.85593 70.642)" style="font-family:SBBWeb-Light, &apos;SBB Web&apos;; font-size:18px; font-weight:300; isolation:isolate;"><tspan x="0" y="0">(Spa</tspan><tspan x="35.3584" y="0" style="letter-spacing:-.06885em;">r</tspan><tspan x="39.78809" y="0">-)</tspan><tspan x="50.79199" y="0" style="letter-spacing:-.09229em;">T</tspan><tspan x="59.1416" y="0" style="letter-spacing:-.00781em;">a</tspan><tspan x="68.34375" y="0" style="letter-spacing:.00146em;">g</tspan><tspan x="78.38086" y="0" style="letter-spacing:.00098em;">e</tspan><tspan x="87.74121" y="0" style="letter-spacing:-.00488em;">s</tspan><tspan x="96.31055" y="0">ka</tspan><tspan x="114.65332" y="0" style="letter-spacing:.03076em;">r</tspan><tspan x="120.87598" y="0" style="letter-spacing:-.02832em;">t</tspan><tspan x="125.69238" y="0">e </tspan><tspan x="140.03613" y="0" style="letter-spacing:.00146em;">G</tspan><tspan x="153.4043" y="0">emeinde </tspan><tspan x="224.7627" y="0" style="letter-spacing:-.01123em;">z</tspan><tspan x="232.89258" y="0">u</tspan><tspan x="242.56055" y="0" style="letter-spacing:.00195em;">s</tspan><tspan x="251.25293" y="0">ammen mit </tspan><tspan x="343.24756" y="0" style="letter-spacing:-.00293em;">H</tspan><tspan x="355.86865" y="0" style="letter-spacing:.00005em;">alb</tspan><tspan x="378.87842" y="0" style="letter-spacing:-.00488em;">t</tspan><tspan x="384.1167" y="0" style="letter-spacing:.02935em;">a</tspan><tspan x="393.98779" y="0" style="letter-spacing:-.0606em;">x</tspan><tspan x="401.5542" y="0" style="letter-spacing:-.00879em;">-</tspan><tspan x="408.05811" y="0" style="letter-spacing:.00781em;">A</tspan><tspan x="419.53662" y="0">bo</tspan></text></g></g></g><g id="legend"><rect id="rect426128-0-8-3-9-2" x="22.67719" y="90.06192" width="196.23583" height="131.09545" rx="2.55118" ry="2.55118" style="fill:#fff; stroke-width:0px;"/><g id="scaleline"><rect id="rect2491" x="30.37512" y="199.38785" width="135.50946" height="13.89802" style="fill:#fff; stroke-width:0px;"/><g id="text2343" style="isolation:isolate;"><text transform="translate(96.10984 209.16338)" style="font-family:SBBWeb-Roman, &apos;SBB Web&apos;; font-size:7px; isolation:isolate;"><tspan x="0" y="0">50 </tspan><tspan x="9.73096" y="0" style="letter-spacing:.00342em;">k</tspan><tspan x="13.38818" y="0">m</tspan></text></g><path id="path1881" d="M182.99443,199.38986v13.3705l-152.16776.0737v-13.44621" style="fill:none; stroke:#000; stroke-miterlimit:3; stroke-width:.9031px;"/></g><text transform="translate(29.76975 131.41151)" style="font-family:SBBWeb-Roman, &apos;SBB Web&apos;; font-size:7px; isolation:isolate;"><tspan x="0" y="0">Bahnen</tspan></text><line x1="31.18798" y1="115.59289" x2="63.46738" y2="115.59289" style="fill:none; stroke:#eb0000; stroke-linecap:square; stroke-miterlimit:3; stroke-width:1.41732px;"/><line x1="31.18798" y1="119.98174" x2="31.18798" y2="119.98174" style="fill:none; stroke:#eb0000; stroke-linecap:round; stroke-miterlimit:3; stroke-width:1.41732px;"/><line x1="34.12248" y1="119.98174" x2="62.00013" y2="119.98174" style="fill:none; stroke:#eb0000; stroke-dasharray:0 0 0 2.93449; stroke-linecap:round; stroke-miterlimit:3; stroke-width:1.41732px;"/><line x1="63.46737" y1="119.98174" x2="63.46737" y2="119.98174" style="fill:none; stroke:#eb0000; stroke-linecap:round; stroke-miterlimit:3; stroke-width:1.41732px;"/><text transform="translate(129.37699 131.53358)" style="font-family:SBBWeb-Roman, &apos;SBB Web&apos;; font-size:7px; isolation:isolate;"><tspan x="0" y="0">Seilbahnen</tspan></text><line x1="130.45063" y1="115.59289" x2="162.73003" y2="115.59289" style="fill:none; stroke:#000; stroke-linecap:square; stroke-miterlimit:3; stroke-width:1.41732px;"/><line x1="130.45063" y1="119.98174" x2="130.45063" y2="119.98174" style="fill:none; stroke:#000; stroke-linecap:round; stroke-miterlimit:3; stroke-width:1.41732px;"/><line x1="133.38512" y1="119.98174" x2="161.26278" y2="119.98174" style="fill:none; stroke:#000; stroke-dasharray:0 0 0 2.93449; stroke-linecap:round; stroke-miterlimit:3; stroke-width:1.41732px;"/><line x1="162.73003" y1="119.98174" x2="162.73003" y2="119.98174" style="fill:none; stroke:#000; stroke-linecap:round; stroke-miterlimit:3; stroke-width:1.41732px;"/><g id="text402292-9-5-9-7-1" style="isolation:isolate;"><text transform="translate(179.18097 169.69815)" style="font-family:SBBWeb-Roman, &apos;SBB Web&apos;; font-size:7px; isolation:isolate;"><tspan x="0" y="0">Gül</tspan><tspan x="10.75977" y="0" style="letter-spacing:-.0127em;">t</tspan><tspan x="12.87549" y="0" style="letter-spacing:-.00146em;">i</tspan><tspan x="14.42041" y="0" style="letter-spacing:-.00293em;">g</tspan><tspan x="18.41943" y="0" style="letter-spacing:-.0249em;">k</tspan><tspan x="21.87842" y="0">eit</tspan></text><text transform="translate(179.18097 178.09805)" style="font-family:SBBWeb-Roman, &apos;SBB Web&apos;; font-size:7px;"><tspan x="0" y="0" style="letter-spacing:-.02296em;">v</tspan><tspan x="3.33924" y="0">or O</tspan><tspan x="16.9531" y="0" style="letter-spacing:.03128em;">r</tspan><tspan x="19.50289" y="0">t</tspan><tspan x="0" y="8.3999">anf</tspan><tspan x="9.72433" y="8.3999" style="letter-spacing:-.00345em;">ra</tspan><tspan x="15.76375" y="8.3999" style="letter-spacing:-.00099em;">g</tspan><tspan x="19.77656" y="8.3999" style="letter-spacing:-.00007em;">en</tspan></text></g><line x1="180.08254" y1="158.28423" x2="180.08254" y2="158.28423" style="fill:none; stroke:#999; stroke-linecap:round; stroke-miterlimit:3; stroke-width:1.41732px;"/><line x1="183.01703" y1="158.28423" x2="210.89469" y2="158.28423" style="fill:none; stroke:#999; stroke-dasharray:0 0 0 2.93449; stroke-linecap:round; stroke-miterlimit:3; stroke-width:1.41732px;"/><line x1="212.36194" y1="158.28423" x2="212.36194" y2="158.28423" style="fill:none; stroke:#999; stroke-linecap:round; stroke-miterlimit:3; stroke-width:1.41732px;"/><text transform="translate(179.18082 131.53358)" style="font-family:SBBWeb-Roman, &apos;SBB Web&apos;; font-size:7px; isolation:isolate;"><tspan x="0" y="0" style="letter-spacing:.00049em;">S</tspan><tspan x="4.53906" y="0" style="letter-spacing:-.00342em;">c</tspan><tspan x="8.2749" y="0">hi</tspan><tspan x="13.72314" y="0" style="letter-spacing:.02344em;">f</tspan><tspan x="15.9585" y="0" style="letter-spacing:-.01904em;">f</tspan><tspan x="17.89648" y="0">e</tspan></text><line x1="180.08255" y1="115.59289" x2="212.36194" y2="115.59289" style="fill:none; stroke:#2a6698; stroke-linecap:square; stroke-miterlimit:3; stroke-width:1.41732px;"/><line x1="180.08254" y1="119.98174" x2="180.08254" y2="119.98174" style="fill:none; stroke:#2a6698; stroke-linecap:round; stroke-miterlimit:3; stroke-width:1.41732px;"/><line x1="183.01703" y1="119.98174" x2="210.89469" y2="119.98174" style="fill:none; stroke:#2a6698; stroke-dasharray:0 0 0 2.93449; stroke-linecap:round; stroke-miterlimit:3; stroke-width:1.41732px;"/><line x1="212.36194" y1="119.98174" x2="212.36194" y2="119.98174" style="fill:none; stroke:#2a6698; stroke-linecap:round; stroke-miterlimit:3; stroke-width:1.41732px;"/><text transform="translate(79.63138 131.5207)" style="font-family:SBBWeb-Roman, &apos;SBB Web&apos;; font-size:7px; isolation:isolate;"><tspan x="0" y="0" style="letter-spacing:-.00586em;">A</tspan><tspan x="4.49463" y="0">u</tspan><tspan x="8.3877" y="0" style="letter-spacing:-.02246em;">t</tspan><tspan x="10.43506" y="0">obu</tspan><tspan x="22.49707" y="0" style="letter-spacing:.00488em;">s</tspan><tspan x="26.03125" y="0">se</tspan></text><line x1="81.10652" y1="115.59289" x2="112.81332" y2="115.59289" style="fill:none; stroke:#3b3b3b; stroke-linecap:square; stroke-miterlimit:3; stroke-width:1.98425px;"/><line x1="80.81956" y1="119.98174" x2="80.81956" y2="119.98174" style="fill:none; stroke:#3b3b3b; stroke-linecap:round; stroke-miterlimit:3; stroke-width:1.98425px;"/><line x1="83.75404" y1="119.98174" x2="111.6317" y2="119.98174" style="fill:none; stroke:#3b3b3b; stroke-dasharray:0 0 0 2.93449; stroke-linecap:round; stroke-miterlimit:3; stroke-width:1.98425px;"/><line x1="113.09894" y1="119.98174" x2="113.09894" y2="119.98174" style="fill:none; stroke:#3b3b3b; stroke-linecap:round; stroke-miterlimit:3; stroke-width:1.98425px;"/><line x1="80.81955" y1="115.59289" x2="113.09894" y2="115.59289" style="fill:none; stroke:#fbd700; stroke-linecap:square; stroke-miterlimit:3; stroke-width:1.41732px;"/><line x1="80.81956" y1="119.98174" x2="80.81956" y2="119.98174" style="fill:none; stroke:#fbd700; stroke-linecap:round; stroke-miterlimit:3; stroke-width:1.41732px;"/><line x1="83.75404" y1="119.98174" x2="111.6317" y2="119.98174" style="fill:none; stroke:#fbd700; stroke-dasharray:0 0 0 2.93449; stroke-linecap:round; stroke-miterlimit:3; stroke-width:1.41732px;"/><line x1="113.09894" y1="119.98174" x2="113.09894" y2="119.98174" style="fill:none; stroke:#fbd700; stroke-linecap:round; stroke-miterlimit:3; stroke-width:1.41732px;"/><g id="text402292-9-5-9" style="isolation:isolate;"><text transform="translate(29.77003 169.69826)" style="font-family:SBBWeb-Roman, &apos;SBB Web&apos;; font-size:7px; isolation:isolate;"><tspan x="0" y="0" style="letter-spacing:-.02832em;">F</tspan><tspan x="3.82129" y="0" style="letter-spacing:-.01416em;">r</tspan><tspan x="6.05322" y="0">eie </tspan><tspan x="17.07275" y="0" style="letter-spacing:-.02686em;">F</tspan><tspan x="20.9043" y="0">ah</tspan><tspan x="28.55713" y="0" style="letter-spacing:.03125em;">r</tspan><tspan x="31.10693" y="0">t</tspan></text></g><line x1="31.04484" y1="145.01935" x2="63.32423" y2="145.01935" style="fill:none; stroke:#eb0000; stroke-linecap:square; stroke-miterlimit:3; stroke-width:1.41732px;"/><line x1="31.04484" y1="153.8626" x2="63.32423" y2="153.8626" style="fill:none; stroke:#000; stroke-linecap:square; stroke-miterlimit:3; stroke-width:1.41732px;"/><line x1="31.04551" y1="158.28423" x2="63.3249" y2="158.28423" style="fill:none; stroke:#2a6698; stroke-linecap:square; stroke-miterlimit:3; stroke-width:1.41732px;"/><line x1="31.3318" y1="149.44097" x2="63.0386" y2="149.44097" style="fill:none; stroke:#3b3b3b; stroke-linecap:square; stroke-miterlimit:3; stroke-width:1.98425px;"/><line x1="31.04484" y1="149.44097" x2="63.32423" y2="149.44097" style="fill:none; stroke:#fbd700; stroke-linecap:square; stroke-miterlimit:3; stroke-width:1.41732px;"/><text transform="translate(79.5738 169.69815)" style="font-family:SBBWeb-Roman, &apos;SBB Web&apos;; font-size:7px; isolation:isolate;"><tspan x="0" y="0" style="letter-spacing:-.02686em;">F</tspan><tspan x="3.83154" y="0">ah</tspan><tspan x="11.48438" y="0" style="letter-spacing:.03125em;">r</tspan><tspan x="14.03418" y="0">t </tspan><tspan x="18.18359" y="0" style="letter-spacing:-.01172em;">z</tspan><tspan x="21.46143" y="0">um</tspan><tspan x="0" y="8.3999">e</tspan><tspan x="3.75977" y="8.3999" style="letter-spacing:.00439em;">r</tspan><tspan x="6.12158" y="8.3999">mä</tspan><tspan x="15.85254" y="8.3999" style="letter-spacing:.00488em;">s</tspan><tspan x="19.38672" y="8.3999">s</tspan><tspan x="22.88672" y="8.3999" style="letter-spacing:-.00146em;">i</tspan><tspan x="24.43164" y="8.3999" style="letter-spacing:-.00049em;">g</tspan><tspan x="28.44775" y="8.3999" style="letter-spacing:-.02051em;">t</tspan><tspan x="30.50879" y="8.3999">en</tspan><tspan x="0" y="16.7998">P</tspan><tspan x="4.53564" y="16.7998" style="letter-spacing:-.01416em;">r</tspan><tspan x="6.76758" y="16.7998">eis</tspan></text><line x1="80.82071" y1="145.01933" x2="80.82071" y2="145.01933" style="fill:none; stroke:#eb0000; stroke-linecap:round; stroke-miterlimit:3; stroke-width:1.41732px;"/><line x1="83.7552" y1="145.01933" x2="111.63286" y2="145.01933" style="fill:none; stroke:#eb0000; stroke-dasharray:0 0 0 2.93449; stroke-linecap:round; stroke-miterlimit:3; stroke-width:1.41732px;"/><line x1="113.1001" y1="145.01933" x2="113.1001" y2="145.01933" style="fill:none; stroke:#eb0000; stroke-linecap:round; stroke-miterlimit:3; stroke-width:1.41732px;"/><line x1="80.82071" y1="153.8626" x2="80.82071" y2="153.8626" style="fill:none; stroke:#000; stroke-linecap:round; stroke-miterlimit:3; stroke-width:1.41732px;"/><line x1="83.7552" y1="153.8626" x2="111.63286" y2="153.8626" style="fill:none; stroke:#000; stroke-dasharray:0 0 0 2.93449; stroke-linecap:round; stroke-miterlimit:3; stroke-width:1.41732px;"/><line x1="113.1001" y1="153.8626" x2="113.1001" y2="153.8626" style="fill:none; stroke:#000; stroke-linecap:round; stroke-miterlimit:3; stroke-width:1.41732px;"/><line x1="80.82071" y1="158.28423" x2="80.82071" y2="158.28423" style="fill:none; stroke:#2a6698; stroke-linecap:round; stroke-miterlimit:3; stroke-width:1.41732px;"/><line x1="83.7552" y1="158.28423" x2="111.63286" y2="158.28423" style="fill:none; stroke:#2a6698; stroke-dasharray:0 0 0 2.93449; stroke-linecap:round; stroke-miterlimit:3; stroke-width:1.41732px;"/><line x1="113.1001" y1="158.28423" x2="113.1001" y2="158.28423" style="fill:none; stroke:#2a6698; stroke-linecap:round; stroke-miterlimit:3; stroke-width:1.41732px;"/><line x1="80.82071" y1="149.44097" x2="80.82071" y2="149.44097" style="fill:none; stroke:#3b3b3b; stroke-linecap:round; stroke-miterlimit:3; stroke-width:1.98425px;"/><line x1="83.7552" y1="149.44097" x2="111.63286" y2="149.44097" style="fill:none; stroke:#3b3b3b; stroke-dasharray:0 0 0 2.93449; stroke-linecap:round; stroke-miterlimit:3; stroke-width:1.98425px;"/><line x1="113.1001" y1="149.44097" x2="113.1001" y2="149.44097" style="fill:none; stroke:#3b3b3b; stroke-linecap:round; stroke-miterlimit:3; stroke-width:1.98425px;"/><line x1="80.82071" y1="149.44097" x2="80.82071" y2="149.44097" style="fill:none; stroke:#fbd700; stroke-linecap:round; stroke-miterlimit:3; stroke-width:1.41732px;"/><line x1="83.7552" y1="149.44097" x2="111.63286" y2="149.44097" style="fill:none; stroke:#fbd700; stroke-dasharray:0 0 0 2.93449; stroke-linecap:round; stroke-miterlimit:3; stroke-width:1.41732px;"/><line x1="113.1001" y1="149.44097" x2="113.1001" y2="149.44097" style="fill:none; stroke:#fbd700; stroke-linecap:round; stroke-miterlimit:3; stroke-width:1.41732px;"/><g id="text402292-9-5-9-7" style="isolation:isolate;"><text transform="translate(129.37742 169.69815)" style="font-family:SBBWeb-Roman, &apos;SBB Web&apos;; font-size:7px; isolation:isolate;"><tspan x="0" y="0" style="letter-spacing:-.02588em;">K</tspan><tspan x="4.48779" y="0">eine</tspan><tspan x="0" y="8.3999">E</tspan><tspan x="4.27588" y="8.3999" style="letter-spacing:.00439em;">r</tspan><tspan x="6.6377" y="8.3999">mä</tspan><tspan x="16.36865" y="8.3999" style="letter-spacing:.00488em;">s</tspan><tspan x="19.90283" y="8.3999">s</tspan><tspan x="23.40283" y="8.3999" style="letter-spacing:-.00146em;">i</tspan><tspan x="24.94775" y="8.3999">gu</tspan><tspan x="32.86035" y="8.3999" style="letter-spacing:-.00244em;">n</tspan><tspan x="36.73633" y="8.3999">g</tspan></text></g><line x1="130.45112" y1="158.28423" x2="162.73051" y2="158.28423" style="fill:none; stroke:#999; stroke-linecap:square; stroke-miterlimit:3; stroke-width:1.41732px;"/><g id="state-publisher"><g id="text2350" style="isolation:isolate;"><text transform="translate(58.60544 101.51711)" style="font-family:SBBWeb-Roman, &apos;SBB Web&apos;; font-size:7px; isolation:isolate;"><tspan x="0" y="0">***published</tspan><tspan x="37.99756" y="0" style="letter-spacing:-.01758em;">A</tspan><tspan x="42.41016" y="0" style="letter-spacing:.00293em;">t</tspan><tspan x="44.63525" y="0">***</tspan></text></g><g id="text2347" style="isolation:isolate;"><text transform="translate(29.76999 101.51711)" style="font-family:SBBWeb-Roman, &apos;SBB Web&apos;; font-size:7px; isolation:isolate;"><tspan x="0" y="0">Stand:</tspan></text></g></g></g></g></svg>