<svg xmlns="http://www.w3.org/2000/svg" width="1588" height="1122.667" viewBox="0 0 420.158 297.039"><path d="M2312.349 1040.636h21.911v485.416h-21.911z" style="fill:#fffffd;stroke-width:.90803" transform="matrix(.26458 0 0 .26458 -198.83 -108.968)"/><text x="-1522.568" y="2326.415" style="font-size:12.007px;font-family:ArialMT,Arial;isolation:isolate" transform="matrix(0 -.26458 .26458 0 -198.83 -108.968)"><tspan xml:space="preserve" x="-1522.568" y="2326.415">Quelle: OpenStreetMap contributors  © SBB/CFF/FFS www.traﬁmage.ch www.geops.ch</tspan></text><path d="M-894.815 155.584h164.841v103.518h-164.841z" style="fill:#fff;fill-opacity:1;stroke:none;stroke-width:13.3379;stroke-miterlimit:4;stroke-dasharray:13.3379,13.3379;stroke-dashoffset:0;stroke-opacity:1" transform="matrix(.26458 0 0 .26458 240.822 20.657)"/><path d="M-112.733 47.281H20.186v17.737h-132.919z" style="fill:#fff;fill-opacity:1;stroke:none;stroke-width:4.95768;stroke-miterlimit:4;stroke-dasharray:4.95768,4.95768;stroke-dashoffset:0;stroke-opacity:1" transform="matrix(.26458 0 0 .26458 34.881 49.897)"/><text xml:space="preserve" x="-39.937" y="62.15" style="font-style:normal;font-weight:400;font-size:16px;line-height:1.25;font-family:sans-serif;fill:#000;fill-opacity:1;stroke:none;stroke-width:.264583" transform="matrix(.26458 0 0 .26458 34.881 49.897)"><tspan x="-39.937" y="62.15" style="font-size:16px;stroke-width:.264583">Bahnen</tspan></text><path d="M-112.279 47.736h55.794v4.623h-55.794z" style="fill:#eb0000;fill-opacity:1;stroke:#eb0000;stroke-width:.755906;stroke-miterlimit:4;stroke-dasharray:none;stroke-dashoffset:0;stroke-opacity:1" transform="matrix(.26458 0 0 .26458 34.881 49.897)"/><path d="M-112.62 61.231h55.996" style="fill:none;stroke:#eb0000;stroke-width:5.29134;stroke-linecap:butt;stroke-linejoin:miter;stroke-miterlimit:4;stroke-dasharray:5.29134,5.29134;stroke-dashoffset:0;stroke-opacity:1" transform="matrix(.26458 0 0 .26458 34.881 49.897)"/><path d="M-112.733 47.281H43.173v17.737h-155.906z" style="fill:#fff;fill-opacity:1;stroke:none;stroke-width:5.36928;stroke-miterlimit:4;stroke-dasharray:5.36928,5.36928;stroke-dashoffset:0;stroke-opacity:1" transform="matrix(.26458 0 0 .26458 34.881 57.235)"/><text xml:space="preserve" x="-39.135" y="62.15" style="font-style:normal;font-weight:400;font-size:16px;line-height:1.25;font-family:sans-serif;fill:#000;fill-opacity:1;stroke:none;stroke-width:.264583" transform="matrix(.26458 0 0 .26458 34.881 57.235)"><tspan x="-39.135" y="62.15" style="font-size:16px;stroke-width:.264583">Autobusse</tspan></text><g style="fill:#fff200;fill-opacity:1;stroke:#000;stroke-width:.566707;stroke-miterlimit:4;stroke-dasharray:.566707,.566707;stroke-dashoffset:0;stroke-opacity:1"><path d="M-112.279 47.736h55.794v4.622h-55.794z" style="color:#000;fill:#fff200;fill-opacity:1;stroke:#4a4a4a;stroke-width:.562954;stroke-miterlimit:4;stroke-dasharray:none;stroke-dashoffset:0;stroke-opacity:.996067" transform="matrix(.26455 0 0 .27476 34.832 56.707)"/></g><path d="M-112.462 58.604v4.836h5.293v-4.836zm10.588 0v4.836h5.294v-4.836zm10.587 0v4.836h5.293v-4.836zm10.587 0v4.836h5.293v-4.836zm10.588 0v4.836h5.294v-4.836zm10.587 0v4.836h3.086v-4.836z" style="color:#000;fill:#fff200;fill-opacity:1;stroke:#4a4a4a;stroke-width:.542117;stroke-miterlimit:4;stroke-dasharray:none;stroke-dashoffset:0;stroke-opacity:1" transform="matrix(.26458 0 0 .26458 34.881 57.235)"/><path d="M-112.733 47.281H44.659v17.737h-157.392z" style="fill:#fff;fill-opacity:1;stroke:none;stroke-width:5.39481;stroke-miterlimit:4;stroke-dasharray:5.39481,5.39481;stroke-dashoffset:0;stroke-opacity:1" transform="matrix(.26458 0 0 .26458 34.881 64.574)"/><text xml:space="preserve" x="-40.973" y="62.15" style="font-style:normal;font-weight:400;font-size:16px;line-height:1.25;font-family:sans-serif;fill:#000;fill-opacity:1;stroke:none;stroke-width:.264583" transform="matrix(.26458 0 0 .26458 34.881 64.574)"><tspan x="-40.973" y="62.15" style="font-size:16px;stroke-width:.264583">Seilbahnen</tspan></text><path d="M-112.279 47.736h55.794v4.623h-55.794z" style="fill:#000;fill-opacity:1;stroke:#000;stroke-width:.755906;stroke-miterlimit:4;stroke-dasharray:none;stroke-dashoffset:0;stroke-opacity:1" transform="matrix(.26458 0 0 .26458 34.881 64.574)"/><path d="M-112.62 61.231h55.996" style="fill:none;stroke:#000;stroke-width:5.29134;stroke-linecap:butt;stroke-linejoin:miter;stroke-miterlimit:4;stroke-dasharray:5.29134,5.29134;stroke-dashoffset:0;stroke-opacity:1" transform="matrix(.26458 0 0 .26458 34.881 64.574)"/><path d="M-112.733 47.281H10.67v17.737h-123.403z" style="fill:#fff;fill-opacity:1;stroke:none;stroke-width:4.77691;stroke-miterlimit:4;stroke-dasharray:4.77691,4.77691;stroke-dashoffset:0;stroke-opacity:1" transform="matrix(.26458 0 0 .26458 34.881 71.384)"/><text xml:space="preserve" x="-40.973" y="62.813" style="font-style:normal;font-weight:400;font-size:16px;line-height:1.25;font-family:sans-serif;fill:#000;fill-opacity:1;stroke:none;stroke-width:.264583" transform="matrix(.26458 0 0 .26458 34.881 71.384)"><tspan x="-40.973" y="62.813" style="font-size:16px;stroke-width:.264583">Schiffe</tspan></text><path d="M-112.279 47.736h55.794v4.623h-55.794z" style="fill:#2a6698;fill-opacity:1;stroke:#2a6698;stroke-width:.755906;stroke-miterlimit:4;stroke-dasharray:none;stroke-dashoffset:0;stroke-opacity:1" transform="matrix(.26458 0 0 .26458 34.881 71.384)"/><path d="M-112.62 61.231h55.996" style="fill:none;stroke:#2a6698;stroke-width:5.29134;stroke-linecap:butt;stroke-linejoin:miter;stroke-miterlimit:4;stroke-dasharray:5.29134,5.29134;stroke-dashoffset:0;stroke-opacity:1" transform="matrix(.26458 0 0 .26458 34.881 71.384)"/><g style="stroke:none"><path d="M-899.489 986.148H485.785v44.023H-899.489z" style="fill:#fff;fill-opacity:1;stroke:none;stroke-width:.593019;stroke-miterlimit:4;stroke-dasharray:none;stroke-dashoffset:0;stroke-opacity:1" transform="matrix(.26458 0 0 .26458 240.822 21.716)"/><text xml:space="preserve" x="-888.528" y="1002.331" style="font-style:italic;font-variant:normal;font-weight:400;font-stretch:normal;font-size:16px;line-height:1.25;font-family:sans-serif;-inkscape-font-specification:&quot;sans-serif, Italic&quot;;font-variant-ligatures:normal;font-variant-caps:normal;font-variant-numeric:normal;font-variant-east-asian:normal;fill:#000;fill-opacity:1;stroke:none" transform="matrix(.26458 0 0 .26458 240.822 21.716)"><tspan x="-888.528" y="1002.331">Auf gewissen Autobuslinien ist ein Zuschlag und/oder eine Platzreservierung erforderlich. Bitte beachten Sie zudem, dass vom 21. März bis zum 31. Oktober für Velos in InterCity (IC)-Zügen eine</tspan><tspan x="-888.528" y="1022.331">Veloplatzreservation obligatorisch ist. Bitte beachten Sie die Hinweise für die gewünschte Verbindung im (Online-)Fahrplan.</tspan></text></g><path d="M-899.438 272.257h164.841v156.599h-164.841z" style="fill:#fff;fill-opacity:1;stroke:none;stroke-width:16.405;stroke-miterlimit:4;stroke-dasharray:16.405,16.405;stroke-dashoffset:0;stroke-opacity:1" transform="matrix(.26458 0 0 .26458 240.805 24.73)"/><path d="M-891.091 300.798h156.397v25.757h-156.397z" style="fill:#fff;fill-opacity:1;stroke:none;stroke-width:6.48054;stroke-miterlimit:4;stroke-dasharray:6.48054,6.48054;stroke-dashoffset:0;stroke-opacity:1" transform="matrix(.26458 0 0 .26458 240.83 43.395)"/><path d="M-890.809 311.175h55.794v4.623h-55.794z" style="fill:#b4b4b4;fill-opacity:1;stroke:#b4b4b4;stroke-width:.755906;stroke-miterlimit:4;stroke-dasharray:none;stroke-dashoffset:0;stroke-opacity:1" transform="matrix(.26458 0 0 .26458 240.83 43.395)"/><text xml:space="preserve" x="-819.907" y="318.406" style="font-style:normal;font-weight:400;font-size:16px;line-height:1.25;font-family:sans-serif;fill:#000;fill-opacity:1;stroke:none;stroke-width:.264583" transform="matrix(.26458 0 0 .26458 240.83 43.395)"><tspan x="-819.907" y="318.406" style="font-size:16px;stroke-width:.264583">Freie Fahrt</tspan></text><path d="M-899.583 296.798h288.829v25.757h-288.829z" style="fill:#fff;fill-opacity:1;stroke:none;stroke-width:8.80678;stroke-miterlimit:4;stroke-dasharray:8.80678,8.80678;stroke-dashoffset:0;stroke-opacity:1" transform="matrix(.26458 0 0 .26458 240.844 52.855)"/><text xml:space="preserve" x="-819.907" y="314.406" style="font-style:normal;font-weight:400;font-size:16px;line-height:1.25;font-family:sans-serif;fill:#000;fill-opacity:1;stroke:none;stroke-width:.264583" transform="matrix(.26458 0 0 .26458 240.844 52.855)"><tspan x="-819.907" y="314.406" style="font-size:16px;stroke-width:.264583">Gültigkeit vor Ort anfragen</tspan></text><path d="M-890.959 311.064h55.997" style="fill:none;stroke:#b4b4b4;stroke-width:5.29134;stroke-linecap:butt;stroke-linejoin:miter;stroke-miterlimit:4;stroke-dasharray:5.29134,5.29134;stroke-dashoffset:0;stroke-opacity:1" transform="matrix(.26458 0 0 .26458 240.844 52.855)"/><path d="M-112.334 187.343h212.865v40.768h-212.865z" style="fill:#fff;fill-opacity:1;stroke:none;stroke-width:9.51171;stroke-miterlimit:4;stroke-dasharray:9.51171,9.51171;stroke-dashoffset:0;stroke-opacity:1" transform="matrix(.26458 0 0 .26458 34.76 59.57)"/><path d="M-112.334 221.664h55.997" style="fill:none;stroke:#eb0000;stroke-width:5.29134;stroke-linecap:butt;stroke-linejoin:miter;stroke-miterlimit:4;stroke-dasharray:5.29134,5.29134;stroke-dashoffset:0;stroke-opacity:1" transform="matrix(.26458 0 0 .26458 34.76 59.57)"/><path d="M-112.064 200.62v4.838h5.24v-4.839zm10.482 0v4.838h5.24v-4.839zm10.48 0v4.838h5.24v-4.839zm10.481 0v4.838h5.24v-4.839zm10.482 0v4.838h5.24v-4.839zm10.48 0v4.838h3.055v-4.839z" style="color:#000;fill:#fff200;fill-opacity:1;stroke:#4a4a4a;stroke-width:.539532;stroke-miterlimit:4;stroke-dasharray:none;stroke-dashoffset:0;stroke-opacity:1" transform="matrix(.26458 0 0 .26458 34.76 59.57)"/><path d="M-112.334 212.373h55.997" style="fill:none;stroke:#000;stroke-width:5.29134;stroke-linecap:butt;stroke-linejoin:miter;stroke-miterlimit:4;stroke-dasharray:5.29134,5.29134;stroke-dashoffset:0;stroke-opacity:1" transform="matrix(.26458 0 0 .26458 34.76 59.57)"/><path d="M-112.334 193.704h55.997" style="fill:none;stroke:#2a6698;stroke-width:5.29134;stroke-linecap:butt;stroke-linejoin:miter;stroke-miterlimit:4;stroke-dasharray:5.29134,5.29134;stroke-dashoffset:0;stroke-opacity:1" transform="matrix(.26458 0 0 .26458 34.76 59.57)"/><text xml:space="preserve" x="-41.15" y="203.045" style="font-style:normal;font-variant:normal;font-weight:400;font-stretch:normal;font-size:16px;line-height:1.25;font-family:sans-serif;-inkscape-font-specification:&quot;sans-serif, Normal&quot;;font-variant-ligatures:normal;font-variant-caps:normal;font-variant-numeric:normal;font-variant-east-asian:normal;fill:#000;fill-opacity:1;stroke:none;stroke-width:.264583" transform="matrix(.26458 0 0 .26458 34.76 59.57)"><tspan x="-41.15" y="203.045">Fahrt zum</tspan><tspan x="-41.15" y="223.045">ermässigten Preis</tspan></text><path d="M-891.091 293.249h156.397v40.768h-156.397z" style="fill:#fff;fill-opacity:1;stroke:none;stroke-width:8.15307;stroke-miterlimit:4;stroke-dasharray:8.15307,8.15307;stroke-dashoffset:0;stroke-opacity:1" transform="matrix(.26458 0 0 .26458 240.83 19.176)"/><path d="M-890.809 324.553h55.794v4.623h-55.794z" style="fill:#2a6698;fill-opacity:1;stroke:#2a6698;stroke-width:.755906;stroke-miterlimit:4;stroke-dasharray:none;stroke-dashoffset:0;stroke-opacity:1" transform="matrix(.26458 0 0 .26458 240.83 19.176)"/><path d="M-890.809 315.175h55.794v4.623h-55.794z" style="fill:#000;fill-opacity:1;stroke:#000;stroke-width:.755906;stroke-miterlimit:4;stroke-dasharray:none;stroke-dashoffset:0;stroke-opacity:1" transform="matrix(.26458 0 0 .26458 240.83 19.176)"/><path d="M-890.81 305.835h55.795v4.623h-55.794z" style="color:#000;fill:#fff200;fill-opacity:1;stroke:#4a4a4a;stroke-width:.562954;stroke-miterlimit:4;stroke-dasharray:none;stroke-dashoffset:0;stroke-opacity:.996067" transform="matrix(.26458 0 0 .26458 240.83 19.176)"/><path d="M-890.713 297.117h55.794v4.623h-55.794z" style="fill:#eb0000;fill-opacity:1;stroke:#eb0000;stroke-width:.755906;stroke-miterlimit:4;stroke-dasharray:none;stroke-dashoffset:0;stroke-opacity:1" transform="matrix(.26458 0 0 .26458 240.83 19.176)"/><text xml:space="preserve" x="-819.907" y="318.406" style="font-style:normal;font-weight:400;font-size:16px;line-height:1.25;font-family:sans-serif;fill:#000;fill-opacity:1;stroke:none;stroke-width:.264583" transform="matrix(.26458 0 0 .26458 240.83 19.176)"><tspan x="-819.907" y="318.406" style="font-size:16px;stroke-width:.264583">Freie Fahrt</tspan></text><g data-name="Gruppe 15" style="opacity:.99"><path d="M52.265 787.08H293.78v24.215H52.265z" style="fill:#fff;stroke-width:1.17479;stroke-opacity:.25" transform="matrix(.26458 0 0 .26458 -9.76 -155.479)"/><path d="M59.414 790.743h63.638" data-name="Linie 1" style="fill:none;stroke:#000;stroke-width:.9906px;stroke-miterlimit:5.24497" transform="matrix(.26458 0 0 .26458 -9.76 -155.479)"/><path d="M127.404 790.743h62.94" data-name="Linie 2" style="fill:none;stroke:#000;stroke-width:.9906px;stroke-miterlimit:5.24497" transform="matrix(.26458 0 0 .26458 -9.76 -155.479)"/><path d="M195.239 790.743h63.059" data-name="Linie 3" style="fill:none;stroke:#000;stroke-width:.9906px;stroke-miterlimit:5.24497" transform="matrix(.26458 0 0 .26458 -9.76 -155.479)"/><text data-name="0" style="font-size:15.7349px;font-family:ArialMT,Arial;isolation:isolate" transform="matrix(.26458 0 0 .26458 4.842 58.87)"><tspan x="0" y="0">0</tspan></text><text data-name="10" style="font-size:15.7349px;font-family:ArialMT,Arial;letter-spacing:-.04999em;isolation:isolate" transform="matrix(.26458 0 0 .26458 21.34 58.87)"><tspan x="0" y="0">10</tspan></text><text data-name="20" style="font-size:15.7349px;font-family:ArialMT,Arial;isolation:isolate" transform="matrix(.26458 0 0 .26458 38.666 58.87)"><tspan x="0" y="0">20</tspan></text><text data-name="30 km" style="font-size:15.7349px;font-family:ArialMT,Arial;isolation:isolate" transform="matrix(.26458 0 0 .26458 55.913 58.87)"><tspan x="0" y="0">30 km</tspan></text></g><path d="M51.113 228.638h273.382v45.418H51.113z" style="fill:#fff;stroke-width:1.05088;stroke-opacity:.25" transform="matrix(.26458 0 0 .26458 -9.455 -21.858)"/><text x="53.982" y="265.78" style="font-size:16px;font-family:ArialMT,Arial;isolation:isolate" transform="matrix(.26458 0 0 .26458 -9.455 -21.858)"><tspan x="53.982" y="265.78" style="font-size:16px">***publishedAt***</tspan></text><text x="53.982" y="245.605" style="font-size:16px;font-family:ArialMT,Arial;isolation:isolate" transform="matrix(.26458 0 0 .26458 -9.455 -21.858)"><tspan x="53.982" y="245.605" style="font-size:16px">Stand</tspan></text><text x="203.572" y="265.78" style="font-size:16px;font-family:ArialMT,Arial;isolation:isolate" transform="matrix(.26458 0 0 .26458 -9.455 -21.858)"><tspan x="203.572" y="265.78" style="font-size:16px">***publisher***</tspan></text><text x="203.995" y="245.413" style="font-size:16px;font-family:ArialMT,Arial;isolation:isolate" transform="matrix(.26458 0 0 .26458 -9.455 -21.858)"><tspan x="203.995" y="245.413" style="font-size:16px">Verantwortlich</tspan></text><path d="M2070.967 51.642h256.143v27.545h-256.143z" style="fill:#fff;stroke-width:1.06205;stroke-opacity:.25" transform="matrix(.26458 0 0 .26458 -199.277 -10.774)"/><path d="M2070.967 78.905h80.936v-26.98h-80.936z" style="fill:#e42328" transform="matrix(.26458 0 0 .26458 -199.277 -10.774)"/><path d="M2118.609 63.35h8.75v-6.928h4.123v6.928h8.75l-7.04-6.928h5.224l8.993 8.993-8.993 8.993h-5.228l7.04-6.928h-8.746v6.928h-4.123V67.48h-8.75l7.04 6.928h-5.222l-8.992-8.992 8.992-8.993h5.222" style="fill:#fff" transform="matrix(.26458 0 0 .26458 -199.277 -10.774)"/><path d="M2160.255 69.036c-.052 4.656 3.861 6.719 8.039 6.719 5.131 0 7.856-2.59 7.856-6.057 0-4.282-4.231-5.155-5.608-5.496-4.734-1.219-5.631-1.404-5.631-2.857 0-1.587 1.532-2.141 2.857-2.141 1.984 0 3.597.58 3.728 2.857h4.02c0-4.364-3.623-6.081-7.563-6.081-3.411 0-7.06 1.85-7.06 5.713 0 3.544 2.828 4.629 5.633 5.367 2.777.74 5.605 1.085 5.605 3.12 0 1.931-2.222 2.354-3.676 2.354-2.222 0-4.177-.98-4.177-3.492" style="fill:#221e20" transform="matrix(.26458 0 0 .26458 -199.277 -10.774)"/><path d="M2182.863 59.65h3.887c1.48 0 2.857.37 2.857 2.168 0 1.587-1.085 2.248-2.539 2.248h-4.205zm-4.152 15.655h9.15c3.41 0 6.665-1.639 6.665-5.474 0-2.353-1.165-4.125-3.466-4.787a4.14 4.14 0 0 0 2.568-3.941c0-3.517-2.434-4.68-6.031-4.68h-8.885zm4.152-8.41h4.52c1.771 0 2.988.769 2.988 2.698 0 1.956-1.428 2.486-3.067 2.486h-4.441M2201.446 59.65h3.887c1.48 0 2.857.37 2.857 2.168 0 1.587-1.085 2.248-2.539 2.248h-4.205zm-4.152 15.655h9.15c3.41 0 6.663-1.639 6.663-5.474 0-2.353-1.163-4.125-3.464-4.787a4.141 4.141 0 0 0 2.564-3.941c0-3.517-2.431-4.68-6.028-4.68h-8.885zm4.154-8.41h4.52c1.772 0 2.989.769 2.989 2.698 0 1.956-1.428 2.486-3.067 2.486h-4.441" style="fill:#221e20;fill-rule:evenodd" transform="matrix(.26458 0 0 .26458 -199.277 -10.774)"/><path d="M2239.48 62.77c-.502-4.364-3.992-6.795-8.144-6.795-5.845 0-9.281 4.363-9.281 9.968 0 5.448 3.435 9.812 9.281 9.812 4.629 0 7.88-3.015 8.303-7.723h-4.021c-.317 2.486-1.744 4.23-4.282 4.23-3.729 0-5.132-3.173-5.132-6.32 0-3.305 1.404-6.479 5.132-6.479 2.06 0 3.861 1.428 4.125 3.305M2242.195 75.305h4.151v-7.801h7.909v-3.226h-7.909v-4.363h9.124v-3.49h-13.275M2257.994 75.305h4.14v-7.801h7.898v-3.226h-7.901v-4.363h9.113v-3.49h-13.25M2280.237 75.305h4.162v-7.801h7.898v-3.226h-7.898v-4.363h9.112v-3.49h-13.274M2296.534 75.305h4.14v-7.801h7.898v-3.226h-7.898v-4.363h9.135v-3.49h-13.275M2311.331 69.036c-.047 4.656 3.854 6.719 8.042 6.719 5.138 0 7.85-2.59 7.85-6.057 0-4.282-4.235-5.155-5.59-5.496-4.734-1.219-5.639-1.404-5.639-2.857 0-1.587 1.523-2.141 2.857-2.141 1.974 0 3.593.58 3.735 2.857h3.997c0-4.364-3.616-6.081-7.542-6.081-3.426 0-7.066 1.85-7.066 5.713 0 3.544 2.831 4.629 5.639 5.367 2.76.74 5.59 1.085 5.59 3.12 0 1.931-2.212 2.354-3.663 2.354-2.237 0-4.187-.98-4.187-3.492" style="fill:#221e20" transform="matrix(.26458 0 0 .26458 -199.277 -10.774)"/><path d="M37.958 99.968h661.918v32.717H37.958z" style="opacity:1;fill:#fff;stroke-width:.475927;stroke-opacity:.25" transform="matrix(.26458 0 0 .26458 -5.974 -7.737)"/><path d="M37.958 132.685H509.97v28.582H37.958z" style="fill:#fff;stroke-width:.375639;stroke-opacity:.25" transform="matrix(.26458 0 0 .26458 -5.974 -7.737)"/><path d="M37.958 71.547h585.303v28.421H37.958z" style="fill:#fff;stroke-width:.417122;stroke-opacity:.25" transform="matrix(.26458 0 0 .26458 -5.974 -7.737)"/><path d="M37.993 43.335h490.364v28.421H37.993z" style="fill:#fff;stroke-width:.381796;stroke-opacity:.25" transform="matrix(.26458 0 0 .26458 -5.974 -7.737)"/><text xml:space="preserve" x="37.958" y="63.968" style="font-style:normal;font-variant:normal;font-weight:400;font-stretch:normal;font-size:24px;line-height:1.25;font-family:sans-serif;-inkscape-font-specification:&quot;sans-serif, Normal&quot;;font-variant-ligatures:normal;font-variant-caps:normal;font-variant-numeric:normal;font-variant-east-asian:normal;fill:#000;fill-opacity:1;stroke:none" transform="matrix(.26458 0 0 .26458 -5.085 -7.854)"><tspan x="37.958" y="63.968" style="font-style:normal;font-variant:normal;font-weight:700;font-stretch:normal;font-family:sans-serif;-inkscape-font-specification:&quot;sans-serif Bold&quot;">General-Abo, GA Night, GA-Monatskarte, </tspan><tspan x="37.958" y="93.968" style="font-style:normal;font-variant:normal;font-weight:700;font-stretch:normal;font-family:sans-serif;-inkscape-font-specification:&quot;sans-serif Bold&quot;">Ausflugs-Abo, Tageskarte zum Halbtax sowie für </tspan><tspan x="37.958" y="123.968" style="font-style:normal;font-variant:normal;font-weight:700;font-stretch:normal;font-family:sans-serif;-inkscape-font-specification:&quot;sans-serif Bold&quot;">Spartageskarte / Aktionstageskarte / (Spar-)Tageskarte</tspan><tspan x="37.958" y="153.968" style="font-style:normal;font-variant:normal;font-weight:700;font-stretch:normal;font-family:sans-serif;-inkscape-font-specification:&quot;sans-serif Bold&quot;">Gemeinde zusammen mit Halbtax-Abo</tspan></text></svg>