<svg xmlns="http://www.w3.org/2000/svg" width="24" height="24" fill="none" viewBox="0 0 24 24"><path fill="#000" fill-rule="evenodd" d="M13.0039 5.01677V3.00024H12.0039V5.01626C8.2488 5.25954 5.26145 8.24568 5.01627 12.0002H3V13.0002H5.01628C5.26151 16.7539 8.24881 19.7409 12.0039 19.9842V21.9998H13.0039V19.9837C16.7568 19.7366 19.741 16.749 19.984 12.9958H21.9989V11.9958H19.9834C19.7364 8.24595 16.7539 5.26359 13.0039 5.01677ZM6 12.5002C6 8.89939 8.89914 6.00024 12.5 6.00024C16.1009 6.00024 19 8.89939 19 12.5002C19 16.1001 16.1008 19.0002 12.5 19.0002C8.89919 19.0002 6 16.1001 6 12.5002ZM9 12.5002C9 10.5674 10.5671 9.00024 12.5 9.00024C14.4329 9.00024 16 10.5674 16 12.5002C16 14.4322 14.4328 16.0002 12.5 16.0002C10.5672 16.0002 9 14.4322 9 12.5002ZM12.5 8.00024C10.0149 8.00024 8 10.0151 8 12.5002C8 14.9843 10.0148 17.0002 12.5 17.0002C14.9852 17.0002 17 14.9843 17 12.5002C17 10.0151 14.9851 8.00024 12.5 8.00024Z" clip-rule="evenodd"/></svg>