<svg width="48" height="48" viewBox="0 0 48 48" fill="none" xmlns="http://www.w3.org/2000/svg">
<path fill-rule="evenodd" clip-rule="evenodd" d="M25 8.00737V3H24V8.00737C15.2618 8.26528 8.26528 15.2618 8.00737 24H3V25H8.00737C8.26528 33.7382 15.2618 40.7347 24 40.9926V46H25V40.9926C33.7382 40.7347 40.7347 33.7382 40.9926 25H45.999V24H40.9926C40.7347 15.2618 33.7382 8.26528 25 8.00737ZM9 24.5C9 15.9151 15.9151 9 24.5 9C33.0849 9 40 15.9151 40 24.5C40 33.0849 33.0849 40 24.5 40C15.9151 40 9 33.0849 9 24.5ZM16 24.5C16 19.7921 19.7921 16 24.5 16C29.2079 16 33 19.7921 33 24.5C33 29.2079 29.2079 33 24.5 33C19.7921 33 16 29.2079 16 24.5ZM24.5 15C19.2399 15 15 19.2399 15 24.5C15 29.7601 19.2399 34 24.5 34C29.7601 34 34 29.7601 34 24.5C34 19.2399 29.7601 15 24.5 15Z" fill="black"/>
</svg>
