<svg xmlns="http://www.w3.org/2000/svg" width="48" height="48" viewBox="0 0 48 48">
  <path fill="none" stroke="#000" stroke-width="2" d="M22.999,25 L22.997,13.002 C22.997,11.896 23.893,11 24.999,11 C26.105,11 27.001,11.896 27.001,13.002 L26.999,26.002 M31,25.003 C31,23.897 31.896,23.001 33.002,23.001 C34.11,23.001 35.006,23.897 35.006,25.003 C35.006,25.003 35,26.125 35,32.001 C35,37.875 33.2,41.001 33.2,41.001 L19,41.001 C19,41.001 12.21,29.483 11.586,28.419 C10.962,27.355 10.804,26.369 11.586,25.587 C12.37,24.805 13.636,24.805 14.418,25.587 L18.998,30.169 L19,30.169 L19,25.001 L18.996,15.003 C18.996,13.897 19.894,13.001 21,13.001 C22.106,13.001 23.002,13.897 23.002,15.003 L23,26.015 M26.9942,22.997 C26.9942,21.891 27.8902,20.995 28.9962,20.995 C30.1042,20.995 31.0002,21.891 31.0002,22.997 L31.0002,26.001 M30,16.3046 C30.632,15.3606 31,14.2246 31,13.0006 C31,9.6846 28.314,7.0006 25,7.0006 C23.208,7.0006 21.616,7.8026 20.518,9.0486 C17.432,9.2986 15,11.8506 15,15.0006 C15,16.2166 15.368,17.3426 15.988,18.2866"/>
</svg>
