<svg xmlns="http://www.w3.org/2000/svg" id="a4" width="297mm" height="210mm" version="1.1" viewBox="0 0 841.89 595.276"><path id="rect2" d="M0 0h841.89v595.276H0z" style="fill:none;stroke-width:0"/><g id="rand" transform="translate(-1.5)"><path id="rect1034" d="M73.058 551h547.88c.91 0 1.646.816 1.646 1.823v22.881c0 1.007-.737 1.823-1.646 1.823H73.058Z" style="fill:#fff;stroke-width:0"/><text xml:space="preserve" id="text20852" x="76.944" y="558.357" style="font-style:normal;font-variant:normal;font-weight:400;font-stretch:normal;font-size:5px;line-height:1;font-family:SBBWeb-Roman,&quot;SBB Web&quot;,Arial,&quot;SBB Web&quot;;-inkscape-font-specification:&quot;SBBWeb-Roman, SBB Web, Arial, SBB Web, Normal&quot;;font-variant-ligatures:normal;font-variant-caps:normal;font-variant-numeric:normal;font-variant-east-asian:normal"><tspan id="tspan78491" x="76.944" y="558.357">Per determinate linee di autobus è necessario acquistare un supplemento e/o una prenotazione del posto. Attenzione: dal 21 marzo al 31 ottobre, nei treni InterCity (IC) è inoltre obbligatoria la prenotazione del posto per le biciclette. Le indicazioni</tspan><tspan id="tspan78493" x="76.944" y="563.357">per il collegamento desiderato sono riportarte nell’orario (online). Per mancanza di spazio, a seconda del livello di zoom, non vi figurano tutte le linee. Tutte le informazioni non sono garantite. Salvo modifiche. Si applica il campi d&apos;applicazione.</tspan></text><text id="text493" x="76.722" y="572.645" style="font-style:normal;font-variant:normal;font-weight:400;font-stretch:normal;font-size:5px;font-family:SBBWeb-Roman,&quot;SBB Web&quot;,Arial,&quot;SBB Web&quot;;-inkscape-font-specification:&quot;SBBWeb-Roman, SBB Web, Arial, SBB Web, Normal&quot;;font-variant-ligatures:normal;font-variant-caps:normal;font-variant-numeric:normal;font-variant-east-asian:normal;isolation:isolate"><tspan id="tspan86419" x="76.722" y="572.645">Fonte: OpenStreetMap contributors © SBB/CFF/FFS www.traﬁmage.ch www.geops.ch</tspan></text></g><g id="qr-code"><path id="rect23865" d="M17.008 527.244h51.024v51.024H17.008Z" style="fill:#fff;stroke-width:0"/><path id="path7664" d="M18.467 528.702h1.458v1.458h-1.458zm1.458 0h1.458v1.458h-1.458zm1.458 0h1.457v1.458h-1.457zm1.457 0h1.458v1.458H22.84Zm1.458 0h1.459v1.458h-1.46zm1.458 0h1.458v1.458h-1.458zm1.458 0h1.458v1.458h-1.458zm4.373 0h1.458v1.458h-1.458zm1.458 0h1.458v1.458h-1.458zm1.458 0h1.457v1.458h-1.457zm2.915 0h1.458v1.458h-1.458zm4.374 0h1.457v1.458h-1.457zm1.457 0h1.458v1.458h-1.458zm1.458 0h1.458v1.458h-1.458zm1.458 0h1.458v1.458h-1.458zm1.458 0h1.458v1.458h-1.458zm1.458 0h1.457v1.458h-1.457zm2.915 0h1.458v1.458h-1.458zm4.373 0h1.458v1.458h-1.458zm1.458 0h1.458v1.458h-1.458zm1.458 0h1.458v1.458h-1.458zm1.458 0h1.458v1.458h-1.458zm1.458 0h1.456v1.458H62.2Zm1.457 0h1.458v1.458h-1.458zm1.458 0h1.458v1.458h-1.458zm-46.649 1.458h1.458v1.458h-1.458zm8.747 0h1.458v1.458h-1.458zm2.915 0h1.458v1.458h-1.458zm1.458 0h1.458v1.458h-1.458zm1.458 0h1.458v1.458h-1.458zm2.915 0h1.458v1.458H35.96Zm4.374 0h1.458v1.458h-1.458zm1.458 0h1.457v1.458h-1.457zm1.457 0h1.458v1.458h-1.458zm5.832 0h1.457v1.458h-1.457zm1.457 0h1.458v1.458h-1.458zm5.831 0h1.458v1.458h-1.458zm8.747 0h1.458v1.458h-1.458zm-46.649 1.458h1.458v1.457h-1.458zm2.916 0h1.457v1.457h-1.457zm1.457 0h1.458v1.457H22.84Zm1.458 0h1.459v1.457h-1.46zm2.916 0h1.458v1.457h-1.458zm4.373 0h1.458v1.457h-1.458zm4.373 0h1.458v1.457H35.96Zm2.916 0h1.458v1.457h-1.458zm2.916 0h1.457v1.457h-1.457zm4.373 0h1.458v1.457h-1.458zm2.916 0h1.457v1.457h-1.457zm1.457 0h1.458v1.457h-1.458zm2.916 0h1.458v1.457h-1.458zm2.915 0h1.458v1.457h-1.458zm2.916 0h1.458v1.457h-1.458zm1.458 0h1.458v1.457h-1.458zm1.458 0h1.456v1.457H62.2Zm2.915 0h1.458v1.457h-1.458zm-46.649 1.457h1.458v1.458h-1.458zm2.916 0h1.457v1.458h-1.457zm1.457 0h1.458v1.458H22.84Zm1.458 0h1.459v1.458h-1.46zm2.916 0h1.458v1.458h-1.458zm2.915 0h1.458v1.458h-1.458zm2.916 0h1.458v1.458h-1.458zm1.458 0h1.457v1.458h-1.457zm1.457 0h1.458v1.458H35.96Zm1.458 0h1.458v1.458h-1.458zm1.458 0h1.458v1.458h-1.458zm1.458 0h1.458v1.458h-1.458zm2.915 0h1.458v1.458h-1.458zm7.29 0h1.457v1.458h-1.458zm1.457 0h1.458v1.458h-1.458zm1.458 0h1.458v1.458h-1.458zm2.915 0h1.458v1.458h-1.458zm2.916 0h1.458v1.458h-1.458zm1.458 0h1.458v1.458h-1.458zm1.458 0h1.456v1.458H62.2Zm2.915 0h1.458v1.458h-1.458zm-46.649 1.458h1.458v1.458h-1.458zm2.916 0h1.457v1.458h-1.457zm1.457 0h1.458v1.458H22.84Zm1.458 0h1.459v1.458h-1.46zm2.916 0h1.458v1.458h-1.458zm7.289 0h1.457v1.458h-1.457zm2.915 0h1.458v1.458h-1.458zm4.374 0h1.457v1.458h-1.457zm1.457 0h1.458v1.458h-1.458zm1.458 0h1.458v1.458h-1.458zm1.458 0h1.458v1.458h-1.458zm1.458 0h1.458v1.458h-1.458zm1.458 0h1.457v1.458h-1.457zm1.457 0h1.458v1.458h-1.458zm1.458 0h1.458v1.458h-1.458zm4.373 0h1.458v1.458h-1.458zm2.916 0h1.458v1.458h-1.458zm1.458 0h1.458v1.458h-1.458zm1.458 0h1.456v1.458H62.2Zm2.915 0h1.458v1.458h-1.458zm-46.649 1.459h1.458v1.458h-1.458zm8.747 0h1.458v1.458h-1.458zm2.915 0h1.458v1.458h-1.458zm1.458 0h1.458v1.458h-1.458zm1.458 0h1.458v1.458h-1.458zm2.915 0h1.458v1.458H35.96Zm1.458 0h1.458v1.458h-1.458zm1.458 0h1.458v1.458h-1.458zm1.458 0h1.458v1.458h-1.458zm1.458 0h1.457v1.458h-1.457zm1.457 0h1.458v1.458h-1.458zm5.832 0h1.457v1.458h-1.457zm1.457 0h1.458v1.458h-1.458zm2.916 0h1.458v1.458h-1.458zm2.915 0h1.458v1.458h-1.458zm8.747 0h1.458v1.458h-1.458zm-46.649 1.458h1.458v1.458h-1.458zm1.458 0h1.458v1.458h-1.458zm1.458 0h1.457v1.458h-1.457zm1.457 0h1.458v1.458H22.84Zm1.458 0h1.459v1.458h-1.46zm1.458 0h1.458v1.458h-1.458zm1.458 0h1.458v1.458h-1.458zm2.915 0h1.458v1.458h-1.458zm2.916 0h1.458v1.458h-1.458zm2.915 0h1.458v1.458H35.96Zm2.916 0h1.458v1.458h-1.458zm2.916 0h1.457v1.458h-1.457zm2.915 0h1.458v1.458h-1.458zm2.916 0h1.458v1.458h-1.458zm2.915 0h1.458v1.458h-1.458zm2.916 0h1.458v1.458h-1.458zm2.915 0h1.458v1.458h-1.458zm1.458 0h1.458v1.458h-1.458zm1.458 0h1.458v1.458h-1.458zm1.458 0h1.458v1.458h-1.458zm1.458 0h1.456v1.458H62.2Zm1.457 0h1.458v1.458h-1.458zm1.458 0h1.458v1.458h-1.458zm-33.529 1.458h1.458v1.457h-1.458zm1.458 0h1.458v1.457h-1.458zm1.458 0h1.457v1.457h-1.457zm4.373 0h1.458v1.457h-1.458zm2.916 0h1.457v1.457h-1.457zm2.915 0h1.458v1.457h-1.458zm1.458 0h1.458v1.457h-1.458zm2.916 0h1.457v1.457h-1.457zm-30.614 1.457h1.458v1.458h-1.458zm1.458 0h1.458v1.458h-1.458zm1.458 0h1.457v1.458h-1.457zm1.457 0h1.458v1.458H22.84Zm1.458 0h1.459v1.458h-1.46zm2.916 0h1.458v1.458h-1.458zm1.458 0h1.457v1.458h-1.457zm1.457 0h1.458v1.458h-1.458zm2.916 0h1.458v1.458h-1.458zm1.458 0h1.457v1.458h-1.457zm1.457 0h1.458v1.458H35.96Zm1.458 0h1.458v1.458h-1.458zm2.916 0h1.458v1.458h-1.458zm2.915 0h1.458v1.458h-1.458zm7.29 0h1.457v1.458h-1.458zm1.457 0h1.458v1.458h-1.458zm1.458 0h1.458v1.458h-1.458zm1.458 0h1.457v1.458h-1.457zm2.915 0h1.458v1.458h-1.458zm2.916 0h1.458v1.458h-1.458zm2.915 0h1.458v1.458h-1.458zm-42.275 1.458h1.457v1.458h-1.457zm1.457 0h1.458v1.458H22.84Zm1.458 0h1.459v1.458h-1.46zm1.458 0h1.458v1.458h-1.458zm2.916 0h1.457v1.458h-1.457zm5.83 0h1.458v1.458h-1.457zm1.458 0h1.458v1.458H35.96Zm1.458 0h1.458v1.458h-1.458zm4.374 0h1.457v1.458h-1.457zm2.915 0h1.458v1.458h-1.458zm1.458 0h1.458v1.458h-1.458zm1.458 0h1.458v1.458h-1.458zm1.458 0h1.457v1.458h-1.457zm1.457 0h1.458v1.458h-1.458zm1.458 0h1.458v1.458h-1.458zm4.373 0h1.458v1.458h-1.458zm1.458 0h1.458v1.458h-1.458zm4.374 0h1.456v1.458H62.2Zm1.457 0h1.458v1.458h-1.458zm1.458 0h1.458v1.458h-1.458zm-46.649 1.458h1.458v1.458h-1.458zm4.373 0h1.458v1.458H22.84Zm4.374 0h1.458v1.458h-1.458zm1.458 0h1.457v1.458h-1.457zm1.457 0h1.458v1.458h-1.458zm1.458 0h1.458v1.458h-1.458zm1.458 0h1.458v1.458h-1.458zm5.831 0h1.458v1.458h-1.458zm1.458 0h1.458v1.458h-1.458zm1.458 0h1.457v1.458h-1.457zm2.915 0h1.458v1.458h-1.458zm2.916 0h1.458v1.458h-1.458zm1.458 0h1.457v1.458h-1.457zm1.457 0h1.458v1.458h-1.458zm4.374 0h1.457v1.458h-1.457zm1.457 0h1.458v1.458h-1.458zm1.458 0h1.458v1.458h-1.458zm1.458 0h1.458v1.458h-1.458zm1.458 0h1.458v1.458h-1.458zm2.915 0h1.458v1.458h-1.458zm-42.275 1.458h1.457v1.457h-1.457zm7.289 0h1.457v1.457h-1.457zm1.457 0h1.458v1.457h-1.458zm1.458 0h1.458v1.457h-1.458zm2.916 0h1.457v1.457h-1.457zm4.373 0h1.458v1.457h-1.458zm1.458 0h1.458v1.457h-1.458zm8.747 0h1.457v1.457h-1.457zm2.915 0h1.458v1.457h-1.458zm4.373 0h1.458v1.457h-1.458zm1.458 0h1.458v1.457h-1.458zm4.374 0h1.456v1.457H62.2Zm-43.734 1.457h1.458v1.458h-1.458zm5.831 0h1.459v1.458h-1.46zm2.916 0h1.458v1.458h-1.458zm2.915 0h1.458v1.458h-1.458zm1.458 0h1.458v1.458h-1.458zm4.373 0h1.458v1.458H35.96Zm1.458 0h1.458v1.458h-1.458zm1.458 0h1.458v1.458h-1.458zm1.458 0h1.458v1.458h-1.458zm2.915 0h1.458v1.458h-1.458zm7.29 0h1.457v1.458h-1.458zm2.915 0h1.458v1.458h-1.458zm1.458 0h1.457v1.458h-1.457zm2.915 0h1.458v1.458h-1.458zm1.458 0h1.458v1.458h-1.458zm1.458 0h1.458v1.458h-1.458zm-40.818 1.458h1.458v1.458h-1.458zm1.458 0h1.457v1.458h-1.457zm4.373 0h1.458v1.458h-1.458zm8.747 0h1.457v1.458h-1.457zm4.373 0h1.458v1.458h-1.458zm2.916 0h1.457v1.458h-1.457zm1.457 0h1.458v1.458h-1.458zm1.458 0h1.458v1.458h-1.458zm1.458 0h1.458v1.458h-1.458zm1.458 0h1.458v1.458h-1.458zm4.373 0h1.458v1.458h-1.458zm4.373 0h1.458v1.458h-1.458zm7.29 0h1.457v1.458h-1.458zm1.457 0h1.458v1.458h-1.458zm-46.649 1.458h1.458v1.458h-1.458zm1.458 0h1.458v1.458h-1.458zm1.458 0h1.457v1.458h-1.457zm2.915 0h1.459v1.458h-1.46zm1.458 0h1.458v1.458h-1.458zm1.458 0h1.458v1.458h-1.458zm2.915 0h1.458v1.458h-1.458zm7.29 0h1.457v1.458h-1.458zm1.457 0h1.458v1.458h-1.458zm1.458 0h1.458v1.458h-1.458zm7.289 0h1.458v1.458h-1.458zm1.458 0h1.457v1.458h-1.457zm8.746 0h1.458v1.458h-1.458zm1.458 0h1.458v1.458h-1.458zm4.373 0h1.458v1.458h-1.458zm-42.275 1.458h1.457v1.458h-1.457zm7.289 0h1.457v1.458h-1.457zm4.373 0h1.458v1.458h-1.458zm2.915 0h1.458v1.458H35.96Zm10.205 0h1.458v1.458h-1.458zm1.458 0h1.458v1.458h-1.458zm1.458 0h1.457v1.458h-1.457zm1.457 0h1.458v1.458h-1.458zm2.916 0h1.458v1.458h-1.458zm1.458 0h1.457v1.458h-1.457zm1.457 0h1.458v1.458h-1.458zm1.458 0h1.458v1.458h-1.458zm4.374 0h1.456v1.458H62.2Zm-34.987 1.458h1.458v1.457h-1.458zm1.458 0h1.457v1.457h-1.457zm1.457 0h1.458v1.457h-1.458zm1.458 0h1.458v1.457h-1.458zm4.373 0h1.458v1.457H35.96Zm1.458 0h1.458v1.457h-1.458zm1.458 0h1.458v1.457h-1.458zm1.458 0h1.458v1.457h-1.458zm1.458 0h1.457v1.457h-1.457zm1.457 0h1.458v1.457h-1.458zm2.916 0h1.458v1.457h-1.458zm5.831 0h1.458v1.457h-1.458zm1.458 0h1.458v1.457h-1.458zm1.458 0h1.457v1.457h-1.457zm2.915 0h1.458v1.457h-1.458zm1.458 0h1.458v1.457h-1.458zm4.373 0h1.458v1.457h-1.458zm-45.191 1.457h1.458v1.458h-1.458zm2.916 0h1.457v1.458h-1.457zm1.457 0h1.458v1.458H22.84Zm1.458 0h1.459v1.458h-1.46zm1.458 0h1.458v1.458h-1.458zm2.916 0h1.457v1.458h-1.457zm5.83 0h1.458v1.458h-1.457zm7.29 0h1.457v1.458h-1.457zm2.915 0h1.458v1.458h-1.458zm1.458 0h1.458v1.458h-1.458zm5.831 0h1.458v1.458h-1.458zm4.373 0h1.458v1.458h-1.458zm4.374 0h1.458v1.458h-1.458zm2.915 0h1.458v1.458h-1.458zm1.458 0h1.458v1.458h-1.458zm-45.191 1.458h1.458v1.458h-1.458zm4.373 0h1.459v1.458h-1.46zm1.458 0h1.458v1.458h-1.458zm1.458 0h1.458v1.458h-1.458zm2.915 0h1.458v1.458h-1.458zm10.205 0h1.458v1.458h-1.458zm1.458 0h1.457v1.458h-1.457zm5.83 0h1.459v1.458h-1.458zm1.459 0h1.457v1.458h-1.457zm1.457 0h1.458v1.458h-1.458zm2.916 0h1.458v1.458h-1.458zm2.915 0h1.458v1.458h-1.458zm2.916 0h1.458v1.458h-1.458zm1.458 0h1.458v1.458h-1.458zm2.915 0h1.458v1.458h-1.458zm-45.191 1.458h1.458v1.458h-1.458zm2.916 0h1.457v1.458h-1.457zm7.289 0h1.457v1.458h-1.457zm1.457 0h1.458v1.458h-1.458zm8.747 0h1.458v1.458h-1.458zm2.916 0h1.457v1.458h-1.457zm5.83 0h1.459v1.458h-1.458zm1.459 0h1.457v1.458h-1.457zm1.457 0h1.458v1.458h-1.458zm1.458 0h1.458v1.458h-1.458zm1.458 0h1.458v1.458h-1.458zm4.373 0h1.458v1.458h-1.458zm4.374 0h1.456v1.458H62.2Zm-43.734 1.458h1.458v1.458h-1.458zm2.916 0h1.457v1.458h-1.457zm4.373 0h1.458v1.458h-1.458zm1.458 0h1.458v1.458h-1.458zm1.458 0h1.457v1.458h-1.457zm1.457 0h1.458v1.458h-1.458zm2.916 0h1.458v1.458h-1.458zm1.458 0h1.457v1.458h-1.457zm1.457 0h1.458v1.458H35.96Zm1.458 0h1.458v1.458h-1.458zm1.458 0h1.458v1.458h-1.458zm4.373 0h1.458v1.458h-1.458zm7.29 0h1.457v1.458h-1.458zm2.915 0h1.458v1.458h-1.458zm5.831 0h1.458v1.458h-1.458zm4.373 0h1.458v1.458h-1.458zm-45.191 1.458h1.458v1.457h-1.458zm2.916 0h1.457v1.457h-1.457zm1.457 0h1.458v1.457H22.84Zm2.916 0h1.458v1.457h-1.458zm2.916 0h1.457v1.457h-1.457zm1.457 0h1.458v1.457h-1.458zm1.458 0h1.458v1.457h-1.458zm1.458 0h1.458v1.457h-1.458zm1.458 0h1.457v1.457h-1.457zm1.457 0h1.458v1.457H35.96Zm1.458 0h1.458v1.457h-1.458zm5.831 0h1.458v1.457h-1.458zm1.458 0h1.458v1.457h-1.458zm1.458 0h1.458v1.457h-1.458zm1.458 0h1.458v1.457h-1.458zm4.373 0h1.458v1.457h-1.458zm4.373 0h1.458v1.457h-1.458zm4.374 0h1.458v1.457h-1.458zm2.915 0h1.458v1.457h-1.458zm1.458 0h1.458v1.457h-1.458zm-46.649 1.455h1.458v1.458h-1.458zm4.373 0h1.458v1.458H22.84Zm4.374 0h1.458v1.458h-1.458zm2.915 0h1.458v1.458h-1.458zm2.916 0h1.458v1.458h-1.458zm5.831 0h1.458v1.458h-1.458zm1.458 0h1.458v1.458h-1.458zm1.458 0h1.457v1.458h-1.457zm1.457 0h1.458v1.458h-1.458zm7.29 0h1.457v1.458h-1.458zm4.373 0h1.457v1.458h-1.457zm1.457 0h1.458v1.458h-1.458zm1.458 0h1.458v1.458h-1.458zm1.458 0h1.458v1.458h-1.458zm1.458 0h1.458v1.458h-1.458zm2.915 0h1.458v1.458h-1.458zm-45.191 1.46h1.458v1.458h-1.458zm2.916 0h1.457v1.458h-1.457zm4.373 0h1.458v1.458h-1.458zm2.916 0h1.457v1.458h-1.457zm7.288 0h1.458v1.458H35.96Zm5.832 0h1.457v1.458h-1.457zm2.915 0h1.458v1.458h-1.458zm2.916 0h1.458v1.458h-1.458zm1.458 0h1.457v1.458h-1.457zm1.457 0h1.458v1.458h-1.458zm1.458 0h1.458v1.458h-1.458zm2.916 0h1.457v1.458h-1.457zm1.457 0h1.458v1.458h-1.458zm2.916 0h1.458v1.458h-1.458zm1.458 0h1.458v1.458h-1.458zm1.458 0h1.456v1.458H62.2Zm-43.734 1.458h1.458v1.458h-1.458zm2.916 0h1.457v1.458h-1.457zm2.915 0h1.459v1.458h-1.46zm2.916 0h1.458v1.458h-1.458zm2.915 0h1.458v1.458h-1.458zm2.916 0h1.458v1.458h-1.458zm2.915 0h1.458v1.458H35.96Zm1.458 0h1.458v1.458h-1.458zm1.458 0h1.458v1.458h-1.458zm1.458 0h1.458v1.458h-1.458zm2.915 0h1.458v1.458h-1.458zm4.374 0h1.458v1.458h-1.458zm2.915 0h1.458v1.458h-1.458zm1.458 0h1.458v1.458h-1.458zm1.458 0h1.458v1.458h-1.458zm1.458 0h1.457v1.458h-1.457zm1.457 0h1.458v1.458h-1.458zm1.458 0h1.458v1.458h-1.458zm1.458 0h1.458v1.458h-1.458zm1.458 0h1.458v1.458h-1.458zm4.373 0h1.458v1.458h-1.458zm-34.987 1.458h1.458v1.457h-1.458zm1.458 0h1.458v1.457h-1.458zm2.916 0h1.457v1.457h-1.457zm2.915 0h1.458v1.457h-1.458zm4.374 0h1.457v1.457h-1.457zm4.373 0h1.458v1.457h-1.458zm1.458 0h1.458v1.457h-1.458zm1.458 0h1.457v1.457h-1.457zm4.373 0h1.458v1.457h-1.458zm5.831 0h1.458v1.457h-1.458zm1.458 0h1.458v1.457h-1.458zm1.458 0h1.456v1.457H62.2Zm2.915 0h1.458v1.457h-1.458zm-46.649 1.457h1.458v1.458h-1.458zm1.458 0h1.458v1.458h-1.458zm1.458 0h1.457v1.458h-1.457zm1.457 0h1.458v1.458H22.84Zm1.458 0h1.459v1.458h-1.46zm1.458 0h1.458v1.458h-1.458zm1.458 0h1.458v1.458h-1.458zm2.915 0h1.458v1.458h-1.458zm5.831 0h1.458v1.458H35.96Zm4.374 0h1.458v1.458h-1.458zm1.458 0h1.457v1.458h-1.457zm8.746 0h1.458v1.458h-1.458zm1.458 0h1.458v1.458h-1.458zm1.458 0h1.458v1.458h-1.458zm2.915 0h1.458v1.458h-1.458zm2.916 0h1.458v1.458h-1.458zm1.458 0h1.458v1.458h-1.458zm2.915 0h1.458v1.458h-1.458zm-45.191 1.457h1.458v1.458h-1.458zm8.747 0h1.458v1.458h-1.458zm11.662 0h1.458v1.458h-1.458zm1.458 0h1.458v1.458h-1.458zm4.373 0h1.458v1.458h-1.458zm1.458 0h1.458v1.458h-1.458zm2.916 0h1.457v1.458h-1.457zm4.373 0h1.458v1.458h-1.458zm5.831 0h1.458v1.458h-1.458zm1.458 0h1.458v1.458h-1.458zm1.458 0h1.456v1.458H62.2Zm2.915 0h1.458v1.458h-1.458zm-46.649 1.458h1.458v1.458h-1.458zm2.916 0h1.457v1.458h-1.457zm1.457 0h1.458v1.458H22.84Zm1.458 0h1.459v1.458h-1.46zm2.916 0h1.458v1.458h-1.458zm2.915 0h1.458v1.458h-1.458zm1.458 0h1.458v1.458h-1.458zm5.831 0h1.458v1.458h-1.458zm1.458 0h1.458v1.458h-1.458zm1.458 0h1.458v1.458h-1.458zm2.915 0h1.458v1.458h-1.458zm4.374 0h1.458v1.458h-1.458zm2.915 0h1.458v1.458h-1.458zm2.916 0h1.458v1.458h-1.458zm1.458 0h1.457v1.458h-1.457zm1.457 0h1.458v1.458h-1.458zm1.458 0h1.458v1.458h-1.458zm1.458 0h1.458v1.458h-1.458zm1.458 0h1.458v1.458h-1.458zm2.915 0h1.458v1.458h-1.458zm1.458 0h1.458v1.458h-1.458zm-46.649 1.458h1.458v1.458h-1.458zm2.916 0h1.457v1.458h-1.457zm1.457 0h1.458v1.458H22.84Zm1.458 0h1.459v1.458h-1.46zm2.916 0h1.458v1.458h-1.458zm2.915 0h1.458v1.458h-1.458zm1.458 0h1.458v1.458h-1.458zm1.458 0h1.458v1.458h-1.458zm1.458 0h1.457v1.458h-1.457zm7.289 0h1.457v1.458h-1.457zm1.457 0h1.458v1.458h-1.458zm1.458 0h1.458v1.458h-1.458zm1.458 0h1.458v1.458h-1.458zm1.458 0h1.458v1.458h-1.458zm1.458 0h1.457v1.458h-1.457zm4.373 0h1.458v1.458h-1.458zm1.458 0h1.457v1.458h-1.457zm2.915 0h1.458v1.458h-1.458zm1.458 0h1.458v1.458h-1.458zm1.458 0h1.458v1.458h-1.458zm1.458 0h1.456v1.458H62.2Zm-43.734 1.458h1.458v1.457h-1.458zm2.916 0h1.457v1.457h-1.457zm1.457 0h1.458v1.457H22.84Zm1.458 0h1.459v1.457h-1.46zm2.916 0h1.458v1.457h-1.458zm2.915 0h1.458v1.457h-1.458zm2.916 0h1.458v1.457h-1.458zm5.831 0h1.458v1.457h-1.458zm1.458 0h1.458v1.457h-1.458zm1.458 0h1.457v1.457h-1.457zm2.915 0h1.458v1.457h-1.458zm2.916 0h1.458v1.457h-1.458zm2.915 0h1.458v1.457h-1.458zm1.458 0h1.458v1.457h-1.458zm1.458 0h1.458v1.457h-1.458zm2.915 0h1.458v1.457h-1.458zm1.458 0h1.458v1.457h-1.458zm2.916 0h1.458v1.457h-1.458zm2.915 0h1.458v1.457h-1.458zm-45.191 1.456h1.458v1.458h-1.458zm8.747 0h1.458v1.458h-1.458zm2.915 0h1.458v1.458h-1.458zm1.458 0h1.458v1.458h-1.458zm1.458 0h1.458v1.458h-1.458zm2.915 0h1.458v1.458H35.96Zm5.832 0h1.457v1.458h-1.457zm5.83 0h1.459v1.458h-1.458zm1.459 0h1.457v1.458h-1.457zm2.915 0h1.458v1.458h-1.458zm4.373 0h1.458v1.458h-1.458zm2.916 0h1.458v1.458h-1.458zm1.458 0h1.458v1.458h-1.458zm1.458 0h1.456v1.458H62.2Zm-43.734 1.46h1.458v1.458h-1.458zm1.458 0h1.458v1.458h-1.458zm1.458 0h1.457v1.458h-1.457zm1.457 0h1.458v1.458H22.84Zm1.458 0h1.459v1.458h-1.46zm1.458 0h1.458v1.458h-1.458zm1.458 0h1.458v1.458h-1.458zm2.915 0h1.458v1.458h-1.458zm1.458 0h1.458v1.458h-1.458zm2.916 0h1.457v1.458h-1.457zm1.457 0h1.458v1.458H35.96Zm1.458 0h1.458v1.458h-1.458zm1.458 0h1.458v1.458h-1.458zm4.373 0h1.458v1.458h-1.458zm1.458 0h1.458v1.458h-1.458zm5.831 0h1.458v1.458h-1.458zm1.458 0h1.458v1.458h-1.458zm1.458 0h1.458v1.458h-1.458zm1.458 0h1.457v1.458h-1.457zm5.83 0h1.459v1.458h-1.458zm2.916 0h1.458v1.458h-1.458z" style="fill:#000;stroke-width:.208256"/></g><g id="sbb"><path id="rect22814" d="M628.838 17.008h196.044v22.94H628.838z" style="fill:#fff;stroke-width:0"/><path id="rect397399" d="M630.289 18.258h192.107v20.659H630.289z" style="fill:#fff;stroke-width:0"/><path id="path2879" d="M630.289 38.704h60.702V18.47h-60.702v20.234Z" style="fill:#e42328;stroke-width:0"/><path id="path2881" d="M666.02 27.039h6.563v-5.196h3.092v5.196h6.563l-5.28-5.196h3.918l6.745 6.744-6.745 6.745h-3.921l5.28-5.196h-6.56v5.196h-3.092v-5.196h-6.563l5.28 5.196h-3.916l-6.745-6.744 6.745-6.745h3.917" style="fill:#fff;stroke-width:0"/><path id="path2883" d="M697.255 31.303c-.039 3.492 2.896 5.04 6.03 5.04 3.848 0 5.891-1.944 5.891-4.544 0-3.211-3.173-3.866-4.205-4.122-3.55-.914-4.224-1.053-4.224-2.142 0-1.19 1.149-1.606 2.143-1.606 1.487 0 2.698.435 2.796 2.142h3.015c0-3.272-2.717-4.56-5.672-4.56-2.559 0-5.296 1.388-5.296 4.285 0 2.658 2.122 3.471 4.226 4.025 2.082.555 4.203.814 4.203 2.34 0 1.448-1.666 1.766-2.757 1.766-1.666 0-3.133-.735-3.133-2.62" style="fill:#221e20;stroke-width:0"/><path id="path2885" d="M714.21 24.264h2.916c1.11 0 2.143.277 2.143 1.626 0 1.19-.814 1.686-1.904 1.686h-3.154v-3.312Zm-3.113 11.74h6.862c2.559 0 5-1.229 5-4.105 0-1.765-.875-3.094-2.6-3.59a3.106 3.106 0 0 0 1.925-2.956c0-2.637-1.825-3.51-4.523-3.51h-6.664v14.162Zm3.114-6.307h3.39c1.329 0 2.241.577 2.241 2.024 0 1.466-1.07 1.864-2.3 1.864h-3.33" style="fill:#221e20;fill-rule:evenodd;stroke-width:0"/><path id="path2887" d="M728.148 24.264h2.916c1.11 0 2.142.277 2.142 1.626 0 1.19-.813 1.686-1.904 1.686h-3.154v-3.312Zm-3.113 11.74h6.861c2.56 0 4.998-1.229 4.998-4.105 0-1.765-.872-3.094-2.598-3.59a3.106 3.106 0 0 0 1.923-2.956c0-2.637-1.823-3.51-4.52-3.51h-6.664v14.162Zm3.115-6.307h3.39c1.33 0 2.242.577 2.242 2.024 0 1.466-1.07 1.864-2.3 1.864h-3.331" style="fill:#221e20;fill-rule:evenodd;stroke-width:0"/><path id="path2889" d="M756.674 26.603c-.377-3.272-2.994-5.096-6.108-5.096-4.384 0-6.961 3.273-6.961 7.476 0 4.086 2.577 7.359 6.96 7.359 3.472 0 5.91-2.26 6.228-5.792h-3.016c-.237 1.865-1.308 3.173-3.211 3.173-2.797 0-3.85-2.38-3.85-4.74 0-2.48 1.054-4.86 3.85-4.86 1.545 0 2.896 1.071 3.094 2.479" style="fill:#221e20;stroke-width:0"/><path id="path2891" d="M758.71 36.005h3.114v-5.851h5.93v-2.42h-5.93v-3.272h6.842v-2.617h-9.956" style="fill:#221e20;stroke-width:0"/><path id="path2893" d="M770.56 36.005h3.104v-5.851h5.924v-2.42h-5.926v-3.272h6.835v-2.617h-9.938" style="fill:#221e20;stroke-width:0"/><path id="path2895" d="M787.241 36.005h3.122v-5.851h5.924v-2.42h-5.924v-3.272h6.834v-2.617h-9.956" style="fill:#221e20;stroke-width:0"/><path id="path2897" d="M799.464 36.005h3.105v-5.851h5.924v-2.42h-5.924v-3.272h6.852v-2.617h-9.957" style="fill:#221e20;stroke-width:0"/><path id="path2899" d="M810.562 31.303c-.035 3.492 2.89 5.04 6.031 5.04 3.854 0 5.888-1.944 5.888-4.544 0-3.211-3.176-3.866-4.193-4.122-3.55-.914-4.228-1.053-4.228-2.142 0-1.19 1.141-1.606 2.142-1.606 1.48 0 2.695.435 2.801 2.142h2.998c0-3.272-2.712-4.56-5.656-4.56-2.57 0-5.3 1.388-5.3 4.285 0 2.658 2.123 3.471 4.23 4.025 2.07.555 4.192.814 4.192 2.34 0 1.448-1.659 1.766-2.747 1.766-1.678 0-3.14-.735-3.14-2.62" style="fill:#221e20;stroke-width:0"/></g><g id="title"><path id="path513" d="M404.581 84.965H.001V17.04H404.58a2.048 2.503 0 0 1 2.048 2.502v62.921c0 1.381-.918 2.502-2.047 2.502z" style="fill:#fff;stroke-width:0"/><text id="text735" style="font-style:normal;font-variant:normal;font-weight:400;font-stretch:normal;font-size:12px;font-family:SBBWeb-Light,&quot;SBB Web&quot;,Arial,&quot;SBB Web&quot;;-inkscape-font-specification:&quot;SBBWeb-Light, SBB Web, Arial, SBB Web, Normal&quot;;font-variant-ligatures:normal;font-variant-caps:normal;font-variant-numeric:normal;font-variant-east-asian:normal;isolation:isolate" transform="translate(17.157 32.43)"><tspan id="tspan1119" x="0" y="0">Abbonamento generale, AG Night, carta mensile AG, abbonamento Svago,</tspan><tspan id="tspan1121" x="0" y="15">carta giornaliera per il metà-prezzo e carta giornaliera risparmio / carta</tspan><tspan id="tspan1123" x="0" y="30">giornaliera promo / carta giornaliera risparmio Comune con abbonamento</tspan><tspan id="tspan1125" x="0" y="45">metà-prezzo valido</tspan></text></g><g id="legend" transform="translate(0 13.5)"><rect id="rect426128-0-8-3-9-2" width="172.589" height="111.483" x="9.457" y="77.632" rx="1.984" ry="1.984" style="fill:#fff;stroke-width:0"/><g id="scaleline"><text id="text745" style="font-size:6px;font-family:SBBWeb-Roman,&quot;SBB Web&quot;,Arial,&quot;SBB Web&quot;;isolation:isolate" transform="translate(62.56 178.12)"><tspan id="tspan739" x="0" y="0">50</tspan><tspan id="tspan741" x="8.341" y="0" style="letter-spacing:.00342em">k</tspan><tspan id="tspan743" x="11.476" y="0">m</tspan></text><path id="path1881" d="M125.04 172.298v9.44l-107.434.052v-9.494" style="fill:none;stroke:#000;stroke-width:.9031px;stroke-miterlimit:3"/></g><g id="g765"><text id="text751" style="font-size:6px;font-family:SBBWeb-Roman,&quot;SBB Web&quot;,Arial,&quot;SBB Web&quot;;isolation:isolate" transform="translate(17.075 114.12)"><tspan id="tspan749" x="0" y="0">Ferrovie</tspan></text><g id="g763"><path id="line753" d="M18.29 100.564h27.663" style="fill:none;stroke:#eb0000;stroke-width:1.41732px;stroke-linecap:square;stroke-miterlimit:3"/><g id="g761"><path id="line755" d="M18.29 104.326v0" style="fill:none;stroke:#eb0000;stroke-width:1.41732px;stroke-linecap:round;stroke-miterlimit:3"/><path id="line757" d="M21.056 104.326H44.57" style="fill:none;stroke:#eb0000;stroke-width:1.41732px;stroke-linecap:round;stroke-miterlimit:3;stroke-dasharray:0,0,0,2.76634"/><path id="line759" d="M45.953 104.326v0" style="fill:none;stroke:#eb0000;stroke-width:1.41732px;stroke-linecap:round;stroke-miterlimit:3"/></g></g></g><g id="g783"><text id="text769" style="font-style:normal;font-variant:normal;font-weight:400;font-stretch:normal;font-size:6px;font-family:SBBWeb-Roman,&quot;SBB Web&quot;,Arial,&quot;SBB Web&quot;;-inkscape-font-specification:&quot;SBBWeb-Roman, SBB Web, Arial, SBB Web, Normal&quot;;font-variant-ligatures:normal;font-variant-caps:normal;font-variant-numeric:normal;font-variant-east-asian:normal;isolation:isolate" transform="translate(102.438 114.225)"><tspan id="tspan32399" x="0" y="0">Trasporti a</tspan><tspan id="tspan32401" x="0" y="7.5">fune</tspan></text><g id="g781"><path id="line771" d="M103.358 100.564h27.663" style="fill:none;stroke:#000;stroke-width:1.41732px;stroke-linecap:square;stroke-miterlimit:3"/><g id="g779"><path id="line773" d="M103.358 104.326v0" style="fill:none;stroke:#000;stroke-width:1.41732px;stroke-linecap:round;stroke-miterlimit:3"/><path id="line775" d="M106.124 104.326h23.514" style="fill:none;stroke:#000;stroke-width:1.41732px;stroke-linecap:round;stroke-miterlimit:3;stroke-dasharray:0,0,0,2.76634"/><path id="line777" d="M131.021 104.326v0" style="fill:none;stroke:#000;stroke-width:1.41732px;stroke-linecap:round;stroke-miterlimit:3"/></g></g></g><g id="g826"><g id="text402292-9-5-9-7-1" style="isolation:isolate"><text id="text797" style="font-size:6px;font-family:SBBWeb-Roman,&quot;SBB Web&quot;,Arial,&quot;SBB Web&quot;;isolation:isolate" transform="translate(145.12 146.932)"><tspan id="tspan53409" x="0" y="0">Chiedere la</tspan><tspan id="tspan53411" x="0" y="7.5">validità in</tspan><tspan id="tspan53413" x="0" y="15">loco</tspan></text></g><g id="g824"><path id="line818" d="M145.893 137.151v0" style="fill:none;stroke:#999;stroke-width:1.41732px;stroke-linecap:round;stroke-miterlimit:3"/><path id="line820" d="M148.659 137.151h23.514" style="fill:none;stroke:#999;stroke-width:1.41732px;stroke-linecap:round;stroke-miterlimit:3;stroke-dasharray:0,0,0,2.76634"/><path id="line822" d="M173.556 137.151v0" style="fill:none;stroke:#999;stroke-width:1.41732px;stroke-linecap:round;stroke-miterlimit:3"/></g></g><g id="g854"><text id="text840" style="font-size:6px;font-family:SBBWeb-Roman,&quot;SBB Web&quot;,Arial,&quot;SBB Web&quot;;isolation:isolate" transform="translate(145.12 114.225)"><tspan id="tspan36675" x="0" y="0">Batelli</tspan></text><g id="g852"><path id="line842" d="M145.893 100.564h27.663" style="fill:none;stroke:#2a6698;stroke-width:1.41732px;stroke-linecap:square;stroke-miterlimit:3"/><g id="g850"><path id="line844" d="M145.893 104.326v0" style="fill:none;stroke:#2a6698;stroke-width:1.41732px;stroke-linecap:round;stroke-miterlimit:3"/><path id="line846" d="M148.659 104.326h23.514" style="fill:none;stroke:#2a6698;stroke-width:1.41732px;stroke-linecap:round;stroke-miterlimit:3;stroke-dasharray:0,0,0,2.76634"/><path id="line848" d="M173.556 104.326v0" style="fill:none;stroke:#2a6698;stroke-width:1.41732px;stroke-linecap:round;stroke-miterlimit:3"/></g></g></g><g id="g892"><text id="text868" style="font-size:6px;font-family:SBBWeb-Roman,&quot;SBB Web&quot;,Arial,&quot;SBB Web&quot;;isolation:isolate" transform="translate(59.806 114.214)"><tspan id="tspan856" x="0" y="0" style="letter-spacing:-.00586em">A</tspan><tspan id="tspan858" x="3.853" y="0">u</tspan><tspan id="tspan860" x="7.189" y="0" style="letter-spacing:-.02246em">t</tspan><tspan id="tspan862" x="8.944" y="0">obu</tspan><tspan id="tspan864" x="19.283" y="0" style="letter-spacing:.00488em">s</tspan></text><g id="g890"><path id="line870" d="M61.07 100.564h27.173" style="fill:none;stroke:#3b3b3b;stroke-width:1.98425px;stroke-linecap:square;stroke-miterlimit:3"/><g id="g878"><path id="line872" d="M60.824 104.326v0" style="fill:none;stroke:#3b3b3b;stroke-width:1.98425px;stroke-linecap:round;stroke-miterlimit:3"/><path id="line874" d="M63.59 104.326h23.514" style="fill:none;stroke:#3b3b3b;stroke-width:1.98425px;stroke-linecap:round;stroke-miterlimit:3;stroke-dasharray:0,0,0,2.76634"/><path id="line876" d="M88.488 104.326v0" style="fill:none;stroke:#3b3b3b;stroke-width:1.98425px;stroke-linecap:round;stroke-miterlimit:3"/></g><path id="line880" d="M60.824 100.564h27.664" style="fill:none;stroke:#fbd700;stroke-width:1.41732px;stroke-linecap:square;stroke-miterlimit:3"/><g id="g888"><path id="line882" d="M60.824 104.326v0" style="fill:none;stroke:#fbd700;stroke-width:1.41732px;stroke-linecap:round;stroke-miterlimit:3"/><path id="line884" d="M63.59 104.326h23.514" style="fill:none;stroke:#fbd700;stroke-width:1.41732px;stroke-linecap:round;stroke-miterlimit:3;stroke-dasharray:0,0,0,2.76634"/><path id="line886" d="M88.488 104.326v0" style="fill:none;stroke:#fbd700;stroke-width:1.41732px;stroke-linecap:round;stroke-miterlimit:3"/></g></g></g><g id="g925"><g id="text402292-9-5-9" style="isolation:isolate"><text id="text908" style="font-style:normal;font-variant:normal;font-weight:400;font-stretch:normal;font-size:6px;font-family:SBBWeb-Roman,&quot;SBB Web&quot;,Arial,&quot;SBB Web&quot;;-inkscape-font-specification:&quot;SBBWeb-Roman, SBB Web, Arial, SBB Web, Normal&quot;;font-variant-ligatures:normal;font-variant-caps:normal;font-variant-numeric:normal;font-variant-east-asian:normal;isolation:isolate" transform="translate(17.075 146.933)"><tspan id="tspan41247" x="0" y="0">Libera</tspan><tspan id="tspan41249" x="0" y="7.5">circolazione</tspan></text></g><g id="g923"><path id="line911" d="M18.167 125.783h27.664" style="fill:none;stroke:#eb0000;stroke-width:1.41732px;stroke-linecap:square;stroke-miterlimit:3"/><path id="line913" d="M18.167 133.361h27.664" style="fill:none;stroke:#000;stroke-width:1.41732px;stroke-linecap:square;stroke-miterlimit:3"/><path id="line915" d="M18.168 137.151h27.663" style="fill:none;stroke:#2a6698;stroke-width:1.41732px;stroke-linecap:square;stroke-miterlimit:3"/><g id="g921"><path id="line917" d="M18.413 129.572h27.173" style="fill:none;stroke:#3b3b3b;stroke-width:1.98425px;stroke-linecap:square;stroke-miterlimit:3"/><path id="line919" d="M18.167 129.572h27.664" style="fill:none;stroke:#fbd700;stroke-width:1.41732px;stroke-linecap:square;stroke-miterlimit:3"/></g></g></g><g id="g1007"><text id="text963" style="font-size:6px;font-family:SBBWeb-Roman,&quot;SBB Web&quot;,Arial,&quot;SBB Web&quot;;isolation:isolate" transform="translate(59.756 146.933)"><tspan id="tspan45301" x="0" y="0" style="font-style:normal;font-variant:normal;font-weight:400;font-stretch:normal;font-size:6px;font-family:SBBWeb-Roman,&quot;SBB Web&quot;,Arial,&quot;SBB Web&quot;;-inkscape-font-specification:&quot;SBBWeb-Roman, SBB Web, Arial, SBB Web, Normal&quot;;font-variant-ligatures:normal;font-variant-caps:normal;font-variant-numeric:normal;font-variant-east-asian:normal">Viaggi a</tspan><tspan id="tspan45303" x="0" y="7.5" style="font-style:normal;font-variant:normal;font-weight:400;font-stretch:normal;font-size:6px;font-family:SBBWeb-Roman,&quot;SBB Web&quot;,Arial,&quot;SBB Web&quot;;-inkscape-font-specification:&quot;SBBWeb-Roman, SBB Web, Arial, SBB Web, Normal&quot;;font-variant-ligatures:normal;font-variant-caps:normal;font-variant-numeric:normal;font-variant-east-asian:normal">prezzo</tspan><tspan id="tspan45305" x="0" y="15" style="font-style:normal;font-variant:normal;font-weight:400;font-stretch:normal;font-size:6px;font-family:SBBWeb-Roman,&quot;SBB Web&quot;,Arial,&quot;SBB Web&quot;;-inkscape-font-specification:&quot;SBBWeb-Roman, SBB Web, Arial, SBB Web, Normal&quot;;font-variant-ligatures:normal;font-variant-caps:normal;font-variant-numeric:normal;font-variant-east-asian:normal">ridotto</tspan></text><g id="g971"><path id="line965" d="M60.825 125.783v0" style="fill:none;stroke:#eb0000;stroke-width:1.41732px;stroke-linecap:round;stroke-miterlimit:3"/><path id="line967" d="M63.592 125.783h23.513" style="fill:none;stroke:#eb0000;stroke-width:1.41732px;stroke-linecap:round;stroke-miterlimit:3;stroke-dasharray:0,0,0,2.76634"/><path id="line969" d="M88.489 125.783v0" style="fill:none;stroke:#eb0000;stroke-width:1.41732px;stroke-linecap:round;stroke-miterlimit:3"/></g><g id="g979"><path id="line973" d="M60.825 133.361v0" style="fill:none;stroke:#000;stroke-width:1.41732px;stroke-linecap:round;stroke-miterlimit:3"/><path id="line975" d="M63.592 133.361h23.513" style="fill:none;stroke:#000;stroke-width:1.41732px;stroke-linecap:round;stroke-miterlimit:3;stroke-dasharray:0,0,0,2.76634"/><path id="line977" d="M88.489 133.361v0" style="fill:none;stroke:#000;stroke-width:1.41732px;stroke-linecap:round;stroke-miterlimit:3"/></g><g id="g987"><path id="line981" d="M60.825 137.151v0" style="fill:none;stroke:#2a6698;stroke-width:1.41732px;stroke-linecap:round;stroke-miterlimit:3"/><path id="line983" d="M63.592 137.151h23.513" style="fill:none;stroke:#2a6698;stroke-width:1.41732px;stroke-linecap:round;stroke-miterlimit:3;stroke-dasharray:0,0,0,2.76634"/><path id="line985" d="M88.489 137.151v0" style="fill:none;stroke:#2a6698;stroke-width:1.41732px;stroke-linecap:round;stroke-miterlimit:3"/></g><g id="g1005"><g id="g995"><path id="line989" d="M60.825 129.572v0" style="fill:none;stroke:#3b3b3b;stroke-width:1.98425px;stroke-linecap:round;stroke-miterlimit:3"/><path id="line991" d="M63.592 129.572h23.513" style="fill:none;stroke:#3b3b3b;stroke-width:1.98425px;stroke-linecap:round;stroke-miterlimit:3;stroke-dasharray:0,0,0,2.76634"/><path id="line993" d="M88.489 129.572v0" style="fill:none;stroke:#3b3b3b;stroke-width:1.98425px;stroke-linecap:round;stroke-miterlimit:3"/></g><g id="g1003"><path id="line997" d="M60.825 129.572v0" style="fill:none;stroke:#fbd700;stroke-width:1.41732px;stroke-linecap:round;stroke-miterlimit:3"/><path id="line999" d="M63.592 129.572h23.513" style="fill:none;stroke:#fbd700;stroke-width:1.41732px;stroke-linecap:round;stroke-miterlimit:3;stroke-dasharray:0,0,0,2.76634"/><path id="line1001" d="M88.489 129.572v0" style="fill:none;stroke:#fbd700;stroke-width:1.41732px;stroke-linecap:round;stroke-miterlimit:3"/></g></g></g><g id="g1036"><g id="text402292-9-5-9-7" style="isolation:isolate"><text id="text1031" style="font-size:6px;font-family:SBBWeb-Roman,&quot;SBB Web&quot;,Arial,&quot;SBB Web&quot;;isolation:isolate" transform="translate(102.438 146.933)"><tspan id="tspan50663" x="0" y="0">Nessuna</tspan><tspan id="tspan50665" x="0" y="7.5">riduzione</tspan></text></g><path id="line1034" d="M103.358 137.151h27.664" style="fill:none;stroke:#999;stroke-width:1.41732px;stroke-linecap:square;stroke-miterlimit:3"/></g><g id="state-publisher"><g id="text2350" style="isolation:isolate"><text id="text1042" style="font-size:6px;font-family:SBBWeb-Roman,&quot;SBB Web&quot;,Arial,&quot;SBB Web&quot;;isolation:isolate" transform="translate(41.786 88.501)"><tspan id="tspan1038" x="0" y="0">***publishedAt***</tspan></text></g><g id="text2347" style="isolation:isolate"><text id="text1047" style="font-style:normal;font-variant:normal;font-weight:400;font-stretch:normal;font-size:6px;font-family:SBBWeb-Roman,&quot;SBB Web&quot;,Arial,&quot;SBB Web&quot;;-inkscape-font-specification:&quot;SBBWeb-Roman, SBB Web, Arial, SBB Web, Normal&quot;;font-variant-ligatures:normal;font-variant-caps:normal;font-variant-numeric:normal;font-variant-east-asian:normal;isolation:isolate" transform="translate(17.075 88.501)"><tspan id="tspan18439" x="0" y="0">Creato il</tspan></text></g></g></g></svg>