<svg xmlns="http://www.w3.org/2000/svg" id="a3" width="1587.402" height="297mm" version="1.1" viewBox="0 0 1190.551 841.89"><path id="rect2" d="M0 0h1190.551v841.89H0z" style="fill:none;stroke-width:0"/><g id="rand" transform="translate(1.85 .207)"><path id="rect1034" d="M74.627 788.31H731.17c1.29 0 2.333 1.224 2.333 2.735v25.487c0 1.51-1.044 2.736-2.333 2.736H74.627Z" style="fill:#fff;stroke-width:0"/><text id="text503" x="77.825" y="814.526" style="font-style:normal;font-variant:normal;font-weight:400;font-stretch:normal;font-size:6px;font-family:SBBWeb-Roman,&quot;SBB Web&quot;,Arial,&quot;SBB Web&quot;;-inkscape-font-specification:&quot;SBBWeb-Roman, SBB Web, Arial, SBB Web, Normal&quot;;font-variant-ligatures:normal;font-variant-caps:normal;font-variant-numeric:normal;font-variant-east-asian:normal"><tspan id="tspan32276" x="77.825" y="814.526">Quelle: OpenStreetMap contributors © SBB/CFF/FFS www.traﬁmage.ch www.geops.ch</tspan></text><text xml:space="preserve" id="text105827" x="78.083" y="798.215" style="font-style:normal;font-variant:normal;font-weight:400;font-stretch:normal;font-size:6px;line-height:1;font-family:SBBWeb-Roman,&quot;SBB Web&quot;,Arial,&quot;SBB Web&quot;;-inkscape-font-specification:&quot;SBBWeb-Roman, SBB Web, Arial, SBB Web, Normal&quot;;font-variant-ligatures:normal;font-variant-caps:normal;font-variant-numeric:normal;font-variant-east-asian:normal"><tspan id="tspan32254" x="78.083" y="798.215">Auf gewissen Autobuslinien ist ein Zuschlag und/oder eine Platzreservierung erforderlich. Bitte beachten Sie zudem, dass vom 21. März bis zum 31. Oktober für Velos in InterCity (IC)-Zügen eine Veloplatzreservation obligatorisch ist.</tspan><tspan id="tspan32256" x="78.083" y="804.215">Bitte beachten Sie die Hinweise für die gewünschte Verbindung im (Online-)Fahrplan. Aus Platzgründen sind, je nach Zoomstufe, nicht alle Linien angegeben. Alle Angaben ohne Gewähr. Änderungen vorbehalten. Es gilt der Anwendungsbereich.</tspan></text></g><g id="qr-code"><path id="rect23865" d="M22.453 768.451h51.024v51.024H22.453Z" style="fill:#fff;stroke-width:0"/><path id="path68822" d="M23.91 769.91h1.3v1.3h-1.3Zm1.3 0h1.3v1.3h-1.3Zm1.3 0h1.3v1.3h-1.3zm1.3 0h1.3v1.3h-1.3zm1.3 0h1.3v1.3h-1.3zm1.3 0h1.301v1.3h-1.3zm1.301 0h1.3v1.3h-1.3zm3.9 0h1.3v1.3h-1.3zm9.102 0h1.3v1.3h-1.3zm2.6 0h1.3v1.3h-1.3zm1.3 0h1.3v1.3h-1.3zm1.3 0h1.301v1.3h-1.3zm1.301 0h1.3v1.3h-1.3zm2.6 0h1.3v1.3h-1.3zm6.501 0h1.3v1.3h-1.3zm2.6 0h1.3v1.3h-1.3zm1.3 0h1.301v1.3h-1.3zm1.301 0h1.3v1.3h-1.3zm1.3 0h1.3v1.3h-1.3zm1.3 0h1.3v1.3h-1.3zm1.3 0h1.3v1.3h-1.3zm1.3 0h1.301v1.3h-1.3Zm-46.806 1.3h1.3v1.3h-1.3Zm7.801 0h1.3v1.3h-1.3zm2.6 0h1.3v1.3h-1.3zm1.3 0h1.3v1.3h-1.3zm2.601 0h1.3v1.3h-1.3zm1.3 0h1.3v1.3h-1.3zm2.6 0h1.3v1.3h-1.3zm1.3 0h1.301v1.3h-1.3zm1.301 0h1.3v1.3h-1.3zm2.6 0h1.3v1.3h-1.3zm3.901 0h1.3v1.3h-1.3zm5.2 0h1.3v1.3h-1.3zm1.3 0h1.301v1.3h-1.3zm1.301 0h1.3v1.3h-1.3zm3.9 0h1.3v1.3h-1.3zm7.802 0h1.3v1.3h-1.3Zm-46.807 1.3h1.3v1.3h-1.3Zm2.6 0h1.3v1.3h-1.3zm1.3 0h1.3v1.3h-1.3zm1.3 0h1.3v1.3h-1.3zm2.601 0h1.3v1.3h-1.3zm3.9 0h1.3v1.3h-1.3zm1.3 0h1.301v1.3h-1.3zm1.301 0h1.3v1.3h-1.3zm5.2 0h1.301v1.3h-1.3zm5.202 0h1.3v1.3h-1.3zm2.6 0h1.3v1.3h-1.3zm1.3 0h1.3v1.3h-1.3zm1.3 0h1.3v1.3h-1.3zm6.501 0h1.3v1.3h-1.3zm2.6 0h1.3v1.3h-1.3zm2.601 0h1.3v1.3h-1.3zm1.3 0h1.3v1.3h-1.3zm1.3 0h1.3v1.3h-1.3zm2.6 0h1.301v1.3h-1.3Zm-46.806 1.3h1.3v1.3h-1.3Zm2.6 0h1.3v1.3h-1.3zm1.3 0h1.3v1.3h-1.3zm1.3 0h1.3v1.3h-1.3zm2.601 0h1.3v1.3h-1.3zm2.6 0h1.3v1.3h-1.3zm1.3 0h1.3v1.3h-1.3zm2.601 0h1.3v1.3h-1.3zm2.6 0h1.3v1.3h-1.3Zm1.3 0h1.3v1.3h-1.3zm3.901 0h1.3v1.3h-1.3zm3.9 0h1.301v1.3h-1.3zm5.202 0h1.3v1.3h-1.3zm1.3 0h1.3v1.3h-1.3zm1.3 0h1.3v1.3h-1.3zm1.3 0h1.3v1.3h-1.3zm3.9 0h1.3v1.3h-1.3zm2.601 0h1.3v1.3h-1.3zm1.3 0h1.3v1.3h-1.3zm1.3 0h1.3v1.3h-1.3zm2.6 0h1.301v1.3h-1.3Zm-46.806 1.3h1.3v1.301h-1.3Zm2.6 0h1.3v1.301h-1.3zm1.3 0h1.3v1.301h-1.3zm1.3 0h1.3v1.301h-1.3zm2.601 0h1.3v1.301h-1.3zm5.2 0h1.301v1.301h-1.3zm2.601 0h1.3v1.301h-1.3zm1.3 0h1.3v1.301h-1.3Zm3.901 0h1.3v1.301h-1.3zm3.9 0h1.3v1.301h-1.3zm1.3 0h1.301v1.301h-1.3zm3.901 0h1.3v1.301h-1.3zm6.501 0h1.3v1.301h-1.3zm2.6 0h1.3v1.301h-1.3zm2.601 0h1.3v1.301h-1.3zm1.3 0h1.3v1.301h-1.3zm1.3 0h1.3v1.301h-1.3zm2.6 0h1.301v1.301h-1.3Zm-46.806 1.3h1.3v1.301h-1.3Zm7.801 0h1.3v1.301h-1.3zm2.6 0h1.3v1.301h-1.3zm2.6 0h1.301v1.301h-1.3zm6.502 0h1.3v1.301h-1.3zm2.6 0h1.3v1.301h-1.3zm5.201 0h1.3v1.301h-1.3zm1.3 0h1.3v1.301h-1.3zm5.2 0h1.301v1.301h-1.3zm1.301 0h1.3v1.301h-1.3zm1.3 0h1.3v1.301h-1.3zm2.6 0h1.3v1.301h-1.3zm7.802 0h1.3v1.301h-1.3Zm-46.807 1.301h1.3v1.3h-1.3Zm1.3 0h1.3v1.3h-1.3Zm1.3 0h1.3v1.3h-1.3zm1.3 0h1.3v1.3h-1.3zm1.3 0h1.3v1.3h-1.3zm1.3 0h1.301v1.3h-1.3zm1.301 0h1.3v1.3h-1.3zm2.6 0h1.3v1.3h-1.3zm2.6 0h1.301v1.3h-1.3zm2.601 0h1.3v1.3h-1.3zm2.6 0h1.3v1.3h-1.3zm2.601 0h1.3v1.3h-1.3zm2.6 0h1.3v1.3h-1.3zm2.6 0h1.301v1.3h-1.3zm2.601 0h1.3v1.3h-1.3zm2.6 0h1.3v1.3h-1.3zm2.6 0h1.301v1.3h-1.3zm2.601 0h1.3v1.3h-1.3zm2.6 0h1.3v1.3h-1.3zm1.3 0h1.301v1.3h-1.3zm1.301 0h1.3v1.3h-1.3zm1.3 0h1.3v1.3h-1.3zm1.3 0h1.3v1.3h-1.3zm1.3 0h1.3v1.3h-1.3zm1.3 0h1.301v1.3h-1.3zm-31.204 1.3h1.3v1.3h-1.3zm2.6 0h1.3v1.3h-1.3zm1.3 0h1.301v1.3h-1.3zm1.301 0h1.3v1.3h-1.3zm2.6 0h1.3v1.3h-1.3zm2.6 0h1.301v1.3h-1.3zm1.301 0h1.3v1.3h-1.3zm1.3 0h1.3v1.3h-1.3zm1.3 0h1.3v1.3h-1.3zm3.9 0h1.301v1.3h-1.3zm2.601 0h1.3v1.3h-1.3Zm-36.405 1.3h1.3v1.3h-1.3Zm1.3 0h1.3v1.3h-1.3Zm1.3 0h1.3v1.3h-1.3zm1.3 0h1.3v1.3h-1.3zm1.3 0h1.3v1.3h-1.3zm2.601 0h1.3v1.3h-1.3zm1.3 0h1.3v1.3h-1.3zm1.3 0h1.3v1.3h-1.3zm1.3 0h1.3v1.3h-1.3zm1.3 0h1.301v1.3h-1.3zm2.601 0h1.3v1.3h-1.3zm1.3 0h1.3v1.3h-1.3Zm1.3 0h1.3v1.3h-1.3zm3.901 0h1.3v1.3h-1.3zm3.9 0h1.301v1.3h-1.3zm2.601 0h1.3v1.3h-1.3zm1.3 0h1.3v1.3h-1.3zm1.3 0h1.3v1.3h-1.3zm1.3 0h1.3v1.3h-1.3zm1.3 0h1.301v1.3h-1.3zm3.901 0h1.3v1.3h-1.3zm2.6 0h1.301v1.3h-1.3zm2.601 0h1.3v1.3h-1.3zm2.6 0h1.3v1.3h-1.3zm-45.506 1.3h1.3v1.3h-1.3Zm1.3 0h1.3v1.3h-1.3Zm1.3 0h1.3v1.3h-1.3zm1.3 0h1.3v1.3h-1.3zm2.6 0h1.301v1.3h-1.3zm11.703 0h1.3v1.3h-1.3zm2.6 0h1.3v1.3h-1.3zm2.6 0h1.3v1.3h-1.3zm1.3 0h1.3v1.3h-1.3zm1.3 0h1.301v1.3h-1.3zm1.301 0h1.3v1.3h-1.3zm1.3 0h1.3v1.3h-1.3zm1.3 0h1.3v1.3h-1.3zm1.3 0h1.3v1.3h-1.3zm2.6 0h1.301v1.3h-1.3zm2.601 0h1.3v1.3h-1.3zm6.501 0h1.3v1.3h-1.3zm1.3 0h1.3v1.3h-1.3zm1.3 0h1.3v1.3h-1.3zm-41.605 1.3h1.3v1.301h-1.3zm2.6 0h1.3v1.301h-1.3zm1.3 0h1.3v1.301h-1.3zm2.6 0h1.3v1.301h-1.3zm1.3 0h1.3v1.301h-1.3zm1.3 0h1.301v1.301h-1.3zm1.301 0h1.3v1.301h-1.3zm1.3 0h1.3v1.301h-1.3zm2.6 0h1.3v1.301h-1.3zm1.3 0h1.301v1.301h-1.3zm1.301 0h1.3v1.301h-1.3zm5.2 0h1.301v1.301h-1.3zm1.301 0h1.3v1.301h-1.3zm1.3 0h1.3v1.301h-1.3zm3.9 0h1.3v1.301h-1.3zm2.601 0h1.3v1.301h-1.3zm1.3 0h1.3v1.301h-1.3zm1.3 0h1.3v1.301h-1.3zm5.201 0h1.3v1.301h-1.3zm1.3 0h1.3v1.301h-1.3zm2.6 0h1.301v1.301h-1.3Zm-46.806 1.301h1.3v1.3h-1.3Zm1.3 0h1.3v1.3h-1.3Zm1.3 0h1.3v1.3h-1.3zm1.3 0h1.3v1.3h-1.3zm1.3 0h1.3v1.3h-1.3zm1.3 0h1.301v1.3h-1.3zm2.601 0h1.3v1.3h-1.3zm1.3 0h1.3v1.3h-1.3zm2.6 0h1.301v1.3h-1.3zm1.301 0h1.3v1.3h-1.3zm5.2 0h1.301v1.3h-1.3zm6.502 0h1.3v1.3h-1.3zm1.3 0h1.3v1.3h-1.3zm2.6 0h1.3v1.3h-1.3zm1.3 0h1.3v1.3h-1.3zm3.901 0h1.3v1.3h-1.3zm1.3 0h1.3v1.3h-1.3zm1.3 0h1.3v1.3h-1.3zm3.901 0h1.3v1.3h-1.3zm1.3 0h1.3v1.3h-1.3zm2.6 0h1.3v1.3h-1.3zm-45.506 1.3h1.3v1.3h-1.3Zm3.9 0h1.3v1.3h-1.3zm1.3 0h1.3v1.3h-1.3zm1.3 0h1.301v1.3h-1.3zm1.301 0h1.3v1.3h-1.3zm1.3 0h1.3v1.3h-1.3zm3.9 0h1.301v1.3h-1.3zm1.301 0h1.3v1.3h-1.3zm2.6 0h1.3v1.3h-1.3Zm1.3 0h1.3v1.3h-1.3zm1.3 0h1.301v1.3h-1.3zm2.601 0h1.3v1.3h-1.3zm2.6 0h1.3v1.3h-1.3zm3.901 0h1.3v1.3h-1.3zm3.9 0h1.3v1.3h-1.3zm1.3 0h1.301v1.3h-1.3zm3.901 0h1.3v1.3h-1.3zm1.3 0h1.3v1.3h-1.3zm2.601 0h1.3v1.3h-1.3zm1.3 0h1.3v1.3h-1.3zm1.3 0h1.3v1.3h-1.3zm2.6 0h1.301v1.3h-1.3zm-45.506 1.3h1.3v1.3h-1.3Zm1.3 0h1.3v1.3h-1.3zm2.6 0h1.3v1.3h-1.3zm6.502 0h1.3v1.3h-1.3zm3.9 0h1.3v1.3h-1.3zm1.3 0h1.3v1.3h-1.3Zm1.3 0h1.3v1.3h-1.3zm2.601 0h1.3v1.3h-1.3zm1.3 0h1.3v1.3h-1.3zm1.3 0h1.3v1.3h-1.3zm1.3 0h1.3v1.3h-1.3zm2.601 0h1.3v1.3h-1.3zm1.3 0h1.3v1.3h-1.3zm1.3 0h1.3v1.3h-1.3zm3.9 0h1.301v1.3h-1.3zm6.502 0h1.3v1.3h-1.3zm3.9 0h1.3v1.3h-1.3zm1.3 0h1.3v1.3h-1.3zm-37.705 1.3h1.3v1.3h-1.3zm5.2 0h1.301v1.3h-1.3zm6.502 0h1.3v1.3h-1.3zm6.5 0h1.301v1.3h-1.3zm5.202 0h1.3v1.3h-1.3zm1.3 0h1.3v1.3h-1.3zm2.6 0h1.3v1.3h-1.3zm1.3 0h1.3v1.3h-1.3zm1.3 0h1.3v1.3h-1.3zm1.3 0h1.3v1.3h-1.3zm1.3 0h1.301v1.3h-1.3zm1.301 0h1.3v1.3h-1.3zm2.6 0h1.3v1.3h-1.3zm1.3 0h1.3v1.3h-1.3zm1.3 0h1.301v1.3h-1.3zm-45.506 1.3h1.3v1.301h-1.3Zm1.3 0h1.3v1.301h-1.3zm3.9 0h1.301v1.301h-1.3zm2.601 0h1.3v1.301h-1.3zm1.3 0h1.3v1.301h-1.3zm2.6 0h1.301v1.301h-1.3zm2.601 0h1.3v1.301h-1.3zm2.6 0h1.3v1.301h-1.3zm2.601 0h1.3v1.301h-1.3zm2.6 0h1.3v1.301h-1.3zm3.901 0h1.3v1.301h-1.3zm6.5 0h1.301v1.301h-1.3zm3.901 0h1.3v1.301h-1.3zm1.3 0h1.3v1.301h-1.3zm3.901 0h1.3v1.301h-1.3zm3.9 0h1.301v1.301h-1.3zm-45.506 1.301h1.3v1.3h-1.3Zm1.3 0h1.3v1.3h-1.3zm2.6 0h1.3v1.3h-1.3zm2.601 0h1.3v1.3h-1.3zm1.3 0h1.3v1.3h-1.3zm3.9 0h1.301v1.3h-1.3zm2.601 0h1.3v1.3h-1.3zm1.3 0h1.3v1.3h-1.3Zm2.6 0h1.301v1.3h-1.3zm1.301 0h1.3v1.3h-1.3zm1.3 0h1.3v1.3h-1.3zm6.501 0h1.3v1.3h-1.3zm2.6 0h1.3v1.3h-1.3zm1.3 0h1.3v1.3h-1.3zm2.601 0h1.3v1.3h-1.3zm1.3 0h1.3v1.3h-1.3zm1.3 0h1.3v1.3h-1.3zm1.3 0h1.3v1.3h-1.3zm2.601 0h1.3v1.3h-1.3zm1.3 0h1.3v1.3h-1.3zm1.3 0h1.3v1.3h-1.3zm2.6 0h1.301v1.3h-1.3Zm-46.806 1.3h1.3v1.3h-1.3Zm1.3 0h1.3v1.3h-1.3Zm1.3 0h1.3v1.3h-1.3zm1.3 0h1.3v1.3h-1.3zm2.6 0h1.301v1.3h-1.3zm2.601 0h1.3v1.3h-1.3zm2.6 0h1.3v1.3h-1.3zm1.3 0h1.301v1.3h-1.3zm3.901 0h1.3v1.3h-1.3Zm3.901 0h1.3v1.3h-1.3zm2.6 0h1.3v1.3h-1.3zm1.3 0h1.3v1.3h-1.3zm1.3 0h1.301v1.3h-1.3zm1.301 0h1.3v1.3h-1.3zm2.6 0h1.3v1.3h-1.3zm2.6 0h1.3v1.3h-1.3zm3.901 0h1.3v1.3h-1.3zm3.9 0h1.301v1.3h-1.3zm3.901 0h1.3v1.3h-1.3zm1.3 0h1.3v1.3h-1.3zm-45.506 1.3h1.3v1.3h-1.3Zm1.3 0h1.3v1.3h-1.3Zm3.9 0h1.3v1.3h-1.3zm1.3 0h1.301v1.3h-1.3zm1.301 0h1.3v1.3h-1.3zm3.9 0h1.3v1.3h-1.3zm2.601 0h1.3v1.3h-1.3zm1.3 0h1.3v1.3h-1.3zm1.3 0h1.3v1.3h-1.3Zm1.3 0h1.3v1.3h-1.3zm1.3 0h1.301v1.3h-1.3zm1.301 0h1.3v1.3h-1.3zm1.3 0h1.3v1.3h-1.3zm1.3 0h1.3v1.3h-1.3zm2.6 0h1.301v1.3h-1.3zm1.301 0h1.3v1.3h-1.3zm3.9 0h1.3v1.3h-1.3zm1.3 0h1.3v1.3h-1.3zm1.3 0h1.301v1.3h-1.3zm1.301 0h1.3v1.3h-1.3zm2.6 0h1.3v1.3h-1.3zm3.901 0h1.3v1.3h-1.3zm2.6 0h1.3v1.3h-1.3zm1.3 0h1.3v1.3h-1.3zm1.3 0h1.301v1.3h-1.3Zm-46.806 1.3h1.3v1.3h-1.3Zm1.3 0h1.3v1.3h-1.3Zm1.3 0h1.3v1.3h-1.3zm6.501 0h1.3v1.3h-1.3zm1.3 0h1.3v1.3h-1.3zm1.3 0h1.3v1.3h-1.3zm1.3 0h1.301v1.3h-1.3zm1.301 0h1.3v1.3h-1.3zm5.2 0h1.301v1.3h-1.3zm1.301 0h1.3v1.3h-1.3zm3.9 0h1.3v1.3h-1.3zm1.3 0h1.301v1.3h-1.3zm1.301 0h1.3v1.3h-1.3zm1.3 0h1.3v1.3h-1.3zm1.3 0h1.3v1.3h-1.3zm1.3 0h1.3v1.3h-1.3zm2.6 0h1.301v1.3h-1.3zm1.301 0h1.3v1.3h-1.3zm1.3 0h1.3v1.3h-1.3zm3.9 0h1.301v1.3h-1.3zm1.301 0h1.3v1.3h-1.3zm5.2 0h1.301v1.3h-1.3zm-41.605 1.3h1.3v1.301h-1.3zm2.6 0h1.3v1.301h-1.3zm3.9 0h1.3v1.301h-1.3zm1.3 0h1.301v1.301h-1.3zm1.301 0h1.3v1.301h-1.3zm2.6 0h1.3v1.301h-1.3Zm1.3 0h1.3v1.301h-1.3zm3.901 0h1.3v1.301h-1.3zm6.501 0h1.3v1.301h-1.3zm3.9 0h1.3v1.301h-1.3zm1.3 0h1.301v1.301h-1.3zm1.301 0h1.3v1.301h-1.3zm1.3 0h1.3v1.301h-1.3zm2.6 0h1.3v1.301h-1.3zm2.601 0h1.3v1.301h-1.3zm2.6 0h1.3v1.301h-1.3zm1.3 0h1.3v1.301h-1.3zm1.3 0h1.301v1.301h-1.3zm-44.206 1.301h1.3v1.3h-1.3zm1.3 0h1.3v1.3h-1.3zm1.3 0h1.3v1.3h-1.3zm3.901 0h1.3v1.3h-1.3zm2.6 0h1.3v1.3h-1.3zm3.901 0h1.3v1.3h-1.3zm1.3 0h1.3v1.3h-1.3Zm6.501 0h1.3v1.3h-1.3zm1.3 0h1.3v1.3h-1.3zm1.3 0h1.301v1.3h-1.3zm1.301 0h1.3v1.3h-1.3zm1.3 0h1.3v1.3h-1.3zm1.3 0h1.3v1.3h-1.3zm3.9 0h1.301v1.3h-1.3zm2.601 0h1.3v1.3h-1.3zm9.102 0h1.3v1.3h-1.3zm-45.507 1.3h1.3v1.3h-1.3Zm1.3 0h1.3v1.3h-1.3Zm2.6 0h1.3v1.3h-1.3zm1.3 0h1.3v1.3h-1.3zm2.601 0h1.3v1.3h-1.3zm1.3 0h1.3v1.3h-1.3zm2.6 0h1.3v1.3h-1.3zm7.802 0h1.3v1.3h-1.3zm1.3 0h1.3v1.3h-1.3zm2.6 0h1.3v1.3h-1.3zm2.6 0h1.301v1.3h-1.3zm2.601 0h1.3v1.3h-1.3zm5.2 0h1.301v1.3h-1.3zm1.301 0h1.3v1.3h-1.3zm1.3 0h1.3v1.3h-1.3zm1.3 0h1.3v1.3h-1.3zm3.901 0h1.3v1.3h-1.3zm2.6 0h1.3v1.3h-1.3zm1.3 0h1.3v1.3h-1.3zm1.3 0h1.301v1.3h-1.3zm-45.506 1.3h1.3v1.3h-1.3Zm1.3 0h1.3v1.3h-1.3zm1.3 0h1.3v1.3h-1.3zm2.6 0h1.301v1.3h-1.3zm2.601 0h1.3v1.3h-1.3zm1.3 0h1.3v1.3h-1.3zm1.3 0h1.3v1.3h-1.3zm1.3 0h1.301v1.3h-1.3zm2.601 0h1.3v1.3h-1.3zm3.9 0h1.301v1.3h-1.3zm5.202 0h1.3v1.3h-1.3zm1.3 0h1.3v1.3h-1.3zm1.3 0h1.3v1.3h-1.3zm3.9 0h1.3v1.3h-1.3zm3.901 0h1.3v1.3h-1.3zm1.3 0h1.3v1.3h-1.3zm1.3 0h1.3v1.3h-1.3zm9.102 0h1.3v1.3h-1.3Zm-46.807 1.3h1.3v1.3h-1.3Zm1.3 0h1.3v1.3h-1.3Zm1.3 0h1.3v1.3h-1.3zm1.3 0h1.3v1.3h-1.3zm1.3 0h1.3v1.3h-1.3zm1.3 0h1.301v1.3h-1.3zm1.301 0h1.3v1.3h-1.3zm1.3 0h1.3v1.3h-1.3zm1.3 0h1.3v1.3h-1.3zm1.3 0h1.3v1.3h-1.3zm3.901 0h1.3v1.3h-1.3zm1.3 0h1.3v1.3h-1.3Zm1.3 0h1.3v1.3h-1.3zm1.3 0h1.301v1.3h-1.3zm2.601 0h1.3v1.3h-1.3zm2.6 0h1.3v1.3h-1.3zm3.901 0h1.3v1.3h-1.3zm2.6 0h1.3v1.3h-1.3zm1.3 0h1.3v1.3h-1.3zm1.3 0h1.301v1.3h-1.3zm1.301 0h1.3v1.3h-1.3zm2.6 0h1.3v1.3h-1.3zm1.3 0h1.3v1.3h-1.3zm2.601 0h1.3v1.3h-1.3zm2.6 0h1.3v1.3h-1.3zm1.3 0h1.3v1.3h-1.3zm1.3 0h1.301v1.3h-1.3Zm-46.806 1.3h1.3v1.3h-1.3Zm1.3 0h1.3v1.3h-1.3Zm2.6 0h1.3v1.3h-1.3zm2.6 0h1.301v1.3h-1.3zm5.202 0h1.3v1.3h-1.3zm6.5 0h1.3v1.3h-1.3zm2.601 0h1.3v1.3h-1.3zm3.9 0h1.3v1.3h-1.3zm2.601 0h1.3v1.3h-1.3zm2.6 0h1.3v1.3h-1.3zm3.9 0h1.301v1.3h-1.3zm2.601 0h1.3v1.3h-1.3zm1.3 0h1.3v1.3h-1.3zm2.6 0h1.301v1.3h-1.3zm5.202 0h1.3v1.3h-1.3zm-45.507 1.3h1.3v1.301h-1.3Zm2.6 0h1.3v1.301h-1.3zm2.6 0h1.3v1.301h-1.3zm1.3 0h1.301v1.301h-1.3zm1.301 0h1.3v1.301h-1.3zm2.6 0h1.3v1.301h-1.3zm1.3 0h1.3v1.301h-1.3zm2.601 0h1.3v1.301h-1.3zm1.3 0h1.3v1.301h-1.3zm2.6 0h1.3v1.301h-1.3zm1.3 0h1.301v1.301h-1.3zm1.301 0h1.3v1.301h-1.3zm1.3 0h1.3v1.301h-1.3zm1.3 0h1.3v1.301h-1.3zm3.901 0h1.3v1.301h-1.3zm1.3 0h1.3v1.301h-1.3zm3.9 0h1.3v1.301h-1.3zm2.601 0h1.3v1.301h-1.3zm1.3 0h1.3v1.301h-1.3zm1.3 0h1.3v1.301h-1.3zm1.3 0h1.3v1.301h-1.3zm2.601 0h1.3v1.301h-1.3zm2.6 0h1.3v1.301h-1.3zm1.3 0h1.3v1.301h-1.3zm1.3 0h1.301v1.301h-1.3Zm-46.806 1.301h1.3v1.3h-1.3Zm2.6 0h1.3v1.3h-1.3zm1.3 0h1.3v1.3h-1.3zm2.6 0h1.301v1.3h-1.3zm2.601 0h1.3v1.3h-1.3zm1.3 0h1.3v1.3h-1.3zm3.901 0h1.3v1.3h-1.3zm5.2 0h1.301v1.3h-1.3zm1.301 0h1.3v1.3h-1.3zm2.6 0h1.3v1.3h-1.3zm2.6 0h1.301v1.3h-1.3zm1.301 0h1.3v1.3h-1.3zm1.3 0h1.3v1.3h-1.3zm1.3 0h1.3v1.3h-1.3zm1.3 0h1.3v1.3h-1.3zm7.802 0h1.3v1.3h-1.3zm7.8 0h1.301v1.3h-1.3Zm-46.806 1.3h1.3v1.3h-1.3Zm2.6 0h1.3v1.3h-1.3zm2.6 0h1.3v1.3h-1.3zm1.3 0h1.301v1.3h-1.3zm1.301 0h1.3v1.3h-1.3zm1.3 0h1.3v1.3h-1.3zm2.6 0h1.3v1.3h-1.3zm2.601 0h1.3v1.3h-1.3zm2.6 0h1.3v1.3h-1.3Zm1.3 0h1.3v1.3h-1.3zm1.3 0h1.301v1.3h-1.3zm2.601 0h1.3v1.3h-1.3zm6.501 0h1.3v1.3h-1.3zm2.6 0h1.3v1.3h-1.3zm1.3 0h1.3v1.3h-1.3zm1.3 0h1.301v1.3h-1.3zm2.601 0h1.3v1.3h-1.3zm1.3 0h1.3v1.3h-1.3zm1.3 0h1.3v1.3h-1.3zm1.3 0h1.301v1.3h-1.3zm1.301 0h1.3v1.3h-1.3zm2.6 0h1.3v1.3h-1.3zm-33.804 1.3h1.3v1.3h-1.3zm5.2 0h1.3v1.3h-1.3zm1.3 0h1.3v1.3h-1.3Zm3.901 0h1.3v1.3h-1.3zm2.6 0h1.3v1.3h-1.3zm1.3 0h1.3v1.3h-1.3zm1.3 0h1.301v1.3h-1.3zm3.901 0h1.3v1.3h-1.3zm5.201 0h1.3v1.3h-1.3zm1.3 0h1.3v1.3h-1.3zm5.201 0h1.3v1.3h-1.3Zm-41.606 1.3h1.3v1.3h-1.3Zm1.3 0h1.3v1.3h-1.3Zm1.3 0h1.3v1.3h-1.3zm1.3 0h1.3v1.3h-1.3zm1.3 0h1.3v1.3h-1.3zm1.3 0h1.301v1.3h-1.3zm1.301 0h1.3v1.3h-1.3zm2.6 0h1.3v1.3h-1.3zm1.3 0h1.3v1.3h-1.3zm1.3 0h1.301v1.3h-1.3zm5.202 0h1.3v1.3h-1.3zm1.3 0h1.3v1.3h-1.3zm7.801 0h1.3v1.3h-1.3zm1.3 0h1.3v1.3h-1.3zm2.6 0h1.3v1.3h-1.3zm5.201 0h1.3v1.3h-1.3zm2.6 0h1.3v1.3h-1.3zm2.601 0h1.3v1.3h-1.3zm2.6 0h1.3v1.3h-1.3zm1.3 0h1.3v1.3h-1.3zm1.3 0h1.301v1.3h-1.3Zm-46.806 1.3h1.3v1.301h-1.3Zm7.801 0h1.3v1.301h-1.3zm3.9 0h1.3v1.301h-1.3zm1.3 0h1.301v1.301h-1.3zm2.601 0h1.3v1.301h-1.3zm2.6 0h1.3v1.301h-1.3zm5.201 0h1.3v1.301h-1.3zm1.3 0h1.3v1.301h-1.3zm2.601 0h1.3v1.301h-1.3zm6.5 0h1.301v1.301h-1.3zm2.601 0h1.3v1.301h-1.3zm5.201 0h1.3v1.301h-1.3zm1.3 0h1.3v1.301h-1.3zm2.6 0h1.3v1.301h-1.3zm-45.506 1.301h1.3v1.3h-1.3Zm2.6 0h1.3v1.3h-1.3zm1.3 0h1.3v1.3h-1.3zm1.3 0h1.3v1.3h-1.3zm2.601 0h1.3v1.3h-1.3zm2.6 0h1.3v1.3h-1.3zm5.201 0h1.3v1.3h-1.3zm1.3 0h1.3v1.3h-1.3Zm1.3 0h1.3v1.3h-1.3zm1.3 0h1.301v1.3h-1.3zm1.301 0h1.3v1.3h-1.3zm1.3 0h1.3v1.3h-1.3zm1.3 0h1.3v1.3h-1.3zm2.6 0h1.301v1.3h-1.3zm2.601 0h1.3v1.3h-1.3zm1.3 0h1.3v1.3h-1.3zm1.3 0h1.3v1.3h-1.3zm1.3 0h1.3v1.3h-1.3zm1.3 0h1.301v1.3h-1.3zm1.301 0h1.3v1.3h-1.3zm1.3 0h1.3v1.3h-1.3zm1.3 0h1.3v1.3h-1.3zm1.3 0h1.3v1.3h-1.3zm1.3 0h1.301v1.3h-1.3zm1.301 0h1.3v1.3h-1.3zm1.3 0h1.3v1.3h-1.3zm1.3 0h1.3v1.3h-1.3zm1.3 0h1.3v1.3h-1.3zm-45.506 1.3h1.3v1.3h-1.3Zm2.6 0h1.3v1.3h-1.3zm1.3 0h1.3v1.3h-1.3zm1.3 0h1.3v1.3h-1.3zm2.601 0h1.3v1.3h-1.3zm2.6 0h1.3v1.3h-1.3zm1.3 0h1.3v1.3h-1.3zm5.201 0h1.3v1.3h-1.3Zm3.901 0h1.3v1.3h-1.3zm1.3 0h1.3v1.3h-1.3zm1.3 0h1.3v1.3h-1.3zm1.3 0h1.3v1.3h-1.3zm1.3 0h1.301v1.3h-1.3zm1.301 0h1.3v1.3h-1.3zm2.6 0h1.3v1.3h-1.3zm3.9 0h1.301v1.3h-1.3zm2.601 0h1.3v1.3h-1.3zm1.3 0h1.3v1.3h-1.3zm1.3 0h1.3v1.3h-1.3zm2.601 0h1.3v1.3h-1.3zm2.6 0h1.3v1.3h-1.3zm1.3 0h1.3v1.3h-1.3zm1.3 0h1.301v1.3h-1.3Zm-46.806 1.3h1.3v1.3h-1.3Zm2.6 0h1.3v1.3h-1.3zm1.3 0h1.3v1.3h-1.3zm1.3 0h1.3v1.3h-1.3zm2.601 0h1.3v1.3h-1.3zm2.6 0h1.3v1.3h-1.3zm1.3 0h1.3v1.3h-1.3zm1.3 0h1.301v1.3h-1.3zm1.301 0h1.3v1.3h-1.3zm1.3 0h1.3v1.3h-1.3zm2.6 0h1.3v1.3h-1.3zm1.3 0h1.301v1.3h-1.3zm1.301 0h1.3v1.3h-1.3zm5.2 0h1.301v1.3h-1.3zm6.502 0h1.3v1.3h-1.3zm1.3 0h1.3v1.3h-1.3zm1.3 0h1.3v1.3h-1.3zm5.2 0h1.301v1.3h-1.3zm2.601 0h1.3v1.3h-1.3zm1.3 0h1.3v1.3h-1.3zm1.3 0h1.3v1.3h-1.3zm1.3 0h1.301v1.3h-1.3Zm-46.806 1.3h1.3v1.3h-1.3Zm7.801 0h1.3v1.3h-1.3zm2.6 0h1.3v1.3h-1.3zm1.3 0h1.3v1.3h-1.3zm2.601 0h1.3v1.3h-1.3zm5.2 0h1.301v1.3h-1.3zm7.802 0h1.3v1.3h-1.3zm1.3 0h1.3v1.3h-1.3zm6.501 0h1.3v1.3h-1.3zm1.3 0h1.3v1.3h-1.3zm3.9 0h1.301v1.3h-1.3zm1.301 0h1.3v1.3h-1.3zm5.2 0h1.301v1.3h-1.3Zm-46.806 1.3h1.3v1.301h-1.3Zm1.3 0h1.3v1.301h-1.3Zm1.3 0h1.3v1.301h-1.3zm1.3 0h1.3v1.301h-1.3zm1.3 0h1.3v1.301h-1.3zm1.3 0h1.301v1.301h-1.3zm1.301 0h1.3v1.301h-1.3zm2.6 0h1.3v1.301h-1.3zm2.6 0h1.301v1.301h-1.3zm1.301 0h1.3v1.301h-1.3zm1.3 0h1.3v1.301h-1.3zm3.9 0h1.301v1.301h-1.3zm2.601 0h1.3v1.301h-1.3zm6.501 0h1.3v1.301h-1.3zm2.6 0h1.3v1.301h-1.3zm1.3 0h1.3v1.301h-1.3zm1.3 0h1.301v1.301h-1.3zm3.901 0h1.3v1.301h-1.3zm1.3 0h1.3v1.301h-1.3zm5.201 0h1.3v1.301h-1.3zm1.3 0h1.3v1.301h-1.3zm1.3 0h1.301v1.301h-1.3z" style="fill:#000;stroke-width:.216698"/></g><g id="sbb"><path id="rect22814" d="M971.83 22.677h196.044v22.94H971.83z" style="fill:#fff;stroke-width:0"/><path id="rect397399" d="M973.281 23.927h192.107v20.659H973.281z" style="fill:#fff;stroke-width:0"/><path id="path2879" d="M973.28 44.374h60.703V24.139h-60.702v20.235Z" style="fill:#e42328;stroke-width:0"/><path id="path2881" d="M1009.012 32.708h6.564v-5.196h3.091v5.196h6.563l-5.28-5.196h3.918l6.745 6.745-6.745 6.744h-3.92l5.28-5.196h-6.56v5.196h-3.093v-5.196h-6.563l5.28 5.196h-3.916l-6.744-6.744 6.744-6.745h3.917" style="fill:#fff;stroke-width:0"/><path id="path2883" d="M1040.247 36.972c-.039 3.492 2.896 5.04 6.03 5.04 3.848 0 5.891-1.944 5.891-4.543 0-3.212-3.173-3.867-4.205-4.123-3.55-.913-4.224-1.052-4.224-2.142 0-1.19 1.15-1.606 2.143-1.606 1.488 0 2.698.435 2.796 2.143h3.015c0-3.273-2.717-4.561-5.672-4.561-2.559 0-5.296 1.388-5.296 4.285 0 2.658 2.122 3.471 4.226 4.026 2.082.554 4.203.813 4.203 2.339 0 1.448-1.666 1.766-2.757 1.766-1.666 0-3.133-.735-3.133-2.62" style="fill:#221e20;stroke-width:0"/><path id="path2885" d="M1057.203 29.933h2.915c1.11 0 2.143.277 2.143 1.626 0 1.19-.814 1.686-1.904 1.686h-3.154v-3.312Zm-3.113 11.741h6.861c2.559 0 5-1.23 5-4.106 0-1.764-.875-3.094-2.6-3.59a3.106 3.106 0 0 0 1.926-2.956c0-2.637-1.826-3.51-4.524-3.51h-6.663v14.162Zm3.113-6.307h3.39c1.329 0 2.241.576 2.241 2.023 0 1.467-1.07 1.865-2.3 1.865h-3.33" style="fill:#221e20;fill-rule:evenodd;stroke-width:0"/><path id="path2887" d="M1071.14 29.933h2.916c1.11 0 2.142.277 2.142 1.626 0 1.19-.813 1.686-1.904 1.686h-3.154v-3.312Zm-3.113 11.741h6.861c2.56 0 4.998-1.23 4.998-4.106 0-1.764-.872-3.094-2.598-3.59a3.106 3.106 0 0 0 1.924-2.956c0-2.637-1.824-3.51-4.522-3.51h-6.663v14.162Zm3.115-6.307h3.39c1.33 0 2.242.576 2.242 2.023 0 1.467-1.07 1.865-2.3 1.865h-3.331" style="fill:#221e20;fill-rule:evenodd;stroke-width:0"/><path id="path2889" d="M1099.666 32.272c-.377-3.272-2.994-5.096-6.108-5.096-4.384 0-6.96 3.273-6.96 7.477 0 4.086 2.576 7.358 6.96 7.358 3.471 0 5.91-2.26 6.227-5.792h-3.016c-.237 1.865-1.308 3.173-3.211 3.173-2.796 0-3.849-2.38-3.849-4.74 0-2.479 1.053-4.86 3.849-4.86 1.546 0 2.896 1.071 3.094 2.479" style="fill:#221e20;stroke-width:0"/><path id="path2891" d="M1101.702 41.674h3.114v-5.851h5.93v-2.42h-5.93v-3.272h6.842v-2.617h-9.956" style="fill:#221e20;stroke-width:0"/><path id="path2893" d="M1113.551 41.674h3.105v-5.851h5.924v-2.42h-5.926v-3.272h6.835v-2.617h-9.938" style="fill:#221e20;stroke-width:0"/><path id="path2895" d="M1130.233 41.674h3.122v-5.851h5.924v-2.42h-5.924v-3.272h6.834v-2.617h-9.955" style="fill:#221e20;stroke-width:0"/><path id="path2897" d="M1142.457 41.674h3.104v-5.851h5.924v-2.42h-5.924v-3.272h6.852v-2.617h-9.957" style="fill:#221e20;stroke-width:0"/><path id="path2899" d="M1153.554 36.972c-.035 3.492 2.89 5.04 6.031 5.04 3.854 0 5.889-1.944 5.889-4.543 0-3.212-3.177-3.867-4.194-4.123-3.55-.913-4.228-1.052-4.228-2.142 0-1.19 1.141-1.606 2.142-1.606 1.48 0 2.695.435 2.801 2.143h2.998c0-3.273-2.712-4.561-5.656-4.561-2.57 0-5.3 1.388-5.3 4.285 0 2.658 2.124 3.471 4.23 4.026 2.07.554 4.193.813 4.193 2.339 0 1.448-1.66 1.766-2.748 1.766-1.678 0-3.14-.735-3.14-2.62" style="fill:#221e20;stroke-width:0"/></g><g id="title"><path id="path523" d="M-.224 22.677h592.897c1.423 0 2.577 1.143 2.577 2.551v81.374c0 1.409-1.154 2.552-2.577 2.552H-.224Z" style="fill:#fff;stroke-width:0"/><text id="text745" x="22.102" y="48.444" style="font-style:normal;font-variant:normal;font-weight:400;font-stretch:normal;font-size:18px;font-family:SBBWeb-Light,&quot;SBB Web&quot;,Arial,&quot;SBB Web&quot;;-inkscape-font-specification:&quot;SBBWeb-Light, SBB Web, Arial, SBB Web, Normal&quot;;font-variant-ligatures:normal;font-variant-caps:normal;font-variant-numeric:normal;font-variant-east-asian:normal;isolation:isolate"><tspan id="tspan999" x="22.102" y="48.444">General-Abo, GA Night, GA-Monatskarte, Ausflugs-Abo,</tspan><tspan id="tspan1001" x="22.102" y="70.944">Tageskarte zum Halbtax sowie für Spartageskarte / Aktionstageskarte /</tspan><tspan id="tspan1003" x="22.102" y="93.444">Spartageskarte Gemeinde zusammen mit Halbtax-Abo</tspan></text></g><g id="legend"><rect id="rect426128-0-8-3-9-2" width="196.237" height="131.095" x="15.117" y="117.193" rx="2.551" ry="2.551" style="fill:#fff;stroke-width:0"/><g id="scaleline"><path id="rect2491" d="M22.815 226.519h135.509v13.898H22.815Z" style="fill:#fff;stroke-width:0"/><g id="text2343" style="isolation:isolate"><text id="text756" style="font-size:7px;font-family:SBBWeb-Roman,&quot;SBB Web&quot;,Arial,&quot;SBB Web&quot;;isolation:isolate" transform="translate(88.55 236.294)"><tspan id="tspan750" x="0" y="0">50</tspan><tspan id="tspan752" x="9.731" y="0" style="letter-spacing:.00342em">k</tspan><tspan id="tspan754" x="13.388" y="0">m</tspan></text></g><path id="path1881" d="M175.435 226.52v13.371l-152.168.074V226.52" style="fill:none;stroke:#000;stroke-width:.9031px;stroke-miterlimit:3"/></g><g id="g777"><text id="text763" style="font-style:normal;font-variant:normal;font-weight:400;font-stretch:normal;font-size:7px;font-family:SBBWeb-Roman,&quot;SBB Web&quot;,Arial,&quot;SBB Web&quot;;-inkscape-font-specification:&quot;SBBWeb-Roman, SBB Web, Arial, SBB Web, Normal&quot;;font-variant-ligatures:normal;font-variant-caps:normal;font-variant-numeric:normal;font-variant-east-asian:normal;isolation:isolate" transform="translate(22.21 158.543)"><tspan id="tspan1023" x="0" y="0">Bahnen</tspan></text><g id="g775"><path id="line765" d="M23.628 142.724h32.28" style="fill:none;stroke:#eb0000;stroke-width:1.41732px;stroke-linecap:square;stroke-miterlimit:3"/><g id="g773"><path id="line767" d="M23.628 147.113v0" style="fill:none;stroke:#eb0000;stroke-width:1.41732px;stroke-linecap:round;stroke-miterlimit:3"/><path id="line769" d="M26.563 147.113H54.44" style="fill:none;stroke:#eb0000;stroke-width:1.41732px;stroke-linecap:round;stroke-miterlimit:3;stroke-dasharray:0,0,0,2.93449"/><path id="line771" d="M55.908 147.113v0" style="fill:none;stroke:#eb0000;stroke-width:1.41732px;stroke-linecap:round;stroke-miterlimit:3"/></g></g></g><g id="g795"><text id="text781" style="font-style:normal;font-variant:normal;font-weight:400;font-stretch:normal;font-size:7px;font-family:SBBWeb-Roman,&quot;SBB Web&quot;,Arial,&quot;SBB Web&quot;;-inkscape-font-specification:&quot;SBBWeb-Roman, SBB Web, Arial, SBB Web, Normal&quot;;font-variant-ligatures:normal;font-variant-caps:normal;font-variant-numeric:normal;font-variant-east-asian:normal;isolation:isolate" transform="translate(121.817 158.665)"><tspan id="tspan1260" x="0" y="0">Seilbahnen</tspan></text><g id="g793"><path id="line783" d="M122.891 142.724h32.279" style="fill:none;stroke:#000;stroke-width:1.41732px;stroke-linecap:square;stroke-miterlimit:3"/><g id="g791"><path id="line785" d="M122.891 147.113v0" style="fill:none;stroke:#000;stroke-width:1.41732px;stroke-linecap:round;stroke-miterlimit:3"/><path id="line787" d="M125.825 147.113h27.878" style="fill:none;stroke:#000;stroke-width:1.41732px;stroke-linecap:round;stroke-miterlimit:3;stroke-dasharray:0,0,0,2.93449"/><path id="line789" d="M155.17 147.113v0" style="fill:none;stroke:#000;stroke-width:1.41732px;stroke-linecap:round;stroke-miterlimit:3"/></g></g></g><g id="g838"><g id="text402292-9-5-9-7-1" style="isolation:isolate"><text id="text809" style="font-size:7px;font-family:SBBWeb-Roman,&quot;SBB Web&quot;,Arial,&quot;SBB Web&quot;;isolation:isolate" transform="translate(171.621 196.83)"><tspan id="tspan23778" x="0" y="0">Gültigkeit</tspan><tspan id="tspan23780" x="0" y="8.75">vor Ort</tspan><tspan id="tspan23782" x="0" y="17.5">anfragen</tspan></text></g><g id="g836"><path id="line830" d="M172.523 185.415v0" style="fill:none;stroke:#999;stroke-width:1.41732px;stroke-linecap:round;stroke-miterlimit:3"/><path id="line832" d="M175.457 185.415h27.878" style="fill:none;stroke:#999;stroke-width:1.41732px;stroke-linecap:round;stroke-miterlimit:3;stroke-dasharray:0,0,0,2.93449"/><path id="line834" d="M204.802 185.415v0" style="fill:none;stroke:#999;stroke-width:1.41732px;stroke-linecap:round;stroke-miterlimit:3"/></g></g><g id="g866"><text id="text852" style="font-style:normal;font-variant:normal;font-weight:400;font-stretch:normal;font-size:7px;font-family:SBBWeb-Roman,&quot;SBB Web&quot;,Arial,&quot;SBB Web&quot;;-inkscape-font-specification:&quot;SBBWeb-Roman, SBB Web, Arial, SBB Web, Normal&quot;;font-variant-ligatures:normal;font-variant-caps:normal;font-variant-numeric:normal;font-variant-east-asian:normal;isolation:isolate" transform="translate(171.621 158.665)"><tspan id="tspan1306" x="0" y="0">Schiffe</tspan></text><g id="g864"><path id="line854" d="M172.523 142.724h32.279" style="fill:none;stroke:#2a6698;stroke-width:1.41732px;stroke-linecap:square;stroke-miterlimit:3"/><g id="g862"><path id="line856" d="M172.523 147.113v0" style="fill:none;stroke:#2a6698;stroke-width:1.41732px;stroke-linecap:round;stroke-miterlimit:3"/><path id="line858" d="M175.457 147.113h27.878" style="fill:none;stroke:#2a6698;stroke-width:1.41732px;stroke-linecap:round;stroke-miterlimit:3;stroke-dasharray:0,0,0,2.93449"/><path id="line860" d="M204.802 147.113v0" style="fill:none;stroke:#2a6698;stroke-width:1.41732px;stroke-linecap:round;stroke-miterlimit:3"/></g></g></g><g id="g904"><text id="text880" style="font-style:normal;font-variant:normal;font-weight:400;font-stretch:normal;font-size:7px;font-family:SBBWeb-Roman,&quot;SBB Web&quot;,Arial,&quot;SBB Web&quot;;-inkscape-font-specification:&quot;SBBWeb-Roman, SBB Web, Arial, SBB Web, Normal&quot;;font-variant-ligatures:normal;font-variant-caps:normal;font-variant-numeric:normal;font-variant-east-asian:normal;isolation:isolate" transform="translate(72.072 158.652)"><tspan id="tspan1240" x="0" y="0">Busse</tspan></text><g id="g902"><path id="line882" d="M73.547 142.724h31.707" style="fill:none;stroke:#3b3b3b;stroke-width:1.98425px;stroke-linecap:square;stroke-miterlimit:3"/><g id="g890"><path id="line884" d="M73.26 147.113v0" style="fill:none;stroke:#3b3b3b;stroke-width:1.98425px;stroke-linecap:round;stroke-miterlimit:3"/><path id="line886" d="M76.194 147.113h27.878" style="fill:none;stroke:#3b3b3b;stroke-width:1.98425px;stroke-linecap:round;stroke-miterlimit:3;stroke-dasharray:0,0,0,2.93449"/><path id="line888" d="M105.539 147.113v0" style="fill:none;stroke:#3b3b3b;stroke-width:1.98425px;stroke-linecap:round;stroke-miterlimit:3"/></g><path id="line892" d="M73.26 142.724h32.279" style="fill:none;stroke:#fbd700;stroke-width:1.41732px;stroke-linecap:square;stroke-miterlimit:3"/><g id="g900"><path id="line894" d="M73.26 147.113v0" style="fill:none;stroke:#fbd700;stroke-width:1.41732px;stroke-linecap:round;stroke-miterlimit:3"/><path id="line896" d="M76.194 147.113h27.878" style="fill:none;stroke:#fbd700;stroke-width:1.41732px;stroke-linecap:round;stroke-miterlimit:3;stroke-dasharray:0,0,0,2.93449"/><path id="line898" d="M105.539 147.113v0" style="fill:none;stroke:#fbd700;stroke-width:1.41732px;stroke-linecap:round;stroke-miterlimit:3"/></g></g></g><g id="g937"><g id="text402292-9-5-9" style="isolation:isolate"><text id="text920" style="font-size:7px;font-family:SBBWeb-Roman,&quot;SBB Web&quot;,Arial,&quot;SBB Web&quot;;isolation:isolate" transform="translate(22.21 196.83)">Freie Fahrt</text></g><g id="g935"><path id="line923" d="M23.485 172.15h32.279" style="fill:none;stroke:#eb0000;stroke-width:1.41732px;stroke-linecap:square;stroke-miterlimit:3"/><path id="line925" d="M23.485 180.994h32.279" style="fill:none;stroke:#000;stroke-width:1.41732px;stroke-linecap:square;stroke-miterlimit:3"/><path id="line927" d="M23.486 185.415h32.279" style="fill:none;stroke:#2a6698;stroke-width:1.41732px;stroke-linecap:square;stroke-miterlimit:3"/><g id="g933"><path id="line929" d="M23.772 176.572h31.707" style="fill:none;stroke:#3b3b3b;stroke-width:1.98425px;stroke-linecap:square;stroke-miterlimit:3"/><path id="line931" d="M23.485 176.572h32.279" style="fill:none;stroke:#fbd700;stroke-width:1.41732px;stroke-linecap:square;stroke-miterlimit:3"/></g></g></g><g id="g1019"><text id="text975" style="font-style:normal;font-variant:normal;font-weight:400;font-stretch:normal;font-size:7px;font-family:SBBWeb-Roman,&quot;SBB Web&quot;,Arial,&quot;SBB Web&quot;;-inkscape-font-specification:&quot;SBBWeb-Roman, SBB Web, Arial, SBB Web, Normal&quot;;font-variant-ligatures:normal;font-variant-caps:normal;font-variant-numeric:normal;font-variant-east-asian:normal;isolation:isolate" transform="translate(72.014 196.83)"><tspan id="tspan14978" x="0" y="0">Fahrt zum</tspan><tspan id="tspan14980" x="0" y="8.75">ermässigten</tspan><tspan id="tspan14982" x="0" y="17.5">Preis</tspan></text><g id="g983"><path id="line977" d="M73.261 172.15v0" style="fill:none;stroke:#eb0000;stroke-width:1.41732px;stroke-linecap:round;stroke-miterlimit:3"/><path id="line979" d="M76.195 172.15h27.878" style="fill:none;stroke:#eb0000;stroke-width:1.41732px;stroke-linecap:round;stroke-miterlimit:3;stroke-dasharray:0,0,0,2.93449"/><path id="line981" d="M105.54 172.15v0" style="fill:none;stroke:#eb0000;stroke-width:1.41732px;stroke-linecap:round;stroke-miterlimit:3"/></g><g id="g991"><path id="line985" d="M73.261 180.994v0" style="fill:none;stroke:#000;stroke-width:1.41732px;stroke-linecap:round;stroke-miterlimit:3"/><path id="line987" d="M76.195 180.994h27.878" style="fill:none;stroke:#000;stroke-width:1.41732px;stroke-linecap:round;stroke-miterlimit:3;stroke-dasharray:0,0,0,2.93449"/><path id="line989" d="M105.54 180.994v0" style="fill:none;stroke:#000;stroke-width:1.41732px;stroke-linecap:round;stroke-miterlimit:3"/></g><g id="g999"><path id="line993" d="M73.261 185.415v0" style="fill:none;stroke:#2a6698;stroke-width:1.41732px;stroke-linecap:round;stroke-miterlimit:3"/><path id="line995" d="M76.195 185.415h27.878" style="fill:none;stroke:#2a6698;stroke-width:1.41732px;stroke-linecap:round;stroke-miterlimit:3;stroke-dasharray:0,0,0,2.93449"/><path id="line997" d="M105.54 185.415v0" style="fill:none;stroke:#2a6698;stroke-width:1.41732px;stroke-linecap:round;stroke-miterlimit:3"/></g><g id="g1017"><g id="g1007"><path id="line1001" d="M73.261 176.572v0" style="fill:none;stroke:#3b3b3b;stroke-width:1.98425px;stroke-linecap:round;stroke-miterlimit:3"/><path id="line1003" d="M76.195 176.572h27.878" style="fill:none;stroke:#3b3b3b;stroke-width:1.98425px;stroke-linecap:round;stroke-miterlimit:3;stroke-dasharray:0,0,0,2.93449"/><path id="line1005" d="M105.54 176.572v0" style="fill:none;stroke:#3b3b3b;stroke-width:1.98425px;stroke-linecap:round;stroke-miterlimit:3"/></g><g id="g1015"><path id="line1009" d="M73.261 176.572v0" style="fill:none;stroke:#fbd700;stroke-width:1.41732px;stroke-linecap:round;stroke-miterlimit:3"/><path id="line1011" d="M76.195 176.572h27.878" style="fill:none;stroke:#fbd700;stroke-width:1.41732px;stroke-linecap:round;stroke-miterlimit:3;stroke-dasharray:0,0,0,2.93449"/><path id="line1013" d="M105.54 176.572v0" style="fill:none;stroke:#fbd700;stroke-width:1.41732px;stroke-linecap:round;stroke-miterlimit:3"/></g></g></g><g id="g1048"><g id="text402292-9-5-9-7" style="isolation:isolate"><text id="text1043" style="font-style:normal;font-variant:normal;font-weight:400;font-stretch:normal;font-size:7px;font-family:SBBWeb-Roman,&quot;SBB Web&quot;,Arial,&quot;SBB Web&quot;;-inkscape-font-specification:&quot;SBBWeb-Roman, SBB Web, Arial, SBB Web, Normal&quot;;font-variant-ligatures:normal;font-variant-caps:normal;font-variant-numeric:normal;font-variant-east-asian:normal;isolation:isolate" transform="translate(121.818 196.83)"><tspan id="tspan19352" x="0" y="0">Keine</tspan><tspan id="tspan19354" x="0" y="8.75">Ermässigung</tspan></text></g><path id="line1046" d="M122.891 185.415h32.28" style="fill:none;stroke:#999;stroke-width:1.41732px;stroke-linecap:square;stroke-miterlimit:3"/></g><g id="state-publisher"><g id="text2350" style="isolation:isolate" transform="translate(7.5)"><text id="text1052" style="font-size:7px;font-family:SBBWeb-Roman,&quot;SBB Web&quot;,Arial,&quot;SBB Web&quot;;isolation:isolate" transform="translate(51.046 128.648)"><tspan id="tspan1050" x="0" y="0">***publishedAt***</tspan></text></g><g id="text2347" style="isolation:isolate"><text id="text1057" style="font-style:normal;font-variant:normal;font-weight:400;font-stretch:normal;font-size:7px;font-family:SBBWeb-Roman,&quot;SBB Web&quot;,Arial,&quot;SBB Web&quot;;-inkscape-font-specification:&quot;SBBWeb-Roman, SBB Web, Arial, SBB Web, Normal&quot;;font-variant-ligatures:normal;font-variant-caps:normal;font-variant-numeric:normal;font-variant-east-asian:normal;isolation:isolate" transform="translate(22.21 128.648)"><tspan id="tspan30318" x="0" y="0">Erstellt am</tspan></text></g></g></g></svg>