<svg xmlns="http://www.w3.org/2000/svg" id="a4" width="297mm" height="210mm" version="1.1" viewBox="0 0 841.89 595.276"><path id="rect2" d="M0 0h841.89v595.276H0z" style="fill:none;stroke-width:0"/><g id="rand" transform="translate(1.5 3.19)"><path id="rect1034" d="M68.032 549.566h549.77c.913 0 1.653.785 1.653 1.753v22.005c0 .968-.74 1.753-1.653 1.753H68.032Z" style="fill:#fff;stroke-width:0"/><text id="text493" x="72.317" y="570.419" style="font-style:normal;font-variant:normal;font-weight:400;font-stretch:normal;font-size:5px;font-family:SBBWeb-Roman,&quot;SBB Web&quot;,Arial,&quot;SBB Web&quot;;-inkscape-font-specification:&quot;SBBWeb-Roman, SBB Web, Arial, SBB Web, Normal&quot;;font-variant-ligatures:normal;font-variant-caps:normal;font-variant-numeric:normal;font-variant-east-asian:normal;isolation:isolate"><tspan id="tspan46832" x="72.317" y="570.419">Quelle: OpenStreetMap contributors © SBB/CFF/FFS www.traﬁmage.ch www.geops.ch</tspan></text><text xml:space="preserve" id="text26533" x="72.539" y="557.724" style="font-size:5px;line-height:1;font-family:SBBWeb-Roman,&quot;SBB Web&quot;,Arial,&quot;SBB Web&quot;"><tspan id="tspan26531" x="72.539" y="557.724" style="stroke-width:.75">Auf gewissen Autobuslinien ist ein Zuschlag und/oder eine Platzreservierung erforderlich. Bitte beachten Sie zudem, dass vom 21. März bis zum 31. Oktober für Velos in InterCity (IC)-Zügen eine Veloplatzreservation obligatorisch ist.</tspan><tspan id="tspan26535" x="72.539" y="562.724" style="stroke-width:.75">Bitte beachten Sie die Hinweise für die gewünschte Verbindung im (Online-)Fahrplan. Aus Platzgründen sind, je nach Zoomstufe, nicht alle Linien angegeben. Alle Angaben ohne Gewähr. Änderungen vorbehalten. Es gilt der Anwendungsbereich.</tspan></text></g><g id="qr-code"><path id="rect23865" d="M17.008 527.244h51.024v51.024H17.008z" style="fill:#fff;stroke-width:0"/><path id="path23867" d="M18.466 528.702h1.458v1.458h-1.458zm1.458 0h1.457v1.458h-1.457zm1.457 0h1.458v1.458h-1.458zm1.458 0h1.458v1.458h-1.458zm1.458 0h1.458v1.458h-1.458zm1.458 0h1.458v1.458h-1.458zm1.458 0h1.457v1.458h-1.457zm5.83 0h1.459v1.458h-1.458zm2.917 0h1.457v1.458H35.96zm5.83 0h1.459v1.458H41.79zm4.374 0h1.458v1.458h-1.458zm1.458 0h1.458v1.458h-1.458zm1.458 0h1.458v1.458H49.08zm1.458 0h1.458v1.458h-1.458Zm1.458 0h1.457v1.458h-1.457zm4.373 0h1.458v1.458h-1.458zm1.458 0h1.458v1.458h-1.458zm1.458 0h1.457v1.458h-1.457Zm1.457 0H62.2v1.458h-1.458zm1.458 0h1.458v1.458H62.2zm1.458 0h1.458v1.458h-1.458zm1.458 0h1.458v1.458h-1.458zm-46.65 1.458h1.458v1.458h-1.458zm8.747 0h1.457v1.458h-1.457zm2.915 0h1.458v1.458h-1.458zm2.916 0h1.458v1.458h-1.458zm4.373 0h1.458v1.458h-1.458zm2.916 0h1.458v1.458h-1.458zm1.458 0h1.458v1.458H41.79zm1.458 0h1.457v1.458H43.25zm1.457 0h1.458v1.458h-1.458zm2.916 0h1.458v1.458h-1.458zm1.458 0h1.458v1.458H49.08zm1.458 0h1.458v1.458h-1.458Zm5.831 0h1.458v1.458h-1.458zm8.747 0h1.458v1.458h-1.458zm-46.65 1.458h1.458v1.457h-1.458zm2.915 0h1.458v1.457h-1.458zm1.458 0h1.458v1.457h-1.458zm1.458 0h1.458v1.457h-1.458zm2.916 0h1.457v1.457h-1.457zm8.747 0h1.457v1.457H35.96zm10.204 0h1.458v1.457h-1.458zm1.458 0h1.458v1.457h-1.458zm1.458 0h1.458v1.457H49.08zm7.289 0h1.458v1.457h-1.458zm2.916 0h1.457v1.457h-1.457Zm1.457 0H62.2v1.457h-1.458zm1.458 0h1.458v1.457H62.2zm2.916 0h1.458v1.457h-1.458zm-46.65 1.457h1.458v1.458h-1.458zm2.915 0h1.458v1.458h-1.458zm1.458 0h1.458v1.458h-1.458zm1.458 0h1.458v1.458h-1.458zm2.916 0h1.457v1.458h-1.457zm2.915 0h1.458v1.458h-1.458zm1.458 0h1.458v1.458h-1.458zm1.458 0h1.458v1.458h-1.458zm2.916 0h1.457v1.458H35.96zm1.457 0h1.458v1.458h-1.458zm1.458 0h1.458v1.458h-1.458zm1.458 0h1.458v1.458h-1.458zm1.458 0h1.458v1.458H41.79zm1.458 0h1.457v1.458H43.25zm1.457 0h1.458v1.458h-1.458zm1.458 0h1.458v1.458h-1.458zm4.374 0h1.458v1.458h-1.458Zm2.915 0h1.458v1.458h-1.458zm2.916 0h1.458v1.458h-1.458zm2.916 0h1.457v1.458h-1.457Zm1.457 0H62.2v1.458h-1.458zm1.458 0h1.458v1.458H62.2zm2.916 0h1.458v1.458h-1.458zm-46.65 1.458h1.458v1.458h-1.458zm2.915 0h1.458v1.458h-1.458zm1.458 0h1.458v1.458h-1.458zm1.458 0h1.458v1.458h-1.458zm2.916 0h1.457v1.458h-1.457zm4.373 0h1.458v1.458h-1.458zm10.205 0h1.458v1.458H41.79zm1.458 0h1.457v1.458H43.25zm1.457 0h1.458v1.458h-1.458zm1.458 0h1.458v1.458h-1.458zm1.458 0h1.458v1.458h-1.458zm1.458 0h1.458v1.458H49.08zm1.458 0h1.458v1.458h-1.458Zm1.458 0h1.457v1.458h-1.457zm4.373 0h1.458v1.458h-1.458zm2.916 0h1.457v1.458h-1.457Zm1.457 0H62.2v1.458h-1.458zm1.458 0h1.458v1.458H62.2zm2.916 0h1.458v1.458h-1.458Zm-46.65 1.458h1.458v1.458h-1.458zm8.747 0h1.457v1.458h-1.457zm2.915 0h1.458v1.458h-1.458zm1.458 0h1.458v1.458h-1.458zm2.916 0h1.458v1.458h-1.458Zm1.458 0h1.457v1.458H35.96zm2.915 0h1.458v1.458h-1.458zm1.458 0h1.458v1.458h-1.458zm1.458 0h1.458v1.458H41.79zm1.458 0h1.457v1.458H43.25zm5.83 0h1.459v1.458H49.08zm1.459 0h1.458v1.458h-1.458Zm2.915 0h1.458v1.458h-1.458zm2.916 0h1.458v1.458h-1.458zm8.747 0h1.458v1.458h-1.458zm-46.65 1.458h1.458v1.458h-1.458zm1.458 0h1.457v1.458h-1.457zm1.457 0h1.458v1.458h-1.458zm1.458 0h1.458v1.458h-1.458zm1.458 0h1.458v1.458h-1.458zm1.458 0h1.458v1.458h-1.458zm1.458 0h1.457v1.458h-1.457zm2.915 0h1.458v1.458h-1.458zm2.916 0h1.458v1.458h-1.458zm2.916 0h1.457v1.458H35.96zm2.915 0h1.458v1.458h-1.458zm2.916 0h1.458v1.458H41.79zm2.915 0h1.458v1.458h-1.458zm2.916 0h1.458v1.458h-1.458zm2.916 0h1.458v1.458h-1.458Zm2.915 0h1.458v1.458h-1.458zm2.916 0h1.458v1.458h-1.458zm1.458 0h1.458v1.458h-1.458zm1.458 0h1.457v1.458h-1.457Zm1.457 0H62.2v1.458h-1.458zm1.458 0h1.458v1.458H62.2zm1.458 0h1.458v1.458h-1.458zm1.458 0h1.458v1.458h-1.458zm-33.53 1.458h1.458v1.457h-1.458zm1.458 0h1.458v1.457h-1.458zm1.458 0h1.458v1.457h-1.458Zm4.373 0h1.458v1.457h-1.458zm2.916 0h1.458v1.457H41.79zm4.373 0h1.458v1.457h-1.458zm2.916 0h1.458v1.457H49.08zm-30.614 1.457h1.458v1.458h-1.458zm1.458 0h1.457v1.458h-1.457zm1.457 0h1.458v1.458h-1.458zm1.458 0h1.458v1.458h-1.458zm1.458 0h1.458v1.458h-1.458zm2.916 0h1.457v1.458h-1.457zm1.457 0h1.458v1.458H28.67zm1.458 0h1.458v1.458h-1.458zm1.458 0h1.458v1.458h-1.458zm2.916 0h1.458v1.458h-1.458Zm2.915 0h1.458v1.458h-1.458zm1.458 0h1.458v1.458h-1.458zm1.458 0h1.458v1.458h-1.458zm2.916 0h1.457v1.458H43.25zm7.289 0h1.458v1.458h-1.458Zm1.458 0h1.457v1.458h-1.457zm1.457 0h1.458v1.458h-1.458zm1.458 0h1.458v1.458h-1.458zm2.916 0h1.458v1.458h-1.458zm2.915 0H62.2v1.458h-1.458zm2.916 0h1.458v1.458h-1.458zm-45.192 1.458h1.458v1.458h-1.458zm4.373 0h1.458v1.458h-1.458zm2.916 0h1.458v1.458h-1.458zm4.373 0h1.458v1.458h-1.458zm2.916 0h1.458v1.458h-1.458zm2.916 0h1.457v1.458H35.96zm2.915 0h1.458v1.458h-1.458zm2.916 0h1.458v1.458H41.79zm2.915 0h1.458v1.458h-1.458zm1.458 0h1.458v1.458h-1.458zm1.458 0h1.458v1.458h-1.458zm1.458 0h1.458v1.458H49.08zm2.916 0h1.457v1.458h-1.457zm4.373 0h1.458v1.458h-1.458zm1.458 0h1.458v1.458h-1.458zm4.373 0h1.458v1.458H62.2zm1.458 0h1.458v1.458h-1.458zm1.458 0h1.458v1.458h-1.458zm-46.65 1.458h1.458v1.458h-1.458zm8.747 0h1.457v1.458h-1.457zm1.457 0h1.458v1.458H28.67zm4.374 0h1.458v1.458h-1.458zm4.373 0h1.458v1.458h-1.458zm2.916 0h1.458v1.458h-1.458zm2.916 0h1.457v1.458H43.25zm4.373 0h1.458v1.458h-1.458zm1.458 0h1.458v1.458H49.08zm1.458 0h1.458v1.458h-1.458Zm2.915 0h1.458v1.458h-1.458zm1.458 0h1.458v1.458h-1.458zm1.458 0h1.458v1.458h-1.458zm1.458 0h1.458v1.458h-1.458zm1.458 0h1.457v1.458h-1.457Zm1.457 0H62.2v1.458h-1.458zm2.916 0h1.458v1.458h-1.458zm-43.734 1.458h1.457v1.458h-1.457zm2.915 0h1.458v1.458h-1.458zm2.916 0h1.458v1.458h-1.458zm2.915 0h1.458v1.458H28.67zm7.29 0h1.457v1.458H35.96zm5.83 0h1.459v1.458H41.79zm7.29 0h1.458v1.458H49.08zm1.458 0h1.458v1.458h-1.458Zm5.831 0h1.458v1.458h-1.458zm1.458 0h1.458v1.458h-1.458zm4.373 0h1.458v1.458H62.2zm-43.734 1.458h1.458v1.458h-1.458zm1.458 0h1.457v1.458h-1.457zm1.457 0h1.458v1.458h-1.458zm1.458 0h1.458v1.458h-1.458zm4.374 0h1.457v1.458h-1.457zm2.915 0h1.458v1.458h-1.458zm1.458 0h1.458v1.458h-1.458zm1.458 0h1.458v1.458h-1.458zm2.916 0h1.457v1.458H35.96zm1.457 0h1.458v1.458h-1.458zm1.458 0h1.458v1.458h-1.458zm4.374 0h1.457v1.458H43.25zm8.747 0h1.457v1.458h-1.457zm1.457 0h1.458v1.458h-1.458zm1.458 0h1.458v1.458h-1.458zm2.916 0h1.458v1.458h-1.458zm1.458 0h1.457v1.458h-1.457Zm1.457 0H62.2v1.458h-1.458zm-40.818 1.458h1.457v1.457h-1.457zm1.457 0h1.458v1.457h-1.458zm2.916 0h1.458v1.457h-1.458zm4.373 0h1.458v1.457H28.67zm1.458 0h1.458v1.457h-1.458zm11.663 0h1.458v1.457H41.79zm2.915 0h1.458v1.457h-1.458zm1.458 0h1.458v1.457h-1.458zm1.458 0h1.458v1.457h-1.458zm4.374 0h1.457v1.457h-1.457zm4.373 0h1.458v1.457h-1.458zm7.29 0h1.457v1.457h-1.458zm1.457 0h1.458v1.457h-1.458zm-45.192 1.457h1.457v1.458h-1.457zm1.457 0h1.458v1.458h-1.458zm1.458 0h1.458v1.458h-1.458zm1.458 0h1.458v1.458h-1.458zm2.916 0h1.457v1.458h-1.457zm1.457 0h1.458v1.458H28.67zm4.374 0h1.458v1.458h-1.458zm1.458 0h1.458v1.458h-1.458Zm1.458 0h1.457v1.458H35.96zm2.915 0h1.458v1.458h-1.458zm1.458 0h1.458v1.458h-1.458zm1.458 0h1.458v1.458H41.79zm2.915 0h1.458v1.458h-1.458zm2.916 0h1.458v1.458h-1.458zm1.458 0h1.458v1.458H49.08zm1.458 0h1.458v1.458h-1.458Zm7.289 0h1.458v1.458h-1.458zm1.458 0h1.457v1.458h-1.457Zm4.373 0h1.458v1.458h-1.458zm-45.192 1.458h1.458v1.458h-1.458zm7.289 0h1.458v1.458h-1.458zm7.289 0h1.458v1.458h-1.458zm1.458 0h1.458v1.458h-1.458Zm4.373 0h1.458v1.458h-1.458zm1.458 0h1.458v1.458h-1.458zm1.458 0h1.458v1.458H41.79zm4.373 0h1.458v1.458h-1.458zm1.458 0h1.458v1.458h-1.458zm1.458 0h1.458v1.458H49.08zm1.458 0h1.458v1.458h-1.458Zm2.915 0h1.458v1.458h-1.458zm1.458 0h1.458v1.458h-1.458zm1.458 0h1.458v1.458h-1.458zm1.458 0h1.458v1.458h-1.458zm4.373 0h1.458v1.458H62.2Zm-43.734 1.458h1.458v1.458h-1.458zm1.458 0h1.457v1.458h-1.457zm1.457 0h1.458v1.458h-1.458zm4.374 0h1.458v1.458h-1.458zm1.458 0h1.457v1.458h-1.457zm2.915 0h1.458v1.458h-1.458zm2.916 0h1.458v1.458h-1.458zm1.458 0h1.458v1.458h-1.458Zm1.458 0h1.457v1.458H35.96zm1.457 0h1.458v1.458h-1.458zm1.458 0h1.458v1.458h-1.458zm1.458 0h1.458v1.458h-1.458zm1.458 0h1.458v1.458H41.79zm1.458 0h1.457v1.458H43.25zm1.457 0h1.458v1.458h-1.458zm1.458 0h1.458v1.458h-1.458zm4.374 0h1.458v1.458h-1.458Zm1.458 0h1.457v1.458h-1.457zm1.457 0h1.458v1.458h-1.458zm1.458 0h1.458v1.458h-1.458zm2.916 0h1.458v1.458h-1.458zm1.458 0h1.457v1.458h-1.457Zm4.373 0h1.458v1.458h-1.458zm-43.734 1.458h1.457v1.458h-1.457zm1.457 0h1.458v1.458h-1.458zm1.458 0h1.458v1.458h-1.458zm1.458 0h1.458v1.458h-1.458zm4.373 0h1.458v1.458H28.67zm1.458 0h1.458v1.458h-1.458zm5.832 0h1.457v1.458H35.96zm1.457 0h1.458v1.458h-1.458zm4.374 0h1.458v1.458H41.79zm1.458 0h1.457v1.458H43.25zm1.457 0h1.458v1.458h-1.458zm1.458 0h1.458v1.458h-1.458zm2.916 0h1.458v1.458H49.08zm2.916 0h1.457v1.458h-1.457zm4.373 0h1.458v1.458h-1.458zm4.373 0H62.2v1.458h-1.458zm2.916 0h1.458v1.458h-1.458zm1.458 0h1.458v1.458h-1.458zm-42.277 1.458h1.458v1.457h-1.458zm2.916 0h1.458v1.457h-1.458zm1.458 0h1.457v1.457h-1.457zm1.457 0h1.458v1.457H28.67zm7.29 0h1.457v1.457H35.96zm4.373 0h1.458v1.457h-1.458zm2.916 0h1.457v1.457H43.25zm4.373 0h1.458v1.457h-1.458zm1.458 0h1.458v1.457H49.08zm4.373 0h1.458v1.457h-1.458zm2.916 0h1.458v1.457h-1.458zm2.916 0h1.457v1.457h-1.457Zm1.457 0H62.2v1.457h-1.458zm2.916 0h1.458v1.457h-1.458zM18.466 556.4h1.458v1.458h-1.458zm1.458 0h1.457v1.458h-1.457zm1.457 0h1.458v1.458h-1.458zm4.374 0h1.458v1.458h-1.458zm13.12 0h1.458v1.458h-1.458zm1.458 0h1.458v1.458h-1.458zm1.458 0h1.458v1.458H41.79zm5.831 0h1.458v1.458h-1.458zm1.458 0h1.458v1.458H49.08zm1.458 0h1.458v1.458h-1.458Zm1.458 0h1.457v1.458h-1.457zm1.457 0h1.458v1.458h-1.458zm4.374 0h1.458v1.458h-1.458zm4.373 0h1.458v1.458H62.2zm-43.734 1.458h1.458v1.458h-1.458zm1.458 0h1.457v1.458h-1.457zm1.457 0h1.458v1.458h-1.458zm2.916 0h1.458v1.458h-1.458zm1.458 0h1.458v1.458h-1.458zm1.458 0h1.457v1.458h-1.457zm5.83 0h1.459v1.458h-1.458zm1.459 0h1.458v1.458h-1.458Zm1.458 0h1.457v1.458H35.96zm1.457 0h1.458v1.458h-1.458zm1.458 0h1.458v1.458h-1.458zm1.458 0h1.458v1.458h-1.458zm1.458 0h1.458v1.458H41.79zm1.458 0h1.457v1.458H43.25zm7.289 0h1.458v1.458h-1.458Zm2.915 0h1.458v1.458h-1.458zm5.832 0h1.457v1.458h-1.457Zm4.373 0h1.458v1.458h-1.458zm-45.192 1.458h1.458v1.458h-1.458zm1.458 0h1.457v1.458h-1.457zm2.915 0h1.458v1.458h-1.458zm1.458 0h1.458v1.458h-1.458zm1.458 0h1.458v1.458h-1.458zm2.915 0h1.458v1.458H28.67zm1.458 0h1.458v1.458h-1.458zm2.916 0h1.458v1.458h-1.458zm1.458 0h1.458v1.458h-1.458Zm7.289 0h1.458v1.458H41.79zm2.915 0h1.458v1.458h-1.458zm1.458 0h1.458v1.458h-1.458zm1.458 0h1.458v1.458h-1.458zm4.374 0h1.457v1.458h-1.457zm4.373 0h1.458v1.458h-1.458zm4.373 0H62.2v1.458h-1.458zm2.916 0h1.458v1.458h-1.458zm1.458 0h1.458v1.458h-1.458zm-46.65 1.458h1.458v1.458h-1.458zm4.373 0h1.458v1.458h-1.458zm1.458 0h1.458v1.458h-1.458zm1.458 0h1.458v1.458h-1.458zm1.458 0h1.457v1.458h-1.457zm1.457 0h1.458v1.458H28.67zm1.458 0h1.458v1.458h-1.458zm7.29 0h1.457v1.458h-1.458zm2.915 0h1.458v1.458h-1.458zm2.916 0h1.457v1.458H43.25zm7.289 0h1.458v1.458h-1.458Zm4.373 0h1.458v1.458h-1.458zm1.458 0h1.458v1.458h-1.458zm1.458 0h1.458v1.458h-1.458zm1.458 0h1.457v1.458h-1.457Zm1.457 0H62.2v1.458h-1.458zm2.916 0h1.458v1.458h-1.458zm-45.192 1.458h1.458v1.458h-1.458zm5.831 0h1.458v1.458h-1.458zm4.373 0h1.458v1.458H28.67zm4.374 0h1.458v1.458h-1.458zm5.831 0h1.458v1.458h-1.458zm1.458 0h1.458v1.458h-1.458zm1.458 0h1.458v1.458H41.79zm5.831 0h1.458v1.458h-1.458zm1.458 0h1.458v1.458H49.08zm2.916 0h1.457v1.458h-1.457zm2.915 0h1.458v1.458h-1.458zm1.458 0h1.458v1.458h-1.458zm2.916 0h1.457v1.458h-1.457Zm1.457 0H62.2v1.458h-1.458zm1.458 0h1.458v1.458H62.2zm-43.734 1.458h1.458v1.457h-1.458zm4.373 0h1.458v1.457h-1.458zm1.458 0h1.458v1.457h-1.458zm1.458 0h1.458v1.457h-1.458zm1.458 0h1.457v1.457h-1.457zm1.457 0h1.458v1.457H28.67zm4.374 0h1.458v1.457h-1.458zm1.458 0h1.458v1.457h-1.458Zm1.458 0h1.457v1.457H35.96zm1.457 0h1.458v1.457h-1.458zm1.458 0h1.458v1.457h-1.458zm4.374 0h1.457v1.457H43.25zm4.373 0h1.458v1.457h-1.458zm2.916 0h1.458v1.457h-1.458Zm1.458 0h1.457v1.457h-1.457zm1.457 0h1.458v1.457h-1.458zm1.458 0h1.458v1.457h-1.458zm1.458 0h1.458v1.457h-1.458zm1.458 0h1.458v1.457h-1.458zm1.458 0h1.457v1.457h-1.457Zm1.457 0H62.2v1.457h-1.458zm4.374 0h1.458v1.457h-1.458zm-34.988 1.457h1.458v1.458h-1.458zm2.916 0h1.458v1.458h-1.458zm1.458 0h1.458v1.458h-1.458Zm2.915 0h1.458v1.458h-1.458zm4.374 0h1.458v1.458H41.79zm2.915 0h1.458v1.458h-1.458zm1.458 0h1.458v1.458h-1.458zm1.458 0h1.458v1.458h-1.458zm1.458 0h1.458v1.458H49.08zm4.373 0h1.458v1.458h-1.458zm5.832 0h1.457v1.458h-1.457Zm1.457 0H62.2v1.458h-1.458zm1.458 0h1.458v1.458H62.2zm2.916 0h1.458v1.458h-1.458zm-46.65 1.458h1.458v1.458h-1.458zm1.458 0h1.457v1.458h-1.457zm1.457 0h1.458v1.458h-1.458zm1.458 0h1.458v1.458h-1.458zm1.458 0h1.458v1.458h-1.458zm1.458 0h1.458v1.458h-1.458zm1.458 0h1.457v1.458h-1.457zm2.915 0h1.458v1.458h-1.458zm1.458 0h1.458v1.458h-1.458zm4.374 0h1.457v1.458H35.96zm4.373 0h1.458v1.458h-1.458zm1.458 0h1.458v1.458H41.79zm2.915 0h1.458v1.458h-1.458zm2.916 0h1.458v1.458h-1.458zm2.916 0h1.458v1.458h-1.458Zm1.458 0h1.457v1.458h-1.457zm1.457 0h1.458v1.458h-1.458zm2.916 0h1.458v1.458h-1.458zm2.916 0h1.457v1.458h-1.457Zm1.457 0H62.2v1.458h-1.458zm2.916 0h1.458v1.458h-1.458zm-45.192 1.458h1.458v1.458h-1.458zm8.747 0h1.457v1.458h-1.457zm4.373 0h1.458v1.458h-1.458zm1.458 0h1.458v1.458h-1.458zm7.289 0h1.458v1.458h-1.458zm1.458 0h1.458v1.458H41.79zm4.373 0h1.458v1.458h-1.458zm1.458 0h1.458v1.458h-1.458zm1.458 0h1.458v1.458H49.08zm1.458 0h1.458v1.458h-1.458Zm2.915 0h1.458v1.458h-1.458zm5.832 0h1.457v1.458h-1.457Zm1.457 0H62.2v1.458h-1.458zm1.458 0h1.458v1.458H62.2zm1.458 0h1.458v1.458h-1.458zm1.458 0h1.458v1.458h-1.458zm-46.65 1.458h1.458v1.458h-1.458zm2.915 0h1.458v1.458h-1.458zm1.458 0h1.458v1.458h-1.458zm1.458 0h1.458v1.458h-1.458zm2.916 0h1.457v1.458h-1.457zm2.915 0h1.458v1.458h-1.458zm1.458 0h1.458v1.458h-1.458zm1.458 0h1.458v1.458h-1.458zm4.373 0h1.458v1.458h-1.458zm2.916 0h1.458v1.458h-1.458zm2.916 0h1.457v1.458H43.25zm1.457 0h1.458v1.458h-1.458zm1.458 0h1.458v1.458h-1.458zm4.374 0h1.458v1.458h-1.458Zm2.915 0h1.458v1.458h-1.458zm1.458 0h1.458v1.458h-1.458zm1.458 0h1.458v1.458h-1.458zm1.458 0h1.458v1.458h-1.458zm1.458 0h1.457v1.458h-1.457Zm1.457 0H62.2v1.458h-1.458zm2.916 0h1.458v1.458h-1.458zm-45.192 1.458h1.458v1.457h-1.458zm2.915 0h1.458v1.457h-1.458zm1.458 0h1.458v1.457h-1.458zm1.458 0h1.458v1.457h-1.458zm2.916 0h1.457v1.457h-1.457zm2.915 0h1.458v1.457h-1.458zm4.374 0h1.458v1.457h-1.458Zm2.915 0h1.458v1.457h-1.458zm4.374 0h1.458v1.457H41.79zm1.458 0h1.457v1.457H43.25zm1.457 0h1.458v1.457h-1.458zm1.458 0h1.458v1.457h-1.458zm1.458 0h1.458v1.457h-1.458zm1.458 0h1.458v1.457H49.08zm2.916 0h1.457v1.457h-1.457zm1.457 0h1.458v1.457h-1.458zm1.458 0h1.458v1.457h-1.458zm2.916 0h1.458v1.457h-1.458zm1.458 0h1.457v1.457h-1.457Zm1.457 0H62.2v1.457h-1.458zm1.458 0h1.458v1.457H62.2zm-43.734 1.457h1.458v1.458h-1.458zm2.915 0h1.458v1.458h-1.458zm1.458 0h1.458v1.458h-1.458zm1.458 0h1.458v1.458h-1.458zm2.916 0h1.457v1.458h-1.457zm2.915 0h1.458v1.458h-1.458zm2.916 0h1.458v1.458h-1.458zm2.916 0h1.457v1.458H35.96zm1.457 0h1.458v1.458h-1.458zm1.458 0h1.458v1.458h-1.458zm1.458 0h1.458v1.458h-1.458zm1.458 0h1.458v1.458H41.79zm7.289 0h1.458v1.458H49.08zm1.458 0h1.458v1.458h-1.458Zm1.458 0h1.457v1.458h-1.457zm1.457 0h1.458v1.458h-1.458zm2.916 0h1.458v1.458h-1.458zm1.458 0h1.458v1.458h-1.458zm2.915 0H62.2v1.458h-1.458zm2.916 0h1.458v1.458h-1.458zm-45.192 1.458h1.458v1.458h-1.458zm8.747 0h1.457v1.458h-1.457zm2.915 0h1.458v1.458h-1.458zm1.458 0h1.458v1.458h-1.458zm1.458 0h1.458v1.458h-1.458zm2.916 0h1.457v1.458H35.96zm5.83 0h1.459v1.458H41.79zm4.374 0h1.458v1.458h-1.458zm2.916 0h1.458v1.458H49.08zm1.458 0h1.458v1.458h-1.458Zm4.373 0h1.458v1.458h-1.458zm4.374 0h1.457v1.458h-1.457Zm1.457 0H62.2v1.458h-1.458zm1.458 0h1.458v1.458H62.2zm-43.734 1.458h1.458v1.458h-1.458zm1.458 0h1.457v1.458h-1.457zm1.457 0h1.458v1.458h-1.458zm1.458 0h1.458v1.458h-1.458zm1.458 0h1.458v1.458h-1.458zm1.458 0h1.458v1.458h-1.458zm1.458 0h1.457v1.458h-1.457zm2.915 0h1.458v1.458h-1.458zm4.374 0h1.458v1.458h-1.458Zm1.458 0h1.457v1.458H35.96zm1.457 0h1.458v1.458h-1.458zm1.458 0h1.458v1.458h-1.458zm1.458 0h1.458v1.458h-1.458zm2.916 0h1.457v1.458H43.25zm7.289 0h1.458v1.458h-1.458Zm1.458 0h1.457v1.458h-1.457zm1.457 0h1.458v1.458h-1.458zm7.29 0H62.2v1.458h-1.458zm2.915 0h1.458v1.458h-1.458z" style="stroke-width:0"/></g><g id="sbb"><path id="rect22814" d="M628.838 17.008h196.044v22.94H628.838z" style="fill:#fff;stroke-width:0"/><path id="rect397399" d="M630.289 18.258h192.107v20.659H630.289z" style="fill:#fff;stroke-width:0"/><path id="path2879" d="M630.289 38.704h60.702V18.47h-60.702v20.234Z" style="fill:#e42328;stroke-width:0"/><path id="path2881" d="M666.02 27.039h6.563v-5.196h3.092v5.196h6.563l-5.28-5.196h3.918l6.745 6.744-6.745 6.745h-3.921l5.28-5.196h-6.56v5.196h-3.092v-5.196h-6.563l5.28 5.196h-3.916l-6.745-6.744 6.745-6.745h3.917" style="fill:#fff;stroke-width:0"/><path id="path2883" d="M697.255 31.303c-.039 3.492 2.896 5.04 6.03 5.04 3.848 0 5.891-1.944 5.891-4.544 0-3.211-3.173-3.866-4.205-4.122-3.55-.914-4.224-1.053-4.224-2.142 0-1.19 1.149-1.606 2.143-1.606 1.487 0 2.698.435 2.796 2.142h3.015c0-3.272-2.717-4.56-5.672-4.56-2.559 0-5.296 1.388-5.296 4.285 0 2.658 2.122 3.471 4.226 4.025 2.082.555 4.203.814 4.203 2.34 0 1.448-1.666 1.766-2.757 1.766-1.666 0-3.133-.735-3.133-2.62" style="fill:#221e20;stroke-width:0"/><path id="path2885" d="M714.21 24.264h2.916c1.11 0 2.143.277 2.143 1.626 0 1.19-.814 1.686-1.904 1.686h-3.154v-3.312Zm-3.113 11.74h6.862c2.559 0 5-1.229 5-4.105 0-1.765-.875-3.094-2.6-3.59a3.106 3.106 0 0 0 1.925-2.956c0-2.637-1.825-3.51-4.523-3.51h-6.664v14.162Zm3.114-6.307h3.39c1.329 0 2.241.577 2.241 2.024 0 1.466-1.07 1.864-2.3 1.864h-3.33" style="fill:#221e20;fill-rule:evenodd;stroke-width:0"/><path id="path2887" d="M728.148 24.264h2.916c1.11 0 2.142.277 2.142 1.626 0 1.19-.813 1.686-1.904 1.686h-3.154v-3.312Zm-3.113 11.74h6.861c2.56 0 4.998-1.229 4.998-4.105 0-1.765-.872-3.094-2.598-3.59a3.106 3.106 0 0 0 1.923-2.956c0-2.637-1.823-3.51-4.52-3.51h-6.664v14.162Zm3.115-6.307h3.39c1.33 0 2.242.577 2.242 2.024 0 1.466-1.07 1.864-2.3 1.864h-3.331" style="fill:#221e20;fill-rule:evenodd;stroke-width:0"/><path id="path2889" d="M756.674 26.603c-.377-3.272-2.994-5.096-6.108-5.096-4.384 0-6.961 3.273-6.961 7.476 0 4.086 2.577 7.359 6.96 7.359 3.472 0 5.91-2.26 6.228-5.792h-3.016c-.237 1.865-1.308 3.173-3.211 3.173-2.797 0-3.85-2.38-3.85-4.74 0-2.48 1.054-4.86 3.85-4.86 1.545 0 2.896 1.071 3.094 2.479" style="fill:#221e20;stroke-width:0"/><path id="path2891" d="M758.71 36.005h3.114v-5.851h5.93v-2.42h-5.93v-3.272h6.842v-2.617h-9.956" style="fill:#221e20;stroke-width:0"/><path id="path2893" d="M770.56 36.005h3.104v-5.851h5.924v-2.42h-5.926v-3.272h6.835v-2.617h-9.938" style="fill:#221e20;stroke-width:0"/><path id="path2895" d="M787.241 36.005h3.122v-5.851h5.924v-2.42h-5.924v-3.272h6.834v-2.617h-9.956" style="fill:#221e20;stroke-width:0"/><path id="path2897" d="M799.464 36.005h3.105v-5.851h5.924v-2.42h-5.924v-3.272h6.852v-2.617h-9.957" style="fill:#221e20;stroke-width:0"/><path id="path2899" d="M810.562 31.303c-.035 3.492 2.89 5.04 6.031 5.04 3.854 0 5.888-1.944 5.888-4.544 0-3.211-3.176-3.866-4.193-4.122-3.55-.914-4.228-1.053-4.228-2.142 0-1.19 1.141-1.606 2.142-1.606 1.48 0 2.695.435 2.801 2.142h2.998c0-3.272-2.712-4.56-5.656-4.56-2.57 0-5.3 1.388-5.3 4.285 0 2.658 2.123 3.471 4.23 4.025 2.07.555 4.192.814 4.192 2.34 0 1.448-1.659 1.766-2.747 1.766-1.678 0-3.14-.735-3.14-2.62" style="fill:#221e20;stroke-width:0"/></g><g id="title"><path id="path513" d="M396.784 70.751H0v-53.56h396.784c1.108 0 2.007.885 2.007 1.974v49.613c0 1.09-.9 1.973-2.007 1.973z" style="fill:#fff;stroke-width:0"/><text id="text735" x="17.064" y="32.077" style="font-style:normal;font-variant:normal;font-weight:400;font-stretch:normal;font-size:12px;font-family:SBBWeb-Light,&quot;SBB Web&quot;,Arial,&quot;SBB Web&quot;;-inkscape-font-specification:&quot;SBBWeb-Light, SBB Web, Arial, SBB Web, Normal&quot;;font-variant-ligatures:normal;font-variant-caps:normal;font-variant-numeric:normal;font-variant-east-asian:normal;isolation:isolate"><tspan id="tspan1032" x="17.064" y="32.077">General-Abo, GA Night, GA-Monatskarte, Ausflugs-Abo,</tspan><tspan id="tspan1034" x="17.064" y="47.077">Tageskarte zum Halbtax sowie für Spartageskarte / Aktionstageskarte /</tspan><tspan id="tspan1036" x="17.064" y="62.077">Spartageskarte Gemeinde zusammen mit Halbtax-Abo</tspan></text></g><g id="legend"><rect id="rect426128-0-8-3-9-2" width="172.589" height="111.483" x="9.457" y="77.632" rx="1.984" ry="1.984" style="fill:#fff;stroke-width:0"/><g id="scaleline"><text id="text745" style="font-size:6px;font-family:SBBWeb-Roman,&quot;SBB Web&quot;,Arial,&quot;SBB Web&quot;;isolation:isolate" transform="translate(62.56 178.12)"><tspan id="tspan739" x="0" y="0">50</tspan><tspan id="tspan741" x="8.341" y="0" style="letter-spacing:.00342em">k</tspan><tspan id="tspan743" x="11.476" y="0">m</tspan></text><path id="path1881" d="M125.04 172.298v9.44l-107.434.052v-9.494" style="fill:none;stroke:#000;stroke-width:.9031px;stroke-miterlimit:3"/></g><g id="g765"><text id="text751" style="font-size:6px;font-family:SBBWeb-Roman,&quot;SBB Web&quot;,Arial,&quot;SBB Web&quot;;isolation:isolate" transform="translate(17.075 114.12)"><tspan id="tspan749" x="0" y="0">Bahnen</tspan></text><g id="g763"><path id="line753" d="M18.29 100.564h27.663" style="fill:none;stroke:#eb0000;stroke-width:1.41732px;stroke-linecap:square;stroke-miterlimit:3"/><g id="g761"><path id="line755" d="M18.29 104.326h0" style="fill:none;stroke:#eb0000;stroke-width:1.41732px;stroke-linecap:round;stroke-miterlimit:3"/><path id="line757" d="M21.056 104.326H44.57" style="fill:none;stroke:#eb0000;stroke-width:1.41732px;stroke-linecap:round;stroke-miterlimit:3;stroke-dasharray:0,0,0,2.76634"/><path id="line759" d="M45.953 104.326h0" style="fill:none;stroke:#eb0000;stroke-width:1.41732px;stroke-linecap:round;stroke-miterlimit:3"/></g></g></g><g id="g783"><text id="text769" style="font-size:6px;font-family:SBBWeb-Roman,&quot;SBB Web&quot;,Arial,&quot;SBB Web&quot;;isolation:isolate" transform="translate(102.438 114.225)"><tspan id="tspan767" x="0" y="0">Seilbahnen</tspan></text><g id="g781"><path id="line771" d="M103.358 100.564h27.663" style="fill:none;stroke:#000;stroke-width:1.41732px;stroke-linecap:square;stroke-miterlimit:3"/><g id="g779"><path id="line773" d="M103.358 104.326h0" style="fill:none;stroke:#000;stroke-width:1.41732px;stroke-linecap:round;stroke-miterlimit:3"/><path id="line775" d="M106.124 104.326h23.514" style="fill:none;stroke:#000;stroke-width:1.41732px;stroke-linecap:round;stroke-miterlimit:3;stroke-dasharray:0,0,0,2.76634"/><path id="line777" d="M131.021 104.326h0" style="fill:none;stroke:#000;stroke-width:1.41732px;stroke-linecap:round;stroke-miterlimit:3"/></g></g></g><g id="g826"><g id="text402292-9-5-9-7-1" style="isolation:isolate"><text id="text797" style="font-size:6px;font-family:SBBWeb-Roman,&quot;SBB Web&quot;,Arial,&quot;SBB Web&quot;;isolation:isolate" transform="translate(145.12 146.932)"><tspan id="tspan785" x="0" y="0">Gül</tspan><tspan id="tspan787" x="9.223" y="0" style="letter-spacing:-.0127em">t</tspan><tspan id="tspan789" x="11.036" y="0" style="letter-spacing:-.00146em">i</tspan><tspan id="tspan791" x="12.36" y="0" style="letter-spacing:-.00293em">g</tspan><tspan id="tspan793" x="15.788" y="0" style="letter-spacing:-.0249em">k</tspan><tspan id="tspan795" x="18.753" y="0">eit</tspan></text><text id="text815" style="font-size:6px;font-family:SBBWeb-Roman,&quot;SBB Web&quot;,Arial,&quot;SBB Web&quot;" transform="translate(145.12 154.133)"><tspan id="tspan799" x="0" y="0" style="letter-spacing:-.02301em">v</tspan><tspan id="tspan801" x="2.862" y="0">or O</tspan><tspan id="tspan803" x="14.532" y="0" style="letter-spacing:.03123em">r</tspan><tspan id="tspan805" x="16.717" y="0">t</tspan><tspan id="tspan807" x="0" y="7.2">anf</tspan><tspan id="tspan809" x="8.335" y="7.2" style="letter-spacing:-.00345em">ra</tspan><tspan id="tspan811" x="13.512" y="7.2" style="letter-spacing:-.00099em">ge</tspan><tspan id="tspan813" x="20.174" y="7.2">n</tspan></text></g><g id="g824"><path id="line818" d="M145.893 137.151h0" style="fill:none;stroke:#999;stroke-width:1.41732px;stroke-linecap:round;stroke-miterlimit:3"/><path id="line820" d="M148.659 137.151h23.514" style="fill:none;stroke:#999;stroke-width:1.41732px;stroke-linecap:round;stroke-miterlimit:3;stroke-dasharray:0,0,0,2.76634"/><path id="line822" d="M173.556 137.151h0" style="fill:none;stroke:#999;stroke-width:1.41732px;stroke-linecap:round;stroke-miterlimit:3"/></g></g><g id="g854"><text id="text840" style="font-size:6px;font-family:SBBWeb-Roman,&quot;SBB Web&quot;,Arial,&quot;SBB Web&quot;;isolation:isolate" transform="translate(145.12 114.225)"><tspan id="tspan828" x="0" y="0" style="letter-spacing:.00049em">S</tspan><tspan id="tspan830" x="3.891" y="0" style="letter-spacing:-.00342em">c</tspan><tspan id="tspan832" x="7.093" y="0">hi</tspan><tspan id="tspan834" x="11.763" y="0" style="letter-spacing:.02344em">f</tspan><tspan id="tspan836" x="13.679" y="0" style="letter-spacing:-.01904em">f</tspan><tspan id="tspan838" x="15.34" y="0">e</tspan></text><g id="g852"><path id="line842" d="M145.893 100.564h27.663" style="fill:none;stroke:#2a6698;stroke-width:1.41732px;stroke-linecap:square;stroke-miterlimit:3"/><g id="g850"><path id="line844" d="M145.893 104.326h0" style="fill:none;stroke:#2a6698;stroke-width:1.41732px;stroke-linecap:round;stroke-miterlimit:3"/><path id="line846" d="M148.659 104.326h23.514" style="fill:none;stroke:#2a6698;stroke-width:1.41732px;stroke-linecap:round;stroke-miterlimit:3;stroke-dasharray:0,0,0,2.76634"/><path id="line848" d="M173.556 104.326h0" style="fill:none;stroke:#2a6698;stroke-width:1.41732px;stroke-linecap:round;stroke-miterlimit:3"/></g></g></g><g id="g892"><text id="text868" style="font-size:6px;font-family:SBBWeb-Roman,&quot;SBB Web&quot;,Arial,&quot;SBB Web&quot;;isolation:isolate" transform="translate(59.806 114.214)"><tspan id="tspan856" x="0" y="0" style="letter-spacing:-.00586em">A</tspan><tspan id="tspan858" x="3.853" y="0">u</tspan><tspan id="tspan860" x="7.189" y="0" style="letter-spacing:-.02246em">t</tspan><tspan id="tspan862" x="8.944" y="0">obu</tspan><tspan id="tspan864" x="19.283" y="0" style="letter-spacing:.00488em">s</tspan><tspan id="tspan866" x="22.313" y="0">se</tspan></text><g id="g890"><path id="line870" d="M61.07 100.564h27.173" style="fill:none;stroke:#3b3b3b;stroke-width:1.98425px;stroke-linecap:square;stroke-miterlimit:3"/><g id="g878"><path id="line872" d="M60.824 104.326h0" style="fill:none;stroke:#3b3b3b;stroke-width:1.98425px;stroke-linecap:round;stroke-miterlimit:3"/><path id="line874" d="M63.59 104.326h23.514" style="fill:none;stroke:#3b3b3b;stroke-width:1.98425px;stroke-linecap:round;stroke-miterlimit:3;stroke-dasharray:0,0,0,2.76634"/><path id="line876" d="M88.488 104.326h0" style="fill:none;stroke:#3b3b3b;stroke-width:1.98425px;stroke-linecap:round;stroke-miterlimit:3"/></g><path id="line880" d="M60.824 100.564h27.664" style="fill:none;stroke:#fbd700;stroke-width:1.41732px;stroke-linecap:square;stroke-miterlimit:3"/><g id="g888"><path id="line882" d="M60.824 104.326h0" style="fill:none;stroke:#fbd700;stroke-width:1.41732px;stroke-linecap:round;stroke-miterlimit:3"/><path id="line884" d="M63.59 104.326h23.514" style="fill:none;stroke:#fbd700;stroke-width:1.41732px;stroke-linecap:round;stroke-miterlimit:3;stroke-dasharray:0,0,0,2.76634"/><path id="line886" d="M88.488 104.326h0" style="fill:none;stroke:#fbd700;stroke-width:1.41732px;stroke-linecap:round;stroke-miterlimit:3"/></g></g></g><g id="g925"><g id="text402292-9-5-9" style="isolation:isolate"><text id="text908" style="font-size:6px;font-family:SBBWeb-Roman,&quot;SBB Web&quot;,Arial,&quot;SBB Web&quot;;isolation:isolate" transform="translate(17.075 146.933)"><tspan id="tspan894" x="0" y="0" style="letter-spacing:-.02832em">F</tspan><tspan id="tspan896" x="3.275" y="0" style="letter-spacing:-.01416em">r</tspan><tspan id="tspan898" x="5.188" y="0">eie</tspan><tspan id="tspan900" x="14.634" y="0" style="letter-spacing:-.02686em">F</tspan><tspan id="tspan902" x="17.918" y="0">ah</tspan><tspan id="tspan904" x="24.478" y="0" style="letter-spacing:.03125em">r</tspan><tspan id="tspan906" x="26.663" y="0">t</tspan></text></g><g id="g923"><path id="line911" d="M18.167 125.783h27.664" style="fill:none;stroke:#eb0000;stroke-width:1.41732px;stroke-linecap:square;stroke-miterlimit:3"/><path id="line913" d="M18.167 133.361h27.664" style="fill:none;stroke:#000;stroke-width:1.41732px;stroke-linecap:square;stroke-miterlimit:3"/><path id="line915" d="M18.168 137.151h27.663" style="fill:none;stroke:#2a6698;stroke-width:1.41732px;stroke-linecap:square;stroke-miterlimit:3"/><g id="g921"><path id="line917" d="M18.413 129.572h27.173" style="fill:none;stroke:#3b3b3b;stroke-width:1.98425px;stroke-linecap:square;stroke-miterlimit:3"/><path id="line919" d="M18.167 129.572h27.664" style="fill:none;stroke:#fbd700;stroke-width:1.41732px;stroke-linecap:square;stroke-miterlimit:3"/></g></g></g><g id="g1007"><text id="text963" style="font-size:6px;font-family:SBBWeb-Roman,&quot;SBB Web&quot;,Arial,&quot;SBB Web&quot;;isolation:isolate" transform="translate(59.756 146.933)"><tspan id="tspan927" x="0" y="0" style="letter-spacing:-.02686em">F</tspan><tspan id="tspan929" x="3.284" y="0">ah</tspan><tspan id="tspan931" x="9.844" y="0" style="letter-spacing:.03125em">r</tspan><tspan id="tspan933" x="12.029" y="0">t</tspan><tspan id="tspan935" x="15.586" y="0" style="letter-spacing:-.01172em">z</tspan><tspan id="tspan937" x="18.396" y="0">um</tspan><tspan id="tspan939" x="0" y="7.2">e</tspan><tspan id="tspan941" x="3.223" y="7.2" style="letter-spacing:.00439em">r</tspan><tspan id="tspan943" x="5.247" y="7.2">mä</tspan><tspan id="tspan945" x="13.588" y="7.2" style="letter-spacing:.00488em">s</tspan><tspan id="tspan947" x="16.617" y="7.2">s</tspan><tspan id="tspan949" x="19.617" y="7.2" style="letter-spacing:-.00146em">i</tspan><tspan id="tspan951" x="20.941" y="7.2" style="letter-spacing:-.00049em">g</tspan><tspan id="tspan953" x="24.384" y="7.2" style="letter-spacing:-.02051em">t</tspan><tspan id="tspan955" x="26.15" y="7.2">en</tspan><tspan id="tspan957" x="0" y="14.4">P</tspan><tspan id="tspan959" x="3.888" y="14.4" style="letter-spacing:-.01416em">r</tspan><tspan id="tspan961" x="5.801" y="14.4">eis</tspan></text><g id="g971"><path id="line965" d="M60.825 125.783h0" style="fill:none;stroke:#eb0000;stroke-width:1.41732px;stroke-linecap:round;stroke-miterlimit:3"/><path id="line967" d="M63.592 125.783h23.513" style="fill:none;stroke:#eb0000;stroke-width:1.41732px;stroke-linecap:round;stroke-miterlimit:3;stroke-dasharray:0,0,0,2.76634"/><path id="line969" d="M88.489 125.783h0" style="fill:none;stroke:#eb0000;stroke-width:1.41732px;stroke-linecap:round;stroke-miterlimit:3"/></g><g id="g979"><path id="line973" d="M60.825 133.361h0" style="fill:none;stroke:#000;stroke-width:1.41732px;stroke-linecap:round;stroke-miterlimit:3"/><path id="line975" d="M63.592 133.361h23.513" style="fill:none;stroke:#000;stroke-width:1.41732px;stroke-linecap:round;stroke-miterlimit:3;stroke-dasharray:0,0,0,2.76634"/><path id="line977" d="M88.489 133.361h0" style="fill:none;stroke:#000;stroke-width:1.41732px;stroke-linecap:round;stroke-miterlimit:3"/></g><g id="g987"><path id="line981" d="M60.825 137.151h0" style="fill:none;stroke:#2a6698;stroke-width:1.41732px;stroke-linecap:round;stroke-miterlimit:3"/><path id="line983" d="M63.592 137.151h23.513" style="fill:none;stroke:#2a6698;stroke-width:1.41732px;stroke-linecap:round;stroke-miterlimit:3;stroke-dasharray:0,0,0,2.76634"/><path id="line985" d="M88.489 137.151h0" style="fill:none;stroke:#2a6698;stroke-width:1.41732px;stroke-linecap:round;stroke-miterlimit:3"/></g><g id="g1005"><g id="g995"><path id="line989" d="M60.825 129.572h0" style="fill:none;stroke:#3b3b3b;stroke-width:1.98425px;stroke-linecap:round;stroke-miterlimit:3"/><path id="line991" d="M63.592 129.572h23.513" style="fill:none;stroke:#3b3b3b;stroke-width:1.98425px;stroke-linecap:round;stroke-miterlimit:3;stroke-dasharray:0,0,0,2.76634"/><path id="line993" d="M88.489 129.572h0" style="fill:none;stroke:#3b3b3b;stroke-width:1.98425px;stroke-linecap:round;stroke-miterlimit:3"/></g><g id="g1003"><path id="line997" d="M60.825 129.572h0" style="fill:none;stroke:#fbd700;stroke-width:1.41732px;stroke-linecap:round;stroke-miterlimit:3"/><path id="line999" d="M63.592 129.572h23.513" style="fill:none;stroke:#fbd700;stroke-width:1.41732px;stroke-linecap:round;stroke-miterlimit:3;stroke-dasharray:0,0,0,2.76634"/><path id="line1001" d="M88.489 129.572h0" style="fill:none;stroke:#fbd700;stroke-width:1.41732px;stroke-linecap:round;stroke-miterlimit:3"/></g></g></g><g id="g1036"><g id="text402292-9-5-9-7" style="isolation:isolate"><text id="text1031" style="font-size:6px;font-family:SBBWeb-Roman,&quot;SBB Web&quot;,Arial,&quot;SBB Web&quot;;isolation:isolate" transform="translate(102.438 146.933)"><tspan id="tspan1009" x="0" y="0" style="letter-spacing:-.02588em">K</tspan><tspan id="tspan1011" x="3.847" y="0">eine</tspan><tspan id="tspan1013" x="0" y="7.2">E</tspan><tspan id="tspan1015" x="3.665" y="7.2" style="letter-spacing:.00439em">r</tspan><tspan id="tspan1017" x="5.689" y="7.2">mä</tspan><tspan id="tspan1019" x="14.03" y="7.2" style="letter-spacing:.00488em">s</tspan><tspan id="tspan1021" x="17.06" y="7.2">s</tspan><tspan id="tspan1023" x="20.06" y="7.2" style="letter-spacing:-.00146em">i</tspan><tspan id="tspan1025" x="21.384" y="7.2">gu</tspan><tspan id="tspan1027" x="28.166" y="7.2" style="letter-spacing:-.00244em">n</tspan><tspan id="tspan1029" x="31.488" y="7.2">g</tspan></text></g><path id="line1034" d="M103.358 137.151h27.664" style="fill:none;stroke:#999;stroke-width:1.41732px;stroke-linecap:square;stroke-miterlimit:3"/></g><g id="state-publisher"><g id="text2350" style="isolation:isolate"><text id="text1040" style="font-size:6px;font-family:SBBWeb-Roman,&quot;SBB Web&quot;,Arial,&quot;SBB Web&quot;;isolation:isolate" transform="translate(41.786 88.501)"><tspan id="tspan1038" x="0" y="0">***publishedAt***</tspan></text></g><g id="text2347" style="isolation:isolate"><text id="text1045" style="font-size:6px;font-family:SBBWeb-Roman,&quot;SBB Web&quot;,Arial,&quot;SBB Web&quot;;isolation:isolate" transform="translate(17.075 88.501)"><tspan id="tspan1043" x="0" y="0">Stand:</tspan></text></g></g></g></svg>