<svg id="a3" xmlns="http://www.w3.org/2000/svg" width="419.99999mm" height="297mm" viewBox="0 0 1190.55118 841.88976">
  <rect width="1190.55118" height="841.88976" style="fill: none; stroke-width: 0px;"/>
  <g id="rand">
    <path id="rect1034" d="M22.45286,790.40013h717.72569c1.40898,0,2.55118,1.1422,2.55118,2.55118v23.76508c0,1.40898-1.1422,2.55118-2.55118,2.55118H22.45286v-28.86744Z" style="fill: #fff; stroke-width: 0px;"/>
    <text transform="translate(75.08447 807.51408) scale(1.1178 1)" style="font-family: SBBWeb-Roman,'SBB Web',Arial, &apos;SBB Web&apos;; font-size: 5.5px; isolation: isolate;"><tspan x="0" y="0" style="letter-spacing: -.00588em;">A</tspan><tspan x="3.53128" y="0" style="letter-spacing: .00008em;">uf </tspan><tspan x="9.74595" y="0" style="letter-spacing: -.00103em;">g</tspan><tspan x="12.8985" y="0" style="letter-spacing: -.01414em;">e</tspan><tspan x="15.77498" y="0" style="letter-spacing: -.00739em;">w</tspan><tspan x="19.90252" y="0">i</tspan><tspan x="21.12432" y="0" style="letter-spacing: .00492em;">s</tspan><tspan x="23.9012" y="0" style="letter-spacing: .00008em;">sen </tspan><tspan x="34.19231" y="0" style="letter-spacing: -.0058em;">A</tspan><tspan x="37.72402" y="0">u</tspan><tspan x="40.78265" y="0" style="letter-spacing: -.0224em;">t</tspan><tspan x="42.39147" y="0" style="letter-spacing: -.00008em;">obuslinien i</tspan><tspan x="70.10613" y="0" style="letter-spacing: -.0054em;">s</tspan><tspan x="72.82623" y="0" style="letter-spacing: .00008em;">t ein Zus</tspan><tspan x="94.01782" y="0" style="letter-spacing: -.00342em;">c</tspan><tspan x="96.95327" y="0" style="letter-spacing: .00008em;">hl</tspan><tspan x="101.23413" y="0" style="letter-spacing: -.00397em;">a</tspan><tspan x="104.16652" y="0">g und/oder eine </tspan><tspan x="144.51148" y="0" style="letter-spacing: -.01557em;">P</tspan><tspan x="147.98946" y="0">l</tspan><tspan x="149.21126" y="0" style="letter-spacing: -.00882em;">a</tspan><tspan x="152.117" y="0" style="letter-spacing: .01025em;">t</tspan><tspan x="153.90536" y="0" style="letter-spacing: .00008em;">z</tspan><tspan x="156.54551" y="0" style="letter-spacing: -.01422em;">r</tspan><tspan x="158.29892" y="0" style="letter-spacing: .00437em;">e</tspan><tspan x="161.27718" y="0" style="letter-spacing: .00008em;">se</tspan><tspan x="166.98121" y="0" style="letter-spacing: .02788em;">r</tspan><tspan x="168.96613" y="0" style="letter-spacing: -.00588em;">v</tspan><tspan x="171.68361" y="0" style="letter-spacing: .00008em;">ie</tspan><tspan x="175.85963" y="0" style="letter-spacing: .00492em;">r</tspan><tspan x="177.71832" y="0">u</tspan><tspan x="180.77695" y="0" style="letter-spacing: -.00238em;">n</tspan><tspan x="183.82248" y="0">g e</tspan><tspan x="191.46295" y="0" style="letter-spacing: .03026em;">r</tspan><tspan x="193.46097" y="0" style="letter-spacing: -.01858em;">f</tspan><tspan x="194.98636" y="0">o</tspan><tspan x="198.14459" y="0" style="letter-spacing: -.00985em;">r</tspan><tspan x="199.92202" y="0">de</tspan><tspan x="206.1367" y="0" style="letter-spacing: .00191em;">r</tspan><tspan x="207.97878" y="0">li</tspan><tspan x="210.42281" y="0" style="letter-spacing: -.00349em;">c</tspan><tspan x="213.35782" y="0" style="letter-spacing: .00008em;">h. Bi</tspan><tspan x="224.46273" y="0" style="letter-spacing: .01612em;">t</tspan><tspan x="226.28341" y="0" style="letter-spacing: -.02049em;">t</tspan><tspan x="227.90271" y="0">e b</tspan><tspan x="235.64496" y="0" style="letter-spacing: .00246em;">e</tspan><tspan x="238.61273" y="0">a</tspan><tspan x="241.56696" y="0" style="letter-spacing: -.00342em;">c</tspan><tspan x="244.50198" y="0">h</tspan><tspan x="247.56061" y="0" style="letter-spacing: -.02049em;">t</tspan><tspan x="249.18035" y="0">en </tspan><tspan x="256.72166" y="0" style="letter-spacing: -.00206em;">S</tspan><tspan x="260.2739" y="0">ie </tspan><tspan x="265.97793" y="0" style="letter-spacing: -.01175em;">z</tspan><tspan x="268.55344" y="0" style="letter-spacing: .00016em;">udem, </tspan><tspan x="285.57468" y="0" style="letter-spacing: -.00588em;">d</tspan><tspan x="288.8028" y="0">a</tspan><tspan x="291.7566" y="0" style="letter-spacing: .00492em;">s</tspan><tspan x="294.53392" y="0" style="letter-spacing: -.00016em;">s </tspan><tspan x="298.81216" y="0" style="letter-spacing: -.02303em;">v</tspan><tspan x="301.43572" y="0">om 21. Mä</tspan><tspan x="327.73245" y="0" style="letter-spacing: .01573em;">r</tspan><tspan x="329.65011" y="0" style="letter-spacing: -.00016em;">z bis </tspan><tspan x="342.57831" y="0" style="letter-spacing: -.01175em;">z</tspan><tspan x="345.15382" y="0">um 31. O</tspan><tspan x="367.78474" y="0" style="letter-spacing: .01986em;">k</tspan><tspan x="370.74902" y="0" style="letter-spacing: -.0224em;">t</tspan><tspan x="372.35828" y="0">ober </tspan><tspan x="385.08991" y="0" style="letter-spacing: -.00095em;">f</tspan><tspan x="386.71227" y="0">ür </tspan><tspan x="393.13008" y="0" style="letter-spacing: -.044em;">V</tspan><tspan x="396.24812" y="0" style="letter-spacing: .00254em;">e</tspan><tspan x="399.21589" y="0">los in In</tspan><tspan x="418.16527" y="0" style="letter-spacing: -.02065em;">t</tspan><tspan x="419.78413" y="0" style="letter-spacing: .00016em;">erCi</tspan><tspan x="429.76379" y="0" style="letter-spacing: .01557em;">t</tspan><tspan x="431.58184" y="0">y (IC)</tspan><tspan x="444.10206" y="0" style="letter-spacing: -.04448em;">-</tspan><tspan x="445.99787" y="0" style="letter-spacing: .00016em;">Zü</tspan><tspan x="452.41655" y="0" style="letter-spacing: -.00095em;">g</tspan><tspan x="455.56953" y="0">en eine </tspan><tspan x="474.8273" y="0" style="letter-spacing: -.044em;">V</tspan><tspan x="477.94535" y="0" style="letter-spacing: .00238em;">e</tspan><tspan x="480.91225" y="0">lopl</tspan><tspan x="489.77451" y="0" style="letter-spacing: -.00874em;">a</tspan><tspan x="492.68025" y="0" style="letter-spacing: .01032em;">t</tspan><tspan x="494.46948" y="0" style="letter-spacing: -.00016em;">z</tspan><tspan x="497.10876" y="0" style="letter-spacing: -.01398em;">r</tspan><tspan x="498.86304" y="0" style="letter-spacing: .00445em;">e</tspan><tspan x="501.8413" y="0" style="letter-spacing: -.00016em;">se</tspan><tspan x="507.54534" y="0" style="letter-spacing: .0278em;">r</tspan><tspan x="509.52938" y="0" style="letter-spacing: -.02097em;">v</tspan><tspan x="512.1643" y="0" style="letter-spacing: -.00874em;">a</tspan><tspan x="515.07005" y="0" style="letter-spacing: -.01271em;">t</tspan><tspan x="516.73259" y="0" style="letter-spacing: -.00016em;">ion obl</tspan><tspan x="533.33972" y="0" style="letter-spacing: -.00159em;">i</tspan><tspan x="534.55322" y="0" style="letter-spacing: -.00381em;">g</tspan><tspan x="537.69048" y="0" style="letter-spacing: -.00874em;">a</tspan><tspan x="540.59623" y="0" style="letter-spacing: -.02256em;">t</tspan><tspan x="542.20461" y="0">o</tspan><tspan x="545.36284" y="0" style="letter-spacing: .00206em;">r</tspan><tspan x="547.20535" y="0" style="letter-spacing: -.00016em;">is</tspan><tspan x="551.17695" y="0" style="letter-spacing: -.00334em;">c</tspan><tspan x="554.1124" y="0">h i</tspan><tspan x="559.92127" y="0" style="letter-spacing: -.00556em;">s</tspan><tspan x="562.64093" y="0" style="letter-spacing: -.00921em;">t</tspan><tspan x="564.32269" y="0">. </tspan><tspan x="0" y="7.5">Bi</tspan><tspan x="4.98983" y="7.5" style="letter-spacing: .01612em;">t</tspan><tspan x="6.8105" y="7.5" style="letter-spacing: -.02049em;">t</tspan><tspan x="8.42981" y="7.5">e b</tspan><tspan x="16.17249" y="7.5" style="letter-spacing: .00238em;">e</tspan><tspan x="19.13983" y="7.5">a</tspan><tspan x="22.09406" y="7.5" style="letter-spacing: -.00349em;">c</tspan><tspan x="25.02908" y="7.5" style="letter-spacing: .00008em;">h</tspan><tspan x="28.08815" y="7.5" style="letter-spacing: -.02049em;">t</tspan><tspan x="29.70745" y="7.5">en </tspan><tspan x="37.24832" y="7.5" style="letter-spacing: -.00191em;">S</tspan><tspan x="40.80144" y="7.5">ie die Hi</tspan><tspan x="60.66377" y="7.5" style="letter-spacing: -.01851em;">n</tspan><tspan x="63.62063" y="7.5" style="letter-spacing: -.01716em;">w</tspan><tspan x="67.69444" y="7.5">eise </tspan><tspan x="79.1025" y="7.5" style="letter-spacing: -.00095em;">f</tspan><tspan x="80.72486" y="7.5">ür die </tspan><tspan x="96.10758" y="7.5" style="letter-spacing: -.00103em;">g</tspan><tspan x="99.26013" y="7.5" style="letter-spacing: -.01414em;">e</tspan><tspan x="102.13661" y="7.5" style="letter-spacing: -.00397em;">w</tspan><tspan x="106.28293" y="7.5">üns</tspan><tspan x="115.15043" y="7.5" style="letter-spacing: -.00342em;">c</tspan><tspan x="118.08588" y="7.5">h</tspan><tspan x="121.14452" y="7.5" style="letter-spacing: -.02041em;">t</tspan><tspan x="122.76426" y="7.5" style="letter-spacing: -.00008em;">e </tspan><tspan x="127.24606" y="7.5" style="letter-spacing: -.04392em;">V</tspan><tspan x="130.3641" y="7.5">e</tspan><tspan x="133.31833" y="7.5" style="letter-spacing: .00238em;">r</tspan><tspan x="135.16303" y="7.5">bindu</tspan><tspan x="149.02342" y="7.5" style="letter-spacing: -.00246em;">n</tspan><tspan x="152.06852" y="7.5">g im (Onlin</tspan><tspan x="178.36001" y="7.5" style="letter-spacing: .00778em;">e</tspan><tspan x="181.35705" y="7.5">-)</tspan><tspan x="184.92065" y="7.5" style="letter-spacing: -.02684em;">F</tspan><tspan x="187.93123" y="7.5">ah</tspan><tspan x="193.9441" y="7.5" style="letter-spacing: .00294em;">r</tspan><tspan x="195.79186" y="7.5">plan. </tspan><tspan x="209.34298" y="7.5" style="letter-spacing: -.0058em;">A</tspan><tspan x="212.87469" y="7.5">us </tspan><tspan x="220.21157" y="7.5" style="letter-spacing: -.01565em;">P</tspan><tspan x="223.68912" y="7.5" style="letter-spacing: .00008em;">l</tspan><tspan x="224.91135" y="7.5" style="letter-spacing: -.00882em;">a</tspan><tspan x="227.81709" y="7.5" style="letter-spacing: .01025em;">t</tspan><tspan x="229.60544" y="7.5" style="letter-spacing: .00008em;">zg</tspan><tspan x="235.40645" y="7.5" style="letter-spacing: .00484em;">r</tspan><tspan x="237.2647" y="7.5">ünden sin</tspan><tspan x="261.21394" y="7.5" style="letter-spacing: -.01128em;">d</tspan><tspan x="264.41236" y="7.5">, je na</tspan><tspan x="279.18571" y="7.5" style="letter-spacing: -.00334em;">c</tspan><tspan x="282.12116" y="7.5">h </tspan><tspan x="286.7078" y="7.5" style="letter-spacing: -.01271em;">Z</tspan><tspan x="289.99795" y="7.5">oom</tspan><tspan x="301.00588" y="7.5" style="letter-spacing: -.0054em;">s</tspan><tspan x="303.72642" y="7.5" style="letter-spacing: -.00985em;">t</tspan><tspan x="305.40469" y="7.5">u</tspan><tspan x="308.46332" y="7.5" style="letter-spacing: -.01906em;">f</tspan><tspan x="309.98609" y="7.5" style="letter-spacing: -.00826em;">e</tspan><tspan x="312.89446" y="7.5">, ni</tspan><tspan x="320.23133" y="7.5" style="letter-spacing: -.00334em;">c</tspan><tspan x="323.16678" y="7.5">ht alle Linien a</tspan><tspan x="358.42275" y="7.5" style="letter-spacing: -.00238em;">n</tspan><tspan x="361.46828" y="7.5" style="letter-spacing: -.00095em;">g</tspan><tspan x="364.62127" y="7.5" style="letter-spacing: .00635em;">e</tspan><tspan x="367.61001" y="7.5" style="letter-spacing: -.00095em;">g</tspan><tspan x="370.763" y="7.5" style="letter-spacing: .00286em;">e</tspan><tspan x="373.73252" y="7.5">ben. Alle A</tspan><tspan x="400.11575" y="7.5" style="letter-spacing: -.00238em;">n</tspan><tspan x="403.16127" y="7.5" style="letter-spacing: -.00397em;">g</tspan><tspan x="406.29766" y="7.5">aben ohne </tspan><tspan x="433.81139" y="7.5" style="letter-spacing: .00334em;">G</tspan><tspan x="438.00314" y="7.5" style="letter-spacing: .00635em;">e</tspan><tspan x="440.99188" y="7.5" style="letter-spacing: -.00381em;">g</tspan><tspan x="444.12914" y="7.5">äh</tspan><tspan x="450.14157" y="7.5" style="letter-spacing: -.0683em;">r</tspan><tspan x="451.59707" y="7.5" style="letter-spacing: .00016em;">. Ände</tspan><tspan x="467.49043" y="7.5" style="letter-spacing: .00492em;">r</tspan><tspan x="469.34867" y="7.5">u</tspan><tspan x="472.40731" y="7.5" style="letter-spacing: -.00238em;">n</tspan><tspan x="475.45283" y="7.5" style="letter-spacing: -.00095em;">g</tspan><tspan x="478.60582" y="7.5">en </tspan><tspan x="486.14713" y="7.5" style="letter-spacing: -.02303em;">v</tspan><tspan x="488.77069" y="7.5">o</tspan><tspan x="491.92892" y="7.5" style="letter-spacing: .00445em;">r</tspan><tspan x="493.78454" y="7.5">h</tspan><tspan x="496.84318" y="7.5" style="letter-spacing: .00492em;">e</tspan><tspan x="499.82405" y="7.5" style="letter-spacing: .00016em;">hal</tspan><tspan x="507.05959" y="7.5" style="letter-spacing: -.02065em;">t</tspan><tspan x="508.67845" y="7.5">en. </tspan><tspan x="517.74777" y="7.5" style="letter-spacing: -.00349em;">E</tspan><tspan x="521.08859" y="7.5">s gilt der A</tspan><tspan x="547.36611" y="7.5" style="letter-spacing: -.01843em;">n</tspan><tspan x="550.3234" y="7.5" style="letter-spacing: -.01716em;">w</tspan><tspan x="554.39721" y="7.5">endu</tspan><tspan x="566.72959" y="7.5" style="letter-spacing: -.00238em;">n</tspan><tspan x="569.77512" y="7.5" style="letter-spacing: -.00111em;">g</tspan><tspan x="572.92723" y="7.5">sbe</tspan><tspan x="581.89171" y="7.5" style="letter-spacing: -.01414em;">r</tspan><tspan x="583.64512" y="7.5" style="letter-spacing: .00016em;">ei</tspan><tspan x="587.82114" y="7.5" style="letter-spacing: -.00334em;">c</tspan><tspan x="590.75659" y="7.5">h.</tspan></text>
    <text transform="translate(75.03346 798.33693)" style="font-family: SBBWeb-Roman,'SBB Web',Arial, &apos;SBB Web&apos;; font-size: 5.5px; isolation: isolate;"><tspan x="0" y="0" style="letter-spacing: .00692em;">Q</tspan><tspan x="4.2168" y="0">u</tspan><tspan x="7.27539" y="0" style="letter-spacing: .00231em;">e</tspan><tspan x="10.24219" y="0" style="letter-spacing: .00018em;">ll</tspan><tspan x="12.68652" y="0" style="letter-spacing: .02006em;">e</tspan><tspan x="15.75098" y="0">: OpenS</tspan><tspan x="35.82227" y="0" style="letter-spacing: -.00835em;">t</tspan><tspan x="37.50879" y="0" style="letter-spacing: -.0142em;">r</tspan><tspan x="39.2627" y="0">e</tspan><tspan x="42.2168" y="0" style="letter-spacing: -.00781em;">e</tspan><tspan x="45.12793" y="0">tMap </tspan><tspan x="59.39355" y="0" style="letter-spacing: -.00107em;">c</tspan><tspan x="62.3418" y="0">on</tspan><tspan x="68.55957" y="0" style="letter-spacing: -.00835em;">t</tspan><tspan x="70.24609" y="0" style="letter-spacing: .00178em;">r</tspan><tspan x="72.08789" y="0" style="letter-spacing: .00018em;">ibu</tspan><tspan x="79.62891" y="0" style="letter-spacing: -.02237em;">t</tspan><tspan x="81.23828" y="0">o</tspan><tspan x="84.39648" y="0" style="letter-spacing: .00568em;">r</tspan><tspan x="86.25977" y="0" xml:space="preserve">s  © SBB/CFF</tspan><tspan x="121.21191" y="0" style="letter-spacing: .04652em;">/</tspan><tspan x="123.29883" y="0">F</tspan><tspan x="126.45703" y="0" style="letter-spacing: -.01758em;">F</tspan><tspan x="129.51855" y="0">S ww</tspan><tspan x="142.94629" y="0" style="letter-spacing: -.0522em;">w</tspan><tspan x="146.82715" y="0">.</tspan><tspan x="148.35547" y="0" style="letter-spacing: -.00852em;">t</tspan><tspan x="150.04102" y="0" style="letter-spacing: -.0032em;">r</tspan><tspan x="151.85449" y="0">aﬁm</tspan><tspan x="162.34961" y="0" style="letter-spacing: -.00391em;">a</tspan><tspan x="165.28223" y="0" style="letter-spacing: -.00107em;">g</tspan><tspan x="168.43457" y="0" style="letter-spacing: -.00781em;">e</tspan><tspan x="171.3457" y="0">.</tspan><tspan x="172.87402" y="0" style="letter-spacing: -.00337em;">c</tspan><tspan x="175.80957" y="0">h ww</tspan><tspan x="188.73242" y="0" style="letter-spacing: -.0522em;">w</tspan><tspan x="192.61328" y="0" style="letter-spacing: -.00018em;">.geop</tspan><tspan x="206.66602" y="0" style="letter-spacing: -.00249em;">s</tspan><tspan x="209.40234" y="0">.</tspan><tspan x="210.93066" y="0" style="letter-spacing: -.00337em;">c</tspan><tspan x="213.86621" y="0">h</tspan></text>
    <g id="qr-code">
      <rect id="rect23865" x="22.45288" y="768.45139" width="51.02362" height="51.02362" style="fill: #fff; stroke-width: 0px;"/>
      <path id="path23867" d="M23.9107,769.9092h1.45782v1.45782h-1.45782v-1.45782ZM25.36851,769.9092h1.45782v1.45782h-1.45782v-1.45782ZM26.82633,769.9092h1.45782v1.45782h-1.45782v-1.45782ZM28.28415,769.9092h1.45782v1.45782h-1.45782v-1.45782ZM29.74197,769.9092h1.45782v1.45782h-1.45782v-1.45782ZM31.19978,769.9092h1.45782v1.45782h-1.45782v-1.45782ZM32.6576,769.9092h1.45782v1.45782h-1.45782v-1.45782ZM38.48887,769.9092h1.45782v1.45782h-1.45782v-1.45782ZM41.40451,769.9092h1.45782v1.45782h-1.45782v-1.45782ZM47.23578,769.9092h1.45782v1.45782h-1.45782v-1.45782ZM51.60923,769.9092h1.45782v1.45782h-1.45782v-1.45782ZM53.06705,769.9092h1.45782v1.45782h-1.45782v-1.45782ZM54.52487,769.9092h1.45782v1.45782h-1.45782v-1.45782ZM55.98268,769.9092h1.45782v1.45782h-1.45782v-1.45782ZM57.4405,769.9092h1.45782v1.45782h-1.45782v-1.45782ZM61.81396,769.9092h1.45782v1.45782h-1.45782v-1.45782ZM63.27177,769.9092h1.45782v1.45782h-1.45782v-1.45782ZM64.72959,769.9092h1.45782v1.45782h-1.45782v-1.45782ZM66.18741,769.9092h1.45782v1.45782h-1.45782v-1.45782ZM67.64523,769.9092h1.45782v1.45782h-1.45782v-1.45782ZM69.10304,769.9092h1.45782v1.45782h-1.45782v-1.45782ZM70.56086,769.9092h1.45782v1.45782h-1.45782v-1.45782ZM23.9107,771.36702h1.45782v1.45782h-1.45782v-1.45782ZM32.6576,771.36702h1.45782v1.45782h-1.45782v-1.45782ZM35.57324,771.36702h1.45782v1.45782h-1.45782v-1.45782ZM38.48887,771.36702h1.45782v1.45782h-1.45782v-1.45782ZM42.86233,771.36702h1.45782v1.45782h-1.45782v-1.45782ZM45.77796,771.36702h1.45782v1.45782h-1.45782v-1.45782ZM47.23578,771.36702h1.45782v1.45782h-1.45782v-1.45782ZM48.6936,771.36702h1.45782v1.45782h-1.45782v-1.45782ZM50.15141,771.36702h1.45782v1.45782h-1.45782v-1.45782ZM53.06705,771.36702h1.45782v1.45782h-1.45782v-1.45782ZM54.52487,771.36702h1.45782v1.45782h-1.45782v-1.45782ZM55.98268,771.36702h1.45782v1.45782h-1.45782v-1.45782ZM61.81396,771.36702h1.45782v1.45782h-1.45782v-1.45782ZM70.56086,771.36702h1.45782v1.45782h-1.45782v-1.45782ZM23.9107,772.82484h1.45782v1.45782h-1.45782v-1.45782ZM26.82633,772.82484h1.45782v1.45782h-1.45782v-1.45782ZM28.28415,772.82484h1.45782v1.45782h-1.45782v-1.45782ZM29.74197,772.82484h1.45782v1.45782h-1.45782v-1.45782ZM32.6576,772.82484h1.45782v1.45782h-1.45782v-1.45782ZM41.40451,772.82484h1.45782v1.45782h-1.45782v-1.45782ZM51.60923,772.82484h1.45782v1.45782h-1.45782v-1.45782ZM53.06705,772.82484h1.45782v1.45782h-1.45782v-1.45782ZM54.52487,772.82484h1.45782v1.45782h-1.45782v-1.45782ZM61.81396,772.82484h1.45782v1.45782h-1.45782v-1.45782ZM64.72959,772.82484h1.45782v1.45782h-1.45782v-1.45782ZM66.18741,772.82484h1.45782v1.45782h-1.45782v-1.45782ZM67.64523,772.82484h1.45782v1.45782h-1.45782v-1.45782ZM70.56086,772.82484h1.45782v1.45782h-1.45782v-1.45782ZM23.9107,774.28266h1.45782v1.45782h-1.45782v-1.45782ZM26.82633,774.28266h1.45782v1.45782h-1.45782v-1.45782ZM28.28415,774.28266h1.45782v1.45782h-1.45782v-1.45782ZM29.74197,774.28266h1.45782v1.45782h-1.45782v-1.45782ZM32.6576,774.28266h1.45782v1.45782h-1.45782v-1.45782ZM35.57324,774.28266h1.45782v1.45782h-1.45782v-1.45782ZM37.03105,774.28266h1.45782v1.45782h-1.45782v-1.45782ZM38.48887,774.28266h1.45782v1.45782h-1.45782v-1.45782ZM41.40451,774.28266h1.45782v1.45782h-1.45782v-1.45782ZM42.86233,774.28266h1.45782v1.45782h-1.45782v-1.45782ZM44.32014,774.28266h1.45782v1.45782h-1.45782v-1.45782ZM45.77796,774.28266h1.45782v1.45782h-1.45782v-1.45782ZM47.23578,774.28266h1.45782v1.45782h-1.45782v-1.45782ZM48.6936,774.28266h1.45782v1.45782h-1.45782v-1.45782ZM50.15141,774.28266h1.45782v1.45782h-1.45782v-1.45782ZM51.60923,774.28266h1.45782v1.45782h-1.45782v-1.45782ZM55.98268,774.28266h1.45782v1.45782h-1.45782v-1.45782ZM58.89832,774.28266h1.45782v1.45782h-1.45782v-1.45782ZM61.81396,774.28266h1.45782v1.45782h-1.45782v-1.45782ZM64.72959,774.28266h1.45782v1.45782h-1.45782v-1.45782ZM66.18741,774.28266h1.45782v1.45782h-1.45782v-1.45782ZM67.64523,774.28266h1.45782v1.45782h-1.45782v-1.45782ZM70.56086,774.28266h1.45782v1.45782h-1.45782v-1.45782ZM23.9107,775.74047h1.45782v1.45782h-1.45782v-1.45782ZM26.82633,775.74047h1.45782v1.45782h-1.45782v-1.45782ZM28.28415,775.74047h1.45782v1.45782h-1.45782v-1.45782ZM29.74197,775.74047h1.45782v1.45782h-1.45782v-1.45782ZM32.6576,775.74047h1.45782v1.45782h-1.45782v-1.45782ZM37.03105,775.74047h1.45782v1.45782h-1.45782v-1.45782ZM47.23578,775.74047h1.45782v1.45782h-1.45782v-1.45782ZM48.6936,775.74047h1.45782v1.45782h-1.45782v-1.45782ZM50.15141,775.74047h1.45782v1.45782h-1.45782v-1.45782ZM51.60923,775.74047h1.45782v1.45782h-1.45782v-1.45782ZM53.06705,775.74047h1.45782v1.45782h-1.45782v-1.45782ZM54.52487,775.74047h1.45782v1.45782h-1.45782v-1.45782ZM55.98268,775.74047h1.45782v1.45782h-1.45782v-1.45782ZM57.4405,775.74047h1.45782v1.45782h-1.45782v-1.45782ZM61.81396,775.74047h1.45782v1.45782h-1.45782v-1.45782ZM64.72959,775.74047h1.45782v1.45782h-1.45782v-1.45782ZM66.18741,775.74047h1.45782v1.45782h-1.45782v-1.45782ZM67.64523,775.74047h1.45782v1.45782h-1.45782v-1.45782ZM70.56086,775.74047h1.45782v1.45782h-1.45782v-1.45782ZM23.9107,777.19829h1.45782v1.45782h-1.45782v-1.45782ZM32.6576,777.19829h1.45782v1.45782h-1.45782v-1.45782ZM35.57324,777.19829h1.45782v1.45782h-1.45782v-1.45782ZM37.03105,777.19829h1.45782v1.45782h-1.45782v-1.45782ZM39.94669,777.19829h1.45782v1.45782h-1.45782v-1.45782ZM41.40451,777.19829h1.45782v1.45782h-1.45782v-1.45782ZM44.32014,777.19829h1.45782v1.45782h-1.45782v-1.45782ZM45.77796,777.19829h1.45782v1.45782h-1.45782v-1.45782ZM47.23578,777.19829h1.45782v1.45782h-1.45782v-1.45782ZM48.6936,777.19829h1.45782v1.45782h-1.45782v-1.45782ZM54.52487,777.19829h1.45782v1.45782h-1.45782v-1.45782ZM55.98268,777.19829h1.45782v1.45782h-1.45782v-1.45782ZM58.89832,777.19829h1.45782v1.45782h-1.45782v-1.45782ZM61.81396,777.19829h1.45782v1.45782h-1.45782v-1.45782ZM70.56086,777.19829h1.45782v1.45782h-1.45782v-1.45782ZM23.9107,778.65611h1.45782v1.45782h-1.45782v-1.45782ZM25.36851,778.65611h1.45782v1.45782h-1.45782v-1.45782ZM26.82633,778.65611h1.45782v1.45782h-1.45782v-1.45782ZM28.28415,778.65611h1.45782v1.45782h-1.45782v-1.45782ZM29.74197,778.65611h1.45782v1.45782h-1.45782v-1.45782ZM31.19978,778.65611h1.45782v1.45782h-1.45782v-1.45782ZM32.6576,778.65611h1.45782v1.45782h-1.45782v-1.45782ZM35.57324,778.65611h1.45782v1.45782h-1.45782v-1.45782ZM38.48887,778.65611h1.45782v1.45782h-1.45782v-1.45782ZM41.40451,778.65611h1.45782v1.45782h-1.45782v-1.45782ZM44.32014,778.65611h1.45782v1.45782h-1.45782v-1.45782ZM47.23578,778.65611h1.45782v1.45782h-1.45782v-1.45782ZM50.15141,778.65611h1.45782v1.45782h-1.45782v-1.45782ZM53.06705,778.65611h1.45782v1.45782h-1.45782v-1.45782ZM55.98268,778.65611h1.45782v1.45782h-1.45782v-1.45782ZM58.89832,778.65611h1.45782v1.45782h-1.45782v-1.45782ZM61.81396,778.65611h1.45782v1.45782h-1.45782v-1.45782ZM63.27177,778.65611h1.45782v1.45782h-1.45782v-1.45782ZM64.72959,778.65611h1.45782v1.45782h-1.45782v-1.45782ZM66.18741,778.65611h1.45782v1.45782h-1.45782v-1.45782ZM67.64523,778.65611h1.45782v1.45782h-1.45782v-1.45782ZM69.10304,778.65611h1.45782v1.45782h-1.45782v-1.45782ZM70.56086,778.65611h1.45782v1.45782h-1.45782v-1.45782ZM37.03105,780.11393h1.45782v1.45782h-1.45782v-1.45782ZM38.48887,780.11393h1.45782v1.45782h-1.45782v-1.45782ZM39.94669,780.11393h1.45782v1.45782h-1.45782v-1.45782ZM44.32014,780.11393h1.45782v1.45782h-1.45782v-1.45782ZM47.23578,780.11393h1.45782v1.45782h-1.45782v-1.45782ZM51.60923,780.11393h1.45782v1.45782h-1.45782v-1.45782ZM54.52487,780.11393h1.45782v1.45782h-1.45782v-1.45782ZM23.9107,781.57175h1.45782v1.45782h-1.45782v-1.45782ZM25.36851,781.57175h1.45782v1.45782h-1.45782v-1.45782ZM26.82633,781.57175h1.45782v1.45782h-1.45782v-1.45782ZM28.28415,781.57175h1.45782v1.45782h-1.45782v-1.45782ZM29.74197,781.57175h1.45782v1.45782h-1.45782v-1.45782ZM32.6576,781.57175h1.45782v1.45782h-1.45782v-1.45782ZM34.11542,781.57175h1.45782v1.45782h-1.45782v-1.45782ZM35.57324,781.57175h1.45782v1.45782h-1.45782v-1.45782ZM37.03105,781.57175h1.45782v1.45782h-1.45782v-1.45782ZM39.94669,781.57175h1.45782v1.45782h-1.45782v-1.45782ZM42.86233,781.57175h1.45782v1.45782h-1.45782v-1.45782ZM44.32014,781.57175h1.45782v1.45782h-1.45782v-1.45782ZM45.77796,781.57175h1.45782v1.45782h-1.45782v-1.45782ZM48.6936,781.57175h1.45782v1.45782h-1.45782v-1.45782ZM55.98268,781.57175h1.45782v1.45782h-1.45782v-1.45782ZM57.4405,781.57175h1.45782v1.45782h-1.45782v-1.45782ZM58.89832,781.57175h1.45782v1.45782h-1.45782v-1.45782ZM60.35614,781.57175h1.45782v1.45782h-1.45782v-1.45782ZM63.27177,781.57175h1.45782v1.45782h-1.45782v-1.45782ZM66.18741,781.57175h1.45782v1.45782h-1.45782v-1.45782ZM69.10304,781.57175h1.45782v1.45782h-1.45782v-1.45782ZM23.9107,783.02956h1.45782v1.45782h-1.45782v-1.45782ZM28.28415,783.02956h1.45782v1.45782h-1.45782v-1.45782ZM31.19978,783.02956h1.45782v1.45782h-1.45782v-1.45782ZM35.57324,783.02956h1.45782v1.45782h-1.45782v-1.45782ZM38.48887,783.02956h1.45782v1.45782h-1.45782v-1.45782ZM41.40451,783.02956h1.45782v1.45782h-1.45782v-1.45782ZM44.32014,783.02956h1.45782v1.45782h-1.45782v-1.45782ZM47.23578,783.02956h1.45782v1.45782h-1.45782v-1.45782ZM50.15141,783.02956h1.45782v1.45782h-1.45782v-1.45782ZM51.60923,783.02956h1.45782v1.45782h-1.45782v-1.45782ZM53.06705,783.02956h1.45782v1.45782h-1.45782v-1.45782ZM54.52487,783.02956h1.45782v1.45782h-1.45782v-1.45782ZM57.4405,783.02956h1.45782v1.45782h-1.45782v-1.45782ZM61.81396,783.02956h1.45782v1.45782h-1.45782v-1.45782ZM63.27177,783.02956h1.45782v1.45782h-1.45782v-1.45782ZM67.64523,783.02956h1.45782v1.45782h-1.45782v-1.45782ZM69.10304,783.02956h1.45782v1.45782h-1.45782v-1.45782ZM70.56086,783.02956h1.45782v1.45782h-1.45782v-1.45782ZM23.9107,784.48738h1.45782v1.45782h-1.45782v-1.45782ZM32.6576,784.48738h1.45782v1.45782h-1.45782v-1.45782ZM34.11542,784.48738h1.45782v1.45782h-1.45782v-1.45782ZM38.48887,784.48738h1.45782v1.45782h-1.45782v-1.45782ZM42.86233,784.48738h1.45782v1.45782h-1.45782v-1.45782ZM45.77796,784.48738h1.45782v1.45782h-1.45782v-1.45782ZM48.6936,784.48738h1.45782v1.45782h-1.45782v-1.45782ZM53.06705,784.48738h1.45782v1.45782h-1.45782v-1.45782ZM54.52487,784.48738h1.45782v1.45782h-1.45782v-1.45782ZM55.98268,784.48738h1.45782v1.45782h-1.45782v-1.45782ZM58.89832,784.48738h1.45782v1.45782h-1.45782v-1.45782ZM60.35614,784.48738h1.45782v1.45782h-1.45782v-1.45782ZM61.81396,784.48738h1.45782v1.45782h-1.45782v-1.45782ZM63.27177,784.48738h1.45782v1.45782h-1.45782v-1.45782ZM64.72959,784.48738h1.45782v1.45782h-1.45782v-1.45782ZM66.18741,784.48738h1.45782v1.45782h-1.45782v-1.45782ZM69.10304,784.48738h1.45782v1.45782h-1.45782v-1.45782ZM25.36851,785.9452h1.45782v1.45782h-1.45782v-1.45782ZM28.28415,785.9452h1.45782v1.45782h-1.45782v-1.45782ZM31.19978,785.9452h1.45782v1.45782h-1.45782v-1.45782ZM34.11542,785.9452h1.45782v1.45782h-1.45782v-1.45782ZM41.40451,785.9452h1.45782v1.45782h-1.45782v-1.45782ZM47.23578,785.9452h1.45782v1.45782h-1.45782v-1.45782ZM54.52487,785.9452h1.45782v1.45782h-1.45782v-1.45782ZM55.98268,785.9452h1.45782v1.45782h-1.45782v-1.45782ZM61.81396,785.9452h1.45782v1.45782h-1.45782v-1.45782ZM63.27177,785.9452h1.45782v1.45782h-1.45782v-1.45782ZM67.64523,785.9452h1.45782v1.45782h-1.45782v-1.45782ZM23.9107,787.40302h1.45782v1.45782h-1.45782v-1.45782ZM25.36851,787.40302h1.45782v1.45782h-1.45782v-1.45782ZM26.82633,787.40302h1.45782v1.45782h-1.45782v-1.45782ZM28.28415,787.40302h1.45782v1.45782h-1.45782v-1.45782ZM32.6576,787.40302h1.45782v1.45782h-1.45782v-1.45782ZM35.57324,787.40302h1.45782v1.45782h-1.45782v-1.45782ZM37.03105,787.40302h1.45782v1.45782h-1.45782v-1.45782ZM38.48887,787.40302h1.45782v1.45782h-1.45782v-1.45782ZM41.40451,787.40302h1.45782v1.45782h-1.45782v-1.45782ZM42.86233,787.40302h1.45782v1.45782h-1.45782v-1.45782ZM44.32014,787.40302h1.45782v1.45782h-1.45782v-1.45782ZM48.6936,787.40302h1.45782v1.45782h-1.45782v-1.45782ZM57.4405,787.40302h1.45782v1.45782h-1.45782v-1.45782ZM58.89832,787.40302h1.45782v1.45782h-1.45782v-1.45782ZM60.35614,787.40302h1.45782v1.45782h-1.45782v-1.45782ZM63.27177,787.40302h1.45782v1.45782h-1.45782v-1.45782ZM64.72959,787.40302h1.45782v1.45782h-1.45782v-1.45782ZM66.18741,787.40302h1.45782v1.45782h-1.45782v-1.45782ZM25.36851,788.86083h1.45782v1.45782h-1.45782v-1.45782ZM26.82633,788.86083h1.45782v1.45782h-1.45782v-1.45782ZM29.74197,788.86083h1.45782v1.45782h-1.45782v-1.45782ZM34.11542,788.86083h1.45782v1.45782h-1.45782v-1.45782ZM35.57324,788.86083h1.45782v1.45782h-1.45782v-1.45782ZM47.23578,788.86083h1.45782v1.45782h-1.45782v-1.45782ZM50.15141,788.86083h1.45782v1.45782h-1.45782v-1.45782ZM51.60923,788.86083h1.45782v1.45782h-1.45782v-1.45782ZM53.06705,788.86083h1.45782v1.45782h-1.45782v-1.45782ZM57.4405,788.86083h1.45782v1.45782h-1.45782v-1.45782ZM61.81396,788.86083h1.45782v1.45782h-1.45782v-1.45782ZM69.10304,788.86083h1.45782v1.45782h-1.45782v-1.45782ZM70.56086,788.86083h1.45782v1.45782h-1.45782v-1.45782ZM25.36851,790.31865h1.45782v1.45782h-1.45782v-1.45782ZM26.82633,790.31865h1.45782v1.45782h-1.45782v-1.45782ZM28.28415,790.31865h1.45782v1.45782h-1.45782v-1.45782ZM29.74197,790.31865h1.45782v1.45782h-1.45782v-1.45782ZM32.6576,790.31865h1.45782v1.45782h-1.45782v-1.45782ZM34.11542,790.31865h1.45782v1.45782h-1.45782v-1.45782ZM38.48887,790.31865h1.45782v1.45782h-1.45782v-1.45782ZM39.94669,790.31865h1.45782v1.45782h-1.45782v-1.45782ZM41.40451,790.31865h1.45782v1.45782h-1.45782v-1.45782ZM44.32014,790.31865h1.45782v1.45782h-1.45782v-1.45782ZM45.77796,790.31865h1.45782v1.45782h-1.45782v-1.45782ZM47.23578,790.31865h1.45782v1.45782h-1.45782v-1.45782ZM50.15141,790.31865h1.45782v1.45782h-1.45782v-1.45782ZM53.06705,790.31865h1.45782v1.45782h-1.45782v-1.45782ZM54.52487,790.31865h1.45782v1.45782h-1.45782v-1.45782ZM55.98268,790.31865h1.45782v1.45782h-1.45782v-1.45782ZM63.27177,790.31865h1.45782v1.45782h-1.45782v-1.45782ZM64.72959,790.31865h1.45782v1.45782h-1.45782v-1.45782ZM69.10304,790.31865h1.45782v1.45782h-1.45782v-1.45782ZM23.9107,791.77647h1.45782v1.45782h-1.45782v-1.45782ZM31.19978,791.77647h1.45782v1.45782h-1.45782v-1.45782ZM38.48887,791.77647h1.45782v1.45782h-1.45782v-1.45782ZM39.94669,791.77647h1.45782v1.45782h-1.45782v-1.45782ZM44.32014,791.77647h1.45782v1.45782h-1.45782v-1.45782ZM45.77796,791.77647h1.45782v1.45782h-1.45782v-1.45782ZM47.23578,791.77647h1.45782v1.45782h-1.45782v-1.45782ZM51.60923,791.77647h1.45782v1.45782h-1.45782v-1.45782ZM53.06705,791.77647h1.45782v1.45782h-1.45782v-1.45782ZM54.52487,791.77647h1.45782v1.45782h-1.45782v-1.45782ZM55.98268,791.77647h1.45782v1.45782h-1.45782v-1.45782ZM58.89832,791.77647h1.45782v1.45782h-1.45782v-1.45782ZM60.35614,791.77647h1.45782v1.45782h-1.45782v-1.45782ZM61.81396,791.77647h1.45782v1.45782h-1.45782v-1.45782ZM63.27177,791.77647h1.45782v1.45782h-1.45782v-1.45782ZM67.64523,791.77647h1.45782v1.45782h-1.45782v-1.45782ZM23.9107,793.23429h1.45782v1.45782h-1.45782v-1.45782ZM25.36851,793.23429h1.45782v1.45782h-1.45782v-1.45782ZM26.82633,793.23429h1.45782v1.45782h-1.45782v-1.45782ZM31.19978,793.23429h1.45782v1.45782h-1.45782v-1.45782ZM32.6576,793.23429h1.45782v1.45782h-1.45782v-1.45782ZM35.57324,793.23429h1.45782v1.45782h-1.45782v-1.45782ZM38.48887,793.23429h1.45782v1.45782h-1.45782v-1.45782ZM39.94669,793.23429h1.45782v1.45782h-1.45782v-1.45782ZM41.40451,793.23429h1.45782v1.45782h-1.45782v-1.45782ZM42.86233,793.23429h1.45782v1.45782h-1.45782v-1.45782ZM44.32014,793.23429h1.45782v1.45782h-1.45782v-1.45782ZM45.77796,793.23429h1.45782v1.45782h-1.45782v-1.45782ZM47.23578,793.23429h1.45782v1.45782h-1.45782v-1.45782ZM48.6936,793.23429h1.45782v1.45782h-1.45782v-1.45782ZM50.15141,793.23429h1.45782v1.45782h-1.45782v-1.45782ZM51.60923,793.23429h1.45782v1.45782h-1.45782v-1.45782ZM55.98268,793.23429h1.45782v1.45782h-1.45782v-1.45782ZM57.4405,793.23429h1.45782v1.45782h-1.45782v-1.45782ZM58.89832,793.23429h1.45782v1.45782h-1.45782v-1.45782ZM60.35614,793.23429h1.45782v1.45782h-1.45782v-1.45782ZM63.27177,793.23429h1.45782v1.45782h-1.45782v-1.45782ZM64.72959,793.23429h1.45782v1.45782h-1.45782v-1.45782ZM69.10304,793.23429h1.45782v1.45782h-1.45782v-1.45782ZM25.36851,794.6921h1.45782v1.45782h-1.45782v-1.45782ZM26.82633,794.6921h1.45782v1.45782h-1.45782v-1.45782ZM28.28415,794.6921h1.45782v1.45782h-1.45782v-1.45782ZM29.74197,794.6921h1.45782v1.45782h-1.45782v-1.45782ZM34.11542,794.6921h1.45782v1.45782h-1.45782v-1.45782ZM35.57324,794.6921h1.45782v1.45782h-1.45782v-1.45782ZM41.40451,794.6921h1.45782v1.45782h-1.45782v-1.45782ZM42.86233,794.6921h1.45782v1.45782h-1.45782v-1.45782ZM47.23578,794.6921h1.45782v1.45782h-1.45782v-1.45782ZM48.6936,794.6921h1.45782v1.45782h-1.45782v-1.45782ZM50.15141,794.6921h1.45782v1.45782h-1.45782v-1.45782ZM51.60923,794.6921h1.45782v1.45782h-1.45782v-1.45782ZM54.52487,794.6921h1.45782v1.45782h-1.45782v-1.45782ZM57.4405,794.6921h1.45782v1.45782h-1.45782v-1.45782ZM61.81396,794.6921h1.45782v1.45782h-1.45782v-1.45782ZM66.18741,794.6921h1.45782v1.45782h-1.45782v-1.45782ZM69.10304,794.6921h1.45782v1.45782h-1.45782v-1.45782ZM70.56086,794.6921h1.45782v1.45782h-1.45782v-1.45782ZM28.28415,796.14992h1.45782v1.45782h-1.45782v-1.45782ZM31.19978,796.14992h1.45782v1.45782h-1.45782v-1.45782ZM32.6576,796.14992h1.45782v1.45782h-1.45782v-1.45782ZM34.11542,796.14992h1.45782v1.45782h-1.45782v-1.45782ZM41.40451,796.14992h1.45782v1.45782h-1.45782v-1.45782ZM45.77796,796.14992h1.45782v1.45782h-1.45782v-1.45782ZM48.6936,796.14992h1.45782v1.45782h-1.45782v-1.45782ZM53.06705,796.14992h1.45782v1.45782h-1.45782v-1.45782ZM54.52487,796.14992h1.45782v1.45782h-1.45782v-1.45782ZM58.89832,796.14992h1.45782v1.45782h-1.45782v-1.45782ZM61.81396,796.14992h1.45782v1.45782h-1.45782v-1.45782ZM64.72959,796.14992h1.45782v1.45782h-1.45782v-1.45782ZM66.18741,796.14992h1.45782v1.45782h-1.45782v-1.45782ZM69.10304,796.14992h1.45782v1.45782h-1.45782v-1.45782ZM23.9107,797.60774h1.45782v1.45782h-1.45782v-1.45782ZM25.36851,797.60774h1.45782v1.45782h-1.45782v-1.45782ZM26.82633,797.60774h1.45782v1.45782h-1.45782v-1.45782ZM31.19978,797.60774h1.45782v1.45782h-1.45782v-1.45782ZM44.32014,797.60774h1.45782v1.45782h-1.45782v-1.45782ZM45.77796,797.60774h1.45782v1.45782h-1.45782v-1.45782ZM47.23578,797.60774h1.45782v1.45782h-1.45782v-1.45782ZM53.06705,797.60774h1.45782v1.45782h-1.45782v-1.45782ZM54.52487,797.60774h1.45782v1.45782h-1.45782v-1.45782ZM55.98268,797.60774h1.45782v1.45782h-1.45782v-1.45782ZM57.4405,797.60774h1.45782v1.45782h-1.45782v-1.45782ZM58.89832,797.60774h1.45782v1.45782h-1.45782v-1.45782ZM63.27177,797.60774h1.45782v1.45782h-1.45782v-1.45782ZM67.64523,797.60774h1.45782v1.45782h-1.45782v-1.45782ZM23.9107,799.06556h1.45782v1.45782h-1.45782v-1.45782ZM25.36851,799.06556h1.45782v1.45782h-1.45782v-1.45782ZM26.82633,799.06556h1.45782v1.45782h-1.45782v-1.45782ZM29.74197,799.06556h1.45782v1.45782h-1.45782v-1.45782ZM31.19978,799.06556h1.45782v1.45782h-1.45782v-1.45782ZM32.6576,799.06556h1.45782v1.45782h-1.45782v-1.45782ZM38.48887,799.06556h1.45782v1.45782h-1.45782v-1.45782ZM39.94669,799.06556h1.45782v1.45782h-1.45782v-1.45782ZM41.40451,799.06556h1.45782v1.45782h-1.45782v-1.45782ZM42.86233,799.06556h1.45782v1.45782h-1.45782v-1.45782ZM44.32014,799.06556h1.45782v1.45782h-1.45782v-1.45782ZM45.77796,799.06556h1.45782v1.45782h-1.45782v-1.45782ZM47.23578,799.06556h1.45782v1.45782h-1.45782v-1.45782ZM48.6936,799.06556h1.45782v1.45782h-1.45782v-1.45782ZM55.98268,799.06556h1.45782v1.45782h-1.45782v-1.45782ZM58.89832,799.06556h1.45782v1.45782h-1.45782v-1.45782ZM64.72959,799.06556h1.45782v1.45782h-1.45782v-1.45782ZM69.10304,799.06556h1.45782v1.45782h-1.45782v-1.45782ZM23.9107,800.52338h1.45782v1.45782h-1.45782v-1.45782ZM25.36851,800.52338h1.45782v1.45782h-1.45782v-1.45782ZM28.28415,800.52338h1.45782v1.45782h-1.45782v-1.45782ZM29.74197,800.52338h1.45782v1.45782h-1.45782v-1.45782ZM31.19978,800.52338h1.45782v1.45782h-1.45782v-1.45782ZM34.11542,800.52338h1.45782v1.45782h-1.45782v-1.45782ZM35.57324,800.52338h1.45782v1.45782h-1.45782v-1.45782ZM38.48887,800.52338h1.45782v1.45782h-1.45782v-1.45782ZM39.94669,800.52338h1.45782v1.45782h-1.45782v-1.45782ZM47.23578,800.52338h1.45782v1.45782h-1.45782v-1.45782ZM50.15141,800.52338h1.45782v1.45782h-1.45782v-1.45782ZM51.60923,800.52338h1.45782v1.45782h-1.45782v-1.45782ZM53.06705,800.52338h1.45782v1.45782h-1.45782v-1.45782ZM57.4405,800.52338h1.45782v1.45782h-1.45782v-1.45782ZM61.81396,800.52338h1.45782v1.45782h-1.45782v-1.45782ZM66.18741,800.52338h1.45782v1.45782h-1.45782v-1.45782ZM69.10304,800.52338h1.45782v1.45782h-1.45782v-1.45782ZM70.56086,800.52338h1.45782v1.45782h-1.45782v-1.45782ZM23.9107,801.98119h1.45782v1.45782h-1.45782v-1.45782ZM28.28415,801.98119h1.45782v1.45782h-1.45782v-1.45782ZM29.74197,801.98119h1.45782v1.45782h-1.45782v-1.45782ZM31.19978,801.98119h1.45782v1.45782h-1.45782v-1.45782ZM32.6576,801.98119h1.45782v1.45782h-1.45782v-1.45782ZM34.11542,801.98119h1.45782v1.45782h-1.45782v-1.45782ZM35.57324,801.98119h1.45782v1.45782h-1.45782v-1.45782ZM42.86233,801.98119h1.45782v1.45782h-1.45782v-1.45782ZM45.77796,801.98119h1.45782v1.45782h-1.45782v-1.45782ZM48.6936,801.98119h1.45782v1.45782h-1.45782v-1.45782ZM55.98268,801.98119h1.45782v1.45782h-1.45782v-1.45782ZM60.35614,801.98119h1.45782v1.45782h-1.45782v-1.45782ZM61.81396,801.98119h1.45782v1.45782h-1.45782v-1.45782ZM63.27177,801.98119h1.45782v1.45782h-1.45782v-1.45782ZM64.72959,801.98119h1.45782v1.45782h-1.45782v-1.45782ZM66.18741,801.98119h1.45782v1.45782h-1.45782v-1.45782ZM69.10304,801.98119h1.45782v1.45782h-1.45782v-1.45782ZM23.9107,803.43901h1.45782v1.45782h-1.45782v-1.45782ZM29.74197,803.43901h1.45782v1.45782h-1.45782v-1.45782ZM34.11542,803.43901h1.45782v1.45782h-1.45782v-1.45782ZM38.48887,803.43901h1.45782v1.45782h-1.45782v-1.45782ZM44.32014,803.43901h1.45782v1.45782h-1.45782v-1.45782ZM45.77796,803.43901h1.45782v1.45782h-1.45782v-1.45782ZM47.23578,803.43901h1.45782v1.45782h-1.45782v-1.45782ZM53.06705,803.43901h1.45782v1.45782h-1.45782v-1.45782ZM54.52487,803.43901h1.45782v1.45782h-1.45782v-1.45782ZM57.4405,803.43901h1.45782v1.45782h-1.45782v-1.45782ZM60.35614,803.43901h1.45782v1.45782h-1.45782v-1.45782ZM61.81396,803.43901h1.45782v1.45782h-1.45782v-1.45782ZM64.72959,803.43901h1.45782v1.45782h-1.45782v-1.45782ZM66.18741,803.43901h1.45782v1.45782h-1.45782v-1.45782ZM67.64523,803.43901h1.45782v1.45782h-1.45782v-1.45782ZM23.9107,804.89683h1.45782v1.45782h-1.45782v-1.45782ZM28.28415,804.89683h1.45782v1.45782h-1.45782v-1.45782ZM29.74197,804.89683h1.45782v1.45782h-1.45782v-1.45782ZM31.19978,804.89683h1.45782v1.45782h-1.45782v-1.45782ZM32.6576,804.89683h1.45782v1.45782h-1.45782v-1.45782ZM34.11542,804.89683h1.45782v1.45782h-1.45782v-1.45782ZM38.48887,804.89683h1.45782v1.45782h-1.45782v-1.45782ZM39.94669,804.89683h1.45782v1.45782h-1.45782v-1.45782ZM41.40451,804.89683h1.45782v1.45782h-1.45782v-1.45782ZM42.86233,804.89683h1.45782v1.45782h-1.45782v-1.45782ZM44.32014,804.89683h1.45782v1.45782h-1.45782v-1.45782ZM48.6936,804.89683h1.45782v1.45782h-1.45782v-1.45782ZM53.06705,804.89683h1.45782v1.45782h-1.45782v-1.45782ZM55.98268,804.89683h1.45782v1.45782h-1.45782v-1.45782ZM57.4405,804.89683h1.45782v1.45782h-1.45782v-1.45782ZM58.89832,804.89683h1.45782v1.45782h-1.45782v-1.45782ZM60.35614,804.89683h1.45782v1.45782h-1.45782v-1.45782ZM61.81396,804.89683h1.45782v1.45782h-1.45782v-1.45782ZM63.27177,804.89683h1.45782v1.45782h-1.45782v-1.45782ZM64.72959,804.89683h1.45782v1.45782h-1.45782v-1.45782ZM66.18741,804.89683h1.45782v1.45782h-1.45782v-1.45782ZM70.56086,804.89683h1.45782v1.45782h-1.45782v-1.45782ZM35.57324,806.35465h1.45782v1.45782h-1.45782v-1.45782ZM38.48887,806.35465h1.45782v1.45782h-1.45782v-1.45782ZM39.94669,806.35465h1.45782v1.45782h-1.45782v-1.45782ZM42.86233,806.35465h1.45782v1.45782h-1.45782v-1.45782ZM47.23578,806.35465h1.45782v1.45782h-1.45782v-1.45782ZM50.15141,806.35465h1.45782v1.45782h-1.45782v-1.45782ZM51.60923,806.35465h1.45782v1.45782h-1.45782v-1.45782ZM53.06705,806.35465h1.45782v1.45782h-1.45782v-1.45782ZM54.52487,806.35465h1.45782v1.45782h-1.45782v-1.45782ZM58.89832,806.35465h1.45782v1.45782h-1.45782v-1.45782ZM64.72959,806.35465h1.45782v1.45782h-1.45782v-1.45782ZM66.18741,806.35465h1.45782v1.45782h-1.45782v-1.45782ZM67.64523,806.35465h1.45782v1.45782h-1.45782v-1.45782ZM70.56086,806.35465h1.45782v1.45782h-1.45782v-1.45782ZM23.9107,807.81246h1.45782v1.45782h-1.45782v-1.45782ZM25.36851,807.81246h1.45782v1.45782h-1.45782v-1.45782ZM26.82633,807.81246h1.45782v1.45782h-1.45782v-1.45782ZM28.28415,807.81246h1.45782v1.45782h-1.45782v-1.45782ZM29.74197,807.81246h1.45782v1.45782h-1.45782v-1.45782ZM31.19978,807.81246h1.45782v1.45782h-1.45782v-1.45782ZM32.6576,807.81246h1.45782v1.45782h-1.45782v-1.45782ZM35.57324,807.81246h1.45782v1.45782h-1.45782v-1.45782ZM37.03105,807.81246h1.45782v1.45782h-1.45782v-1.45782ZM41.40451,807.81246h1.45782v1.45782h-1.45782v-1.45782ZM45.77796,807.81246h1.45782v1.45782h-1.45782v-1.45782ZM47.23578,807.81246h1.45782v1.45782h-1.45782v-1.45782ZM50.15141,807.81246h1.45782v1.45782h-1.45782v-1.45782ZM53.06705,807.81246h1.45782v1.45782h-1.45782v-1.45782ZM55.98268,807.81246h1.45782v1.45782h-1.45782v-1.45782ZM57.4405,807.81246h1.45782v1.45782h-1.45782v-1.45782ZM58.89832,807.81246h1.45782v1.45782h-1.45782v-1.45782ZM61.81396,807.81246h1.45782v1.45782h-1.45782v-1.45782ZM64.72959,807.81246h1.45782v1.45782h-1.45782v-1.45782ZM66.18741,807.81246h1.45782v1.45782h-1.45782v-1.45782ZM69.10304,807.81246h1.45782v1.45782h-1.45782v-1.45782ZM23.9107,809.27028h1.45782v1.45782h-1.45782v-1.45782ZM32.6576,809.27028h1.45782v1.45782h-1.45782v-1.45782ZM37.03105,809.27028h1.45782v1.45782h-1.45782v-1.45782ZM38.48887,809.27028h1.45782v1.45782h-1.45782v-1.45782ZM45.77796,809.27028h1.45782v1.45782h-1.45782v-1.45782ZM47.23578,809.27028h1.45782v1.45782h-1.45782v-1.45782ZM51.60923,809.27028h1.45782v1.45782h-1.45782v-1.45782ZM53.06705,809.27028h1.45782v1.45782h-1.45782v-1.45782ZM54.52487,809.27028h1.45782v1.45782h-1.45782v-1.45782ZM55.98268,809.27028h1.45782v1.45782h-1.45782v-1.45782ZM58.89832,809.27028h1.45782v1.45782h-1.45782v-1.45782ZM64.72959,809.27028h1.45782v1.45782h-1.45782v-1.45782ZM66.18741,809.27028h1.45782v1.45782h-1.45782v-1.45782ZM67.64523,809.27028h1.45782v1.45782h-1.45782v-1.45782ZM69.10304,809.27028h1.45782v1.45782h-1.45782v-1.45782ZM70.56086,809.27028h1.45782v1.45782h-1.45782v-1.45782ZM23.9107,810.7281h1.45782v1.45782h-1.45782v-1.45782ZM26.82633,810.7281h1.45782v1.45782h-1.45782v-1.45782ZM28.28415,810.7281h1.45782v1.45782h-1.45782v-1.45782ZM29.74197,810.7281h1.45782v1.45782h-1.45782v-1.45782ZM32.6576,810.7281h1.45782v1.45782h-1.45782v-1.45782ZM35.57324,810.7281h1.45782v1.45782h-1.45782v-1.45782ZM37.03105,810.7281h1.45782v1.45782h-1.45782v-1.45782ZM38.48887,810.7281h1.45782v1.45782h-1.45782v-1.45782ZM42.86233,810.7281h1.45782v1.45782h-1.45782v-1.45782ZM45.77796,810.7281h1.45782v1.45782h-1.45782v-1.45782ZM48.6936,810.7281h1.45782v1.45782h-1.45782v-1.45782ZM50.15141,810.7281h1.45782v1.45782h-1.45782v-1.45782ZM51.60923,810.7281h1.45782v1.45782h-1.45782v-1.45782ZM55.98268,810.7281h1.45782v1.45782h-1.45782v-1.45782ZM58.89832,810.7281h1.45782v1.45782h-1.45782v-1.45782ZM60.35614,810.7281h1.45782v1.45782h-1.45782v-1.45782ZM61.81396,810.7281h1.45782v1.45782h-1.45782v-1.45782ZM63.27177,810.7281h1.45782v1.45782h-1.45782v-1.45782ZM64.72959,810.7281h1.45782v1.45782h-1.45782v-1.45782ZM66.18741,810.7281h1.45782v1.45782h-1.45782v-1.45782ZM69.10304,810.7281h1.45782v1.45782h-1.45782v-1.45782ZM23.9107,812.18592h1.45782v1.45782h-1.45782v-1.45782ZM26.82633,812.18592h1.45782v1.45782h-1.45782v-1.45782ZM28.28415,812.18592h1.45782v1.45782h-1.45782v-1.45782ZM29.74197,812.18592h1.45782v1.45782h-1.45782v-1.45782ZM32.6576,812.18592h1.45782v1.45782h-1.45782v-1.45782ZM35.57324,812.18592h1.45782v1.45782h-1.45782v-1.45782ZM39.94669,812.18592h1.45782v1.45782h-1.45782v-1.45782ZM42.86233,812.18592h1.45782v1.45782h-1.45782v-1.45782ZM47.23578,812.18592h1.45782v1.45782h-1.45782v-1.45782ZM48.6936,812.18592h1.45782v1.45782h-1.45782v-1.45782ZM50.15141,812.18592h1.45782v1.45782h-1.45782v-1.45782ZM51.60923,812.18592h1.45782v1.45782h-1.45782v-1.45782ZM53.06705,812.18592h1.45782v1.45782h-1.45782v-1.45782ZM54.52487,812.18592h1.45782v1.45782h-1.45782v-1.45782ZM57.4405,812.18592h1.45782v1.45782h-1.45782v-1.45782ZM58.89832,812.18592h1.45782v1.45782h-1.45782v-1.45782ZM60.35614,812.18592h1.45782v1.45782h-1.45782v-1.45782ZM63.27177,812.18592h1.45782v1.45782h-1.45782v-1.45782ZM64.72959,812.18592h1.45782v1.45782h-1.45782v-1.45782ZM66.18741,812.18592h1.45782v1.45782h-1.45782v-1.45782ZM67.64523,812.18592h1.45782v1.45782h-1.45782v-1.45782ZM23.9107,813.64373h1.45782v1.45782h-1.45782v-1.45782ZM26.82633,813.64373h1.45782v1.45782h-1.45782v-1.45782ZM28.28415,813.64373h1.45782v1.45782h-1.45782v-1.45782ZM29.74197,813.64373h1.45782v1.45782h-1.45782v-1.45782ZM32.6576,813.64373h1.45782v1.45782h-1.45782v-1.45782ZM35.57324,813.64373h1.45782v1.45782h-1.45782v-1.45782ZM38.48887,813.64373h1.45782v1.45782h-1.45782v-1.45782ZM41.40451,813.64373h1.45782v1.45782h-1.45782v-1.45782ZM42.86233,813.64373h1.45782v1.45782h-1.45782v-1.45782ZM44.32014,813.64373h1.45782v1.45782h-1.45782v-1.45782ZM45.77796,813.64373h1.45782v1.45782h-1.45782v-1.45782ZM47.23578,813.64373h1.45782v1.45782h-1.45782v-1.45782ZM54.52487,813.64373h1.45782v1.45782h-1.45782v-1.45782ZM55.98268,813.64373h1.45782v1.45782h-1.45782v-1.45782ZM57.4405,813.64373h1.45782v1.45782h-1.45782v-1.45782ZM58.89832,813.64373h1.45782v1.45782h-1.45782v-1.45782ZM61.81396,813.64373h1.45782v1.45782h-1.45782v-1.45782ZM63.27177,813.64373h1.45782v1.45782h-1.45782v-1.45782ZM66.18741,813.64373h1.45782v1.45782h-1.45782v-1.45782ZM69.10304,813.64373h1.45782v1.45782h-1.45782v-1.45782ZM23.9107,815.10155h1.45782v1.45782h-1.45782v-1.45782ZM32.6576,815.10155h1.45782v1.45782h-1.45782v-1.45782ZM35.57324,815.10155h1.45782v1.45782h-1.45782v-1.45782ZM37.03105,815.10155h1.45782v1.45782h-1.45782v-1.45782ZM38.48887,815.10155h1.45782v1.45782h-1.45782v-1.45782ZM41.40451,815.10155h1.45782v1.45782h-1.45782v-1.45782ZM47.23578,815.10155h1.45782v1.45782h-1.45782v-1.45782ZM51.60923,815.10155h1.45782v1.45782h-1.45782v-1.45782ZM54.52487,815.10155h1.45782v1.45782h-1.45782v-1.45782ZM55.98268,815.10155h1.45782v1.45782h-1.45782v-1.45782ZM60.35614,815.10155h1.45782v1.45782h-1.45782v-1.45782ZM64.72959,815.10155h1.45782v1.45782h-1.45782v-1.45782ZM66.18741,815.10155h1.45782v1.45782h-1.45782v-1.45782ZM67.64523,815.10155h1.45782v1.45782h-1.45782v-1.45782ZM23.9107,816.55937h1.45782v1.45782h-1.45782v-1.45782ZM25.36851,816.55937h1.45782v1.45782h-1.45782v-1.45782ZM26.82633,816.55937h1.45782v1.45782h-1.45782v-1.45782ZM28.28415,816.55937h1.45782v1.45782h-1.45782v-1.45782ZM29.74197,816.55937h1.45782v1.45782h-1.45782v-1.45782ZM31.19978,816.55937h1.45782v1.45782h-1.45782v-1.45782ZM32.6576,816.55937h1.45782v1.45782h-1.45782v-1.45782ZM35.57324,816.55937h1.45782v1.45782h-1.45782v-1.45782ZM39.94669,816.55937h1.45782v1.45782h-1.45782v-1.45782ZM41.40451,816.55937h1.45782v1.45782h-1.45782v-1.45782ZM42.86233,816.55937h1.45782v1.45782h-1.45782v-1.45782ZM44.32014,816.55937h1.45782v1.45782h-1.45782v-1.45782ZM45.77796,816.55937h1.45782v1.45782h-1.45782v-1.45782ZM48.6936,816.55937h1.45782v1.45782h-1.45782v-1.45782ZM55.98268,816.55937h1.45782v1.45782h-1.45782v-1.45782ZM57.4405,816.55937h1.45782v1.45782h-1.45782v-1.45782ZM58.89832,816.55937h1.45782v1.45782h-1.45782v-1.45782ZM66.18741,816.55937h1.45782v1.45782h-1.45782v-1.45782ZM69.10304,816.55937h1.45782v1.45782h-1.45782v-1.45782Z" style="stroke-width: 0px;"/>
    </g>
  </g>
  <g id="sbb">
    <rect id="rect22814" x="971.82979" y="22.67717" width="196.04423" height="22.94025" style="fill: #fff; stroke-width: 0px;"/>
    <rect id="rect397399" x="973.2809" y="23.92701" width="192.10691" height="20.65906" style="fill: #fff; stroke-width: 0px;"/>
    <path id="path2879" d="M973.2809,44.37362h60.7022v-20.23415h-60.7022v20.23415Z" style="fill: #e42328; stroke-width: 0px;"/>
    <path id="path2881" d="M1009.01246,32.70795h6.56305v-5.19604h3.09174v5.19604h6.56305l-5.28039-5.19604h3.91846l6.74469,6.74462-6.74469,6.74463h-3.9212l5.28039-5.19605h-6.56049v5.19604h-3.09174v-5.19577h-6.56323l5.27985,5.19603h-3.91571l-6.74469-6.74462,6.74469-6.74463h3.91644" style="fill: #fff; stroke-width: 0px;"/>
    <path id="path2883" d="M1040.24732,36.9724c-.039,3.49178,2.896,5.03902,6.02911,5.03902,3.84869,0,5.89197-1.9432,5.89197-4.5427,0-3.21163-3.17303-3.86659-4.20557-4.12234-3.5506-.9137-4.22369-1.05282-4.22369-2.14253,0-1.19005,1.14899-1.60582,2.14252-1.60582,1.48791,0,2.69806.43528,2.79602,2.14253h3.01556c0-3.27237-2.71747-4.5606-5.67224-4.5606-2.5589,0-5.29578,1.38831-5.29578,4.28506,0,2.65782,2.12164,3.47144,4.22552,4.02551,2.08228.55489,4.20355.81362,4.20355,2.33915,0,1.44879-1.66663,1.76636-2.75684,1.76636-1.66663,0-3.1333-.73524-3.1333-2.61931" style="fill: #221e20; stroke-width: 0px;"/>
    <path id="path2885" d="M1057.20289,29.93324h2.91559c1.10962,0,2.14252.27663,2.14252,1.62561,0,1.19005-.81372,1.68609-1.90393,1.68609h-3.15417v-3.3117ZM1054.08954,41.67404h6.86151c2.5589,0,4.99969-1.22938,4.99969-4.10578,0-1.76474-.87433-3.09392-2.59973-3.58996,1.19348-.48972,1.96014-1.66644,1.92554-2.95615,0-2.63721-1.8252-3.50967-4.52325-3.50967h-6.66376v14.16156ZM1057.20289,35.3666h3.3902c1.3288,0,2.24103.57631,2.24103,2.02347,0,1.46669-1.07043,1.86455-2.2998,1.86455h-3.33105" style="fill: #221e20; fill-rule: evenodd; stroke-width: 0px;"/>
    <path id="path2887" d="M1071.14032,29.93324h2.91559c1.10962,0,2.14233.27663,2.14233,1.62561,0,1.19005-.81354,1.68609-1.90393,1.68609h-3.15399v-3.3117ZM1068.0268,41.67404h6.86151c2.5589,0,4.99786-1.22938,4.99786-4.10578,0-1.76474-.87231-3.09392-2.5979-3.58996,1.19257-.49063,1.95795-1.66707,1.92334-2.95615,0-2.63721-1.82355-3.50967-4.52124-3.50967h-6.66357v14.16156ZM1071.14215,35.3666h3.3902c1.32898,0,2.24139.57631,2.24139,2.02347,0,1.46669-1.07043,1.86455-2.2998,1.86455h-3.33105" style="fill: #221e20; fill-rule: evenodd; stroke-width: 0px;"/>
    <path id="path2889" d="M1099.66577,32.27239c-.37646-3.27237-2.99414-5.09596-6.10785-5.09596-4.38409,0-6.96075,3.27237-6.96075,7.47634,0,4.08599,2.57648,7.35837,6.96075,7.35837,3.47131,0,5.90955-2.26077,6.22705-5.79188h-3.01575c-.23749,1.86455-1.30811,3.17311-3.21149,3.17311-2.7962,0-3.84869-2.38037-3.84869-4.74096,0-2.47828,1.05286-4.85866,3.84869-4.85866,1.54578,0,2.896,1.07072,3.09393,2.47828" style="fill: #221e20; stroke-width: 0px;"/>
    <path id="path2891" d="M1101.70245,41.67402h3.11334v-5.851h5.93115v-2.41943h-5.93115v-3.27237h6.84247v-2.61741h-9.95654" style="fill: #221e20; stroke-width: 0px;"/>
    <path id="path2893" d="M1113.55139,41.67402h3.10492v-5.851h5.92383v-2.41943h-5.92584v-3.27237h6.83441v-2.61741h-9.93732" style="fill: #221e20; stroke-width: 0px;"/>
    <path id="path2895" d="M1130.23339,41.67402h3.12158v-5.851h5.92383v-2.41943h-5.92383v-3.27237h6.83441v-2.61741h-9.95581" style="fill: #221e20; stroke-width: 0px;"/>
    <path id="path2897" d="M1142.4566,41.67402h3.10474v-5.851h5.92364v-2.41943h-5.92383v-3.27237h6.85181v-2.61741h-9.95654" style="fill: #221e20; stroke-width: 0px;"/>
    <path id="path2899" d="M1153.55444,36.9724c-.03534,3.49178,2.8905,5.03902,6.03094,5.03902,3.854,0,5.88812-1.9432,5.88812-4.5427,0-3.21163-3.17615-3.86659-4.19311-4.12234-3.55041-.9137-4.22864-1.05282-4.22864-2.14253,0-1.19005,1.14166-1.60582,2.14252-1.60582,1.48059,0,2.6944.43528,2.80115,2.14253h2.9978c0-3.27237-2.71216-4.5606-5.65631-4.5606-2.56934,0-5.29944,1.38831-5.29944,4.28506,0,2.65782,2.12311,3.47144,4.229,4.02551,2.06982.55489,4.19311.81362,4.19311,2.33915,0,1.44879-1.65948,1.76636-2.74786,1.76636-1.67743,0-3.14026-.73524-3.14026-2.61931" style="fill: #221e20; stroke-width: 0px;"/>
  </g>
  <g id="title">
    <path d="M-.22432,22.67717h586.79662c1.40804,0,2.55118,1.14315,2.55118,2.55118v81.37486c0,1.40804-1.14315,2.55118-2.55118,2.55118H-.22432V22.67717H-.22432Z" style="fill: #fff; stroke-width: 0px;"/>
    <text transform="translate(22.47341 46.3191)" style="font-family: SBBWeb-Light,'SBB Web',Arial, &apos;SBB Web&apos;; font-size: 18px; font-weight: 300; isolation: isolate;"><tspan x="0" y="0" style="letter-spacing: .00146em;">G</tspan><tspan x="13.36816" y="0">ene</tspan><tspan x="41.72168" y="0" style="letter-spacing: -.00928em;">r</tspan><tspan x="47.22363" y="0">al</tspan><tspan x="59.89746" y="0" style="letter-spacing: -.00879em;">-</tspan><tspan x="66.40137" y="0" style="letter-spacing: .00781em;">A</tspan><tspan x="77.87988" y="0">b</tspan><tspan x="88.21582" y="0" style="letter-spacing: -.0293em;">o</tspan><tspan x="97.69922" y="0">, </tspan><tspan x="107.70117" y="0" style="letter-spacing: .00928em;">G</tspan><tspan x="121.20996" y="0">A N</tspan><tspan x="150.22266" y="0" style="letter-spacing: -.00098em;">i</tspan><tspan x="153.53613" y="0" style="letter-spacing: .00146em;">g</tspan><tspan x="163.57324" y="0">h</tspan><tspan x="173.24121" y="0" style="letter-spacing: -.03027em;">t</tspan><tspan x="178.02246" y="0">, </tspan><tspan x="188.02441" y="0" style="letter-spacing: .00928em;">G</tspan><tspan x="201.5332" y="0" style="letter-spacing: -.00879em;">A</tspan><tspan x="212.71289" y="0">-Mon</tspan><tspan x="254.04785" y="0" style="letter-spacing: -.01123em;">a</tspan><tspan x="263.18848" y="0" style="letter-spacing: -.0137em;">t</tspan><tspan x="268.26855" y="0" style="letter-spacing: -.00491em;">s</tspan><tspan x="276.8374" y="0">ka</tspan><tspan x="295.18115" y="0" style="letter-spacing: .03076em;">r</tspan><tspan x="301.40381" y="0" style="letter-spacing: -.02832em;">t</tspan><tspan x="306.22021" y="0" style="letter-spacing: -.02197em;">e</tspan><tspan x="315.16748" y="0" style="letter-spacing: -.00005em;">, </tspan><tspan x="325.16943" y="0" style="letter-spacing: -.01031em;">A</tspan><tspan x="336.32178" y="0">u</tspan><tspan x="345.98975" y="0" style="letter-spacing: -.01221em;">s</tspan><tspan x="354.42725" y="0" style="letter-spacing: .00977em;">f</tspan><tspan x="359.26123" y="0" style="letter-spacing: .00005em;">l</tspan><tspan x="362.59326" y="0" style="letter-spacing: .00098em;">u</tspan><tspan x="372.27881" y="0" style="letter-spacing: -.00146em;">g</tspan><tspan x="382.26318" y="0" style="letter-spacing: -.01709em;">s</tspan><tspan x="390.61279" y="0" style="letter-spacing: -.00879em;">-</tspan><tspan x="397.1167" y="0" style="letter-spacing: .00781em;">A</tspan><tspan x="408.59521" y="0">b</tspan><tspan x="418.93115" y="0" style="letter-spacing: -.02935em;">o</tspan><tspan x="428.41357" y="0" style="letter-spacing: .00005em;">,</tspan><tspan x="0" y="21.6001" style="letter-spacing: -.09229em;">T</tspan><tspan x="8.34961" y="21.6001" style="letter-spacing: -.00781em;">a</tspan><tspan x="17.55176" y="21.6001" style="letter-spacing: .00146em;">g</tspan><tspan x="27.58887" y="21.6001" style="letter-spacing: .00098em;">e</tspan><tspan x="36.94922" y="21.6001" style="letter-spacing: -.00488em;">s</tspan><tspan x="45.51855" y="21.6001">ka</tspan><tspan x="63.86133" y="21.6001" style="letter-spacing: .03076em;">r</tspan><tspan x="70.08398" y="21.6001" style="letter-spacing: -.02832em;">t</tspan><tspan x="74.90039" y="21.6001">e </tspan><tspan x="89.24414" y="21.6001" style="letter-spacing: -.01123em;">z</tspan><tspan x="97.37402" y="21.6001">um </tspan><tspan x="127.03711" y="21.6001" style="letter-spacing: -.00293em;">H</tspan><tspan x="139.6582" y="21.6001">alb</tspan><tspan x="162.66797" y="21.6001" style="letter-spacing: -.00488em;">t</tspan><tspan x="167.90625" y="21.6001" style="letter-spacing: .0293em;">a</tspan><tspan x="177.77637" y="21.6001">x s</tspan><tspan x="200.0918" y="21.6001" style="letter-spacing: -.01758em;">o</tspan><tspan x="209.78613" y="21.6001" style="letter-spacing: -.00049em;">w</tspan><tspan x="223.11914" y="21.6001">ie </tspan><tspan x="240.79395" y="21.6001" style="letter-spacing: .00439em;">f</tspan><tspan x="245.53125" y="21.6001">ür Spa</tspan><tspan x="296.88623" y="21.6001" style="letter-spacing: .03076em;">r</tspan><tspan x="303.10889" y="21.6001" style="letter-spacing: -.00488em;">t</tspan><tspan x="308.34717" y="21.6001" style="letter-spacing: -.00787em;">a</tspan><tspan x="317.54834" y="21.6001" style="letter-spacing: .00146em;">g</tspan><tspan x="327.58545" y="21.6001" style="letter-spacing: .00103em;">e</tspan><tspan x="336.94678" y="21.6001" style="letter-spacing: -.00494em;">s</tspan><tspan x="345.51514" y="21.6001">ka</tspan><tspan x="363.85889" y="21.6001" style="letter-spacing: .03076em;">r</tspan><tspan x="370.08154" y="21.6001" style="letter-spacing: -.02832em;">t</tspan><tspan x="374.89795" y="21.6001" style="letter-spacing: -.00005em;">e / A</tspan><tspan x="411.57373" y="21.6001" style="letter-spacing: .02441em;">k</tspan><tspan x="421.01318" y="21.6001" style="letter-spacing: -.01172em;">t</tspan><tspan x="426.12842" y="21.6001" style="letter-spacing: .00005em;">ion</tspan><tspan x="449.13818" y="21.6001" style="letter-spacing: -.0083em;">s</tspan><tspan x="457.646" y="21.6001" style="letter-spacing: -.00488em;">t</tspan><tspan x="462.88428" y="21.6001" style="letter-spacing: -.00776em;">a</tspan><tspan x="472.0874" y="21.6001" style="letter-spacing: .00146em;">g</tspan><tspan x="482.12451" y="21.6001" style="letter-spacing: .00092em;">e</tspan><tspan x="491.48389" y="21.6001" style="letter-spacing: -.00483em;">s</tspan><tspan x="500.0542" y="21.6001">ka</tspan><tspan x="518.396" y="21.6001" style="letter-spacing: .03076em;">r</tspan><tspan x="524.61865" y="21.6001" style="letter-spacing: -.02832em;">t</tspan><tspan x="529.43506" y="21.6001" style="letter-spacing: .00005em;">e /</tspan><tspan x="0" y="43.2002">(Spa</tspan><tspan x="35.3584" y="43.2002" style="letter-spacing: -.06885em;">r</tspan><tspan x="39.78809" y="43.2002">-)</tspan><tspan x="50.79199" y="43.2002" style="letter-spacing: -.09229em;">T</tspan><tspan x="59.1416" y="43.2002" style="letter-spacing: -.00781em;">a</tspan><tspan x="68.34375" y="43.2002" style="letter-spacing: .00146em;">g</tspan><tspan x="78.38086" y="43.2002" style="letter-spacing: .00098em;">e</tspan><tspan x="87.74121" y="43.2002" style="letter-spacing: -.00488em;">s</tspan><tspan x="96.31055" y="43.2002">ka</tspan><tspan x="114.65332" y="43.2002" style="letter-spacing: .03076em;">r</tspan><tspan x="120.87598" y="43.2002" style="letter-spacing: -.02832em;">t</tspan><tspan x="125.69238" y="43.2002">e </tspan><tspan x="140.03613" y="43.2002" style="letter-spacing: .00146em;">G</tspan><tspan x="153.4043" y="43.2002">emeinde </tspan><tspan x="224.7627" y="43.2002" style="letter-spacing: -.01123em;">z</tspan><tspan x="232.89258" y="43.2002">u</tspan><tspan x="242.56055" y="43.2002" style="letter-spacing: .00195em;">s</tspan><tspan x="251.25293" y="43.2002">ammen mit </tspan><tspan x="343.24756" y="43.2002" style="letter-spacing: -.00293em;">H</tspan><tspan x="355.86865" y="43.2002" style="letter-spacing: .00005em;">alb</tspan><tspan x="378.87842" y="43.2002" style="letter-spacing: -.00488em;">t</tspan><tspan x="384.1167" y="43.2002" style="letter-spacing: .02935em;">a</tspan><tspan x="393.98779" y="43.2002" style="letter-spacing: -.0606em;">x</tspan><tspan x="401.5542" y="43.2002" style="letter-spacing: -.00879em;">-</tspan><tspan x="408.05811" y="43.2002" style="letter-spacing: .00781em;">A</tspan><tspan x="419.53662" y="43.2002">bo</tspan></text>
  </g>
  <g id="legend">
    <rect id="rect426128-0-8-3-9-2" x="15.11742" y="117.19295" width="196.23583" height="131.09545" rx="2.55118" ry="2.55118" style="fill: #fff; stroke-width: 0px;"/>
    <g id="scaleline">
      <rect id="rect2491" x="22.81535" y="226.51888" width="135.50946" height="13.89802" style="fill: #fff; stroke-width: 0px;"/>
      <g id="text2343" style="isolation: isolate;">
        <text transform="translate(88.55007 236.29441)" style="font-family: SBBWeb-Roman,'SBB Web',Arial, &apos;SBB Web&apos;; font-size: 7px; isolation: isolate;"><tspan x="0" y="0">50 </tspan><tspan x="9.73096" y="0" style="letter-spacing: .00342em;">k</tspan><tspan x="13.38818" y="0">m</tspan></text>
      </g>
      <path id="path1881" d="M175.43466,226.52089v13.3705l-152.16776.0737v-13.44621" style="fill: none; stroke: #000; stroke-miterlimit: 3; stroke-width: .9031px;"/>
    </g>
    <g>
      <text transform="translate(22.20998 158.54254)" style="font-family: SBBWeb-Roman,'SBB Web',Arial, &apos;SBB Web&apos;; font-size: 7px; isolation: isolate;"><tspan x="0" y="0">Bahnen</tspan></text>
      <g>
        <line x1="23.62822" y1="142.72392" x2="55.90761" y2="142.72392" style="fill: none; stroke: #eb0000; stroke-linecap: square; stroke-miterlimit: 3; stroke-width: 1.41732px;"/>
        <g>
          <line x1="23.62822" y1="147.11282" x2="23.62822" y2="147.11282" style="fill: none; stroke: #eb0000; stroke-linecap: round; stroke-miterlimit: 3; stroke-width: 1.41732px;"/>
          <line x1="26.56271" y1="147.11282" x2="54.44037" y2="147.11282" style="fill: none; stroke: #eb0000; stroke-dasharray: 0 0 0 2.93449; stroke-linecap: round; stroke-miterlimit: 3; stroke-width: 1.41732px;"/>
          <line x1="55.90761" y1="147.11282" x2="55.90761" y2="147.11282" style="fill: none; stroke: #eb0000; stroke-linecap: round; stroke-miterlimit: 3; stroke-width: 1.41732px;"/>
        </g>
      </g>
    </g>
    <g>
      <text transform="translate(121.81722 158.66461)" style="font-family: SBBWeb-Roman,'SBB Web',Arial, &apos;SBB Web&apos;; font-size: 7px; isolation: isolate;"><tspan x="0" y="0">Seilbahnen</tspan></text>
      <g>
        <line x1="122.89087" y1="142.72392" x2="155.17026" y2="142.72392" style="fill: none; stroke: #000; stroke-linecap: square; stroke-miterlimit: 3; stroke-width: 1.41732px;"/>
        <g>
          <line x1="122.89087" y1="147.11282" x2="122.89087" y2="147.11282" style="fill: none; stroke: #000; stroke-linecap: round; stroke-miterlimit: 3; stroke-width: 1.41732px;"/>
          <line x1="125.82536" y1="147.11282" x2="153.70302" y2="147.11282" style="fill: none; stroke: #000; stroke-dasharray: 0 0 0 2.93449; stroke-linecap: round; stroke-miterlimit: 3; stroke-width: 1.41732px;"/>
          <line x1="155.17026" y1="147.11282" x2="155.17026" y2="147.11282" style="fill: none; stroke: #000; stroke-linecap: round; stroke-miterlimit: 3; stroke-width: 1.41732px;"/>
        </g>
      </g>
    </g>
    <g>
      <g id="text402292-9-5-9-7-1" style="isolation: isolate;">
        <text transform="translate(171.6212 196.82918)" style="font-family: SBBWeb-Roman,'SBB Web',Arial, &apos;SBB Web&apos;; font-size: 7px; isolation: isolate;"><tspan x="0" y="0">Gül</tspan><tspan x="10.75977" y="0" style="letter-spacing: -.0127em;">t</tspan><tspan x="12.87549" y="0" style="letter-spacing: -.00146em;">i</tspan><tspan x="14.42041" y="0" style="letter-spacing: -.00293em;">g</tspan><tspan x="18.41943" y="0" style="letter-spacing: -.0249em;">k</tspan><tspan x="21.87842" y="0">eit</tspan></text>
        <text transform="translate(171.6212 205.22908)" style="font-family: SBBWeb-Roman,'SBB Web',Arial, &apos;SBB Web&apos;; font-size: 7px;"><tspan x="0" y="0" style="letter-spacing: -.02296em;">v</tspan><tspan x="3.33924" y="0">or O</tspan><tspan x="16.9531" y="0" style="letter-spacing: .03128em;">r</tspan><tspan x="19.50289" y="0">t</tspan><tspan x="0" y="8.3999">anf</tspan><tspan x="9.72433" y="8.3999" style="letter-spacing: -.00345em;">ra</tspan><tspan x="15.76375" y="8.3999" style="letter-spacing: -.00099em;">g</tspan><tspan x="19.77656" y="8.3999" style="letter-spacing: -.00007em;">en</tspan></text>
      </g>
      <g>
        <line x1="172.52278" y1="185.41525" x2="172.52278" y2="185.41525" style="fill: none; stroke: #999; stroke-linecap: round; stroke-miterlimit: 3; stroke-width: 1.41732px;"/>
        <line x1="175.45728" y1="185.41525" x2="203.33493" y2="185.41525" style="fill: none; stroke: #999; stroke-dasharray: 0 0 0 2.93449; stroke-linecap: round; stroke-miterlimit: 3; stroke-width: 1.41732px;"/>
        <line x1="204.80217" y1="185.41525" x2="204.80217" y2="185.41525" style="fill: none; stroke: #999; stroke-linecap: round; stroke-miterlimit: 3; stroke-width: 1.41732px;"/>
      </g>
    </g>
    <g>
      <text transform="translate(171.62105 158.66461)" style="font-family: SBBWeb-Roman,'SBB Web',Arial, &apos;SBB Web&apos;; font-size: 7px; isolation: isolate;"><tspan x="0" y="0" style="letter-spacing: .00049em;">S</tspan><tspan x="4.53906" y="0" style="letter-spacing: -.00342em;">c</tspan><tspan x="8.2749" y="0">hi</tspan><tspan x="13.72314" y="0" style="letter-spacing: .02344em;">f</tspan><tspan x="15.9585" y="0" style="letter-spacing: -.01904em;">f</tspan><tspan x="17.89648" y="0">e</tspan></text>
      <g>
        <line x1="172.52278" y1="142.72392" x2="204.80217" y2="142.72392" style="fill: none; stroke: #2a6698; stroke-linecap: square; stroke-miterlimit: 3; stroke-width: 1.41732px;"/>
        <g>
          <line x1="172.52278" y1="147.11282" x2="172.52278" y2="147.11282" style="fill: none; stroke: #2a6698; stroke-linecap: round; stroke-miterlimit: 3; stroke-width: 1.41732px;"/>
          <line x1="175.45728" y1="147.11282" x2="203.33493" y2="147.11282" style="fill: none; stroke: #2a6698; stroke-dasharray: 0 0 0 2.93449; stroke-linecap: round; stroke-miterlimit: 3; stroke-width: 1.41732px;"/>
          <line x1="204.80217" y1="147.11282" x2="204.80217" y2="147.11282" style="fill: none; stroke: #2a6698; stroke-linecap: round; stroke-miterlimit: 3; stroke-width: 1.41732px;"/>
        </g>
      </g>
    </g>
    <g>
      <text transform="translate(72.07161 158.65173)" style="font-family: SBBWeb-Roman,'SBB Web',Arial, &apos;SBB Web&apos;; font-size: 7px; isolation: isolate;"><tspan x="0" y="0" style="letter-spacing: -.00586em;">A</tspan><tspan x="4.49463" y="0">u</tspan><tspan x="8.3877" y="0" style="letter-spacing: -.02246em;">t</tspan><tspan x="10.43506" y="0">obu</tspan><tspan x="22.49707" y="0" style="letter-spacing: .00488em;">s</tspan><tspan x="26.03125" y="0">se</tspan></text>
      <g>
        <line x1="73.54675" y1="142.72392" x2="105.25356" y2="142.72392" style="fill: none; stroke: #3b3b3b; stroke-linecap: square; stroke-miterlimit: 3; stroke-width: 1.98425px;"/>
        <g>
          <line x1="73.25979" y1="147.11282" x2="73.25979" y2="147.11282" style="fill: none; stroke: #3b3b3b; stroke-linecap: round; stroke-miterlimit: 3; stroke-width: 1.98425px;"/>
          <line x1="76.19428" y1="147.11282" x2="104.07193" y2="147.11282" style="fill: none; stroke: #3b3b3b; stroke-dasharray: 0 0 0 2.93449; stroke-linecap: round; stroke-miterlimit: 3; stroke-width: 1.98425px;"/>
          <line x1="105.53918" y1="147.11282" x2="105.53918" y2="147.11282" style="fill: none; stroke: #3b3b3b; stroke-linecap: round; stroke-miterlimit: 3; stroke-width: 1.98425px;"/>
        </g>
        <line x1="73.25979" y1="142.72392" x2="105.53918" y2="142.72392" style="fill: none; stroke: #fbd700; stroke-linecap: square; stroke-miterlimit: 3; stroke-width: 1.41732px;"/>
        <g>
          <line x1="73.25979" y1="147.11282" x2="73.25979" y2="147.11282" style="fill: none; stroke: #fbd700; stroke-linecap: round; stroke-miterlimit: 3; stroke-width: 1.41732px;"/>
          <line x1="76.19428" y1="147.11282" x2="104.07193" y2="147.11282" style="fill: none; stroke: #fbd700; stroke-dasharray: 0 0 0 2.93449; stroke-linecap: round; stroke-miterlimit: 3; stroke-width: 1.41732px;"/>
          <line x1="105.53918" y1="147.11282" x2="105.53918" y2="147.11282" style="fill: none; stroke: #fbd700; stroke-linecap: round; stroke-miterlimit: 3; stroke-width: 1.41732px;"/>
        </g>
      </g>
    </g>
    <g>
      <g id="text402292-9-5-9" style="isolation: isolate;">
        <text transform="translate(22.21025 196.82929)" style="font-family: SBBWeb-Roman,'SBB Web',Arial, &apos;SBB Web&apos;; font-size: 7px; isolation: isolate;"><tspan x="0" y="0" style="letter-spacing: -.02832em;">F</tspan><tspan x="3.82129" y="0" style="letter-spacing: -.01416em;">r</tspan><tspan x="6.05322" y="0">eie </tspan><tspan x="17.07275" y="0" style="letter-spacing: -.02686em;">F</tspan><tspan x="20.9043" y="0">ah</tspan><tspan x="28.55713" y="0" style="letter-spacing: .03125em;">r</tspan><tspan x="31.10693" y="0">t</tspan></text>
      </g>
      <g>
        <line x1="23.48507" y1="172.15037" x2="55.76446" y2="172.15037" style="fill: none; stroke: #eb0000; stroke-linecap: square; stroke-miterlimit: 3; stroke-width: 1.41732px;"/>
        <line x1="23.48507" y1="180.99363" x2="55.76446" y2="180.99363" style="fill: none; stroke: #000; stroke-linecap: square; stroke-miterlimit: 3; stroke-width: 1.41732px;"/>
        <line x1="23.48574" y1="185.41525" x2="55.76513" y2="185.41525" style="fill: none; stroke: #2a6698; stroke-linecap: square; stroke-miterlimit: 3; stroke-width: 1.41732px;"/>
        <g>
          <line x1="23.77204" y1="176.572" x2="55.47884" y2="176.572" style="fill: none; stroke: #3b3b3b; stroke-linecap: square; stroke-miterlimit: 3; stroke-width: 1.98425px;"/>
          <line x1="23.48507" y1="176.572" x2="55.76446" y2="176.572" style="fill: none; stroke: #fbd700; stroke-linecap: square; stroke-miterlimit: 3; stroke-width: 1.41732px;"/>
        </g>
      </g>
    </g>
    <g>
      <text transform="translate(72.01402 196.82918)" style="font-family: SBBWeb-Roman,'SBB Web',Arial, &apos;SBB Web&apos;; font-size: 7px; isolation: isolate;"><tspan x="0" y="0" style="letter-spacing: -.02686em;">F</tspan><tspan x="3.83154" y="0">ah</tspan><tspan x="11.48438" y="0" style="letter-spacing: .03125em;">r</tspan><tspan x="14.03418" y="0">t </tspan><tspan x="18.18359" y="0" style="letter-spacing: -.01172em;">z</tspan><tspan x="21.46143" y="0">um</tspan><tspan x="0" y="8.3999">e</tspan><tspan x="3.75977" y="8.3999" style="letter-spacing: .00439em;">r</tspan><tspan x="6.12158" y="8.3999">mä</tspan><tspan x="15.85254" y="8.3999" style="letter-spacing: .00488em;">s</tspan><tspan x="19.38672" y="8.3999">s</tspan><tspan x="22.88672" y="8.3999" style="letter-spacing: -.00146em;">i</tspan><tspan x="24.43164" y="8.3999" style="letter-spacing: -.00049em;">g</tspan><tspan x="28.44775" y="8.3999" style="letter-spacing: -.02051em;">t</tspan><tspan x="30.50879" y="8.3999">en</tspan><tspan x="0" y="16.7998">P</tspan><tspan x="4.53564" y="16.7998" style="letter-spacing: -.01416em;">r</tspan><tspan x="6.76758" y="16.7998">eis</tspan></text>
      <g>
        <line x1="73.26095" y1="172.15036" x2="73.26095" y2="172.15036" style="fill: none; stroke: #eb0000; stroke-linecap: round; stroke-miterlimit: 3; stroke-width: 1.41732px;"/>
        <line x1="76.19544" y1="172.15036" x2="104.07309" y2="172.15036" style="fill: none; stroke: #eb0000; stroke-dasharray: 0 0 0 2.93449; stroke-linecap: round; stroke-miterlimit: 3; stroke-width: 1.41732px;"/>
        <line x1="105.54034" y1="172.15036" x2="105.54034" y2="172.15036" style="fill: none; stroke: #eb0000; stroke-linecap: round; stroke-miterlimit: 3; stroke-width: 1.41732px;"/>
      </g>
      <g>
        <line x1="73.26095" y1="180.99362" x2="73.26095" y2="180.99362" style="fill: none; stroke: #000; stroke-linecap: round; stroke-miterlimit: 3; stroke-width: 1.41732px;"/>
        <line x1="76.19544" y1="180.99362" x2="104.07309" y2="180.99362" style="fill: none; stroke: #000; stroke-dasharray: 0 0 0 2.93449; stroke-linecap: round; stroke-miterlimit: 3; stroke-width: 1.41732px;"/>
        <line x1="105.54034" y1="180.99362" x2="105.54034" y2="180.99362" style="fill: none; stroke: #000; stroke-linecap: round; stroke-miterlimit: 3; stroke-width: 1.41732px;"/>
      </g>
      <g>
        <line x1="73.26095" y1="185.41525" x2="73.26095" y2="185.41525" style="fill: none; stroke: #2a6698; stroke-linecap: round; stroke-miterlimit: 3; stroke-width: 1.41732px;"/>
        <line x1="76.19544" y1="185.41525" x2="104.07309" y2="185.41525" style="fill: none; stroke: #2a6698; stroke-dasharray: 0 0 0 2.93449; stroke-linecap: round; stroke-miterlimit: 3; stroke-width: 1.41732px;"/>
        <line x1="105.54034" y1="185.41525" x2="105.54034" y2="185.41525" style="fill: none; stroke: #2a6698; stroke-linecap: round; stroke-miterlimit: 3; stroke-width: 1.41732px;"/>
      </g>
      <g>
        <g>
          <line x1="73.26095" y1="176.57199" x2="73.26095" y2="176.57199" style="fill: none; stroke: #3b3b3b; stroke-linecap: round; stroke-miterlimit: 3; stroke-width: 1.98425px;"/>
          <line x1="76.19544" y1="176.57199" x2="104.07309" y2="176.57199" style="fill: none; stroke: #3b3b3b; stroke-dasharray: 0 0 0 2.93449; stroke-linecap: round; stroke-miterlimit: 3; stroke-width: 1.98425px;"/>
          <line x1="105.54034" y1="176.57199" x2="105.54034" y2="176.57199" style="fill: none; stroke: #3b3b3b; stroke-linecap: round; stroke-miterlimit: 3; stroke-width: 1.98425px;"/>
        </g>
        <g>
          <line x1="73.26095" y1="176.57199" x2="73.26095" y2="176.57199" style="fill: none; stroke: #fbd700; stroke-linecap: round; stroke-miterlimit: 3; stroke-width: 1.41732px;"/>
          <line x1="76.19544" y1="176.57199" x2="104.07309" y2="176.57199" style="fill: none; stroke: #fbd700; stroke-dasharray: 0 0 0 2.93449; stroke-linecap: round; stroke-miterlimit: 3; stroke-width: 1.41732px;"/>
          <line x1="105.54034" y1="176.57199" x2="105.54034" y2="176.57199" style="fill: none; stroke: #fbd700; stroke-linecap: round; stroke-miterlimit: 3; stroke-width: 1.41732px;"/>
        </g>
      </g>
    </g>
    <g>
      <g id="text402292-9-5-9-7" style="isolation: isolate;">
        <text transform="translate(121.81764 196.82918)" style="font-family: SBBWeb-Roman,'SBB Web',Arial, &apos;SBB Web&apos;; font-size: 7px; isolation: isolate;"><tspan x="0" y="0" style="letter-spacing: -.02588em;">K</tspan><tspan x="4.48779" y="0">eine</tspan><tspan x="0" y="8.3999">E</tspan><tspan x="4.27588" y="8.3999" style="letter-spacing: .00439em;">r</tspan><tspan x="6.6377" y="8.3999">mä</tspan><tspan x="16.36865" y="8.3999" style="letter-spacing: .00488em;">s</tspan><tspan x="19.90283" y="8.3999">s</tspan><tspan x="23.40283" y="8.3999" style="letter-spacing: -.00146em;">i</tspan><tspan x="24.94775" y="8.3999">gu</tspan><tspan x="32.86035" y="8.3999" style="letter-spacing: -.00244em;">n</tspan><tspan x="36.73633" y="8.3999">g</tspan></text>
      </g>
      <line x1="122.89136" y1="185.41525" x2="155.17075" y2="185.41525" style="fill: none; stroke: #999; stroke-linecap: square; stroke-miterlimit: 3; stroke-width: 1.41732px;"/>
    </g>
    <g id="state-publisher">
      <g id="text2350" style="isolation: isolate;">
        <text transform="translate(51.04567 128.64813)" style="font-family: SBBWeb-Roman,'SBB Web',Arial, &apos;SBB Web&apos;; font-size: 7px; isolation: isolate;"><tspan x="0" y="0">***publishedAt***</tspan></text>
      </g>
      <g id="text2347" style="isolation: isolate;">
        <text transform="translate(22.21022 128.64813)" style="font-family: SBBWeb-Roman,'SBB Web',Arial, &apos;SBB Web&apos;; font-size: 7px; isolation: isolate;"><tspan x="0" y="0">Stand:</tspan></text>
      </g>
    </g>
  </g>
</svg>