<svg xmlns="http://www.w3.org/2000/svg" width="297mm" height="210mm" viewBox="0 0 841.89 595.276"><path d="M0 0h841.89v595.276H0z" style="fill:none;stroke-width:0"/><path d="M73.058 551h547.88c.91 0 1.646.816 1.646 1.823v22.881c0 1.007-.737 1.823-1.646 1.823H73.058Z" style="fill:#fff;stroke-width:0" transform="translate(-1.5)"/><text xml:space="preserve" x="76.944" y="558.357" style="font-size:5px;line-height:1;font-family:SBBWeb-Roman,&quot;SBB Web&quot;,Arial,&quot;SBB Web&quot;" transform="translate(-1.5)"><tspan x="76.944" y="558.357" style="stroke-width:.75">Auf gewissen Autobuslinien ist ein Zuschlag und/oder eine Platzreservierung erforderlich. Bitte beachten Sie zudem, dass vom 21. März bis zum 31. Oktober für Velos in InterCity (IC)-Zügen eine Veloplatzreservation obligatorisch ist.</tspan><tspan x="76.944" y="563.357" style="stroke-width:.75">Bitte beachten Sie die Hinweise für die gewünschte Verbindung im (Online-)Fahrplan. Aus Platzgründen sind, je nach Zoomstufe, nicht alle Linien angegeben. Alle Angaben ohne Gewähr. Änderungen vorbehalten. Es gilt der Anwendungsbereich.</tspan></text><text x="76.722" y="572.645" style="font-size:5px;font-family:SBBWeb-Roman,&quot;SBB Web&quot;,Arial,&quot;SBB Web&quot;;isolation:isolate" transform="translate(-1.5)"><tspan x="76.722" y="572.645" style="letter-spacing:.00684em">Q</tspan><tspan x="80.555" y="572.645" style="letter-spacing:-.0002em">u</tspan><tspan x="83.335" y="572.645" style="letter-spacing:.00254em">e</tspan><tspan x="86.034" y="572.645" style="letter-spacing:-.0002em">ll</tspan><tspan x="88.255" y="572.645" style="letter-spacing:.01992em">e</tspan><tspan x="91.041" y="572.645" style="letter-spacing:.0002em">: OpenS</tspan><tspan x="109.289" y="572.645" style="letter-spacing:-.0082em">t</tspan><tspan x="110.822" y="572.645" style="letter-spacing:-.01426em">r</tspan><tspan x="112.416" y="572.645">e</tspan><tspan x="115.101" y="572.645" style="letter-spacing:-.00781em">e</tspan><tspan x="117.748" y="572.645" style="letter-spacing:-.0002em">tMap con</tspan><tspan x="139.048" y="572.645" style="letter-spacing:-.0082em">t</tspan><tspan x="140.582" y="572.645" style="letter-spacing:.00215em">r</tspan><tspan x="142.257" y="572.645">ibu</tspan><tspan x="149.113" y="572.645" style="letter-spacing:-.02246em">t</tspan><tspan x="150.575" y="572.645">o</tspan><tspan x="153.446" y="572.645" style="letter-spacing:.00586em">r</tspan><tspan xml:space="preserve" x="155.14" y="572.645">s  © SBB/CFF</tspan><tspan x="186.916" y="572.645" style="letter-spacing:.04629em">/</tspan><tspan x="188.812" y="572.645">F</tspan><tspan x="191.683" y="572.645" style="letter-spacing:-.01758em">F</tspan><tspan x="194.466" y="572.645" style="letter-spacing:.0002em">S ww</tspan><tspan x="206.673" y="572.645" style="letter-spacing:-.05234em">w</tspan><tspan x="210.201" y="572.645" style="letter-spacing:.0002em">.</tspan><tspan x="211.59" y="572.645" style="letter-spacing:-.0082em">t</tspan><tspan x="213.124" y="572.645" style="letter-spacing:-.00352em">r</tspan><tspan x="214.771" y="572.645">aﬁm</tspan><tspan x="224.312" y="572.645" style="letter-spacing:-.00391em">a</tspan><tspan x="226.978" y="572.645" style="letter-spacing:-.00078em">g</tspan><tspan x="229.845" y="572.645" style="letter-spacing:-.00781em">e</tspan><tspan x="232.492" y="572.645">.</tspan><tspan x="233.88" y="572.645" style="letter-spacing:-.00352em">c</tspan><tspan x="236.548" y="572.645">h ww</tspan><tspan x="248.296" y="572.645" style="letter-spacing:-.05215em">w</tspan><tspan x="251.825" y="572.645" style="letter-spacing:.0002em">.</tspan><tspan x="253.214" y="572.645" style="letter-spacing:-.00117em">g</tspan><tspan x="256.08" y="572.645">eop</tspan><tspan x="264.601" y="572.645" style="letter-spacing:-.00254em">s</tspan><tspan x="267.088" y="572.645">.</tspan><tspan x="268.478" y="572.645" style="letter-spacing:-.00352em">c</tspan><tspan x="271.146" y="572.645">h</tspan></text><path d="M17.008 527.244h51.024v51.024H17.008z" style="fill:#fff;stroke-width:0"/><path d="M18.466 528.702h1.458v1.458h-1.458zm1.458 0h1.457v1.458h-1.457zm1.457 0h1.458v1.458h-1.458zm1.458 0h1.458v1.458h-1.458zm1.458 0h1.458v1.458h-1.458zm1.458 0h1.458v1.458h-1.458zm1.458 0h1.457v1.458h-1.457zm5.83 0h1.459v1.458h-1.458zm2.917 0h1.457v1.458H35.96zm5.83 0h1.459v1.458H41.79zm4.374 0h1.458v1.458h-1.458zm1.458 0h1.458v1.458h-1.458zm1.458 0h1.458v1.458H49.08zm1.458 0h1.458v1.458h-1.458Zm1.458 0h1.457v1.458h-1.457zm4.373 0h1.458v1.458h-1.458zm1.458 0h1.458v1.458h-1.458zm1.458 0h1.457v1.458h-1.457Zm1.457 0H62.2v1.458h-1.458zm1.458 0h1.458v1.458H62.2zm1.458 0h1.458v1.458h-1.458zm1.458 0h1.458v1.458h-1.458zm-46.65 1.458h1.458v1.458h-1.458zm8.747 0h1.457v1.458h-1.457zm2.915 0h1.458v1.458h-1.458zm2.916 0h1.458v1.458h-1.458zm4.373 0h1.458v1.458h-1.458zm2.916 0h1.458v1.458h-1.458zm1.458 0h1.458v1.458H41.79zm1.458 0h1.457v1.458H43.25zm1.457 0h1.458v1.458h-1.458zm2.916 0h1.458v1.458h-1.458zm1.458 0h1.458v1.458H49.08zm1.458 0h1.458v1.458h-1.458Zm5.831 0h1.458v1.458h-1.458zm8.747 0h1.458v1.458h-1.458zm-46.65 1.458h1.458v1.457h-1.458zm2.915 0h1.458v1.457h-1.458zm1.458 0h1.458v1.457h-1.458zm1.458 0h1.458v1.457h-1.458zm2.916 0h1.457v1.457h-1.457zm8.747 0h1.457v1.457H35.96zm10.204 0h1.458v1.457h-1.458zm1.458 0h1.458v1.457h-1.458zm1.458 0h1.458v1.457H49.08zm7.289 0h1.458v1.457h-1.458zm2.916 0h1.457v1.457h-1.457Zm1.457 0H62.2v1.457h-1.458zm1.458 0h1.458v1.457H62.2zm2.916 0h1.458v1.457h-1.458zm-46.65 1.457h1.458v1.458h-1.458zm2.915 0h1.458v1.458h-1.458zm1.458 0h1.458v1.458h-1.458zm1.458 0h1.458v1.458h-1.458zm2.916 0h1.457v1.458h-1.457zm2.915 0h1.458v1.458h-1.458zm1.458 0h1.458v1.458h-1.458zm1.458 0h1.458v1.458h-1.458zm2.916 0h1.457v1.458H35.96zm1.457 0h1.458v1.458h-1.458zm1.458 0h1.458v1.458h-1.458zm1.458 0h1.458v1.458h-1.458zm1.458 0h1.458v1.458H41.79zm1.458 0h1.457v1.458H43.25zm1.457 0h1.458v1.458h-1.458zm1.458 0h1.458v1.458h-1.458zm4.374 0h1.458v1.458h-1.458Zm2.915 0h1.458v1.458h-1.458zm2.916 0h1.458v1.458h-1.458zm2.916 0h1.457v1.458h-1.457Zm1.457 0H62.2v1.458h-1.458zm1.458 0h1.458v1.458H62.2zm2.916 0h1.458v1.458h-1.458zm-46.65 1.458h1.458v1.458h-1.458zm2.915 0h1.458v1.458h-1.458zm1.458 0h1.458v1.458h-1.458zm1.458 0h1.458v1.458h-1.458zm2.916 0h1.457v1.458h-1.457zm4.373 0h1.458v1.458h-1.458zm10.205 0h1.458v1.458H41.79zm1.458 0h1.457v1.458H43.25zm1.457 0h1.458v1.458h-1.458zm1.458 0h1.458v1.458h-1.458zm1.458 0h1.458v1.458h-1.458zm1.458 0h1.458v1.458H49.08zm1.458 0h1.458v1.458h-1.458Zm1.458 0h1.457v1.458h-1.457zm4.373 0h1.458v1.458h-1.458zm2.916 0h1.457v1.458h-1.457Zm1.457 0H62.2v1.458h-1.458zm1.458 0h1.458v1.458H62.2zm2.916 0h1.458v1.458h-1.458Zm-46.65 1.458h1.458v1.458h-1.458zm8.747 0h1.457v1.458h-1.457zm2.915 0h1.458v1.458h-1.458zm1.458 0h1.458v1.458h-1.458zm2.916 0h1.458v1.458h-1.458Zm1.458 0h1.457v1.458H35.96zm2.915 0h1.458v1.458h-1.458zm1.458 0h1.458v1.458h-1.458zm1.458 0h1.458v1.458H41.79zm1.458 0h1.457v1.458H43.25zm5.83 0h1.459v1.458H49.08zm1.459 0h1.458v1.458h-1.458Zm2.915 0h1.458v1.458h-1.458zm2.916 0h1.458v1.458h-1.458zm8.747 0h1.458v1.458h-1.458zm-46.65 1.458h1.458v1.458h-1.458zm1.458 0h1.457v1.458h-1.457zm1.457 0h1.458v1.458h-1.458zm1.458 0h1.458v1.458h-1.458zm1.458 0h1.458v1.458h-1.458zm1.458 0h1.458v1.458h-1.458zm1.458 0h1.457v1.458h-1.457zm2.915 0h1.458v1.458h-1.458zm2.916 0h1.458v1.458h-1.458zm2.916 0h1.457v1.458H35.96zm2.915 0h1.458v1.458h-1.458zm2.916 0h1.458v1.458H41.79zm2.915 0h1.458v1.458h-1.458zm2.916 0h1.458v1.458h-1.458zm2.916 0h1.458v1.458h-1.458Zm2.915 0h1.458v1.458h-1.458zm2.916 0h1.458v1.458h-1.458zm1.458 0h1.458v1.458h-1.458zm1.458 0h1.457v1.458h-1.457Zm1.457 0H62.2v1.458h-1.458zm1.458 0h1.458v1.458H62.2zm1.458 0h1.458v1.458h-1.458zm1.458 0h1.458v1.458h-1.458zm-33.53 1.458h1.458v1.457h-1.458zm1.458 0h1.458v1.457h-1.458zm1.458 0h1.458v1.457h-1.458Zm4.373 0h1.458v1.457h-1.458zm2.916 0h1.458v1.457H41.79zm4.373 0h1.458v1.457h-1.458zm2.916 0h1.458v1.457H49.08zm-30.614 1.457h1.458v1.458h-1.458zm1.458 0h1.457v1.458h-1.457zm1.457 0h1.458v1.458h-1.458zm1.458 0h1.458v1.458h-1.458zm1.458 0h1.458v1.458h-1.458zm2.916 0h1.457v1.458h-1.457zm1.457 0h1.458v1.458H28.67zm1.458 0h1.458v1.458h-1.458zm1.458 0h1.458v1.458h-1.458zm2.916 0h1.458v1.458h-1.458Zm2.915 0h1.458v1.458h-1.458zm1.458 0h1.458v1.458h-1.458zm1.458 0h1.458v1.458h-1.458zm2.916 0h1.457v1.458H43.25zm7.289 0h1.458v1.458h-1.458Zm1.458 0h1.457v1.458h-1.457zm1.457 0h1.458v1.458h-1.458zm1.458 0h1.458v1.458h-1.458zm2.916 0h1.458v1.458h-1.458zm2.915 0H62.2v1.458h-1.458zm2.916 0h1.458v1.458h-1.458zm-45.192 1.458h1.458v1.458h-1.458zm4.373 0h1.458v1.458h-1.458zm2.916 0h1.458v1.458h-1.458zm4.373 0h1.458v1.458h-1.458zm2.916 0h1.458v1.458h-1.458zm2.916 0h1.457v1.458H35.96zm2.915 0h1.458v1.458h-1.458zm2.916 0h1.458v1.458H41.79zm2.915 0h1.458v1.458h-1.458zm1.458 0h1.458v1.458h-1.458zm1.458 0h1.458v1.458h-1.458zm1.458 0h1.458v1.458H49.08zm2.916 0h1.457v1.458h-1.457zm4.373 0h1.458v1.458h-1.458zm1.458 0h1.458v1.458h-1.458zm4.373 0h1.458v1.458H62.2zm1.458 0h1.458v1.458h-1.458zm1.458 0h1.458v1.458h-1.458zm-46.65 1.458h1.458v1.458h-1.458zm8.747 0h1.457v1.458h-1.457zm1.457 0h1.458v1.458H28.67zm4.374 0h1.458v1.458h-1.458zm4.373 0h1.458v1.458h-1.458zm2.916 0h1.458v1.458h-1.458zm2.916 0h1.457v1.458H43.25zm4.373 0h1.458v1.458h-1.458zm1.458 0h1.458v1.458H49.08zm1.458 0h1.458v1.458h-1.458Zm2.915 0h1.458v1.458h-1.458zm1.458 0h1.458v1.458h-1.458zm1.458 0h1.458v1.458h-1.458zm1.458 0h1.458v1.458h-1.458zm1.458 0h1.457v1.458h-1.457Zm1.457 0H62.2v1.458h-1.458zm2.916 0h1.458v1.458h-1.458zm-43.734 1.458h1.457v1.458h-1.457zm2.915 0h1.458v1.458h-1.458zm2.916 0h1.458v1.458h-1.458zm2.915 0h1.458v1.458H28.67zm7.29 0h1.457v1.458H35.96zm5.83 0h1.459v1.458H41.79zm7.29 0h1.458v1.458H49.08zm1.458 0h1.458v1.458h-1.458Zm5.831 0h1.458v1.458h-1.458zm1.458 0h1.458v1.458h-1.458zm4.373 0h1.458v1.458H62.2zm-43.734 1.458h1.458v1.458h-1.458zm1.458 0h1.457v1.458h-1.457zm1.457 0h1.458v1.458h-1.458zm1.458 0h1.458v1.458h-1.458zm4.374 0h1.457v1.458h-1.457zm2.915 0h1.458v1.458h-1.458zm1.458 0h1.458v1.458h-1.458zm1.458 0h1.458v1.458h-1.458zm2.916 0h1.457v1.458H35.96zm1.457 0h1.458v1.458h-1.458zm1.458 0h1.458v1.458h-1.458zm4.374 0h1.457v1.458H43.25zm8.747 0h1.457v1.458h-1.457zm1.457 0h1.458v1.458h-1.458zm1.458 0h1.458v1.458h-1.458zm2.916 0h1.458v1.458h-1.458zm1.458 0h1.457v1.458h-1.457Zm1.457 0H62.2v1.458h-1.458zm-40.818 1.458h1.457v1.457h-1.457zm1.457 0h1.458v1.457h-1.458zm2.916 0h1.458v1.457h-1.458zm4.373 0h1.458v1.457H28.67zm1.458 0h1.458v1.457h-1.458zm11.663 0h1.458v1.457H41.79zm2.915 0h1.458v1.457h-1.458zm1.458 0h1.458v1.457h-1.458zm1.458 0h1.458v1.457h-1.458zm4.374 0h1.457v1.457h-1.457zm4.373 0h1.458v1.457h-1.458zm7.29 0h1.457v1.457h-1.458zm1.457 0h1.458v1.457h-1.458zm-45.192 1.457h1.457v1.458h-1.457zm1.457 0h1.458v1.458h-1.458zm1.458 0h1.458v1.458h-1.458zm1.458 0h1.458v1.458h-1.458zm2.916 0h1.457v1.458h-1.457zm1.457 0h1.458v1.458H28.67zm4.374 0h1.458v1.458h-1.458zm1.458 0h1.458v1.458h-1.458Zm1.458 0h1.457v1.458H35.96zm2.915 0h1.458v1.458h-1.458zm1.458 0h1.458v1.458h-1.458zm1.458 0h1.458v1.458H41.79zm2.915 0h1.458v1.458h-1.458zm2.916 0h1.458v1.458h-1.458zm1.458 0h1.458v1.458H49.08zm1.458 0h1.458v1.458h-1.458Zm7.289 0h1.458v1.458h-1.458zm1.458 0h1.457v1.458h-1.457Zm4.373 0h1.458v1.458h-1.458zm-45.192 1.458h1.458v1.458h-1.458zm7.289 0h1.458v1.458h-1.458zm7.289 0h1.458v1.458h-1.458zm1.458 0h1.458v1.458h-1.458Zm4.373 0h1.458v1.458h-1.458zm1.458 0h1.458v1.458h-1.458zm1.458 0h1.458v1.458H41.79zm4.373 0h1.458v1.458h-1.458zm1.458 0h1.458v1.458h-1.458zm1.458 0h1.458v1.458H49.08zm1.458 0h1.458v1.458h-1.458Zm2.915 0h1.458v1.458h-1.458zm1.458 0h1.458v1.458h-1.458zm1.458 0h1.458v1.458h-1.458zm1.458 0h1.458v1.458h-1.458zm4.373 0h1.458v1.458H62.2Zm-43.734 1.458h1.458v1.458h-1.458zm1.458 0h1.457v1.458h-1.457zm1.457 0h1.458v1.458h-1.458zm4.374 0h1.458v1.458h-1.458zm1.458 0h1.457v1.458h-1.457zm2.915 0h1.458v1.458h-1.458zm2.916 0h1.458v1.458h-1.458zm1.458 0h1.458v1.458h-1.458Zm1.458 0h1.457v1.458H35.96zm1.457 0h1.458v1.458h-1.458zm1.458 0h1.458v1.458h-1.458zm1.458 0h1.458v1.458h-1.458zm1.458 0h1.458v1.458H41.79zm1.458 0h1.457v1.458H43.25zm1.457 0h1.458v1.458h-1.458zm1.458 0h1.458v1.458h-1.458zm4.374 0h1.458v1.458h-1.458Zm1.458 0h1.457v1.458h-1.457zm1.457 0h1.458v1.458h-1.458zm1.458 0h1.458v1.458h-1.458zm2.916 0h1.458v1.458h-1.458zm1.458 0h1.457v1.458h-1.457Zm4.373 0h1.458v1.458h-1.458zm-43.734 1.458h1.457v1.458h-1.457zm1.457 0h1.458v1.458h-1.458zm1.458 0h1.458v1.458h-1.458zm1.458 0h1.458v1.458h-1.458zm4.373 0h1.458v1.458H28.67zm1.458 0h1.458v1.458h-1.458zm5.832 0h1.457v1.458H35.96zm1.457 0h1.458v1.458h-1.458zm4.374 0h1.458v1.458H41.79zm1.458 0h1.457v1.458H43.25zm1.457 0h1.458v1.458h-1.458zm1.458 0h1.458v1.458h-1.458zm2.916 0h1.458v1.458H49.08zm2.916 0h1.457v1.458h-1.457zm4.373 0h1.458v1.458h-1.458zm4.373 0H62.2v1.458h-1.458zm2.916 0h1.458v1.458h-1.458zm1.458 0h1.458v1.458h-1.458zm-42.277 1.458h1.458v1.457h-1.458zm2.916 0h1.458v1.457h-1.458zm1.458 0h1.457v1.457h-1.457zm1.457 0h1.458v1.457H28.67zm7.29 0h1.457v1.457H35.96zm4.373 0h1.458v1.457h-1.458zm2.916 0h1.457v1.457H43.25zm4.373 0h1.458v1.457h-1.458zm1.458 0h1.458v1.457H49.08zm4.373 0h1.458v1.457h-1.458zm2.916 0h1.458v1.457h-1.458zm2.916 0h1.457v1.457h-1.457Zm1.457 0H62.2v1.457h-1.458zm2.916 0h1.458v1.457h-1.458zM18.466 556.4h1.458v1.458h-1.458zm1.458 0h1.457v1.458h-1.457zm1.457 0h1.458v1.458h-1.458zm4.374 0h1.458v1.458h-1.458zm13.12 0h1.458v1.458h-1.458zm1.458 0h1.458v1.458h-1.458zm1.458 0h1.458v1.458H41.79zm5.831 0h1.458v1.458h-1.458zm1.458 0h1.458v1.458H49.08zm1.458 0h1.458v1.458h-1.458Zm1.458 0h1.457v1.458h-1.457zm1.457 0h1.458v1.458h-1.458zm4.374 0h1.458v1.458h-1.458zm4.373 0h1.458v1.458H62.2zm-43.734 1.458h1.458v1.458h-1.458zm1.458 0h1.457v1.458h-1.457zm1.457 0h1.458v1.458h-1.458zm2.916 0h1.458v1.458h-1.458zm1.458 0h1.458v1.458h-1.458zm1.458 0h1.457v1.458h-1.457zm5.83 0h1.459v1.458h-1.458zm1.459 0h1.458v1.458h-1.458Zm1.458 0h1.457v1.458H35.96zm1.457 0h1.458v1.458h-1.458zm1.458 0h1.458v1.458h-1.458zm1.458 0h1.458v1.458h-1.458zm1.458 0h1.458v1.458H41.79zm1.458 0h1.457v1.458H43.25zm7.289 0h1.458v1.458h-1.458Zm2.915 0h1.458v1.458h-1.458zm5.832 0h1.457v1.458h-1.457Zm4.373 0h1.458v1.458h-1.458zm-45.192 1.458h1.458v1.458h-1.458zm1.458 0h1.457v1.458h-1.457zm2.915 0h1.458v1.458h-1.458zm1.458 0h1.458v1.458h-1.458zm1.458 0h1.458v1.458h-1.458zm2.915 0h1.458v1.458H28.67zm1.458 0h1.458v1.458h-1.458zm2.916 0h1.458v1.458h-1.458zm1.458 0h1.458v1.458h-1.458Zm7.289 0h1.458v1.458H41.79zm2.915 0h1.458v1.458h-1.458zm1.458 0h1.458v1.458h-1.458zm1.458 0h1.458v1.458h-1.458zm4.374 0h1.457v1.458h-1.457zm4.373 0h1.458v1.458h-1.458zm4.373 0H62.2v1.458h-1.458zm2.916 0h1.458v1.458h-1.458zm1.458 0h1.458v1.458h-1.458zm-46.65 1.458h1.458v1.458h-1.458zm4.373 0h1.458v1.458h-1.458zm1.458 0h1.458v1.458h-1.458zm1.458 0h1.458v1.458h-1.458zm1.458 0h1.457v1.458h-1.457zm1.457 0h1.458v1.458H28.67zm1.458 0h1.458v1.458h-1.458zm7.29 0h1.457v1.458h-1.458zm2.915 0h1.458v1.458h-1.458zm2.916 0h1.457v1.458H43.25zm7.289 0h1.458v1.458h-1.458Zm4.373 0h1.458v1.458h-1.458zm1.458 0h1.458v1.458h-1.458zm1.458 0h1.458v1.458h-1.458zm1.458 0h1.457v1.458h-1.457Zm1.457 0H62.2v1.458h-1.458zm2.916 0h1.458v1.458h-1.458zm-45.192 1.458h1.458v1.458h-1.458zm5.831 0h1.458v1.458h-1.458zm4.373 0h1.458v1.458H28.67zm4.374 0h1.458v1.458h-1.458zm5.831 0h1.458v1.458h-1.458zm1.458 0h1.458v1.458h-1.458zm1.458 0h1.458v1.458H41.79zm5.831 0h1.458v1.458h-1.458zm1.458 0h1.458v1.458H49.08zm2.916 0h1.457v1.458h-1.457zm2.915 0h1.458v1.458h-1.458zm1.458 0h1.458v1.458h-1.458zm2.916 0h1.457v1.458h-1.457Zm1.457 0H62.2v1.458h-1.458zm1.458 0h1.458v1.458H62.2zm-43.734 1.458h1.458v1.457h-1.458zm4.373 0h1.458v1.457h-1.458zm1.458 0h1.458v1.457h-1.458zm1.458 0h1.458v1.457h-1.458zm1.458 0h1.457v1.457h-1.457zm1.457 0h1.458v1.457H28.67zm4.374 0h1.458v1.457h-1.458zm1.458 0h1.458v1.457h-1.458Zm1.458 0h1.457v1.457H35.96zm1.457 0h1.458v1.457h-1.458zm1.458 0h1.458v1.457h-1.458zm4.374 0h1.457v1.457H43.25zm4.373 0h1.458v1.457h-1.458zm2.916 0h1.458v1.457h-1.458Zm1.458 0h1.457v1.457h-1.457zm1.457 0h1.458v1.457h-1.458zm1.458 0h1.458v1.457h-1.458zm1.458 0h1.458v1.457h-1.458zm1.458 0h1.458v1.457h-1.458zm1.458 0h1.457v1.457h-1.457Zm1.457 0H62.2v1.457h-1.458zm4.374 0h1.458v1.457h-1.458zm-34.988 1.457h1.458v1.458h-1.458zm2.916 0h1.458v1.458h-1.458zm1.458 0h1.458v1.458h-1.458Zm2.915 0h1.458v1.458h-1.458zm4.374 0h1.458v1.458H41.79zm2.915 0h1.458v1.458h-1.458zm1.458 0h1.458v1.458h-1.458zm1.458 0h1.458v1.458h-1.458zm1.458 0h1.458v1.458H49.08zm4.373 0h1.458v1.458h-1.458zm5.832 0h1.457v1.458h-1.457Zm1.457 0H62.2v1.458h-1.458zm1.458 0h1.458v1.458H62.2zm2.916 0h1.458v1.458h-1.458zm-46.65 1.458h1.458v1.458h-1.458zm1.458 0h1.457v1.458h-1.457zm1.457 0h1.458v1.458h-1.458zm1.458 0h1.458v1.458h-1.458zm1.458 0h1.458v1.458h-1.458zm1.458 0h1.458v1.458h-1.458zm1.458 0h1.457v1.458h-1.457zm2.915 0h1.458v1.458h-1.458zm1.458 0h1.458v1.458h-1.458zm4.374 0h1.457v1.458H35.96zm4.373 0h1.458v1.458h-1.458zm1.458 0h1.458v1.458H41.79zm2.915 0h1.458v1.458h-1.458zm2.916 0h1.458v1.458h-1.458zm2.916 0h1.458v1.458h-1.458Zm1.458 0h1.457v1.458h-1.457zm1.457 0h1.458v1.458h-1.458zm2.916 0h1.458v1.458h-1.458zm2.916 0h1.457v1.458h-1.457Zm1.457 0H62.2v1.458h-1.458zm2.916 0h1.458v1.458h-1.458zm-45.192 1.458h1.458v1.458h-1.458zm8.747 0h1.457v1.458h-1.457zm4.373 0h1.458v1.458h-1.458zm1.458 0h1.458v1.458h-1.458zm7.289 0h1.458v1.458h-1.458zm1.458 0h1.458v1.458H41.79zm4.373 0h1.458v1.458h-1.458zm1.458 0h1.458v1.458h-1.458zm1.458 0h1.458v1.458H49.08zm1.458 0h1.458v1.458h-1.458Zm2.915 0h1.458v1.458h-1.458zm5.832 0h1.457v1.458h-1.457Zm1.457 0H62.2v1.458h-1.458zm1.458 0h1.458v1.458H62.2zm1.458 0h1.458v1.458h-1.458zm1.458 0h1.458v1.458h-1.458zm-46.65 1.458h1.458v1.458h-1.458zm2.915 0h1.458v1.458h-1.458zm1.458 0h1.458v1.458h-1.458zm1.458 0h1.458v1.458h-1.458zm2.916 0h1.457v1.458h-1.457zm2.915 0h1.458v1.458h-1.458zm1.458 0h1.458v1.458h-1.458zm1.458 0h1.458v1.458h-1.458zm4.373 0h1.458v1.458h-1.458zm2.916 0h1.458v1.458h-1.458zm2.916 0h1.457v1.458H43.25zm1.457 0h1.458v1.458h-1.458zm1.458 0h1.458v1.458h-1.458zm4.374 0h1.458v1.458h-1.458Zm2.915 0h1.458v1.458h-1.458zm1.458 0h1.458v1.458h-1.458zm1.458 0h1.458v1.458h-1.458zm1.458 0h1.458v1.458h-1.458zm1.458 0h1.457v1.458h-1.457Zm1.457 0H62.2v1.458h-1.458zm2.916 0h1.458v1.458h-1.458zm-45.192 1.458h1.458v1.457h-1.458zm2.915 0h1.458v1.457h-1.458zm1.458 0h1.458v1.457h-1.458zm1.458 0h1.458v1.457h-1.458zm2.916 0h1.457v1.457h-1.457zm2.915 0h1.458v1.457h-1.458zm4.374 0h1.458v1.457h-1.458Zm2.915 0h1.458v1.457h-1.458zm4.374 0h1.458v1.457H41.79zm1.458 0h1.457v1.457H43.25zm1.457 0h1.458v1.457h-1.458zm1.458 0h1.458v1.457h-1.458zm1.458 0h1.458v1.457h-1.458zm1.458 0h1.458v1.457H49.08zm2.916 0h1.457v1.457h-1.457zm1.457 0h1.458v1.457h-1.458zm1.458 0h1.458v1.457h-1.458zm2.916 0h1.458v1.457h-1.458zm1.458 0h1.457v1.457h-1.457Zm1.457 0H62.2v1.457h-1.458zm1.458 0h1.458v1.457H62.2zm-43.734 1.457h1.458v1.458h-1.458zm2.915 0h1.458v1.458h-1.458zm1.458 0h1.458v1.458h-1.458zm1.458 0h1.458v1.458h-1.458zm2.916 0h1.457v1.458h-1.457zm2.915 0h1.458v1.458h-1.458zm2.916 0h1.458v1.458h-1.458zm2.916 0h1.457v1.458H35.96zm1.457 0h1.458v1.458h-1.458zm1.458 0h1.458v1.458h-1.458zm1.458 0h1.458v1.458h-1.458zm1.458 0h1.458v1.458H41.79zm7.289 0h1.458v1.458H49.08zm1.458 0h1.458v1.458h-1.458Zm1.458 0h1.457v1.458h-1.457zm1.457 0h1.458v1.458h-1.458zm2.916 0h1.458v1.458h-1.458zm1.458 0h1.458v1.458h-1.458zm2.915 0H62.2v1.458h-1.458zm2.916 0h1.458v1.458h-1.458zm-45.192 1.458h1.458v1.458h-1.458zm8.747 0h1.457v1.458h-1.457zm2.915 0h1.458v1.458h-1.458zm1.458 0h1.458v1.458h-1.458zm1.458 0h1.458v1.458h-1.458zm2.916 0h1.457v1.458H35.96zm5.83 0h1.459v1.458H41.79zm4.374 0h1.458v1.458h-1.458zm2.916 0h1.458v1.458H49.08zm1.458 0h1.458v1.458h-1.458Zm4.373 0h1.458v1.458h-1.458zm4.374 0h1.457v1.458h-1.457Zm1.457 0H62.2v1.458h-1.458zm1.458 0h1.458v1.458H62.2zm-43.734 1.458h1.458v1.458h-1.458zm1.458 0h1.457v1.458h-1.457zm1.457 0h1.458v1.458h-1.458zm1.458 0h1.458v1.458h-1.458zm1.458 0h1.458v1.458h-1.458zm1.458 0h1.458v1.458h-1.458zm1.458 0h1.457v1.458h-1.457zm2.915 0h1.458v1.458h-1.458zm4.374 0h1.458v1.458h-1.458Zm1.458 0h1.457v1.458H35.96zm1.457 0h1.458v1.458h-1.458zm1.458 0h1.458v1.458h-1.458zm1.458 0h1.458v1.458h-1.458zm2.916 0h1.457v1.458H43.25zm7.289 0h1.458v1.458h-1.458Zm1.458 0h1.457v1.458h-1.457zm1.457 0h1.458v1.458h-1.458zm7.29 0H62.2v1.458h-1.458zm2.915 0h1.458v1.458h-1.458z" style="stroke-width:0"/><path d="M628.838 17.008h196.044v22.94H628.838z" style="fill:#fff;stroke-width:0"/><path d="M630.289 18.258h192.107v20.659H630.289z" style="fill:#fff;stroke-width:0"/><path d="M630.289 38.704h60.702V18.47h-60.702v20.234Z" style="fill:#e42328;stroke-width:0"/><path d="M666.02 27.039h6.563v-5.196h3.092v5.196h6.563l-5.28-5.196h3.918l6.745 6.744-6.745 6.745h-3.921l5.28-5.196h-6.56v5.196h-3.092v-5.196h-6.563l5.28 5.196h-3.916l-6.745-6.744 6.745-6.745h3.917" style="fill:#fff;stroke-width:0"/><path d="M697.255 31.303c-.039 3.492 2.896 5.04 6.03 5.04 3.848 0 5.891-1.944 5.891-4.544 0-3.211-3.173-3.866-4.205-4.122-3.55-.914-4.224-1.053-4.224-2.142 0-1.19 1.149-1.606 2.143-1.606 1.487 0 2.698.435 2.796 2.142h3.015c0-3.272-2.717-4.56-5.672-4.56-2.559 0-5.296 1.388-5.296 4.285 0 2.658 2.122 3.471 4.226 4.025 2.082.555 4.203.814 4.203 2.34 0 1.448-1.666 1.766-2.757 1.766-1.666 0-3.133-.735-3.133-2.62" style="fill:#221e20;stroke-width:0"/><path d="M714.21 24.264h2.916c1.11 0 2.143.277 2.143 1.626 0 1.19-.814 1.686-1.904 1.686h-3.154v-3.312Zm-3.113 11.74h6.862c2.559 0 5-1.229 5-4.105 0-1.765-.875-3.094-2.6-3.59a3.106 3.106 0 0 0 1.925-2.956c0-2.637-1.825-3.51-4.523-3.51h-6.664v14.162Zm3.114-6.307h3.39c1.329 0 2.241.577 2.241 2.024 0 1.466-1.07 1.864-2.3 1.864h-3.33M728.148 24.264h2.916c1.11 0 2.142.277 2.142 1.626 0 1.19-.813 1.686-1.904 1.686h-3.154v-3.312Zm-3.113 11.74h6.861c2.56 0 4.998-1.229 4.998-4.105 0-1.765-.872-3.094-2.598-3.59a3.106 3.106 0 0 0 1.923-2.956c0-2.637-1.823-3.51-4.52-3.51h-6.664v14.162Zm3.115-6.307h3.39c1.33 0 2.242.577 2.242 2.024 0 1.466-1.07 1.864-2.3 1.864h-3.331" style="fill:#221e20;fill-rule:evenodd;stroke-width:0"/><path d="M756.674 26.603c-.377-3.272-2.994-5.096-6.108-5.096-4.384 0-6.961 3.273-6.961 7.476 0 4.086 2.577 7.359 6.96 7.359 3.472 0 5.91-2.26 6.228-5.792h-3.016c-.237 1.865-1.308 3.173-3.211 3.173-2.797 0-3.85-2.38-3.85-4.74 0-2.48 1.054-4.86 3.85-4.86 1.545 0 2.896 1.071 3.094 2.479M758.71 36.005h3.114v-5.851h5.93v-2.42h-5.93v-3.272h6.842v-2.617h-9.956M770.56 36.005h3.104v-5.851h5.924v-2.42h-5.926v-3.272h6.835v-2.617h-9.938M787.241 36.005h3.122v-5.851h5.924v-2.42h-5.924v-3.272h6.834v-2.617h-9.956M799.464 36.005h3.105v-5.851h5.924v-2.42h-5.924v-3.272h6.852v-2.617h-9.957M810.562 31.303c-.035 3.492 2.89 5.04 6.031 5.04 3.854 0 5.888-1.944 5.888-4.544 0-3.211-3.176-3.866-4.193-4.122-3.55-.914-4.228-1.053-4.228-2.142 0-1.19 1.141-1.606 2.142-1.606 1.48 0 2.695.435 2.801 2.142h2.998c0-3.272-2.712-4.56-5.656-4.56-2.57 0-5.3 1.388-5.3 4.285 0 2.658 2.123 3.471 4.23 4.025 2.07.555 4.192.814 4.192 2.34 0 1.448-1.659 1.766-2.747 1.766-1.678 0-3.14-.735-3.14-2.62" style="fill:#221e20;stroke-width:0"/><path d="M1.984 17.039h392.161v53.865H1.985A1.985 1.985 0 0 1 0 68.92V19.023c0-1.095.89-1.984 1.984-1.984Z" style="fill:#fff;stroke-width:0" transform="rotate(180 197.073 43.972)"/><text style="font-style:normal;font-variant:normal;font-weight:400;font-stretch:normal;font-size:12px;font-family:SBBWeb-Light,&quot;SBB Web&quot;,Arial,&quot;SBB Web&quot;;-inkscape-font-specification:&quot;SBBWeb-Light, SBB Web, Arial, SBB Web, Normal&quot;;font-variant-ligatures:normal;font-variant-caps:normal;font-variant-numeric:normal;font-variant-east-asian:normal;isolation:isolate" transform="translate(17.157 32.43)"><tspan x="0" y="0">General-Abo, GA Night, GA-Monatskarte, Ausflugs-Abo,</tspan><tspan x="0" y="15">Tageskarte zum Halbtax sowie für Spartageskarte / Aktionstageskarte /</tspan><tspan x="0" y="30">Spartageskarte Gemeinde zusammen mit Halbtax-Abo</tspan></text><rect width="172.589" height="111.483" x="9.457" y="77.632" rx="1.984" ry="1.984" style="fill:#fff;stroke-width:0"/><text style="font-size:6px;font-family:SBBWeb-Roman,&quot;SBB Web&quot;,Arial,&quot;SBB Web&quot;;isolation:isolate" transform="translate(62.56 178.12)"><tspan x="0" y="0">50</tspan><tspan x="8.341" y="0" style="letter-spacing:.00342em">k</tspan><tspan x="11.476" y="0">m</tspan></text><path d="M125.04 172.298v9.44l-107.434.052v-9.494" style="fill:none;stroke:#000;stroke-width:.9031px;stroke-miterlimit:3"/><text style="font-size:6px;font-family:SBBWeb-Roman,&quot;SBB Web&quot;,Arial,&quot;SBB Web&quot;;isolation:isolate" transform="translate(17.075 114.12)"><tspan x="0" y="0">Bahnen</tspan></text><path d="M18.29 100.564h27.663" style="fill:none;stroke:#eb0000;stroke-width:1.41732px;stroke-linecap:square;stroke-miterlimit:3"/><path d="M18.29 104.326v0" style="fill:none;stroke:#eb0000;stroke-width:1.41732px;stroke-linecap:round;stroke-miterlimit:3"/><path d="M21.056 104.326H44.57" style="fill:none;stroke:#eb0000;stroke-width:1.41732px;stroke-linecap:round;stroke-miterlimit:3;stroke-dasharray:0,0,0,2.76634"/><path d="M45.953 104.326v0" style="fill:none;stroke:#eb0000;stroke-width:1.41732px;stroke-linecap:round;stroke-miterlimit:3"/><text style="font-size:6px;font-family:SBBWeb-Roman,&quot;SBB Web&quot;,Arial,&quot;SBB Web&quot;;isolation:isolate" transform="translate(102.438 114.225)"><tspan x="0" y="0">Seilbahnen</tspan></text><path d="M103.358 100.564h27.663" style="fill:none;stroke:#000;stroke-width:1.41732px;stroke-linecap:square;stroke-miterlimit:3"/><path d="M103.358 104.326v0" style="fill:none;stroke:#000;stroke-width:1.41732px;stroke-linecap:round;stroke-miterlimit:3"/><path d="M106.124 104.326h23.514" style="fill:none;stroke:#000;stroke-width:1.41732px;stroke-linecap:round;stroke-miterlimit:3;stroke-dasharray:0,0,0,2.76634"/><path d="M131.021 104.326v0" style="fill:none;stroke:#000;stroke-width:1.41732px;stroke-linecap:round;stroke-miterlimit:3"/><g style="isolation:isolate"><text style="font-size:6px;font-family:SBBWeb-Roman,&quot;SBB Web&quot;,Arial,&quot;SBB Web&quot;;isolation:isolate" transform="translate(145.12 146.932)"><tspan x="0" y="0">Gül</tspan><tspan x="9.223" y="0" style="letter-spacing:-.0127em">t</tspan><tspan x="11.036" y="0" style="letter-spacing:-.00146em">i</tspan><tspan x="12.36" y="0" style="letter-spacing:-.00293em">g</tspan><tspan x="15.788" y="0" style="letter-spacing:-.0249em">k</tspan><tspan x="18.753" y="0">eit</tspan></text><text style="font-size:6px;font-family:SBBWeb-Roman,&quot;SBB Web&quot;,Arial,&quot;SBB Web&quot;" transform="translate(145.12 154.133)"><tspan x="0" y="0" style="letter-spacing:-.02301em">v</tspan><tspan x="2.862" y="0">or O</tspan><tspan x="14.532" y="0" style="letter-spacing:.03123em">r</tspan><tspan x="16.717" y="0">t</tspan><tspan x="0" y="7.2">anf</tspan><tspan x="8.335" y="7.2" style="letter-spacing:-.00345em">ra</tspan><tspan x="13.512" y="7.2" style="letter-spacing:-.00099em">ge</tspan><tspan x="20.174" y="7.2">n</tspan></text></g><path d="M145.893 137.151v0" style="fill:none;stroke:#999;stroke-width:1.41732px;stroke-linecap:round;stroke-miterlimit:3"/><path d="M148.659 137.151h23.514" style="fill:none;stroke:#999;stroke-width:1.41732px;stroke-linecap:round;stroke-miterlimit:3;stroke-dasharray:0,0,0,2.76634"/><path d="M173.556 137.151v0" style="fill:none;stroke:#999;stroke-width:1.41732px;stroke-linecap:round;stroke-miterlimit:3"/><text style="font-size:6px;font-family:SBBWeb-Roman,&quot;SBB Web&quot;,Arial,&quot;SBB Web&quot;;isolation:isolate" transform="translate(145.12 114.225)"><tspan x="0" y="0" style="letter-spacing:.00049em">S</tspan><tspan x="3.891" y="0" style="letter-spacing:-.00342em">c</tspan><tspan x="7.093" y="0">hi</tspan><tspan x="11.763" y="0" style="letter-spacing:.02344em">f</tspan><tspan x="13.679" y="0" style="letter-spacing:-.01904em">f</tspan><tspan x="15.34" y="0">e</tspan></text><path d="M145.893 100.564h27.663" style="fill:none;stroke:#2a6698;stroke-width:1.41732px;stroke-linecap:square;stroke-miterlimit:3"/><path d="M145.893 104.326v0" style="fill:none;stroke:#2a6698;stroke-width:1.41732px;stroke-linecap:round;stroke-miterlimit:3"/><path d="M148.659 104.326h23.514" style="fill:none;stroke:#2a6698;stroke-width:1.41732px;stroke-linecap:round;stroke-miterlimit:3;stroke-dasharray:0,0,0,2.76634"/><path d="M173.556 104.326v0" style="fill:none;stroke:#2a6698;stroke-width:1.41732px;stroke-linecap:round;stroke-miterlimit:3"/><text style="font-size:6px;font-family:SBBWeb-Roman,&quot;SBB Web&quot;,Arial,&quot;SBB Web&quot;;isolation:isolate" transform="translate(59.806 114.214)"><tspan x="0" y="0" style="letter-spacing:-.00586em">A</tspan><tspan x="3.853" y="0">u</tspan><tspan x="7.189" y="0" style="letter-spacing:-.02246em">t</tspan><tspan x="8.944" y="0">obu</tspan><tspan x="19.283" y="0" style="letter-spacing:.00488em">s</tspan><tspan x="22.313" y="0">se</tspan></text><path d="M61.07 100.564h27.173" style="fill:none;stroke:#3b3b3b;stroke-width:1.98425px;stroke-linecap:square;stroke-miterlimit:3"/><path d="M60.824 104.326v0" style="fill:none;stroke:#3b3b3b;stroke-width:1.98425px;stroke-linecap:round;stroke-miterlimit:3"/><path d="M63.59 104.326h23.514" style="fill:none;stroke:#3b3b3b;stroke-width:1.98425px;stroke-linecap:round;stroke-miterlimit:3;stroke-dasharray:0,0,0,2.76634"/><path d="M88.488 104.326v0" style="fill:none;stroke:#3b3b3b;stroke-width:1.98425px;stroke-linecap:round;stroke-miterlimit:3"/><path d="M60.824 100.564h27.664" style="fill:none;stroke:#fbd700;stroke-width:1.41732px;stroke-linecap:square;stroke-miterlimit:3"/><path d="M60.824 104.326v0" style="fill:none;stroke:#fbd700;stroke-width:1.41732px;stroke-linecap:round;stroke-miterlimit:3"/><path d="M63.59 104.326h23.514" style="fill:none;stroke:#fbd700;stroke-width:1.41732px;stroke-linecap:round;stroke-miterlimit:3;stroke-dasharray:0,0,0,2.76634"/><path d="M88.488 104.326v0" style="fill:none;stroke:#fbd700;stroke-width:1.41732px;stroke-linecap:round;stroke-miterlimit:3"/><g style="isolation:isolate"><text style="font-size:6px;font-family:SBBWeb-Roman,&quot;SBB Web&quot;,Arial,&quot;SBB Web&quot;;isolation:isolate" transform="translate(17.075 146.933)"><tspan x="0" y="0" style="letter-spacing:-.02832em">F</tspan><tspan x="3.275" y="0" style="letter-spacing:-.01416em">r</tspan><tspan x="5.188" y="0">eie</tspan><tspan x="14.634" y="0" style="letter-spacing:-.02686em">F</tspan><tspan x="17.918" y="0">ah</tspan><tspan x="24.478" y="0" style="letter-spacing:.03125em">r</tspan><tspan x="26.663" y="0">t</tspan></text></g><path d="M18.167 125.783h27.664" style="fill:none;stroke:#eb0000;stroke-width:1.41732px;stroke-linecap:square;stroke-miterlimit:3"/><path d="M18.167 133.361h27.664" style="fill:none;stroke:#000;stroke-width:1.41732px;stroke-linecap:square;stroke-miterlimit:3"/><path d="M18.168 137.151h27.663" style="fill:none;stroke:#2a6698;stroke-width:1.41732px;stroke-linecap:square;stroke-miterlimit:3"/><path d="M18.413 129.572h27.173" style="fill:none;stroke:#3b3b3b;stroke-width:1.98425px;stroke-linecap:square;stroke-miterlimit:3"/><path d="M18.167 129.572h27.664" style="fill:none;stroke:#fbd700;stroke-width:1.41732px;stroke-linecap:square;stroke-miterlimit:3"/><text style="font-size:6px;font-family:SBBWeb-Roman,&quot;SBB Web&quot;,Arial,&quot;SBB Web&quot;;isolation:isolate" transform="translate(59.756 146.933)"><tspan x="0" y="0" style="letter-spacing:-.02686em">F</tspan><tspan x="3.284" y="0">ah</tspan><tspan x="9.844" y="0" style="letter-spacing:.03125em">r</tspan><tspan x="12.029" y="0">t</tspan><tspan x="15.586" y="0" style="letter-spacing:-.01172em">z</tspan><tspan x="18.396" y="0">um</tspan><tspan x="0" y="7.2">e</tspan><tspan x="3.223" y="7.2" style="letter-spacing:.00439em">r</tspan><tspan x="5.247" y="7.2">mä</tspan><tspan x="13.588" y="7.2" style="letter-spacing:.00488em">s</tspan><tspan x="16.617" y="7.2">s</tspan><tspan x="19.617" y="7.2" style="letter-spacing:-.00146em">i</tspan><tspan x="20.941" y="7.2" style="letter-spacing:-.00049em">g</tspan><tspan x="24.384" y="7.2" style="letter-spacing:-.02051em">t</tspan><tspan x="26.15" y="7.2">en</tspan><tspan x="0" y="14.4">P</tspan><tspan x="3.888" y="14.4" style="letter-spacing:-.01416em">r</tspan><tspan x="5.801" y="14.4">eis</tspan></text><path d="M60.825 125.783v0" style="fill:none;stroke:#eb0000;stroke-width:1.41732px;stroke-linecap:round;stroke-miterlimit:3"/><path d="M63.592 125.783h23.513" style="fill:none;stroke:#eb0000;stroke-width:1.41732px;stroke-linecap:round;stroke-miterlimit:3;stroke-dasharray:0,0,0,2.76634"/><path d="M88.489 125.783v0" style="fill:none;stroke:#eb0000;stroke-width:1.41732px;stroke-linecap:round;stroke-miterlimit:3"/><path d="M60.825 133.361v0" style="fill:none;stroke:#000;stroke-width:1.41732px;stroke-linecap:round;stroke-miterlimit:3"/><path d="M63.592 133.361h23.513" style="fill:none;stroke:#000;stroke-width:1.41732px;stroke-linecap:round;stroke-miterlimit:3;stroke-dasharray:0,0,0,2.76634"/><path d="M88.489 133.361v0" style="fill:none;stroke:#000;stroke-width:1.41732px;stroke-linecap:round;stroke-miterlimit:3"/><path d="M60.825 137.151v0" style="fill:none;stroke:#2a6698;stroke-width:1.41732px;stroke-linecap:round;stroke-miterlimit:3"/><path d="M63.592 137.151h23.513" style="fill:none;stroke:#2a6698;stroke-width:1.41732px;stroke-linecap:round;stroke-miterlimit:3;stroke-dasharray:0,0,0,2.76634"/><path d="M88.489 137.151v0" style="fill:none;stroke:#2a6698;stroke-width:1.41732px;stroke-linecap:round;stroke-miterlimit:3"/><path d="M60.825 129.572v0" style="fill:none;stroke:#3b3b3b;stroke-width:1.98425px;stroke-linecap:round;stroke-miterlimit:3"/><path d="M63.592 129.572h23.513" style="fill:none;stroke:#3b3b3b;stroke-width:1.98425px;stroke-linecap:round;stroke-miterlimit:3;stroke-dasharray:0,0,0,2.76634"/><path d="M88.489 129.572v0" style="fill:none;stroke:#3b3b3b;stroke-width:1.98425px;stroke-linecap:round;stroke-miterlimit:3"/><path d="M60.825 129.572v0" style="fill:none;stroke:#fbd700;stroke-width:1.41732px;stroke-linecap:round;stroke-miterlimit:3"/><path d="M63.592 129.572h23.513" style="fill:none;stroke:#fbd700;stroke-width:1.41732px;stroke-linecap:round;stroke-miterlimit:3;stroke-dasharray:0,0,0,2.76634"/><path d="M88.489 129.572v0" style="fill:none;stroke:#fbd700;stroke-width:1.41732px;stroke-linecap:round;stroke-miterlimit:3"/><g style="isolation:isolate"><text style="font-size:6px;font-family:SBBWeb-Roman,&quot;SBB Web&quot;,Arial,&quot;SBB Web&quot;;isolation:isolate" transform="translate(102.438 146.933)"><tspan x="0" y="0" style="letter-spacing:-.02588em">K</tspan><tspan x="3.847" y="0">eine</tspan><tspan x="0" y="7.2">E</tspan><tspan x="3.665" y="7.2" style="letter-spacing:.00439em">r</tspan><tspan x="5.689" y="7.2">mä</tspan><tspan x="14.03" y="7.2" style="letter-spacing:.00488em">s</tspan><tspan x="17.06" y="7.2">s</tspan><tspan x="20.06" y="7.2" style="letter-spacing:-.00146em">i</tspan><tspan x="21.384" y="7.2">gu</tspan><tspan x="28.166" y="7.2" style="letter-spacing:-.00244em">n</tspan><tspan x="31.488" y="7.2">g</tspan></text></g><path d="M103.358 137.151h27.664" style="fill:none;stroke:#999;stroke-width:1.41732px;stroke-linecap:square;stroke-miterlimit:3"/><g style="isolation:isolate"><text style="font-size:6px;font-family:SBBWeb-Roman,&quot;SBB Web&quot;,Arial,&quot;SBB Web&quot;;isolation:isolate" transform="translate(47.786 88.501)"><tspan x="0" y="0">***publishedAt***</tspan></text></g><g style="isolation:isolate"><text style="font-size:6px;font-family:SBBWeb-Roman,&quot;SBB Web&quot;,Arial,&quot;SBB Web&quot;;isolation:isolate" transform="translate(17.075 88.501)"><tspan x="0" y="0">Erstellt am</tspan></text></g></svg>